<svg version="1.1" xmlns="http://www.w3.org/2000/svg" viewBox="0 0 1117.6218425095685 459.80602495043445" width="1117.6218425095685" height="459.80602495043445" filter="invert(93%) hue-rotate(180deg)">
  <!-- svg-source:excalidraw -->
  
  <defs>
    <style class="style-fonts">
      @font-face {
        font-family: "Virgil";
        src: url("https://excalidraw.com/Virgil.woff2");
      }
      @font-face {
        font-family: "Cascadia";
        src: url("https://excalidraw.com/Cascadia.woff2");
      }
    </style>
    
  </defs>
  <rect x="0" y="0" width="1117.6218425095685" height="459.80602495043445" fill="#ffffff"></rect><g stroke-linecap="round" transform="translate(10 49.08091566844041) rotate(0 236.2727272727273 175)"><path d="M0.19 -0.29 C135.95 -0.67, 270.94 -1.14, 471.72 0.3 M471.47 -1.22 C472.35 121.88, 472.8 240.39, 473.74 349.49 M473.27 350.63 C333.25 349.48, 192.44 349.98, 0.26 349.61 M-0.11 350.63 C1.28 241.37, 1.4 131.94, -1.19 1.07" stroke="#1971c2" stroke-width="2.5" fill="none" stroke-dasharray="8 10"></path></g><g stroke-linecap="round" transform="translate(329.81625951901833 96.36705834520819) rotate(0 66.5 130.5)"><path d="M2.97 -0.67 C37.91 -1.76, 81.91 0.97, 131.02 1.02 M-1.24 -1.47 C28.95 -1.5, 55.43 -0.71, 132.53 -1.84 M131.18 1.84 C134.9 61.39, 138.98 123.82, 130.03 259.7 M132.59 -0.64 C128.63 60.98, 130.74 123.65, 134.14 259.95 M129.26 264.05 C97.64 258.77, 59.57 257.82, -2.81 259.14 M133.07 262.29 C80.69 260.13, 29.19 260.82, -1.22 261.91 M2.54 261.89 C-5.86 200.08, -3.75 139.39, 0.73 1.4 M1.35 259.55 C-2.99 166.58, -4.23 70.68, 0.99 -0.8" stroke="#1971c2" stroke-width="2" fill="none"></path></g><g transform="translate(361.2109967626707 192.3670583452082) rotate(0 35.105262756347656 34.5)"><text x="35.105262756347656" y="0" font-family="Helvetica, Segoe UI Emoji" font-size="20px" fill="#1971c2" text-anchor="middle" style="white-space: pre;" direction="ltr" dominant-baseline="text-before-edge">Central </text><text x="35.105262756347656" y="23" font-family="Helvetica, Segoe UI Emoji" font-size="20px" fill="#1971c2" text-anchor="middle" style="white-space: pre;" direction="ltr" dominant-baseline="text-before-edge">Ledger</text><text x="35.105262756347656" y="46" font-family="Helvetica, Segoe UI Emoji" font-size="20px" fill="#1971c2" text-anchor="middle" style="white-space: pre;" direction="ltr" dominant-baseline="text-before-edge">Logic</text></g><g stroke-linecap="round" transform="translate(70.31025777149796 138.04837228923253) rotate(0 32.654563787866735 13.436806151945163)"><path d="M32.09 1.77 L65.21 15 L33.15 28.11 L1.07 14.8" stroke="none" stroke-width="0" fill="#c6302b" fill-rule="evenodd"></path><path d="M33.42 1.38 C39.18 4.05, 48.11 5.79, 66.72 14.36 M32.48 0.12 C41.23 2.06, 47.78 5.82, 65.42 13.12 M65.15 14.19 C58.6 17.87, 47.53 20.72, 32.06 26.65 M65.07 13.84 C51.98 19.18, 41.29 23.08, 32.93 27.39 M33.72 27.71 C24.66 25.17, 14.79 19.87, -1.42 14.29 M33.18 27.34 C26.15 25.05, 18.06 21.5, -0.95 13.6 M1.96 15.83 C8.3 9.74, 14.38 6.85, 32.92 0.35 M0.29 13.51 C6.99 11.22, 12.27 8.68, 32.98 0.39" stroke="#000000" stroke-width="1" fill="none"></path></g><g stroke-linecap="round"><g transform="translate(69.90402874829948 151.33674860577827) rotate(0 32.30740287156776 8.269845148574674)" fill-rule="evenodd"><path d="M-0.49 -0.33 L-1.77 3.77 L3.2 2.96 L32.93 19.03 L63.26 6.35 L65.15 1.74 L65.38 1.22 L35.19 13.87 L0.28 -1.42" stroke="none" stroke-width="0" fill="#912626" fill-rule="evenodd"></path><path d="M0.83 -0.44 C0.84 0.03, 0.64 2.07, 0.72 3.03 C0.8 3.99, -0.92 4.28, 1.31 5.32 C3.54 6.35, 9.83 7.32, 14.09 9.22 C18.36 11.13, 23.84 15.27, 26.9 16.76 C29.96 18.25, 30.4 18.41, 32.45 18.15 C34.5 17.88, 35.89 16.52, 39.19 15.17 C42.49 13.82, 48.14 11.95, 52.23 10.05 C56.32 8.16, 61.71 4.92, 63.74 3.78 C65.77 2.65, 64.35 3.87, 64.44 3.24 C64.52 2.62, 65.11 0.02, 64.26 0.04 C63.41 0.07, 63.95 1.54, 59.33 3.37 C54.71 5.2, 41.47 9.72, 36.55 11.04 C31.64 12.37, 35.94 12.99, 29.82 11.32 C23.71 9.65, 4.94 2.95, -0.13 1.02 M-0.19 -1.71 C-0.33 -1.61, 0.03 0.44, 0.15 1.29 C0.27 2.15, -1.87 1.99, 0.52 3.42 C2.9 4.85, 9.76 7.53, 14.46 9.87 C19.15 12.2, 25.53 16.21, 28.71 17.43 C31.89 18.65, 32.18 17.28, 33.53 17.19 C34.87 17.09, 33.82 18.16, 36.78 16.87 C39.75 15.58, 47.09 11.35, 51.31 9.46 C55.54 7.57, 59.88 6.55, 62.14 5.5 C64.4 4.46, 64.5 3.93, 64.88 3.18 C65.26 2.43, 65.58 0.95, 64.43 0.98 C63.28 1, 62.54 1.28, 57.98 3.34 C53.41 5.39, 41.81 12.06, 37.02 13.31 C32.23 14.56, 35.39 12.89, 29.24 10.83 C23.09 8.78, 4.98 2.66, 0.13 1" stroke="#000000" stroke-width="1" fill="none"></path></g></g><mask></mask><g stroke-linecap="round"><g transform="translate(69.80247149249993 141.28258028161935) rotate(0 32.41988762914709 8.738824598074288)" fill-rule="evenodd"><path d="M-1.66 0.6 L1.74 1.66 L1.22 5.5 L32.73 19.5 L63.54 5.57 L66.06 2.1 L66.49 0.67 L33.53 11.92 L0.29 -1.69" stroke="none" stroke-width="0" fill="#912626" fill-rule="evenodd"></path><path d="M0.72 0.73 C0.57 1.33, -0.19 2.67, -0.05 3.14 C0.09 3.62, -0.63 2.35, 1.58 3.6 C3.78 4.84, 8.93 8.49, 13.16 10.63 C17.4 12.76, 23.47 15.35, 26.99 16.38 C30.5 17.42, 32.37 16.91, 34.24 16.82 C36.12 16.73, 35.26 17.09, 38.24 15.87 C41.22 14.64, 48.02 11.19, 52.14 9.48 C56.27 7.77, 60.89 6.77, 62.99 5.59 C65.1 4.41, 64.49 3.19, 64.76 2.4 C65.04 1.62, 65.51 1.03, 64.66 0.89 C63.81 0.74, 64.38 -0.23, 59.66 1.55 C54.94 3.33, 41.38 9.66, 36.34 11.55 C31.31 13.45, 35.61 14.87, 29.45 12.9 C23.29 10.93, 4.35 1.92, -0.61 -0.26 M-0.36 0.07 C-0.74 0.38, -1.24 0.74, -1.03 1.47 C-0.81 2.2, -1.42 3.31, 0.92 4.45 C3.27 5.6, 8.38 6.28, 13.03 8.35 C17.68 10.41, 25.58 15.11, 28.84 16.85 C32.11 18.6, 30.91 18.64, 32.6 18.82 C34.3 19, 35.9 19.02, 39 17.93 C42.09 16.83, 46.91 14.46, 51.19 12.24 C55.46 10.02, 62.29 6.32, 64.66 4.59 C67.02 2.87, 65.32 2.9, 65.38 1.9 C65.44 0.9, 66.19 -1.79, 65.04 -1.4 C63.89 -1.01, 63.21 2.25, 58.48 4.22 C53.76 6.19, 41.66 8.93, 36.7 10.43 C31.73 11.94, 34.89 15.14, 28.68 13.24 C22.46 11.35, 4.08 1.09, -0.6 -0.96" stroke="#000000" stroke-width="1" fill="none"></path></g></g><mask></mask><g stroke-linecap="round" transform="translate(69.9040287482996 127.6895321976748) rotate(0 32.654563787866735 13.436806151945163)"><path d="M34.07 0.8 L66.59 13.57 L31.87 27.89 L1.35 12.15" stroke="none" stroke-width="0" fill="#c6302b" fill-rule="evenodd"></path><path d="M34.41 0.36 C43.26 3.86, 57.23 9.04, 65.56 15.94 M33.11 -0.88 C39.03 3.57, 45.82 5.7, 65.4 14.62 M64.37 13.78 C56 17.38, 42.97 22.26, 32.67 25.21 M65.24 14.52 C54.59 18.76, 44.07 22.62, 33.42 27.42 M31.58 27.16 C18.17 21.68, 7.12 17.06, 0.93 14.52 M32.05 26.47 C19.39 22.46, 7.19 17.88, 0.92 14.68 M-0.08 14.35 C5.62 12.24, 15.83 8.32, 32.02 0.89 M-0.02 14.39 C10 10.37, 20.73 5.6, 33.08 0.62" stroke="#000000" stroke-width="1" fill="none"></path></g><g stroke-linecap="round" transform="translate(69.48895972105407 117.0112184714763) rotate(0 32.654563787866735 13.436806151945163)"><path d="M34.28 -0.43 L64.18 15.02 L34.35 25.02 L-0.31 13.53" stroke="none" stroke-width="0" fill="#c6302b" fill-rule="evenodd"></path><path d="M31.54 -1.2 C43.54 3.03, 52.46 10.16, 63.34 14.36 M32.49 0.62 C41.16 3.84, 49.89 8.18, 65.68 13.1 M67.01 12.98 C54.48 17.59, 44.26 20.53, 33.6 28.71 M65.13 14.75 C58.01 17.42, 51.22 20.49, 33.97 27.14 M31.31 26.75 C23.09 23.24, 13.3 19.36, 1.78 12.55 M32.12 27.42 C22.59 23.71, 13.47 19.4, -0.69 14.23 M-1.98 15.26 C8.37 11.23, 14.57 8.23, 33.26 -1.8 M-0.45 14.88 C11.2 9.6, 22.58 4.94, 33.53 0.4" stroke="#000000" stroke-width="1" fill="none"></path></g><g stroke-linecap="round"><g transform="translate(69.3874024652543 130.60426655542085) rotate(0 32.30301288360819 8.88502351022268)" fill-rule="evenodd"><path d="M-0.35 1.5 L-0.18 3.9 L2.19 5.55 L35.02 18.53 L63.89 3.42 L65.52 -0.67 L64.43 0.5 L33.61 14.26 L0.52 1.78" stroke="none" stroke-width="0" fill="#912626" fill-rule="evenodd"></path><path d="M-0.72 0.53 C-0.86 1.08, -1.17 1.99, -0.63 2.45 C-0.09 2.91, 0.07 2.1, 2.52 3.29 C4.98 4.48, 9.89 7.63, 14.09 9.61 C18.3 11.59, 24.68 13.65, 27.75 15.17 C30.81 16.7, 30.79 18.56, 32.46 18.74 C34.13 18.92, 34.46 17.5, 37.74 16.25 C41.02 15.01, 47.74 13.36, 52.13 11.28 C56.51 9.2, 61.86 5.33, 64.06 3.77 C66.25 2.21, 65.23 2.37, 65.29 1.94 C65.35 1.5, 65.53 1.09, 64.42 1.16 C63.3 1.23, 63.37 0.57, 58.6 2.36 C53.84 4.16, 40.82 10.27, 35.82 11.92 C30.81 13.57, 34.37 14.38, 28.59 12.24 C22.8 10.1, 5.88 1.03, 1.1 -0.91 M1.11 -0.24 C1.34 0.61, 1.54 3.36, 1.75 4.06 C1.96 4.77, 0.25 2.92, 2.37 3.99 C4.49 5.06, 10.46 8.63, 14.45 10.46 C18.45 12.3, 23.16 13.74, 26.34 15.01 C29.53 16.28, 31.57 18.12, 33.55 18.09 C35.53 18.07, 35.29 15.98, 38.23 14.86 C41.16 13.73, 47.09 12.9, 51.16 11.33 C55.22 9.77, 60.12 7.17, 62.62 5.48 C65.12 3.79, 65.84 2.27, 66.18 1.19 C66.52 0.11, 65.61 -1.08, 64.67 -0.98 C63.73 -0.88, 65.33 -0.19, 60.53 1.8 C55.73 3.8, 40.81 9.25, 35.89 10.99 C30.97 12.73, 37.27 13.79, 31.02 12.24 C24.76 10.69, 3.37 4, -1.65 1.72" stroke="#000000" stroke-width="1" fill="none"></path></g></g><mask></mask><g stroke-linecap="round" transform="translate(81.17607390912445 127.20718965125633) rotate(0 7.049268343735946 3.1064572362226244)"><path d="M4.63 0.36 C5.75 0.32, 7.03 0.58, 8.51 0.83 C9.98 1.08, 12.64 1.31, 13.47 1.86 C14.3 2.41, 13.79 3.65, 13.5 4.11 C13.2 4.56, 12.69 4.25, 11.68 4.6 C10.67 4.94, 8.89 6.13, 7.42 6.2 C5.95 6.27, 3.95 5.46, 2.88 5.02 C1.8 4.58, 1.22 4.15, 0.99 3.58 C0.75 3.01, 0.41 2.12, 1.46 1.62 C2.52 1.11, 6.03 0.68, 7.31 0.54 C8.58 0.4, 9.23 0.92, 9.1 0.79 M8.59 -0.25 C9.62 0.01, 10.47 0.29, 11.5 0.79 C12.53 1.29, 14.56 2.19, 14.77 2.75 C14.98 3.3, 14.06 3.55, 12.76 4.11 C11.45 4.66, 8.4 5.85, 6.93 6.09 C5.46 6.33, 4.9 6.11, 3.94 5.55 C2.97 4.99, 1.45 3.22, 1.15 2.71 C0.84 2.21, 1.89 2.85, 2.12 2.52 C2.35 2.2, 1.26 1.17, 2.53 0.77 C3.79 0.38, 8.81 0.07, 9.7 0.15 C10.59 0.24, 8.1 1.15, 7.88 1.26" stroke="none" stroke-width="0" fill="#ffff"></path><path d="M9.93 0.47 C11.26 0.61, 11.95 0.86, 12.69 1.42 C13.43 1.98, 14.71 3.08, 14.38 3.82 C14.05 4.55, 12 5.37, 10.72 5.83 C9.45 6.29, 8.34 6.63, 6.71 6.56 C5.08 6.48, 2.13 5.96, 0.93 5.39 C-0.27 4.82, -0.7 3.9, -0.46 3.11 C-0.23 2.33, 1.36 1.24, 2.33 0.69 C3.3 0.14, 3.91 -0.01, 5.34 -0.17 C6.77 -0.33, 9.8 -0.6, 10.91 -0.28 C12.01 0.04, 12.12 1.59, 11.95 1.76 M8.8 0.65 C10.36 0.72, 12.31 1.61, 13.43 2.13 C14.56 2.65, 15.73 3.41, 15.53 3.77 C15.33 4.12, 13.53 4.04, 12.26 4.23 C10.99 4.43, 9.46 4.65, 7.9 4.93 C6.35 5.22, 4.16 5.98, 2.93 5.93 C1.7 5.87, 0.83 5.08, 0.52 4.61 C0.2 4.15, 0.63 3.82, 1.04 3.13 C1.45 2.44, 1.9 1.08, 2.96 0.47 C4.03 -0.14, 6.67 -0.59, 7.43 -0.5 C8.18 -0.42, 7.35 0.59, 7.5 0.99" stroke="#000000" stroke-width="1" fill="none"></path></g><g stroke-linecap="round"><g transform="translate(94.21124638881241 136.62705195098425) rotate(0 6.180222463006672 0.004868876528888677)" fill-rule="evenodd"><path d="M-0.31 -0.47 L7.32 2.33 L13.11 -3.52 L0.92 -1.58" stroke="none" stroke-width="0" fill="#ffff" fill-rule="evenodd"></path><path d="M-0.94 0.17 C1.86 0.76, 3.64 0.92, 9.64 2.8 M0.18 -0.43 C2.74 0.6, 5.24 2.11, 8.81 2.92 M9.25 3.63 C9.43 1.42, 11.13 -0.23, 12.68 -2.73 M9.37 3.11 C10.13 0.85, 11.19 -1.13, 12.17 -2.65 M13.3 -3.62 C8.47 -3, 3.94 -2.05, 0.68 -0.31 M11.76 -2.57 C6.96 -1.57, 2.62 -1.09, 0.39 0.18 M0 0 C0 0, 0 0, 0 0 M0 0 C0 0, 0 0, 0 0" stroke="#000000" stroke-width="1" fill="none"></path></g></g><mask></mask><g stroke-linecap="round"><g transform="translate(98.67976564399424 121.11375430328115) rotate(0 3.860974466026505 3.2934503870122285)" fill-rule="evenodd"><path d="M-1.62 0.5 L-0.39 1.9 L-1.81 3.6 L1.22 3.75 L2.47 8.82 L6.3 3.15 L10.44 2.62 L6.52 1.68 L5.79 0.23 L3.9 2.97 L-0.43 0.77" stroke="none" stroke-width="0" fill="#ffff" fill-rule="evenodd"></path><path d="M-0.11 0.03 C0.18 0.84, 1.04 1.9, 1.1 2.5 M0.03 -0.06 C0.4 1.02, 0.75 1.78, 1.09 2.46 M0.83 2.45 C0.61 2.86, -0.01 3.34, -2.03 4.57 M1.15 2.34 C0 3.01, -1.2 3.89, -2.13 4.5 M-2.12 4.03 C-1.02 4.21, 0.67 4.59, 2.24 5.17 M-2.3 4.41 C-0.66 4.35, 0.91 4.75, 1.9 4.7 M1.98 4.79 C2.75 5.56, 3.7 6.61, 4.26 7.45 M1.95 4.76 C2.57 5.82, 3.6 6.53, 4.06 7.38 M3.96 7.56 C3.97 6.6, 4.32 6.29, 4.65 4.52 M3.93 7.47 C4.28 6.75, 4.22 6.18, 4.64 4.38 M4.38 4.55 C5.97 4.36, 7.66 3.86, 9.38 3.82 M4.84 4.18 C6.05 4, 7 3.95, 9.46 3.49 M10.02 3.21 C8.27 3.46, 6.88 2.64, 5.35 2.14 M9.63 3.63 C8.18 3.27, 6.88 2.86, 5.18 2.29 M5.21 2.23 C5.84 1.68, 5.82 1.03, 6.98 -0.74 M5.54 2.27 C5.58 1.57, 5.86 0.81, 6.59 -0.69 M6.52 -0.98 C5.23 -0.21, 4.23 0.07, 3.38 0.97 M6.52 -0.41 C5.77 -0.21, 4.64 0.16, 3.18 1.09 M3.19 0.97 C2.66 1.03, 2.12 0.39, 0.16 -0.23 M3.08 1.17 C2.41 0.67, 2 0.6, -0.05 0.01 M0 0 C0 0, 0 0, 0 0 M0 0 C0 0, 0 0, 0 0" stroke="#000000" stroke-width="1" fill="none"></path></g></g><mask></mask><g stroke-linecap="round"><g transform="translate(117.18340574365988 126.9526072091162) rotate(0 0.138385125336697 3.2482030659375454)" fill-rule="evenodd"><path d="M-1.6 1.88 L5.71 2.31 L0.74 4.42 L-8.62 2.87 L-0.82 0.09 L-1.78 1.01" stroke="none" stroke-width="0" fill="#912626" fill-rule="evenodd"></path><path d="M-0.72 -0.42 C2.92 0.76, 4.76 2.01, 8.13 3.35 M-0.05 0.35 C1.4 0.59, 3.11 1.25, 7.28 3.17 M8.06 2.9 C5.13 4.2, 1.69 5.78, 0.15 6.92 M7.68 2.69 C5.01 4.06, 2.52 5.18, -0.19 6.47 M-0.63 5.4 C-1.54 5.13, -2.86 5.36, -7.07 2.5 M-0.23 5.7 C-2.39 5.22, -4.89 3.93, -7.44 3.1 M-7.3 2.67 C-5.31 2.37, -4.02 1.83, 0.51 0.44 M-7.85 3.26 C-4.77 1.65, -2.52 0.9, -0.35 -0.14 M0 0 C0 0, 0 0, 0 0 M0 0 C0 0, 0 0, 0 0 M0 0 C0 0, 0 0, 0 0 M0 0 C0 0, 0 0, 0 0" stroke="#000000" stroke-width="1" fill="none"></path></g></g><mask></mask><g stroke-linecap="round"><g transform="translate(116.40005955259994 126.76869508356964) rotate(0 0.023228632889086498 3.0336825891641723)"><path d="M0.38 -0.15 C-0.05 1.95, 0.42 4.02, -0.39 6.21 M-0.16 -0.07 C-0.04 1.49, -0.18 3.18, 0.44 5.86" stroke="#000000" stroke-width="1" fill="none"></path></g></g><mask></mask><g transform="translate(89.48129086542605 172.07986133496854) rotate(0 13.736842155456543 11.999016557744142)"><text x="13.736842155456543" y="0" font-family="Helvetica, Segoe UI Emoji" font-size="10.433927441516644px" fill="#000000" text-anchor="middle" style="white-space: pre;" direction="ltr" dominant-baseline="text-before-edge">Redis</text><text x="13.736842155456543" y="11.99901655774414" font-family="Helvetica, Segoe UI Emoji" font-size="10.433927441516644px" fill="#000000" text-anchor="middle" style="white-space: pre;" direction="ltr" dominant-baseline="text-before-edge">cache</text></g><g stroke-linecap="round"><g transform="translate(160.38322429495366 296.3853486518624) rotate(0 77.11559357141331 -1.2231357507379528)"><path d="M1.11 -1.58 C19.62 1.52, 44.14 0.95, 68.88 -0.47 M0.76 0.32 C23.31 -0.77, 44.65 -1.31, 66.99 -0.58 M68.71 -3.12 C101.93 -2.08, 135.94 -1.08, 153.28 -1.21 M67.48 -0.86 C95.85 -0.68, 124 -1.98, 153.47 -2.46" stroke="#000000" stroke-width="1" fill="none"></path></g><g transform="translate(160.38322429495366 296.3853486518624) rotate(0 77.11559357141331 -1.2231357507379528)"><path d="M-0.72 -3.51 L13.67 -7.83 L15.57 6.46 L-0.04 -3.38" stroke="none" stroke-width="0" fill="#000000" fill-rule="evenodd"></path><path d="M1.95 -2.76 C4.36 -2.17, 11.26 -4.09, 16.05 -6.71 M1.68 -1.34 C6.42 -3.96, 10.22 -5.95, 14.64 -6.78 M15.78 -8.48 C15.17 -2.37, 15.13 3.51, 14.03 6.19 M15 -7.04 C14.64 -2.72, 14.16 0.91, 14.15 5.41 M13.76 5.34 C11.88 3.72, 7.44 1, 0.98 -1.69 M14.77 6 C9.95 3.53, 6.42 0.66, 0.62 -1.04 M1.11 -1.58 C1.11 -1.58, 1.11 -1.58, 1.11 -1.58 M1.11 -1.58 C1.11 -1.58, 1.11 -1.58, 1.11 -1.58" stroke="#000000" stroke-width="1" fill="none"></path></g><g transform="translate(160.38322429495366 296.3853486518624) rotate(0 77.11559357141331 -1.2231357507379528)"><path d="M151.64 -4.39 L138.71 3.65 L140.9 -7.4 L152.32 -4.26" stroke="none" stroke-width="0" fill="#000000" fill-rule="evenodd"></path><path d="M154.31 -3.64 C148.13 0.64, 146.48 2.58, 141.1 4.78 M154.04 -2.22 C149.59 -0.89, 144.3 1.22, 139.68 4.7 M140.82 3.01 C140.47 -0.78, 140.55 -4.78, 139.36 -7.67 M140.05 4.44 C139.82 0.38, 139.44 -4.38, 139.49 -8.45 M139.1 -8.52 C143.26 -7.13, 144.92 -6.92, 153.34 -2.57 M140.11 -7.86 C143.49 -6.26, 148.16 -5.19, 152.98 -1.92 M153.47 -2.46 C153.47 -2.46, 153.47 -2.46, 153.47 -2.46 M153.47 -2.46 C153.47 -2.46, 153.47 -2.46, 153.47 -2.46" stroke="#000000" stroke-width="1" fill="none"></path></g></g><mask></mask><g stroke-linecap="round"><g transform="translate(77.214226605904 121.62422443393064) rotate(0 0.042279773591403114 -0.00951303538039383)"><path d="M-0.01 0.01 C0.02 0, 0.07 -0.02, 0.09 -0.02 M0 0 C0.02 0, 0.05 -0.01, 0.09 -0.03" stroke="#000000" stroke-width="1" fill="none"></path></g><g transform="translate(77.214226605904 121.62422443393064) rotate(0 0.042279773591403114 -0.00951303538039383)"><path d="M1.63 2.01 L0.24 -1.57 L0.95 -0.7 L1.87 0.31" stroke="none" stroke-width="0" fill="#000000" fill-rule="evenodd"></path><path d="M-0.01 0.01 C0 0, 0.02 -0.01, 0.03 -0.02 M-0.01 0 C0 0, 0.01 -0.01, 0.03 -0.03 M0.03 -0.02 C0.03 -0.01, 0.04 0, 0.04 0.01 M0.03 -0.03 C0.03 -0.02, 0.04 0, 0.04 0.01 M0.05 0.01 C0.03 0.01, 0 0.01, 0 0 M0.04 0.02 C0.02 0.01, 0 0.01, 0 0.01 M-0.01 0.01 C-0.01 0.01, -0.01 0.01, -0.01 0.01 M-0.01 0.01 C-0.01 0.01, -0.01 0.01, -0.01 0.01" stroke="#000000" stroke-width="1" fill="none"></path></g><g transform="translate(77.214226605904 121.62422443393064) rotate(0 0.042279773591403114 -0.00951303538039383)"><path d="M1.73 1.97 L0.26 -1.54 L0.95 -0.75 L1.97 0.28" stroke="none" stroke-width="0" fill="#000000" fill-rule="evenodd"></path><path d="M0.09 -0.02 C0.08 -0.01, 0.07 -0.01, 0.05 0.01 M0.09 -0.03 C0.08 -0.02, 0.08 -0.01, 0.05 0.01 M0.05 0.01 C0.05 0, 0.05 -0.01, 0.05 -0.03 M0.06 0.01 C0.05 0, 0.05 -0.01, 0.04 -0.03 M0.05 -0.03 C0.06 -0.03, 0.08 -0.03, 0.1 -0.03 M0.04 -0.03 C0.06 -0.03, 0.08 -0.03, 0.09 -0.02 M0.09 -0.03 C0.09 -0.03, 0.09 -0.03, 0.09 -0.03 M0.09 -0.03 C0.09 -0.03, 0.09 -0.03, 0.09 -0.03" stroke="#000000" stroke-width="1" fill="none"></path></g></g><mask></mask><g stroke-linecap="round"><g transform="translate(72.39985029591145 246.0396619098674) rotate(0 41.42470032845597 45.4033870052737)" fill-rule="evenodd"><path d="M-1.29 1.59 L0.33 88.4 L1.05 92.33 L18.95 97.88 L45.03 99.81 L69.92 97.07 L84.18 89.5 L83.78 0.43 L81.69 1.13 L81.47 -3.61 L73.18 -4.66 L39.65 -7.07 L11.39 -4.47 L1.69 -2.54 L1.02 1.25" stroke="none" stroke-width="0" fill="#ced4da" fill-rule="evenodd"></path><path d="M0.2 1.18 C0.26 14.53, 1.17 65.06, 1.05 79.75 C0.94 94.44, -0.88 86.91, -0.48 89.32 C-0.07 91.72, 0.26 92.91, 3.47 94.18 C6.68 95.45, 12.21 96.32, 18.79 96.94 C25.37 97.56, 34.68 97.89, 42.96 97.87 C51.25 97.86, 62.04 97.85, 68.49 96.87 C74.94 95.89, 79.38 93.14, 81.67 92 C83.95 90.86, 82.01 91.88, 82.23 90.03 C82.44 88.18, 82.73 94.74, 82.95 80.88 C83.18 67.03, 83.82 20.52, 83.58 6.89 C83.33 -6.75, 82.77 1.08, 81.48 -0.93 C80.2 -2.93, 78.6 -4.36, 75.87 -5.14 C73.15 -5.92, 71.27 -5.04, 65.12 -5.6 C58.98 -6.16, 46.58 -8.33, 39.01 -8.5 C31.44 -8.67, 25.75 -7.35, 19.7 -6.6 C13.65 -5.86, 6.21 -5.09, 2.73 -4.02 C-0.75 -2.96, -0.62 -0.96, -1.19 -0.19 C-1.77 0.57, -0.8 0.34, -0.73 0.54 M-1.16 0.75 C-1.25 14.24, 0.57 65.79, 0.52 80.7 C0.46 95.62, -1.96 87.79, -1.5 90.23 C-1.04 92.68, -0.43 94.21, 3.29 95.35 C7.01 96.49, 14.07 96.27, 20.82 97.08 C27.56 97.88, 35.66 100.43, 43.75 100.18 C51.84 99.93, 63.12 97.05, 69.34 95.56 C75.57 94.07, 78.64 92.35, 81.09 91.25 C83.53 90.15, 83.57 90.26, 84.02 88.97 C84.46 87.68, 83.71 97.01, 83.77 83.5 C83.83 70, 84.45 22.12, 84.38 7.93 C84.31 -6.27, 84.81 0.11, 83.34 -1.67 C81.88 -3.45, 78.77 -2.15, 75.57 -2.75 C72.36 -3.35, 70.26 -4.22, 64.12 -5.27 C57.99 -6.32, 45.97 -8.48, 38.74 -9.04 C31.51 -9.6, 26.43 -9.52, 20.76 -8.61 C15.08 -7.7, 8.07 -5.02, 4.71 -3.57 C1.34 -2.12, 1.17 -0.68, 0.58 0.1 C-0.01 0.87, 1.38 1.14, 1.16 1.09" stroke="#2f9e44" stroke-width="1" fill="none"></path></g></g><mask></mask><g stroke-linecap="round" transform="translate(70.7159476682491 238.36980859102331) rotate(0 41.1854836575213 8.329454218617641)"><path d="M50.24 0.69 C58.56 1.15, 68.93 2.27, 74.28 3.54 C79.64 4.8, 82.83 6.57, 82.36 8.29 C81.89 10.01, 77.37 12.53, 71.47 13.84 C65.58 15.16, 55.64 15.77, 46.98 16.18 C38.32 16.58, 26.87 17.07, 19.5 16.29 C12.14 15.52, 5.55 13.24, 2.77 11.54 C-0.01 9.84, -0.3 7.89, 2.8 6.09 C5.89 4.28, 12.31 1.6, 21.36 0.72 C30.4 -0.15, 50.13 0.59, 57.06 0.82 C64 1.05, 63.13 2.07, 62.97 2.1 M35.95 1.54 C44.49 1, 55.89 -0.91, 63.19 -0.28 C70.49 0.36, 77.04 3.2, 79.76 5.36 C82.48 7.51, 82.8 10.8, 79.52 12.65 C76.24 14.5, 67.88 16, 60.08 16.47 C52.28 16.95, 40.98 15.74, 32.73 15.48 C24.48 15.23, 15.94 16.22, 10.57 14.93 C5.2 13.65, 0.42 9.78, 0.51 7.75 C0.61 5.73, 5.58 3.83, 11.13 2.77 C16.67 1.71, 29.56 1.78, 33.78 1.39 C38 0.99, 36.05 0.26, 36.45 0.4" stroke="none" stroke-width="0" fill="#fff"></path><path d="M35.47 0.4 C43.8 0.36, 56.11 1.18, 63.51 2.03 C70.91 2.89, 77.16 3.94, 79.86 5.54 C82.55 7.14, 83.14 9.8, 79.69 11.63 C76.23 13.45, 67.04 15.79, 59.12 16.5 C51.21 17.2, 40.74 16.51, 32.2 15.84 C23.66 15.18, 13.38 13.92, 7.91 12.53 C2.43 11.13, -1.3 9.27, -0.66 7.47 C-0.01 5.67, 4.89 2.98, 11.76 1.74 C18.63 0.5, 34.93 0.41, 40.59 0.04 C46.25 -0.33, 45.8 -0.45, 45.72 -0.48 M37.68 1.31 C46.01 1.18, 57.41 2.16, 64.74 2.83 C72.07 3.5, 79.46 3.8, 81.66 5.32 C83.86 6.84, 81.96 10.14, 77.93 11.97 C73.9 13.81, 65.44 15.42, 57.48 16.31 C49.51 17.21, 38.34 17.85, 30.12 17.32 C21.91 16.79, 12.97 15.01, 8.2 13.13 C3.44 11.24, 0.63 7.62, 1.54 6.02 C2.44 4.42, 7.5 4.34, 13.62 3.52 C19.75 2.7, 33.96 1.78, 38.3 1.1 C42.64 0.42, 39.49 -0.64, 39.67 -0.57" stroke="#2f9e44" stroke-width="1" fill="none"></path></g><g transform="translate(74.98978292862404 290.1359584690275) rotate(0 32.78947448730469 15.586240366857282)"><text x="32.78947448730469" y="0" font-family="Helvetica, Segoe UI Emoji" font-size="13.553252492919386px" fill="#2f9e44" text-anchor="middle" style="white-space: pre;" direction="ltr" dominant-baseline="text-before-edge">transaction</text><text x="32.78947448730469" y="15.586240366857293" font-family="Helvetica, Segoe UI Emoji" font-size="13.553252492919386px" fill="#2f9e44" text-anchor="middle" style="white-space: pre;" direction="ltr" dominant-baseline="text-before-edge">data</text></g><g transform="translate(97.24509408738885 348.16655459461515) rotate(0 17.0657901763916 11.999016557744142)"><text x="17.0657901763916" y="0" font-family="Helvetica, Segoe UI Emoji" font-size="10.433927441516644px" fill="#2f9e44" text-anchor="middle" style="white-space: pre;" direction="ltr" dominant-baseline="text-before-edge">MySQL</text><text x="17.0657901763916" y="11.99901655774414" font-family="Helvetica, Segoe UI Emoji" font-size="10.433927441516644px" fill="#2f9e44" text-anchor="middle" style="white-space: pre;" direction="ltr" dominant-baseline="text-before-edge">DB</text></g><g stroke-linecap="round"><g transform="translate(144.65879900784486 142.14808463254167) rotate(0 84.31973454754622 -0.8471620423513144)"><path d="M1.79 -1.94 C46.62 -0.17, 94.64 -0.79, 168.45 -0.32 M0.19 -0.81 C34.86 1.17, 69.81 -0.09, 167.23 -0.99" stroke="#000000" stroke-width="1" fill="none"></path></g><g transform="translate(144.65879900784486 142.14808463254167) rotate(0 84.31973454754622 -0.8471620423513144)"><path d="M2.78 -0.61 L17.31 -8.11 L17.21 5.15 L2.32 -1.19" stroke="none" stroke-width="0" fill="#000000" fill-rule="evenodd"></path><path d="M3.13 -3.39 C4.81 -4.03, 8.92 -5.91, 15.85 -7.13 M1.93 -2.54 C4.9 -2.81, 8.04 -4.78, 14.94 -7.63 M16.35 -8.86 C15.12 -4.68, 16.55 -1.07, 15.31 4.85 M15.34 -8.37 C15.22 -3.13, 15.48 1.41, 15.11 4.44 M14.46 5.99 C12.61 3.52, 10.42 1.7, 3.03 -1.56 M14.59 4.48 C9.94 2.58, 5.57 -0.26, 1.81 -2.37 M1.79 -1.94 C1.79 -1.94, 1.79 -1.94, 1.79 -1.94 M1.79 -1.94 C1.79 -1.94, 1.79 -1.94, 1.79 -1.94" stroke="#000000" stroke-width="1" fill="none"></path></g><g transform="translate(144.65879900784486 142.14808463254167) rotate(0 84.31973454754622 -0.8471620423513144)"><path d="M168.22 0.34 L155.55 5.48 L155.48 -6.6 L167.76 -0.24" stroke="none" stroke-width="0" fill="#000000" fill-rule="evenodd"></path><path d="M168.57 -2.44 C162.61 0.37, 158.99 2.1, 154.09 6.47 M167.37 -1.6 C164.67 0.55, 162.23 1.18, 153.18 5.96 M154.59 4.74 C153.16 2.85, 154.6 0.4, 153.58 -6.91 M153.58 5.23 C153.5 1, 153.77 -3.93, 153.38 -7.32 M152.73 -5.77 C157.01 -5.33, 160.9 -4.31, 168.47 -0.62 M152.86 -7.27 C158.47 -4.59, 164.41 -2.62, 167.25 -1.42 M167.23 -0.99 C167.23 -0.99, 167.23 -0.99, 167.23 -0.99 M167.23 -0.99 C167.23 -0.99, 167.23 -0.99, 167.23 -0.99" stroke="#000000" stroke-width="1" fill="none"></path></g></g><mask></mask><g stroke-linecap="round"><g transform="translate(585.6758825949511 201.29187034946125) rotate(0 3.4970442485766853 7.496303669653386)" fill-rule="evenodd"><path d="M-4.28 -6.37 C-4.28 -6.37, -4.28 -6.37, -4.28 -6.37 M-4.28 -6.37 C-4.28 -6.37, -4.28 -6.37, -4.28 -6.37 M-3.89 -0.73 C-2.57 -2.25, -1.24 -3.77, 2.02 -7.52 M-3.89 -0.73 C-1.88 -3.04, 0.13 -5.35, 2.02 -7.52 M-6.12 7.93 C-4.6 6.19, -3.09 4.45, 0.44 0.38 M-6.12 7.93 C-3.75 5.2, -1.37 2.47, 0.44 0.38 M1.1 -0.37 C1.81 -1.19, 2.52 -2.01, 3.07 -2.63 M1.1 -0.37 C1.61 -0.96, 2.13 -1.56, 3.07 -2.63 M-3.76 11.31 C-2.42 9.77, -1.08 8.24, 2.8 3.76 M-3.76 11.31 C-1.6 8.83, 0.56 6.35, 2.8 3.76 M5.43 0.74 C6.13 -0.07, 6.84 -0.88, 8.05 -2.27 M5.43 0.74 C6.42 -0.4, 7.41 -1.54, 8.05 -2.27 M-4.67 18.46 C-3.35 16.94, -2.02 15.41, -0.08 13.18 M-4.67 18.46 C-3.5 17.11, -2.33 15.77, -0.08 13.18 M-0.08 13.18 C1.38 11.5, 2.84 9.82, 4.51 7.9 M-0.08 13.18 C1.44 11.43, 2.96 9.68, 4.51 7.9 M7.14 4.88 C8.35 3.48, 9.57 2.08, 12.38 -1.16 M7.14 4.88 C8.22 3.63, 9.31 2.38, 12.38 -1.16 M-2.97 22.6 C-1.77 21.21, -0.56 19.83, 2.28 16.56 M-2.97 22.6 C-1.86 21.32, -0.75 20.04, 2.28 16.56 M4.91 13.54 C6.2 12.05, 7.5 10.56, 8.84 9.01 M4.91 13.54 C6.09 12.18, 7.28 10.81, 8.84 9.01 M7.27 16.92 C8.71 15.27, 10.14 13.61, 12.52 10.88 M7.27 16.92 C9.16 14.74, 11.05 12.56, 12.52 10.88 M-3.45 22.26 C-3.45 22.26, -3.45 22.26, -3.45 22.26 M-3.45 22.26 C-3.45 22.26, -3.45 22.26, -3.45 22.26 M2.19 21.87 C0.54 20.43, -1.11 19, -3.84 16.62 M2.19 21.87 C-0.04 19.92, -2.28 17.98, -3.84 16.62 M2.55 16.88 C1.83 16.25, 1.1 15.61, 0.29 14.91 M2.55 16.88 C2.03 16.42, 1.51 15.97, 0.29 14.91 M0.29 14.91 C-0.31 14.39, -0.91 13.86, -1.22 13.6 M0.29 14.91 C-0.14 14.54, -0.56 14.17, -1.22 13.6 M-2.73 12.29 C-3.54 11.58, -4.35 10.88, -4.99 10.32 M-2.73 12.29 C-3.52 11.6, -4.31 10.91, -4.99 10.32 M8.95 17.14 C7.55 15.92, 6.15 14.71, 5.18 13.86 M8.95 17.14 C7.49 15.87, 6.04 14.61, 5.18 13.86 M2.16 11.24 C0.4 9.7, -1.36 8.17, -5.39 4.67 M2.16 11.24 C-0.67 8.78, -3.5 6.32, -5.39 4.67 M12.33 14.78 C10.75 13.41, 9.18 12.03, 6.29 9.53 M12.33 14.78 C10.97 13.59, 9.61 12.41, 6.29 9.53 M4.78 8.22 C2.11 5.89, -0.56 3.57, -2.01 2.31 M4.78 8.22 C2.91 6.59, 1.05 4.97, -2.01 2.31 M8.16 5.85 C7.07 4.9, 5.97 3.95, 4.39 2.57 M8.16 5.85 C6.69 4.57, 5.22 3.29, 4.39 2.57 M1.37 -0.05 C-0.05 -1.28, -1.46 -2.51, -4.67 -5.3 M1.37 -0.05 C-0.23 -1.44, -1.84 -2.84, -4.67 -5.3 M12.3 4.15 C10.91 2.94, 9.52 1.73, 6.26 -1.1 M12.3 4.15 C10.35 2.45, 8.4 0.76, 6.26 -1.1 M3.24 -3.73 C1.64 -5.12, 0.04 -6.51, -2.04 -8.32 M3.24 -3.73 C2.11 -4.7, 0.99 -5.68, -2.04 -8.32" stroke="#000000" stroke-width="0.5" fill="none"></path><path d="M0 0 C0 0.74, 0 1.47, 0 2.22 M0 0 C0 0.51, 0 1.01, 0 2.22 M0 2.22 C0.14 2.25, 0.27 2.28, 0.64 2.37 M0 2.22 C0.16 2.26, 0.33 2.3, 0.64 2.37 M0.64 2.37 C0.82 2.44, 1.01 2.51, 1.27 2.61 M0.64 2.37 C0.79 2.43, 0.94 2.48, 1.27 2.61 M1.27 2.61 C1.41 2.68, 1.54 2.75, 1.89 2.93 M1.27 2.61 C1.45 2.7, 1.63 2.8, 1.89 2.93 M1.89 2.93 C2.02 3.03, 2.16 3.13, 2.26 3.2 M1.89 2.93 C1.98 3, 2.08 3.07, 2.26 3.2 M2.26 3.2 C2.38 3.3, 2.5 3.39, 2.6 3.47 M2.26 3.2 C2.33 3.26, 2.41 3.32, 2.6 3.47 M2.6 3.47 C2.69 3.55, 2.78 3.64, 2.91 3.75 M2.6 3.47 C2.71 3.58, 2.83 3.69, 2.91 3.75 M2.91 3.75 C2.99 3.88, 3.08 4, 3.17 4.13 M2.91 3.75 C3 3.89, 3.1 4.03, 3.17 4.13 M3.17 4.13 C3.8 3.76, 4.43 3.39, 5.09 3 M3.17 4.13 C3.83 3.75, 4.48 3.36, 5.09 3 M5.09 3 C5.05 2.81, 5 2.62, 4.97 2.5 M5.09 3 C5.06 2.86, 5.02 2.71, 4.97 2.5 M4.97 2.5 C4.95 2.36, 4.93 2.22, 4.9 2.02 M4.97 2.5 C4.95 2.34, 4.92 2.18, 4.9 2.02 M4.9 2.02 C4.9 1.84, 4.9 1.67, 4.9 1.44 M4.9 2.02 C4.9 1.89, 4.9 1.77, 4.9 1.44 M4.9 1.44 C4.92 1.23, 4.94 1.03, 4.96 0.87 M4.9 1.44 C4.91 1.32, 4.92 1.21, 4.96 0.87 M4.96 0.87 C4.99 0.76, 5.03 0.66, 5.09 0.43 M4.96 0.87 C5.01 0.7, 5.07 0.52, 5.09 0.43 M5.09 0.43 C5.13 0.33, 5.18 0.22, 5.26 0.02 M5.09 0.43 C5.13 0.34, 5.17 0.24, 5.26 0.02 M5.26 0.02 C5.32 -0.12, 5.39 -0.25, 5.48 -0.42 M5.26 0.02 C5.34 -0.14, 5.42 -0.3, 5.48 -0.42 M5.48 -0.42 C5.53 -0.5, 5.58 -0.59, 5.7 -0.77 M5.48 -0.42 C5.56 -0.55, 5.64 -0.68, 5.7 -0.77 M5.7 -0.77 C5.8 -0.88, 5.9 -1, 6 -1.11 M5.7 -0.77 C5.78 -0.86, 5.86 -0.95, 6 -1.11 M6 -1.11 C6.11 -1.22, 6.22 -1.32, 6.31 -1.41 M6 -1.11 C6.06 -1.17, 6.13 -1.23, 6.31 -1.41 M6.31 -1.41 C6.41 -1.5, 6.51 -1.59, 6.63 -1.7 M6.31 -1.41 C6.42 -1.51, 6.53 -1.61, 6.63 -1.7 M6.63 -1.7 C6.76 -1.78, 6.89 -1.87, 7 -1.94 M6.63 -1.7 C6.77 -1.79, 6.92 -1.88, 7 -1.94 M7 -1.94 C7.08 -1.98, 7.16 -2.01, 7.39 -2.11 M7 -1.94 C7.1 -1.98, 7.19 -2.03, 7.39 -2.11 M7.39 -2.11 C7.53 -2.17, 7.67 -2.22, 7.79 -2.27 M7.39 -2.11 C7.55 -2.17, 7.7 -2.23, 7.79 -2.27 M7.79 -2.27 C7.92 -2.3, 8.04 -2.33, 8.23 -2.37 M7.79 -2.27 C7.91 -2.3, 8.04 -2.33, 8.23 -2.37 M8.23 -2.37 C8.33 -2.38, 8.43 -2.4, 8.64 -2.43 M8.23 -2.37 C8.38 -2.39, 8.53 -2.41, 8.64 -2.43 M8.64 -2.43 C8.75 -2.44, 8.86 -2.44, 9.11 -2.46 M8.64 -2.43 C8.76 -2.44, 8.87 -2.44, 9.11 -2.46 M9.11 -2.46 C9.2 -2.45, 9.3 -2.44, 9.52 -2.42 M9.11 -2.46 C9.24 -2.44, 9.36 -2.43, 9.52 -2.42 M9.52 -2.42 C9.61 -2.4, 9.7 -2.38, 9.95 -2.33 M9.52 -2.42 C9.67 -2.39, 9.81 -2.36, 9.95 -2.33 M9.95 -2.33 C10.07 -2.3, 10.19 -2.26, 10.37 -2.21 M9.95 -2.33 C10.06 -2.3, 10.16 -2.27, 10.37 -2.21 M10.37 -2.21 C10.52 -2.16, 10.66 -2.1, 10.76 -2.06 M10.37 -2.21 C10.45 -2.18, 10.54 -2.15, 10.76 -2.06 M10.76 -2.06 C10.89 -1.99, 11.02 -1.91, 11.14 -1.84 M10.76 -2.06 C10.87 -2, 10.98 -1.93, 11.14 -1.84 M11.14 -1.84 C11.22 -1.78, 11.29 -1.72, 11.47 -1.6 M11.14 -1.84 C11.21 -1.79, 11.27 -1.74, 11.47 -1.6 M11.47 -1.6 C11.55 -1.53, 11.63 -1.47, 11.78 -1.34 M11.47 -1.6 C11.59 -1.5, 11.71 -1.41, 11.78 -1.34 M11.78 -1.34 C11.85 -1.27, 11.92 -1.2, 12.09 -1.02 M11.78 -1.34 C11.87 -1.25, 11.95 -1.17, 12.09 -1.02 M12.09 -1.02 C12.15 -0.93, 12.22 -0.84, 12.34 -0.68 M12.09 -1.02 C12.16 -0.92, 12.23 -0.83, 12.34 -0.68 M12.34 -0.68 C12.41 -0.56, 12.49 -0.44, 12.56 -0.33 M12.34 -0.68 C12.39 -0.6, 12.44 -0.52, 12.56 -0.33 M12.56 -0.33 C12.62 -0.21, 12.68 -0.08, 12.74 0.05 M12.56 -0.33 C12.61 -0.23, 12.66 -0.13, 12.74 0.05 M12.74 0.05 C12.79 0.17, 12.83 0.3, 12.87 0.43 M12.74 0.05 C12.79 0.18, 12.84 0.32, 12.87 0.43 M12.87 0.43 C12.91 0.58, 12.96 0.73, 12.99 0.84 M12.87 0.43 C12.9 0.52, 12.92 0.6, 12.99 0.84 M12.99 0.84 C13.01 0.96, 13.02 1.07, 13.05 1.25 M12.99 0.84 C13.01 0.99, 13.03 1.13, 13.05 1.25 M13.05 1.25 C13.06 1.36, 13.06 1.46, 13.07 1.67 M13.05 1.25 C13.06 1.36, 13.06 1.46, 13.07 1.67 M13.07 1.67 C13.07 1.78, 13.07 1.89, 13.07 2.09 M13.07 1.67 C13.07 1.84, 13.07 2, 13.07 2.09 M13.07 2.09 C13.05 2.18, 13.04 2.27, 13 2.51 M13.07 2.09 C13.04 2.26, 13.02 2.42, 13 2.51 M13 2.51 C12.98 2.61, 12.95 2.71, 12.91 2.92 M13 2.51 C12.97 2.63, 12.95 2.75, 12.91 2.92 M12.91 2.92 C12.88 3, 12.85 3.09, 12.77 3.32 M12.91 2.92 C12.87 3.02, 12.83 3.13, 12.77 3.32 M12.77 3.32 C12.7 3.46, 12.63 3.6, 12.59 3.68 M12.77 3.32 C12.71 3.43, 12.66 3.55, 12.59 3.68 M12.59 3.68 C12.51 3.82, 12.43 3.96, 12.37 4.06 M12.59 3.68 C12.51 3.82, 12.43 3.96, 12.37 4.06 M12.37 4.06 C12.27 4.19, 12.17 4.32, 12.11 4.39 M12.37 4.06 C12.27 4.19, 12.17 4.32, 12.11 4.39 M12.11 4.39 C12.01 4.5, 11.9 4.62, 11.83 4.7 M12.11 4.39 C12.04 4.47, 11.97 4.54, 11.83 4.7 M11.83 4.7 C11.74 4.78, 11.65 4.85, 11.52 4.97 M11.83 4.7 C11.75 4.77, 11.67 4.84, 11.52 4.97 M11.52 4.97 C11.44 5.03, 11.36 5.09, 11.17 5.23 M11.52 4.97 C11.42 5.04, 11.32 5.11, 11.17 5.23 M11.17 5.23 C11.06 5.29, 10.96 5.35, 10.81 5.45 M11.17 5.23 C11.04 5.31, 10.91 5.39, 10.81 5.45 M10.81 5.45 C10.69 5.49, 10.58 5.54, 10.43 5.6 M10.81 5.45 C10.69 5.49, 10.57 5.54, 10.43 5.6 M10.43 5.6 C10.3 5.64, 10.17 5.69, 10.03 5.74 M10.43 5.6 C10.28 5.65, 10.14 5.7, 10.03 5.74 M10.03 5.74 C9.9 5.77, 9.76 5.8, 9.62 5.83 M10.03 5.74 C9.93 5.76, 9.83 5.78, 9.62 5.83 M9.62 5.83 C9.5 5.84, 9.37 5.86, 9.21 5.88 M9.62 5.83 C9.47 5.84, 9.33 5.86, 9.21 5.88 M9.21 5.88 C9.05 5.87, 8.89 5.87, 8.77 5.87 M9.21 5.88 C9.12 5.87, 9.03 5.87, 8.77 5.87 M8.77 5.87 C8.65 5.85, 8.53 5.83, 8.31 5.8 M8.77 5.87 C8.62 5.85, 8.47 5.83, 8.31 5.8 M8.31 5.8 C8.21 5.78, 8.1 5.76, 7.88 5.72 M8.31 5.8 C8.14 5.77, 7.98 5.74, 7.88 5.72 M7.88 5.72 C7.8 5.69, 7.72 5.65, 7.48 5.56 M7.88 5.72 C7.76 5.67, 7.65 5.62, 7.48 5.56 M7.48 5.56 C7.35 5.5, 7.22 5.44, 7.1 5.39 M7.48 5.56 C7.38 5.51, 7.29 5.47, 7.1 5.39 M7.1 5.39 C7 5.33, 6.9 5.27, 6.73 5.18 M7.1 5.39 C6.99 5.32, 6.87 5.26, 6.73 5.18 M6.73 5.18 C6.61 5.09, 6.49 5, 6.4 4.93 M6.73 5.18 C6.64 5.11, 6.56 5.05, 6.4 4.93 M6.4 4.93 C6.24 4.77, 6.08 4.62, 5.97 4.5 M6.4 4.93 C6.27 4.8, 6.13 4.67, 5.97 4.5 M5.97 4.5 C5.23 4.92, 4.5 5.35, 4.05 5.6 M5.97 4.5 C5.24 4.92, 4.52 5.33, 4.05 5.6 M4.05 5.6 C4.1 5.73, 4.14 5.86, 4.18 6 M4.05 5.6 C4.09 5.7, 4.12 5.79, 4.18 6 M4.18 6 C4.2 6.1, 4.23 6.19, 4.28 6.41 M4.18 6 C4.22 6.16, 4.26 6.32, 4.28 6.41 M4.28 6.41 C4.31 6.56, 4.33 6.71, 4.35 6.83 M4.28 6.41 C4.3 6.55, 4.33 6.69, 4.35 6.83 M4.35 6.83 C4.36 6.95, 4.36 7.06, 4.37 7.25 M4.35 6.83 C4.36 6.97, 4.37 7.11, 4.37 7.25 M4.37 7.25 C4.38 7.43, 4.38 7.61, 4.38 7.7 M4.37 7.25 C4.38 7.36, 4.38 7.47, 4.38 7.7 M4.38 7.7 C4.37 7.81, 4.37 7.91, 4.35 8.14 M4.38 7.7 C4.37 7.83, 4.36 7.96, 4.35 8.14 M4.35 8.14 C4.33 8.29, 4.31 8.43, 4.29 8.57 M4.35 8.14 C4.33 8.27, 4.31 8.39, 4.29 8.57 M4.29 8.57 C4.25 8.72, 4.21 8.88, 4.19 8.98 M4.29 8.57 C4.27 8.66, 4.24 8.75, 4.19 8.98 M4.19 8.98 C4.15 9.07, 4.12 9.16, 4.05 9.37 M4.19 8.98 C4.15 9.07, 4.12 9.17, 4.05 9.37 M4.05 9.37 C4.68 9.74, 5.31 10.11, 5.96 10.49 M4.05 9.37 C4.63 9.71, 5.21 10.06, 5.96 10.49 M5.96 10.49 C6.04 10.41, 6.12 10.32, 6.24 10.19 M5.96 10.49 C6.05 10.39, 6.14 10.3, 6.24 10.19 M6.24 10.19 C6.32 10.12, 6.4 10.05, 6.55 9.92 M6.24 10.19 C6.36 10.09, 6.48 9.98, 6.55 9.92 M6.55 9.92 C6.63 9.87, 6.71 9.82, 6.9 9.7 M6.55 9.92 C6.69 9.83, 6.83 9.74, 6.9 9.7 M6.9 9.7 C7.01 9.64, 7.11 9.58, 7.26 9.5 M6.9 9.7 C7.03 9.63, 7.16 9.56, 7.26 9.5 M7.26 9.5 C7.4 9.45, 7.54 9.4, 7.64 9.36 M7.26 9.5 C7.4 9.45, 7.54 9.4, 7.64 9.36 M7.64 9.36 C7.76 9.32, 7.88 9.28, 8.04 9.22 M7.64 9.36 C7.79 9.31, 7.94 9.26, 8.04 9.22 M8.04 9.22 C8.18 9.2, 8.32 9.17, 8.45 9.14 M8.04 9.22 C8.13 9.21, 8.21 9.19, 8.45 9.14 M8.45 9.14 C8.58 9.14, 8.7 9.13, 8.88 9.11 M8.45 9.14 C8.54 9.14, 8.63 9.13, 8.88 9.11 M8.88 9.11 C9.02 9.12, 9.17 9.12, 9.3 9.12 M8.88 9.11 C9.02 9.12, 9.16 9.12, 9.3 9.12 M9.3 9.12 C9.4 9.13, 9.51 9.14, 9.72 9.17 M9.3 9.12 C9.42 9.14, 9.55 9.15, 9.72 9.17 M9.72 9.17 C9.85 9.2, 9.99 9.23, 10.12 9.27 M9.72 9.17 C9.81 9.19, 9.89 9.21, 10.12 9.27 M10.12 9.27 C10.24 9.31, 10.35 9.35, 10.51 9.4 M10.12 9.27 C10.26 9.31, 10.4 9.36, 10.51 9.4 M10.51 9.4 C10.59 9.44, 10.66 9.47, 10.89 9.58 M10.51 9.4 C10.65 9.47, 10.79 9.53, 10.89 9.58 M10.89 9.58 C10.99 9.64, 11.1 9.7, 11.25 9.79 M10.89 9.58 C10.99 9.64, 11.1 9.71, 11.25 9.79 M11.25 9.79 C11.38 9.89, 11.51 9.99, 11.59 10.04 M11.25 9.79 C11.38 9.88, 11.5 9.97, 11.59 10.04 M11.59 10.04 C11.67 10.12, 11.75 10.19, 11.89 10.33 M11.59 10.04 C11.69 10.14, 11.79 10.23, 11.89 10.33 M11.89 10.33 C11.97 10.42, 12.05 10.52, 12.17 10.66 M11.89 10.33 C11.95 10.39, 12 10.46, 12.17 10.66 M12.17 10.66 C12.26 10.79, 12.35 10.92, 12.41 11 M12.17 10.66 C12.24 10.76, 12.31 10.86, 12.41 11 M12.41 11 C12.47 11.1, 12.53 11.2, 12.63 11.38 M12.41 11 C12.49 11.13, 12.57 11.27, 12.63 11.38 M12.63 11.38 C12.7 11.53, 12.76 11.68, 12.8 11.79 M12.63 11.38 C12.68 11.49, 12.73 11.61, 12.8 11.79 M12.8 11.79 C12.86 11.94, 12.91 12.1, 12.94 12.18 M12.8 11.79 C12.85 11.93, 12.9 12.07, 12.94 12.18 M12.94 12.18 C12.97 12.31, 12.99 12.44, 13.03 12.6 M12.94 12.18 C12.96 12.28, 12.98 12.38, 13.03 12.6 M13.03 12.6 C13.04 12.76, 13.05 12.91, 13.06 13.07 M13.03 12.6 C13.04 12.77, 13.05 12.94, 13.06 13.07 M13.06 13.07 C13.06 13.25, 13.06 13.44, 13.06 13.53 M13.06 13.07 C13.06 13.23, 13.06 13.38, 13.06 13.53 M13.06 13.53 C13.05 13.65, 13.04 13.76, 13.02 13.96 M13.06 13.53 C13.05 13.69, 13.03 13.85, 13.02 13.96 M13.02 13.96 C13 14.05, 12.98 14.14, 12.93 14.37 M13.02 13.96 C13 14.05, 12.98 14.15, 12.93 14.37 M12.93 14.37 C12.88 14.52, 12.84 14.66, 12.8 14.78 M12.93 14.37 C12.89 14.49, 12.86 14.6, 12.8 14.78 M12.8 14.78 C12.75 14.9, 12.7 15.01, 12.63 15.17 M12.8 14.78 C12.76 14.87, 12.72 14.95, 12.63 15.17 M12.63 15.17 C12.56 15.28, 12.49 15.39, 12.4 15.55 M12.63 15.17 C12.54 15.32, 12.45 15.47, 12.4 15.55 M12.4 15.55 C12.33 15.65, 12.25 15.75, 12.15 15.88 M12.4 15.55 C12.34 15.63, 12.28 15.71, 12.15 15.88 M12.15 15.88 C12.07 15.98, 11.98 16.08, 11.88 16.19 M12.15 15.88 C12.08 15.96, 12.01 16.04, 11.88 16.19 M11.88 16.19 C11.81 16.26, 11.73 16.33, 11.57 16.47 M11.88 16.19 C11.8 16.27, 11.71 16.35, 11.57 16.47 M11.57 16.47 C11.5 16.53, 11.43 16.58, 11.25 16.72 M11.57 16.47 C11.47 16.55, 11.37 16.63, 11.25 16.72 M11.25 16.72 C11.13 16.79, 11.02 16.85, 10.87 16.94 M11.25 16.72 C11.11 16.8, 10.97 16.88, 10.87 16.94 M10.87 16.94 C10.71 17.01, 10.54 17.09, 10.43 17.14 M10.87 16.94 C10.77 16.98, 10.67 17.03, 10.43 17.14 M10.43 17.14 C10.34 17.17, 10.26 17.2, 10.01 17.29 M10.43 17.14 C10.34 17.17, 10.25 17.2, 10.01 17.29 M10.01 17.29 C9.91 17.31, 9.81 17.33, 9.6 17.37 M10.01 17.29 C9.89 17.32, 9.77 17.34, 9.6 17.37 M9.6 17.37 C9.49 17.39, 9.39 17.4, 9.11 17.43 M9.6 17.37 C9.42 17.39, 9.25 17.41, 9.11 17.43 M9.11 17.43 C8.95 17.43, 8.8 17.42, 8.58 17.42 M9.11 17.43 C8.95 17.43, 8.79 17.42, 8.58 17.42 M8.58 17.42 C8.43 17.39, 8.28 17.37, 8.15 17.34 M8.58 17.42 C8.42 17.39, 8.25 17.36, 8.15 17.34 M8.15 17.34 C8.02 17.31, 7.89 17.27, 7.72 17.23 M8.15 17.34 C8.04 17.31, 7.93 17.28, 7.72 17.23 M7.72 17.23 C7.53 17.15, 7.34 17.07, 7.24 17.03 M7.72 17.23 C7.56 17.16, 7.4 17.09, 7.24 17.03 M7.24 17.03 C7.15 16.98, 7.05 16.92, 6.87 16.81 M7.24 17.03 C7.15 16.98, 7.07 16.93, 6.87 16.81 M6.87 16.81 C6.78 16.75, 6.69 16.69, 6.52 16.57 M6.87 16.81 C6.76 16.74, 6.65 16.67, 6.52 16.57 M6.52 16.57 C6.45 16.52, 6.39 16.46, 6.19 16.3 M6.52 16.57 C6.41 16.48, 6.29 16.39, 6.19 16.3 M6.19 16.3 C6.12 16.23, 6.06 16.16, 5.88 15.97 M6.19 16.3 C6.11 16.22, 6.04 16.14, 5.88 15.97 M5.88 15.97 C5.82 15.9, 5.77 15.83, 5.63 15.63 M5.88 15.97 C5.79 15.86, 5.7 15.74, 5.63 15.63 M5.63 15.63 C5.57 15.53, 5.51 15.43, 5.41 15.27 M5.63 15.63 C5.56 15.52, 5.49 15.4, 5.41 15.27 M5.41 15.27 C5.36 15.14, 5.3 15.02, 5.21 14.82 M5.41 15.27 C5.36 15.15, 5.3 15.03, 5.21 14.82 M5.21 14.82 C5.17 14.72, 5.14 14.63, 5.06 14.4 M5.21 14.82 C5.15 14.65, 5.09 14.48, 5.06 14.4 M5.06 14.4 C5.02 14.24, 4.99 14.08, 4.96 13.95 M5.06 14.4 C5.02 14.23, 4.98 14.07, 4.96 13.95 M4.96 13.95 C4.94 13.79, 4.92 13.64, 4.91 13.55 M4.96 13.95 C4.94 13.8, 4.92 13.66, 4.91 13.55 M4.91 13.55 C4.91 13.41, 4.9 13.28, 4.9 13.12 M4.91 13.55 C4.91 13.39, 4.9 13.23, 4.9 13.12 M4.9 13.12 C4.91 13.02, 4.92 12.93, 4.94 12.7 M4.9 13.12 C4.91 12.98, 4.93 12.83, 4.94 12.7 M4.94 12.7 C4.95 12.6, 4.97 12.51, 5.01 12.29 M4.94 12.7 C4.96 12.6, 4.97 12.51, 5.01 12.29 M5.01 12.29 C5.04 12.18, 5.07 12.06, 5.09 11.97 M5.01 12.29 C5.04 12.18, 5.06 12.07, 5.09 11.97 M5.09 11.97 C4.56 11.66, 4.04 11.34, 3.22 10.85 M5.09 11.97 C4.37 11.54, 3.66 11.12, 3.22 10.85 M3.22 10.85 C3.11 10.97, 3.01 11.09, 2.94 11.18 M3.22 10.85 C3.16 10.92, 3.1 10.98, 2.94 11.18 M2.94 11.18 C2.86 11.25, 2.79 11.31, 2.61 11.48 M2.94 11.18 C2.85 11.26, 2.76 11.35, 2.61 11.48 M2.61 11.48 C2.5 11.58, 2.38 11.67, 2.29 11.75 M2.61 11.48 C2.54 11.54, 2.48 11.59, 2.29 11.75 M2.29 11.75 C2.18 11.83, 2.06 11.91, 1.95 11.99 M2.29 11.75 C2.21 11.8, 2.13 11.86, 1.95 11.99 M1.95 11.99 C1.88 12.03, 1.8 12.08, 1.6 12.2 M1.95 11.99 C1.85 12.05, 1.74 12.12, 1.6 12.2 M1.6 12.2 C1.49 12.25, 1.38 12.3, 1.21 12.38 M1.6 12.2 C1.52 12.24, 1.43 12.28, 1.21 12.38 M1.21 12.38 C1.07 12.44, 0.93 12.49, 0.82 12.53 M1.21 12.38 C1.1 12.43, 0.98 12.47, 0.82 12.53 M0.82 12.53 C0.72 12.57, 0.62 12.6, 0.42 12.66 M0.82 12.53 C0.72 12.57, 0.62 12.6, 0.42 12.66 M0.42 12.66 C0.28 12.68, 0.13 12.71, 0 12.73 M0.42 12.66 C0.26 12.69, 0.09 12.72, 0 12.73 M0 12.73 C0 13.19, 0 13.65, 0 14.98 M0 12.73 C0 13.19, 0 13.65, 0 14.98 M0 14.98 C0.13 15.01, 0.26 15.05, 0.4 15.09 M0 14.98 C0.13 15.01, 0.25 15.05, 0.4 15.09 M0.4 15.09 C0.48 15.12, 0.56 15.16, 0.78 15.24 M0.4 15.09 C0.55 15.15, 0.69 15.2, 0.78 15.24 M0.78 15.24 C0.91 15.3, 1.03 15.37, 1.16 15.43 M0.78 15.24 C0.93 15.32, 1.07 15.39, 1.16 15.43 M1.16 15.43 C1.27 15.51, 1.39 15.58, 1.5 15.65 M1.16 15.43 C1.28 15.51, 1.4 15.59, 1.5 15.65 M1.5 15.65 C1.57 15.7, 1.64 15.76, 1.82 15.9 M1.5 15.65 C1.57 15.7, 1.64 15.76, 1.82 15.9 M1.82 15.9 C1.94 16.01, 2.05 16.12, 2.12 16.2 M1.82 15.9 C1.93 16, 2.03 16.1, 2.12 16.2 M2.12 16.2 C2.21 16.31, 2.3 16.41, 2.38 16.52 M2.12 16.2 C2.18 16.27, 2.24 16.35, 2.38 16.52 M2.38 16.52 C2.45 16.61, 2.51 16.69, 2.63 16.85 M2.38 16.52 C2.43 16.59, 2.48 16.66, 2.63 16.85 M2.63 16.85 C2.67 16.93, 2.71 17.01, 2.82 17.23 M2.63 16.85 C2.69 16.97, 2.75 17.09, 2.82 17.23 M2.82 17.23 C2.87 17.35, 2.92 17.47, 2.99 17.63 M2.82 17.23 C2.86 17.33, 2.91 17.44, 2.99 17.63 M2.99 17.63 C3.03 17.76, 3.07 17.88, 3.12 18.02 M2.99 17.63 C3.02 17.72, 3.05 17.82, 3.12 18.02 M3.12 18.02 C3.14 18.16, 3.16 18.3, 3.19 18.43 M3.12 18.02 C3.14 18.14, 3.16 18.25, 3.19 18.43 M3.19 18.43 C3.2 18.55, 3.21 18.67, 3.23 18.85 M3.19 18.43 C3.2 18.59, 3.22 18.74, 3.23 18.85 M3.23 18.85 C3.24 19.02, 3.24 19.19, 3.24 19.32 M3.23 18.85 C3.24 18.98, 3.24 19.12, 3.24 19.32 M3.24 19.32 C3.23 19.43, 3.21 19.55, 3.18 19.76 M3.24 19.32 C3.22 19.47, 3.2 19.63, 3.18 19.76 M3.18 19.76 C3.15 19.9, 3.12 20.04, 3.09 20.18 M3.18 19.76 C3.15 19.89, 3.12 20.03, 3.09 20.18 M3.09 20.18 C3.03 20.33, 2.98 20.49, 2.96 20.56 M3.09 20.18 C3.05 20.29, 3.01 20.4, 2.96 20.56 M2.96 20.56 C2.91 20.69, 2.85 20.82, 2.8 20.94 M2.96 20.56 C2.91 20.69, 2.86 20.81, 2.8 20.94 M2.8 20.94 C2.73 21.06, 2.66 21.18, 2.59 21.29 M2.8 20.94 C2.74 21.05, 2.67 21.15, 2.59 21.29 M2.59 21.29 C2.54 21.37, 2.49 21.44, 2.36 21.63 M2.59 21.29 C2.53 21.38, 2.47 21.47, 2.36 21.63 M2.36 21.63 C2.27 21.73, 2.18 21.83, 2.08 21.94 M2.36 21.63 C2.31 21.7, 2.25 21.76, 2.08 21.94 M2.08 21.94 C1.96 22.05, 1.85 22.16, 1.78 22.22 M2.08 21.94 C1.98 22.04, 1.88 22.13, 1.78 22.22 M1.78 22.22 C1.67 22.3, 1.57 22.38, 1.44 22.48 M1.78 22.22 C1.7 22.28, 1.63 22.34, 1.44 22.48 M1.44 22.48 C1.31 22.57, 1.18 22.65, 1.09 22.7 M1.44 22.48 C1.36 22.53, 1.29 22.58, 1.09 22.7 M1.09 22.7 C1 22.74, 0.92 22.78, 0.7 22.88 M1.09 22.7 C0.99 22.75, 0.9 22.79, 0.7 22.88 M0.7 22.88 C0.58 22.93, 0.47 22.97, 0.28 23.04 M0.7 22.88 C0.6 22.92, 0.51 22.96, 0.28 23.04 M0.28 23.04 C0.14 23.07, -0.01 23.11, -0.16 23.14 M0.28 23.04 C0.18 23.06, 0.08 23.09, -0.16 23.14 M-0.16 23.14 C-0.32 23.16, -0.48 23.18, -0.61 23.19 M-0.16 23.14 C-0.31 23.16, -0.46 23.18, -0.61 23.19 M-0.61 23.19 C-0.73 23.2, -0.85 23.2, -1.06 23.21 M-0.61 23.19 C-0.77 23.2, -0.93 23.2, -1.06 23.21 M-1.06 23.21 C-1.22 23.19, -1.39 23.17, -1.48 23.16 M-1.06 23.21 C-1.21 23.19, -1.35 23.17, -1.48 23.16 M-1.48 23.16 C-1.66 23.12, -1.83 23.08, -1.93 23.06 M-1.48 23.16 C-1.6 23.13, -1.73 23.1, -1.93 23.06 M-1.93 23.06 C-2.07 23.01, -2.21 22.97, -2.34 22.92 M-1.93 23.06 C-2.07 23.01, -2.21 22.97, -2.34 22.92 M-2.34 22.92 C-2.43 22.88, -2.51 22.84, -2.72 22.74 M-2.34 22.92 C-2.44 22.87, -2.54 22.82, -2.72 22.74 M-2.72 22.74 C-2.84 22.67, -2.97 22.59, -3.15 22.49 M-2.72 22.74 C-2.81 22.68, -2.91 22.63, -3.15 22.49 M-3.15 22.49 C-3.24 22.42, -3.32 22.36, -3.49 22.23 M-3.15 22.49 C-3.25 22.41, -3.34 22.34, -3.49 22.23 M-3.49 22.23 C-3.57 22.14, -3.65 22.06, -3.78 21.93 M-3.49 22.23 C-3.59 22.12, -3.7 22.01, -3.78 21.93 M-3.78 21.93 C-3.86 21.84, -3.93 21.75, -4.05 21.61 M-3.78 21.93 C-3.86 21.83, -3.94 21.74, -4.05 21.61 M-4.05 21.61 C-4.15 21.48, -4.24 21.35, -4.34 21.21 M-4.05 21.61 C-4.16 21.46, -4.26 21.32, -4.34 21.21 M-4.34 21.21 C-4.39 21.11, -4.45 21, -4.54 20.82 M-4.34 21.21 C-4.41 21.07, -4.49 20.92, -4.54 20.82 M-4.54 20.82 C-4.6 20.68, -4.66 20.54, -4.7 20.44 M-4.54 20.82 C-4.59 20.7, -4.64 20.57, -4.7 20.44 M-4.7 20.44 C-4.74 20.29, -4.78 20.13, -4.81 20.03 M-4.7 20.44 C-4.74 20.28, -4.78 20.12, -4.81 20.03 M-4.81 20.03 C-4.83 19.91, -4.85 19.79, -4.89 19.63 M-4.81 20.03 C-4.83 19.89, -4.86 19.76, -4.89 19.63 M-4.89 19.63 C-4.9 19.53, -4.91 19.43, -4.92 19.22 M-4.89 19.63 C-4.9 19.51, -4.91 19.39, -4.92 19.22 M-4.92 19.22 C-4.92 19.07, -4.92 18.91, -4.92 18.79 M-4.92 19.22 C-4.92 19.06, -4.92 18.89, -4.92 18.79 M-4.92 18.79 C-4.91 18.67, -4.89 18.55, -4.88 18.38 M-4.92 18.79 C-4.91 18.68, -4.9 18.57, -4.88 18.38 M-4.88 18.38 C-4.85 18.23, -4.82 18.09, -4.8 17.95 M-4.88 18.38 C-4.86 18.27, -4.84 18.16, -4.8 17.95 M-4.8 17.95 C-4.75 17.82, -4.71 17.7, -4.66 17.54 M-4.8 17.95 C-4.74 17.8, -4.69 17.65, -4.66 17.54 M-4.66 17.54 C-4.62 17.46, -4.58 17.38, -4.48 17.16 M-4.66 17.54 C-4.61 17.45, -4.57 17.36, -4.48 17.16 M-4.48 17.16 C-4.44 17.08, -4.39 17, -4.26 16.78 M-4.48 17.16 C-4.42 17.06, -4.36 16.96, -4.26 16.78 M-4.26 16.78 C-4.19 16.68, -4.13 16.59, -4 16.42 M-4.26 16.78 C-4.19 16.69, -4.13 16.6, -4 16.42 M-4 16.42 C-3.93 16.34, -3.86 16.26, -3.73 16.1 M-4 16.42 C-3.91 16.32, -3.83 16.22, -3.73 16.1 M-3.73 16.1 C-3.62 16.02, -3.52 15.94, -3.4 15.84 M-3.73 16.1 C-3.65 16.04, -3.57 15.98, -3.4 15.84 M-3.4 15.84 C-3.3 15.76, -3.21 15.68, -3.05 15.56 M-3.4 15.84 C-3.29 15.75, -3.18 15.66, -3.05 15.56 M-3.05 15.56 C-2.91 15.47, -2.76 15.39, -2.69 15.34 M-3.05 15.56 C-2.96 15.51, -2.87 15.45, -2.69 15.34 M-2.69 15.34 C-2.59 15.3, -2.5 15.26, -2.29 15.17 M-2.69 15.34 C-2.57 15.29, -2.46 15.24, -2.29 15.17 M-2.29 15.17 C-2.2 15.14, -2.11 15.1, -1.9 15.03 M-2.29 15.17 C-2.17 15.12, -2.04 15.08, -1.9 15.03 M-1.9 15.03 C-1.84 15.01, -1.79 14.99, -1.69 14.96 M-1.9 15.03 C-1.83 15, -1.76 14.98, -1.69 14.96 M-1.69 14.96 C-1.69 14.86, -1.69 14.75, -1.69 14.64 M-1.69 14.96 C-1.69 14.84, -1.69 14.71, -1.69 14.64 M-1.69 14.64 C-1.69 14.18, -1.69 13.72, -1.69 12.75 M-1.69 14.64 C-1.69 14.24, -1.69 13.85, -1.69 12.75 M-1.69 12.75 C-1.82 12.72, -1.96 12.7, -2.1 12.67 M-1.69 12.75 C-1.78 12.73, -1.86 12.72, -2.1 12.67 M-2.1 12.67 C-2.26 12.62, -2.42 12.57, -2.54 12.54 M-2.1 12.67 C-2.23 12.63, -2.35 12.6, -2.54 12.54 M-2.54 12.54 C-2.62 12.51, -2.7 12.47, -2.91 12.38 M-2.54 12.54 C-2.68 12.48, -2.83 12.41, -2.91 12.38 M-2.91 12.38 C-2.99 12.34, -3.08 12.31, -3.29 12.22 M-2.91 12.38 C-2.99 12.35, -3.07 12.31, -3.29 12.22 M-3.29 12.22 C-3.42 12.14, -3.55 12.05, -3.65 11.99 M-3.29 12.22 C-3.37 12.17, -3.45 12.12, -3.65 11.99 M-3.65 11.99 C-3.77 11.91, -3.88 11.82, -3.99 11.73 M-3.65 11.99 C-3.75 11.92, -3.84 11.85, -3.99 11.73 M-3.99 11.73 C-4.07 11.66, -4.16 11.59, -4.32 11.45 M-3.99 11.73 C-4.06 11.68, -4.13 11.62, -4.32 11.45 M-4.32 11.45 C-4.43 11.35, -4.54 11.25, -4.63 11.16 M-4.32 11.45 C-4.39 11.39, -4.46 11.33, -4.63 11.16 M-4.63 11.16 C-4.72 11.06, -4.81 10.95, -4.91 10.83 M-4.63 11.16 C-4.71 11.06, -4.8 10.95, -4.91 10.83 M-4.91 10.83 C-4.99 10.72, -5.07 10.61, -5.16 10.49 M-4.91 10.83 C-4.97 10.75, -5.03 10.67, -5.16 10.49 M-5.16 10.49 C-5.25 10.36, -5.33 10.23, -5.39 10.15 M-5.16 10.49 C-5.24 10.37, -5.32 10.25, -5.39 10.15 M-5.39 10.15 C-5.43 10.07, -5.47 9.99, -5.57 9.75 M-5.39 10.15 C-5.46 10.01, -5.53 9.86, -5.57 9.75 M-5.57 9.75 C-5.63 9.61, -5.69 9.47, -5.74 9.36 M-5.57 9.75 C-5.61 9.68, -5.64 9.6, -5.74 9.36 M-5.74 9.36 C-5.78 9.22, -5.82 9.08, -5.87 8.94 M-5.74 9.36 C-5.78 9.23, -5.82 9.1, -5.87 8.94 M-5.87 8.94 C-5.91 8.75, -5.96 8.56, -5.99 8.44 M-5.87 8.94 C-5.91 8.75, -5.96 8.57, -5.99 8.44 M-5.99 8.44 C-6.01 8.29, -6.03 8.14, -6.05 8.01 M-5.99 8.44 C-6.01 8.27, -6.03 8.1, -6.05 8.01 M-6.05 8.01 C-6.05 7.9, -6.06 7.78, -6.07 7.59 M-6.05 8.01 C-6.05 7.91, -6.06 7.82, -6.07 7.59 M-6.07 7.59 C-6.07 7.46, -6.07 7.33, -6.07 7.15 M-6.07 7.59 C-6.07 7.49, -6.07 7.4, -6.07 7.15 M-6.07 7.15 C-6.06 7.05, -6.05 6.96, -6.02 6.72 M-6.07 7.15 C-6.05 6.99, -6.03 6.82, -6.02 6.72 M-6.02 6.72 C-5.99 6.57, -5.96 6.42, -5.94 6.28 M-6.02 6.72 C-6 6.62, -5.98 6.52, -5.94 6.28 M-5.94 6.28 C-5.9 6.12, -5.86 5.96, -5.83 5.87 M-5.94 6.28 C-5.91 6.15, -5.87 6.03, -5.83 5.87 M-5.83 5.87 C-5.8 5.78, -5.77 5.7, -5.68 5.46 M-5.83 5.87 C-5.79 5.75, -5.74 5.63, -5.68 5.46 M-5.68 5.46 C-5.63 5.35, -5.58 5.25, -5.49 5.06 M-5.68 5.46 C-5.62 5.34, -5.56 5.21, -5.49 5.06 M-5.49 5.06 C-5.41 4.91, -5.33 4.76, -5.27 4.65 M-5.49 5.06 C-5.41 4.9, -5.32 4.74, -5.27 4.65 M-5.27 4.65 C-5.18 4.52, -5.1 4.4, -4.99 4.24 M-5.27 4.65 C-5.16 4.49, -5.06 4.34, -4.99 4.24 M-4.99 4.24 C-4.93 4.17, -4.87 4.09, -4.72 3.91 M-4.99 4.24 C-4.92 4.15, -4.84 4.06, -4.72 3.91 M-4.72 3.91 C-4.64 3.82, -4.55 3.73, -4.42 3.59 M-4.72 3.91 C-4.63 3.82, -4.54 3.72, -4.42 3.59 M-4.42 3.59 C-4.3 3.49, -4.17 3.38, -4.09 3.32 M-4.42 3.59 C-4.35 3.54, -4.28 3.48, -4.09 3.32 M-4.09 3.32 C-3.95 3.22, -3.82 3.13, -3.73 3.07 M-4.09 3.32 C-3.95 3.22, -3.82 3.13, -3.73 3.07 M-3.73 3.07 C-3.61 2.99, -3.49 2.91, -3.36 2.83 M-3.73 3.07 C-3.62 3, -3.52 2.93, -3.36 2.83 M-3.36 2.83 C-3.25 2.78, -3.15 2.73, -2.96 2.63 M-3.36 2.83 C-3.24 2.77, -3.13 2.72, -2.96 2.63 M-2.96 2.63 C-2.82 2.58, -2.68 2.52, -2.57 2.47 M-2.96 2.63 C-2.86 2.59, -2.77 2.56, -2.57 2.47 M-2.57 2.47 C-2.42 2.42, -2.27 2.37, -2.18 2.34 M-2.57 2.47 C-2.48 2.44, -2.39 2.41, -2.18 2.34 M-2.18 2.34 C-2.05 2.31, -1.92 2.28, -1.7 2.22 M-2.18 2.34 C-2.05 2.31, -1.93 2.28, -1.7 2.22 M-1.7 2.22 C-1.7 1.45, -1.7 0.68, -1.7 0 M-1.7 2.22 C-1.7 1.34, -1.7 0.46, -1.7 0 M-1.7 0 C-1.81 -0.03, -1.92 -0.06, -2.12 -0.11 M-1.7 0 C-1.87 -0.04, -2.04 -0.09, -2.12 -0.11 M-2.12 -0.11 C-2.24 -0.15, -2.35 -0.2, -2.52 -0.27 M-2.12 -0.11 C-2.23 -0.15, -2.33 -0.19, -2.52 -0.27 M-2.52 -0.27 C-2.61 -0.31, -2.69 -0.36, -2.89 -0.46 M-2.52 -0.27 C-2.64 -0.33, -2.76 -0.4, -2.89 -0.46 M-2.89 -0.46 C-3 -0.53, -3.11 -0.61, -3.25 -0.69 M-2.89 -0.46 C-3.01 -0.54, -3.14 -0.62, -3.25 -0.69 M-3.25 -0.69 C-3.33 -0.77, -3.42 -0.85, -3.57 -0.98 M-3.25 -0.69 C-3.31 -0.75, -3.38 -0.81, -3.57 -0.98 M-3.57 -0.98 C-3.65 -1.06, -3.72 -1.14, -3.87 -1.29 M-3.57 -0.98 C-3.64 -1.05, -3.7 -1.12, -3.87 -1.29 M-3.87 -1.29 C-3.98 -1.42, -4.08 -1.55, -4.15 -1.63 M-3.87 -1.29 C-3.93 -1.37, -4 -1.45, -4.15 -1.63 M-4.15 -1.63 C-4.23 -1.75, -4.3 -1.86, -4.38 -1.98 M-4.15 -1.63 C-4.22 -1.74, -4.29 -1.84, -4.38 -1.98 M-4.38 -1.98 C-4.44 -2.12, -4.51 -2.25, -4.57 -2.37 M-4.38 -1.98 C-4.42 -2.07, -4.46 -2.15, -4.57 -2.37 M-4.57 -2.37 C-4.61 -2.48, -4.65 -2.59, -4.72 -2.78 M-4.57 -2.37 C-4.6 -2.47, -4.64 -2.56, -4.72 -2.78 M-4.72 -2.78 C-4.75 -2.89, -4.78 -3, -4.83 -3.18 M-4.72 -2.78 C-4.75 -2.89, -4.78 -3, -4.83 -3.18 M-4.83 -3.18 C-4.86 -3.33, -4.88 -3.47, -4.9 -3.58 M-4.83 -3.18 C-4.85 -3.32, -4.88 -3.46, -4.9 -3.58 M-4.9 -3.58 C-4.9 -3.69, -4.91 -3.8, -4.92 -4 M-4.9 -3.58 C-4.9 -3.73, -4.91 -3.87, -4.92 -4 M-4.92 -4 C-4.92 -4.12, -4.92 -4.24, -4.92 -4.43 M-4.92 -4 C-4.92 -4.1, -4.92 -4.19, -4.92 -4.43 M-4.92 -4.43 C-4.9 -4.56, -4.88 -4.68, -4.85 -4.85 M-4.92 -4.43 C-4.9 -4.53, -4.89 -4.62, -4.85 -4.85 M-4.85 -4.85 C-4.81 -5.02, -4.78 -5.18, -4.76 -5.26 M-4.85 -4.85 C-4.83 -4.96, -4.8 -5.06, -4.76 -5.26 M-4.76 -5.26 C-4.71 -5.41, -4.66 -5.57, -4.62 -5.67 M-4.76 -5.26 C-4.71 -5.4, -4.67 -5.53, -4.62 -5.67 M-4.62 -5.67 C-4.57 -5.77, -4.53 -5.86, -4.44 -6.04 M-4.62 -5.67 C-4.56 -5.79, -4.51 -5.9, -4.44 -6.04 M-4.44 -6.04 C-4.39 -6.11, -4.35 -6.18, -4.22 -6.39 M-4.44 -6.04 C-4.36 -6.17, -4.27 -6.3, -4.22 -6.39 M-4.22 -6.39 C-4.13 -6.52, -4.03 -6.64, -3.98 -6.73 M-4.22 -6.39 C-4.14 -6.5, -4.06 -6.61, -3.98 -6.73 M-3.98 -6.73 C-3.9 -6.81, -3.82 -6.89, -3.68 -7.03 M-3.98 -6.73 C-3.89 -6.82, -3.8 -6.91, -3.68 -7.03 M-3.68 -7.03 C-3.56 -7.15, -3.43 -7.26, -3.36 -7.32 M-3.68 -7.03 C-3.6 -7.11, -3.51 -7.18, -3.36 -7.32 M-3.36 -7.32 C-3.24 -7.41, -3.12 -7.51, -3.04 -7.57 M-3.36 -7.32 C-3.27 -7.39, -3.17 -7.46, -3.04 -7.57 M-3.04 -7.57 C-2.93 -7.63, -2.83 -7.69, -2.68 -7.77 M-3.04 -7.57 C-2.92 -7.63, -2.81 -7.7, -2.68 -7.77 M-2.68 -7.77 C-2.57 -7.82, -2.45 -7.88, -2.31 -7.95 M-2.68 -7.77 C-2.54 -7.84, -2.39 -7.91, -2.31 -7.95 M-2.31 -7.95 C-2.22 -7.97, -2.13 -8, -1.91 -8.06 M-2.31 -7.95 C-2.16 -7.99, -2.01 -8.04, -1.91 -8.06 M-1.91 -8.06 C-1.76 -8.1, -1.6 -8.13, -1.5 -8.16 M-1.91 -8.06 C-1.8 -8.09, -1.68 -8.12, -1.5 -8.16 M-1.5 -8.16 C-1.38 -8.17, -1.25 -8.19, -1.09 -8.22 M-1.5 -8.16 C-1.36 -8.18, -1.21 -8.2, -1.09 -8.22 M-1.09 -8.22 C-0.97 -8.22, -0.86 -8.22, -0.64 -8.22 M-1.09 -8.22 C-0.95 -8.22, -0.8 -8.22, -0.64 -8.22 M-0.64 -8.22 C-0.5 -8.21, -0.36 -8.2, -0.23 -8.19 M-0.64 -8.22 C-0.56 -8.21, -0.48 -8.2, -0.23 -8.19 M-0.23 -8.19 C-0.07 -8.15, 0.09 -8.11, 0.19 -8.09 M-0.23 -8.19 C-0.11 -8.16, 0.02 -8.13, 0.19 -8.09 M0.19 -8.09 C0.34 -8.04, 0.48 -7.99, 0.59 -7.96 M0.19 -8.09 C0.33 -8.04, 0.47 -8, 0.59 -7.96 M0.59 -7.96 C0.7 -7.91, 0.81 -7.86, 0.98 -7.8 M0.59 -7.96 C0.68 -7.92, 0.77 -7.88, 0.98 -7.8 M0.98 -7.8 C1.1 -7.73, 1.22 -7.66, 1.36 -7.58 M0.98 -7.8 C1.08 -7.74, 1.18 -7.68, 1.36 -7.58 M1.36 -7.58 C1.48 -7.48, 1.6 -7.39, 1.72 -7.3 M1.36 -7.58 C1.45 -7.51, 1.54 -7.44, 1.72 -7.3 M1.72 -7.3 C1.8 -7.22, 1.88 -7.15, 2.02 -7.02 M1.72 -7.3 C1.79 -7.23, 1.87 -7.16, 2.02 -7.02 M2.02 -7.02 C2.14 -6.89, 2.26 -6.75, 2.35 -6.66 M2.02 -7.02 C2.11 -6.93, 2.19 -6.83, 2.35 -6.66 M2.35 -6.66 C2.42 -6.55, 2.5 -6.44, 2.61 -6.29 M2.35 -6.66 C2.42 -6.55, 2.5 -6.45, 2.61 -6.29 M2.61 -6.29 C2.65 -6.2, 2.7 -6.11, 2.81 -5.9 M2.61 -6.29 C2.66 -6.18, 2.72 -6.08, 2.81 -5.9 M2.81 -5.9 C2.87 -5.75, 2.93 -5.61, 2.98 -5.51 M2.81 -5.9 C2.87 -5.75, 2.94 -5.6, 2.98 -5.51 M2.98 -5.51 C3.01 -5.39, 3.05 -5.27, 3.11 -5.07 M2.98 -5.51 C3.02 -5.37, 3.07 -5.22, 3.11 -5.07 M3.11 -5.07 C3.14 -4.95, 3.16 -4.84, 3.2 -4.64 M3.11 -5.07 C3.13 -4.97, 3.15 -4.88, 3.2 -4.64 M3.2 -4.64 C3.21 -4.55, 3.22 -4.45, 3.24 -4.22 M3.2 -4.64 C3.21 -4.51, 3.22 -4.38, 3.24 -4.22 M3.24 -4.22 C3.24 -4.11, 3.24 -3.99, 3.24 -3.76 M3.24 -4.22 C3.24 -4.09, 3.24 -3.96, 3.24 -3.76 M3.24 -3.76 C3.22 -3.6, 3.2 -3.45, 3.18 -3.32 M3.24 -3.76 C3.22 -3.6, 3.2 -3.44, 3.18 -3.32 M3.18 -3.32 C3.14 -3.15, 3.09 -2.97, 3.07 -2.87 M3.18 -3.32 C3.14 -3.15, 3.1 -2.99, 3.07 -2.87 M3.07 -2.87 C3.03 -2.76, 2.99 -2.64, 2.94 -2.48 M3.07 -2.87 C3.03 -2.76, 3 -2.65, 2.94 -2.48 M2.94 -2.48 C2.89 -2.38, 2.85 -2.28, 2.76 -2.11 M2.94 -2.48 C2.89 -2.38, 2.84 -2.27, 2.76 -2.11 M2.76 -2.11 C2.71 -2.03, 2.67 -1.96, 2.53 -1.73 M2.76 -2.11 C2.69 -2, 2.62 -1.88, 2.53 -1.73 M2.53 -1.73 C2.47 -1.65, 2.41 -1.58, 2.28 -1.4 M2.53 -1.73 C2.46 -1.64, 2.38 -1.54, 2.28 -1.4 M2.28 -1.4 C2.22 -1.33, 2.16 -1.27, 2 -1.08 M2.28 -1.4 C2.19 -1.29, 2.1 -1.19, 2 -1.08 M2 -1.08 C1.87 -0.96, 1.74 -0.85, 1.67 -0.79 M2 -1.08 C1.9 -0.99, 1.8 -0.9, 1.67 -0.79 M1.67 -0.79 C1.55 -0.7, 1.42 -0.61, 1.34 -0.55 M1.67 -0.79 C1.58 -0.72, 1.48 -0.65, 1.34 -0.55 M1.34 -0.55 C1.2 -0.47, 1.07 -0.39, 0.98 -0.33 M1.34 -0.55 C1.23 -0.48, 1.12 -0.42, 0.98 -0.33 M0.98 -0.33 C0.83 -0.27, 0.67 -0.2, 0.51 -0.13 M0.98 -0.33 C0.81 -0.26, 0.64 -0.18, 0.51 -0.13 M0.51 -0.13 C0.31 -0.08, 0.11 -0.03, 0 0 M0.51 -0.13 C0.36 -0.09, 0.21 -0.05, 0 0 M0 0 C0 0, 0 0, 0 0 M0 0 C0 0, 0 0, 0 0" stroke="#495057" stroke-width="1" fill="none"></path></g></g><mask></mask><g stroke-linecap="round" transform="translate(582.8980769686979 195.2905982580972) rotate(0 1.9297514148161667 1.9297514148161525)"><path d="M3.86 1.93 C3.86 2.04, 3.85 2.15, 3.83 2.26 C3.81 2.37, 3.78 2.48, 3.74 2.59 C3.7 2.69, 3.66 2.8, 3.6 2.89 C3.55 2.99, 3.48 3.08, 3.41 3.17 C3.34 3.26, 3.26 3.34, 3.17 3.41 C3.08 3.48, 2.99 3.55, 2.89 3.6 C2.8 3.66, 2.69 3.7, 2.59 3.74 C2.48 3.78, 2.37 3.81, 2.26 3.83 C2.15 3.85, 2.04 3.86, 1.93 3.86 C1.82 3.86, 1.7 3.85, 1.59 3.83 C1.48 3.81, 1.37 3.78, 1.27 3.74 C1.16 3.7, 1.06 3.66, 0.96 3.6 C0.87 3.55, 0.77 3.48, 0.69 3.41 C0.6 3.34, 0.52 3.26, 0.45 3.17 C0.38 3.08, 0.31 2.99, 0.26 2.89 C0.2 2.8, 0.15 2.69, 0.12 2.59 C0.08 2.48, 0.05 2.37, 0.03 2.26 C0.01 2.15, 0 2.04, 0 1.93 C0 1.82, 0.01 1.7, 0.03 1.59 C0.05 1.48, 0.08 1.37, 0.12 1.27 C0.15 1.16, 0.2 1.06, 0.26 0.96 C0.31 0.87, 0.38 0.77, 0.45 0.69 C0.52 0.6, 0.6 0.52, 0.69 0.45 C0.77 0.38, 0.87 0.31, 0.96 0.26 C1.06 0.2, 1.16 0.15, 1.27 0.12 C1.37 0.08, 1.48 0.05, 1.59 0.03 C1.7 0.01, 1.82 0, 1.93 0 C2.04 0, 2.15 0.01, 2.26 0.03 C2.37 0.05, 2.48 0.08, 2.59 0.12 C2.69 0.15, 2.8 0.2, 2.89 0.26 C2.99 0.31, 3.08 0.38, 3.17 0.45 C3.26 0.52, 3.34 0.6, 3.41 0.69 C3.48 0.77, 3.55 0.87, 3.6 0.96 C3.66 1.06, 3.7 1.16, 3.74 1.27 C3.78 1.37, 3.81 1.48, 3.83 1.59 C3.85 1.7, 3.85 1.87, 3.86 1.93 C3.86 1.99, 3.86 1.87, 3.86 1.93" stroke="none" stroke-width="0" fill="#fff"></path><path d="M3.86 1.93 C3.86 2.04, 3.85 2.15, 3.83 2.26 C3.81 2.37, 3.78 2.48, 3.74 2.59 C3.7 2.69, 3.66 2.8, 3.6 2.89 C3.55 2.99, 3.48 3.08, 3.41 3.17 C3.34 3.26, 3.26 3.34, 3.17 3.41 C3.08 3.48, 2.99 3.55, 2.89 3.6 C2.8 3.66, 2.69 3.7, 2.59 3.74 C2.48 3.78, 2.37 3.81, 2.26 3.83 C2.15 3.85, 2.04 3.86, 1.93 3.86 C1.82 3.86, 1.7 3.85, 1.59 3.83 C1.48 3.81, 1.37 3.78, 1.27 3.74 C1.16 3.7, 1.06 3.66, 0.96 3.6 C0.87 3.55, 0.77 3.48, 0.69 3.41 C0.6 3.34, 0.52 3.26, 0.45 3.17 C0.38 3.08, 0.31 2.99, 0.26 2.89 C0.2 2.8, 0.15 2.69, 0.12 2.59 C0.08 2.48, 0.05 2.37, 0.03 2.26 C0.01 2.15, 0 2.04, 0 1.93 C0 1.82, 0.01 1.7, 0.03 1.59 C0.05 1.48, 0.08 1.37, 0.12 1.27 C0.15 1.16, 0.2 1.06, 0.26 0.96 C0.31 0.87, 0.38 0.77, 0.45 0.69 C0.52 0.6, 0.6 0.52, 0.69 0.45 C0.77 0.38, 0.87 0.31, 0.96 0.26 C1.06 0.2, 1.16 0.15, 1.27 0.12 C1.37 0.08, 1.48 0.05, 1.59 0.03 C1.7 0.01, 1.82 0, 1.93 0 C2.04 0, 2.15 0.01, 2.26 0.03 C2.37 0.05, 2.48 0.08, 2.59 0.12 C2.69 0.15, 2.8 0.2, 2.89 0.26 C2.99 0.31, 3.08 0.38, 3.17 0.45 C3.26 0.52, 3.34 0.6, 3.41 0.69 C3.48 0.77, 3.55 0.87, 3.6 0.96 C3.66 1.06, 3.7 1.16, 3.74 1.27 C3.78 1.37, 3.81 1.48, 3.83 1.59 C3.85 1.7, 3.85 1.87, 3.86 1.93 C3.86 1.99, 3.86 1.87, 3.86 1.93" stroke="#495057" stroke-width="1" fill="none"></path></g><g stroke-linecap="round" transform="translate(592.7283391644254 201.07390209478507) rotate(0 1.9297514148161667 1.9297514148161525)"><path d="M3.86 1.93 C3.86 2.04, 3.85 2.15, 3.83 2.26 C3.81 2.37, 3.78 2.48, 3.74 2.59 C3.7 2.69, 3.66 2.8, 3.6 2.89 C3.55 2.99, 3.48 3.08, 3.41 3.17 C3.34 3.26, 3.26 3.34, 3.17 3.41 C3.08 3.48, 2.99 3.55, 2.89 3.6 C2.8 3.66, 2.69 3.7, 2.59 3.74 C2.48 3.78, 2.37 3.81, 2.26 3.83 C2.15 3.85, 2.04 3.86, 1.93 3.86 C1.82 3.86, 1.7 3.85, 1.59 3.83 C1.48 3.81, 1.37 3.78, 1.27 3.74 C1.16 3.7, 1.06 3.66, 0.96 3.6 C0.87 3.55, 0.77 3.48, 0.69 3.41 C0.6 3.34, 0.52 3.26, 0.45 3.17 C0.38 3.08, 0.31 2.99, 0.26 2.89 C0.2 2.8, 0.15 2.69, 0.12 2.59 C0.08 2.48, 0.05 2.37, 0.03 2.26 C0.01 2.15, 0 2.04, 0 1.93 C0 1.82, 0.01 1.7, 0.03 1.59 C0.05 1.48, 0.08 1.37, 0.12 1.27 C0.15 1.16, 0.2 1.06, 0.26 0.96 C0.31 0.87, 0.38 0.77, 0.45 0.69 C0.52 0.6, 0.6 0.52, 0.69 0.45 C0.77 0.38, 0.87 0.31, 0.96 0.26 C1.06 0.2, 1.16 0.15, 1.27 0.12 C1.37 0.08, 1.48 0.05, 1.59 0.03 C1.7 0.01, 1.82 0, 1.93 0 C2.04 0, 2.15 0.01, 2.26 0.03 C2.37 0.05, 2.48 0.08, 2.59 0.12 C2.69 0.15, 2.8 0.2, 2.89 0.26 C2.99 0.31, 3.08 0.38, 3.17 0.45 C3.26 0.52, 3.34 0.6, 3.41 0.69 C3.48 0.77, 3.55 0.87, 3.6 0.96 C3.66 1.06, 3.7 1.16, 3.74 1.27 C3.78 1.37, 3.81 1.48, 3.83 1.59 C3.85 1.7, 3.85 1.87, 3.86 1.93 C3.86 1.99, 3.86 1.87, 3.86 1.93" stroke="none" stroke-width="0" fill="#fff"></path><path d="M3.86 1.93 C3.86 2.04, 3.85 2.15, 3.83 2.26 C3.81 2.37, 3.78 2.48, 3.74 2.59 C3.7 2.69, 3.66 2.8, 3.6 2.89 C3.55 2.99, 3.48 3.08, 3.41 3.17 C3.34 3.26, 3.26 3.34, 3.17 3.41 C3.08 3.48, 2.99 3.55, 2.89 3.6 C2.8 3.66, 2.69 3.7, 2.59 3.74 C2.48 3.78, 2.37 3.81, 2.26 3.83 C2.15 3.85, 2.04 3.86, 1.93 3.86 C1.82 3.86, 1.7 3.85, 1.59 3.83 C1.48 3.81, 1.37 3.78, 1.27 3.74 C1.16 3.7, 1.06 3.66, 0.96 3.6 C0.87 3.55, 0.77 3.48, 0.69 3.41 C0.6 3.34, 0.52 3.26, 0.45 3.17 C0.38 3.08, 0.31 2.99, 0.26 2.89 C0.2 2.8, 0.15 2.69, 0.12 2.59 C0.08 2.48, 0.05 2.37, 0.03 2.26 C0.01 2.15, 0 2.04, 0 1.93 C0 1.82, 0.01 1.7, 0.03 1.59 C0.05 1.48, 0.08 1.37, 0.12 1.27 C0.15 1.16, 0.2 1.06, 0.26 0.96 C0.31 0.87, 0.38 0.77, 0.45 0.69 C0.52 0.6, 0.6 0.52, 0.69 0.45 C0.77 0.38, 0.87 0.31, 0.96 0.26 C1.06 0.2, 1.16 0.15, 1.27 0.12 C1.37 0.08, 1.48 0.05, 1.59 0.03 C1.7 0.01, 1.82 0, 1.93 0 C2.04 0, 2.15 0.01, 2.26 0.03 C2.37 0.05, 2.48 0.08, 2.59 0.12 C2.69 0.15, 2.8 0.2, 2.89 0.26 C2.99 0.31, 3.08 0.38, 3.17 0.45 C3.26 0.52, 3.34 0.6, 3.41 0.69 C3.48 0.77, 3.55 0.87, 3.6 0.96 C3.66 1.06, 3.7 1.16, 3.74 1.27 C3.78 1.37, 3.81 1.48, 3.83 1.59 C3.85 1.7, 3.85 1.87, 3.86 1.93 C3.86 1.99, 3.86 1.87, 3.86 1.93" stroke="#495057" stroke-width="1" fill="none"></path></g><g stroke-linecap="round" transform="translate(592.754216003721 212.63838868760564) rotate(0 1.9297514148161667 1.9297514148161525)"><path d="M3.86 1.93 C3.86 2.04, 3.85 2.15, 3.83 2.26 C3.81 2.37, 3.78 2.48, 3.74 2.59 C3.7 2.69, 3.66 2.8, 3.6 2.89 C3.55 2.99, 3.48 3.08, 3.41 3.17 C3.34 3.26, 3.26 3.34, 3.17 3.41 C3.08 3.48, 2.99 3.55, 2.89 3.6 C2.8 3.66, 2.69 3.7, 2.59 3.74 C2.48 3.78, 2.37 3.81, 2.26 3.83 C2.15 3.85, 2.04 3.86, 1.93 3.86 C1.82 3.86, 1.7 3.85, 1.59 3.83 C1.48 3.81, 1.37 3.78, 1.27 3.74 C1.16 3.7, 1.06 3.66, 0.96 3.6 C0.87 3.55, 0.77 3.48, 0.69 3.41 C0.6 3.34, 0.52 3.26, 0.45 3.17 C0.38 3.08, 0.31 2.99, 0.26 2.89 C0.2 2.8, 0.15 2.69, 0.12 2.59 C0.08 2.48, 0.05 2.37, 0.03 2.26 C0.01 2.15, 0 2.04, 0 1.93 C0 1.82, 0.01 1.7, 0.03 1.59 C0.05 1.48, 0.08 1.37, 0.12 1.27 C0.15 1.16, 0.2 1.06, 0.26 0.96 C0.31 0.87, 0.38 0.77, 0.45 0.69 C0.52 0.6, 0.6 0.52, 0.69 0.45 C0.77 0.38, 0.87 0.31, 0.96 0.26 C1.06 0.2, 1.16 0.15, 1.27 0.12 C1.37 0.08, 1.48 0.05, 1.59 0.03 C1.7 0.01, 1.82 0, 1.93 0 C2.04 0, 2.15 0.01, 2.26 0.03 C2.37 0.05, 2.48 0.08, 2.59 0.12 C2.69 0.15, 2.8 0.2, 2.89 0.26 C2.99 0.31, 3.08 0.38, 3.17 0.45 C3.26 0.52, 3.34 0.6, 3.41 0.69 C3.48 0.77, 3.55 0.87, 3.6 0.96 C3.66 1.06, 3.7 1.16, 3.74 1.27 C3.78 1.37, 3.81 1.48, 3.83 1.59 C3.85 1.7, 3.85 1.87, 3.86 1.93 C3.86 1.99, 3.86 1.87, 3.86 1.93" stroke="none" stroke-width="0" fill="#fff"></path><path d="M3.86 1.93 C3.86 2.04, 3.85 2.15, 3.83 2.26 C3.81 2.37, 3.78 2.48, 3.74 2.59 C3.7 2.69, 3.66 2.8, 3.6 2.89 C3.55 2.99, 3.48 3.08, 3.41 3.17 C3.34 3.26, 3.26 3.34, 3.17 3.41 C3.08 3.48, 2.99 3.55, 2.89 3.6 C2.8 3.66, 2.69 3.7, 2.59 3.74 C2.48 3.78, 2.37 3.81, 2.26 3.83 C2.15 3.85, 2.04 3.86, 1.93 3.86 C1.82 3.86, 1.7 3.85, 1.59 3.83 C1.48 3.81, 1.37 3.78, 1.27 3.74 C1.16 3.7, 1.06 3.66, 0.96 3.6 C0.87 3.55, 0.77 3.48, 0.69 3.41 C0.6 3.34, 0.52 3.26, 0.45 3.17 C0.38 3.08, 0.31 2.99, 0.26 2.89 C0.2 2.8, 0.15 2.69, 0.12 2.59 C0.08 2.48, 0.05 2.37, 0.03 2.26 C0.01 2.15, 0 2.04, 0 1.93 C0 1.82, 0.01 1.7, 0.03 1.59 C0.05 1.48, 0.08 1.37, 0.12 1.27 C0.15 1.16, 0.2 1.06, 0.26 0.96 C0.31 0.87, 0.38 0.77, 0.45 0.69 C0.52 0.6, 0.6 0.52, 0.69 0.45 C0.77 0.38, 0.87 0.31, 0.96 0.26 C1.06 0.2, 1.16 0.15, 1.27 0.12 C1.37 0.08, 1.48 0.05, 1.59 0.03 C1.7 0.01, 1.82 0, 1.93 0 C2.04 0, 2.15 0.01, 2.26 0.03 C2.37 0.05, 2.48 0.08, 2.59 0.12 C2.69 0.15, 2.8 0.2, 2.89 0.26 C2.99 0.31, 3.08 0.38, 3.17 0.45 C3.26 0.52, 3.34 0.6, 3.41 0.69 C3.48 0.77, 3.55 0.87, 3.6 0.96 C3.66 1.06, 3.7 1.16, 3.74 1.27 C3.78 1.37, 3.81 1.48, 3.83 1.59 C3.85 1.7, 3.85 1.87, 3.86 1.93 C3.86 1.99, 3.86 1.87, 3.86 1.93" stroke="#495057" stroke-width="1" fill="none"></path></g><g stroke-linecap="round" transform="translate(582.9074461069556 218.39859209967238) rotate(0 1.9297514148161667 1.9297514148161525)"><path d="M3.86 1.93 C3.86 2.04, 3.85 2.15, 3.83 2.26 C3.81 2.37, 3.78 2.48, 3.74 2.59 C3.7 2.69, 3.66 2.8, 3.6 2.89 C3.55 2.99, 3.48 3.08, 3.41 3.17 C3.34 3.26, 3.26 3.34, 3.17 3.41 C3.08 3.48, 2.99 3.55, 2.89 3.6 C2.8 3.66, 2.69 3.7, 2.59 3.74 C2.48 3.78, 2.37 3.81, 2.26 3.83 C2.15 3.85, 2.04 3.86, 1.93 3.86 C1.82 3.86, 1.7 3.85, 1.59 3.83 C1.48 3.81, 1.37 3.78, 1.27 3.74 C1.16 3.7, 1.06 3.66, 0.96 3.6 C0.87 3.55, 0.77 3.48, 0.69 3.41 C0.6 3.34, 0.52 3.26, 0.45 3.17 C0.38 3.08, 0.31 2.99, 0.26 2.89 C0.2 2.8, 0.15 2.69, 0.12 2.59 C0.08 2.48, 0.05 2.37, 0.03 2.26 C0.01 2.15, 0 2.04, 0 1.93 C0 1.82, 0.01 1.7, 0.03 1.59 C0.05 1.48, 0.08 1.37, 0.12 1.27 C0.15 1.16, 0.2 1.06, 0.26 0.96 C0.31 0.87, 0.38 0.77, 0.45 0.69 C0.52 0.6, 0.6 0.52, 0.69 0.45 C0.77 0.38, 0.87 0.31, 0.96 0.26 C1.06 0.2, 1.16 0.15, 1.27 0.12 C1.37 0.08, 1.48 0.05, 1.59 0.03 C1.7 0.01, 1.82 0, 1.93 0 C2.04 0, 2.15 0.01, 2.26 0.03 C2.37 0.05, 2.48 0.08, 2.59 0.12 C2.69 0.15, 2.8 0.2, 2.89 0.26 C2.99 0.31, 3.08 0.38, 3.17 0.45 C3.26 0.52, 3.34 0.6, 3.41 0.69 C3.48 0.77, 3.55 0.87, 3.6 0.96 C3.66 1.06, 3.7 1.16, 3.74 1.27 C3.78 1.37, 3.81 1.48, 3.83 1.59 C3.85 1.7, 3.85 1.87, 3.86 1.93 C3.86 1.99, 3.86 1.87, 3.86 1.93" stroke="none" stroke-width="0" fill="#fff"></path><path d="M3.86 1.93 C3.86 2.04, 3.85 2.15, 3.83 2.26 C3.81 2.37, 3.78 2.48, 3.74 2.59 C3.7 2.69, 3.66 2.8, 3.6 2.89 C3.55 2.99, 3.48 3.08, 3.41 3.17 C3.34 3.26, 3.26 3.34, 3.17 3.41 C3.08 3.48, 2.99 3.55, 2.89 3.6 C2.8 3.66, 2.69 3.7, 2.59 3.74 C2.48 3.78, 2.37 3.81, 2.26 3.83 C2.15 3.85, 2.04 3.86, 1.93 3.86 C1.82 3.86, 1.7 3.85, 1.59 3.83 C1.48 3.81, 1.37 3.78, 1.27 3.74 C1.16 3.7, 1.06 3.66, 0.96 3.6 C0.87 3.55, 0.77 3.48, 0.69 3.41 C0.6 3.34, 0.52 3.26, 0.45 3.17 C0.38 3.08, 0.31 2.99, 0.26 2.89 C0.2 2.8, 0.15 2.69, 0.12 2.59 C0.08 2.48, 0.05 2.37, 0.03 2.26 C0.01 2.15, 0 2.04, 0 1.93 C0 1.82, 0.01 1.7, 0.03 1.59 C0.05 1.48, 0.08 1.37, 0.12 1.27 C0.15 1.16, 0.2 1.06, 0.26 0.96 C0.31 0.87, 0.38 0.77, 0.45 0.69 C0.52 0.6, 0.6 0.52, 0.69 0.45 C0.77 0.38, 0.87 0.31, 0.96 0.26 C1.06 0.2, 1.16 0.15, 1.27 0.12 C1.37 0.08, 1.48 0.05, 1.59 0.03 C1.7 0.01, 1.82 0, 1.93 0 C2.04 0, 2.15 0.01, 2.26 0.03 C2.37 0.05, 2.48 0.08, 2.59 0.12 C2.69 0.15, 2.8 0.2, 2.89 0.26 C2.99 0.31, 3.08 0.38, 3.17 0.45 C3.26 0.52, 3.34 0.6, 3.41 0.69 C3.48 0.77, 3.55 0.87, 3.6 0.96 C3.66 1.06, 3.7 1.16, 3.74 1.27 C3.78 1.37, 3.81 1.48, 3.83 1.59 C3.85 1.7, 3.85 1.87, 3.86 1.93 C3.86 1.99, 3.86 1.87, 3.86 1.93" stroke="#495057" stroke-width="1" fill="none"></path></g><g stroke-linecap="round" transform="translate(582.0070349514596 205.9651294569647) rotate(0 2.8079305227772124 2.8079305227772124)"><path d="M5.62 2.81 C5.62 2.97, 5.6 3.14, 5.57 3.3 C5.54 3.46, 5.5 3.62, 5.45 3.77 C5.39 3.92, 5.32 4.07, 5.24 4.21 C5.16 4.35, 5.06 4.49, 4.96 4.61 C4.85 4.74, 4.74 4.85, 4.61 4.96 C4.49 5.06, 4.35 5.16, 4.21 5.24 C4.07 5.32, 3.92 5.39, 3.77 5.45 C3.62 5.5, 3.46 5.54, 3.3 5.57 C3.14 5.6, 2.97 5.62, 2.81 5.62 C2.65 5.62, 2.48 5.6, 2.32 5.57 C2.16 5.54, 2 5.5, 1.85 5.45 C1.69 5.39, 1.54 5.32, 1.4 5.24 C1.26 5.16, 1.13 5.06, 1 4.96 C0.88 4.85, 0.76 4.74, 0.66 4.61 C0.55 4.49, 0.46 4.35, 0.38 4.21 C0.29 4.07, 0.22 3.92, 0.17 3.77 C0.11 3.62, 0.07 3.46, 0.04 3.3 C0.01 3.14, 0 2.97, 0 2.81 C0 2.65, 0.01 2.48, 0.04 2.32 C0.07 2.16, 0.11 2, 0.17 1.85 C0.22 1.69, 0.29 1.54, 0.38 1.4 C0.46 1.26, 0.55 1.13, 0.66 1 C0.76 0.88, 0.88 0.76, 1 0.66 C1.13 0.55, 1.26 0.46, 1.4 0.38 C1.54 0.29, 1.69 0.22, 1.85 0.17 C2 0.11, 2.16 0.07, 2.32 0.04 C2.48 0.01, 2.65 0, 2.81 0 C2.97 0, 3.14 0.01, 3.3 0.04 C3.46 0.07, 3.62 0.11, 3.77 0.17 C3.92 0.22, 4.07 0.29, 4.21 0.38 C4.35 0.46, 4.49 0.55, 4.61 0.66 C4.74 0.76, 4.85 0.88, 4.96 1 C5.06 1.13, 5.16 1.26, 5.24 1.4 C5.32 1.54, 5.39 1.69, 5.45 1.85 C5.5 2, 5.54 2.16, 5.57 2.32 C5.6 2.48, 5.61 2.73, 5.62 2.81 C5.62 2.89, 5.62 2.73, 5.62 2.81" stroke="none" stroke-width="0" fill="#fff"></path><path d="M5.62 2.81 C5.62 2.97, 5.6 3.14, 5.57 3.3 C5.54 3.46, 5.5 3.62, 5.45 3.77 C5.39 3.92, 5.32 4.07, 5.24 4.21 C5.16 4.35, 5.06 4.49, 4.96 4.61 C4.85 4.74, 4.74 4.85, 4.61 4.96 C4.49 5.06, 4.35 5.16, 4.21 5.24 C4.07 5.32, 3.92 5.39, 3.77 5.45 C3.62 5.5, 3.46 5.54, 3.3 5.57 C3.14 5.6, 2.97 5.62, 2.81 5.62 C2.65 5.62, 2.48 5.6, 2.32 5.57 C2.16 5.54, 2 5.5, 1.85 5.45 C1.69 5.39, 1.54 5.32, 1.4 5.24 C1.26 5.16, 1.13 5.06, 1 4.96 C0.88 4.85, 0.76 4.74, 0.66 4.61 C0.55 4.49, 0.46 4.35, 0.38 4.21 C0.29 4.07, 0.22 3.92, 0.17 3.77 C0.11 3.62, 0.07 3.46, 0.04 3.3 C0.01 3.14, 0 2.97, 0 2.81 C0 2.65, 0.01 2.48, 0.04 2.32 C0.07 2.16, 0.11 2, 0.17 1.85 C0.22 1.69, 0.29 1.54, 0.38 1.4 C0.46 1.26, 0.55 1.13, 0.66 1 C0.76 0.88, 0.88 0.76, 1 0.66 C1.13 0.55, 1.26 0.46, 1.4 0.38 C1.54 0.29, 1.69 0.22, 1.85 0.17 C2 0.11, 2.16 0.07, 2.32 0.04 C2.48 0.01, 2.65 0, 2.81 0 C2.97 0, 3.14 0.01, 3.3 0.04 C3.46 0.07, 3.62 0.11, 3.77 0.17 C3.92 0.22, 4.07 0.29, 4.21 0.38 C4.35 0.46, 4.49 0.55, 4.61 0.66 C4.74 0.76, 4.85 0.88, 4.96 1 C5.06 1.13, 5.16 1.26, 5.24 1.4 C5.32 1.54, 5.39 1.69, 5.45 1.85 C5.5 2, 5.54 2.16, 5.57 2.32 C5.6 2.48, 5.61 2.73, 5.62 2.81 C5.62 2.89, 5.62 2.73, 5.62 2.81" stroke="#495057" stroke-width="1" fill="none"></path></g><g transform="translate(604.0934263985575 200.3793598093684) rotate(0 19.75 9.472674989942035)"><text x="19.75" y="0" font-family="Helvetica, Segoe UI Emoji" font-size="16.474217373812245px" fill="#495057" text-anchor="middle" style="white-space: pre;" direction="ltr" dominant-baseline="text-before-edge">kafka</text></g><g stroke-linecap="round"><g transform="translate(529.6854112413193 234.245846223996) rotate(0 84.5 0)"><path d="M0 0 C36.94 0, 73.88 0, 169 0 M0 0 C66.31 0, 132.61 0, 169 0" stroke="#000000" stroke-width="1" fill="none"></path></g></g><mask></mask><g stroke-linecap="round"><g transform="translate(530.1854112413193 185.245846223996) rotate(0 84.5 0)"><path d="M0 0 C59.72 0, 119.45 0, 169 0 M0 0 C35.03 0, 70.07 0, 169 0" stroke="#000000" stroke-width="1" fill="none"></path></g></g><mask></mask><g stroke-linecap="round"><g transform="translate(529.6854112413193 186.245846223996) rotate(0 -2.490200267118553 24)"><path d="M0 0 C-0.83 3.74, -4.98 14.44, -4.98 22.44 C-4.98 30.44, -0.83 43.74, 0 48 M0 0 C-0.83 3.74, -4.98 14.44, -4.98 22.44 C-4.98 30.44, -0.83 43.74, 0 48" stroke="#000000" stroke-width="1" fill="none"></path></g></g><mask></mask><g stroke-linecap="round"><g transform="translate(530.5481521506712 185.86152579660637) rotate(0 2.6839157654658834 23.81433104525786)"><path d="M0.65 -0.9 C1.5 3.12, 5.77 15.07, 5.84 23.14 C5.91 31.2, 1.89 43.26, 1.07 47.48 M-0.47 1.24 C0.24 5, 5.1 13.5, 5.32 21.38 C5.54 29.26, 1.48 43.79, 0.87 48.53" stroke="#000000" stroke-width="1" fill="none"></path></g></g><mask></mask><g stroke-linecap="round"><g transform="translate(700.5481521506711 184.449761090724) rotate(0 3.4433262652723897 24.737453674525028)"><path d="M2.52 2.19 C3.88 5.68, 8.39 15.64, 8.04 23 C7.69 30.36, 1.6 42.37, 0.41 46.35 M0.45 0.9 C1.55 4.53, 6.75 17.71, 6.48 25.66 C6.21 33.6, -0.42 44.7, -1.17 48.57" stroke="#000000" stroke-width="1" fill="none"></path></g></g><mask></mask><g transform="translate(590.215719011095 231.87918362633962) rotate(0 21.13157844543457 9.199999999999989)"><text x="21.13157844543457" y="0" font-family="Helvetica, Segoe UI Emoji" font-size="16px" fill="#1e1e1e" text-anchor="middle" style="white-space: pre;" direction="ltr" dominant-baseline="text-before-edge">topics</text></g><g transform="translate(126.21570001467313 18.892005802040188) rotate(0 102.96052551269531 11.5)"><text x="102.96052551269531" y="0" font-family="Helvetica, Segoe UI Emoji" font-size="20px" fill="#1971c2" text-anchor="middle" style="white-space: pre;" direction="ltr" dominant-baseline="text-before-edge">Central Ledger Service</text></g><g stroke-linecap="round"><g transform="translate(470.4418317551481 209.26479675632328) rotate(0 25.677992845220217 -0.05839252658188343)"><path d="M-0.51 0.35 C13.19 0.16, 25.54 -0.43, 51.86 0.85 M0.3 -0.97 C20.98 0.89, 40.51 1.28, 51.33 -0.87" stroke="#1971c2" stroke-width="1" fill="none"></path></g><g transform="translate(470.4418317551481 209.26479675632328) rotate(0 25.677992845220217 -0.05839252658188343)"><path d="M1.08 1.63 L12.58 -6.15 L13.76 6.38 L-1.67 -1.4" stroke="none" stroke-width="0" fill="#1971c2" fill-rule="evenodd"></path><path d="M-0.89 0.6 C3.08 -1, 5.98 -3.11, 13.85 -5.44 M-0.29 -0.38 C5.47 -1.76, 10.31 -4.04, 13.45 -6.73 M12.93 -7.32 C13.86 -2.24, 12.52 1.01, 12.18 6.49 M12.78 -6.65 C12.9 -3.05, 12.82 -0.44, 13.25 7.01 M13.18 5.66 C9.53 6.43, 7.88 2.92, 0.8 1.43 M13.12 6.53 C8.72 4.32, 5.83 3.22, -1.16 -0.25 M-0.51 0.35 C-0.51 0.35, -0.51 0.35, -0.51 0.35 M-0.51 0.35 C-0.51 0.35, -0.51 0.35, -0.51 0.35" stroke="#1971c2" stroke-width="1" fill="none"></path></g><g transform="translate(470.4418317551481 209.26479675632328) rotate(0 25.677992845220217 -0.05839252658188343)"><path d="M52.92 0.42 L38.02 6.82 L37.77 -5.93 L50.17 -2.61" stroke="none" stroke-width="0" fill="#1971c2" fill-rule="evenodd"></path><path d="M50.95 -0.61 C47.94 1.68, 43.98 3.25, 39.29 7.52 M51.55 -1.59 C46.64 2.47, 40.93 5.86, 38.89 6.24 M38.38 5.64 C38.94 2.67, 37.14 -2.15, 36.19 -5.83 M38.22 6.32 C37.93 4.85, 37.56 2.39, 37.26 -5.31 M37.19 -6.65 C39.71 -3.6, 44.32 -4.61, 52.64 0.22 M37.13 -5.79 C40.84 -4.84, 46.1 -2.69, 50.68 -1.46 M51.33 -0.87 C51.33 -0.87, 51.33 -0.87, 51.33 -0.87 M51.33 -0.87 C51.33 -0.87, 51.33 -0.87, 51.33 -0.87" stroke="#1971c2" stroke-width="1" fill="none"></path></g></g><mask></mask><g stroke-linecap="round" transform="translate(725.0763879641139 39.80602495043445) rotate(0 191.27272727272737 205)"><path d="M-0.22 0.33 C86.45 1.59, 172.98 0.96, 381.7 0.61 M383.47 -0.32 C382.1 128.34, 381.48 259.26, 382.77 409.42 M381.54 410.73 C251.04 408.92, 117.74 409.57, 0.44 410.95 M0.03 411.08 C-2.13 312.65, -2.4 217.88, -0.98 -0.95" stroke="#d0bfff" stroke-width="2.5" fill="none" stroke-dasharray="8 10"></path></g><g stroke-linecap="round" transform="translate(771.2432979567228 69.04279969776829) rotate(0 65 131)"><path d="M1.27 2.31 C36.69 -0.51, 64.91 1.32, 130.6 0.03 M-0.84 -1.39 C25.31 2.65, 54.98 -0.31, 130.92 -1.14 M132.28 1.21 C126.25 63.94, 127.64 124.55, 127.92 264.6 M129.57 -1.57 C129.3 77.77, 128.69 152.96, 131.02 260.59 M133.01 258.03 C89.12 263.3, 45.23 265.95, -2.16 264.2 M131.59 263.33 C76.97 261.02, 26.77 259.54, -0.82 261.03 M2.44 263.58 C6.75 198.58, 2.49 142.45, 1.83 -1.6 M0.89 262.14 C2.13 196.24, 0.65 133.03, -1.06 0.33" stroke="#6741d9" stroke-width="2" fill="none"></path></g><g transform="translate(788.0459293348966 165.5427996977683) rotate(0 48.19736862182617 34.5)"><text x="48.19736862182617" y="0" font-family="Helvetica, Segoe UI Emoji" font-size="20px" fill="#6741d9" text-anchor="middle" style="white-space: pre;" direction="ltr" dominant-baseline="text-before-edge">Core </text><text x="48.19736862182617" y="23" font-family="Helvetica, Segoe UI Emoji" font-size="20px" fill="#6741d9" text-anchor="middle" style="white-space: pre;" direction="ltr" dominant-baseline="text-before-edge">Settlement</text><text x="48.19736862182617" y="46" font-family="Helvetica, Segoe UI Emoji" font-size="20px" fill="#6741d9" text-anchor="middle" style="white-space: pre;" direction="ltr" dominant-baseline="text-before-edge">Logic</text></g><g stroke-linecap="round" transform="translate(769.279012242437 336.43565684062537) rotate(0 66.5 42)"><path d="M-2.84 2.05 C48.18 -0.11, 91.56 3.24, 131.84 -1.68 M0.41 -1.06 C31.56 -3.67, 59.93 -4.21, 134.23 1.43 M134.46 3.2 C130.27 31.65, 132.66 56.88, 136.91 82.93 M131.22 -1.72 C133.44 15.17, 132.93 33.63, 134.82 85.5 M136.39 85.59 C104.16 85.49, 83.48 83.28, -2.3 87.19 M132.82 83.03 C83.42 83.71, 34.16 82.83, 0.9 85.53 M-1.72 87.36 C0.77 52.63, -3.57 24.47, -1.45 2.24 M-0.21 85.86 C-2.71 58.47, 0.5 31.26, 1.55 1.68" stroke="#d0bfff" stroke-width="2" fill="none"></path></g><g transform="translate(807.6737494860894 360.0356568406254) rotate(0 28.105262756347656 18.400000000000006)"><text x="28.105262756347656" y="0" font-family="Helvetica, Segoe UI Emoji" font-size="16px" fill="#d0bfff" text-anchor="middle" style="white-space: pre;" direction="ltr" dominant-baseline="text-before-edge">Ledger </text><text x="28.105262756347656" y="18.4" font-family="Helvetica, Segoe UI Emoji" font-size="16px" fill="#d0bfff" text-anchor="middle" style="white-space: pre;" direction="ltr" dominant-baseline="text-before-edge">Adapter</text></g><g transform="translate(741.9094193033328 10) rotate(0 160.4342041015625 11.5)"><text x="160.4342041015625" y="0" font-family="Helvetica, Segoe UI Emoji" font-size="20px" fill="#9775fa" text-anchor="middle" style="white-space: pre;" direction="ltr" dominant-baseline="text-before-edge">Next Generation Settlement Service</text></g><g stroke-linecap="round"><g transform="translate(894.4171963412097 327.9356568406253) rotate(0 0 0)"><path d="M0 0 C0 0, 0 0, 0 0 M0 0 C0 0, 0 0, 0 0" stroke="#000000" stroke-width="2" fill="none"></path></g><g transform="translate(894.4171963412097 327.9356568406253) rotate(0 0 0)"><path d="M0 0 LNaN NaN LNaN NaN L0 0" stroke="none" stroke-width="0" fill="#000000" fill-rule="evenodd"></path><path d="MNaN NaN CNaN NaN, NaN NaN, NaN NaN MNaN NaN CNaN NaN, NaN NaN, NaN NaN MNaN NaN CNaN NaN, NaN NaN, NaN NaN MNaN NaN CNaN NaN, NaN NaN, NaN NaN MNaN NaN CNaN NaN, NaN NaN, NaN NaN MNaN NaN CNaN NaN, NaN NaN, NaN NaN M0 0 C0 0, 0 0, 0 0 M0 0 C0 0, 0 0, 0 0" stroke="#000000" stroke-width="2" fill="none"></path></g><g transform="translate(894.4171963412097 327.9356568406253) rotate(0 0 0)"><path d="M0 0 LNaN NaN LNaN NaN L0 0" stroke="none" stroke-width="0" fill="#000000" fill-rule="evenodd"></path><path d="MNaN NaN CNaN NaN, NaN NaN, NaN NaN MNaN NaN CNaN NaN, NaN NaN, NaN NaN MNaN NaN CNaN NaN, NaN NaN, NaN NaN MNaN NaN CNaN NaN, NaN NaN, NaN NaN MNaN NaN CNaN NaN, NaN NaN, NaN NaN MNaN NaN CNaN NaN, NaN NaN, NaN NaN M0 0 C0 0, 0 0, 0 0 M0 0 C0 0, 0 0, 0 0" stroke="#000000" stroke-width="2" fill="none"></path></g></g><mask></mask><g stroke-linecap="round"><g transform="translate(909.59053708763 116.61398742731853) rotate(0 33.399867079681144 -0.09511753405107015)"><path d="M0 0 C25.68 -0.07, 51.37 -0.15, 66.8 -0.19 M0 0 C14.4 -0.04, 28.8 -0.08, 66.8 -0.19" stroke="#000000" stroke-width="2" fill="none"></path></g><g transform="translate(909.59053708763 116.61398742731853) rotate(0 33.399867079681144 -0.09511753405107015)"><path d="M0 0 L13.58 -6.38 L13.61 6.3 L0 0" stroke="none" stroke-width="0" fill="#000000" fill-rule="evenodd"></path><path d="M0 0 C5.22 -2.45, 10.44 -4.9, 13.58 -6.38 M0 0 C2.93 -1.37, 5.85 -2.75, 13.58 -6.38 M13.58 -6.38 C13.59 -2.54, 13.6 1.29, 13.61 6.3 M13.58 -6.38 C13.59 -2.73, 13.6 0.93, 13.61 6.3 M13.61 6.3 C9.53 4.41, 5.45 2.52, 0 0 M13.61 6.3 C10.79 4.99, 7.96 3.69, 0 0 M0 0 C0 0, 0 0, 0 0 M0 0 C0 0, 0 0, 0 0" stroke="#000000" stroke-width="2" fill="none"></path></g><g transform="translate(909.59053708763 116.61398742731853) rotate(0 33.399867079681144 -0.09511753405107015)"><path d="M66.8 -0.19 L53.22 6.19 L53.19 -6.49 L66.8 -0.19" stroke="none" stroke-width="0" fill="#000000" fill-rule="evenodd"></path><path d="M66.8 -0.19 C61.58 2.26, 56.36 4.71, 53.22 6.19 M66.8 -0.19 C63.87 1.18, 60.95 2.56, 53.22 6.19 M53.22 6.19 C53.21 2.35, 53.2 -1.48, 53.19 -6.49 M53.22 6.19 C53.21 2.54, 53.2 -1.12, 53.19 -6.49 M53.19 -6.49 C57.27 -4.6, 61.35 -2.71, 66.8 -0.19 M53.19 -6.49 C56.01 -5.18, 58.84 -3.88, 66.8 -0.19 M66.8 -0.19 C66.8 -0.19, 66.8 -0.19, 66.8 -0.19 M66.8 -0.19 C66.8 -0.19, 66.8 -0.19, 66.8 -0.19" stroke="#000000" stroke-width="2" fill="none"></path></g></g><mask></mask><g stroke-linecap="round"><g transform="translate(911.0109197150747 375.19953232318613) rotate(0 33.03720089831927 -0.3703765869140625)"><path d="M0 0 C17.04 -0.19, 34.09 -0.38, 66.07 -0.74 M0 0 C24.55 -0.28, 49.09 -0.55, 66.07 -0.74" stroke="#000000" stroke-width="2" fill="none"></path></g><g transform="translate(911.0109197150747 375.19953232318613) rotate(0 33.03720089831927 -0.3703765869140625)"><path d="M0 0 L13.52 -6.49 L13.66 6.19 L0 0" stroke="none" stroke-width="0" fill="#000000" fill-rule="evenodd"></path><path d="M0 0 C3.49 -1.67, 6.98 -3.35, 13.52 -6.49 M0 0 C5.02 -2.41, 10.05 -4.82, 13.52 -6.49 M13.52 -6.49 C13.56 -3.03, 13.6 0.44, 13.66 6.19 M13.52 -6.49 C13.58 -1.73, 13.63 3.02, 13.66 6.19 M13.66 6.19 C8.48 3.84, 3.29 1.49, 0 0 M13.66 6.19 C8.52 3.86, 3.38 1.53, 0 0 M0 0 C0 0, 0 0, 0 0 M0 0 C0 0, 0 0, 0 0" stroke="#000000" stroke-width="2" fill="none"></path></g><g transform="translate(911.0109197150747 375.19953232318613) rotate(0 33.03720089831927 -0.3703765869140625)"><path d="M66.07 -0.74 L52.55 5.75 L52.41 -6.93 L66.07 -0.74" stroke="none" stroke-width="0" fill="#000000" fill-rule="evenodd"></path><path d="M66.07 -0.74 C62.59 0.93, 59.1 2.61, 52.55 5.75 M66.07 -0.74 C61.05 1.67, 56.03 4.08, 52.55 5.75 M52.55 5.75 C52.51 2.29, 52.47 -1.18, 52.41 -6.93 M52.55 5.75 C52.5 0.99, 52.45 -3.76, 52.41 -6.93 M52.41 -6.93 C57.6 -4.58, 62.79 -2.23, 66.07 -0.74 M52.41 -6.93 C57.55 -4.6, 62.7 -2.27, 66.07 -0.74 M66.07 -0.74 C66.07 -0.74, 66.07 -0.74, 66.07 -0.74 M66.07 -0.74 C66.07 -0.74, 66.07 -0.74, 66.07 -0.74" stroke="#000000" stroke-width="2" fill="none"></path></g></g><mask></mask><g stroke-linecap="round"><g transform="translate(985.4852492324143 300.57139645099534) rotate(0 41.03753594324621 45.236574575389085)" fill-rule="evenodd"><path d="M1.59 1.33 L-1.73 90.33 L1.02 91.46 L18.27 96.45 L42.82 96.62 L68.99 98.33 L83.48 93.13 L81.31 -2.08 L83.9 0.82 L79.22 -3.63 L72.16 -6.3 L41.26 -8.35 L12.19 -6.24 L3.34 -1.61 L-1.33 0.42" stroke="none" stroke-width="0" fill="#ced4da" fill-rule="evenodd"></path><path d="M0.25 -0.64 C0.58 12.54, 1 65.24, 0.83 80.19 C0.65 95.14, -1.49 86.61, -0.79 89.06 C-0.1 91.52, 1.62 93.53, 5.01 94.91 C8.4 96.29, 12.84 96.67, 19.55 97.33 C26.26 98, 37.01 99.13, 45.26 98.91 C53.51 98.69, 62.96 97.04, 69.05 96.01 C75.14 94.98, 79.53 93.63, 81.79 92.73 C84.05 91.82, 82.51 92.57, 82.64 90.59 C82.76 88.61, 82.63 94.72, 82.54 80.82 C82.44 66.93, 82.28 20.94, 82.05 7.24 C81.82 -6.46, 81.88 0.74, 81.15 -1.35 C80.42 -3.45, 80.16 -4.46, 77.66 -5.35 C75.16 -6.25, 72.22 -6.36, 66.15 -6.74 C60.08 -7.12, 49.18 -7.68, 41.23 -7.63 C33.28 -7.57, 24.8 -7.28, 18.46 -6.42 C12.13 -5.55, 6.23 -3.4, 3.23 -2.45 C0.22 -1.49, 0.86 -1.3, 0.43 -0.7 C0 -0.1, 0.73 1.16, 0.66 1.16 M-1.08 1.64 C-0.75 15.47, -0.29 66.66, 0.17 81.36 C0.63 96.07, 0.76 87.94, 1.68 89.85 C2.59 91.76, 2.87 91.5, 5.64 92.81 C8.42 94.11, 11.99 96.8, 18.32 97.68 C24.64 98.56, 35.56 98.06, 43.59 98.1 C51.63 98.14, 60.26 98.87, 66.54 97.92 C72.82 96.96, 78.87 93.7, 81.28 92.35 C83.69 91, 80.67 91.31, 80.98 89.82 C81.29 88.33, 82.96 96.97, 83.14 83.41 C83.32 69.85, 82.1 22.14, 82.05 8.46 C82 -5.21, 83.46 3.26, 82.84 1.34 C82.21 -0.58, 81.15 -1.68, 78.3 -3.07 C75.44 -4.47, 72.33 -6.23, 65.69 -7 C59.05 -7.78, 46.27 -7.49, 38.47 -7.71 C30.67 -7.93, 24.98 -8.8, 18.87 -8.32 C12.76 -7.84, 5.05 -6.1, 1.81 -4.83 C-1.44 -3.55, -0.24 -1.2, -0.6 -0.67 C-0.97 -0.14, -0.56 -1.89, -0.38 -1.64" stroke="#9c36b5" stroke-width="1" fill="none"></path></g></g><mask></mask><g stroke-linecap="round" transform="translate(983.8013466047522 292.90154313214913) rotate(0 41.18548365752133 8.329454218617656)"><path d="M37.24 0.86 C45.54 0.48, 56.68 0.59, 64.1 1.35 C71.53 2.11, 79.31 3.53, 81.78 5.42 C84.25 7.31, 82.78 10.84, 78.91 12.71 C75.04 14.58, 66.42 16.14, 58.57 16.62 C50.72 17.09, 40.34 16.01, 31.8 15.54 C23.25 15.06, 12.72 15.09, 7.29 13.77 C1.86 12.45, -1.59 9.46, -0.76 7.62 C0.07 5.77, 5.35 3.85, 12.27 2.71 C19.19 1.56, 35.64 1.31, 40.77 0.73 C45.91 0.16, 43.04 -0.61, 43.1 -0.76 M29.97 1.13 C37.79 0.68, 50.26 -0.14, 58.21 0.65 C66.16 1.44, 73.97 4.29, 77.66 5.88 C81.36 7.47, 82.18 8.7, 80.39 10.19 C78.6 11.68, 74 13.51, 66.93 14.8 C59.86 16.1, 47.14 18.27, 37.96 17.98 C28.77 17.69, 18.05 14.42, 11.84 13.08 C5.63 11.73, 1.38 11.38, 0.72 9.9 C0.05 8.43, 2.82 5.77, 7.86 4.21 C12.9 2.66, 27.31 0.95, 30.95 0.57 C34.59 0.19, 29.53 1.95, 29.67 1.94" stroke="none" stroke-width="0" fill="#fff"></path><path d="M28.32 0.85 C36.19 0.24, 47.51 0.76, 55.71 1.46 C63.9 2.17, 73.27 3.52, 77.49 5.06 C81.7 6.6, 82.71 9.07, 81 10.7 C79.28 12.32, 73.75 13.86, 67.19 14.81 C60.62 15.75, 50.6 16.5, 41.62 16.39 C32.64 16.28, 20.1 15.4, 13.31 14.13 C6.53 12.86, 2.31 10.35, 0.92 8.78 C-0.48 7.21, 0.04 6.07, 4.93 4.71 C9.83 3.36, 25.31 1.23, 30.29 0.64 C35.27 0.05, 34.39 1.27, 34.83 1.18 M57.82 -0.15 C65.95 0.44, 74.77 4.4, 78.68 5.98 C82.6 7.56, 83.24 7.67, 81.32 9.33 C79.41 11, 74.44 14.69, 67.21 15.97 C59.98 17.26, 46.99 17.41, 37.96 17.03 C28.92 16.65, 19.38 15.1, 13 13.7 C6.63 12.3, 0.93 10.51, -0.3 8.63 C-1.54 6.75, 0.6 3.6, 5.61 2.41 C10.63 1.23, 21.04 1.58, 29.77 1.51 C38.5 1.45, 53.63 2.24, 57.97 2.02 C62.32 1.79, 56 0.12, 55.82 0.17" stroke="#9c36b5" stroke-width="1" fill="none"></path></g><g transform="translate(1007.2001837724755 344.4098805101556) rotate(0 18.657894134521484 15.586240366857282)"><text x="18.657894134521484" y="0" font-family="Helvetica, Segoe UI Emoji" font-size="13.553252492919386px" fill="#9c36b5" text-anchor="middle" style="white-space: pre;" direction="ltr" dominant-baseline="text-before-edge">ledger</text><text x="18.657894134521484" y="15.586240366857293" font-family="Helvetica, Segoe UI Emoji" font-size="13.553252492919386px" fill="#9c36b5" text-anchor="middle" style="white-space: pre;" direction="ltr" dominant-baseline="text-before-edge">data</text></g><g transform="translate(997.2373114137844 402.69828913574315) rotate(0 26.144737243652344 11.999016557744142)"><text x="26.144737243652344" y="0" font-family="Helvetica, Segoe UI Emoji" font-size="10.433927441516644px" fill="#9c36b5" text-anchor="middle" style="white-space: pre;" direction="ltr" dominant-baseline="text-before-edge">TigerBeetle</text><text x="26.144737243652344" y="11.99901655774414" font-family="Helvetica, Segoe UI Emoji" font-size="10.433927441516644px" fill="#9c36b5" text-anchor="middle" style="white-space: pre;" direction="ltr" dominant-baseline="text-before-edge">DB</text></g><g stroke-linecap="round"><g transform="translate(986.701918444718 80.37332934418231) rotate(0 41.4023982075571 45.488747877367885)" fill-rule="evenodd"><path d="M-1.33 -1.85 L0.67 91.35 L2.19 94.24 L17.64 96.56 L45.83 99.62 L67.09 95.77 L82.1 90.59 L83.88 -1.05 L83.86 -1 L80.02 -0.75 L71.22 -5.15 L42.02 -9.38 L12.1 -3.88 L1.83 -4.3 L1.17 -1.76" stroke="none" stroke-width="0" fill="#ced4da" fill-rule="evenodd"></path><path d="M0.46 -0.09 C0.56 13.32, 1.29 66.41, 1.38 81.31 C1.47 96.2, 0.33 87.18, 0.97 89.29 C1.62 91.41, 2.22 92.44, 5.25 93.99 C8.27 95.54, 12.69 98.04, 19.12 98.59 C25.55 99.14, 35.77 97.51, 43.83 97.29 C51.89 97.06, 61.5 98.17, 67.48 97.25 C73.47 96.33, 77.1 93.24, 79.75 91.76 C82.4 90.28, 82.78 90.01, 83.38 88.36 C83.97 86.71, 83.26 95.31, 83.33 81.86 C83.39 68.42, 84.14 21.22, 83.75 7.69 C83.37 -5.85, 82.22 2.47, 81.02 0.64 C79.83 -1.19, 79.05 -1.97, 76.57 -3.28 C74.09 -4.59, 72.12 -6.56, 66.16 -7.24 C60.19 -7.92, 48.55 -7.24, 40.8 -7.37 C33.05 -7.51, 25.7 -8.85, 19.65 -8.07 C13.61 -7.28, 7.94 -4.05, 4.5 -2.66 C1.07 -1.28, -0.18 -0.09, -0.95 0.26 C-1.71 0.61, -0.18 -0.44, -0.11 -0.58 M-0.76 -1.18 C-0.78 11.79, 0.77 64.19, 1.01 79.42 C1.26 94.65, -0.12 87.59, 0.71 90.2 C1.54 92.81, 3.18 94.1, 6.01 95.06 C8.84 96.01, 11.16 95.24, 17.67 95.94 C24.18 96.65, 36.72 99.25, 45.07 99.29 C53.43 99.32, 61.68 96.94, 67.81 96.14 C73.93 95.35, 79.44 95.55, 81.82 94.54 C84.21 93.53, 81.69 92.28, 82.11 90.08 C82.53 87.88, 84.53 95.43, 84.34 81.34 C84.15 67.24, 81.27 18.92, 80.99 5.49 C80.7 -7.95, 83.37 2.23, 82.64 0.72 C81.92 -0.79, 79.46 -2.15, 76.63 -3.57 C73.81 -4.99, 71.56 -7.15, 65.7 -7.77 C59.84 -8.4, 48.97 -7.42, 41.47 -7.32 C33.97 -7.22, 26.97 -7.54, 20.69 -7.18 C14.4 -6.82, 7.04 -6.48, 3.75 -5.16 C0.46 -3.83, 1.84 0.03, 0.96 0.79 C0.07 1.54, -1.34 -0.67, -1.55 -0.63" stroke="#9c36b5" stroke-width="1" fill="none"></path></g></g><mask></mask><g stroke-linecap="round" transform="translate(985.0180158170559 72.70347602533624) rotate(0 41.18548365752133 8.329454218617641)"><path d="M27.29 1.23 C35.15 0.28, 48.48 -0.92, 56.73 -0.31 C64.97 0.29, 72.76 3.18, 76.76 4.87 C80.76 6.56, 82.26 8.14, 80.75 9.83 C79.23 11.52, 74.27 13.74, 67.67 15 C61.07 16.26, 50.06 17.61, 41.14 17.39 C32.22 17.17, 20.79 15.14, 14.16 13.69 C7.54 12.23, 2.87 10.15, 1.39 8.65 C-0.09 7.14, -0.53 6.06, 5.29 4.65 C11.1 3.25, 29.39 0.91, 36.26 0.22 C43.14 -0.48, 46.38 0.43, 46.53 0.48 M58.93 0.43 C66.89 1.25, 73.92 4.5, 77.51 5.93 C81.09 7.35, 82.31 7.36, 80.44 8.99 C78.56 10.61, 73.05 14.33, 66.26 15.69 C59.47 17.05, 48.37 17.34, 39.68 17.17 C31 16.99, 20.77 15.7, 14.16 14.63 C7.55 13.56, 1.08 12.66, 0.01 10.75 C-1.06 8.83, 2.69 4.71, 7.72 3.12 C12.76 1.54, 22.14 1.55, 30.23 1.21 C38.32 0.87, 51.71 0.97, 56.28 1.09 C60.84 1.21, 57.69 1.93, 57.6 1.94" stroke="none" stroke-width="0" fill="#fff"></path><path d="M57.16 0.68 C65.36 1.06, 74.97 2.77, 78.83 4.27 C82.69 5.77, 82.42 8.05, 80.35 9.68 C78.28 11.32, 73.42 12.82, 66.41 14.09 C59.39 15.35, 47.26 17.17, 38.24 17.29 C29.21 17.41, 18.6 15.99, 12.26 14.82 C5.92 13.65, 1.01 12.27, 0.2 10.27 C-0.62 8.27, 2.41 4.51, 7.36 2.81 C12.31 1.12, 19.98 0.23, 29.88 0.1 C39.78 -0.02, 59.74 1.46, 66.75 2.06 C73.76 2.67, 72.34 3.68, 71.95 3.73 M28.38 0.73 C36.05 -0.15, 49.32 -0.56, 57.49 -0.03 C65.67 0.49, 73.65 2.4, 77.43 3.89 C81.22 5.38, 82.08 6.84, 80.23 8.89 C78.38 10.94, 73.15 14.66, 66.34 16.18 C59.54 17.69, 48.5 18.41, 39.4 18 C30.29 17.59, 18.04 15.03, 11.73 13.72 C5.42 12.41, 2.46 11.92, 1.52 10.13 C0.59 8.34, 1.49 4.68, 6.1 2.96 C10.72 1.24, 25.13 0.19, 29.21 -0.2 C33.29 -0.59, 30.13 0.5, 30.58 0.63" stroke="#9c36b5" stroke-width="1" fill="none"></path></g><g transform="translate(992.0282173494035 124.59462590334252) rotate(0 31.052631378173828 15.586240366857297)"><text x="31.052631378173828" y="0" font-family="Helvetica, Segoe UI Emoji" font-size="13.553252492919386px" fill="#9c36b5" text-anchor="middle" style="white-space: pre;" direction="ltr" dominant-baseline="text-before-edge">settlement</text><text x="31.052631378173828" y="15.586240366857293" font-family="Helvetica, Segoe UI Emoji" font-size="13.553252492919386px" fill="#9c36b5" text-anchor="middle" style="white-space: pre;" direction="ltr" dominant-baseline="text-before-edge">data</text></g><g transform="translate(1004.354686822382 186.1219657353563) rotate(0 22.8157901763916 5.999508278872071)"><text x="22.8157901763916" y="0" font-family="Helvetica, Segoe UI Emoji" font-size="10.433927441516644px" fill="#9c36b5" text-anchor="middle" style="white-space: pre;" direction="ltr" dominant-baseline="text-before-edge">MongoDB</text></g><g stroke-linecap="round"><g transform="translate(709.434067898333 212.6671750767341) rotate(0 27.161316282278563 -0.690458171069622)"><path d="M-1.01 0.48 C17.8 -0.51, 32.15 -1.73, 55.33 -1.86 M0.03 0.17 C16.77 0.1, 35.9 -0.36, 54.35 -0.46" stroke="#6741d9" stroke-width="1" fill="none"></path></g><g transform="translate(709.434067898333 212.6671750767341) rotate(0 27.161316282278563 -0.690458171069622)"><path d="M0.29 1.23 L11.08 -6.42 L11.29 6.04 L-1.7 1.68" stroke="none" stroke-width="0" fill="#6741d9" fill-rule="evenodd"></path><path d="M-1.76 0.84 C3.97 -1.94, 6.38 -4.96, 12.52 -7.96 M-0.99 0.61 C2.6 -1.71, 8.01 -4.3, 11.79 -6.91 M12.59 -6.34 C12.04 -2.8, 11.47 -1.32, 11.91 4.89 M12.19 -6.77 C12.42 -2.81, 11.98 1.01, 13.3 5.64 M13.98 6.79 C8.42 4.56, 2.27 3.06, -2.27 1.82 M12.42 6.69 C7.59 4.69, 3.52 2.75, -0.72 -0.17 M-1.01 0.48 C-1.01 0.48, -1.01 0.48, -1.01 0.48 M-1.01 0.48 C-1.01 0.48, -1.01 0.48, -1.01 0.48" stroke="#6741d9" stroke-width="1" fill="none"></path></g><g transform="translate(709.434067898333 212.6671750767341) rotate(0 27.161316282278563 -0.690458171069622)"><path d="M55.65 0.28 L39.67 6.16 L39.08 -6.73 L53.66 0.73" stroke="none" stroke-width="0" fill="#6741d9" fill-rule="evenodd"></path><path d="M53.6 -0.1 C51.38 1.21, 45.81 2.23, 41.11 4.62 M54.38 -0.34 C49.45 1.66, 46.3 3.38, 40.37 5.67 M41.18 6.24 C40.56 3.66, 39.8 -0.96, 39.7 -7.88 M40.78 5.8 C40.97 1.99, 40.29 -1.96, 41.09 -7.13 M41.78 -5.97 C46.28 -3.71, 50.1 -0.93, 53.09 0.87 M40.22 -6.08 C45.1 -4.02, 50.78 -1.78, 54.64 -1.11 M54.35 -0.46 C54.35 -0.46, 54.35 -0.46, 54.35 -0.46 M54.35 -0.46 C54.35 -0.46, 54.35 -0.46, 54.35 -0.46" stroke="#6741d9" stroke-width="1" fill="none"></path></g></g><mask></mask></svg>