<?xml version="1.0" encoding="us-ascii" standalone="no"?><svg xmlns="http://www.w3.org/2000/svg" xmlns:xlink="http://www.w3.org/1999/xlink" contentStyleType="text/css" height="1353px" preserveAspectRatio="none" style="width:1279px;height:1353px;background:#FFFFFF;" version="1.1" viewBox="0 0 1279 1353" width="1279px" zoomAndPan="magnify"><defs><linearGradient id="gy38zenws6e630" x1="50%" x2="50%" y1="0%" y2="100%"><stop offset="0%" stop-color="#00FFFF"/><stop offset="100%" stop-color="#5F9EA0"/></linearGradient></defs><g><rect fill="url(#gy38zenws6e630)" height="64.4799" id="_title" rx="7.5" ry="7.5" style="stroke:url(#gy38zenws6e630);stroke-width:2.0;" width="272" x="502" y="10"/><text fill="#000000" font-family="sans-serif" font-size="20" font-weight="bold" lengthAdjust="spacing" textLength="257" x="507" y="36.38">Settlement Transfer from</text><text fill="#000000" font-family="sans-serif" font-size="20" font-weight="bold" lengthAdjust="spacing" textLength="126" x="575" y="63.62">Transfers BC</text><rect fill="#F9FFF9" height="1258.9645" style="stroke:#181818;stroke-width:0.5;" width="735.5" x="191.5" y="81.4799"/><text fill="#000000" font-family="sans-serif" font-size="13" font-weight="bold" lengthAdjust="spacing" textLength="101" x="507.25" y="95.377">Settlements BC</text><rect fill="#FFFFF9" height="1258.9645" style="stroke:#181818;stroke-width:0.5;" width="328.5" x="929" y="81.4799"/><text fill="#000000" font-family="sans-serif" font-size="13" font-weight="bold" lengthAdjust="spacing" textLength="213" x="985.25" y="95.377">Settlements-BC - Ledger Adapter</text><rect fill="none" height="243.3541" style="stroke:#000000;stroke-width:1.5;" width="577" x="36" y="406.902"/><rect fill="none" height="591.1203" style="stroke:#000000;stroke-width:1.5;" width="1227.5" x="36" y="664.2562"/><line style="stroke:#181818;stroke-width:0.5;stroke-dasharray:5.0,5.0;" x1="96" x2="96" y1="168.2539" y2="1272.3765"/><line style="stroke:#181818;stroke-width:0.5;stroke-dasharray:5.0,5.0;" x1="307.5" x2="307.5" y1="168.2539" y2="1272.3765"/><line style="stroke:#181818;stroke-width:0.5;stroke-dasharray:5.0,5.0;" x1="545" x2="545" y1="168.2539" y2="1272.3765"/><line style="stroke:#181818;stroke-width:0.5;stroke-dasharray:5.0,5.0;" x1="846" x2="846" y1="168.2539" y2="1272.3765"/><line style="stroke:#181818;stroke-width:0.5;stroke-dasharray:5.0,5.0;" x1="968" x2="968" y1="168.2539" y2="1272.3765"/><line style="stroke:#181818;stroke-width:0.5;stroke-dasharray:5.0,5.0;" x1="1210.5" x2="1210.5" y1="168.2539" y2="1272.3765"/><rect fill="#E2E2F0" height="33.0679" rx="2.5" ry="2.5" style="stroke:#181818;stroke-width:0.5;" width="100" x="46" y="134.186"/><text fill="#000000" font-family="sans-serif" font-size="14" lengthAdjust="spacing" textLength="86" x="53" y="156.1519">Transfers BC</text><rect fill="#E2E2F0" height="33.0679" rx="2.5" ry="2.5" style="stroke:#181818;stroke-width:0.5;" width="100" x="46" y="1271.3765"/><text fill="#000000" font-family="sans-serif" font-size="14" lengthAdjust="spacing" textLength="86" x="53" y="1293.3424">Transfers BC</text><rect fill="#D5E8D4" height="33.0679" rx="2.5" ry="2.5" style="stroke:#181818;stroke-width:0.5;" width="225" x="195.5" y="134.186"/><text fill="#000000" font-family="sans-serif" font-size="14" lengthAdjust="spacing" textLength="211" x="202.5" y="156.1519">Settlements Command Handler</text><rect fill="#D5E8D4" height="33.0679" rx="2.5" ry="2.5" style="stroke:#181818;stroke-width:0.5;" width="225" x="195.5" y="1271.3765"/><text fill="#000000" font-family="sans-serif" font-size="14" lengthAdjust="spacing" textLength="211" x="202.5" y="1293.3424">Settlements Command Handler</text><rect fill="#EDC54D" height="52.1358" rx="2.5" ry="2.5" style="stroke:#181818;stroke-width:0.5;" width="116" x="487" y="115.118"/><text fill="#000000" font-family="sans-serif" font-size="14" lengthAdjust="spacing" textLength="102" x="494" y="137.084">Settlements BC</text><text fill="#000000" font-family="sans-serif" font-size="14" lengthAdjust="spacing" textLength="66" x="512" y="156.1519">App Logic</text><rect fill="#EDC54D" height="52.1358" rx="2.5" ry="2.5" style="stroke:#181818;stroke-width:0.5;" width="116" x="487" y="1271.3765"/><text fill="#000000" font-family="sans-serif" font-size="14" lengthAdjust="spacing" textLength="102" x="494" y="1293.3424">Settlements BC</text><text fill="#000000" font-family="sans-serif" font-size="14" lengthAdjust="spacing" textLength="66" x="512" y="1312.4103">App Logic</text><text fill="#000000" font-family="sans-serif" font-size="14" lengthAdjust="spacing" textLength="148" x="769" y="164.1519">Settlements-Database</text><path d="M828,113.186 C828,103.186 846,103.186 846,103.186 C846,103.186 864,103.186 864,113.186 L864,139.186 C864,149.186 846,149.186 846,149.186 C846,149.186 828,149.186 828,139.186 L828,113.186 " fill="#DAE8FC" style="stroke:#181818;stroke-width:1.5;"/><path d="M828,113.186 C828,123.186 846,123.186 846,123.186 C846,123.186 864,123.186 864,113.186 " fill="none" style="stroke:#181818;stroke-width:1.5;"/><text fill="#000000" font-family="sans-serif" font-size="14" lengthAdjust="spacing" textLength="148" x="769" y="1286.3424">Settlements-Database</text><path d="M828,1300.4444 C828,1290.4444 846,1290.4444 846,1290.4444 C846,1290.4444 864,1290.4444 864,1300.4444 L864,1326.4444 C864,1336.4444 846,1336.4444 846,1336.4444 C846,1336.4444 828,1336.4444 828,1326.4444 L828,1300.4444 " fill="#DAE8FC" style="stroke:#181818;stroke-width:1.5;"/><path d="M828,1300.4444 C828,1310.4444 846,1310.4444 846,1310.4444 C846,1310.4444 864,1310.4444 864,1300.4444 " fill="none" style="stroke:#181818;stroke-width:1.5;"/><rect fill="#D5E8D4" height="33.0679" rx="2.5" ry="2.5" style="stroke:#181818;stroke-width:0.5;" width="71" x="933" y="134.186"/><text fill="#000000" font-family="sans-serif" font-size="14" lengthAdjust="spacing" textLength="57" x="940" y="156.1519">A&amp;B SVC</text><rect fill="#D5E8D4" height="33.0679" rx="2.5" ry="2.5" style="stroke:#181818;stroke-width:0.5;" width="71" x="933" y="1271.3765"/><text fill="#000000" font-family="sans-serif" font-size="14" lengthAdjust="spacing" textLength="57" x="940" y="1293.3424">A&amp;B SVC</text><text fill="#000000" font-family="sans-serif" font-size="14" lengthAdjust="spacing" textLength="80" x="1167.5" y="164.1519">A&amp;B-Ledger</text><path d="M1192.5,113.186 C1192.5,103.186 1210.5,103.186 1210.5,103.186 C1210.5,103.186 1228.5,103.186 1228.5,113.186 L1228.5,139.186 C1228.5,149.186 1210.5,149.186 1210.5,149.186 C1210.5,149.186 1192.5,149.186 1192.5,139.186 L1192.5,113.186 " fill="#DAE8FC" style="stroke:#181818;stroke-width:1.5;"/><path d="M1192.5,113.186 C1192.5,123.186 1210.5,123.186 1210.5,123.186 C1210.5,123.186 1228.5,123.186 1228.5,113.186 " fill="none" style="stroke:#181818;stroke-width:1.5;"/><text fill="#000000" font-family="sans-serif" font-size="14" lengthAdjust="spacing" textLength="80" x="1167.5" y="1286.3424">A&amp;B-Ledger</text><path d="M1192.5,1300.4444 C1192.5,1290.4444 1210.5,1290.4444 1210.5,1290.4444 C1210.5,1290.4444 1228.5,1290.4444 1228.5,1300.4444 L1228.5,1326.4444 C1228.5,1336.4444 1210.5,1336.4444 1210.5,1336.4444 C1210.5,1336.4444 1192.5,1336.4444 1192.5,1326.4444 L1192.5,1300.4444 " fill="#DAE8FC" style="stroke:#181818;stroke-width:1.5;"/><path d="M1192.5,1300.4444 C1192.5,1310.4444 1210.5,1310.4444 1210.5,1310.4444 C1210.5,1310.4444 1228.5,1310.4444 1228.5,1300.4444 " fill="none" style="stroke:#181818;stroke-width:1.5;"/><path d="M5,183.2539 L5,228.2539 L188,228.2539 L188,193.2539 L178,183.2539 L5,183.2539 " fill="#FEFFDD" style="stroke:#181818;stroke-width:0.5;"/><path d="M178,183.2539 L178,193.2539 L188,193.2539 L178,183.2539 " fill="#FEFFDD" style="stroke:#181818;stroke-width:0.5;"/><text fill="#000000" font-family="sans-serif" font-size="13" font-style="italic" lengthAdjust="spacing" textLength="162" x="11" y="202.1509">TransferPreparedEvtPayload</text><text fill="#000000" font-family="sans-serif" font-size="13" lengthAdjust="spacing" textLength="96" x="11" y="219.8569">event published</text><path d="M197,238.6659 L197,283.6659 L419,283.6659 L419,248.6659 L409,238.6659 L197,238.6659 " fill="#FEFFDD" style="stroke:#181818;stroke-width:0.5;"/><path d="M409,238.6659 L409,248.6659 L419,248.6659 L409,238.6659 " fill="#FEFFDD" style="stroke:#181818;stroke-width:0.5;"/><text fill="#000000" font-family="sans-serif" font-size="13" font-style="italic" lengthAdjust="spacing" textLength="162" x="203" y="257.5629">TransferPreparedEvtPayload</text><text fill="#000000" font-family="sans-serif" font-size="13" lengthAdjust="spacing" textLength="201" x="203" y="275.2689">consumer for Settlement Transfer</text><path d="M896,294.0779 L896,339.0779 L1040,339.0779 L1040,304.0779 L1030,294.0779 L896,294.0779 " fill="#FEFFDD" style="stroke:#181818;stroke-width:0.5;"/><path d="M1030,294.0779 L1030,304.0779 L1040,304.0779 L1030,294.0779 " fill="#FEFFDD" style="stroke:#181818;stroke-width:0.5;"/><text fill="#000000" font-family="sans-serif" font-size="13" lengthAdjust="spacing" textLength="107" x="902" y="312.975">gRPC interface for</text><text fill="#000000" font-family="sans-serif" font-size="13" lengthAdjust="spacing" textLength="123" x="902" y="330.681">Accounts &amp; Balances</text><path d="M1148,349.49 L1148,394.49 L1272,394.49 L1272,359.49 L1262,349.49 L1148,349.49 " fill="#FEFFDD" style="stroke:#181818;stroke-width:0.5;"/><path d="M1262,349.49 L1262,359.49 L1272,359.49 L1262,349.49 " fill="#FEFFDD" style="stroke:#181818;stroke-width:0.5;"/><text fill="#000000" font-family="sans-serif" font-size="13" lengthAdjust="spacing" textLength="67" x="1154" y="368.387">TigerBeetle</text><text fill="#000000" font-family="sans-serif" font-size="13" lengthAdjust="spacing" textLength="103" x="1154" y="386.093">enabled/disabled</text><path d="M36,406.902 L368,406.902 L368,416.608 L358,426.608 L36,426.608 L36,406.902 " fill="#EEEEEE" style="stroke:#000000;stroke-width:1.5;"/><rect fill="none" height="243.3541" style="stroke:#000000;stroke-width:1.5;" width="577" x="36" y="406.902"/><text fill="#000000" font-family="sans-serif" font-size="13" font-weight="bold" lengthAdjust="spacing" textLength="287" x="51" y="421.799">1. Create Settlement Transfer - Transfers BC</text><line style="stroke:#181818;stroke-width:1.0;stroke-dasharray:2.0,2.0;" x1="96" x2="138" y1="450.314" y2="450.314"/><line style="stroke:#181818;stroke-width:1.0;stroke-dasharray:2.0,2.0;" x1="138" x2="138" y1="450.314" y2="463.314"/><line style="stroke:#181818;stroke-width:1.0;stroke-dasharray:2.0,2.0;" x1="97" x2="138" y1="463.314" y2="463.314"/><polygon fill="#181818" points="106,446.314,96,450.314,106,454.314,102,450.314" style="stroke:#181818;stroke-width:1.0;"/><polygon fill="#181818" points="107,459.314,97,463.314,107,467.314,103,463.314" style="stroke:#181818;stroke-width:1.0;"/><text fill="#000000" font-family="sans-serif" font-size="13" font-weight="bold" lengthAdjust="spacing" textLength="7" x="103" y="444.505">1</text><text fill="#000000" font-family="sans-serif" font-size="13" lengthAdjust="spacing" textLength="133" x="114" y="444.505">Transfer fulfil occurred</text><line style="stroke:#181818;stroke-width:1.0;stroke-dasharray:2.0,2.0;" x1="96" x2="138" y1="512.7261" y2="512.7261"/><line style="stroke:#181818;stroke-width:1.0;stroke-dasharray:2.0,2.0;" x1="138" x2="138" y1="512.7261" y2="525.7261"/><line style="stroke:#181818;stroke-width:1.0;stroke-dasharray:2.0,2.0;" x1="97" x2="138" y1="525.7261" y2="525.7261"/><polygon fill="#181818" points="106,508.7261,96,512.7261,106,516.7261,102,512.7261" style="stroke:#181818;stroke-width:1.0;"/><polygon fill="#181818" points="107,521.7261,97,525.7261,107,529.7261,103,525.7261" style="stroke:#181818;stroke-width:1.0;"/><text fill="#000000" font-family="sans-serif" font-size="13" font-weight="bold" lengthAdjust="spacing" textLength="7" x="103" y="498.0641">2</text><text fill="#000000" font-family="sans-serif" font-size="13" lengthAdjust="spacing" textLength="151" x="114" y="489.2111">Obtain Settlement model</text><text fill="#000000" font-family="sans-serif" font-size="13" lengthAdjust="spacing" textLength="17" x="114" y="506.9171">via</text><text fill="#000000" font-family="sans-serif" font-size="13" font-style="italic" lengthAdjust="spacing" textLength="115" x="134" y="506.9171">settlement-model-lib</text><polygon fill="#181818" points="296,571.1381,306,575.1381,296,579.1381,300,575.1381" style="stroke:#181818;stroke-width:1.0;"/><line style="stroke:#181818;stroke-width:1.0;" x1="96" x2="302" y1="575.1381" y2="575.1381"/><text fill="#000000" font-family="sans-serif" font-size="13" font-weight="bold" lengthAdjust="spacing" textLength="7" x="103" y="560.4761">3</text><text fill="#000000" font-family="sans-serif" font-size="13" lengthAdjust="spacing" textLength="89" x="114" y="551.6231">At time of fulfil:</text><text fill="#000000" font-family="sans-serif" font-size="13" font-style="italic" lengthAdjust="spacing" textLength="44" x="203" y="551.6231">publish</text><text fill="#000000" font-family="sans-serif" font-size="13" font-style="italic" font-weight="bold" lengthAdjust="spacing" textLength="177" x="114" y="569.3291">TransferPreparedEvtPayload</text><polygon fill="#181818" points="533,638.2562,543,642.2562,533,646.2562,537,642.2562" style="stroke:#181818;stroke-width:1.0;"/><line style="stroke:#181818;stroke-width:1.0;stroke-dasharray:2.0,2.0;" x1="308" x2="539" y1="642.2562" y2="642.2562"/><text fill="#000000" font-family="sans-serif" font-size="13" font-weight="bold" lengthAdjust="spacing" textLength="7" x="315" y="618.7411">4</text><text fill="#000000" font-family="sans-serif" font-size="13" font-style="italic" lengthAdjust="spacing" textLength="162" x="326" y="601.0351">TransferPreparedEvtPayload</text><text fill="#000000" font-family="sans-serif" font-size="13" lengthAdjust="spacing" textLength="148" x="329" y="618.7411">consumed and App layer</text><text fill="#000000" font-family="sans-serif" font-size="13" lengthAdjust="spacing" textLength="55" x="326" y="636.4472">invoked (</text><text fill="#000000" font-family="sans-serif" font-size="13" lengthAdjust="spacing" text-decoration="underline" textLength="62" x="381" y="636.4472">aggregate</text><text fill="#000000" font-family="sans-serif" font-size="13" lengthAdjust="spacing" textLength="4" x="443" y="636.4472">)</text><text fill="#000000" font-family="sans-serif" font-size="13" font-style="italic" font-weight="bold" lengthAdjust="spacing" textLength="78" x="450" y="636.4472">ITransferDto</text><path d="M36,664.2562 L242,664.2562 L242,673.9622 L232,683.9622 L36,683.9622 L36,664.2562 " fill="#EEEEEE" style="stroke:#000000;stroke-width:1.5;"/><rect fill="none" height="591.1203" style="stroke:#000000;stroke-width:1.5;" width="1227.5" x="36" y="664.2562"/><text fill="#000000" font-family="sans-serif" font-size="13" font-weight="bold" lengthAdjust="spacing" textLength="161" x="51" y="679.1532">2. Settlement - App Logic</text><line style="stroke:#181818;stroke-width:1.0;stroke-dasharray:2.0,2.0;" x1="545" x2="587" y1="707.6682" y2="707.6682"/><line style="stroke:#181818;stroke-width:1.0;stroke-dasharray:2.0,2.0;" x1="587" x2="587" y1="707.6682" y2="720.6682"/><line style="stroke:#181818;stroke-width:1.0;stroke-dasharray:2.0,2.0;" x1="546" x2="587" y1="720.6682" y2="720.6682"/><polygon fill="#181818" points="555,703.6682,545,707.6682,555,711.6682,551,707.6682" style="stroke:#181818;stroke-width:1.0;"/><polygon fill="#181818" points="556,716.6682,546,720.6682,556,724.6682,552,720.6682" style="stroke:#181818;stroke-width:1.0;"/><text fill="#000000" font-family="sans-serif" font-size="13" font-weight="bold" lengthAdjust="spacing" textLength="7" x="552" y="701.8592">1</text><text fill="#000000" font-family="sans-serif" font-size="13" lengthAdjust="spacing" textLength="214" x="563" y="701.8592">Settlement Transfer event triggered</text><line style="stroke:#181818;stroke-width:1.0;stroke-dasharray:2.0,2.0;" x1="545" x2="587" y1="752.3742" y2="752.3742"/><line style="stroke:#181818;stroke-width:1.0;stroke-dasharray:2.0,2.0;" x1="587" x2="587" y1="752.3742" y2="765.3742"/><line style="stroke:#181818;stroke-width:1.0;stroke-dasharray:2.0,2.0;" x1="546" x2="587" y1="765.3742" y2="765.3742"/><polygon fill="#181818" points="556,761.3742,546,765.3742,556,769.3742,552,765.3742" style="stroke:#181818;stroke-width:1.0;"/><text fill="#000000" font-family="sans-serif" font-size="13" font-weight="bold" lengthAdjust="spacing" textLength="7" x="552" y="746.5652">2</text><text fill="#000000" font-family="sans-serif" font-size="13" lengthAdjust="spacing" textLength="198" x="563" y="746.5652">Validate settlement Transfer data</text><polygon fill="#181818" points="556,810.7862,546,814.7862,556,818.7862,552,814.7862" style="stroke:#181818;stroke-width:1.0;"/><polygon fill="#181818" points="834,810.7862,844,814.7862,834,818.7862,838,814.7862" style="stroke:#181818;stroke-width:1.0;"/><line style="stroke:#181818;stroke-width:1.0;stroke-dasharray:2.0,2.0;" x1="550" x2="840" y1="814.7862" y2="814.7862"/><text fill="#000000" font-family="sans-serif" font-size="13" font-weight="bold" lengthAdjust="spacing" textLength="7" x="562" y="800.1242">3</text><text fill="#000000" font-family="sans-serif" font-size="13" lengthAdjust="spacing" textLength="191" x="573" y="791.2712">Fetch &amp; cache settlement config</text><text fill="#000000" font-family="sans-serif" font-size="13" font-weight="bold" lengthAdjust="spacing" textLength="123" x="573" y="808.9772">Platform Config BC</text><polygon fill="#181818" points="556,860.1983,546,864.1983,556,868.1983,552,864.1983" style="stroke:#181818;stroke-width:1.0;"/><polygon fill="#181818" points="834,860.1983,844,864.1983,834,868.1983,838,864.1983" style="stroke:#181818;stroke-width:1.0;"/><line style="stroke:#181818;stroke-width:1.0;stroke-dasharray:2.0,2.0;" x1="550" x2="840" y1="864.1983" y2="864.1983"/><text fill="#000000" font-family="sans-serif" font-size="13" font-weight="bold" lengthAdjust="spacing" textLength="7" x="562" y="849.5363">4</text><text fill="#000000" font-family="sans-serif" font-size="13" font-weight="bold" lengthAdjust="spacing" textLength="113" x="573" y="840.6833">Determine batch</text><text fill="#000000" font-family="sans-serif" font-size="13" lengthAdjust="spacing" textLength="33" x="689" y="840.6833">using</text><text fill="#000000" font-family="sans-serif" font-size="13" font-style="italic" font-weight="bold" lengthAdjust="spacing" textLength="78" x="725" y="840.6833">ITransferDto</text><text fill="#000000" font-family="sans-serif" font-size="13" lengthAdjust="spacing" textLength="3" x="803" y="840.6833">.</text><text fill="#000000" font-family="sans-serif" font-size="13" font-style="italic" lengthAdjust="spacing" textLength="126" x="573" y="858.3893">Create new batch if no</text><text fill="#000000" font-family="sans-serif" font-size="13" font-style="italic" font-weight="bold" lengthAdjust="spacing" textLength="34" x="702" y="858.3893">OPEN</text><text fill="#000000" font-family="sans-serif" font-size="13" font-style="italic" lengthAdjust="spacing" textLength="86" x="739" y="858.3893">batch available</text><polygon fill="#181818" points="556,891.9043,546,895.9043,556,899.9043,552,895.9043" style="stroke:#181818;stroke-width:1.0;"/><polygon fill="#181818" points="956.5,891.9043,966.5,895.9043,956.5,899.9043,960.5,895.9043" style="stroke:#181818;stroke-width:1.0;"/><line style="stroke:#181818;stroke-width:1.0;" x1="550" x2="962.5" y1="895.9043" y2="895.9043"/><text fill="#000000" font-family="sans-serif" font-size="13" font-weight="bold" lengthAdjust="spacing" textLength="7" x="562" y="890.0953">5</text><text fill="#000000" font-family="sans-serif" font-size="13" lengthAdjust="spacing" textLength="41" x="573" y="890.0953">Obtain</text><text fill="#000000" font-family="sans-serif" font-size="13" font-weight="bold" lengthAdjust="spacing" textLength="138" x="617" y="890.0953">Settlement accounts</text><text fill="#000000" font-family="sans-serif" font-size="13" lengthAdjust="spacing" textLength="152" x="758" y="890.0953">using Participant account</text><polygon fill="#181818" points="979.5,923.6103,969.5,927.6103,979.5,931.6103,975.5,927.6103" style="stroke:#181818;stroke-width:1.0;"/><polygon fill="#181818" points="1198.5,923.6103,1208.5,927.6103,1198.5,931.6103,1202.5,927.6103" style="stroke:#181818;stroke-width:1.0;"/><line style="stroke:#181818;stroke-width:1.0;stroke-dasharray:2.0,2.0;" x1="973.5" x2="1204.5" y1="927.6103" y2="927.6103"/><text fill="#000000" font-family="sans-serif" font-size="13" font-weight="bold" lengthAdjust="spacing" textLength="7" x="985.5" y="921.8013">6</text><text fill="#000000" font-family="sans-serif" font-size="13" lengthAdjust="spacing" textLength="174" x="996.5" y="921.8013">Create account, if none exists</text><polygon fill="#181818" points="556,955.3163,546,959.3163,556,963.3163,552,959.3163" style="stroke:#181818;stroke-width:1.0;"/><polygon fill="#181818" points="834,955.3163,844,959.3163,834,963.3163,838,959.3163" style="stroke:#181818;stroke-width:1.0;"/><line style="stroke:#181818;stroke-width:1.0;stroke-dasharray:2.0,2.0;" x1="550" x2="840" y1="959.3163" y2="959.3163"/><text fill="#000000" font-family="sans-serif" font-size="13" font-weight="bold" lengthAdjust="spacing" textLength="7" x="562" y="953.5073">7</text><text fill="#000000" font-family="sans-serif" font-size="13" lengthAdjust="spacing" textLength="88" x="573" y="953.5073">Create or fetch</text><text fill="#000000" font-family="sans-serif" font-size="13" font-weight="bold" lengthAdjust="spacing" textLength="175" x="664" y="953.5073">Settlement Batch Account</text><polygon fill="#181818" points="556,987.0223,546,991.0223,556,995.0223,552,991.0223" style="stroke:#181818;stroke-width:1.0;"/><line style="stroke:#181818;stroke-width:1.0;" x1="550" x2="967.5" y1="991.0223" y2="991.0223"/><text fill="#000000" font-family="sans-serif" font-size="13" font-weight="bold" lengthAdjust="spacing" textLength="7" x="562" y="985.2133">8</text><text fill="#000000" font-family="sans-serif" font-size="13" lengthAdjust="spacing" textLength="41" x="573" y="985.2133">Return</text><text fill="#000000" font-family="sans-serif" font-size="13" font-weight="bold" lengthAdjust="spacing" textLength="55" x="617" y="985.2133">Account</text><text fill="#000000" font-family="sans-serif" font-size="13" lengthAdjust="spacing" textLength="23" x="675" y="985.2133">info</text><polygon fill="#181818" points="956.5,1018.7284,966.5,1022.7284,956.5,1026.7284,960.5,1022.7284" style="stroke:#181818;stroke-width:1.0;"/><line style="stroke:#181818;stroke-width:1.0;" x1="545" x2="962.5" y1="1022.7284" y2="1022.7284"/><text fill="#000000" font-family="sans-serif" font-size="13" font-weight="bold" lengthAdjust="spacing" textLength="7" x="552" y="1016.9194">9</text><text fill="#000000" font-family="sans-serif" font-size="13" lengthAdjust="spacing" textLength="160" x="563" y="1016.9194">Create Settlement Transfer</text><polygon fill="#181818" points="979.5,1068.1404,969.5,1072.1404,979.5,1076.1404,975.5,1072.1404" style="stroke:#181818;stroke-width:1.0;"/><polygon fill="#181818" points="1198.5,1068.1404,1208.5,1072.1404,1198.5,1076.1404,1202.5,1072.1404" style="stroke:#181818;stroke-width:1.0;"/><line style="stroke:#181818;stroke-width:1.0;" x1="973.5" x2="1204.5" y1="1072.1404" y2="1072.1404"/><text fill="#000000" font-family="sans-serif" font-size="13" font-weight="bold" lengthAdjust="spacing" textLength="14" x="985.5" y="1057.4784">10</text><text fill="#000000" font-family="sans-serif" font-size="13" lengthAdjust="spacing" textLength="197" x="1003.5" y="1048.6254">Create Transfer: update accounts</text><text fill="#000000" font-family="sans-serif" font-size="13" lengthAdjust="spacing" textLength="141" x="1003.5" y="1066.3314">to DR payer &amp; CR payee</text><polygon fill="#181818" points="556,1099.8464,546,1103.8464,556,1107.8464,552,1103.8464" style="stroke:#181818;stroke-width:1.0;"/><line style="stroke:#181818;stroke-width:1.0;" x1="550" x2="967.5" y1="1103.8464" y2="1103.8464"/><text fill="#000000" font-family="sans-serif" font-size="13" font-weight="bold" lengthAdjust="spacing" textLength="14" x="562" y="1098.0374">11</text><text fill="#000000" font-family="sans-serif" font-size="13" lengthAdjust="spacing" textLength="41" x="580" y="1098.0374">Return</text><text fill="#000000" font-family="sans-serif" font-size="13" font-weight="bold" lengthAdjust="spacing" textLength="56" x="624" y="1098.0374">Transfer</text><text fill="#000000" font-family="sans-serif" font-size="13" lengthAdjust="spacing" textLength="75" x="683" y="1098.0374">creation info</text><line style="stroke:#181818;stroke-width:1.0;stroke-dasharray:2.0,2.0;" x1="545" x2="587" y1="1135.5524" y2="1135.5524"/><line style="stroke:#181818;stroke-width:1.0;stroke-dasharray:2.0,2.0;" x1="587" x2="587" y1="1135.5524" y2="1148.5524"/><line style="stroke:#181818;stroke-width:1.0;stroke-dasharray:2.0,2.0;" x1="546" x2="587" y1="1148.5524" y2="1148.5524"/><polygon fill="#181818" points="555,1131.5524,545,1135.5524,555,1139.5524,551,1135.5524" style="stroke:#181818;stroke-width:1.0;"/><polygon fill="#181818" points="556,1144.5524,546,1148.5524,556,1152.5524,552,1148.5524" style="stroke:#181818;stroke-width:1.0;"/><text fill="#000000" font-family="sans-serif" font-size="13" font-weight="bold" lengthAdjust="spacing" textLength="14" x="552" y="1129.7434">12</text><text fill="#000000" font-family="sans-serif" font-size="13" lengthAdjust="spacing" textLength="135" x="570" y="1129.7434">Prepare response data</text><polygon fill="#181818" points="319,1193.9645,309,1197.9645,319,1201.9645,315,1197.9645" style="stroke:#181818;stroke-width:1.0;"/><line style="stroke:#181818;stroke-width:1.0;stroke-dasharray:2.0,2.0;" x1="313" x2="544" y1="1197.9645" y2="1197.9645"/><text fill="#000000" font-family="sans-serif" font-size="13" font-weight="bold" lengthAdjust="spacing" textLength="14" x="325" y="1183.3025">13</text><text fill="#000000" font-family="sans-serif" font-size="13" lengthAdjust="spacing" textLength="41" x="343" y="1174.4494">Return</text><text fill="#000000" font-family="sans-serif" font-size="13" font-weight="bold" lengthAdjust="spacing" textLength="61" x="387" y="1174.4494">Transfer/</text><text fill="#000000" font-family="sans-serif" font-size="13" lengthAdjust="spacing" textLength="3" x="448" y="1174.4494">&#160;</text><text fill="#000000" font-family="sans-serif" font-size="13" font-weight="bold" lengthAdjust="spacing" textLength="55" x="343" y="1192.1555">Account</text><text fill="#000000" font-family="sans-serif" font-size="13" lengthAdjust="spacing" textLength="27" x="401" y="1192.1555">data</text><polygon fill="#181818" points="107,1243.3765,97,1247.3765,107,1251.3765,103,1247.3765" style="stroke:#181818;stroke-width:1.0;"/><line style="stroke:#181818;stroke-width:1.0;" x1="101" x2="307" y1="1247.3765" y2="1247.3765"/><text fill="#000000" font-family="sans-serif" font-size="13" font-weight="bold" lengthAdjust="spacing" textLength="14" x="113" y="1232.7145">14</text><text fill="#000000" font-family="sans-serif" font-size="13" lengthAdjust="spacing" textLength="44" x="131" y="1223.8615">Publish</text><text fill="#000000" font-family="sans-serif" font-size="13" font-weight="bold" lengthAdjust="spacing" textLength="61" x="178" y="1223.8615">Transfer/</text><text fill="#000000" font-family="sans-serif" font-size="13" lengthAdjust="spacing" textLength="3" x="239" y="1223.8615">&#160;</text><text fill="#000000" font-family="sans-serif" font-size="13" font-weight="bold" lengthAdjust="spacing" textLength="55" x="131" y="1241.5675">Account</text><text fill="#000000" font-family="sans-serif" font-size="13" lengthAdjust="spacing" textLength="85" x="189" y="1241.5675">response data</text><!--SRC=[bLPTRziu47okViMY0OgUK4NNe05QeIXWopPQeBWQIT0d0mP5hHGY4gaZAJUzNtzBVLcobRJrWoqlbyFPuSxQva78YcbMmfsm1MwKjBVYFuIhlpqpB5ctj5GwHNsZQfd6IalKyFPwFkVkNl07YSR0rNn2h0gbOV5lpOAOfMYNHOrdcOm_vBezRIQxoO5RjFHHehHmfvaq6R7Aj2fX9_ll1fQnvn6m5LnKZ39VZfTU0ZE0ZtPl- -0-uPvK5a4T2Eri2UWLXZt4LYD1Oxe-s2txMIYMXc6JWWT7gggJGfXxJ3sKAJXKpqlKuuYtum0Ncm-RpUQ3zs92SvmKgx9a1F6PtWhK3MkJy7skAmuNg-lr-zMxvjmZytwv2VycQ_VYIfgwT4AIwZC2j-NrvJnDUHdlvAAguAlA1Hy8iwhQ5ou25-jLVFrkvRr8cMK9CpZP7gowwB0pJQZGnVhz9cx491dFj0n8om2-OfeJ_KNAAakV5vjD8wwZFI6xUBM4s-zj1x1aJimZCyeDMjnZkXNqDK5qZTWpcrx1W3g8czziOn2IU6MCOoFniBRWdDgTb7i5IrOmoT5CjPu17t4OSEvSRDdo6e8eML9W6gR2D0zJv45GvxWAtbv2h97PUOC5CF4MgwsITPdqdN5Y6FWO19_Eez78i7MHYG8KvxNMFRFVHVcMM2Rac6UfKYnsyY0OTRmPua4J3mgHz0uz1QC31aj5iB0qXqhIEki8Hc7OsJaCTzBtdxUJxpU73811Xtxi_-WNXjp9teefEEixBnNi9-gT5FAW7YZyUhzdUQunfwlQx_y2H-fBZxcogg51TzlVwzNbMAW01dkUNkAKwSSpyj5iOxGppsgHKmDs5pb5cbFXEoj4wdhDp40w1px7Y8P211kq_9vSmnc_dy2GVfd8tMLj2sR9R2KDKXUYlXrTq5Eulhz2Scef94B2w0pVXze8cSyAVRcJOTZPHkAFTWU8Z1n6-T-swtzeUnja1oOAPyEk5Kz9V1hDew75VN-aEUjcnS1eEvfitM83VGHgQZiRN57lz6xJcvOnLOoFmbZpIv6wxJJ8ikOQ9ZINJRdTO2Ek9vHckk46RQrTiSTDGcPghfT6AaNFpAip6SvL6BRtUoAegtIaYg4_55R1weP-GSY1r6jn-uX_K54FJYLnTvnGygdQvXpNpGZGQ2gQ2_YKDuBH79ivdJeLd2EE-avm-YfEfoETtmw_Pw6ctDpa-Hy0]--></g></svg>