<?xml version="1.0" encoding="UTF-8" standalone="no"?><svg xmlns="http://www.w3.org/2000/svg" xmlns:xlink="http://www.w3.org/1999/xlink" contentStyleType="text/css" height="1521px" preserveAspectRatio="none" style="width:1719px;height:1521px;background:#FFFFFF;" version="1.1" viewBox="0 0 1719 1521" width="1719px" zoomAndPan="magnify"><defs/><g><text fill="#000000" font-family="sans-serif" font-size="14" font-weight="bold" lengthAdjust="spacing" textLength="259" x="728.5" y="27.9951">Settlement from Central-Ledger</text><rect fill="#F9FFF9" height="1465.3672" style="stroke:#181818;stroke-width:0.5;" width="931" x="368.5" y="43.2969"/><text fill="#000000" font-family="sans-serif" font-size="13" font-weight="bold" lengthAdjust="spacing" textLength="120" x="771.5" y="55.3638">Settlements BC</text><rect fill="#FFFFF9" height="1465.3672" style="stroke:#181818;stroke-width:0.5;" width="396.5" x="1301.5" y="43.2969"/><text fill="#000000" font-family="sans-serif" font-size="13" font-weight="bold" lengthAdjust="spacing" textLength="182" x="1406.25" y="55.3638">Accounts &amp; Balances BC</text><rect fill="none" height="220.1953" style="stroke:#000000;stroke-width:1.5;" width="849.5" x="25" y="357.9219"/><rect fill="none" height="451.125" style="stroke:#000000;stroke-width:1.5;" width="1257.5" x="446.5" y="592.1172"/><rect fill="none" height="369.125" style="stroke:#000000;stroke-width:1.5;" width="1679" x="25" y="1057.2422"/><line style="stroke:#181818;stroke-width:0.5;stroke-dasharray:5.0,5.0;" x1="96" x2="96" y1="124.7266" y2="1443.3672"/><line style="stroke:#181818;stroke-width:0.5;stroke-dasharray:5.0,5.0;" x1="409.5" x2="409.5" y1="124.7266" y2="1443.3672"/><line style="stroke:#181818;stroke-width:0.5;stroke-dasharray:5.0,5.0;" x1="513.5" x2="513.5" y1="124.7266" y2="1443.3672"/><line style="stroke:#181818;stroke-width:0.5;stroke-dasharray:5.0,5.0;" x1="799.5" x2="799.5" y1="124.7266" y2="1443.3672"/><line style="stroke:#181818;stroke-width:0.5;stroke-dasharray:5.0,5.0;" x1="1209.5" x2="1209.5" y1="124.7266" y2="1443.3672"/><line style="stroke:#181818;stroke-width:0.5;stroke-dasharray:5.0,5.0;" x1="1344.5" x2="1344.5" y1="124.7266" y2="1443.3672"/><line style="stroke:#181818;stroke-width:0.5;stroke-dasharray:5.0,5.0;" x1="1647" x2="1647" y1="124.7266" y2="1443.3672"/><rect fill="#E2E2F0" height="30.2969" rx="2.5" ry="2.5" style="stroke:#181818;stroke-width:0.5;" width="123" x="35" y="93.4297"/><text fill="#000000" font-family="sans-serif" font-size="14" lengthAdjust="spacing" textLength="109" x="42" y="113.4248">Central-Ledger</text><rect fill="#E2E2F0" height="30.2969" rx="2.5" ry="2.5" style="stroke:#181818;stroke-width:0.5;" width="123" x="35" y="1442.3672"/><text fill="#000000" font-family="sans-serif" font-size="14" lengthAdjust="spacing" textLength="109" x="42" y="1462.3623">Central-Ledger</text><rect fill="#D5E8D4" height="30.2969" rx="2.5" ry="2.5" style="stroke:#181818;stroke-width:0.5;" width="74" x="372.5" y="93.4297"/><text fill="#000000" font-family="sans-serif" font-size="14" lengthAdjust="spacing" textLength="60" x="379.5" y="113.4248">Rest API</text><rect fill="#D5E8D4" height="30.2969" rx="2.5" ry="2.5" style="stroke:#181818;stroke-width:0.5;" width="74" x="372.5" y="1442.3672"/><text fill="#000000" font-family="sans-serif" font-size="14" lengthAdjust="spacing" textLength="60" x="379.5" y="1462.3623">Rest API</text><rect fill="#D5E8D4" height="30.2969" rx="2.5" ry="2.5" style="stroke:#181818;stroke-width:0.5;" width="115" x="456.5" y="93.4297"/><text fill="#000000" font-family="sans-serif" font-size="14" lengthAdjust="spacing" textLength="101" x="463.5" y="113.4248">Event Handler</text><rect fill="#D5E8D4" height="30.2969" rx="2.5" ry="2.5" style="stroke:#181818;stroke-width:0.5;" width="115" x="456.5" y="1442.3672"/><text fill="#000000" font-family="sans-serif" font-size="14" lengthAdjust="spacing" textLength="101" x="463.5" y="1462.3623">Event Handler</text><rect fill="#EDC54D" height="46.5938" rx="2.5" ry="2.5" style="stroke:#181818;stroke-width:0.5;" width="129" x="735.5" y="77.1328"/><text fill="#000000" font-family="sans-serif" font-size="14" lengthAdjust="spacing" textLength="115" x="742.5" y="97.1279">Settlements BC</text><text fill="#000000" font-family="sans-serif" font-size="14" lengthAdjust="spacing" textLength="72" x="764" y="113.4248">App Logic</text><rect fill="#EDC54D" height="46.5938" rx="2.5" ry="2.5" style="stroke:#181818;stroke-width:0.5;" width="129" x="735.5" y="1442.3672"/><text fill="#000000" font-family="sans-serif" font-size="14" lengthAdjust="spacing" textLength="115" x="742.5" y="1462.3623">Settlements BC</text><text fill="#000000" font-family="sans-serif" font-size="14" lengthAdjust="spacing" textLength="72" x="764" y="1478.6592">App Logic</text><text fill="#000000" font-family="sans-serif" font-size="14" lengthAdjust="spacing" textLength="165" x="1124.5" y="121.4248">Settlements-Database</text><path d="M1192,72.4297 C1192,62.4297 1210,62.4297 1210,62.4297 C1210,62.4297 1228,62.4297 1228,72.4297 L1228,98.4297 C1228,108.4297 1210,108.4297 1210,108.4297 C1210,108.4297 1192,108.4297 1192,98.4297 L1192,72.4297 " fill="#DAE8FC" style="stroke:#181818;stroke-width:1.5;"/><path d="M1192,72.4297 C1192,82.4297 1210,82.4297 1210,82.4297 C1210,82.4297 1228,82.4297 1228,72.4297 " fill="none" style="stroke:#181818;stroke-width:1.5;"/><text fill="#000000" font-family="sans-serif" font-size="14" lengthAdjust="spacing" textLength="165" x="1124.5" y="1455.3623">Settlements-Database</text><path d="M1192,1468.6641 C1192,1458.6641 1210,1458.6641 1210,1458.6641 C1210,1458.6641 1228,1458.6641 1228,1468.6641 L1228,1494.6641 C1228,1504.6641 1210,1504.6641 1210,1504.6641 C1210,1504.6641 1192,1504.6641 1192,1494.6641 L1192,1468.6641 " fill="#DAE8FC" style="stroke:#181818;stroke-width:1.5;"/><path d="M1192,1468.6641 C1192,1478.6641 1210,1478.6641 1210,1478.6641 C1210,1478.6641 1228,1478.6641 1228,1468.6641 " fill="none" style="stroke:#181818;stroke-width:1.5;"/><rect fill="#D5E8D4" height="30.2969" rx="2.5" ry="2.5" style="stroke:#181818;stroke-width:0.5;" width="78" x="1305.5" y="93.4297"/><text fill="#000000" font-family="sans-serif" font-size="14" lengthAdjust="spacing" textLength="64" x="1312.5" y="113.4248">A&amp;B SVC</text><rect fill="#D5E8D4" height="30.2969" rx="2.5" ry="2.5" style="stroke:#181818;stroke-width:0.5;" width="78" x="1305.5" y="1442.3672"/><text fill="#000000" font-family="sans-serif" font-size="14" lengthAdjust="spacing" textLength="64" x="1312.5" y="1462.3623">A&amp;B SVC</text><text fill="#000000" font-family="sans-serif" font-size="14" lengthAdjust="spacing" textLength="87" x="1601" y="121.4248">A&amp;B-Ledger</text><path d="M1629.5,72.4297 C1629.5,62.4297 1647.5,62.4297 1647.5,62.4297 C1647.5,62.4297 1665.5,62.4297 1665.5,72.4297 L1665.5,98.4297 C1665.5,108.4297 1647.5,108.4297 1647.5,108.4297 C1647.5,108.4297 1629.5,108.4297 1629.5,98.4297 L1629.5,72.4297 " fill="#DAE8FC" style="stroke:#181818;stroke-width:1.5;"/><path d="M1629.5,72.4297 C1629.5,82.4297 1647.5,82.4297 1647.5,82.4297 C1647.5,82.4297 1665.5,82.4297 1665.5,72.4297 " fill="none" style="stroke:#181818;stroke-width:1.5;"/><text fill="#000000" font-family="sans-serif" font-size="14" lengthAdjust="spacing" textLength="87" x="1601" y="1455.3623">A&amp;B-Ledger</text><path d="M1629.5,1468.6641 C1629.5,1458.6641 1647.5,1458.6641 1647.5,1458.6641 C1647.5,1458.6641 1665.5,1458.6641 1665.5,1468.6641 L1665.5,1494.6641 C1665.5,1504.6641 1647.5,1504.6641 1647.5,1504.6641 C1647.5,1504.6641 1629.5,1504.6641 1629.5,1494.6641 L1629.5,1468.6641 " fill="#DAE8FC" style="stroke:#181818;stroke-width:1.5;"/><path d="M1629.5,1468.6641 C1629.5,1478.6641 1647.5,1478.6641 1647.5,1478.6641 C1647.5,1478.6641 1665.5,1478.6641 1665.5,1468.6641 " fill="none" style="stroke:#181818;stroke-width:1.5;"/><path d="M5,139.7266 L5,179.7266 L188,179.7266 L188,149.7266 L178,139.7266 L5,139.7266 " fill="#FEFFDD" style="stroke:#181818;stroke-width:0.5;"/><path d="M178,139.7266 L178,149.7266 L188,149.7266 L178,139.7266 " fill="#FEFFDD" style="stroke:#181818;stroke-width:0.5;"/><text fill="#000000" font-family="sans-serif" font-size="13" lengthAdjust="spacing" textLength="162" x="11" y="156.7935">Central-Ledger maintains</text><text fill="#000000" font-family="sans-serif" font-size="13" lengthAdjust="spacing" textLength="110" x="11" y="171.9263">liquidity balances</text><path d="M383,189.9922 L383,244.9922 L644,244.9922 L644,199.9922 L634,189.9922 L383,189.9922 " fill="#FEFFDD" style="stroke:#181818;stroke-width:0.5;"/><path d="M634,189.9922 L634,199.9922 L644,199.9922 L634,189.9922 " fill="#FEFFDD" style="stroke:#181818;stroke-width:0.5;"/><text fill="#000000" font-family="sans-serif" font-size="13" lengthAdjust="spacing" textLength="81" x="389" y="207.0591">Kafka Topics</text><text fill="#000000" font-family="sans-serif" font-size="13" lengthAdjust="spacing" textLength="183" x="389" y="222.1919">- create Settlement Transfer</text><text fill="#000000" font-family="sans-serif" font-size="13" lengthAdjust="spacing" textLength="240" x="389" y="237.3247">- result of Settlement Transfer create</text><path d="M1267,255.3906 L1267,295.3906 L1422,295.3906 L1422,265.3906 L1412,255.3906 L1267,255.3906 " fill="#FEFFDD" style="stroke:#181818;stroke-width:0.5;"/><path d="M1412,255.3906 L1412,265.3906 L1422,265.3906 L1412,255.3906 " fill="#FEFFDD" style="stroke:#181818;stroke-width:0.5;"/><text fill="#000000" font-family="sans-serif" font-size="13" lengthAdjust="spacing" textLength="117" x="1273" y="272.4575">gRPC interface for</text><text fill="#000000" font-family="sans-serif" font-size="13" lengthAdjust="spacing" textLength="134" x="1273" y="287.5903">Accounts &amp; Balances</text><path d="M1583,305.6563 L1583,345.6563 L1712,345.6563 L1712,315.6563 L1702,305.6563 L1583,305.6563 " fill="#FEFFDD" style="stroke:#181818;stroke-width:0.5;"/><path d="M1702,305.6563 L1702,315.6563 L1712,315.6563 L1702,305.6563 " fill="#FEFFDD" style="stroke:#181818;stroke-width:0.5;"/><text fill="#000000" font-family="sans-serif" font-size="13" lengthAdjust="spacing" textLength="72" x="1589" y="322.7231">TigerBeetle</text><text fill="#000000" font-family="sans-serif" font-size="13" lengthAdjust="spacing" textLength="108" x="1589" y="337.856">enabled/disabled</text><path d="M25,357.9219 L433,357.9219 L433,365.0547 L423,375.0547 L25,375.0547 L25,357.9219 " fill="#EEEEEE" style="stroke:#000000;stroke-width:1.5;"/><rect fill="none" height="220.1953" style="stroke:#000000;stroke-width:1.5;" width="849.5" x="25" y="357.9219"/><text fill="#000000" font-family="sans-serif" font-size="13" font-weight="bold" lengthAdjust="spacing" textLength="363" x="40" y="370.9888">1. Create Settlement Transfer - Central Ledger</text><line style="stroke:#181818;stroke-width:1.0;stroke-dasharray:2.0,2.0;" x1="96.5" x2="138.5" y1="426.4531" y2="426.4531"/><line style="stroke:#181818;stroke-width:1.0;stroke-dasharray:2.0,2.0;" x1="138.5" x2="138.5" y1="426.4531" y2="439.4531"/><line style="stroke:#181818;stroke-width:1.0;stroke-dasharray:2.0,2.0;" x1="97.5" x2="138.5" y1="439.4531" y2="439.4531"/><polygon fill="#181818" points="106.5,422.4531,96.5,426.4531,106.5,430.4531,102.5,426.4531" style="stroke:#181818;stroke-width:1.0;"/><polygon fill="#181818" points="107.5,435.4531,97.5,439.4531,107.5,443.4531,103.5,439.4531" style="stroke:#181818;stroke-width:1.0;"/><text fill="#000000" font-family="sans-serif" font-size="13" font-weight="bold" lengthAdjust="spacing" textLength="9" x="103.5" y="406.2544">1</text><text fill="#000000" font-family="sans-serif" font-size="13" lengthAdjust="spacing" textLength="112" x="116.5" y="391.1216">Transfer prepare.</text><text fill="#000000" font-family="sans-serif" font-size="13" lengthAdjust="spacing" textLength="286" x="116.5" y="406.2544">Obtain settlement model and allocation data</text><text fill="#000000" font-family="sans-serif" font-size="13" lengthAdjust="spacing" textLength="101" x="116.5" y="421.3872">via rules engine</text><line style="stroke:#181818;stroke-width:1.0;stroke-dasharray:2.0,2.0;" x1="96.5" x2="138.5" y1="468.5859" y2="468.5859"/><line style="stroke:#181818;stroke-width:1.0;stroke-dasharray:2.0,2.0;" x1="138.5" x2="138.5" y1="468.5859" y2="481.5859"/><line style="stroke:#181818;stroke-width:1.0;stroke-dasharray:2.0,2.0;" x1="97.5" x2="138.5" y1="481.5859" y2="481.5859"/><polygon fill="#181818" points="106.5,464.5859,96.5,468.5859,106.5,472.5859,102.5,468.5859" style="stroke:#181818;stroke-width:1.0;"/><polygon fill="#181818" points="107.5,477.5859,97.5,481.5859,107.5,485.5859,103.5,481.5859" style="stroke:#181818;stroke-width:1.0;"/><text fill="#000000" font-family="sans-serif" font-size="13" font-weight="bold" lengthAdjust="spacing" textLength="9" x="103.5" y="463.52">2</text><text fill="#000000" font-family="sans-serif" font-size="13" lengthAdjust="spacing" textLength="85" x="116.5" y="463.52">Transfer fulfil</text><polygon fill="#181818" points="502,536.9844,512,540.9844,502,544.9844,506,540.9844" style="stroke:#181818;stroke-width:1.0;"/><line style="stroke:#181818;stroke-width:1.0;" x1="96.5" x2="508" y1="540.9844" y2="540.9844"/><text fill="#000000" font-family="sans-serif" font-size="13" font-weight="bold" lengthAdjust="spacing" textLength="8" x="103.5" y="520.7856">3</text><text fill="#000000" font-family="sans-serif" font-size="13" lengthAdjust="spacing" textLength="4" x="115.5" y="505.6528"> </text><text fill="#000000" font-family="sans-serif" font-size="13" font-style="italic" lengthAdjust="spacing" textLength="84" x="115.5" y="520.7856">publishEvent</text><text fill="#000000" font-family="sans-serif" font-size="13" lengthAdjust="spacing" textLength="160" x="203.5" y="520.7856">will all necessary data as</text><text fill="#000000" font-family="sans-serif" font-size="13" font-style="italic" font-weight="bold" lengthAdjust="spacing" textLength="174" x="115.5" y="535.9185">ISettlementTransferDto</text><polygon fill="#181818" points="525,566.1172,515,570.1172,525,574.1172,521,570.1172" style="stroke:#181818;stroke-width:1.0;"/><line style="stroke:#181818;stroke-width:1.0;" x1="519" x2="799" y1="570.1172" y2="570.1172"/><text fill="#000000" font-family="sans-serif" font-size="13" font-weight="bold" lengthAdjust="spacing" textLength="9" x="531" y="565.0513">1</text><text fill="#000000" font-family="sans-serif" font-size="13" lengthAdjust="spacing" textLength="234" x="544" y="565.0513">Listen for Settlement Transfer event</text><path d="M446.5,592.1172 L685.5,592.1172 L685.5,599.25 L675.5,609.25 L446.5,609.25 L446.5,592.1172 " fill="#EEEEEE" style="stroke:#000000;stroke-width:1.5;"/><rect fill="none" height="451.125" style="stroke:#000000;stroke-width:1.5;" width="1257.5" x="446.5" y="592.1172"/><text fill="#000000" font-family="sans-serif" font-size="13" font-weight="bold" lengthAdjust="spacing" textLength="194" x="461.5" y="605.1841">2. Settlement - App Logic</text><line style="stroke:#181818;stroke-width:1.0;stroke-dasharray:2.0,2.0;" x1="800" x2="842" y1="630.3828" y2="630.3828"/><line style="stroke:#181818;stroke-width:1.0;stroke-dasharray:2.0,2.0;" x1="842" x2="842" y1="630.3828" y2="643.3828"/><line style="stroke:#181818;stroke-width:1.0;stroke-dasharray:2.0,2.0;" x1="801" x2="842" y1="643.3828" y2="643.3828"/><polygon fill="#181818" points="810,626.3828,800,630.3828,810,634.3828,806,630.3828" style="stroke:#181818;stroke-width:1.0;"/><polygon fill="#181818" points="811,639.3828,801,643.3828,811,647.3828,807,643.3828" style="stroke:#181818;stroke-width:1.0;"/><text fill="#000000" font-family="sans-serif" font-size="13" font-weight="bold" lengthAdjust="spacing" textLength="9" x="807" y="625.3169">2</text><text fill="#000000" font-family="sans-serif" font-size="13" lengthAdjust="spacing" textLength="232" x="820" y="625.3169">Settlement Transfer event triggered</text><line style="stroke:#181818;stroke-width:1.0;stroke-dasharray:2.0,2.0;" x1="800" x2="842" y1="672.5156" y2="672.5156"/><line style="stroke:#181818;stroke-width:1.0;stroke-dasharray:2.0,2.0;" x1="842" x2="842" y1="672.5156" y2="685.5156"/><line style="stroke:#181818;stroke-width:1.0;stroke-dasharray:2.0,2.0;" x1="801" x2="842" y1="685.5156" y2="685.5156"/><polygon fill="#181818" points="811,681.5156,801,685.5156,811,689.5156,807,685.5156" style="stroke:#181818;stroke-width:1.0;"/><text fill="#000000" font-family="sans-serif" font-size="13" font-weight="bold" lengthAdjust="spacing" textLength="8" x="807" y="667.4497">3</text><text fill="#000000" font-family="sans-serif" font-size="13" lengthAdjust="spacing" textLength="218" x="819" y="667.4497">Validate Settlement Transfer data</text><polygon fill="#181818" points="811,725.7813,801,729.7813,811,733.7813,807,729.7813" style="stroke:#181818;stroke-width:1.0;"/><polygon fill="#181818" points="1198,725.7813,1208,729.7813,1198,733.7813,1202,729.7813" style="stroke:#181818;stroke-width:1.0;"/><line style="stroke:#181818;stroke-width:1.0;stroke-dasharray:2.0,2.0;" x1="805" x2="1204" y1="729.7813" y2="729.7813"/><text fill="#000000" font-family="sans-serif" font-size="13" font-weight="bold" lengthAdjust="spacing" textLength="9" x="817" y="717.1489">4</text><text fill="#000000" font-family="sans-serif" font-size="13" lengthAdjust="spacing" textLength="208" x="830" y="709.5825">Fetch &amp; cache settlement config</text><text fill="#000000" font-family="sans-serif" font-size="13" font-weight="bold" lengthAdjust="spacing" textLength="239" x="830" y="724.7153">Platform Config BC / Admin API</text><polygon fill="#181818" points="811,770.0469,801,774.0469,811,778.0469,807,774.0469" style="stroke:#181818;stroke-width:1.0;"/><polygon fill="#181818" points="1198,770.0469,1208,774.0469,1198,778.0469,1202,774.0469" style="stroke:#181818;stroke-width:1.0;"/><line style="stroke:#181818;stroke-width:1.0;stroke-dasharray:2.0,2.0;" x1="805" x2="1204" y1="774.0469" y2="774.0469"/><text fill="#000000" font-family="sans-serif" font-size="13" font-weight="bold" lengthAdjust="spacing" textLength="9" x="817" y="761.4146">5</text><text fill="#000000" font-family="sans-serif" font-size="13" font-weight="bold" lengthAdjust="spacing" textLength="140" x="830" y="753.8481">Obtain open batch</text><text fill="#000000" font-family="sans-serif" font-size="13" lengthAdjust="spacing" textLength="229" x="974" y="753.8481">based on Settlement Transfer data.</text><text fill="#000000" font-family="sans-serif" font-size="13" font-style="italic" lengthAdjust="spacing" textLength="291" x="830" y="768.981">Create new batch if no OPEN batch available</text><polygon fill="#181818" points="811,799.1797,801,803.1797,811,807.1797,807,803.1797" style="stroke:#181818;stroke-width:1.0;"/><polygon fill="#181818" points="1332.5,799.1797,1342.5,803.1797,1332.5,807.1797,1336.5,803.1797" style="stroke:#181818;stroke-width:1.0;"/><line style="stroke:#181818;stroke-width:1.0;" x1="805" x2="1338.5" y1="803.1797" y2="803.1797"/><text fill="#000000" font-family="sans-serif" font-size="13" font-weight="bold" lengthAdjust="spacing" textLength="9" x="817" y="798.1138">6</text><text fill="#000000" font-family="sans-serif" font-size="13" lengthAdjust="spacing" textLength="42" x="830" y="798.1138">Obtain</text><text fill="#000000" font-family="sans-serif" font-size="13" font-weight="bold" lengthAdjust="spacing" textLength="161" x="876" y="798.1138">Settlement accounts</text><text fill="#000000" font-family="sans-serif" font-size="13" lengthAdjust="spacing" textLength="161" x="1041" y="798.1138">using Participant account</text><polygon fill="#181818" points="1355.5,828.3125,1345.5,832.3125,1355.5,836.3125,1351.5,832.3125" style="stroke:#181818;stroke-width:1.0;"/><polygon fill="#181818" points="1635.5,828.3125,1645.5,832.3125,1635.5,836.3125,1639.5,832.3125" style="stroke:#181818;stroke-width:1.0;"/><line style="stroke:#181818;stroke-width:1.0;stroke-dasharray:2.0,2.0;" x1="1349.5" x2="1641.5" y1="832.3125" y2="832.3125"/><text fill="#000000" font-family="sans-serif" font-size="13" font-weight="bold" lengthAdjust="spacing" textLength="9" x="1361.5" y="827.2466">7</text><text fill="#000000" font-family="sans-serif" font-size="13" lengthAdjust="spacing" textLength="192" x="1374.5" y="827.2466">Create account, if none exists</text><polygon fill="#181818" points="811,857.4453,801,861.4453,811,865.4453,807,861.4453" style="stroke:#181818;stroke-width:1.0;"/><line style="stroke:#181818;stroke-width:1.0;" x1="805" x2="1343.5" y1="861.4453" y2="861.4453"/><text fill="#000000" font-family="sans-serif" font-size="13" font-weight="bold" lengthAdjust="spacing" textLength="9" x="817" y="856.3794">8</text><text fill="#000000" font-family="sans-serif" font-size="13" lengthAdjust="spacing" textLength="43" x="830" y="856.3794">Return</text><text fill="#000000" font-family="sans-serif" font-size="13" font-weight="bold" lengthAdjust="spacing" textLength="62" x="877" y="856.3794">Account</text><text fill="#000000" font-family="sans-serif" font-size="13" lengthAdjust="spacing" textLength="80" x="943" y="856.3794">creation info</text><polygon fill="#181818" points="1332.5,886.5781,1342.5,890.5781,1332.5,894.5781,1336.5,890.5781" style="stroke:#181818;stroke-width:1.0;"/><line style="stroke:#181818;stroke-width:1.0;" x1="800" x2="1338.5" y1="890.5781" y2="890.5781"/><text fill="#000000" font-family="sans-serif" font-size="13" font-weight="bold" lengthAdjust="spacing" textLength="9" x="807" y="885.5122">9</text><text fill="#000000" font-family="sans-serif" font-size="13" lengthAdjust="spacing" textLength="176" x="820" y="885.5122">Create Settlement Transfer</text><polygon fill="#181818" points="1355.5,930.8438,1345.5,934.8438,1355.5,938.8438,1351.5,934.8438" style="stroke:#181818;stroke-width:1.0;"/><polygon fill="#181818" points="1635.5,930.8438,1645.5,934.8438,1635.5,938.8438,1639.5,934.8438" style="stroke:#181818;stroke-width:1.0;"/><line style="stroke:#181818;stroke-width:1.0;" x1="1349.5" x2="1641.5" y1="934.8438" y2="934.8438"/><text fill="#000000" font-family="sans-serif" font-size="13" font-weight="bold" lengthAdjust="spacing" textLength="19" x="1361.5" y="922.2114">10</text><text fill="#000000" font-family="sans-serif" font-size="13" lengthAdjust="spacing" textLength="217" x="1384.5" y="914.645">Create Transfer: update accounts</text><text fill="#000000" font-family="sans-serif" font-size="13" lengthAdjust="spacing" textLength="157" x="1384.5" y="929.7778">to DR payer &amp; CR payee</text><polygon fill="#181818" points="811,959.9766,801,963.9766,811,967.9766,807,963.9766" style="stroke:#181818;stroke-width:1.0;"/><line style="stroke:#181818;stroke-width:1.0;" x1="805" x2="1343.5" y1="963.9766" y2="963.9766"/><text fill="#000000" font-family="sans-serif" font-size="13" font-weight="bold" lengthAdjust="spacing" textLength="18" x="817" y="958.9106">11</text><text fill="#000000" font-family="sans-serif" font-size="13" lengthAdjust="spacing" textLength="43" x="839" y="958.9106">Return</text><text fill="#000000" font-family="sans-serif" font-size="13" font-weight="bold" lengthAdjust="spacing" textLength="67" x="886" y="958.9106">Transfer</text><text fill="#000000" font-family="sans-serif" font-size="13" lengthAdjust="spacing" textLength="80" x="957" y="958.9106">creation info</text><line style="stroke:#181818;stroke-width:1.0;" x1="800" x2="842" y1="993.1094" y2="993.1094"/><line style="stroke:#181818;stroke-width:1.0;" x1="842" x2="842" y1="993.1094" y2="1006.1094"/><line style="stroke:#181818;stroke-width:1.0;" x1="801" x2="842" y1="1006.1094" y2="1006.1094"/><polygon fill="#181818" points="810,989.1094,800,993.1094,810,997.1094,806,993.1094" style="stroke:#181818;stroke-width:1.0;"/><polygon fill="#181818" points="811,1002.1094,801,1006.1094,811,1010.1094,807,1006.1094" style="stroke:#181818;stroke-width:1.0;"/><text fill="#000000" font-family="sans-serif" font-size="13" font-weight="bold" lengthAdjust="spacing" textLength="18" x="807" y="988.0435">12</text><text fill="#000000" font-family="sans-serif" font-size="13" lengthAdjust="spacing" textLength="50" x="829" y="988.0435">Prepare</text><text fill="#000000" font-family="sans-serif" font-size="13" font-weight="bold" lengthAdjust="spacing" textLength="134" x="883" y="988.0435">Transfer/Account</text><text fill="#000000" font-family="sans-serif" font-size="13" lengthAdjust="spacing" textLength="92" x="1021" y="988.0435">response data</text><polygon fill="#181818" points="525,1031.2422,515,1035.2422,525,1039.2422,521,1035.2422" style="stroke:#181818;stroke-width:1.0;"/><line style="stroke:#181818;stroke-width:1.0;" x1="519" x2="799" y1="1035.2422" y2="1035.2422"/><text fill="#000000" font-family="sans-serif" font-size="13" font-weight="bold" lengthAdjust="spacing" textLength="17" x="531" y="1030.1763">13</text><text fill="#000000" font-family="sans-serif" font-size="13" lengthAdjust="spacing" textLength="45" x="552" y="1030.1763">Publish</text><text fill="#000000" font-family="sans-serif" font-size="13" font-weight="bold" lengthAdjust="spacing" textLength="159" x="601" y="1030.1763">Settlement Transfer</text><text fill="#000000" font-family="sans-serif" font-size="13" lengthAdjust="spacing" textLength="29" x="764" y="1030.1763">data</text><path d="M25,1057.2422 L321,1057.2422 L321,1064.375 L311,1074.375 L25,1074.375 L25,1057.2422 " fill="#EEEEEE" style="stroke:#000000;stroke-width:1.5;"/><rect fill="none" height="369.125" style="stroke:#000000;stroke-width:1.5;" width="1679" x="25" y="1057.2422"/><text fill="#000000" font-family="sans-serif" font-size="13" font-weight="bold" lengthAdjust="spacing" textLength="251" x="40" y="1070.3091">3. Settlement - Retrieve Batches</text><polygon fill="#181818" points="397.5,1197.4375,407.5,1201.4375,397.5,1205.4375,401.5,1201.4375" style="stroke:#181818;stroke-width:1.0;"/><line style="stroke:#181818;stroke-width:1.0;" x1="96.5" x2="403.5" y1="1201.4375" y2="1201.4375"/><text fill="#000000" font-family="sans-serif" font-size="13" font-weight="bold" lengthAdjust="spacing" textLength="9" x="103.5" y="1143.4067">1</text><text fill="#000000" font-family="sans-serif" font-size="13" lengthAdjust="spacing" textLength="100" x="116.5" y="1090.4419">At time of fulfil:</text><text fill="#000000" font-family="sans-serif" font-size="13" font-style="italic" lengthAdjust="spacing" textLength="175" x="116.5" y="1105.5747">retrieveSettlementBatches</text><text fill="#000000" font-family="sans-serif" font-size="13" lengthAdjust="spacing" textLength="4" x="291.5" y="1105.5747"> </text><text fill="#000000" font-family="sans-serif" font-size="13" lengthAdjust="spacing" textLength="42" x="116.5" y="1120.7075">INPUT:</text><text fill="#000000" font-family="sans-serif" font-size="13" lengthAdjust="spacing" textLength="15" x="116.5" y="1135.8403">-&gt;</text><text fill="#000000" font-family="sans-serif" font-size="13" font-weight="bold" lengthAdjust="spacing" textLength="82" x="135.5" y="1135.8403">From Date</text><text fill="#000000" font-family="sans-serif" font-size="13" lengthAdjust="spacing" textLength="42" x="221.5" y="1135.8403">- From</text><text fill="#000000" font-family="sans-serif" font-size="13" lengthAdjust="spacing" textLength="15" x="116.5" y="1150.9731">-&gt;</text><text fill="#000000" font-family="sans-serif" font-size="13" font-weight="bold" lengthAdjust="spacing" textLength="63" x="135.5" y="1150.9731">To Date</text><text fill="#000000" font-family="sans-serif" font-size="13" lengthAdjust="spacing" textLength="25" x="202.5" y="1150.9731">- To</text><text fill="#000000" font-family="sans-serif" font-size="13" lengthAdjust="spacing" textLength="15" x="116.5" y="1166.106">-&gt;</text><text fill="#000000" font-family="sans-serif" font-size="13" font-weight="bold" lengthAdjust="spacing" textLength="137" x="135.5" y="1166.106">Settlement Model</text><text fill="#000000" font-family="sans-serif" font-size="13" lengthAdjust="spacing" textLength="46" x="276.5" y="1166.106">- Model</text><text fill="#000000" font-family="sans-serif" font-size="13" font-style="italic" lengthAdjust="spacing" textLength="63" x="326.5" y="1166.106">(optional)</text><text fill="#000000" font-family="sans-serif" font-size="13" lengthAdjust="spacing" textLength="57" x="116.5" y="1181.2388">OUTPUT:</text><text fill="#000000" font-family="sans-serif" font-size="13" lengthAdjust="spacing" textLength="15" x="116.5" y="1196.3716">-&gt;</text><text fill="#000000" font-family="sans-serif" font-size="13" font-weight="bold" lengthAdjust="spacing" textLength="153" x="135.5" y="1196.3716">Settlement Batches</text><text fill="#000000" font-family="sans-serif" font-size="13" lengthAdjust="spacing" textLength="60" x="292.5" y="1196.3716">- Batches</text><polygon fill="#181818" points="788,1226.5703,798,1230.5703,788,1234.5703,792,1230.5703" style="stroke:#181818;stroke-width:1.0;"/><line style="stroke:#181818;stroke-width:1.0;" x1="409.5" x2="794" y1="1230.5703" y2="1230.5703"/><text fill="#000000" font-family="sans-serif" font-size="13" font-weight="bold" lengthAdjust="spacing" textLength="9" x="416.5" y="1225.5044">2</text><text fill="#000000" font-family="sans-serif" font-size="13" lengthAdjust="spacing" textLength="182" x="429.5" y="1225.5044">Request settlement batches</text><polygon fill="#181818" points="1332.5,1255.7031,1342.5,1259.7031,1332.5,1263.7031,1336.5,1259.7031" style="stroke:#181818;stroke-width:1.0;"/><line style="stroke:#181818;stroke-width:1.0;" x1="800" x2="1338.5" y1="1259.7031" y2="1259.7031"/><text fill="#000000" font-family="sans-serif" font-size="13" font-weight="bold" lengthAdjust="spacing" textLength="8" x="807" y="1254.6372">3</text><text fill="#000000" font-family="sans-serif" font-size="13" lengthAdjust="spacing" textLength="231" x="819" y="1254.6372">Retrieve Settlement batch accounts</text><polygon fill="#181818" points="1355.5,1284.8359,1345.5,1288.8359,1355.5,1292.8359,1351.5,1288.8359" style="stroke:#181818;stroke-width:1.0;"/><polygon fill="#181818" points="1635.5,1284.8359,1645.5,1288.8359,1635.5,1292.8359,1639.5,1288.8359" style="stroke:#181818;stroke-width:1.0;"/><line style="stroke:#181818;stroke-width:1.0;" x1="1349.5" x2="1641.5" y1="1288.8359" y2="1288.8359"/><text fill="#000000" font-family="sans-serif" font-size="13" font-weight="bold" lengthAdjust="spacing" textLength="9" x="1361.5" y="1283.77">4</text><text fill="#000000" font-family="sans-serif" font-size="13" lengthAdjust="spacing" textLength="266" x="1374.5" y="1283.77">Retrieve Settlement accounts &amp; balances</text><polygon fill="#181818" points="811,1313.9688,801,1317.9688,811,1321.9688,807,1317.9688" style="stroke:#181818;stroke-width:1.0;"/><line style="stroke:#181818;stroke-width:1.0;" x1="805" x2="1343.5" y1="1317.9688" y2="1317.9688"/><text fill="#000000" font-family="sans-serif" font-size="13" font-weight="bold" lengthAdjust="spacing" textLength="9" x="817" y="1312.9028">5</text><text fill="#000000" font-family="sans-serif" font-size="13" lengthAdjust="spacing" textLength="43" x="830" y="1312.9028">Return</text><text fill="#000000" font-family="sans-serif" font-size="13" font-weight="bold" lengthAdjust="spacing" textLength="62" x="877" y="1312.9028">Account</text><text fill="#000000" font-family="sans-serif" font-size="13" lengthAdjust="spacing" textLength="29" x="943" y="1312.9028">data</text><line style="stroke:#181818;stroke-width:1.0;stroke-dasharray:2.0,2.0;" x1="800" x2="842" y1="1347.1016" y2="1347.1016"/><line style="stroke:#181818;stroke-width:1.0;stroke-dasharray:2.0,2.0;" x1="842" x2="842" y1="1347.1016" y2="1360.1016"/><line style="stroke:#181818;stroke-width:1.0;stroke-dasharray:2.0,2.0;" x1="801" x2="842" y1="1360.1016" y2="1360.1016"/><polygon fill="#181818" points="811,1356.1016,801,1360.1016,811,1364.1016,807,1360.1016" style="stroke:#181818;stroke-width:1.0;"/><text fill="#000000" font-family="sans-serif" font-size="13" font-weight="bold" lengthAdjust="spacing" textLength="9" x="807" y="1342.0356">6</text><text fill="#000000" font-family="sans-serif" font-size="13" lengthAdjust="spacing" textLength="186" x="820" y="1342.0356">Prepare batch response data</text><polygon fill="#181818" points="420.5,1385.2344,410.5,1389.2344,420.5,1393.2344,416.5,1389.2344" style="stroke:#181818;stroke-width:1.0;"/><line style="stroke:#181818;stroke-width:1.0;" x1="414.5" x2="799" y1="1389.2344" y2="1389.2344"/><text fill="#000000" font-family="sans-serif" font-size="13" font-weight="bold" lengthAdjust="spacing" textLength="9" x="426.5" y="1384.1685">7</text><text fill="#000000" font-family="sans-serif" font-size="13" lengthAdjust="spacing" textLength="43" x="439.5" y="1384.1685">Return</text><text fill="#000000" font-family="sans-serif" font-size="13" font-weight="bold" lengthAdjust="spacing" textLength="44" x="486.5" y="1384.1685">Batch</text><text fill="#000000" font-family="sans-serif" font-size="13" lengthAdjust="spacing" textLength="29" x="534.5" y="1384.1685">data</text><polygon fill="#181818" points="107.5,1414.3672,97.5,1418.3672,107.5,1422.3672,103.5,1418.3672" style="stroke:#181818;stroke-width:1.0;"/><line style="stroke:#181818;stroke-width:1.0;" x1="101.5" x2="408.5" y1="1418.3672" y2="1418.3672"/><text fill="#000000" font-family="sans-serif" font-size="13" font-weight="bold" lengthAdjust="spacing" textLength="9" x="113.5" y="1413.3013">8</text><text fill="#000000" font-family="sans-serif" font-size="13" lengthAdjust="spacing" textLength="43" x="126.5" y="1413.3013">Return</text><text fill="#000000" font-family="sans-serif" font-size="13" font-weight="bold" lengthAdjust="spacing" textLength="44" x="173.5" y="1413.3013">Batch</text><text fill="#000000" font-family="sans-serif" font-size="13" lengthAdjust="spacing" textLength="29" x="221.5" y="1413.3013">data</text><!--SRC=[bLPjQzmu4Fw-ls9e8FJCRSJrMcXDAUmh3SsrIxBjfuKWsx8ZJYkvifms__v6icpBNcylNGZHZkRrcMT6QxWH3EwOmNz79WtaMXrXXITDnVo6PGNJirb9jU4fBoagl1XUlW1Q0VjfxbCnayemK8zCjmB0pr0TZfHBWt-LknJyUyqpRfuWeOBAb5Kp9ZEmZcQpHFqCCgjWkOABxRljTllEsGwIkcMLWSNksgLJ9UczjeABzPlDs_NhK_NDewtr8vMPy2LO6-QaeL5VKNVlvFRpYUR_KjYhagTL9vn3gXar0qZtciegHnnx9Sok5WPKFgNdNJZr3esJ4eR87EIYBE565Jpjog5bUI-i12uswzMRrsld9AE69hHY0m_pjPTsnbc2G2msRxShrn7iHTEGHPggsiQyXALlMTEOxNHZ5fTBkFksSdvfWeuBNQO3ZFk4K3TabLCt7BycZ5cQjWaDEzDvxV0jRdShG9endTEKGQvww2VIFyLvv3j8eVEpjx9barOdP98cWcKauvKx33rtC1PQrINyTGMhirH1YlYv0J-3j3PAriV4qwWPC7W_dtzept5lNMg6JM1NS91V4ZjjKFKnZYfZ0f3wG8LGAJLSITU4Wtpa57GjiALC5booPuJAQv5p4IgYMZzCCQP0I5adWbSFRke8WHzS21iS94FyAwgVN7pi-K564I7NFI9jdBLHX4JH68OXpKUHRtXbcBJjduIucMRiIjkHLrUXtXowYPe8vT0OYEBpGS1eNc0JFID6IOyTOURVgE3PEMfOg7wL4Kvk35jcqWSaUKhJ1nPsFrKovuN5UIUeGMnmspkHdM82Y-o8RC55YbZ_NumeykHI9SASK8mOHM17EGEarBdShomZFFKb-z4O0iznIk3BRlFP2-WZvSAE4I6JcNm8raaCFfCe2g9IF-kOL5rnMS0kM4p-qhdk7Ra2J_PEt4wgD_gpoLOof3noh1evcMZeBJErjkdv_OCfkILlHu_BN4sJkNCP_s9Ld5HmMa1dtjh4K9TPK525KseKh6znTpzXcovXrHpPRvJMEdz6RUzFXsVNhAp03-cnmkUoL1AVY3FS7mt-hbatGpO4wJalmU3_FHfyB4bpT8PF138HNuZfvUkZkbyQCInmpFcHsJUzsOcnvRdshdh_tYUkmOEy_hpxkaSzz1H5M_lB2zzXXXdEmNxp5tlLY_VA2uE4_x4BtTsw4n3oKfKMVYh-80IVWA_x84nWw5DnfcsfBRYkgibsVw_jLR1Iaf7fD8SRgZIutesCEnu-Wynd_D3-OK_2X_rtn_8SmoQiMyes9JoJevujNUIbNvi3gnRyxhcTLWzeQUdy7m00]--></g></svg>