<?xml version="1.0" encoding="UTF-8" standalone="no"?><svg xmlns="http://www.w3.org/2000/svg" xmlns:xlink="http://www.w3.org/1999/xlink" contentStyleType="text/css" height="969px" preserveAspectRatio="none" style="width:1578px;height:969px;background:#FFFFFF;" version="1.1" viewBox="0 0 1578 969" width="1578px" zoomAndPan="magnify"><defs/><g><text fill="#000000" font-family="sans-serif" font-size="24" font-weight="bold" lengthAdjust="spacing" textLength="450" x="565.75" y="37.2773">Settlement from the Transfers BC</text><rect fill="#F9FFF9" height="901.3359" style="stroke:#181818;stroke-width:0.5;" width="623" x="294.5" y="54.9375"/><text fill="#000000" font-family="sans-serif" font-size="13" font-weight="bold" lengthAdjust="spacing" textLength="114" x="546.5" y="67.0044">Settlements BC</text><rect fill="#FFFFF9" height="901.3359" style="stroke:#181818;stroke-width:0.5;" width="396" x="919.5" y="54.9375"/><text fill="#000000" font-family="sans-serif" font-size="13" font-weight="bold" lengthAdjust="spacing" textLength="179" x="1025.5" y="67.0044">Accounts &amp; Balances BC</text><rect fill="#EADDDD" height="901.3359" style="stroke:#181818;stroke-width:0.5;" width="124" x="1317.5" y="54.9375"/><text fill="#000000" font-family="sans-serif" font-size="13" font-weight="bold" lengthAdjust="spacing" textLength="113" x="1320.5" y="67.0044">Participants BC</text><rect fill="#EEEEEE" height="901.3359" style="stroke:#181818;stroke-width:0.5;" width="123" x="1443.5" y="54.9375"/><text fill="#000000" font-family="sans-serif" font-size="13" font-weight="bold" lengthAdjust="spacing" textLength="64" x="1473" y="67.0044">Platform</text><text fill="#000000" font-family="sans-serif" font-size="13" font-weight="bold" lengthAdjust="spacing" textLength="99" x="1455.5" y="82.1372">Configuration</text><text fill="#000000" font-family="sans-serif" font-size="13" font-weight="bold" lengthAdjust="spacing" textLength="20" x="1492.5" y="97.27">BC</text><rect fill="none" height="220.1953" style="stroke:#000000;stroke-width:1.5;" width="559.5" x="10" y="285.7578"/><rect fill="none" height="337.7266" style="stroke:#000000;stroke-width:1.5;" width="1146" x="426.5" y="519.9531"/><line style="stroke:#181818;stroke-width:0.5;stroke-dasharray:5.0,5.0;" x1="72" x2="72" y1="168.2266" y2="874.6797"/><line style="stroke:#181818;stroke-width:0.5;stroke-dasharray:5.0,5.0;" x1="362.5" x2="362.5" y1="168.2266" y2="874.6797"/><line style="stroke:#181818;stroke-width:0.5;stroke-dasharray:5.0,5.0;" x1="497.5" x2="497.5" y1="168.2266" y2="874.6797"/><line style="stroke:#181818;stroke-width:0.5;stroke-dasharray:5.0,5.0;" x1="867.5" x2="867.5" y1="168.2266" y2="874.6797"/><line style="stroke:#181818;stroke-width:0.5;stroke-dasharray:5.0,5.0;" x1="994.5" x2="994.5" y1="168.2266" y2="874.6797"/><line style="stroke:#181818;stroke-width:0.5;stroke-dasharray:5.0,5.0;" x1="1234.5" x2="1234.5" y1="168.2266" y2="874.6797"/><line style="stroke:#181818;stroke-width:0.5;stroke-dasharray:5.0,5.0;" x1="1379" x2="1379" y1="168.2266" y2="874.6797"/><line style="stroke:#181818;stroke-width:0.5;stroke-dasharray:5.0,5.0;" x1="1504.5" x2="1504.5" y1="168.2266" y2="874.6797"/><rect fill="#E2E2F0" height="46.5938" rx="2.5" ry="2.5" style="stroke:#181818;stroke-width:0.5;" width="105" x="20" y="120.6328"/><text fill="#000000" font-family="sans-serif" font-size="14" lengthAdjust="spacing" textLength="40" x="52.5" y="140.6279">vNext</text><text fill="#000000" font-family="sans-serif" font-size="14" lengthAdjust="spacing" textLength="91" x="27" y="156.9248">Transfers BC</text><rect fill="#E2E2F0" height="46.5938" rx="2.5" ry="2.5" style="stroke:#181818;stroke-width:0.5;" width="105" x="20" y="873.6797"/><text fill="#000000" font-family="sans-serif" font-size="14" lengthAdjust="spacing" textLength="40" x="52.5" y="893.6748">vNext</text><text fill="#000000" font-family="sans-serif" font-size="14" lengthAdjust="spacing" textLength="91" x="27" y="909.9717">Transfers BC</text><rect fill="#D5E8D4" height="46.5938" rx="2.5" ry="2.5" style="stroke:#181818;stroke-width:0.5;" width="128" x="298.5" y="120.6328"/><text fill="#000000" font-family="sans-serif" font-size="14" lengthAdjust="spacing" textLength="109" x="308" y="140.6279">Settlements BC</text><text fill="#000000" font-family="sans-serif" font-size="14" font-weight="bold" lengthAdjust="spacing" textLength="114" x="305.5" y="156.9248">Event Handler</text><rect fill="#D5E8D4" height="46.5938" rx="2.5" ry="2.5" style="stroke:#181818;stroke-width:0.5;" width="128" x="298.5" y="873.6797"/><text fill="#000000" font-family="sans-serif" font-size="14" lengthAdjust="spacing" textLength="109" x="308" y="893.6748">Settlements BC</text><text fill="#000000" font-family="sans-serif" font-size="14" font-weight="bold" lengthAdjust="spacing" textLength="114" x="305.5" y="909.9717">Event Handler</text><rect fill="#EDC54D" height="46.5938" rx="2.5" ry="2.5" style="stroke:#181818;stroke-width:0.5;" width="123" x="436.5" y="120.6328"/><text fill="#000000" font-family="sans-serif" font-size="14" lengthAdjust="spacing" textLength="109" x="443.5" y="140.6279">Settlements BC</text><text fill="#000000" font-family="sans-serif" font-size="14" font-weight="bold" lengthAdjust="spacing" textLength="108" x="444" y="156.9248">Domain Logic</text><rect fill="#EDC54D" height="46.5938" rx="2.5" ry="2.5" style="stroke:#181818;stroke-width:0.5;" width="123" x="436.5" y="873.6797"/><text fill="#000000" font-family="sans-serif" font-size="14" lengthAdjust="spacing" textLength="109" x="443.5" y="893.6748">Settlements BC</text><text fill="#000000" font-family="sans-serif" font-size="14" font-weight="bold" lengthAdjust="spacing" textLength="108" x="444" y="909.9717">Domain Logic</text><text fill="#000000" font-family="sans-serif" font-size="14" lengthAdjust="spacing" textLength="85" x="822.5" y="148.6279">Settlements</text><text fill="#000000" font-family="sans-serif" font-size="14" font-weight="bold" lengthAdjust="spacing" textLength="74" x="828" y="164.9248">Database</text><path d="M850,99.6328 C850,89.6328 868,89.6328 868,89.6328 C868,89.6328 886,89.6328 886,99.6328 L886,125.6328 C886,135.6328 868,135.6328 868,135.6328 C868,135.6328 850,135.6328 850,125.6328 L850,99.6328 " fill="#DAE8FC" style="stroke:#181818;stroke-width:1.5;"/><path d="M850,99.6328 C850,109.6328 868,109.6328 868,109.6328 C868,109.6328 886,109.6328 886,99.6328 " fill="none" style="stroke:#181818;stroke-width:1.5;"/><text fill="#000000" font-family="sans-serif" font-size="14" lengthAdjust="spacing" textLength="85" x="822.5" y="886.6748">Settlements</text><text fill="#000000" font-family="sans-serif" font-size="14" font-weight="bold" lengthAdjust="spacing" textLength="74" x="828" y="902.9717">Database</text><path d="M850,916.2734 C850,906.2734 868,906.2734 868,906.2734 C868,906.2734 886,906.2734 886,916.2734 L886,942.2734 C886,952.2734 868,952.2734 868,952.2734 C868,952.2734 850,952.2734 850,942.2734 L850,916.2734 " fill="#DAE8FC" style="stroke:#181818;stroke-width:1.5;"/><path d="M850,916.2734 C850,926.2734 868,926.2734 868,926.2734 C868,926.2734 886,926.2734 886,916.2734 " fill="none" style="stroke:#181818;stroke-width:1.5;"/><rect fill="#D5E8D4" height="62.8906" rx="2.5" ry="2.5" style="stroke:#181818;stroke-width:0.5;" width="142" x="923.5" y="104.3359"/><text fill="#000000" font-family="sans-serif" font-size="14" lengthAdjust="spacing" textLength="31" x="979" y="124.3311">A&amp;B</text><text fill="#000000" font-family="sans-serif" font-size="14" lengthAdjust="spacing" textLength="128" x="930.5" y="140.6279">Chart-of-Accounts</text><text fill="#000000" font-family="sans-serif" font-size="14" font-weight="bold" lengthAdjust="spacing" textLength="31" x="979" y="156.9248">SVC</text><rect fill="#D5E8D4" height="62.8906" rx="2.5" ry="2.5" style="stroke:#181818;stroke-width:0.5;" width="142" x="923.5" y="873.6797"/><text fill="#000000" font-family="sans-serif" font-size="14" lengthAdjust="spacing" textLength="31" x="979" y="893.6748">A&amp;B</text><text fill="#000000" font-family="sans-serif" font-size="14" lengthAdjust="spacing" textLength="128" x="930.5" y="909.9717">Chart-of-Accounts</text><text fill="#000000" font-family="sans-serif" font-size="14" font-weight="bold" lengthAdjust="spacing" textLength="31" x="979" y="926.2686">SVC</text><rect fill="#DAE8FC" height="62.8906" rx="2.5" ry="2.5" style="stroke:#181818;stroke-width:0.5;" width="154" x="1157.5" y="104.3359"/><text fill="#000000" font-family="sans-serif" font-size="14" lengthAdjust="spacing" textLength="31" x="1219" y="124.3311">A&amp;B</text><text fill="#000000" font-family="sans-serif" font-size="14" lengthAdjust="spacing" textLength="50" x="1192" y="140.6279">Ledger</text><text fill="#000000" font-family="sans-serif" font-size="14" font-weight="bold" lengthAdjust="spacing" textLength="31" x="1246" y="140.6279">SVC</text><text fill="#000000" font-family="sans-serif" font-size="14" lengthAdjust="spacing" textLength="140" x="1164.5" y="156.9248">TigerBeetle / builtin</text><rect fill="#DAE8FC" height="62.8906" rx="2.5" ry="2.5" style="stroke:#181818;stroke-width:0.5;" width="154" x="1157.5" y="873.6797"/><text fill="#000000" font-family="sans-serif" font-size="14" lengthAdjust="spacing" textLength="31" x="1219" y="893.6748">A&amp;B</text><text fill="#000000" font-family="sans-serif" font-size="14" lengthAdjust="spacing" textLength="50" x="1192" y="909.9717">Ledger</text><text fill="#000000" font-family="sans-serif" font-size="14" font-weight="bold" lengthAdjust="spacing" textLength="31" x="1246" y="909.9717">SVC</text><text fill="#000000" font-family="sans-serif" font-size="14" lengthAdjust="spacing" textLength="140" x="1164.5" y="926.2686">TigerBeetle / builtin</text><rect fill="#D5E8D4" height="46.5938" rx="2.5" ry="2.5" style="stroke:#181818;stroke-width:0.5;" width="97" x="1331" y="120.6328"/><text fill="#000000" font-family="sans-serif" font-size="14" lengthAdjust="spacing" textLength="83" x="1338" y="140.6279">Participants</text><text fill="#000000" font-family="sans-serif" font-size="14" font-weight="bold" lengthAdjust="spacing" textLength="31" x="1364" y="156.9248">SVC</text><rect fill="#D5E8D4" height="46.5938" rx="2.5" ry="2.5" style="stroke:#181818;stroke-width:0.5;" width="97" x="1331" y="873.6797"/><text fill="#000000" font-family="sans-serif" font-size="14" lengthAdjust="spacing" textLength="83" x="1338" y="893.6748">Participants</text><text fill="#000000" font-family="sans-serif" font-size="14" font-weight="bold" lengthAdjust="spacing" textLength="31" x="1364" y="909.9717">SVC</text><rect fill="#D5E8D4" height="62.8906" rx="2.5" ry="2.5" style="stroke:#181818;stroke-width:0.5;" width="115" x="1447.5" y="104.3359"/><text fill="#000000" font-family="sans-serif" font-size="14" lengthAdjust="spacing" textLength="60" x="1475" y="124.3311">Platform</text><text fill="#000000" font-family="sans-serif" font-size="14" lengthAdjust="spacing" textLength="97" x="1458.5" y="140.6279">Configuration</text><text fill="#000000" font-family="sans-serif" font-size="14" font-weight="bold" lengthAdjust="spacing" textLength="31" x="1489.5" y="156.9248">SVC</text><rect fill="#D5E8D4" height="62.8906" rx="2.5" ry="2.5" style="stroke:#181818;stroke-width:0.5;" width="115" x="1447.5" y="873.6797"/><text fill="#000000" font-family="sans-serif" font-size="14" lengthAdjust="spacing" textLength="60" x="1475" y="893.6748">Platform</text><text fill="#000000" font-family="sans-serif" font-size="14" lengthAdjust="spacing" textLength="97" x="1458.5" y="909.9717">Configuration</text><text fill="#000000" font-family="sans-serif" font-size="14" font-weight="bold" lengthAdjust="spacing" textLength="31" x="1489.5" y="926.2686">SVC</text><path d="M911,183.2266 L911,223.2266 L1077,223.2266 L1077,193.2266 L1067,183.2266 L911,183.2266 " fill="#FEFFDD" style="stroke:#181818;stroke-width:0.5;"/><path d="M1067,183.2266 L1067,193.2266 L1077,193.2266 L1067,183.2266 " fill="#FEFFDD" style="stroke:#181818;stroke-width:0.5;"/><text fill="#000000" font-family="sans-serif" font-size="13" lengthAdjust="spacing" textLength="118" x="933" y="200.2935">gRPC interface for</text><text fill="#000000" font-family="sans-serif" font-size="13" lengthAdjust="spacing" textLength="136" x="926" y="215.4263">Accounts &amp; Balances</text><path d="M1164,233.4922 L1164,273.4922 L1305,273.4922 L1305,243.4922 L1295,233.4922 L1164,233.4922 " fill="#FEFFDD" style="stroke:#181818;stroke-width:0.5;"/><path d="M1295,233.4922 L1295,243.4922 L1305,243.4922 L1295,233.4922 " fill="#FEFFDD" style="stroke:#181818;stroke-width:0.5;"/><text fill="#000000" font-family="sans-serif" font-size="13" lengthAdjust="spacing" textLength="75" x="1195" y="250.5591">TigerBeetle</text><text fill="#000000" font-family="sans-serif" font-size="13" lengthAdjust="spacing" textLength="111" x="1179" y="265.6919">enabled/disabled</text><path d="M10,285.7578 L328,285.7578 L328,292.8906 L318,302.8906 L10,302.8906 L10,285.7578 " fill="#EEEEEE" style="stroke:#000000;stroke-width:1.5;"/><rect fill="none" height="220.1953" style="stroke:#000000;stroke-width:1.5;" width="559.5" x="10" y="285.7578"/><text fill="#000000" font-family="sans-serif" font-size="13" font-weight="bold" lengthAdjust="spacing" textLength="273" x="25" y="298.8247">1. Transfer completed - Transfers BC</text><line style="stroke:#181818;stroke-width:1.0;" x1="72.5" x2="114.5" y1="324.0234" y2="324.0234"/><line style="stroke:#181818;stroke-width:1.0;" x1="114.5" x2="114.5" y1="324.0234" y2="337.0234"/><line style="stroke:#181818;stroke-width:1.0;" x1="73.5" x2="114.5" y1="337.0234" y2="337.0234"/><polygon fill="#181818" points="83.5,333.0234,73.5,337.0234,83.5,341.0234,79.5,337.0234" style="stroke:#181818;stroke-width:1.0;"/><text fill="#000000" font-family="sans-serif" font-size="13" font-weight="bold" lengthAdjust="spacing" textLength="9" x="79.5" y="318.9575">1</text><text fill="#000000" font-family="sans-serif" font-size="13" lengthAdjust="spacing" textLength="148" x="92.5" y="318.9575">Transfer fulfil occurred</text><line style="stroke:#181818;stroke-width:1.0;" x1="72.5" x2="114.5" y1="396.4219" y2="396.4219"/><line style="stroke:#181818;stroke-width:1.0;" x1="114.5" x2="114.5" y1="396.4219" y2="409.4219"/><line style="stroke:#181818;stroke-width:1.0;" x1="73.5" x2="114.5" y1="409.4219" y2="409.4219"/><polygon fill="#181818" points="83.5,405.4219,73.5,409.4219,83.5,413.4219,79.5,409.4219" style="stroke:#181818;stroke-width:1.0;"/><text fill="#000000" font-family="sans-serif" font-size="13" font-weight="bold" lengthAdjust="spacing" textLength="9" x="79.5" y="376.2231">2</text><text fill="#000000" font-family="sans-serif" font-size="13" lengthAdjust="spacing" textLength="239" x="92.5" y="361.0903">Include settlement model previously</text><text fill="#000000" font-family="sans-serif" font-size="13" lengthAdjust="spacing" textLength="121" x="92.5" y="376.2231">obtained using the</text><text fill="#000000" font-family="sans-serif" font-size="13" font-style="italic" lengthAdjust="spacing" textLength="138" x="217.5" y="376.2231">settlement-model-lib</text><text fill="#000000" font-family="sans-serif" font-size="13" lengthAdjust="spacing" textLength="66" x="92.5" y="391.356">during the</text><text fill="#000000" font-family="sans-serif" font-size="13" font-style="italic" lengthAdjust="spacing" textLength="105" x="162.5" y="391.356">transfer prepare</text><text fill="#000000" font-family="sans-serif" font-size="13" lengthAdjust="spacing" textLength="28" x="271.5" y="391.356">step</text><polygon fill="#181818" points="350.5,449.6875,360.5,453.6875,350.5,457.6875,354.5,453.6875" style="stroke:#181818;stroke-width:1.0;"/><line style="stroke:#181818;stroke-width:1.0;stroke-dasharray:2.0,2.0;" x1="72.5" x2="356.5" y1="453.6875" y2="453.6875"/><text fill="#000000" font-family="sans-serif" font-size="13" font-weight="bold" lengthAdjust="spacing" textLength="9" x="79.5" y="441.0552">3</text><text fill="#000000" font-family="sans-serif" font-size="13" font-weight="bold" lengthAdjust="spacing" textLength="197" x="92.5" y="433.4888">TransferCommittedFulfiled</text><text fill="#000000" font-family="sans-serif" font-size="13" lengthAdjust="spacing" textLength="52" x="293.5" y="433.4888">event is</text><text fill="#000000" font-family="sans-serif" font-size="13" lengthAdjust="spacing" textLength="207" x="92.5" y="448.6216">published by the "Transfers BC"</text><path d="M304.5,439.7708 L304.5,440.8542 L308.8333,443.0208 L313.1667,440.8542 L313.1667,439.7708 L304.5,439.7708 M304.5,441.9375 L304.5,446.2708 L313.1667,446.2708 L313.1667,441.9375 L308.8333,444.1042 L304.5,441.9375 " fill="#000000" style="stroke:;stroke-width:0.0;stroke-dasharray:;"/><polygon fill="#181818" points="486,493.9531,496,497.9531,486,501.9531,490,497.9531" style="stroke:#181818;stroke-width:1.0;"/><line style="stroke:#181818;stroke-width:1.0;" x1="362.5" x2="492" y1="497.9531" y2="497.9531"/><text fill="#000000" font-family="sans-serif" font-size="13" font-weight="bold" lengthAdjust="spacing" textLength="9" x="369.5" y="485.3208">4</text><text fill="#000000" font-family="sans-serif" font-size="13" lengthAdjust="spacing" textLength="44" x="382.5" y="477.7544">Invoke</text><text fill="#000000" font-family="sans-serif" font-size="13" lengthAdjust="spacing" textLength="84" x="382.5" y="492.8872">domain logic</text><path d="M426.5,519.9531 L685.5,519.9531 L685.5,527.0859 L675.5,537.0859 L426.5,537.0859 L426.5,519.9531 " fill="#EEEEEE" style="stroke:#000000;stroke-width:1.5;"/><rect fill="none" height="337.7266" style="stroke:#000000;stroke-width:1.5;" width="1146" x="426.5" y="519.9531"/><text fill="#000000" font-family="sans-serif" font-size="13" font-weight="bold" lengthAdjust="spacing" textLength="214" x="441.5" y="533.02">2. Settlement - Domain Logic</text><line style="stroke:#181818;stroke-width:1.0;" x1="498" x2="540" y1="558.2188" y2="558.2188"/><line style="stroke:#181818;stroke-width:1.0;" x1="540" x2="540" y1="558.2188" y2="571.2188"/><line style="stroke:#181818;stroke-width:1.0;" x1="499" x2="540" y1="571.2188" y2="571.2188"/><polygon fill="#181818" points="509,567.2188,499,571.2188,509,575.2188,505,571.2188" style="stroke:#181818;stroke-width:1.0;"/><text fill="#000000" font-family="sans-serif" font-size="13" font-weight="bold" lengthAdjust="spacing" textLength="9" x="505" y="553.1528">1</text><text fill="#000000" font-family="sans-serif" font-size="13" font-weight="bold" lengthAdjust="spacing" textLength="60" x="518" y="553.1528">Validate</text><text fill="#000000" font-family="sans-serif" font-size="13" lengthAdjust="spacing" textLength="277" x="582" y="553.1528">transfer settlement data (including model)</text><polygon fill="#181818" points="1493,596.3516,1503,600.3516,1493,604.3516,1497,600.3516" style="stroke:#181818;stroke-width:1.0;"/><line style="stroke:#181818;stroke-width:1.0;" x1="498" x2="1499" y1="600.3516" y2="600.3516"/><text fill="#000000" font-family="sans-serif" font-size="13" font-weight="bold" lengthAdjust="spacing" textLength="9" x="505" y="595.2856">2</text><text fill="#000000" font-family="sans-serif" font-size="13" font-weight="bold" lengthAdjust="spacing" textLength="41" x="518" y="595.2856">Fetch</text><text fill="#000000" font-family="sans-serif" font-size="13" lengthAdjust="spacing" textLength="156" x="563" y="595.2856">&amp; cache settlements BC</text><text fill="#000000" font-family="sans-serif" font-size="13" font-weight="bold" lengthAdjust="spacing" textLength="105" x="723" y="595.2856">configurations</text><text fill="#000000" font-family="sans-serif" font-size="13" lengthAdjust="spacing" textLength="230" x="832" y="595.2856">from the Platform Configuration BC</text><polygon fill="#181818" points="509,640.6172,499,644.6172,509,648.6172,505,644.6172" style="stroke:#181818;stroke-width:1.0;"/><polygon fill="#181818" points="856,640.6172,866,644.6172,856,648.6172,860,644.6172" style="stroke:#181818;stroke-width:1.0;"/><line style="stroke:#181818;stroke-width:1.0;" x1="503" x2="862" y1="644.6172" y2="644.6172"/><text fill="#000000" font-family="sans-serif" font-size="13" font-weight="bold" lengthAdjust="spacing" textLength="9" x="515" y="631.9849">3</text><text fill="#000000" font-family="sans-serif" font-size="13" font-weight="bold" lengthAdjust="spacing" textLength="123" x="528" y="624.4185">Determine batch</text><text fill="#000000" font-family="sans-serif" font-size="13" lengthAdjust="spacing" textLength="206" x="655" y="624.4185">using Settlement Transfer data.</text><text fill="#000000" font-family="sans-serif" font-size="13" font-style="italic" lengthAdjust="spacing" textLength="291" x="528" y="639.5513">Create new batch if no OPEN batch available</text><polygon fill="#181818" points="509,669.75,499,673.75,509,677.75,505,673.75" style="stroke:#181818;stroke-width:1.0;"/><polygon fill="#181818" points="1367.5,669.75,1377.5,673.75,1367.5,677.75,1371.5,673.75" style="stroke:#181818;stroke-width:1.0;"/><line style="stroke:#181818;stroke-width:1.0;" x1="503" x2="1373.5" y1="673.75" y2="673.75"/><text fill="#000000" font-family="sans-serif" font-size="13" font-weight="bold" lengthAdjust="spacing" textLength="9" x="515" y="668.6841">4</text><text fill="#000000" font-family="sans-serif" font-size="13" lengthAdjust="spacing" textLength="43" x="528" y="668.6841">Obtain</text><text fill="#000000" font-family="sans-serif" font-size="13" font-weight="bold" lengthAdjust="spacing" textLength="152" x="575" y="668.6841">Settlement accounts</text><text fill="#000000" font-family="sans-serif" font-size="13" lengthAdjust="spacing" textLength="217" x="731" y="668.6841">from the Participant Accounts list</text><polygon fill="#181818" points="982.5,698.8828,992.5,702.8828,982.5,706.8828,986.5,702.8828" style="stroke:#181818;stroke-width:1.0;"/><line style="stroke:#181818;stroke-width:1.0;" x1="498" x2="988.5" y1="702.8828" y2="702.8828"/><text fill="#000000" font-family="sans-serif" font-size="13" font-weight="bold" lengthAdjust="spacing" textLength="9" x="505" y="697.8169">5</text><text fill="#000000" font-family="sans-serif" font-size="13" lengthAdjust="spacing" textLength="424" x="518" y="697.8169">Create batch and participant settlement accounts, if non-existing</text><polygon fill="#181818" points="1222.5,743.1484,1232.5,747.1484,1222.5,751.1484,1226.5,747.1484" style="stroke:#181818;stroke-width:1.0;"/><line style="stroke:#181818;stroke-width:1.0;" x1="994.5" x2="1228.5" y1="747.1484" y2="747.1484"/><text fill="#000000" font-family="sans-serif" font-size="13" font-weight="bold" lengthAdjust="spacing" textLength="9" x="1001.5" y="734.5161">6</text><text fill="#000000" font-family="sans-serif" font-size="13" lengthAdjust="spacing" textLength="203" x="1014.5" y="726.9497">Create accounts,if non-existing</text><text fill="#000000" font-family="sans-serif" font-size="13" lengthAdjust="spacing" textLength="119" x="1014.5" y="742.0825">(internal A&amp;B call)</text><polygon fill="#181818" points="982.5,772.2813,992.5,776.2813,982.5,780.2813,986.5,776.2813" style="stroke:#181818;stroke-width:1.0;"/><line style="stroke:#181818;stroke-width:1.0;" x1="498" x2="988.5" y1="776.2813" y2="776.2813"/><text fill="#000000" font-family="sans-serif" font-size="13" font-weight="bold" lengthAdjust="spacing" textLength="9" x="505" y="771.2153">7</text><text fill="#000000" font-family="sans-serif" font-size="13" lengthAdjust="spacing" textLength="322" x="518" y="771.2153">Create Settlement entries (DR payer &amp; CR payee)</text><polygon fill="#181818" points="1222.5,816.5469,1232.5,820.5469,1222.5,824.5469,1226.5,820.5469" style="stroke:#181818;stroke-width:1.0;"/><line style="stroke:#181818;stroke-width:1.0;" x1="994.5" x2="1228.5" y1="820.5469" y2="820.5469"/><text fill="#000000" font-family="sans-serif" font-size="13" font-weight="bold" lengthAdjust="spacing" textLength="9" x="1001.5" y="807.9146">8</text><text fill="#000000" font-family="sans-serif" font-size="13" lengthAdjust="spacing" textLength="168" x="1014.5" y="800.3481">Create Settlement entries</text><text fill="#000000" font-family="sans-serif" font-size="13" lengthAdjust="spacing" textLength="119" x="1014.5" y="815.481">(internal A&amp;B call)</text><polygon fill="#181818" points="856,845.6797,866,849.6797,856,853.6797,860,849.6797" style="stroke:#181818;stroke-width:1.0;"/><line style="stroke:#181818;stroke-width:1.0;" x1="498" x2="862" y1="849.6797" y2="849.6797"/><text fill="#000000" font-family="sans-serif" font-size="13" font-weight="bold" lengthAdjust="spacing" textLength="9" x="505" y="844.6138">9</text><text fill="#000000" font-family="sans-serif" font-size="13" lengthAdjust="spacing" textLength="199" x="518" y="844.6138">Update settlement batch state</text><!--SRC=[bLLjRzis4FvS_Of30dYfC4TOaGAj4GHm_88LwDeWwVh9W45H9vieHMeYvIKRzjztfDuenrax0N5iylWyTyyT7rqR-oJn9hB2IeI_8u2rLlP1_8NmvYhw9xfEse38V1EgP1Kh8CESrT9-mKSxbsAd2bGME7rW5KGP_AD6nV4tD8Rjq4U2nDn6BTa3Mlhd3-ULBi3k4RvKJ9aSAmEtYoWY82kuA1c5d1q-4Tz6XH5dm0pGwjPsYzkKHr6KwiS0tKN2-VhzUhr-7_tqQWGwZjgeEBv7Os5-zo6EFRf9-RPoI-VBjwjtowleU-TN1rVGhqnb4gi01FtwZw8iTS64Wezw9tW0mifoAzqQdA-MYxTNo-XLnYnBcS4HYeTeDuBZMKe9p5Vlrei8LGOaKwFLd7DTE_89t3B9g6cjPckl6T0podS-kTsenPwMfZgVTgSTwSFNHSl7KYBSLINlQpuDyn6p7LRG7gN-2lfvY-Wc986q5j8ADI1Qjvqssrqj3bXfYw0FXDGJ-tNtxExl5Y3SUEQC8-IwWdxlHEb-p-dZC4-11pdqE67Q_I8gbahCaamO_sMCF6h1tI1CepsoZ9wZGGcZnd87OMPh3eFgOnR9B9LVKFUqoiMkhfWLMcsKPqGyfkl3uIX-HEsYEEsVversbQvB-EMolzp0TL5Aj9Z1T7pZMMsrgekKZCHBTNIrONhpV6qsuEQrp8K4pNbTLPtSFuRnGN5PPqYkrPjIeJEKK5Pu4BesyccZT6hfLbBQjH5gvmqhIOOJKtzYAaMQ91kLrTKGrB4vE98OamICnVA532d5mJ9cT3Uw2XUwA8GbuTQ-KipY69eeGVDGrgaKPa_vfK-UzsnibjSJL0UKkiGfbzfWTkFv1wgMTt0Pfyj1VqEgfZ4al-nwsxNrpMNeurC8ZUkudMFi4sHn_9L9GOv6fWMzP45BdDd1XV2zSk9wmL-V1X-FfGDVe-LxGfu0PtmVzjfVkJZcuP0RYkpVIzrD6Dy3DxBFkQ_RoiXj7UkI1hqgQ6mWPGr_Cps1RFq0k_ekDof95XMI2g3mp-OKY9nC0pxVhJwr2-p0X7IkaYGlvF3C4cRmsG-mCzk1dBKEE2etS87U8Mcsx6cf1w-VGPjvcoIPGEWevZdjpqrfQegFX4_2U8e1iOCFZRzdwK6EC3RgmlkzOXBeBKFzbY-DIS_KWmRQq5ybw6LuiRodEfweGnDOD5_nzVSJ_G_8_v5XCqip-BrqDoFKi17PMDQyJQ9_0G00]--></g></svg>