<?xml version="1.0" encoding="us-ascii" standalone="no"?><svg xmlns="http://www.w3.org/2000/svg" xmlns:xlink="http://www.w3.org/1999/xlink" contentStyleType="text/css" height="1321px" preserveAspectRatio="none" style="width:1585px;height:1321px;background:#FFFFFF;" version="1.1" viewBox="0 0 1585 1321" width="1585px" zoomAndPan="magnify"><defs><linearGradient id="ghcbw92k1imq30" x1="50%" x2="50%" y1="0%" y2="100%"><stop offset="0%" stop-color="#00FFFF"/><stop offset="100%" stop-color="#5F9EA0"/></linearGradient></defs><g><rect fill="url(#ghcbw92k1imq30)" height="64.4799" id="_title" rx="7.5" ry="7.5" style="stroke:url(#ghcbw92k1imq30);stroke-width:2.0;" width="272" x="658" y="10"/><text fill="#000000" font-family="sans-serif" font-size="20" font-weight="bold" lengthAdjust="spacing" textLength="257" x="663" y="36.38">Settlement Transfer from</text><text fill="#000000" font-family="sans-serif" font-size="20" font-weight="bold" lengthAdjust="spacing" textLength="150" x="719" y="63.62">Central-Ledger</text><rect fill="#F9FFF9" height="1227.2584" style="stroke:#181818;stroke-width:0.5;" width="840.5" x="344" y="81.4799"/><text fill="#000000" font-family="sans-serif" font-size="13" font-weight="bold" lengthAdjust="spacing" textLength="101" x="712.25" y="95.377">Settlements BC</text><rect fill="#FFFFF9" height="1227.2584" style="stroke:#181818;stroke-width:0.5;" width="386.5" x="1186.5" y="81.4799"/><text fill="#000000" font-family="sans-serif" font-size="13" font-weight="bold" lengthAdjust="spacing" textLength="213" x="1271.75" y="95.377">Settlements-BC - Ledger Adapter</text><rect fill="none" height="261.0602" style="stroke:#000000;stroke-width:1.5;" width="779.5" x="23" y="406.902"/><rect fill="none" height="541.7083" style="stroke:#000000;stroke-width:1.5;" width="1162" x="417" y="681.9622"/><line style="stroke:#181818;stroke-width:0.5;stroke-dasharray:5.0,5.0;" x1="90" x2="90" y1="168.2539" y2="1240.6705"/><line style="stroke:#181818;stroke-width:0.5;stroke-dasharray:5.0,5.0;" x1="382" x2="382" y1="168.2539" y2="1240.6705"/><line style="stroke:#181818;stroke-width:0.5;stroke-dasharray:5.0,5.0;" x1="481" x2="481" y1="168.2539" y2="1240.6705"/><line style="stroke:#181818;stroke-width:0.5;stroke-dasharray:5.0,5.0;" x1="734.5" x2="734.5" y1="168.2539" y2="1240.6705"/><line style="stroke:#181818;stroke-width:0.5;stroke-dasharray:5.0,5.0;" x1="1103.5" x2="1103.5" y1="168.2539" y2="1240.6705"/><line style="stroke:#181818;stroke-width:0.5;stroke-dasharray:5.0,5.0;" x1="1261.5" x2="1261.5" y1="168.2539" y2="1240.6705"/><line style="stroke:#181818;stroke-width:0.5;stroke-dasharray:5.0,5.0;" x1="1504" x2="1504" y1="168.2539" y2="1240.6705"/><rect fill="#E2E2F0" height="33.0679" rx="2.5" ry="2.5" style="stroke:#181818;stroke-width:0.5;" width="115" x="33" y="134.186"/><text fill="#000000" font-family="sans-serif" font-size="14" lengthAdjust="spacing" textLength="101" x="40" y="156.1519">Central-Ledger</text><rect fill="#E2E2F0" height="33.0679" rx="2.5" ry="2.5" style="stroke:#181818;stroke-width:0.5;" width="115" x="33" y="1239.6705"/><text fill="#000000" font-family="sans-serif" font-size="14" lengthAdjust="spacing" textLength="101" x="40" y="1261.6364">Central-Ledger</text><rect fill="#D5E8D4" height="33.0679" rx="2.5" ry="2.5" style="stroke:#181818;stroke-width:0.5;" width="69" x="348" y="134.186"/><text fill="#000000" font-family="sans-serif" font-size="14" lengthAdjust="spacing" textLength="55" x="355" y="156.1519">Rest API</text><rect fill="#D5E8D4" height="33.0679" rx="2.5" ry="2.5" style="stroke:#181818;stroke-width:0.5;" width="69" x="348" y="1239.6705"/><text fill="#000000" font-family="sans-serif" font-size="14" lengthAdjust="spacing" textLength="55" x="355" y="1261.6364">Rest API</text><rect fill="#D5E8D4" height="33.0679" rx="2.5" ry="2.5" style="stroke:#181818;stroke-width:0.5;" width="109" x="427" y="134.186"/><text fill="#000000" font-family="sans-serif" font-size="14" lengthAdjust="spacing" textLength="95" x="434" y="156.1519">Event Handler</text><rect fill="#D5E8D4" height="33.0679" rx="2.5" ry="2.5" style="stroke:#181818;stroke-width:0.5;" width="109" x="427" y="1239.6705"/><text fill="#000000" font-family="sans-serif" font-size="14" lengthAdjust="spacing" textLength="95" x="434" y="1261.6364">Event Handler</text><rect fill="#EDC54D" height="52.1358" rx="2.5" ry="2.5" style="stroke:#181818;stroke-width:0.5;" width="116" x="676.5" y="115.118"/><text fill="#000000" font-family="sans-serif" font-size="14" lengthAdjust="spacing" textLength="102" x="683.5" y="137.084">Settlements BC</text><text fill="#000000" font-family="sans-serif" font-size="14" lengthAdjust="spacing" textLength="66" x="701.5" y="156.1519">App Logic</text><rect fill="#EDC54D" height="52.1358" rx="2.5" ry="2.5" style="stroke:#181818;stroke-width:0.5;" width="116" x="676.5" y="1239.6705"/><text fill="#000000" font-family="sans-serif" font-size="14" lengthAdjust="spacing" textLength="102" x="683.5" y="1261.6364">Settlements BC</text><text fill="#000000" font-family="sans-serif" font-size="14" lengthAdjust="spacing" textLength="66" x="701.5" y="1280.7043">App Logic</text><text fill="#000000" font-family="sans-serif" font-size="14" lengthAdjust="spacing" textLength="148" x="1026.5" y="164.1519">Settlements-Database</text><path d="M1085.5,113.186 C1085.5,103.186 1103.5,103.186 1103.5,103.186 C1103.5,103.186 1121.5,103.186 1121.5,113.186 L1121.5,139.186 C1121.5,149.186 1103.5,149.186 1103.5,149.186 C1103.5,149.186 1085.5,149.186 1085.5,139.186 L1085.5,113.186 " fill="#DAE8FC" style="stroke:#181818;stroke-width:1.5;"/><path d="M1085.5,113.186 C1085.5,123.186 1103.5,123.186 1103.5,123.186 C1103.5,123.186 1121.5,123.186 1121.5,113.186 " fill="none" style="stroke:#181818;stroke-width:1.5;"/><text fill="#000000" font-family="sans-serif" font-size="14" lengthAdjust="spacing" textLength="148" x="1026.5" y="1254.6364">Settlements-Database</text><path d="M1085.5,1268.7384 C1085.5,1258.7384 1103.5,1258.7384 1103.5,1258.7384 C1103.5,1258.7384 1121.5,1258.7384 1121.5,1268.7384 L1121.5,1294.7384 C1121.5,1304.7384 1103.5,1304.7384 1103.5,1304.7384 C1103.5,1304.7384 1085.5,1304.7384 1085.5,1294.7384 L1085.5,1268.7384 " fill="#DAE8FC" style="stroke:#181818;stroke-width:1.5;"/><path d="M1085.5,1268.7384 C1085.5,1278.7384 1103.5,1278.7384 1103.5,1278.7384 C1103.5,1278.7384 1121.5,1278.7384 1121.5,1268.7384 " fill="none" style="stroke:#181818;stroke-width:1.5;"/><rect fill="#D5E8D4" height="33.0679" rx="2.5" ry="2.5" style="stroke:#181818;stroke-width:0.5;" width="143" x="1190.5" y="134.186"/><text fill="#000000" font-family="sans-serif" font-size="14" lengthAdjust="spacing" textLength="129" x="1197.5" y="156.1519">TigerBeetle Cluster</text><rect fill="#D5E8D4" height="33.0679" rx="2.5" ry="2.5" style="stroke:#181818;stroke-width:0.5;" width="143" x="1190.5" y="1239.6705"/><text fill="#000000" font-family="sans-serif" font-size="14" lengthAdjust="spacing" textLength="129" x="1197.5" y="1261.6364">TigerBeetle Cluster</text><text fill="#000000" font-family="sans-serif" font-size="14" lengthAdjust="spacing" textLength="124" x="1439" y="164.1519">TigerBeetle Nodes</text><path d="M1486,113.186 C1486,103.186 1504,103.186 1504,103.186 C1504,103.186 1522,103.186 1522,113.186 L1522,139.186 C1522,149.186 1504,149.186 1504,149.186 C1504,149.186 1486,149.186 1486,139.186 L1486,113.186 " fill="#DAE8FC" style="stroke:#181818;stroke-width:1.5;"/><path d="M1486,113.186 C1486,123.186 1504,123.186 1504,123.186 C1504,123.186 1522,123.186 1522,113.186 " fill="none" style="stroke:#181818;stroke-width:1.5;"/><text fill="#000000" font-family="sans-serif" font-size="14" lengthAdjust="spacing" textLength="124" x="1439" y="1254.6364">TigerBeetle Nodes</text><path d="M1486,1268.7384 C1486,1258.7384 1504,1258.7384 1504,1258.7384 C1504,1258.7384 1522,1258.7384 1522,1268.7384 L1522,1294.7384 C1522,1304.7384 1504,1304.7384 1504,1304.7384 C1504,1304.7384 1486,1304.7384 1486,1294.7384 L1486,1268.7384 " fill="#DAE8FC" style="stroke:#181818;stroke-width:1.5;"/><path d="M1486,1268.7384 C1486,1278.7384 1504,1278.7384 1504,1278.7384 C1504,1278.7384 1522,1278.7384 1522,1268.7384 " fill="none" style="stroke:#181818;stroke-width:1.5;"/><path d="M5,183.2539 L5,228.2539 L177,228.2539 L177,193.2539 L167,183.2539 L5,183.2539 " fill="#FEFFDD" style="stroke:#181818;stroke-width:0.5;"/><path d="M167,183.2539 L167,193.2539 L177,193.2539 L167,183.2539 " fill="#FEFFDD" style="stroke:#181818;stroke-width:0.5;"/><text fill="#000000" font-family="sans-serif" font-size="13" lengthAdjust="spacing" textLength="151" x="11" y="202.1509">Central-Ledger maintains</text><text fill="#000000" font-family="sans-serif" font-size="13" lengthAdjust="spacing" textLength="103" x="11" y="219.8569">liquidity balances</text><path d="M362,238.6659 L362,301.6659 L600,301.6659 L600,248.6659 L590,238.6659 L362,238.6659 " fill="#FEFFDD" style="stroke:#181818;stroke-width:0.5;"/><path d="M590,238.6659 L590,248.6659 L600,248.6659 L590,238.6659 " fill="#FEFFDD" style="stroke:#181818;stroke-width:0.5;"/><text fill="#000000" font-family="sans-serif" font-size="13" lengthAdjust="spacing" textLength="74" x="368" y="257.5629">Kafka Topics</text><text fill="#000000" font-family="sans-serif" font-size="13" lengthAdjust="spacing" textLength="165" x="368" y="275.2689">- create Settlement Transfer</text><text fill="#000000" font-family="sans-serif" font-size="13" lengthAdjust="spacing" textLength="217" x="368" y="292.975">- result of Settlement Transfer create</text><path d="M1135,311.784 L1135,356.784 L1388,356.784 L1388,321.784 L1378,311.784 L1135,311.784 " fill="#FEFFDD" style="stroke:#181818;stroke-width:0.5;"/><path d="M1378,311.784 L1378,321.784 L1388,321.784 L1378,311.784 " fill="#FEFFDD" style="stroke:#181818;stroke-width:0.5;"/><text fill="#000000" font-family="sans-serif" font-size="13" lengthAdjust="spacing" textLength="198" x="1141" y="330.681">Invoke native TigerBeetle NodeJS</text><text fill="#000000" font-family="sans-serif" font-size="13" lengthAdjust="spacing" textLength="232" x="1141" y="348.387">client from Settlement Ledger Adapter.</text><path d="M1434,367.196 L1434,394.196 L1573,394.196 L1573,377.196 L1563,367.196 L1434,367.196 " fill="#FEFFDD" style="stroke:#181818;stroke-width:0.5;"/><path d="M1563,367.196 L1563,377.196 L1573,377.196 L1563,367.196 " fill="#FEFFDD" style="stroke:#181818;stroke-width:0.5;"/><text fill="#000000" font-family="sans-serif" font-size="13" lengthAdjust="spacing" textLength="118" x="1440" y="386.093">TigerBeetle enabled</text><path d="M23,406.902 L370,406.902 L370,416.608 L360,426.608 L23,426.608 L23,406.902 " fill="#EEEEEE" style="stroke:#000000;stroke-width:1.5;"/><rect fill="none" height="261.0602" style="stroke:#000000;stroke-width:1.5;" width="779.5" x="23" y="406.902"/><text fill="#000000" font-family="sans-serif" font-size="13" font-weight="bold" lengthAdjust="spacing" textLength="302" x="38" y="421.799">1. Create Settlement Transfer - Central Ledger</text><line style="stroke:#181818;stroke-width:1.0;stroke-dasharray:2.0,2.0;" x1="90.5" x2="132.5" y1="485.7261" y2="485.7261"/><line style="stroke:#181818;stroke-width:1.0;stroke-dasharray:2.0,2.0;" x1="132.5" x2="132.5" y1="485.7261" y2="498.7261"/><line style="stroke:#181818;stroke-width:1.0;stroke-dasharray:2.0,2.0;" x1="91.5" x2="132.5" y1="498.7261" y2="498.7261"/><polygon fill="#181818" points="100.5,481.7261,90.5,485.7261,100.5,489.7261,96.5,485.7261" style="stroke:#181818;stroke-width:1.0;"/><polygon fill="#181818" points="101.5,494.7261,91.5,498.7261,101.5,502.7261,97.5,498.7261" style="stroke:#181818;stroke-width:1.0;"/><text fill="#000000" font-family="sans-serif" font-size="13" font-weight="bold" lengthAdjust="spacing" textLength="7" x="97.5" y="462.2111">1</text><text fill="#000000" font-family="sans-serif" font-size="13" font-weight="bold" lengthAdjust="spacing" textLength="111" x="108.5" y="444.505">Transfer prepare</text><text fill="#000000" font-family="sans-serif" font-size="13" lengthAdjust="spacing" textLength="3" x="219.5" y="444.505">.</text><text fill="#000000" font-family="sans-serif" font-size="13" lengthAdjust="spacing" textLength="267" x="108.5" y="462.2111">Obtain settlement model and allocation data</text><text fill="#000000" font-family="sans-serif" font-size="13" lengthAdjust="spacing" textLength="185" x="108.5" y="479.9171">via Central-Ledger rules engine</text><line style="stroke:#181818;stroke-width:1.0;stroke-dasharray:2.0,2.0;" x1="90.5" x2="132.5" y1="548.1381" y2="548.1381"/><line style="stroke:#181818;stroke-width:1.0;stroke-dasharray:2.0,2.0;" x1="132.5" x2="132.5" y1="548.1381" y2="561.1381"/><line style="stroke:#181818;stroke-width:1.0;stroke-dasharray:2.0,2.0;" x1="91.5" x2="132.5" y1="561.1381" y2="561.1381"/><polygon fill="#181818" points="100.5,544.1381,90.5,548.1381,100.5,552.1381,96.5,548.1381" style="stroke:#181818;stroke-width:1.0;"/><polygon fill="#181818" points="101.5,557.1381,91.5,561.1381,101.5,565.1381,97.5,561.1381" style="stroke:#181818;stroke-width:1.0;"/><text fill="#000000" font-family="sans-serif" font-size="13" font-weight="bold" lengthAdjust="spacing" textLength="7" x="97.5" y="533.4761">2</text><text fill="#000000" font-family="sans-serif" font-size="13" font-weight="bold" lengthAdjust="spacing" textLength="90" x="108.5" y="524.6231">Transfer fulfil</text><text fill="#000000" font-family="sans-serif" font-size="13" lengthAdjust="spacing" textLength="3" x="198.5" y="524.6231">.</text><text fill="#000000" font-family="sans-serif" font-size="13" lengthAdjust="spacing" textLength="219" x="108.5" y="542.3291">At this point, the transfer has cleared</text><polygon fill="#181818" points="469.5,624.2562,479.5,628.2562,469.5,632.2562,473.5,628.2562" style="stroke:#181818;stroke-width:1.0;"/><line style="stroke:#181818;stroke-width:1.0;" x1="90.5" x2="475.5" y1="628.2562" y2="628.2562"/><text fill="#000000" font-family="sans-serif" font-size="13" font-weight="bold" lengthAdjust="spacing" textLength="7" x="97.5" y="604.7411">3</text><text fill="#000000" font-family="sans-serif" font-size="13" lengthAdjust="spacing" textLength="3" x="108.5" y="587.0351">&#160;</text><text fill="#000000" font-family="sans-serif" font-size="13" font-style="italic" lengthAdjust="spacing" textLength="75" x="108.5" y="604.7411">publishEvent</text><text fill="#000000" font-family="sans-serif" font-size="13" lengthAdjust="spacing" textLength="143" x="186.5" y="604.7411">will all necessary data as</text><text fill="#000000" font-family="sans-serif" font-size="13" font-style="italic" font-weight="bold" lengthAdjust="spacing" textLength="177" x="108.5" y="622.4472">TransferPreparedEvtPayload</text><polygon fill="#181818" points="492.5,655.9622,482.5,659.9622,492.5,663.9622,488.5,659.9622" style="stroke:#181818;stroke-width:1.0;"/><line style="stroke:#181818;stroke-width:1.0;" x1="486.5" x2="733.5" y1="659.9622" y2="659.9622"/><text fill="#000000" font-family="sans-serif" font-size="13" font-weight="bold" lengthAdjust="spacing" textLength="7" x="498.5" y="654.1532">1</text><text fill="#000000" font-family="sans-serif" font-size="13" lengthAdjust="spacing" textLength="214" x="509.5" y="654.1532">Listen for Settlement Transfer event</text><path d="M417,681.9622 L623,681.9622 L623,691.6682 L613,701.6682 L417,701.6682 L417,681.9622 " fill="#EEEEEE" style="stroke:#000000;stroke-width:1.5;"/><rect fill="none" height="541.7083" style="stroke:#000000;stroke-width:1.5;" width="1162" x="417" y="681.9622"/><text fill="#000000" font-family="sans-serif" font-size="13" font-weight="bold" lengthAdjust="spacing" textLength="161" x="432" y="696.8592">2. Settlement - App Logic</text><line style="stroke:#181818;stroke-width:1.0;stroke-dasharray:2.0,2.0;" x1="734.5" x2="776.5" y1="743.0802" y2="743.0802"/><line style="stroke:#181818;stroke-width:1.0;stroke-dasharray:2.0,2.0;" x1="776.5" x2="776.5" y1="743.0802" y2="756.0802"/><line style="stroke:#181818;stroke-width:1.0;stroke-dasharray:2.0,2.0;" x1="735.5" x2="776.5" y1="756.0802" y2="756.0802"/><polygon fill="#181818" points="744.5,739.0802,734.5,743.0802,744.5,747.0802,740.5,743.0802" style="stroke:#181818;stroke-width:1.0;"/><polygon fill="#181818" points="745.5,752.0802,735.5,756.0802,745.5,760.0802,741.5,756.0802" style="stroke:#181818;stroke-width:1.0;"/><text fill="#000000" font-family="sans-serif" font-size="13" font-weight="bold" lengthAdjust="spacing" textLength="7" x="741.5" y="728.4182">2</text><text fill="#000000" font-family="sans-serif" font-size="13" lengthAdjust="spacing" textLength="214" x="752.5" y="719.5652">Settlement Transfer event triggered</text><text fill="#000000" font-family="sans-serif" font-size="13" lengthAdjust="spacing" textLength="77" x="752.5" y="737.2712">converted as</text><text fill="#000000" font-family="sans-serif" font-size="13" font-style="italic" font-weight="bold" lengthAdjust="spacing" textLength="78" x="832.5" y="737.2712">ITransferDto</text><line style="stroke:#181818;stroke-width:1.0;stroke-dasharray:2.0,2.0;" x1="734.5" x2="776.5" y1="787.7862" y2="787.7862"/><line style="stroke:#181818;stroke-width:1.0;stroke-dasharray:2.0,2.0;" x1="776.5" x2="776.5" y1="787.7862" y2="800.7862"/><line style="stroke:#181818;stroke-width:1.0;stroke-dasharray:2.0,2.0;" x1="735.5" x2="776.5" y1="800.7862" y2="800.7862"/><polygon fill="#181818" points="745.5,796.7862,735.5,800.7862,745.5,804.7862,741.5,800.7862" style="stroke:#181818;stroke-width:1.0;"/><text fill="#000000" font-family="sans-serif" font-size="13" font-weight="bold" lengthAdjust="spacing" textLength="7" x="741.5" y="781.9772">3</text><text fill="#000000" font-family="sans-serif" font-size="13" lengthAdjust="spacing" textLength="199" x="752.5" y="781.9772">Validate Settlement Transfer data</text><polygon fill="#181818" points="745.5,846.1983,735.5,850.1983,745.5,854.1983,741.5,850.1983" style="stroke:#181818;stroke-width:1.0;"/><polygon fill="#181818" points="1091.5,846.1983,1101.5,850.1983,1091.5,854.1983,1095.5,850.1983" style="stroke:#181818;stroke-width:1.0;"/><line style="stroke:#181818;stroke-width:1.0;stroke-dasharray:2.0,2.0;" x1="739.5" x2="1097.5" y1="850.1983" y2="850.1983"/><text fill="#000000" font-family="sans-serif" font-size="13" font-weight="bold" lengthAdjust="spacing" textLength="7" x="751.5" y="835.5363">4</text><text fill="#000000" font-family="sans-serif" font-size="13" lengthAdjust="spacing" textLength="191" x="762.5" y="826.6833">Fetch &amp; cache settlement config</text><text fill="#000000" font-family="sans-serif" font-size="13" font-weight="bold" lengthAdjust="spacing" textLength="202" x="762.5" y="844.3893">Platform Config BC / Admin API</text><polygon fill="#181818" points="745.5,895.6103,735.5,899.6103,745.5,903.6103,741.5,899.6103" style="stroke:#181818;stroke-width:1.0;"/><polygon fill="#181818" points="1091.5,895.6103,1101.5,899.6103,1091.5,903.6103,1095.5,899.6103" style="stroke:#181818;stroke-width:1.0;"/><line style="stroke:#181818;stroke-width:1.0;stroke-dasharray:2.0,2.0;" x1="739.5" x2="1097.5" y1="899.6103" y2="899.6103"/><text fill="#000000" font-family="sans-serif" font-size="13" font-weight="bold" lengthAdjust="spacing" textLength="7" x="751.5" y="884.9483">5</text><text fill="#000000" font-family="sans-serif" font-size="13" font-weight="bold" lengthAdjust="spacing" textLength="122" x="762.5" y="876.0953">Obtain open batch</text><text fill="#000000" font-family="sans-serif" font-size="13" lengthAdjust="spacing" textLength="209" x="887.5" y="876.0953">based on Settlement Transfer data.</text><text fill="#000000" font-family="sans-serif" font-size="13" font-style="italic" lengthAdjust="spacing" textLength="250" x="762.5" y="893.8013">Create new batch if no OPEN batch available</text><polygon fill="#181818" points="745.5,927.3163,735.5,931.3163,745.5,935.3163,741.5,931.3163" style="stroke:#181818;stroke-width:1.0;"/><polygon fill="#181818" points="1250,927.3163,1260,931.3163,1250,935.3163,1254,931.3163" style="stroke:#181818;stroke-width:1.0;"/><line style="stroke:#181818;stroke-width:1.0;" x1="739.5" x2="1256" y1="931.3163" y2="931.3163"/><text fill="#000000" font-family="sans-serif" font-size="13" font-weight="bold" lengthAdjust="spacing" textLength="7" x="751.5" y="925.5073">6</text><text fill="#000000" font-family="sans-serif" font-size="13" lengthAdjust="spacing" textLength="41" x="762.5" y="925.5073">Obtain</text><text fill="#000000" font-family="sans-serif" font-size="13" font-weight="bold" lengthAdjust="spacing" textLength="138" x="806.5" y="925.5073">Settlement accounts</text><text fill="#000000" font-family="sans-serif" font-size="13" lengthAdjust="spacing" textLength="152" x="947.5" y="925.5073">using Participant account</text><polygon fill="#181818" points="1273,959.0223,1263,963.0223,1273,967.0223,1269,963.0223" style="stroke:#181818;stroke-width:1.0;"/><polygon fill="#181818" points="1492,959.0223,1502,963.0223,1492,967.0223,1496,963.0223" style="stroke:#181818;stroke-width:1.0;"/><line style="stroke:#181818;stroke-width:1.0;stroke-dasharray:2.0,2.0;" x1="1267" x2="1498" y1="963.0223" y2="963.0223"/><text fill="#000000" font-family="sans-serif" font-size="13" font-weight="bold" lengthAdjust="spacing" textLength="7" x="1279" y="957.2133">7</text><text fill="#000000" font-family="sans-serif" font-size="13" lengthAdjust="spacing" textLength="174" x="1290" y="957.2133">Create account, if none exists</text><polygon fill="#181818" points="745.5,990.7284,735.5,994.7284,745.5,998.7284,741.5,994.7284" style="stroke:#181818;stroke-width:1.0;"/><polygon fill="#181818" points="1091.5,990.7284,1101.5,994.7284,1091.5,998.7284,1095.5,994.7284" style="stroke:#181818;stroke-width:1.0;"/><line style="stroke:#181818;stroke-width:1.0;stroke-dasharray:2.0,2.0;" x1="739.5" x2="1097.5" y1="994.7284" y2="994.7284"/><text fill="#000000" font-family="sans-serif" font-size="13" font-weight="bold" lengthAdjust="spacing" textLength="7" x="751.5" y="988.9194">8</text><text fill="#000000" font-family="sans-serif" font-size="13" lengthAdjust="spacing" textLength="88" x="762.5" y="988.9194">Create or fetch</text><text fill="#000000" font-family="sans-serif" font-size="13" font-weight="bold" lengthAdjust="spacing" textLength="175" x="853.5" y="988.9194">Settlement Batch Account</text><polygon fill="#181818" points="745.5,1022.4344,735.5,1026.4344,745.5,1030.4344,741.5,1026.4344" style="stroke:#181818;stroke-width:1.0;"/><line style="stroke:#181818;stroke-width:1.0;" x1="739.5" x2="1261" y1="1026.4344" y2="1026.4344"/><text fill="#000000" font-family="sans-serif" font-size="13" font-weight="bold" lengthAdjust="spacing" textLength="7" x="751.5" y="1020.6254">9</text><text fill="#000000" font-family="sans-serif" font-size="13" lengthAdjust="spacing" textLength="41" x="762.5" y="1020.6254">Return</text><text fill="#000000" font-family="sans-serif" font-size="13" font-weight="bold" lengthAdjust="spacing" textLength="55" x="806.5" y="1020.6254">Account</text><text fill="#000000" font-family="sans-serif" font-size="13" lengthAdjust="spacing" textLength="23" x="864.5" y="1020.6254">info</text><polygon fill="#181818" points="1250,1054.1404,1260,1058.1404,1250,1062.1404,1254,1058.1404" style="stroke:#181818;stroke-width:1.0;"/><line style="stroke:#181818;stroke-width:1.0;" x1="734.5" x2="1256" y1="1058.1404" y2="1058.1404"/><text fill="#000000" font-family="sans-serif" font-size="13" font-weight="bold" lengthAdjust="spacing" textLength="14" x="741.5" y="1052.3314">10</text><text fill="#000000" font-family="sans-serif" font-size="13" lengthAdjust="spacing" textLength="160" x="759.5" y="1052.3314">Create Settlement Transfer</text><polygon fill="#181818" points="1273,1103.5524,1263,1107.5524,1273,1111.5524,1269,1107.5524" style="stroke:#181818;stroke-width:1.0;"/><polygon fill="#181818" points="1492,1103.5524,1502,1107.5524,1492,1111.5524,1496,1107.5524" style="stroke:#181818;stroke-width:1.0;"/><line style="stroke:#181818;stroke-width:1.0;" x1="1267" x2="1498" y1="1107.5524" y2="1107.5524"/><text fill="#000000" font-family="sans-serif" font-size="13" font-weight="bold" lengthAdjust="spacing" textLength="14" x="1279" y="1092.8904">11</text><text fill="#000000" font-family="sans-serif" font-size="13" lengthAdjust="spacing" textLength="197" x="1297" y="1084.0374">Create Transfer: update accounts</text><text fill="#000000" font-family="sans-serif" font-size="13" lengthAdjust="spacing" textLength="141" x="1297" y="1101.7434">to DR payer &amp; CR payee</text><polygon fill="#181818" points="745.5,1135.2584,735.5,1139.2584,745.5,1143.2584,741.5,1139.2584" style="stroke:#181818;stroke-width:1.0;"/><line style="stroke:#181818;stroke-width:1.0;" x1="739.5" x2="1261" y1="1139.2584" y2="1139.2584"/><text fill="#000000" font-family="sans-serif" font-size="13" font-weight="bold" lengthAdjust="spacing" textLength="14" x="751.5" y="1133.4494">12</text><text fill="#000000" font-family="sans-serif" font-size="13" lengthAdjust="spacing" textLength="41" x="769.5" y="1133.4494">Return</text><text fill="#000000" font-family="sans-serif" font-size="13" font-weight="bold" lengthAdjust="spacing" textLength="56" x="813.5" y="1133.4494">Transfer</text><text fill="#000000" font-family="sans-serif" font-size="13" lengthAdjust="spacing" textLength="75" x="872.5" y="1133.4494">creation info</text><line style="stroke:#181818;stroke-width:1.0;" x1="734.5" x2="776.5" y1="1170.9645" y2="1170.9645"/><line style="stroke:#181818;stroke-width:1.0;" x1="776.5" x2="776.5" y1="1170.9645" y2="1183.9645"/><line style="stroke:#181818;stroke-width:1.0;" x1="735.5" x2="776.5" y1="1183.9645" y2="1183.9645"/><polygon fill="#181818" points="744.5,1166.9645,734.5,1170.9645,744.5,1174.9645,740.5,1170.9645" style="stroke:#181818;stroke-width:1.0;"/><polygon fill="#181818" points="745.5,1179.9645,735.5,1183.9645,745.5,1187.9645,741.5,1183.9645" style="stroke:#181818;stroke-width:1.0;"/><text fill="#000000" font-family="sans-serif" font-size="13" font-weight="bold" lengthAdjust="spacing" textLength="14" x="741.5" y="1165.1555">13</text><text fill="#000000" font-family="sans-serif" font-size="13" lengthAdjust="spacing" textLength="47" x="759.5" y="1165.1555">Prepare</text><text fill="#000000" font-family="sans-serif" font-size="13" font-weight="bold" lengthAdjust="spacing" textLength="116" x="809.5" y="1165.1555">Transfer/Account</text><text fill="#000000" font-family="sans-serif" font-size="13" lengthAdjust="spacing" textLength="85" x="928.5" y="1165.1555">response data</text><polygon fill="#181818" points="492.5,1211.6705,482.5,1215.6705,492.5,1219.6705,488.5,1215.6705" style="stroke:#181818;stroke-width:1.0;"/><line style="stroke:#181818;stroke-width:1.0;" x1="486.5" x2="733.5" y1="1215.6705" y2="1215.6705"/><text fill="#000000" font-family="sans-serif" font-size="13" font-weight="bold" lengthAdjust="spacing" textLength="14" x="498.5" y="1209.8615">14</text><text fill="#000000" font-family="sans-serif" font-size="13" lengthAdjust="spacing" textLength="44" x="516.5" y="1209.8615">Publish</text><text fill="#000000" font-family="sans-serif" font-size="13" font-weight="bold" lengthAdjust="spacing" textLength="134" x="563.5" y="1209.8615">Settlement Transfer</text><text fill="#000000" font-family="sans-serif" font-size="13" lengthAdjust="spacing" textLength="27" x="700.5" y="1209.8615">data</text><!--SRC=[bLPjZzeu4FxEhnXrfNw82hckkbABgaeGGBTtgnRjelk4j7Bi2LWOEuqTkdk__iPE20c4Nek4YEnvUUPvPYROdTGvAzWULj8fN1ZjdkI_2BT_36npvVpLr1G2YqTJQf6OGcC1x-_wRLPRoNSQhONRVeF4A5F0v7l9XWaJwAQgn0jBndUReihMOnriu0aT_UnHErWLJDkCK6M5sSDQ9tHOC3LyGB71OZ2Wq4vocJEoVTEzV0FC0hwuPwu6sZW4Sw0uzG7GfsiEUoQrewyDbqf-BwMGxXLIffZcQ0Ue1VX0Wq5gNbeWBKmJk5byMYmMdu9l1zGZMWUJvNs0OrF-NFY3czdT_EFimwNv_E3B_fDfeUeIl0-6qxRJgQBcFfpxpzyisp5OcLnosnmEWHV8N2-xBID2Loe79kjLeGeHp1isBaheChFMapo71xEHl2c7vVcpyYTmCvybTnzc8OXWZgNCOYV2S5QVDiuY9I8cyu-B92X2Mbm8CYH1Xb3hEX4iT_HxirZqAxIIP3P5zAsNgDAwcdYMKhPDaVCEyIUKRR-lHg0zUJb_bLPNHx1TrPhW3VVt-c1s29evUK0u3_xNKsF8bVIYX8beYTGjTtGfqbdo5iOcT3ihQfOg5Dqu3UD-Y7DuFuBaQbUH1FM8rTW6h7H6b_kqxhXg5k7pSFZb-3o6A6hyym99A8oY4Kt-jzGF9zXJdZtHee0c1PXIXXDlHWTvrleWsVbu5wL2sWTw8pN-KlQiL9bKLVA90xUL5d93E-8TFIEuezsMHESA2QXenwMefyaTKumupijKIRiD8nx7y4CgvQ63HbelbXMl0JqrqLf7KHmVaImh6iJyu9RiLHacuZYApidipjLPzWT9NQqXeutR9rIrFaZRewwtexRT49eHxaaL2EmSZQyd8ThaXkH0iTRSQ6f6XyAFZI_u_cWxSoQKs5FNUIugxX-cfBZMWvxHdu6cRJA61Jg-XRV06ITbMor643EvyN8i5ND4tnwISEHNVaopjgUMfENUYxMR8uhg3ZOvAP4ooXX5u3U90EhRQzX7ld7g6TFuet84cT4umhVb_6jzm0vCAZ-lSToBv4jhcusXHX95hQoCStejEqkWIYlr1fQj7LbVXj2dGA70YtqtFgw4skbTXLRJHdcXDhJ_orJjJhsQ1LqwCAUXt4aLkgRzXAYdEnxHbOMljV41gJFJFpDDfF5Fzje52vSaDEv7dp6KkMYHOcaXE0EpHteLlPBKRo6f7l4tAZe6fvB2YzdllokrVRwSqNgjjEB49uheRq1kDBtbhipFsNvPLfkjArKBNeZYzyj_]--></g></svg>