<?xml version="1.0" encoding="UTF-8" standalone="no"?><svg xmlns="http://www.w3.org/2000/svg" xmlns:xlink="http://www.w3.org/1999/xlink" contentStyleType="text/css" height="1250px" preserveAspectRatio="none" style="width:1392px;height:1250px;background:#FFFFFF;" version="1.1" viewBox="0 0 1392 1250" width="1392px" zoomAndPan="magnify"><defs/><g><text fill="#000000" font-family="sans-serif" font-size="14" font-weight="bold" lengthAdjust="spacing" textLength="793" x="298" y="29.9659">Settlement Transfer in Transfers BC - Refer to Reference Architecture: [https://miro.com/app/board/o9J_lJyA1TA=/]</text><rect fill="#F9FFF9" height="1191.8464" style="stroke:#181818;stroke-width:0.5;" width="751.5" x="296.5" y="46.0679"/><text fill="#000000" font-family="sans-serif" font-size="13" font-weight="bold" lengthAdjust="spacing" textLength="101" x="620.25" y="59.9649">Settlements BC</text><rect fill="#FFFFF9" height="1191.8464" style="stroke:#181818;stroke-width:0.5;" width="271.5" x="1050" y="46.0679"/><text fill="#000000" font-family="sans-serif" font-size="13" font-weight="bold" lengthAdjust="spacing" textLength="171" x="1098.75" y="59.9649">Accounts and Balances BC</text><rect fill="none" height="225.6481" style="stroke:#000000;stroke-width:1.5;" width="581" x="77" y="353.784"/><rect fill="none" height="559.4143" style="stroke:#000000;stroke-width:1.5;" width="1250.5" x="77" y="593.4321"/><line style="stroke:#181818;stroke-width:0.5;stroke-dasharray:5.0,5.0;" x1="134" x2="134" y1="132.8419" y2="1169.8464"/><line style="stroke:#181818;stroke-width:0.5;stroke-dasharray:5.0,5.0;" x1="361.5" x2="361.5" y1="132.8419" y2="1169.8464"/><line style="stroke:#181818;stroke-width:0.5;stroke-dasharray:5.0,5.0;" x1="590" x2="590" y1="132.8419" y2="1169.8464"/><line style="stroke:#181818;stroke-width:0.5;stroke-dasharray:5.0,5.0;" x1="967" x2="967" y1="132.8419" y2="1169.8464"/><line style="stroke:#181818;stroke-width:0.5;stroke-dasharray:5.0,5.0;" x1="1089" x2="1089" y1="132.8419" y2="1169.8464"/><line style="stroke:#181818;stroke-width:0.5;stroke-dasharray:5.0,5.0;" x1="1274.5" x2="1274.5" y1="132.8419" y2="1169.8464"/><rect fill="#E2E2F0" height="33.0679" rx="2.5" ry="2.5" style="stroke:#181818;stroke-width:0.5;" width="94" x="87" y="98.7739"/><text fill="#000000" font-family="sans-serif" font-size="14" lengthAdjust="spacing" textLength="80" x="94" y="120.7399">Transfer-BC</text><rect fill="#E2E2F0" height="33.0679" rx="2.5" ry="2.5" style="stroke:#181818;stroke-width:0.5;" width="94" x="87" y="1168.8464"/><text fill="#000000" font-family="sans-serif" font-size="14" lengthAdjust="spacing" textLength="80" x="94" y="1190.8123">Transfer-BC</text><rect fill="#D5E8D4" height="33.0679" rx="2.5" ry="2.5" style="stroke:#181818;stroke-width:0.5;" width="123" x="300.5" y="98.7739"/><text fill="#000000" font-family="sans-serif" font-size="14" lengthAdjust="spacing" textLength="109" x="307.5" y="120.7399">Settlements SVC</text><rect fill="#D5E8D4" height="33.0679" rx="2.5" ry="2.5" style="stroke:#181818;stroke-width:0.5;" width="123" x="300.5" y="1168.8464"/><text fill="#000000" font-family="sans-serif" font-size="14" lengthAdjust="spacing" textLength="109" x="307.5" y="1190.8123">Settlements SVC</text><rect fill="#EDC54D" height="52.1358" rx="2.5" ry="2.5" style="stroke:#181818;stroke-width:0.5;" width="116" x="532" y="79.706"/><text fill="#000000" font-family="sans-serif" font-size="14" lengthAdjust="spacing" textLength="102" x="539" y="101.672">Settlements BC</text><text fill="#000000" font-family="sans-serif" font-size="14" lengthAdjust="spacing" textLength="66" x="557" y="120.7399">App Logic</text><rect fill="#EDC54D" height="52.1358" rx="2.5" ry="2.5" style="stroke:#181818;stroke-width:0.5;" width="116" x="532" y="1168.8464"/><text fill="#000000" font-family="sans-serif" font-size="14" lengthAdjust="spacing" textLength="102" x="539" y="1190.8123">Settlements BC</text><text fill="#000000" font-family="sans-serif" font-size="14" lengthAdjust="spacing" textLength="66" x="557" y="1209.8803">App Logic</text><text fill="#000000" font-family="sans-serif" font-size="14" lengthAdjust="spacing" textLength="148" x="890" y="128.7399">Settlements-Database</text><path d="M949,77.7739 C949,67.7739 967,67.7739 967,67.7739 C967,67.7739 985,67.7739 985,77.7739 L985,103.7739 C985,113.7739 967,113.7739 967,113.7739 C967,113.7739 949,113.7739 949,103.7739 L949,77.7739 " fill="#DAE8FC" style="stroke:#181818;stroke-width:1.5;"/><path d="M949,77.7739 C949,87.7739 967,87.7739 967,87.7739 C967,87.7739 985,87.7739 985,77.7739 " fill="none" style="stroke:#181818;stroke-width:1.5;"/><text fill="#000000" font-family="sans-serif" font-size="14" lengthAdjust="spacing" textLength="148" x="890" y="1183.8123">Settlements-Database</text><path d="M949,1197.9143 C949,1187.9143 967,1187.9143 967,1187.9143 C967,1187.9143 985,1187.9143 985,1197.9143 L985,1223.9143 C985,1233.9143 967,1233.9143 967,1233.9143 C967,1233.9143 949,1233.9143 949,1223.9143 L949,1197.9143 " fill="#DAE8FC" style="stroke:#181818;stroke-width:1.5;"/><path d="M949,1197.9143 C949,1207.9143 967,1207.9143 967,1207.9143 C967,1207.9143 985,1207.9143 985,1197.9143 " fill="none" style="stroke:#181818;stroke-width:1.5;"/><rect fill="#D5E8D4" height="33.0679" rx="2.5" ry="2.5" style="stroke:#181818;stroke-width:0.5;" width="71" x="1054" y="98.7739"/><text fill="#000000" font-family="sans-serif" font-size="14" lengthAdjust="spacing" textLength="57" x="1061" y="120.7399">A&amp;B SVC</text><rect fill="#D5E8D4" height="33.0679" rx="2.5" ry="2.5" style="stroke:#181818;stroke-width:0.5;" width="71" x="1054" y="1168.8464"/><text fill="#000000" font-family="sans-serif" font-size="14" lengthAdjust="spacing" textLength="57" x="1061" y="1190.8123">A&amp;B SVC</text><text fill="#000000" font-family="sans-serif" font-size="14" lengthAdjust="spacing" textLength="80" x="1231.5" y="128.7399">A&amp;B-Ledger</text><path d="M1256.5,77.7739 C1256.5,67.7739 1274.5,67.7739 1274.5,67.7739 C1274.5,67.7739 1292.5,67.7739 1292.5,77.7739 L1292.5,103.7739 C1292.5,113.7739 1274.5,113.7739 1274.5,113.7739 C1274.5,113.7739 1256.5,113.7739 1256.5,103.7739 L1256.5,77.7739 " fill="#DAE8FC" style="stroke:#181818;stroke-width:1.5;"/><path d="M1256.5,77.7739 C1256.5,87.7739 1274.5,87.7739 1274.5,87.7739 C1274.5,87.7739 1292.5,87.7739 1292.5,77.7739 " fill="none" style="stroke:#181818;stroke-width:1.5;"/><text fill="#000000" font-family="sans-serif" font-size="14" lengthAdjust="spacing" textLength="80" x="1231.5" y="1183.8123">A&amp;B-Ledger</text><path d="M1256.5,1197.9143 C1256.5,1187.9143 1274.5,1187.9143 1274.5,1187.9143 C1274.5,1187.9143 1292.5,1187.9143 1292.5,1197.9143 L1292.5,1223.9143 C1292.5,1233.9143 1274.5,1233.9143 1274.5,1233.9143 C1274.5,1233.9143 1256.5,1233.9143 1256.5,1223.9143 L1256.5,1197.9143 " fill="#DAE8FC" style="stroke:#181818;stroke-width:1.5;"/><path d="M1256.5,1197.9143 C1256.5,1207.9143 1274.5,1207.9143 1274.5,1207.9143 C1274.5,1207.9143 1292.5,1207.9143 1292.5,1197.9143 " fill="none" style="stroke:#181818;stroke-width:1.5;"/><path d="M5,147.8419 L5,192.8419 L263,192.8419 L263,157.8419 L253,147.8419 L5,147.8419 " fill="#FEFFDD" style="stroke:#181818;stroke-width:0.5;"/><path d="M253,147.8419 L253,157.8419 L263,157.8419 L253,147.8419 " fill="#FEFFDD" style="stroke:#181818;stroke-width:0.5;"/><text fill="#000000" font-family="sans-serif" font-size="13" font-style="italic" lengthAdjust="spacing" textLength="154" x="11" y="166.7389">TransferCommittedFulfilled</text><text fill="#000000" font-family="sans-serif" font-size="13" lengthAdjust="spacing" textLength="237" x="11" y="184.4449">gRPC client for settlements are invoked.</text><path d="M271,203.2539 L271,248.2539 L453,248.2539 L453,213.2539 L443,203.2539 L271,203.2539 " fill="#FEFFDD" style="stroke:#181818;stroke-width:0.5;"/><path d="M443,203.2539 L443,213.2539 L453,213.2539 L443,203.2539 " fill="#FEFFDD" style="stroke:#181818;stroke-width:0.5;"/><text fill="#000000" font-family="sans-serif" font-size="13" lengthAdjust="spacing" textLength="161" x="277" y="222.1509">Exposed gRPC interface for</text><text fill="#000000" font-family="sans-serif" font-size="13" lengthAdjust="spacing" textLength="69" x="277" y="239.8569">Settlement.</text><path d="M998,258.6659 L998,303.6659 L1180,303.6659 L1180,268.6659 L1170,258.6659 L998,258.6659 " fill="#FEFFDD" style="stroke:#181818;stroke-width:0.5;"/><path d="M1170,258.6659 L1170,268.6659 L1180,268.6659 L1170,258.6659 " fill="#FEFFDD" style="stroke:#181818;stroke-width:0.5;"/><text fill="#000000" font-family="sans-serif" font-size="13" lengthAdjust="spacing" textLength="161" x="1004" y="277.5629">Exposed gRPC interface for</text><text fill="#000000" font-family="sans-serif" font-size="13" lengthAdjust="spacing" textLength="126" x="1004" y="295.2689">Accounts &amp; Balances.</text><path d="M1163,314.0779 L1163,341.0779 L1385,341.0779 L1385,324.0779 L1375,314.0779 L1163,314.0779 " fill="#FEFFDD" style="stroke:#181818;stroke-width:0.5;"/><path d="M1375,314.0779 L1375,324.0779 L1385,324.0779 L1375,314.0779 " fill="#FEFFDD" style="stroke:#181818;stroke-width:0.5;"/><text fill="#000000" font-family="sans-serif" font-size="13" lengthAdjust="spacing" textLength="201" x="1169" y="332.975">TigerBeetle may be turned off/on.</text><path d="M77,353.784 L409,353.784 L409,363.49 L399,373.49 L77,373.49 L77,353.784 " fill="#EEEEEE" style="stroke:#000000;stroke-width:1.5;"/><rect fill="none" height="225.6481" style="stroke:#000000;stroke-width:1.5;" width="581" x="77" y="353.784"/><text fill="#000000" font-family="sans-serif" font-size="13" font-weight="bold" lengthAdjust="spacing" textLength="287" x="92" y="368.681">1. Create Settlement Transfer - Transfers BC</text><line style="stroke:#181818;stroke-width:1.0;stroke-dasharray:2.0,2.0;" x1="134" x2="176" y1="397.196" y2="397.196"/><line style="stroke:#181818;stroke-width:1.0;stroke-dasharray:2.0,2.0;" x1="176" x2="176" y1="397.196" y2="410.196"/><line style="stroke:#181818;stroke-width:1.0;stroke-dasharray:2.0,2.0;" x1="135" x2="176" y1="410.196" y2="410.196"/><polygon fill="#181818" points="144,393.196,134,397.196,144,401.196,140,397.196" style="stroke:#181818;stroke-width:1.0;"/><polygon fill="#181818" points="145,406.196,135,410.196,145,414.196,141,410.196" style="stroke:#181818;stroke-width:1.0;"/><text fill="#000000" font-family="sans-serif" font-size="13" font-weight="bold" lengthAdjust="spacing" textLength="7" x="141" y="391.387">1</text><text fill="#000000" font-family="sans-serif" font-size="13" lengthAdjust="spacing" textLength="133" x="152" y="391.387">Transfer fulfil occurred</text><line style="stroke:#181818;stroke-width:1.0;stroke-dasharray:2.0,2.0;" x1="134" x2="176" y1="459.608" y2="459.608"/><line style="stroke:#181818;stroke-width:1.0;stroke-dasharray:2.0,2.0;" x1="176" x2="176" y1="459.608" y2="472.608"/><line style="stroke:#181818;stroke-width:1.0;stroke-dasharray:2.0,2.0;" x1="135" x2="176" y1="472.608" y2="472.608"/><polygon fill="#181818" points="144,455.608,134,459.608,144,463.608,140,459.608" style="stroke:#181818;stroke-width:1.0;"/><polygon fill="#181818" points="145,468.608,135,472.608,145,476.608,141,472.608" style="stroke:#181818;stroke-width:1.0;"/><text fill="#000000" font-family="sans-serif" font-size="13" font-weight="bold" lengthAdjust="spacing" textLength="7" x="141" y="444.946">2</text><text fill="#000000" font-family="sans-serif" font-size="13" lengthAdjust="spacing" textLength="150" x="152" y="436.093">Obtain settlement model</text><text fill="#000000" font-family="sans-serif" font-size="13" lengthAdjust="spacing" textLength="17" x="152" y="453.799">via</text><text fill="#000000" font-family="sans-serif" font-size="13" font-style="italic" lengthAdjust="spacing" textLength="115" x="172" y="453.799">settlement-model-lib</text><polygon fill="#181818" points="350,535.7261,360,539.7261,350,543.7261,354,539.7261" style="stroke:#181818;stroke-width:1.0;"/><line style="stroke:#181818;stroke-width:1.0;" x1="134" x2="356" y1="539.7261" y2="539.7261"/><text fill="#000000" font-family="sans-serif" font-size="13" font-weight="bold" lengthAdjust="spacing" textLength="7" x="141" y="516.2111">3</text><text fill="#000000" font-family="sans-serif" font-size="13" lengthAdjust="spacing" textLength="89" x="152" y="498.505">At time of fulfil:</text><text fill="#000000" font-family="sans-serif" font-size="13" font-style="italic" lengthAdjust="spacing" textLength="141" x="152" y="516.2111">createSettlementTransfer</text><text fill="#000000" font-family="sans-serif" font-size="13" lengthAdjust="spacing" textLength="3" x="293" y="516.2111"> </text><text fill="#000000" font-family="sans-serif" font-size="13" font-weight="bold" lengthAdjust="spacing" textLength="175" x="152" y="533.9171">(Settlement Transfer data)</text><polygon fill="#181818" points="578,567.4321,588,571.4321,578,575.4321,582,571.4321" style="stroke:#181818;stroke-width:1.0;"/><line style="stroke:#181818;stroke-width:1.0;stroke-dasharray:2.0,2.0;" x1="362" x2="584" y1="571.4321" y2="571.4321"/><text fill="#000000" font-family="sans-serif" font-size="13" font-weight="bold" lengthAdjust="spacing" textLength="7" x="369" y="565.6231">4</text><text fill="#000000" font-family="sans-serif" font-size="13" lengthAdjust="spacing" textLength="123" x="380" y="565.6231">Invoke the App layer</text><path d="M77,593.4321 L283,593.4321 L283,603.1381 L273,613.1381 L77,613.1381 L77,593.4321 " fill="#EEEEEE" style="stroke:#000000;stroke-width:1.5;"/><rect fill="none" height="559.4143" style="stroke:#000000;stroke-width:1.5;" width="1250.5" x="77" y="593.4321"/><text fill="#000000" font-family="sans-serif" font-size="13" font-weight="bold" lengthAdjust="spacing" textLength="161" x="92" y="608.3291">2. Settlement - App Logic</text><line style="stroke:#181818;stroke-width:1.0;stroke-dasharray:2.0,2.0;" x1="590" x2="632" y1="636.8441" y2="636.8441"/><line style="stroke:#181818;stroke-width:1.0;stroke-dasharray:2.0,2.0;" x1="632" x2="632" y1="636.8441" y2="649.8441"/><line style="stroke:#181818;stroke-width:1.0;stroke-dasharray:2.0,2.0;" x1="591" x2="632" y1="649.8441" y2="649.8441"/><polygon fill="#181818" points="600,632.8441,590,636.8441,600,640.8441,596,636.8441" style="stroke:#181818;stroke-width:1.0;"/><polygon fill="#181818" points="601,645.8441,591,649.8441,601,653.8441,597,649.8441" style="stroke:#181818;stroke-width:1.0;"/><text fill="#000000" font-family="sans-serif" font-size="13" font-weight="bold" lengthAdjust="spacing" textLength="7" x="597" y="631.0351">1</text><text fill="#000000" font-family="sans-serif" font-size="13" lengthAdjust="spacing" textLength="214" x="608" y="631.0351">Settlement Transfer event triggered</text><line style="stroke:#181818;stroke-width:1.0;stroke-dasharray:2.0,2.0;" x1="590" x2="632" y1="681.5501" y2="681.5501"/><line style="stroke:#181818;stroke-width:1.0;stroke-dasharray:2.0,2.0;" x1="632" x2="632" y1="681.5501" y2="694.5501"/><line style="stroke:#181818;stroke-width:1.0;stroke-dasharray:2.0,2.0;" x1="591" x2="632" y1="694.5501" y2="694.5501"/><polygon fill="#181818" points="601,690.5501,591,694.5501,601,698.5501,597,694.5501" style="stroke:#181818;stroke-width:1.0;"/><text fill="#000000" font-family="sans-serif" font-size="13" font-weight="bold" lengthAdjust="spacing" textLength="7" x="597" y="675.7411">2</text><text fill="#000000" font-family="sans-serif" font-size="13" lengthAdjust="spacing" textLength="48" x="608" y="675.7411">Validate</text><text fill="#000000" font-family="sans-serif" font-size="13" font-weight="bold" lengthAdjust="spacing" textLength="218" x="659" y="675.7411">settlement transfer data payload</text><polygon fill="#181818" points="601,739.9622,591,743.9622,601,747.9622,597,743.9622" style="stroke:#181818;stroke-width:1.0;"/><polygon fill="#181818" points="955,739.9622,965,743.9622,955,747.9622,959,743.9622" style="stroke:#181818;stroke-width:1.0;"/><line style="stroke:#181818;stroke-width:1.0;stroke-dasharray:2.0,2.0;" x1="595" x2="961" y1="743.9622" y2="743.9622"/><text fill="#000000" font-family="sans-serif" font-size="13" font-weight="bold" lengthAdjust="spacing" textLength="7" x="607" y="729.3002">3</text><text fill="#000000" font-family="sans-serif" font-size="13" lengthAdjust="spacing" textLength="248" x="618" y="720.4472">Fetch and cache settlement configuration</text><text fill="#000000" font-family="sans-serif" font-size="13" font-weight="bold" lengthAdjust="spacing" textLength="123" x="618" y="738.1532">Platform Config BC</text><polygon fill="#181818" points="601,807.0802,591,811.0802,601,815.0802,597,811.0802" style="stroke:#181818;stroke-width:1.0;"/><polygon fill="#181818" points="955,807.0802,965,811.0802,955,815.0802,959,811.0802" style="stroke:#181818;stroke-width:1.0;"/><line style="stroke:#181818;stroke-width:1.0;stroke-dasharray:2.0,2.0;" x1="595" x2="961" y1="811.0802" y2="811.0802"/><text fill="#000000" font-family="sans-serif" font-size="13" font-weight="bold" lengthAdjust="spacing" textLength="7" x="607" y="787.5652">4</text><text fill="#000000" font-family="sans-serif" font-size="13" lengthAdjust="spacing" textLength="285" x="618" y="769.8592">Obtain current open settlement batch based on</text><text fill="#000000" font-family="sans-serif" font-size="13" font-weight="bold" lengthAdjust="spacing" textLength="218" x="618" y="787.5652">settlement transfer data payload</text><text fill="#000000" font-family="sans-serif" font-size="13" font-style="italic" lengthAdjust="spacing" textLength="342" x="618" y="805.2712">New OPEN Batch will be created if no OPEN batch is available</text><polygon fill="#181818" points="601,856.4923,591,860.4923,601,864.4923,597,860.4923" style="stroke:#181818;stroke-width:1.0;"/><polygon fill="#181818" points="1077.5,856.4923,1087.5,860.4923,1077.5,864.4923,1081.5,860.4923" style="stroke:#181818;stroke-width:1.0;"/><line style="stroke:#181818;stroke-width:1.0;" x1="595" x2="1083.5" y1="860.4923" y2="860.4923"/><text fill="#000000" font-family="sans-serif" font-size="13" font-weight="bold" lengthAdjust="spacing" textLength="7" x="607" y="845.8303">5</text><text fill="#000000" font-family="sans-serif" font-size="13" lengthAdjust="spacing" textLength="117" x="618" y="836.9772">Obtain Debit/Credit</text><text fill="#000000" font-family="sans-serif" font-size="13" font-weight="bold" lengthAdjust="spacing" textLength="139" x="738" y="836.9772">Settlement Accounts</text><text fill="#000000" font-family="sans-serif" font-size="13" lengthAdjust="spacing" textLength="200" x="880" y="836.9772">based on participant account info</text><text fill="#000000" font-family="sans-serif" font-size="13" font-style="italic" lengthAdjust="spacing" textLength="446" x="618" y="854.6833">(The settlement accounts are derived and linked from the participant accounts)</text><polygon fill="#181818" points="1100.5,905.9043,1090.5,909.9043,1100.5,913.9043,1096.5,909.9043" style="stroke:#181818;stroke-width:1.0;"/><polygon fill="#181818" points="1262.5,905.9043,1272.5,909.9043,1262.5,913.9043,1266.5,909.9043" style="stroke:#181818;stroke-width:1.0;"/><line style="stroke:#181818;stroke-width:1.0;stroke-dasharray:2.0,2.0;" x1="1094.5" x2="1268.5" y1="909.9043" y2="909.9043"/><text fill="#000000" font-family="sans-serif" font-size="13" font-weight="bold" lengthAdjust="spacing" textLength="7" x="1106.5" y="895.2423">6</text><text fill="#000000" font-family="sans-serif" font-size="13" lengthAdjust="spacing" textLength="90" x="1117.5" y="886.3893">Create account</text><text fill="#000000" font-family="sans-serif" font-size="13" lengthAdjust="spacing" textLength="74" x="1117.5" y="904.0953">if 'not exists'</text><polygon fill="#181818" points="601,937.6103,591,941.6103,601,945.6103,597,941.6103" style="stroke:#181818;stroke-width:1.0;"/><line style="stroke:#181818;stroke-width:1.0;" x1="595" x2="1088.5" y1="941.6103" y2="941.6103"/><text fill="#000000" font-family="sans-serif" font-size="13" font-weight="bold" lengthAdjust="spacing" textLength="7" x="607" y="935.8013">7</text><text fill="#000000" font-family="sans-serif" font-size="13" lengthAdjust="spacing" textLength="41" x="618" y="935.8013">Return</text><text fill="#000000" font-family="sans-serif" font-size="13" font-weight="bold" lengthAdjust="spacing" textLength="55" x="662" y="935.8013">Account</text><text fill="#000000" font-family="sans-serif" font-size="13" lengthAdjust="spacing" textLength="75" x="720" y="935.8013">creation info</text><polygon fill="#181818" points="1077.5,969.3163,1087.5,973.3163,1077.5,977.3163,1081.5,973.3163" style="stroke:#181818;stroke-width:1.0;"/><line style="stroke:#181818;stroke-width:1.0;" x1="590" x2="1083.5" y1="973.3163" y2="973.3163"/><text fill="#000000" font-family="sans-serif" font-size="13" font-weight="bold" lengthAdjust="spacing" textLength="7" x="597" y="967.5073">8</text><text fill="#000000" font-family="sans-serif" font-size="13" lengthAdjust="spacing" textLength="160" x="608" y="967.5073">Create Settlement Transfer</text><polygon fill="#181818" points="1100.5,1001.0223,1090.5,1005.0223,1100.5,1009.0223,1096.5,1005.0223" style="stroke:#181818;stroke-width:1.0;"/><polygon fill="#181818" points="1262.5,1001.0223,1272.5,1005.0223,1262.5,1009.0223,1266.5,1005.0223" style="stroke:#181818;stroke-width:1.0;"/><line style="stroke:#181818;stroke-width:1.0;" x1="1094.5" x2="1268.5" y1="1005.0223" y2="1005.0223"/><text fill="#000000" font-family="sans-serif" font-size="13" font-weight="bold" lengthAdjust="spacing" textLength="7" x="1106.5" y="999.2133">9</text><text fill="#000000" font-family="sans-serif" font-size="13" lengthAdjust="spacing" textLength="150" x="1117.5" y="999.2133">Debit Payer, Credit Payee</text><polygon fill="#181818" points="601,1032.7284,591,1036.7284,601,1040.7284,597,1036.7284" style="stroke:#181818;stroke-width:1.0;"/><line style="stroke:#181818;stroke-width:1.0;" x1="595" x2="1088.5" y1="1036.7284" y2="1036.7284"/><text fill="#000000" font-family="sans-serif" font-size="13" font-weight="bold" lengthAdjust="spacing" textLength="14" x="607" y="1030.9194">10</text><text fill="#000000" font-family="sans-serif" font-size="13" lengthAdjust="spacing" textLength="41" x="625" y="1030.9194">Return</text><text fill="#000000" font-family="sans-serif" font-size="13" font-weight="bold" lengthAdjust="spacing" textLength="56" x="669" y="1030.9194">Transfer</text><text fill="#000000" font-family="sans-serif" font-size="13" lengthAdjust="spacing" textLength="75" x="728" y="1030.9194">creation info</text><line style="stroke:#181818;stroke-width:1.0;stroke-dasharray:2.0,2.0;" x1="590" x2="632" y1="1068.4344" y2="1068.4344"/><line style="stroke:#181818;stroke-width:1.0;stroke-dasharray:2.0,2.0;" x1="632" x2="632" y1="1068.4344" y2="1081.4344"/><line style="stroke:#181818;stroke-width:1.0;stroke-dasharray:2.0,2.0;" x1="591" x2="632" y1="1081.4344" y2="1081.4344"/><polygon fill="#181818" points="600,1064.4344,590,1068.4344,600,1072.4344,596,1068.4344" style="stroke:#181818;stroke-width:1.0;"/><polygon fill="#181818" points="601,1077.4344,591,1081.4344,601,1085.4344,597,1081.4344" style="stroke:#181818;stroke-width:1.0;"/><text fill="#000000" font-family="sans-serif" font-size="13" font-weight="bold" lengthAdjust="spacing" textLength="14" x="597" y="1062.6254">11</text><text fill="#000000" font-family="sans-serif" font-size="13" lengthAdjust="spacing" textLength="135" x="615" y="1062.6254">Prepare response data</text><polygon fill="#181818" points="373,1109.1404,363,1113.1404,373,1117.1404,369,1113.1404" style="stroke:#181818;stroke-width:1.0;"/><line style="stroke:#181818;stroke-width:1.0;stroke-dasharray:2.0,2.0;" x1="367" x2="589" y1="1113.1404" y2="1113.1404"/><text fill="#000000" font-family="sans-serif" font-size="13" font-weight="bold" lengthAdjust="spacing" textLength="14" x="379" y="1107.3314">12</text><text fill="#000000" font-family="sans-serif" font-size="13" lengthAdjust="spacing" textLength="41" x="397" y="1107.3314">Return</text><text fill="#000000" font-family="sans-serif" font-size="13" font-weight="bold" lengthAdjust="spacing" textLength="116" x="441" y="1107.3314">Transfer/Account</text><text fill="#000000" font-family="sans-serif" font-size="13" lengthAdjust="spacing" textLength="23" x="560" y="1107.3314">info</text><polygon fill="#181818" points="145,1140.8464,135,1144.8464,145,1148.8464,141,1144.8464" style="stroke:#181818;stroke-width:1.0;"/><line style="stroke:#181818;stroke-width:1.0;" x1="139" x2="361" y1="1144.8464" y2="1144.8464"/><text fill="#000000" font-family="sans-serif" font-size="13" font-weight="bold" lengthAdjust="spacing" textLength="14" x="151" y="1139.0374">13</text><text fill="#000000" font-family="sans-serif" font-size="13" lengthAdjust="spacing" textLength="41" x="169" y="1139.0374">Return</text><text fill="#000000" font-family="sans-serif" font-size="13" font-weight="bold" lengthAdjust="spacing" textLength="116" x="213" y="1139.0374">Transfer/Account</text><text fill="#000000" font-family="sans-serif" font-size="13" lengthAdjust="spacing" textLength="23" x="332" y="1139.0374">info</text><!--SRC=[bLNlZviu4FrS_efHL-gFw0ZggPMwg5Sf8ObqLTL6srM_DAV8c25h7TZ8EEdkVtzZ0mOIsjlbIy9WPjvxCsymmXG8tz3GJudImArciivHWv3-VmtB14AuGHitglc3aYCiDByJ1havQepXnvqnLHr7KIcqcdDLHgogebGndKNg-jE- -FImU7Ex-2lw9mWgfetWec9KytbNA5mcpu7LWFTcRxhY-vG7KXa4TQBo5u-0hYZgCYIgB8Knc6sEHIwA0hCeSaSEDzi4U24inrnfg3tb6fX6edjI_s8s3r1cOCi5GQhk1yeu4QusrvlDvZfuDe8_FFJjUqEXJld-e2iELwjtw_Uhjmv4JwDxxCBsMjzNgiQimIcaGPqp4fYW-YDzcRcBUQI_HhDCTd9HLV1P7GJtkAWh-y96u6gzIjwzNGNFCcPOoceSlHwksgX_Cqk9psBzVfCudKYXHgO5v-hefAJeaXMCXgCLREC4itX7A1Slbbuhbaw9rKEYi-5dp0we- -D6q6sAQCUtWpIMs6TzYiQUo0jFuqpiYI83B3xHhOqj6tmbUu0KWKmYgRhAyqZ9iwnUpODMnmhUp27HoCoqDSEHCmDsD4eUonGR6kSEWGzX-F4o6lVvSkSLK9mVjSRiQLc-feRHhkZz1ANAiDZ9as1ap3uUkdXOYBIrv4KoAk1j4yF2W14bwPot0EETZ2BkPEbLwKX44UpaRFPgIYyxIQzdCrVK5mZRQhqPOlZRBG4mTxJPo3K5Uo1DgJLTM_wS3_iHWhVMUG_6YJzSr8ed-uedUskqED3ij7qOPve2_PqL8hEZCfiDcc26vCbw3uLYsK232NHaxXWsQFYTip5dd7GOfEHAvk9mrCm89QtOsu8PCay9YNj2i_Y80ksyk56ZfAh2qV2apDQtlYUdIDVJ_sTb1-CB_eIls_KNygtDy9EMlpLTCoyPY9oCrXneIWXQ92Sc2fOMs0xaEUoFWytaWQym5IOYTsR2aEI3FdQxOpRhyGzt7ckUq-R9bKNywdQiB_DBbBv76MfneXos4uMGz6c2NAlIpUP4qlfrow57x6I_s9LnjrWwD3j9qhoa9KH-5BMfNvwbcPYu6xIhZCYtZ8cmavd6mf6R6jo1bl5lTji5XqiASTC2s5ft_W5j9-mTFW5wL_0HsAVikzLOsJPfh2ibwIDb1_8tXcruNrIFUWL7nJluvolo4IdikleF]--></g></svg>