<?xml version="1.0" encoding="UTF-8" standalone="no"?><svg xmlns="http://www.w3.org/2000/svg" xmlns:xlink="http://www.w3.org/1999/xlink" contentStyleType="text/css" height="1154px" preserveAspectRatio="none" style="width:1465px;height:1154px;background:#FFFFFF;" version="1.1" viewBox="0 0 1465 1154" width="1465px" zoomAndPan="magnify"><defs/><g><text fill="#000000" font-family="sans-serif" font-size="14" font-weight="bold" lengthAdjust="spacing" textLength="686" x="388" y="29.9659">Settlement Transfer - Refer to Reference Architecture: [https://miro.com/app/board/o9J_lJyA1TA=/]</text><rect fill="#F9FFF9" height="1095.4344" style="stroke:#181818;stroke-width:0.5;" width="842.5" x="280.5" y="46.0679"/><text fill="#000000" font-family="sans-serif" font-size="13" font-weight="bold" lengthAdjust="spacing" textLength="101" x="649.75" y="59.9649">Settlements BC</text><rect fill="#FFFFF9" height="1095.4344" style="stroke:#181818;stroke-width:0.5;" width="268.5" x="1133.5" y="46.0679"/><text fill="#000000" font-family="sans-serif" font-size="13" font-weight="bold" lengthAdjust="spacing" textLength="171" x="1180.75" y="59.9649">Accounts and Balances BC</text><rect fill="none" height="194.9421" style="stroke:#000000;stroke-width:1.5;" width="656" x="77" y="298.3719"/><rect fill="none" height="549.1203" style="stroke:#000000;stroke-width:1.5;" width="811" x="597" y="507.314"/><line style="stroke:#181818;stroke-width:0.5;stroke-dasharray:5.0,5.0;" x1="134" x2="134" y1="132.8419" y2="1073.4344"/><line style="stroke:#181818;stroke-width:0.5;stroke-dasharray:5.0,5.0;" x1="318.5" x2="318.5" y1="132.8419" y2="1073.4344"/><line style="stroke:#181818;stroke-width:0.5;stroke-dasharray:5.0,5.0;" x1="417.5" x2="417.5" y1="132.8419" y2="1073.4344"/><line style="stroke:#181818;stroke-width:0.5;stroke-dasharray:5.0,5.0;" x1="506.5" x2="506.5" y1="132.8419" y2="1073.4344"/><line style="stroke:#181818;stroke-width:0.5;stroke-dasharray:5.0,5.0;" x1="665" x2="665" y1="132.8419" y2="1073.4344"/><line style="stroke:#181818;stroke-width:0.5;stroke-dasharray:5.0,5.0;" x1="1042" x2="1042" y1="132.8419" y2="1073.4344"/><line style="stroke:#181818;stroke-width:0.5;stroke-dasharray:5.0,5.0;" x1="1161.5" x2="1161.5" y1="132.8419" y2="1073.4344"/><line style="stroke:#181818;stroke-width:0.5;stroke-dasharray:5.0,5.0;" x1="1347" x2="1347" y1="132.8419" y2="1073.4344"/><rect fill="#E2E2F0" height="33.0679" rx="2.5" ry="2.5" style="stroke:#181818;stroke-width:0.5;" width="94" x="87" y="98.7739"/><text fill="#000000" font-family="sans-serif" font-size="14" lengthAdjust="spacing" textLength="80" x="94" y="120.7399">Transfer-BC</text><rect fill="#E2E2F0" height="33.0679" rx="2.5" ry="2.5" style="stroke:#181818;stroke-width:0.5;" width="94" x="87" y="1072.4344"/><text fill="#000000" font-family="sans-serif" font-size="14" lengthAdjust="spacing" textLength="80" x="94" y="1094.4003">Transfer-BC</text><rect fill="#D5E8D4" height="33.0679" rx="2.5" ry="2.5" style="stroke:#181818;stroke-width:0.5;" width="69" x="284.5" y="98.7739"/><text fill="#000000" font-family="sans-serif" font-size="14" lengthAdjust="spacing" textLength="55" x="291.5" y="120.7399">Rest API</text><rect fill="#D5E8D4" height="33.0679" rx="2.5" ry="2.5" style="stroke:#181818;stroke-width:0.5;" width="69" x="284.5" y="1072.4344"/><text fill="#000000" font-family="sans-serif" font-size="14" lengthAdjust="spacing" textLength="55" x="291.5" y="1094.4003">Rest API</text><rect fill="#D5E8D4" height="33.0679" rx="2.5" ry="2.5" style="stroke:#181818;stroke-width:0.5;" width="109" x="363.5" y="98.7739"/><text fill="#000000" font-family="sans-serif" font-size="14" lengthAdjust="spacing" textLength="95" x="370.5" y="120.7399">Event Listener</text><rect fill="#D5E8D4" height="33.0679" rx="2.5" ry="2.5" style="stroke:#181818;stroke-width:0.5;" width="109" x="363.5" y="1072.4344"/><text fill="#000000" font-family="sans-serif" font-size="14" lengthAdjust="spacing" textLength="95" x="370.5" y="1094.4003">Event Listener</text><rect fill="#D5E8D4" height="33.0679" rx="2.5" ry="2.5" style="stroke:#181818;stroke-width:0.5;" width="49" x="482.5" y="98.7739"/><text fill="#000000" font-family="sans-serif" font-size="14" lengthAdjust="spacing" textLength="35" x="489.5" y="120.7399">gRPC</text><rect fill="#D5E8D4" height="33.0679" rx="2.5" ry="2.5" style="stroke:#181818;stroke-width:0.5;" width="49" x="482.5" y="1072.4344"/><text fill="#000000" font-family="sans-serif" font-size="14" lengthAdjust="spacing" textLength="35" x="489.5" y="1094.4003">gRPC</text><rect fill="#EDC54D" height="52.1358" rx="2.5" ry="2.5" style="stroke:#181818;stroke-width:0.5;" width="116" x="607" y="79.706"/><text fill="#000000" font-family="sans-serif" font-size="14" lengthAdjust="spacing" textLength="102" x="614" y="101.672">Settlements BC</text><text fill="#000000" font-family="sans-serif" font-size="14" lengthAdjust="spacing" textLength="66" x="632" y="120.7399">App Logic</text><rect fill="#EDC54D" height="52.1358" rx="2.5" ry="2.5" style="stroke:#181818;stroke-width:0.5;" width="116" x="607" y="1072.4344"/><text fill="#000000" font-family="sans-serif" font-size="14" lengthAdjust="spacing" textLength="102" x="614" y="1094.4003">Settlements BC</text><text fill="#000000" font-family="sans-serif" font-size="14" lengthAdjust="spacing" textLength="66" x="632" y="1113.4682">App Logic</text><text fill="#000000" font-family="sans-serif" font-size="14" lengthAdjust="spacing" textLength="148" x="965" y="128.7399">Settlements-Database</text><path d="M1024,77.7739 C1024,67.7739 1042,67.7739 1042,67.7739 C1042,67.7739 1060,67.7739 1060,77.7739 L1060,103.7739 C1060,113.7739 1042,113.7739 1042,113.7739 C1042,113.7739 1024,113.7739 1024,103.7739 L1024,77.7739 " fill="#DAE8FC" style="stroke:#181818;stroke-width:1.5;"/><path d="M1024,77.7739 C1024,87.7739 1042,87.7739 1042,87.7739 C1042,87.7739 1060,87.7739 1060,77.7739 " fill="none" style="stroke:#181818;stroke-width:1.5;"/><text fill="#000000" font-family="sans-serif" font-size="14" lengthAdjust="spacing" textLength="148" x="965" y="1087.4003">Settlements-Database</text><path d="M1024,1101.5023 C1024,1091.5023 1042,1091.5023 1042,1091.5023 C1042,1091.5023 1060,1091.5023 1060,1101.5023 L1060,1127.5023 C1060,1137.5023 1042,1137.5023 1042,1137.5023 C1042,1137.5023 1024,1137.5023 1024,1127.5023 L1024,1101.5023 " fill="#DAE8FC" style="stroke:#181818;stroke-width:1.5;"/><path d="M1024,1101.5023 C1024,1111.5023 1042,1111.5023 1042,1111.5023 C1042,1111.5023 1060,1111.5023 1060,1101.5023 " fill="none" style="stroke:#181818;stroke-width:1.5;"/><rect fill="#D5E8D4" height="33.0679" rx="2.5" ry="2.5" style="stroke:#181818;stroke-width:0.5;" width="49" x="1137.5" y="98.7739"/><text fill="#000000" font-family="sans-serif" font-size="14" lengthAdjust="spacing" textLength="35" x="1144.5" y="120.7399">gRPC</text><rect fill="#D5E8D4" height="33.0679" rx="2.5" ry="2.5" style="stroke:#181818;stroke-width:0.5;" width="49" x="1137.5" y="1072.4344"/><text fill="#000000" font-family="sans-serif" font-size="14" lengthAdjust="spacing" textLength="35" x="1144.5" y="1094.4003">gRPC</text><text fill="#000000" font-family="sans-serif" font-size="14" lengthAdjust="spacing" textLength="96" x="1296" y="128.7399">A&amp;B-Database</text><path d="M1329,77.7739 C1329,67.7739 1347,67.7739 1347,67.7739 C1347,67.7739 1365,67.7739 1365,77.7739 L1365,103.7739 C1365,113.7739 1347,113.7739 1347,113.7739 C1347,113.7739 1329,113.7739 1329,103.7739 L1329,77.7739 " fill="#DAE8FC" style="stroke:#181818;stroke-width:1.5;"/><path d="M1329,77.7739 C1329,87.7739 1347,87.7739 1347,87.7739 C1347,87.7739 1365,87.7739 1365,77.7739 " fill="none" style="stroke:#181818;stroke-width:1.5;"/><text fill="#000000" font-family="sans-serif" font-size="14" lengthAdjust="spacing" textLength="96" x="1296" y="1087.4003">A&amp;B-Database</text><path d="M1329,1101.5023 C1329,1091.5023 1347,1091.5023 1347,1091.5023 C1347,1091.5023 1365,1091.5023 1365,1101.5023 L1365,1127.5023 C1365,1137.5023 1347,1137.5023 1347,1137.5023 C1347,1137.5023 1329,1137.5023 1329,1127.5023 L1329,1101.5023 " fill="#DAE8FC" style="stroke:#181818;stroke-width:1.5;"/><path d="M1329,1101.5023 C1329,1111.5023 1347,1111.5023 1347,1111.5023 C1347,1111.5023 1365,1111.5023 1365,1101.5023 " fill="none" style="stroke:#181818;stroke-width:1.5;"/><path d="M5,147.8419 L5,192.8419 L263,192.8419 L263,157.8419 L253,147.8419 L5,147.8419 " fill="#FEFFDD" style="stroke:#181818;stroke-width:0.5;"/><path d="M253,147.8419 L253,157.8419 L263,157.8419 L253,147.8419 " fill="#FEFFDD" style="stroke:#181818;stroke-width:0.5;"/><text fill="#000000" font-family="sans-serif" font-size="13" font-style="italic" lengthAdjust="spacing" textLength="151" x="11" y="166.7389">TransferCommittedFulfiled</text><text fill="#000000" font-family="sans-serif" font-size="13" lengthAdjust="spacing" textLength="237" x="11" y="184.4449">gRPC client for settlements are invoked.</text><path d="M1082,203.2539 L1082,248.2539 L1242,248.2539 L1242,213.2539 L1232,203.2539 L1082,203.2539 " fill="#FEFFDD" style="stroke:#181818;stroke-width:0.5;"/><path d="M1232,203.2539 L1232,213.2539 L1242,213.2539 L1232,203.2539 " fill="#FEFFDD" style="stroke:#181818;stroke-width:0.5;"/><text fill="#000000" font-family="sans-serif" font-size="13" lengthAdjust="spacing" textLength="126" x="1088" y="222.1509">Exposed interface for</text><text fill="#000000" font-family="sans-serif" font-size="13" lengthAdjust="spacing" textLength="139" x="1088" y="239.8569">Accounts and Balances.</text><path d="M1236,258.6659 L1236,285.6659 L1458,285.6659 L1458,268.6659 L1448,258.6659 L1236,258.6659 " fill="#FEFFDD" style="stroke:#181818;stroke-width:0.5;"/><path d="M1448,258.6659 L1448,268.6659 L1458,268.6659 L1448,258.6659 " fill="#FEFFDD" style="stroke:#181818;stroke-width:0.5;"/><text fill="#000000" font-family="sans-serif" font-size="13" lengthAdjust="spacing" textLength="201" x="1242" y="277.5629">TigerBeetle may be turned off/on.</text><path d="M77,298.3719 L409,298.3719 L409,308.0779 L399,318.0779 L77,318.0779 L77,298.3719 " fill="#EEEEEE" style="stroke:#000000;stroke-width:1.5;"/><rect fill="none" height="194.9421" style="stroke:#000000;stroke-width:1.5;" width="656" x="77" y="298.3719"/><text fill="#000000" font-family="sans-serif" font-size="13" font-weight="bold" lengthAdjust="spacing" textLength="287" x="92" y="313.2689">1. Create Settlement Transfer - Transfers BC</text><line style="stroke:#181818;stroke-width:1.0;stroke-dasharray:2.0,2.0;" x1="134" x2="176" y1="341.784" y2="341.784"/><line style="stroke:#181818;stroke-width:1.0;stroke-dasharray:2.0,2.0;" x1="176" x2="176" y1="341.784" y2="354.784"/><line style="stroke:#181818;stroke-width:1.0;stroke-dasharray:2.0,2.0;" x1="135" x2="176" y1="354.784" y2="354.784"/><polygon fill="#181818" points="144,337.784,134,341.784,144,345.784,140,341.784" style="stroke:#181818;stroke-width:1.0;"/><polygon fill="#181818" points="145,350.784,135,354.784,145,358.784,141,354.784" style="stroke:#181818;stroke-width:1.0;"/><text fill="#000000" font-family="sans-serif" font-size="13" font-weight="bold" lengthAdjust="spacing" textLength="7" x="141" y="335.975">1</text><text fill="#000000" font-family="sans-serif" font-size="13" lengthAdjust="spacing" textLength="133" x="152" y="335.975">Transfer fulfil occurred</text><polygon fill="#181818" points="145,382.49,135,386.49,145,390.49,141,386.49" style="stroke:#181818;stroke-width:1.0;"/><polygon fill="#181818" points="307,382.49,317,386.49,307,390.49,311,386.49" style="stroke:#181818;stroke-width:1.0;"/><line style="stroke:#181818;stroke-width:1.0;" x1="139" x2="313" y1="386.49" y2="386.49"/><text fill="#000000" font-family="sans-serif" font-size="13" font-weight="bold" lengthAdjust="spacing" textLength="7" x="151" y="380.681">2</text><text fill="#000000" font-family="sans-serif" font-size="13" lengthAdjust="spacing" textLength="150" x="162" y="380.681">Obtain settlement model</text><polygon fill="#181818" points="495,449.608,505,453.608,495,457.608,499,453.608" style="stroke:#181818;stroke-width:1.0;"/><line style="stroke:#181818;stroke-width:1.0;" x1="134" x2="501" y1="453.608" y2="453.608"/><text fill="#000000" font-family="sans-serif" font-size="13" font-weight="bold" lengthAdjust="spacing" textLength="7" x="141" y="430.093">3</text><text fill="#000000" font-family="sans-serif" font-size="13" lengthAdjust="spacing" textLength="89" x="152" y="412.387">At time of fulfil:</text><text fill="#000000" font-family="sans-serif" font-size="13" font-style="italic" lengthAdjust="spacing" textLength="141" x="152" y="430.093">createSettlementTransfer</text><text fill="#000000" font-family="sans-serif" font-size="13" lengthAdjust="spacing" textLength="3" x="293" y="430.093"> </text><text fill="#000000" font-family="sans-serif" font-size="13" font-weight="bold" lengthAdjust="spacing" textLength="172" x="152" y="447.799">(settlement transfer data)</text><polygon fill="#181818" points="653,481.314,663,485.314,653,489.314,657,485.314" style="stroke:#181818;stroke-width:1.0;"/><line style="stroke:#181818;stroke-width:1.0;" x1="507" x2="659" y1="485.314" y2="485.314"/><text fill="#000000" font-family="sans-serif" font-size="13" font-weight="bold" lengthAdjust="spacing" textLength="7" x="514" y="479.505">4</text><text fill="#000000" font-family="sans-serif" font-size="13" lengthAdjust="spacing" textLength="123" x="525" y="479.505">Invoke the App layer</text><path d="M597,507.314 L803,507.314 L803,517.0201 L793,527.0201 L597,527.0201 L597,507.314 " fill="#EEEEEE" style="stroke:#000000;stroke-width:1.5;"/><rect fill="none" height="549.1203" style="stroke:#000000;stroke-width:1.5;" width="811" x="597" y="507.314"/><text fill="#000000" font-family="sans-serif" font-size="13" font-weight="bold" lengthAdjust="spacing" textLength="161" x="612" y="522.2111">2. Settlement - App Logic</text><line style="stroke:#181818;stroke-width:1.0;stroke-dasharray:2.0,2.0;" x1="665" x2="707" y1="550.7261" y2="550.7261"/><line style="stroke:#181818;stroke-width:1.0;stroke-dasharray:2.0,2.0;" x1="707" x2="707" y1="550.7261" y2="563.7261"/><line style="stroke:#181818;stroke-width:1.0;stroke-dasharray:2.0,2.0;" x1="666" x2="707" y1="563.7261" y2="563.7261"/><polygon fill="#181818" points="675,546.7261,665,550.7261,675,554.7261,671,550.7261" style="stroke:#181818;stroke-width:1.0;"/><polygon fill="#181818" points="676,559.7261,666,563.7261,676,567.7261,672,563.7261" style="stroke:#181818;stroke-width:1.0;"/><text fill="#000000" font-family="sans-serif" font-size="13" font-weight="bold" lengthAdjust="spacing" textLength="7" x="672" y="544.9171">1</text><text fill="#000000" font-family="sans-serif" font-size="13" lengthAdjust="spacing" textLength="214" x="683" y="544.9171">Settlement Transfer event triggered</text><line style="stroke:#181818;stroke-width:1.0;stroke-dasharray:2.0,2.0;" x1="665" x2="707" y1="595.4321" y2="595.4321"/><line style="stroke:#181818;stroke-width:1.0;stroke-dasharray:2.0,2.0;" x1="707" x2="707" y1="595.4321" y2="608.4321"/><line style="stroke:#181818;stroke-width:1.0;stroke-dasharray:2.0,2.0;" x1="666" x2="707" y1="608.4321" y2="608.4321"/><polygon fill="#181818" points="676,604.4321,666,608.4321,676,612.4321,672,608.4321" style="stroke:#181818;stroke-width:1.0;"/><text fill="#000000" font-family="sans-serif" font-size="13" font-weight="bold" lengthAdjust="spacing" textLength="7" x="672" y="589.6231">2</text><text fill="#000000" font-family="sans-serif" font-size="13" lengthAdjust="spacing" textLength="48" x="683" y="589.6231">Validate</text><text fill="#000000" font-family="sans-serif" font-size="13" font-weight="bold" lengthAdjust="spacing" textLength="218" x="734" y="589.6231">settlement transfer data payload</text><polygon fill="#181818" points="676,653.8441,666,657.8441,676,661.8441,672,657.8441" style="stroke:#181818;stroke-width:1.0;"/><polygon fill="#181818" points="1030,653.8441,1040,657.8441,1030,661.8441,1034,657.8441" style="stroke:#181818;stroke-width:1.0;"/><line style="stroke:#181818;stroke-width:1.0;stroke-dasharray:2.0,2.0;" x1="670" x2="1036" y1="657.8441" y2="657.8441"/><text fill="#000000" font-family="sans-serif" font-size="13" font-weight="bold" lengthAdjust="spacing" textLength="7" x="682" y="643.1821">3</text><text fill="#000000" font-family="sans-serif" font-size="13" lengthAdjust="spacing" textLength="248" x="693" y="634.3291">Fetch and cache settlement configuration</text><text fill="#000000" font-family="sans-serif" font-size="13" font-weight="bold" lengthAdjust="spacing" textLength="211" x="693" y="652.0351">TODO - This needs to be updated</text><polygon fill="#181818" points="676,720.9622,666,724.9622,676,728.9622,672,724.9622" style="stroke:#181818;stroke-width:1.0;"/><polygon fill="#181818" points="1030,720.9622,1040,724.9622,1030,728.9622,1034,724.9622" style="stroke:#181818;stroke-width:1.0;"/><line style="stroke:#181818;stroke-width:1.0;stroke-dasharray:2.0,2.0;" x1="670" x2="1036" y1="724.9622" y2="724.9622"/><text fill="#000000" font-family="sans-serif" font-size="13" font-weight="bold" lengthAdjust="spacing" textLength="7" x="682" y="701.4472">4</text><text fill="#000000" font-family="sans-serif" font-size="13" lengthAdjust="spacing" textLength="285" x="693" y="683.7411">Obtain current open settlement batch based on</text><text fill="#000000" font-family="sans-serif" font-size="13" font-weight="bold" lengthAdjust="spacing" textLength="218" x="693" y="701.4472">settlement transfer data payload</text><text fill="#000000" font-family="sans-serif" font-size="13" font-style="italic" lengthAdjust="spacing" textLength="342" x="693" y="719.1532">New OPEN Batch will be created if no OPEN batch is available</text><polygon fill="#181818" points="676,770.3742,666,774.3742,676,778.3742,672,774.3742" style="stroke:#181818;stroke-width:1.0;"/><polygon fill="#181818" points="1150,770.3742,1160,774.3742,1150,778.3742,1154,774.3742" style="stroke:#181818;stroke-width:1.0;"/><line style="stroke:#181818;stroke-width:1.0;" x1="670" x2="1156" y1="774.3742" y2="774.3742"/><text fill="#000000" font-family="sans-serif" font-size="13" font-weight="bold" lengthAdjust="spacing" textLength="7" x="682" y="759.7122">5</text><text fill="#000000" font-family="sans-serif" font-size="13" lengthAdjust="spacing" textLength="117" x="693" y="750.8592">Obtain Debit/Credit</text><text fill="#000000" font-family="sans-serif" font-size="13" font-weight="bold" lengthAdjust="spacing" textLength="139" x="813" y="750.8592">Settlement Accounts</text><text fill="#000000" font-family="sans-serif" font-size="13" lengthAdjust="spacing" textLength="200" x="955" y="750.8592">based on participant account info</text><text fill="#000000" font-family="sans-serif" font-size="13" font-style="italic" lengthAdjust="spacing" textLength="446" x="693" y="768.5652">(The settlement accounts are derived and linked from the participant accounts)</text><polygon fill="#181818" points="1173,819.7862,1163,823.7862,1173,827.7862,1169,823.7862" style="stroke:#181818;stroke-width:1.0;"/><polygon fill="#181818" points="1335,819.7862,1345,823.7862,1335,827.7862,1339,823.7862" style="stroke:#181818;stroke-width:1.0;"/><line style="stroke:#181818;stroke-width:1.0;stroke-dasharray:2.0,2.0;" x1="1167" x2="1341" y1="823.7862" y2="823.7862"/><text fill="#000000" font-family="sans-serif" font-size="13" font-weight="bold" lengthAdjust="spacing" textLength="7" x="1179" y="809.1242">6</text><text fill="#000000" font-family="sans-serif" font-size="13" lengthAdjust="spacing" textLength="90" x="1190" y="800.2712">Create account</text><text fill="#000000" font-family="sans-serif" font-size="13" lengthAdjust="spacing" textLength="74" x="1190" y="817.9772">if 'not exists'</text><polygon fill="#181818" points="676,851.4923,666,855.4923,676,859.4923,672,855.4923" style="stroke:#181818;stroke-width:1.0;"/><line style="stroke:#181818;stroke-width:1.0;" x1="670" x2="1161" y1="855.4923" y2="855.4923"/><text fill="#000000" font-family="sans-serif" font-size="13" font-weight="bold" lengthAdjust="spacing" textLength="7" x="682" y="849.6833">7</text><text fill="#000000" font-family="sans-serif" font-size="13" lengthAdjust="spacing" textLength="41" x="693" y="849.6833">Return</text><text fill="#000000" font-family="sans-serif" font-size="13" font-weight="bold" lengthAdjust="spacing" textLength="55" x="737" y="849.6833">Account</text><text fill="#000000" font-family="sans-serif" font-size="13" lengthAdjust="spacing" textLength="75" x="795" y="849.6833">creation info</text><polygon fill="#181818" points="1150,883.1983,1160,887.1983,1150,891.1983,1154,887.1983" style="stroke:#181818;stroke-width:1.0;"/><line style="stroke:#181818;stroke-width:1.0;" x1="665" x2="1156" y1="887.1983" y2="887.1983"/><text fill="#000000" font-family="sans-serif" font-size="13" font-weight="bold" lengthAdjust="spacing" textLength="7" x="672" y="881.3893">8</text><text fill="#000000" font-family="sans-serif" font-size="13" lengthAdjust="spacing" textLength="160" x="683" y="881.3893">Create Settlement Transfer</text><polygon fill="#181818" points="1173,914.9043,1163,918.9043,1173,922.9043,1169,918.9043" style="stroke:#181818;stroke-width:1.0;"/><polygon fill="#181818" points="1335,914.9043,1345,918.9043,1335,922.9043,1339,918.9043" style="stroke:#181818;stroke-width:1.0;"/><line style="stroke:#181818;stroke-width:1.0;" x1="1167" x2="1341" y1="918.9043" y2="918.9043"/><text fill="#000000" font-family="sans-serif" font-size="13" font-weight="bold" lengthAdjust="spacing" textLength="7" x="1179" y="913.0953">9</text><text fill="#000000" font-family="sans-serif" font-size="13" lengthAdjust="spacing" textLength="150" x="1190" y="913.0953">Debit Payer, Credit Payee</text><polygon fill="#181818" points="676,946.6103,666,950.6103,676,954.6103,672,950.6103" style="stroke:#181818;stroke-width:1.0;"/><line style="stroke:#181818;stroke-width:1.0;" x1="670" x2="1161" y1="950.6103" y2="950.6103"/><text fill="#000000" font-family="sans-serif" font-size="13" font-weight="bold" lengthAdjust="spacing" textLength="14" x="682" y="944.8013">10</text><text fill="#000000" font-family="sans-serif" font-size="13" lengthAdjust="spacing" textLength="41" x="700" y="944.8013">Return</text><text fill="#000000" font-family="sans-serif" font-size="13" font-weight="bold" lengthAdjust="spacing" textLength="56" x="744" y="944.8013">Transfer</text><text fill="#000000" font-family="sans-serif" font-size="13" lengthAdjust="spacing" textLength="75" x="803" y="944.8013">creation info</text><line style="stroke:#181818;stroke-width:1.0;stroke-dasharray:2.0,2.0;" x1="665" x2="707" y1="1035.4344" y2="1035.4344"/><line style="stroke:#181818;stroke-width:1.0;stroke-dasharray:2.0,2.0;" x1="707" x2="707" y1="1035.4344" y2="1048.4344"/><line style="stroke:#181818;stroke-width:1.0;stroke-dasharray:2.0,2.0;" x1="666" x2="707" y1="1048.4344" y2="1048.4344"/><polygon fill="#181818" points="675,1031.4344,665,1035.4344,675,1039.4344,671,1035.4344" style="stroke:#181818;stroke-width:1.0;"/><polygon fill="#181818" points="676,1044.4344,666,1048.4344,676,1052.4344,672,1048.4344" style="stroke:#181818;stroke-width:1.0;"/><text fill="#000000" font-family="sans-serif" font-size="13" font-weight="bold" lengthAdjust="spacing" textLength="14" x="672" y="1003.0664">11</text><text fill="#000000" font-family="sans-serif" font-size="13" lengthAdjust="spacing" textLength="41" x="690" y="976.5073">Return</text><text fill="#000000" font-family="sans-serif" font-size="13" font-weight="bold" lengthAdjust="spacing" textLength="116" x="734" y="976.5073">Transfer/Account</text><text fill="#000000" font-family="sans-serif" font-size="13" lengthAdjust="spacing" textLength="84" x="853" y="976.5073">info based on:</text><text fill="#000000" font-family="sans-serif" font-size="13" lengthAdjust="spacing" textLength="177" x="690" y="994.2133">-&gt; REST - Account balance info</text><text fill="#000000" font-family="sans-serif" font-size="13" lengthAdjust="spacing" textLength="180" x="690" y="1011.9194">-&gt; gRPC - Account balance info</text><text fill="#000000" font-family="sans-serif" font-size="13" lengthAdjust="spacing" textLength="139" x="690" y="1029.6254">-&gt; Event - Publish Event</text><!--SRC=[bLPTZzCw47qclsB4Ih1Kj15NYyH6bvNIBmc4sAfKlB1NbUDCMel4ZXodxFxxEtQ-sooNsvUsjcVcpF4vanXXKeHlQEWhGsbWfvai4jGmXItQRwEg7oWvGgZvKHZafjGOm8-ZCNaH-7ucj9fnbVaip_r8CHtxwlRpFlty5BxRXH_zVpmlPze8Bd96DLusHQRpnKjW1U2ZsPjwhTX7t9FA8AWJbR_O0lhuVfDXeR9C68FnkamJaMBi- -x4ORjP04-5RIbH6egsmmAOHX3of7vYFFDGnc2hULwa7dj4531VmDNwThrUttel1kYtM1W8DvySz2BYUsqNhfRlLn-MDsTdLoUBu8ie34hKRGIwvV4G2xqzUD0vV-RS4Ek33FCSlgY3u6qmtSO-jIjmjLektjyilHSnConY1Gx2fyjwjOsC8oeQhZwi5uuWegRY9-HSbOv3Mfspb94eQgRMZYdB_NWtB3flnvxjy8IlvaCSBi280-e8qQgqGMJZEe6qUTsw_QmUSrLWJ7TiK2UCP4iAQ7T7MvYvxLOB8nLwGDfKExishy1bx0aY13A6fD8gINmbpxAsJ1wqAdDuDuE5HcQUir_pq_BhiT8eMMOHLesSkmB-daxlBbU3Bb_Y_06Ayr9hZ9_BSjS9Ee3xo30XUzw1JCMOZiVMeUw60mWD694HWKbTENYGlizTlrsx3JhVXmSvcLptAZMvdKBUJ2QkQ5kWBjO9F81Fpj5WZZIbo0afUoAkYFA6xhzcVPwdqDhbdDjXOaViO2aOlQ_AqKQB0scYvdUOQJe2-ZjBHMmbC9ayrplPwIbLBEvHC8AE31l06Wq_Ebrpnec7NagkP28EfMP6A6cvtjqlxwt8Zg80YHWNTj2JWClSulcJQhKwd9weWifn89M8MJ3MpMG7wUxtlrkq8lcAl-1-i_fAvhGPVeaqjS0gxP2h4t9JTQ0gGGsm4nCfYrAif_yvxBlUz6c1Bp4InYSBni8G_xrBRKR4PDBXxmyrLktJW4cKHNoz6vBDsX53JveOjJXH3dijgP3qq854gym9TIHfyQRkeKFiQB-OXa4pFHeq3vAeUKsJXhn9pvlYzLcQ4VbjqSuhQhxkc1fsD9D6N7DZAkvn6VncW5tqSDb2K5q1RAnLtq9z4_OV_W_eJS4_m3xcvOiyViU5JTCg8222ANox-hQpqwCcFQeU8BKKQD-zUFnclteXcCAcZ59H7Al_Raxz2m00]--></g></svg>