<?xml version="1.0" encoding="us-ascii" standalone="no"?><svg xmlns="http://www.w3.org/2000/svg" xmlns:xlink="http://www.w3.org/1999/xlink" contentStyleType="text/css" height="1113px" preserveAspectRatio="none" style="width:777px;height:1113px;background:#FFFFFF;" version="1.1" viewBox="0 0 777 1113" width="777px" zoomAndPan="magnify"><defs/><g><rect fill="#005B96" height="64.4799" id="_title" rx="5" ry="5" style="stroke:#005B96;stroke-width:6.0;" width="182" x="299.25" y="10"/><text fill="#FFFFFF" font-family="sans-serif" font-size="20" font-weight="bold" lengthAdjust="spacing" textLength="167" x="304.25" y="36.38">Settlement from</text><text fill="#FFFFFF" font-family="sans-serif" font-size="20" font-weight="bold" lengthAdjust="spacing" textLength="150" x="315.25" y="63.62">Central-Ledger</text><rect fill="#F9FFF9" height="1019.0401" style="stroke:#181818;stroke-width:0.5;" width="575.5" x="190" y="81.4799"/><text fill="#000000" font-family="sans-serif" font-size="13" font-weight="bold" lengthAdjust="spacing" textLength="101" x="425.75" y="95.377">Settlements BC</text><rect fill="none" height="225.6481" style="stroke:#000000;stroke-width:1.5;" width="524.5" x="30" y="259.7338"/><rect fill="none" height="497.0023" style="stroke:#000000;stroke-width:1.5;" width="741.5" x="30" y="499.382"/><line style="stroke:#181818;stroke-width:0.5;stroke-dasharray:5.0,5.0;" x1="97" x2="97" y1="187.3218" y2="1013.3842"/><line style="stroke:#181818;stroke-width:0.5;stroke-dasharray:5.0,5.0;" x1="228" x2="228" y1="187.3218" y2="1013.3842"/><line style="stroke:#181818;stroke-width:0.5;stroke-dasharray:5.0,5.0;" x1="314.5" x2="314.5" y1="187.3218" y2="1013.3842"/><line style="stroke:#181818;stroke-width:0.5;stroke-dasharray:5.0,5.0;" x1="486.5" x2="486.5" y1="187.3218" y2="1013.3842"/><line style="stroke:#181818;stroke-width:0.5;stroke-dasharray:5.0,5.0;" x1="638.5" x2="638.5" y1="187.3218" y2="1013.3842"/><line style="stroke:#181818;stroke-width:0.5;stroke-dasharray:5.0,5.0;" x1="727.5" x2="727.5" y1="187.3218" y2="1013.3842"/><rect fill="#C1C7C9" height="33.0679" rx="2.5" ry="2.5" style="stroke:#181818;stroke-width:0.5;" width="115" x="40" y="153.2539"/><text fill="#000000" font-family="sans-serif" font-size="14" lengthAdjust="spacing" textLength="101" x="47" y="175.2198">Central-Ledger</text><rect fill="#C1C7C9" height="33.0679" rx="2.5" ry="2.5" style="stroke:#181818;stroke-width:0.5;" width="115" x="40" y="1012.3842"/><text fill="#000000" font-family="sans-serif" font-size="14" lengthAdjust="spacing" textLength="101" x="47" y="1034.3502">Central-Ledger</text><rect fill="#F5FFF5" height="33.0679" rx="2.5" ry="2.5" style="stroke:#181818;stroke-width:0.5;" width="69" x="194" y="153.2539"/><text fill="#000000" font-family="sans-serif" font-size="14" lengthAdjust="spacing" textLength="55" x="201" y="175.2198">Rest API</text><rect fill="#F5FFF5" height="33.0679" rx="2.5" ry="2.5" style="stroke:#181818;stroke-width:0.5;" width="69" x="194" y="1012.3842"/><text fill="#000000" font-family="sans-serif" font-size="14" lengthAdjust="spacing" textLength="55" x="201" y="1034.3502">Rest API</text><rect fill="#F5FFF5" height="52.1358" rx="2.5" ry="2.5" style="stroke:#181818;stroke-width:0.5;" width="68" x="280.5" y="134.186"/><text fill="#000000" font-family="sans-serif" font-size="14" lengthAdjust="spacing" textLength="37" x="294" y="156.1519">Event</text><text fill="#000000" font-family="sans-serif" font-size="14" lengthAdjust="spacing" textLength="54" x="287.5" y="175.2198">Handler</text><rect fill="#F5FFF5" height="52.1358" rx="2.5" ry="2.5" style="stroke:#181818;stroke-width:0.5;" width="68" x="280.5" y="1012.3842"/><text fill="#000000" font-family="sans-serif" font-size="14" lengthAdjust="spacing" textLength="37" x="294" y="1034.3502">Event</text><text fill="#000000" font-family="sans-serif" font-size="14" lengthAdjust="spacing" textLength="54" x="287.5" y="1053.4181">Handler</text><rect fill="#D2E5D3" height="52.1358" rx="2.5" ry="2.5" style="stroke:#181818;stroke-width:0.5;" width="116" x="428.5" y="134.186"/><text fill="#000000" font-family="sans-serif" font-size="14" lengthAdjust="spacing" textLength="102" x="435.5" y="156.1519">Settlements BC</text><text fill="#000000" font-family="sans-serif" font-size="14" lengthAdjust="spacing" textLength="66" x="453.5" y="175.2198">App Logic</text><rect fill="#D2E5D3" height="52.1358" rx="2.5" ry="2.5" style="stroke:#181818;stroke-width:0.5;" width="116" x="428.5" y="1012.3842"/><text fill="#000000" font-family="sans-serif" font-size="14" lengthAdjust="spacing" textLength="102" x="435.5" y="1034.3502">Settlements BC</text><text fill="#000000" font-family="sans-serif" font-size="14" lengthAdjust="spacing" textLength="66" x="453.5" y="1053.4181">App Logic</text><text fill="#000000" font-family="sans-serif" font-size="14" lengthAdjust="spacing" textLength="80" x="593.5" y="164.1519">Settlements</text><text fill="#000000" font-family="sans-serif" font-size="14" lengthAdjust="spacing" textLength="63" x="604" y="183.2198">Database</text><path d="M620.5,113.186 C620.5,103.186 638.5,103.186 638.5,103.186 C638.5,103.186 656.5,103.186 656.5,113.186 L656.5,139.186 C656.5,149.186 638.5,149.186 638.5,149.186 C638.5,149.186 620.5,149.186 620.5,139.186 L620.5,113.186 " fill="#94C195" style="stroke:#181818;stroke-width:1.5;"/><path d="M620.5,113.186 C620.5,123.186 638.5,123.186 638.5,123.186 C638.5,123.186 656.5,123.186 656.5,113.186 " fill="none" style="stroke:#181818;stroke-width:1.5;"/><text fill="#000000" font-family="sans-serif" font-size="14" lengthAdjust="spacing" textLength="80" x="593.5" y="1027.3502">Settlements</text><text fill="#000000" font-family="sans-serif" font-size="14" lengthAdjust="spacing" textLength="63" x="604" y="1046.4181">Database</text><path d="M620.5,1060.5201 C620.5,1050.5201 638.5,1050.5201 638.5,1050.5201 C638.5,1050.5201 656.5,1050.5201 656.5,1060.5201 L656.5,1086.5201 C656.5,1096.5201 638.5,1096.5201 638.5,1096.5201 C638.5,1096.5201 620.5,1096.5201 620.5,1086.5201 L620.5,1060.5201 " fill="#94C195" style="stroke:#181818;stroke-width:1.5;"/><path d="M620.5,1060.5201 C620.5,1070.5201 638.5,1070.5201 638.5,1070.5201 C638.5,1070.5201 656.5,1070.5201 656.5,1060.5201 " fill="none" style="stroke:#181818;stroke-width:1.5;"/><rect fill="#66A767" height="52.1358" rx="2.5" ry="2.5" style="stroke:#181818;stroke-width:0.5;" width="68" x="693.5" y="134.186"/><text fill="#000000" font-family="sans-serif" font-size="14" lengthAdjust="spacing" textLength="47" x="702" y="156.1519">Ledger</text><text fill="#000000" font-family="sans-serif" font-size="14" lengthAdjust="spacing" textLength="54" x="700.5" y="175.2198">Adapter</text><rect fill="#66A767" height="52.1358" rx="2.5" ry="2.5" style="stroke:#181818;stroke-width:0.5;" width="68" x="693.5" y="1012.3842"/><text fill="#000000" font-family="sans-serif" font-size="14" lengthAdjust="spacing" textLength="47" x="702" y="1034.3502">Ledger</text><text fill="#000000" font-family="sans-serif" font-size="14" lengthAdjust="spacing" textLength="54" x="700.5" y="1053.4181">Adapter</text><path d="M5,202.3218 L5,247.3218 L191,247.3218 L191,212.3218 L181,202.3218 L5,202.3218 " fill="#FEFFDD" style="stroke:#181818;stroke-width:0.5;"/><path d="M181,202.3218 L181,212.3218 L191,212.3218 L181,202.3218 " fill="#FEFFDD" style="stroke:#181818;stroke-width:0.5;"/><text fill="#000000" font-family="sans-serif" font-size="13" lengthAdjust="spacing" textLength="126" x="11" y="221.2188">Clears transactions &amp;</text><text fill="#000000" font-family="sans-serif" font-size="13" lengthAdjust="spacing" textLength="165" x="11" y="238.9248">maintains liquidity balances</text><path d="M30,259.7338 L255,259.7338 L255,269.4398 L245,279.4398 L30,279.4398 L30,259.7338 " fill="#EEEEEE" style="stroke:#000000;stroke-width:1.5;"/><rect fill="none" height="225.6481" style="stroke:#000000;stroke-width:1.5;" width="524.5" x="30" y="259.7338"/><text fill="#000000" font-family="sans-serif" font-size="13" font-weight="bold" lengthAdjust="spacing" textLength="180" x="45" y="274.6308">1. Publish Cleared Transfers</text><line style="stroke:#181818;stroke-width:1.0;stroke-dasharray:2.0,2.0;" x1="97.5" x2="139.5" y1="303.1459" y2="303.1459"/><line style="stroke:#181818;stroke-width:1.0;stroke-dasharray:2.0,2.0;" x1="139.5" x2="139.5" y1="303.1459" y2="316.1459"/><line style="stroke:#181818;stroke-width:1.0;stroke-dasharray:2.0,2.0;" x1="98.5" x2="139.5" y1="316.1459" y2="316.1459"/><polygon fill="#181818" points="107.5,299.1459,97.5,303.1459,107.5,307.1459,103.5,303.1459" style="stroke:#181818;stroke-width:1.0;"/><polygon fill="#181818" points="108.5,312.1459,98.5,316.1459,108.5,320.1459,104.5,316.1459" style="stroke:#181818;stroke-width:1.0;"/><text fill="#000000" font-family="sans-serif" font-size="13" font-weight="bold" lengthAdjust="spacing" textLength="7" x="104.5" y="297.3369">1</text><text fill="#000000" font-family="sans-serif" font-size="13" lengthAdjust="spacing" textLength="97" x="115.5" y="297.3369">Prepare transfer</text><line style="stroke:#181818;stroke-width:1.0;stroke-dasharray:2.0,2.0;" x1="97.5" x2="139.5" y1="365.5579" y2="365.5579"/><line style="stroke:#181818;stroke-width:1.0;stroke-dasharray:2.0,2.0;" x1="139.5" x2="139.5" y1="365.5579" y2="378.5579"/><line style="stroke:#181818;stroke-width:1.0;stroke-dasharray:2.0,2.0;" x1="98.5" x2="139.5" y1="378.5579" y2="378.5579"/><polygon fill="#181818" points="107.5,361.5579,97.5,365.5579,107.5,369.5579,103.5,365.5579" style="stroke:#181818;stroke-width:1.0;"/><polygon fill="#181818" points="108.5,374.5579,98.5,378.5579,108.5,382.5579,104.5,378.5579" style="stroke:#181818;stroke-width:1.0;"/><text fill="#000000" font-family="sans-serif" font-size="13" font-weight="bold" lengthAdjust="spacing" textLength="7" x="104.5" y="350.8959">2</text><text fill="#000000" font-family="sans-serif" font-size="13" lengthAdjust="spacing" textLength="41" x="115.5" y="342.0429">Obtain</text><text fill="#000000" font-family="sans-serif" font-size="13" lengthAdjust="spacing" textLength="106" x="115.5" y="359.7489">settlement model</text><polygon fill="#181818" points="302.5,423.9699,312.5,427.9699,302.5,431.9699,306.5,427.9699" style="stroke:#181818;stroke-width:1.0;"/><line style="stroke:#181818;stroke-width:1.0;" x1="97.5" x2="308.5" y1="427.9699" y2="427.9699"/><text fill="#000000" font-family="sans-serif" font-size="13" font-weight="bold" lengthAdjust="spacing" textLength="7" x="104.5" y="413.3079">3</text><text fill="#000000" font-family="sans-serif" font-size="13" lengthAdjust="spacing" textLength="88" x="115.5" y="404.4549">Fulfil &amp; publish</text><text fill="#000000" font-family="sans-serif" font-size="13" lengthAdjust="spacing" textLength="99" x="115.5" y="422.1609">cleared transfers</text><polygon fill="#181818" points="474.5,473.382,484.5,477.382,474.5,481.382,478.5,477.382" style="stroke:#181818;stroke-width:1.0;"/><line style="stroke:#181818;stroke-width:1.0;stroke-dasharray:2.0,2.0;" x1="314.5" x2="480.5" y1="477.382" y2="477.382"/><text fill="#000000" font-family="sans-serif" font-size="13" font-weight="bold" lengthAdjust="spacing" textLength="7" x="321.5" y="462.72">4</text><text fill="#000000" font-family="sans-serif" font-size="13" lengthAdjust="spacing" textLength="57" x="332.5" y="453.8669">Consume</text><text fill="#000000" font-family="sans-serif" font-size="13" lengthAdjust="spacing" textLength="96" x="332.5" y="471.573">published event</text><path d="M30,499.382 L281,499.382 L281,509.088 L271,519.088 L30,519.088 L30,499.382 " fill="#EEEEEE" style="stroke:#000000;stroke-width:1.5;"/><rect fill="none" height="497.0023" style="stroke:#000000;stroke-width:1.5;" width="741.5" x="30" y="499.382"/><text fill="#000000" font-family="sans-serif" font-size="13" font-weight="bold" lengthAdjust="spacing" textLength="206" x="45" y="514.279">2. Process Settlement Transfers</text><line style="stroke:#181818;stroke-width:1.0;stroke-dasharray:2.0,2.0;" x1="486.5" x2="528.5" y1="560.5" y2="560.5"/><line style="stroke:#181818;stroke-width:1.0;stroke-dasharray:2.0,2.0;" x1="528.5" x2="528.5" y1="560.5" y2="573.5"/><line style="stroke:#181818;stroke-width:1.0;stroke-dasharray:2.0,2.0;" x1="487.5" x2="528.5" y1="573.5" y2="573.5"/><polygon fill="#181818" points="497.5,569.5,487.5,573.5,497.5,577.5,493.5,573.5" style="stroke:#181818;stroke-width:1.0;"/><text fill="#000000" font-family="sans-serif" font-size="13" font-weight="bold" lengthAdjust="spacing" textLength="7" x="493.5" y="545.838">1</text><text fill="#000000" font-family="sans-serif" font-size="13" lengthAdjust="spacing" textLength="124" x="504.5" y="536.985">Trigger settlement &amp;</text><text fill="#000000" font-family="sans-serif" font-size="13" lengthAdjust="spacing" textLength="127" x="504.5" y="554.691">validate transfer data</text><polygon fill="#181818" points="108.5,601.206,98.5,605.206,108.5,609.206,104.5,605.206" style="stroke:#181818;stroke-width:1.0;"/><line style="stroke:#181818;stroke-width:1.0;" x1="102.5" x2="485.5" y1="605.206" y2="605.206"/><text fill="#000000" font-family="sans-serif" font-size="13" font-weight="bold" lengthAdjust="spacing" textLength="7" x="114.5" y="599.397">2</text><text fill="#000000" font-family="sans-serif" font-size="13" lengthAdjust="spacing" textLength="154" x="125.5" y="599.397">Lookup settlement config</text><polygon fill="#181818" points="474.5,632.912,484.5,636.912,474.5,640.912,478.5,636.912" style="stroke:#181818;stroke-width:1.0;"/><line style="stroke:#181818;stroke-width:1.0;" x1="97.5" x2="480.5" y1="636.912" y2="636.912"/><text fill="#000000" font-family="sans-serif" font-size="13" font-weight="bold" lengthAdjust="spacing" textLength="7" x="104.5" y="631.103">3</text><text fill="#000000" font-family="sans-serif" font-size="13" lengthAdjust="spacing" textLength="149" x="115.5" y="631.103">Return settlement config</text><polygon fill="#181818" points="497.5,682.3241,487.5,686.3241,497.5,690.3241,493.5,686.3241" style="stroke:#181818;stroke-width:1.0;"/><polygon fill="#181818" points="626.5,682.3241,636.5,686.3241,626.5,690.3241,630.5,686.3241" style="stroke:#181818;stroke-width:1.0;"/><line style="stroke:#181818;stroke-width:1.0;stroke-dasharray:2.0,2.0;" x1="491.5" x2="632.5" y1="686.3241" y2="686.3241"/><text fill="#000000" font-family="sans-serif" font-size="13" font-weight="bold" lengthAdjust="spacing" textLength="7" x="503.5" y="671.6621">4</text><text fill="#000000" font-family="sans-serif" font-size="13" lengthAdjust="spacing" textLength="63" x="514.5" y="662.8091">Determine</text><text fill="#000000" font-family="sans-serif" font-size="13" lengthAdjust="spacing" textLength="102" x="514.5" y="680.5151">settlement batch</text><polygon fill="#181818" points="715.5,714.0301,725.5,718.0301,715.5,722.0301,719.5,718.0301" style="stroke:#181818;stroke-width:1.0;"/><line style="stroke:#181818;stroke-width:1.0;" x1="486.5" x2="721.5" y1="718.0301" y2="718.0301"/><text fill="#000000" font-family="sans-serif" font-size="13" font-weight="bold" lengthAdjust="spacing" textLength="7" x="493.5" y="712.2211">5</text><text fill="#000000" font-family="sans-serif" font-size="13" lengthAdjust="spacing" textLength="166" x="504.5" y="712.2211">Obtain settlement accounts</text><polygon fill="#181818" points="497.5,745.7361,487.5,749.7361,497.5,753.7361,493.5,749.7361" style="stroke:#181818;stroke-width:1.0;"/><line style="stroke:#181818;stroke-width:1.0;" x1="491.5" x2="726.5" y1="749.7361" y2="749.7361"/><text fill="#000000" font-family="sans-serif" font-size="13" font-weight="bold" lengthAdjust="spacing" textLength="7" x="503.5" y="743.9271">6</text><text fill="#000000" font-family="sans-serif" font-size="13" lengthAdjust="spacing" textLength="166" x="514.5" y="743.9271">Return settlement accounts</text><polygon fill="#181818" points="715.5,777.4421,725.5,781.4421,715.5,785.4421,719.5,781.4421" style="stroke:#181818;stroke-width:1.0;"/><line style="stroke:#181818;stroke-width:1.0;" x1="486.5" x2="721.5" y1="781.4421" y2="781.4421"/><text fill="#000000" font-family="sans-serif" font-size="13" font-weight="bold" lengthAdjust="spacing" textLength="7" x="493.5" y="775.6331">7</text><text fill="#000000" font-family="sans-serif" font-size="13" lengthAdjust="spacing" textLength="157" x="504.5" y="775.6331">Create settlement transfer</text><polygon fill="#181818" points="497.5,809.1481,487.5,813.1481,497.5,817.1481,493.5,813.1481" style="stroke:#181818;stroke-width:1.0;"/><line style="stroke:#181818;stroke-width:1.0;" x1="491.5" x2="726.5" y1="813.1481" y2="813.1481"/><text fill="#000000" font-family="sans-serif" font-size="13" font-weight="bold" lengthAdjust="spacing" textLength="7" x="503.5" y="807.3391">8</text><text fill="#000000" font-family="sans-serif" font-size="13" lengthAdjust="spacing" textLength="180" x="514.5" y="807.3391">Return transfer creation result</text><polygon fill="#181818" points="497.5,858.5602,487.5,862.5602,497.5,866.5602,493.5,862.5602" style="stroke:#181818;stroke-width:1.0;"/><polygon fill="#181818" points="626.5,858.5602,636.5,862.5602,626.5,866.5602,630.5,862.5602" style="stroke:#181818;stroke-width:1.0;"/><line style="stroke:#181818;stroke-width:1.0;stroke-dasharray:2.0,2.0;" x1="491.5" x2="632.5" y1="862.5602" y2="862.5602"/><text fill="#000000" font-family="sans-serif" font-size="13" font-weight="bold" lengthAdjust="spacing" textLength="7" x="503.5" y="847.8982">9</text><text fill="#000000" font-family="sans-serif" font-size="13" lengthAdjust="spacing" textLength="99" x="514.5" y="839.0452">Persist complete</text><text fill="#000000" font-family="sans-serif" font-size="13" lengthAdjust="spacing" textLength="115" x="514.5" y="856.7512">settlement transfer</text><line style="stroke:#181818;stroke-width:1.0;" x1="486.5" x2="528.5" y1="911.9722" y2="911.9722"/><line style="stroke:#181818;stroke-width:1.0;" x1="528.5" x2="528.5" y1="911.9722" y2="924.9722"/><line style="stroke:#181818;stroke-width:1.0;" x1="487.5" x2="528.5" y1="924.9722" y2="924.9722"/><polygon fill="#181818" points="496.5,907.9722,486.5,911.9722,496.5,915.9722,492.5,911.9722" style="stroke:#181818;stroke-width:1.0;"/><polygon fill="#181818" points="497.5,920.9722,487.5,924.9722,497.5,928.9722,493.5,924.9722" style="stroke:#181818;stroke-width:1.0;"/><text fill="#000000" font-family="sans-serif" font-size="13" font-weight="bold" lengthAdjust="spacing" textLength="14" x="493.5" y="897.3102">10</text><text fill="#000000" font-family="sans-serif" font-size="13" lengthAdjust="spacing" textLength="47" x="511.5" y="888.4572">Prepare</text><text fill="#000000" font-family="sans-serif" font-size="13" lengthAdjust="spacing" textLength="85" x="511.5" y="906.1632">response data</text><polygon fill="#181818" points="325.5,952.6782,315.5,956.6782,325.5,960.6782,321.5,956.6782" style="stroke:#181818;stroke-width:1.0;"/><line style="stroke:#181818;stroke-width:1.0;" x1="319.5" x2="485.5" y1="956.6782" y2="956.6782"/><text fill="#000000" font-family="sans-serif" font-size="13" font-weight="bold" lengthAdjust="spacing" textLength="14" x="331.5" y="950.8692">11</text><text fill="#000000" font-family="sans-serif" font-size="13" lengthAdjust="spacing" textLength="41" x="349.5" y="950.8692">Return</text><text fill="#000000" font-family="sans-serif" font-size="13" font-weight="bold" lengthAdjust="spacing" textLength="56" x="393.5" y="950.8692">Transfer</text><text fill="#000000" font-family="sans-serif" font-size="13" lengthAdjust="spacing" textLength="27" x="452.5" y="950.8692">data</text><polygon fill="#181818" points="108.5,984.3842,98.5,988.3842,108.5,992.3842,104.5,988.3842" style="stroke:#181818;stroke-width:1.0;"/><line style="stroke:#181818;stroke-width:1.0;" x1="102.5" x2="313.5" y1="988.3842" y2="988.3842"/><text fill="#000000" font-family="sans-serif" font-size="13" font-weight="bold" lengthAdjust="spacing" textLength="14" x="114.5" y="982.5752">12</text><text fill="#000000" font-family="sans-serif" font-size="13" lengthAdjust="spacing" textLength="175" x="132.5" y="982.5752">Publish settled transfer event</text><!--SRC=[bLLhQ-Cu5FtkNt6PG0k6r6rtsv9G1bAdPGVAJcZxqL1a-oOLbIMl96Ucy-ltobRyI9pfRg3KsFVSnpb7L-QTov9fLi0Bjm8VbBJF_1V2vNbW3Z_5IYWDauVwrmkmBk1EwHprawfa7YijKSF5-NZConlFtYKQ0zVZ0RxE-VdLtUmmX6Nl6zsKwOVL7-4PBVqhK5fOQrL08cDwranC7p7Ve0u2IcLvnaj68L-67xy0Cu0_xMicO19Vn3VnB93A8gWjZTDy281-iK2c3H1K6fPPhgI1a_fBmRYqz6T0y7ygddFx0IaJJ6Pe0fGvk7n1aAgVlLODtCL4wunOdTLP1Zq-eR6mM7shkpDfzghTYyd35OLV7ORVRztmYVoBoLpucHmAw_T7OSDk4haeItXK6vwr2LXPlWht1YRBo_khvHzrafnPbZA3mmo9NFhtBJnFOJBxCxwOZHHlw2VK8cUbxJNDyjAInDVNYvlhcve_OYu8dFubN9p1gae5Ds-D89Z3YrDaZTe4hB9ALaLAahjoNjNRwVJhxdaEAutK1ZOwhdtawMXe6EvIGzcWml2C6lwUEhN1TBOhL8u2Y7nWGgYCENVKB2LoonaC7GUw4aYUanikyNYZlaeYz-lq8GJeT9x3GoNMNC09b9wZH6QU9Tkor1zu3v_8AFBGsb9H13-u46uga4XsDan_r8EHM8aCmoZQKUHvpU-tTiK-X69v58LXNQohCFNrEblD8QQ3L1L8jNrbQhQEtfVpT8ZSQ_sH6uiIrhGTUlkW5R39I6RQ6UcIZAIL6saithIDzmhkDp-dSBvnYlOaEY79cU34KUUnch6n6Mv7SXxjdjBLrJ0dLPMazMI9AZeqJePlkzYbLGFY1uIrvdfKwfr8wFLD6TTyCmAxdNQm9xILbaTWnsQZ9K3EH9kzaJ4pbhtXOGBdfPLWbkGhd2FebTkF4IpoWWu1RSBHaOOrbaXhXC9nU6XIHgK_xp0C_ObJ9Vce1eKXk7MM0vtcCLcSh6VkpCGQdTuIVpH0u6jQ-l1zTV-tVy6sZ0kM2eoYSMcwpTSU_TuCBClezhDcN9y-zb2Yts3xTUaaDbFqe8Cb-L_AjexFN2wt1UdYgeJzLBiLdJawmMI7eXIaur32uRBUp_CLM4glDhhCElB2yFcG0XAqCbnkODMxYVp7pntY-Q4DiwxTF2XnLykyQ79vivvsVOqiFazP6BOWu7AjZkowDbNRnuWZzwkst5XEYoD5942Btu7cK9NrkjgnHDnR1Sidkgy_ICeJY9j7_3z3xRBJLAqNsl4E5TnRWhjREf7adv9k2Ensw6-lWR7wBRAzPtiGvpr_MJQ6wwxAtgNnBm00]--></g></svg>