<?xml version="1.0" encoding="us-ascii" standalone="no"?><svg xmlns="http://www.w3.org/2000/svg" xmlns:xlink="http://www.w3.org/1999/xlink" contentStyleType="text/css" height="1231px" preserveAspectRatio="none" style="width:1162px;height:1231px;background:#FFFFFF;" version="1.1" viewBox="0 0 1162 1231" width="1162px" zoomAndPan="magnify"><defs/><g><rect fill="#005B96" height="64.4799" id="_title" rx="5" ry="5" style="stroke:#005B96;stroke-width:6.0;" width="182" x="491.5" y="10"/><text fill="#FFFFFF" font-family="sans-serif" font-size="20" font-weight="bold" lengthAdjust="spacing" textLength="167" x="496.5" y="36.38">Settlement from</text><text fill="#FFFFFF" font-family="sans-serif" font-size="20" font-weight="bold" lengthAdjust="spacing" textLength="126" x="519.5" y="63.62">Transfers BC</text><rect fill="#F9FFF9" height="1137.4522" style="stroke:#181818;stroke-width:0.5;" width="589.5" x="265.5" y="81.4799"/><text fill="#000000" font-family="sans-serif" font-size="13" font-weight="bold" lengthAdjust="spacing" textLength="101" x="508.25" y="95.377">Settlements BC</text><rect fill="none" height="225.6481" style="stroke:#000000;stroke-width:1.5;" width="517" x="63" y="242.0278"/><rect fill="none" height="633.1203" style="stroke:#000000;stroke-width:1.5;" width="1093" x="63" y="481.6759"/><line style="stroke:#181818;stroke-width:0.5;stroke-dasharray:5.0,5.0;" x1="123" x2="123" y1="187.3218" y2="1131.7963"/><line style="stroke:#181818;stroke-width:0.5;stroke-dasharray:5.0,5.0;" x1="339.5" x2="339.5" y1="187.3218" y2="1131.7963"/><line style="stroke:#181818;stroke-width:0.5;stroke-dasharray:5.0,5.0;" x1="512" x2="512" y1="187.3218" y2="1131.7963"/><line style="stroke:#181818;stroke-width:0.5;stroke-dasharray:5.0,5.0;" x1="728" x2="728" y1="187.3218" y2="1131.7963"/><line style="stroke:#181818;stroke-width:0.5;stroke-dasharray:5.0,5.0;" x1="817" x2="817" y1="187.3218" y2="1131.7963"/><line style="stroke:#181818;stroke-width:0.5;stroke-dasharray:5.0,5.0;" x1="913" x2="913" y1="187.3218" y2="1131.7963"/><line style="stroke:#181818;stroke-width:0.5;stroke-dasharray:5.0,5.0;" x1="1026" x2="1026" y1="187.3218" y2="1131.7963"/><rect fill="#C1C7C9" height="33.0679" rx="2.5" ry="2.5" style="stroke:#181818;stroke-width:0.5;" width="100" x="73" y="153.2539"/><text fill="#000000" font-family="sans-serif" font-size="14" lengthAdjust="spacing" textLength="86" x="80" y="175.2198">Transfers BC</text><rect fill="#C1C7C9" height="33.0679" rx="2.5" ry="2.5" style="stroke:#181818;stroke-width:0.5;" width="100" x="73" y="1130.7963"/><text fill="#000000" font-family="sans-serif" font-size="14" lengthAdjust="spacing" textLength="86" x="80" y="1152.7622">Transfers BC</text><rect fill="#F5FFF5" height="52.1358" rx="2.5" ry="2.5" style="stroke:#181818;stroke-width:0.5;" width="141" x="269.5" y="134.186"/><text fill="#000000" font-family="sans-serif" font-size="14" lengthAdjust="spacing" textLength="80" x="298" y="156.1519">Settlements</text><text fill="#000000" font-family="sans-serif" font-size="14" lengthAdjust="spacing" textLength="127" x="276.5" y="175.2198">Command Handler</text><rect fill="#F5FFF5" height="52.1358" rx="2.5" ry="2.5" style="stroke:#181818;stroke-width:0.5;" width="141" x="269.5" y="1130.7963"/><text fill="#000000" font-family="sans-serif" font-size="14" lengthAdjust="spacing" textLength="80" x="298" y="1152.7622">Settlements</text><text fill="#000000" font-family="sans-serif" font-size="14" lengthAdjust="spacing" textLength="127" x="276.5" y="1171.8301">Command Handler</text><rect fill="#D2E5D3" height="52.1358" rx="2.5" ry="2.5" style="stroke:#181818;stroke-width:0.5;" width="116" x="454" y="134.186"/><text fill="#000000" font-family="sans-serif" font-size="14" lengthAdjust="spacing" textLength="102" x="461" y="156.1519">Settlements BC</text><text fill="#000000" font-family="sans-serif" font-size="14" lengthAdjust="spacing" textLength="66" x="479" y="175.2198">App Logic</text><rect fill="#D2E5D3" height="52.1358" rx="2.5" ry="2.5" style="stroke:#181818;stroke-width:0.5;" width="116" x="454" y="1130.7963"/><text fill="#000000" font-family="sans-serif" font-size="14" lengthAdjust="spacing" textLength="102" x="461" y="1152.7622">Settlements BC</text><text fill="#000000" font-family="sans-serif" font-size="14" lengthAdjust="spacing" textLength="66" x="479" y="1171.8301">App Logic</text><text fill="#000000" font-family="sans-serif" font-size="14" lengthAdjust="spacing" textLength="80" x="683" y="164.1519">Settlements</text><text fill="#000000" font-family="sans-serif" font-size="14" lengthAdjust="spacing" textLength="63" x="693.5" y="183.2198">Database</text><path d="M710,113.186 C710,103.186 728,103.186 728,103.186 C728,103.186 746,103.186 746,113.186 L746,139.186 C746,149.186 728,149.186 728,149.186 C728,149.186 710,149.186 710,139.186 L710,113.186 " fill="#94C195" style="stroke:#181818;stroke-width:1.5;"/><path d="M710,113.186 C710,123.186 728,123.186 728,123.186 C728,123.186 746,123.186 746,113.186 " fill="none" style="stroke:#181818;stroke-width:1.5;"/><text fill="#000000" font-family="sans-serif" font-size="14" lengthAdjust="spacing" textLength="80" x="683" y="1145.7622">Settlements</text><text fill="#000000" font-family="sans-serif" font-size="14" lengthAdjust="spacing" textLength="63" x="693.5" y="1164.8301">Database</text><path d="M710,1178.9321 C710,1168.9321 728,1168.9321 728,1168.9321 C728,1168.9321 746,1168.9321 746,1178.9321 L746,1204.9321 C746,1214.9321 728,1214.9321 728,1214.9321 C728,1214.9321 710,1214.9321 710,1204.9321 L710,1178.9321 " fill="#94C195" style="stroke:#181818;stroke-width:1.5;"/><path d="M710,1178.9321 C710,1188.9321 728,1188.9321 728,1188.9321 C728,1188.9321 746,1188.9321 746,1178.9321 " fill="none" style="stroke:#181818;stroke-width:1.5;"/><rect fill="#66A767" height="52.1358" rx="2.5" ry="2.5" style="stroke:#181818;stroke-width:0.5;" width="68" x="783" y="134.186"/><text fill="#000000" font-family="sans-serif" font-size="14" lengthAdjust="spacing" textLength="47" x="791.5" y="156.1519">Ledger</text><text fill="#000000" font-family="sans-serif" font-size="14" lengthAdjust="spacing" textLength="54" x="790" y="175.2198">Adapter</text><rect fill="#66A767" height="52.1358" rx="2.5" ry="2.5" style="stroke:#181818;stroke-width:0.5;" width="68" x="783" y="1130.7963"/><text fill="#000000" font-family="sans-serif" font-size="14" lengthAdjust="spacing" textLength="47" x="791.5" y="1152.7622">Ledger</text><text fill="#000000" font-family="sans-serif" font-size="14" lengthAdjust="spacing" textLength="54" x="790" y="1171.8301">Adapter</text><rect fill="#93CEFF" height="52.1358" rx="2.5" ry="2.5" style="stroke:#181818;stroke-width:0.5;" width="80" x="873" y="134.186"/><text fill="#000000" font-family="sans-serif" font-size="14" lengthAdjust="spacing" textLength="57" x="882.5" y="156.1519">Platform</text><text fill="#000000" font-family="sans-serif" font-size="14" lengthAdjust="spacing" textLength="66" x="880" y="175.2198">Config BC</text><rect fill="#93CEFF" height="52.1358" rx="2.5" ry="2.5" style="stroke:#181818;stroke-width:0.5;" width="80" x="873" y="1130.7963"/><text fill="#000000" font-family="sans-serif" font-size="14" lengthAdjust="spacing" textLength="57" x="882.5" y="1152.7622">Platform</text><text fill="#000000" font-family="sans-serif" font-size="14" lengthAdjust="spacing" textLength="66" x="880" y="1171.8301">Config BC</text><rect fill="#CC7722" height="52.1358" rx="2.5" ry="2.5" style="stroke:#181818;stroke-width:0.5;" width="96" x="978" y="134.186"/><text fill="#000000" font-family="sans-serif" font-size="14" lengthAdjust="spacing" textLength="75" x="986.5" y="156.1519">Accounts &amp;</text><text fill="#000000" font-family="sans-serif" font-size="14" lengthAdjust="spacing" textLength="82" x="985" y="175.2198">Balances BC</text><rect fill="#CC7722" height="52.1358" rx="2.5" ry="2.5" style="stroke:#181818;stroke-width:0.5;" width="96" x="978" y="1130.7963"/><text fill="#000000" font-family="sans-serif" font-size="14" lengthAdjust="spacing" textLength="75" x="986.5" y="1152.7622">Accounts &amp;</text><text fill="#000000" font-family="sans-serif" font-size="14" lengthAdjust="spacing" textLength="82" x="985" y="1171.8301">Balances BC</text><path d="M5,202.3218 L5,229.3218 L241,229.3218 L241,212.3218 L231,202.3218 L5,202.3218 " fill="#FEFFDD" style="stroke:#181818;stroke-width:0.5;"/><path d="M231,202.3218 L231,212.3218 L241,212.3218 L231,202.3218 " fill="#FEFFDD" style="stroke:#181818;stroke-width:0.5;"/><text fill="#000000" font-family="sans-serif" font-size="13" lengthAdjust="spacing" textLength="215" x="11" y="221.2188">transaction clearing &amp; publish event</text><path d="M63,242.0278 L303,242.0278 L303,251.7338 L293,261.7338 L63,261.7338 L63,242.0278 " fill="#EEEEEE" style="stroke:#000000;stroke-width:1.5;"/><rect fill="none" height="225.6481" style="stroke:#000000;stroke-width:1.5;" width="517" x="63" y="242.0278"/><text fill="#000000" font-family="sans-serif" font-size="13" font-weight="bold" lengthAdjust="spacing" textLength="195" x="78" y="256.9248">1. Create Settlement Transfer</text><line style="stroke:#181818;stroke-width:1.0;stroke-dasharray:2.0,2.0;" x1="123" x2="165" y1="285.4398" y2="285.4398"/><line style="stroke:#181818;stroke-width:1.0;stroke-dasharray:2.0,2.0;" x1="165" x2="165" y1="285.4398" y2="298.4398"/><line style="stroke:#181818;stroke-width:1.0;stroke-dasharray:2.0,2.0;" x1="124" x2="165" y1="298.4398" y2="298.4398"/><polygon fill="#181818" points="133,281.4398,123,285.4398,133,289.4398,129,285.4398" style="stroke:#181818;stroke-width:1.0;"/><polygon fill="#181818" points="134,294.4398,124,298.4398,134,302.4398,130,298.4398" style="stroke:#181818;stroke-width:1.0;"/><text fill="#000000" font-family="sans-serif" font-size="13" font-weight="bold" lengthAdjust="spacing" textLength="7" x="130" y="279.6308">1</text><text fill="#000000" font-family="sans-serif" font-size="13" lengthAdjust="spacing" textLength="97" x="141" y="279.6308">Prepare transfer</text><line style="stroke:#181818;stroke-width:1.0;stroke-dasharray:2.0,2.0;" x1="123" x2="165" y1="347.8519" y2="347.8519"/><line style="stroke:#181818;stroke-width:1.0;stroke-dasharray:2.0,2.0;" x1="165" x2="165" y1="347.8519" y2="360.8519"/><line style="stroke:#181818;stroke-width:1.0;stroke-dasharray:2.0,2.0;" x1="124" x2="165" y1="360.8519" y2="360.8519"/><polygon fill="#181818" points="133,343.8519,123,347.8519,133,351.8519,129,347.8519" style="stroke:#181818;stroke-width:1.0;"/><polygon fill="#181818" points="134,356.8519,124,360.8519,134,364.8519,130,360.8519" style="stroke:#181818;stroke-width:1.0;"/><text fill="#000000" font-family="sans-serif" font-size="13" font-weight="bold" lengthAdjust="spacing" textLength="7" x="130" y="333.1899">2</text><text fill="#000000" font-family="sans-serif" font-size="13" lengthAdjust="spacing" textLength="41" x="141" y="324.3369">Obtain</text><text fill="#000000" font-family="sans-serif" font-size="13" lengthAdjust="spacing" textLength="106" x="141" y="342.0429">settlement model</text><polygon fill="#181818" points="328,406.2639,338,410.2639,328,414.2639,332,410.2639" style="stroke:#181818;stroke-width:1.0;"/><line style="stroke:#181818;stroke-width:1.0;" x1="123" x2="334" y1="410.2639" y2="410.2639"/><text fill="#000000" font-family="sans-serif" font-size="13" font-weight="bold" lengthAdjust="spacing" textLength="7" x="130" y="395.6019">3</text><text fill="#000000" font-family="sans-serif" font-size="13" lengthAdjust="spacing" textLength="91" x="141" y="386.7489">Fulfil transfer &amp;</text><text fill="#000000" font-family="sans-serif" font-size="13" lengthAdjust="spacing" textLength="81" x="141" y="404.4549">publish event</text><polygon fill="#181818" points="500,455.6759,510,459.6759,500,463.6759,504,459.6759" style="stroke:#181818;stroke-width:1.0;"/><line style="stroke:#181818;stroke-width:1.0;stroke-dasharray:2.0,2.0;" x1="340" x2="506" y1="459.6759" y2="459.6759"/><text fill="#000000" font-family="sans-serif" font-size="13" font-weight="bold" lengthAdjust="spacing" textLength="7" x="347" y="445.0139">4</text><text fill="#000000" font-family="sans-serif" font-size="13" lengthAdjust="spacing" textLength="57" x="358" y="436.1609">Consume</text><text fill="#000000" font-family="sans-serif" font-size="13" lengthAdjust="spacing" textLength="96" x="358" y="453.8669">published event</text><path d="M63,481.6759 L269,481.6759 L269,491.382 L259,501.382 L63,501.382 L63,481.6759 " fill="#EEEEEE" style="stroke:#000000;stroke-width:1.5;"/><rect fill="none" height="633.1203" style="stroke:#000000;stroke-width:1.5;" width="1093" x="63" y="481.6759"/><text fill="#000000" font-family="sans-serif" font-size="13" font-weight="bold" lengthAdjust="spacing" textLength="161" x="78" y="496.573">2. Settlement - App Logic</text><line style="stroke:#181818;stroke-width:1.0;stroke-dasharray:2.0,2.0;" x1="512" x2="554" y1="542.794" y2="542.794"/><line style="stroke:#181818;stroke-width:1.0;stroke-dasharray:2.0,2.0;" x1="554" x2="554" y1="542.794" y2="555.794"/><line style="stroke:#181818;stroke-width:1.0;stroke-dasharray:2.0,2.0;" x1="513" x2="554" y1="555.794" y2="555.794"/><polygon fill="#181818" points="523,551.794,513,555.794,523,559.794,519,555.794" style="stroke:#181818;stroke-width:1.0;"/><text fill="#000000" font-family="sans-serif" font-size="13" font-weight="bold" lengthAdjust="spacing" textLength="7" x="519" y="528.132">1</text><text fill="#000000" font-family="sans-serif" font-size="13" lengthAdjust="spacing" textLength="161" x="530" y="519.279">Trigger settlement transfer</text><text fill="#000000" font-family="sans-serif" font-size="13" lengthAdjust="spacing" textLength="177" x="530" y="536.985">event &amp; validate transfer data</text><polygon fill="#181818" points="716,583.5,726,587.5,716,591.5,720,587.5" style="stroke:#181818;stroke-width:1.0;"/><line style="stroke:#181818;stroke-width:1.0;stroke-dasharray:2.0,2.0;" x1="512" x2="722" y1="587.5" y2="587.5"/><text fill="#000000" font-family="sans-serif" font-size="13" font-weight="bold" lengthAdjust="spacing" textLength="7" x="519" y="581.691">2</text><text fill="#000000" font-family="sans-serif" font-size="13" lengthAdjust="spacing" textLength="131" x="530" y="581.691">Lookup cached config</text><polygon fill="#181818" points="739,615.206,729,619.206,739,623.206,735,619.206" style="stroke:#181818;stroke-width:1.0;"/><polygon fill="#181818" points="901,615.206,911,619.206,901,623.206,905,619.206" style="stroke:#181818;stroke-width:1.0;"/><line style="stroke:#181818;stroke-width:1.0;" x1="733" x2="907" y1="619.206" y2="619.206"/><text fill="#000000" font-family="sans-serif" font-size="13" font-weight="bold" lengthAdjust="spacing" textLength="7" x="745" y="613.397">3</text><text fill="#000000" font-family="sans-serif" font-size="13" lengthAdjust="spacing" textLength="150" x="756" y="613.397">Retrieve uncached config</text><polygon fill="#181818" points="523,646.912,513,650.912,523,654.912,519,650.912" style="stroke:#181818;stroke-width:1.0;"/><line style="stroke:#181818;stroke-width:1.0;stroke-dasharray:2.0,2.0;" x1="517" x2="727" y1="650.912" y2="650.912"/><text fill="#000000" font-family="sans-serif" font-size="13" font-weight="bold" lengthAdjust="spacing" textLength="7" x="529" y="645.103">4</text><text fill="#000000" font-family="sans-serif" font-size="13" lengthAdjust="spacing" textLength="81" x="540" y="645.103">Return config</text><polygon fill="#181818" points="523,678.6181,513,682.6181,523,686.6181,519,682.6181" style="stroke:#181818;stroke-width:1.0;"/><polygon fill="#181818" points="716,678.6181,726,682.6181,716,686.6181,720,682.6181" style="stroke:#181818;stroke-width:1.0;"/><line style="stroke:#181818;stroke-width:1.0;stroke-dasharray:2.0,2.0;" x1="517" x2="722" y1="682.6181" y2="682.6181"/><text fill="#000000" font-family="sans-serif" font-size="13" font-weight="bold" lengthAdjust="spacing" textLength="7" x="529" y="676.8091">5</text><text fill="#000000" font-family="sans-serif" font-size="13" lengthAdjust="spacing" textLength="181" x="540" y="676.8091">Determine settlement batches</text><polygon fill="#181818" points="805,710.3241,815,714.3241,805,718.3241,809,714.3241" style="stroke:#181818;stroke-width:1.0;"/><line style="stroke:#181818;stroke-width:1.0;" x1="512" x2="811" y1="714.3241" y2="714.3241"/><text fill="#000000" font-family="sans-serif" font-size="13" font-weight="bold" lengthAdjust="spacing" textLength="7" x="519" y="708.5151">6</text><text fill="#000000" font-family="sans-serif" font-size="13" lengthAdjust="spacing" textLength="174" x="530" y="708.5151">Request settlement accounts</text><polygon fill="#181818" points="1014,742.0301,1024,746.0301,1014,750.0301,1018,746.0301" style="stroke:#181818;stroke-width:1.0;"/><line style="stroke:#181818;stroke-width:1.0;" x1="817" x2="1020" y1="746.0301" y2="746.0301"/><text fill="#000000" font-family="sans-serif" font-size="13" font-weight="bold" lengthAdjust="spacing" textLength="7" x="824" y="740.2211">7</text><text fill="#000000" font-family="sans-serif" font-size="13" lengthAdjust="spacing" textLength="174" x="835" y="740.2211">Request settlement accounts</text><line style="stroke:#181818;stroke-width:1.0;stroke-dasharray:2.0,2.0;" x1="1026" x2="1068" y1="795.4421" y2="795.4421"/><line style="stroke:#181818;stroke-width:1.0;stroke-dasharray:2.0,2.0;" x1="1068" x2="1068" y1="795.4421" y2="808.4421"/><line style="stroke:#181818;stroke-width:1.0;stroke-dasharray:2.0,2.0;" x1="1027" x2="1068" y1="808.4421" y2="808.4421"/><polygon fill="#181818" points="1037,804.4421,1027,808.4421,1037,812.4421,1033,808.4421" style="stroke:#181818;stroke-width:1.0;"/><text fill="#000000" font-family="sans-serif" font-size="13" font-weight="bold" lengthAdjust="spacing" textLength="7" x="1033" y="780.7801">8</text><text fill="#000000" font-family="sans-serif" font-size="13" lengthAdjust="spacing" textLength="97" x="1044" y="771.9271">Retrieve / create</text><text fill="#000000" font-family="sans-serif" font-size="13" lengthAdjust="spacing" textLength="54" x="1044" y="789.6331">accounts</text><polygon fill="#181818" points="828,836.1481,818,840.1481,828,844.1481,824,840.1481" style="stroke:#181818;stroke-width:1.0;"/><line style="stroke:#181818;stroke-width:1.0;" x1="822" x2="1025" y1="840.1481" y2="840.1481"/><text fill="#000000" font-family="sans-serif" font-size="13" font-weight="bold" lengthAdjust="spacing" textLength="7" x="834" y="834.3391">9</text><text fill="#000000" font-family="sans-serif" font-size="13" lengthAdjust="spacing" textLength="166" x="845" y="834.3391">Return settlement accounts</text><polygon fill="#181818" points="523,867.8542,513,871.8542,523,875.8542,519,871.8542" style="stroke:#181818;stroke-width:1.0;"/><line style="stroke:#181818;stroke-width:1.0;" x1="517" x2="816" y1="871.8542" y2="871.8542"/><text fill="#000000" font-family="sans-serif" font-size="13" font-weight="bold" lengthAdjust="spacing" textLength="14" x="529" y="866.0452">10</text><text fill="#000000" font-family="sans-serif" font-size="13" lengthAdjust="spacing" textLength="166" x="547" y="866.0452">Return settlement accounts</text><polygon fill="#181818" points="805,899.5602,815,903.5602,805,907.5602,809,903.5602" style="stroke:#181818;stroke-width:1.0;"/><line style="stroke:#181818;stroke-width:1.0;" x1="512" x2="811" y1="903.5602" y2="903.5602"/><text fill="#000000" font-family="sans-serif" font-size="13" font-weight="bold" lengthAdjust="spacing" textLength="14" x="519" y="897.7512">11</text><text fill="#000000" font-family="sans-serif" font-size="13" lengthAdjust="spacing" textLength="157" x="537" y="897.7512">Create settlement transfer</text><polygon fill="#181818" points="1014,931.2662,1024,935.2662,1014,939.2662,1018,935.2662" style="stroke:#181818;stroke-width:1.0;"/><line style="stroke:#181818;stroke-width:1.0;" x1="817" x2="1020" y1="935.2662" y2="935.2662"/><text fill="#000000" font-family="sans-serif" font-size="13" font-weight="bold" lengthAdjust="spacing" textLength="14" x="824" y="929.4572">12</text><text fill="#000000" font-family="sans-serif" font-size="13" lengthAdjust="spacing" textLength="157" x="842" y="929.4572">Create settlement transfer</text><polygon fill="#181818" points="828,962.9722,818,966.9722,828,970.9722,824,966.9722" style="stroke:#181818;stroke-width:1.0;"/><line style="stroke:#181818;stroke-width:1.0;stroke-dasharray:2.0,2.0;" x1="822" x2="1025" y1="966.9722" y2="966.9722"/><text fill="#000000" font-family="sans-serif" font-size="13" font-weight="bold" lengthAdjust="spacing" textLength="14" x="834" y="961.1632">13</text><text fill="#000000" font-family="sans-serif" font-size="13" lengthAdjust="spacing" textLength="97" x="852" y="961.1632">Created transfer</text><polygon fill="#181818" points="523,994.6782,513,998.6782,523,1002.6782,519,998.6782" style="stroke:#181818;stroke-width:1.0;"/><line style="stroke:#181818;stroke-width:1.0;stroke-dasharray:2.0,2.0;" x1="517" x2="816" y1="998.6782" y2="998.6782"/><text fill="#000000" font-family="sans-serif" font-size="13" font-weight="bold" lengthAdjust="spacing" textLength="14" x="529" y="992.8692">14</text><text fill="#000000" font-family="sans-serif" font-size="13" lengthAdjust="spacing" textLength="97" x="547" y="992.8692">Created transfer</text><line style="stroke:#181818;stroke-width:1.0;stroke-dasharray:2.0,2.0;" x1="512" x2="554" y1="1030.3842" y2="1030.3842"/><line style="stroke:#181818;stroke-width:1.0;stroke-dasharray:2.0,2.0;" x1="554" x2="554" y1="1030.3842" y2="1043.3842"/><line style="stroke:#181818;stroke-width:1.0;stroke-dasharray:2.0,2.0;" x1="513" x2="554" y1="1043.3842" y2="1043.3842"/><polygon fill="#181818" points="523,1039.3842,513,1043.3842,523,1047.3842,519,1043.3842" style="stroke:#181818;stroke-width:1.0;"/><text fill="#000000" font-family="sans-serif" font-size="13" font-weight="bold" lengthAdjust="spacing" textLength="14" x="519" y="1024.5752">15</text><text fill="#000000" font-family="sans-serif" font-size="13" lengthAdjust="spacing" textLength="135" x="537" y="1024.5752">Prepare response data</text><polygon fill="#181818" points="351,1071.0903,341,1075.0903,351,1079.0903,347,1075.0903" style="stroke:#181818;stroke-width:1.0;"/><line style="stroke:#181818;stroke-width:1.0;stroke-dasharray:2.0,2.0;" x1="345" x2="511" y1="1075.0903" y2="1075.0903"/><text fill="#000000" font-family="sans-serif" font-size="13" font-weight="bold" lengthAdjust="spacing" textLength="14" x="357" y="1069.2813">16</text><text fill="#000000" font-family="sans-serif" font-size="13" lengthAdjust="spacing" textLength="41" x="375" y="1069.2813">Return</text><text fill="#000000" font-family="sans-serif" font-size="13" font-weight="bold" lengthAdjust="spacing" textLength="56" x="419" y="1069.2813">Transfer</text><text fill="#000000" font-family="sans-serif" font-size="13" lengthAdjust="spacing" textLength="27" x="478" y="1069.2813">data</text><polygon fill="#181818" points="134,1102.7963,124,1106.7963,134,1110.7963,130,1106.7963" style="stroke:#181818;stroke-width:1.0;"/><line style="stroke:#181818;stroke-width:1.0;" x1="128" x2="339" y1="1106.7963" y2="1106.7963"/><text fill="#000000" font-family="sans-serif" font-size="13" font-weight="bold" lengthAdjust="spacing" textLength="14" x="140" y="1100.9873">17</text><text fill="#000000" font-family="sans-serif" font-size="13" lengthAdjust="spacing" textLength="175" x="158" y="1100.9873">Publish settled transfer event</text><!--SRC=[dLRRRkCs47rUVSLW0snQeOuIRnt3Hh10B2TeWKNNIF8emA2aiPQmHAeKvKtwzHrITykRfFL3Of1pvdRE35tikSYPOXaySPtYlHJwaV-3CBrqYl6LBrEfuEpUVde6sXYif8fHFSXInBvK0XLSNPwsUVhEext0ee3hqmPrdClBsMenDc7HFb5LcBwPlOH7rFGlGw5XfsG6WNXIJ1GxL0MiVCSXHvf7F6TayB5_zH5O0VYijxevt8OHdFbN_jnVE49g17cWeevD7A2FFM2Hvb90b29JN2Jm2V8oJ7dn7V10-JWeOZ1-72UKpxr4JNHgwe9wkd0-31Bi6mN2brd6oCaVz2T5PJCkmcYRg9molP-HWzah3bP-86xp7BxAX4SjcENvDZKdSBQUtitMdvqFCTCiP0KUnr_Nvoqs3k5iyRj_jPZPBWmYVyKueNPHo9ZbkfSjYtDDh5rVtywlvxOfr8uZOZOfqpkfCbkqsF6a8IYFB2kBp_uTAN20kOqY4WKb-ebGAvOo4M5BB0ihDltvV3fr7AEV7Aukm5V8z40rZIOSLcefoYoahwQuaJHk9fCluzCbR1HINWZDyNz3Vmiruu8gABgKCXbZwfp_7p-FHru2SU0CFA_pFh7davI7ddSwLGhGgcm9zsMwusbRdUtsKEV6IGkOrEXEPaiWIeiommw8SGzw_YhMyng2wZx7TmUzOI-fPB7d1JH-bVCOpAGOkQVi1LKWk3Z8FHt_ijso956O4E_RxQ_WkfxtP-DphQNdkQvHPIEIwKM_YHDe9-XO8CDCHxalILayCIFHOxRjOY1i0wYR1vRos6YolJFZ-4e46i8bPIJtb6p48jFCoCvCYo6B6pAkPcS93wWLft1GYjFsNGnILnU3SAKIhnhtCbeZ3Nt61VRh3PccW4N7yy_GhjlXBSXreIpCLZt5rqKWFAyUPO4_AWJm7QrRil-skVkBuDKXEp2UiZ35Mkr7FVtIMr6cuhzBB7I_0bPlcGviRGbOhPYtGQEw3RIRhtfmNVTnZ6-RiEajllhI-gvoc0oogSds8AeQ58XXEbtmcqcJY-Oar13HlAZBPacE2_gjwZ5nXC-yqE_WjNP5p_OE3Hs3CbUMeNgFqnJsAZhcnIhnNRGSBv3tO4_guLGV1Zj-h8Ot8HrVep3nJvsFDyj9n7db_6QKJ3CyIoXpkscQ1f0qj8Jr0ptaBtQp-zLNVDz-Qnu-XKLEInZVMbn6SoqVhjkaHI8V0AkdOFp8KS3wsQcwsvNV_Tvo_WK0]--></g></svg>