<?xml version="1.0" encoding="UTF-8" standalone="no"?><svg xmlns="http://www.w3.org/2000/svg" xmlns:xlink="http://www.w3.org/1999/xlink" contentStyleType="text/css" height="1491px" preserveAspectRatio="none" style="width:1716px;height:1491px;background:#FFFFFF;" version="1.1" viewBox="0 0 1716 1491" width="1716px" zoomAndPan="magnify"><defs/><g><text fill="#000000" font-family="sans-serif" font-size="14" font-weight="bold" lengthAdjust="spacing" textLength="259" x="727" y="27.9951">Settlement from Central-Ledger</text><rect fill="#F9FFF9" height="1435.1016" style="stroke:#181818;stroke-width:0.5;" width="931" x="365.5" y="43.2969"/><text fill="#000000" font-family="sans-serif" font-size="13" font-weight="bold" lengthAdjust="spacing" textLength="120" x="768.5" y="55.3638">Settlements BC</text><rect fill="#FFFFF9" height="1435.1016" style="stroke:#181818;stroke-width:0.5;" width="396.5" x="1298.5" y="43.2969"/><text fill="#000000" font-family="sans-serif" font-size="13" font-weight="bold" lengthAdjust="spacing" textLength="182" x="1403.25" y="55.3638">Accounts &amp; Balances BC</text><rect fill="none" height="189.9297" style="stroke:#000000;stroke-width:1.5;" width="846.5" x="25" y="357.9219"/><rect fill="none" height="451.125" style="stroke:#000000;stroke-width:1.5;" width="1257.5" x="443.5" y="561.8516"/><rect fill="none" height="369.125" style="stroke:#000000;stroke-width:1.5;" width="1676" x="25" y="1026.9766"/><line style="stroke:#181818;stroke-width:0.5;stroke-dasharray:5.0,5.0;" x1="96" x2="96" y1="124.7266" y2="1413.1016"/><line style="stroke:#181818;stroke-width:0.5;stroke-dasharray:5.0,5.0;" x1="406.5" x2="406.5" y1="124.7266" y2="1413.1016"/><line style="stroke:#181818;stroke-width:0.5;stroke-dasharray:5.0,5.0;" x1="510.5" x2="510.5" y1="124.7266" y2="1413.1016"/><line style="stroke:#181818;stroke-width:0.5;stroke-dasharray:5.0,5.0;" x1="796.5" x2="796.5" y1="124.7266" y2="1413.1016"/><line style="stroke:#181818;stroke-width:0.5;stroke-dasharray:5.0,5.0;" x1="1206.5" x2="1206.5" y1="124.7266" y2="1413.1016"/><line style="stroke:#181818;stroke-width:0.5;stroke-dasharray:5.0,5.0;" x1="1341.5" x2="1341.5" y1="124.7266" y2="1413.1016"/><line style="stroke:#181818;stroke-width:0.5;stroke-dasharray:5.0,5.0;" x1="1644" x2="1644" y1="124.7266" y2="1413.1016"/><rect fill="#E2E2F0" height="30.2969" rx="2.5" ry="2.5" style="stroke:#181818;stroke-width:0.5;" width="123" x="35" y="93.4297"/><text fill="#000000" font-family="sans-serif" font-size="14" lengthAdjust="spacing" textLength="109" x="42" y="113.4248">Central-Ledger</text><rect fill="#E2E2F0" height="30.2969" rx="2.5" ry="2.5" style="stroke:#181818;stroke-width:0.5;" width="123" x="35" y="1412.1016"/><text fill="#000000" font-family="sans-serif" font-size="14" lengthAdjust="spacing" textLength="109" x="42" y="1432.0967">Central-Ledger</text><rect fill="#D5E8D4" height="30.2969" rx="2.5" ry="2.5" style="stroke:#181818;stroke-width:0.5;" width="74" x="369.5" y="93.4297"/><text fill="#000000" font-family="sans-serif" font-size="14" lengthAdjust="spacing" textLength="60" x="376.5" y="113.4248">Rest API</text><rect fill="#D5E8D4" height="30.2969" rx="2.5" ry="2.5" style="stroke:#181818;stroke-width:0.5;" width="74" x="369.5" y="1412.1016"/><text fill="#000000" font-family="sans-serif" font-size="14" lengthAdjust="spacing" textLength="60" x="376.5" y="1432.0967">Rest API</text><rect fill="#D5E8D4" height="30.2969" rx="2.5" ry="2.5" style="stroke:#181818;stroke-width:0.5;" width="115" x="453.5" y="93.4297"/><text fill="#000000" font-family="sans-serif" font-size="14" lengthAdjust="spacing" textLength="101" x="460.5" y="113.4248">Event Handler</text><rect fill="#D5E8D4" height="30.2969" rx="2.5" ry="2.5" style="stroke:#181818;stroke-width:0.5;" width="115" x="453.5" y="1412.1016"/><text fill="#000000" font-family="sans-serif" font-size="14" lengthAdjust="spacing" textLength="101" x="460.5" y="1432.0967">Event Handler</text><rect fill="#EDC54D" height="46.5938" rx="2.5" ry="2.5" style="stroke:#181818;stroke-width:0.5;" width="129" x="732.5" y="77.1328"/><text fill="#000000" font-family="sans-serif" font-size="14" lengthAdjust="spacing" textLength="115" x="739.5" y="97.1279">Settlements BC</text><text fill="#000000" font-family="sans-serif" font-size="14" lengthAdjust="spacing" textLength="72" x="761" y="113.4248">App Logic</text><rect fill="#EDC54D" height="46.5938" rx="2.5" ry="2.5" style="stroke:#181818;stroke-width:0.5;" width="129" x="732.5" y="1412.1016"/><text fill="#000000" font-family="sans-serif" font-size="14" lengthAdjust="spacing" textLength="115" x="739.5" y="1432.0967">Settlements BC</text><text fill="#000000" font-family="sans-serif" font-size="14" lengthAdjust="spacing" textLength="72" x="761" y="1448.3936">App Logic</text><text fill="#000000" font-family="sans-serif" font-size="14" lengthAdjust="spacing" textLength="165" x="1121.5" y="121.4248">Settlements-Database</text><path d="M1189,72.4297 C1189,62.4297 1207,62.4297 1207,62.4297 C1207,62.4297 1225,62.4297 1225,72.4297 L1225,98.4297 C1225,108.4297 1207,108.4297 1207,108.4297 C1207,108.4297 1189,108.4297 1189,98.4297 L1189,72.4297 " fill="#DAE8FC" style="stroke:#181818;stroke-width:1.5;"/><path d="M1189,72.4297 C1189,82.4297 1207,82.4297 1207,82.4297 C1207,82.4297 1225,82.4297 1225,72.4297 " fill="none" style="stroke:#181818;stroke-width:1.5;"/><text fill="#000000" font-family="sans-serif" font-size="14" lengthAdjust="spacing" textLength="165" x="1121.5" y="1425.0967">Settlements-Database</text><path d="M1189,1438.3984 C1189,1428.3984 1207,1428.3984 1207,1428.3984 C1207,1428.3984 1225,1428.3984 1225,1438.3984 L1225,1464.3984 C1225,1474.3984 1207,1474.3984 1207,1474.3984 C1207,1474.3984 1189,1474.3984 1189,1464.3984 L1189,1438.3984 " fill="#DAE8FC" style="stroke:#181818;stroke-width:1.5;"/><path d="M1189,1438.3984 C1189,1448.3984 1207,1448.3984 1207,1448.3984 C1207,1448.3984 1225,1448.3984 1225,1438.3984 " fill="none" style="stroke:#181818;stroke-width:1.5;"/><rect fill="#D5E8D4" height="30.2969" rx="2.5" ry="2.5" style="stroke:#181818;stroke-width:0.5;" width="78" x="1302.5" y="93.4297"/><text fill="#000000" font-family="sans-serif" font-size="14" lengthAdjust="spacing" textLength="64" x="1309.5" y="113.4248">A&amp;B SVC</text><rect fill="#D5E8D4" height="30.2969" rx="2.5" ry="2.5" style="stroke:#181818;stroke-width:0.5;" width="78" x="1302.5" y="1412.1016"/><text fill="#000000" font-family="sans-serif" font-size="14" lengthAdjust="spacing" textLength="64" x="1309.5" y="1432.0967">A&amp;B SVC</text><text fill="#000000" font-family="sans-serif" font-size="14" lengthAdjust="spacing" textLength="87" x="1598" y="121.4248">A&amp;B-Ledger</text><path d="M1626.5,72.4297 C1626.5,62.4297 1644.5,62.4297 1644.5,62.4297 C1644.5,62.4297 1662.5,62.4297 1662.5,72.4297 L1662.5,98.4297 C1662.5,108.4297 1644.5,108.4297 1644.5,108.4297 C1644.5,108.4297 1626.5,108.4297 1626.5,98.4297 L1626.5,72.4297 " fill="#DAE8FC" style="stroke:#181818;stroke-width:1.5;"/><path d="M1626.5,72.4297 C1626.5,82.4297 1644.5,82.4297 1644.5,82.4297 C1644.5,82.4297 1662.5,82.4297 1662.5,72.4297 " fill="none" style="stroke:#181818;stroke-width:1.5;"/><text fill="#000000" font-family="sans-serif" font-size="14" lengthAdjust="spacing" textLength="87" x="1598" y="1425.0967">A&amp;B-Ledger</text><path d="M1626.5,1438.3984 C1626.5,1428.3984 1644.5,1428.3984 1644.5,1428.3984 C1644.5,1428.3984 1662.5,1428.3984 1662.5,1438.3984 L1662.5,1464.3984 C1662.5,1474.3984 1644.5,1474.3984 1644.5,1474.3984 C1644.5,1474.3984 1626.5,1474.3984 1626.5,1464.3984 L1626.5,1438.3984 " fill="#DAE8FC" style="stroke:#181818;stroke-width:1.5;"/><path d="M1626.5,1438.3984 C1626.5,1448.3984 1644.5,1448.3984 1644.5,1448.3984 C1644.5,1448.3984 1662.5,1448.3984 1662.5,1438.3984 " fill="none" style="stroke:#181818;stroke-width:1.5;"/><path d="M5,139.7266 L5,179.7266 L188,179.7266 L188,149.7266 L178,139.7266 L5,139.7266 " fill="#FEFFDD" style="stroke:#181818;stroke-width:0.5;"/><path d="M178,139.7266 L178,149.7266 L188,149.7266 L178,139.7266 " fill="#FEFFDD" style="stroke:#181818;stroke-width:0.5;"/><text fill="#000000" font-family="sans-serif" font-size="13" lengthAdjust="spacing" textLength="162" x="11" y="156.7935">Central-Ledger maintains</text><text fill="#000000" font-family="sans-serif" font-size="13" lengthAdjust="spacing" textLength="110" x="11" y="171.9263">liquidity balances</text><path d="M380,189.9922 L380,244.9922 L641,244.9922 L641,199.9922 L631,189.9922 L380,189.9922 " fill="#FEFFDD" style="stroke:#181818;stroke-width:0.5;"/><path d="M631,189.9922 L631,199.9922 L641,199.9922 L631,189.9922 " fill="#FEFFDD" style="stroke:#181818;stroke-width:0.5;"/><text fill="#000000" font-family="sans-serif" font-size="13" lengthAdjust="spacing" textLength="81" x="386" y="207.0591">Kafka Topics</text><text fill="#000000" font-family="sans-serif" font-size="13" lengthAdjust="spacing" textLength="183" x="386" y="222.1919">- create Settlement Transfer</text><text fill="#000000" font-family="sans-serif" font-size="13" lengthAdjust="spacing" textLength="240" x="386" y="237.3247">- result of Settlement Transfer create</text><path d="M1264,255.3906 L1264,295.3906 L1419,295.3906 L1419,265.3906 L1409,255.3906 L1264,255.3906 " fill="#FEFFDD" style="stroke:#181818;stroke-width:0.5;"/><path d="M1409,255.3906 L1409,265.3906 L1419,265.3906 L1409,255.3906 " fill="#FEFFDD" style="stroke:#181818;stroke-width:0.5;"/><text fill="#000000" font-family="sans-serif" font-size="13" lengthAdjust="spacing" textLength="117" x="1270" y="272.4575">gRPC interface for</text><text fill="#000000" font-family="sans-serif" font-size="13" lengthAdjust="spacing" textLength="134" x="1270" y="287.5903">Accounts &amp; Balances</text><path d="M1580,305.6563 L1580,345.6563 L1709,345.6563 L1709,315.6563 L1699,305.6563 L1580,305.6563 " fill="#FEFFDD" style="stroke:#181818;stroke-width:0.5;"/><path d="M1699,305.6563 L1699,315.6563 L1709,315.6563 L1699,305.6563 " fill="#FEFFDD" style="stroke:#181818;stroke-width:0.5;"/><text fill="#000000" font-family="sans-serif" font-size="13" lengthAdjust="spacing" textLength="72" x="1586" y="322.7231">TigerBeetle</text><text fill="#000000" font-family="sans-serif" font-size="13" lengthAdjust="spacing" textLength="108" x="1586" y="337.856">enabled/disabled</text><path d="M25,357.9219 L433,357.9219 L433,365.0547 L423,375.0547 L25,375.0547 L25,357.9219 " fill="#EEEEEE" style="stroke:#000000;stroke-width:1.5;"/><rect fill="none" height="189.9297" style="stroke:#000000;stroke-width:1.5;" width="846.5" x="25" y="357.9219"/><text fill="#000000" font-family="sans-serif" font-size="13" font-weight="bold" lengthAdjust="spacing" textLength="363" x="40" y="370.9888">1. Create Settlement Transfer - Central Ledger</text><line style="stroke:#181818;stroke-width:1.0;stroke-dasharray:2.0,2.0;" x1="96.5" x2="138.5" y1="396.1875" y2="396.1875"/><line style="stroke:#181818;stroke-width:1.0;stroke-dasharray:2.0,2.0;" x1="138.5" x2="138.5" y1="396.1875" y2="409.1875"/><line style="stroke:#181818;stroke-width:1.0;stroke-dasharray:2.0,2.0;" x1="97.5" x2="138.5" y1="409.1875" y2="409.1875"/><polygon fill="#181818" points="106.5,392.1875,96.5,396.1875,106.5,400.1875,102.5,396.1875" style="stroke:#181818;stroke-width:1.0;"/><polygon fill="#181818" points="107.5,405.1875,97.5,409.1875,107.5,413.1875,103.5,409.1875" style="stroke:#181818;stroke-width:1.0;"/><text fill="#000000" font-family="sans-serif" font-size="13" font-weight="bold" lengthAdjust="spacing" textLength="9" x="103.5" y="391.1216">1</text><text fill="#000000" font-family="sans-serif" font-size="13" lengthAdjust="spacing" textLength="145" x="116.5" y="391.1216">Transfer fulfil occurred</text><line style="stroke:#181818;stroke-width:1.0;" x1="96.5" x2="138.5" y1="438.3203" y2="438.3203"/><line style="stroke:#181818;stroke-width:1.0;" x1="138.5" x2="138.5" y1="438.3203" y2="451.3203"/><line style="stroke:#181818;stroke-width:1.0;" x1="97.5" x2="138.5" y1="451.3203" y2="451.3203"/><polygon fill="#181818" points="106.5,434.3203,96.5,438.3203,106.5,442.3203,102.5,438.3203" style="stroke:#181818;stroke-width:1.0;"/><polygon fill="#181818" points="107.5,447.3203,97.5,451.3203,107.5,455.3203,103.5,451.3203" style="stroke:#181818;stroke-width:1.0;"/><text fill="#000000" font-family="sans-serif" font-size="13" font-weight="bold" lengthAdjust="spacing" textLength="9" x="103.5" y="433.2544">2</text><text fill="#000000" font-family="sans-serif" font-size="13" lengthAdjust="spacing" textLength="160" x="116.5" y="433.2544">Obtain settlement model</text><polygon fill="#181818" points="499,506.7188,509,510.7188,499,514.7188,503,510.7188" style="stroke:#181818;stroke-width:1.0;"/><line style="stroke:#181818;stroke-width:1.0;" x1="96.5" x2="505" y1="510.7188" y2="510.7188"/><text fill="#000000" font-family="sans-serif" font-size="13" font-weight="bold" lengthAdjust="spacing" textLength="8" x="103.5" y="490.52">3</text><text fill="#000000" font-family="sans-serif" font-size="13" lengthAdjust="spacing" textLength="4" x="115.5" y="475.3872"> </text><text fill="#000000" font-family="sans-serif" font-size="13" font-style="italic" lengthAdjust="spacing" textLength="84" x="115.5" y="490.52">publishEvent</text><text fill="#000000" font-family="sans-serif" font-size="13" font-style="italic" font-weight="bold" lengthAdjust="spacing" textLength="174" x="115.5" y="505.6528">ISettlementTransferDto</text><polygon fill="#181818" points="522,535.8516,512,539.8516,522,543.8516,518,539.8516" style="stroke:#181818;stroke-width:1.0;"/><line style="stroke:#181818;stroke-width:1.0;" x1="516" x2="796" y1="539.8516" y2="539.8516"/><text fill="#000000" font-family="sans-serif" font-size="13" font-weight="bold" lengthAdjust="spacing" textLength="9" x="528" y="534.7856">1</text><text fill="#000000" font-family="sans-serif" font-size="13" lengthAdjust="spacing" textLength="234" x="541" y="534.7856">Listen for Settlement Transfer event</text><path d="M443.5,561.8516 L682.5,561.8516 L682.5,568.9844 L672.5,578.9844 L443.5,578.9844 L443.5,561.8516 " fill="#EEEEEE" style="stroke:#000000;stroke-width:1.5;"/><rect fill="none" height="451.125" style="stroke:#000000;stroke-width:1.5;" width="1257.5" x="443.5" y="561.8516"/><text fill="#000000" font-family="sans-serif" font-size="13" font-weight="bold" lengthAdjust="spacing" textLength="194" x="458.5" y="574.9185">2. Settlement - App Logic</text><line style="stroke:#181818;stroke-width:1.0;stroke-dasharray:2.0,2.0;" x1="797" x2="839" y1="600.1172" y2="600.1172"/><line style="stroke:#181818;stroke-width:1.0;stroke-dasharray:2.0,2.0;" x1="839" x2="839" y1="600.1172" y2="613.1172"/><line style="stroke:#181818;stroke-width:1.0;stroke-dasharray:2.0,2.0;" x1="798" x2="839" y1="613.1172" y2="613.1172"/><polygon fill="#181818" points="807,596.1172,797,600.1172,807,604.1172,803,600.1172" style="stroke:#181818;stroke-width:1.0;"/><polygon fill="#181818" points="808,609.1172,798,613.1172,808,617.1172,804,613.1172" style="stroke:#181818;stroke-width:1.0;"/><text fill="#000000" font-family="sans-serif" font-size="13" font-weight="bold" lengthAdjust="spacing" textLength="9" x="804" y="595.0513">2</text><text fill="#000000" font-family="sans-serif" font-size="13" lengthAdjust="spacing" textLength="232" x="817" y="595.0513">Settlement Transfer event triggered</text><line style="stroke:#181818;stroke-width:1.0;stroke-dasharray:2.0,2.0;" x1="797" x2="839" y1="642.25" y2="642.25"/><line style="stroke:#181818;stroke-width:1.0;stroke-dasharray:2.0,2.0;" x1="839" x2="839" y1="642.25" y2="655.25"/><line style="stroke:#181818;stroke-width:1.0;stroke-dasharray:2.0,2.0;" x1="798" x2="839" y1="655.25" y2="655.25"/><polygon fill="#181818" points="808,651.25,798,655.25,808,659.25,804,655.25" style="stroke:#181818;stroke-width:1.0;"/><text fill="#000000" font-family="sans-serif" font-size="13" font-weight="bold" lengthAdjust="spacing" textLength="8" x="804" y="637.1841">3</text><text fill="#000000" font-family="sans-serif" font-size="13" lengthAdjust="spacing" textLength="218" x="816" y="637.1841">Validate Settlement Transfer data</text><polygon fill="#181818" points="808,695.5156,798,699.5156,808,703.5156,804,699.5156" style="stroke:#181818;stroke-width:1.0;"/><polygon fill="#181818" points="1195,695.5156,1205,699.5156,1195,703.5156,1199,699.5156" style="stroke:#181818;stroke-width:1.0;"/><line style="stroke:#181818;stroke-width:1.0;stroke-dasharray:2.0,2.0;" x1="802" x2="1201" y1="699.5156" y2="699.5156"/><text fill="#000000" font-family="sans-serif" font-size="13" font-weight="bold" lengthAdjust="spacing" textLength="9" x="814" y="686.8833">4</text><text fill="#000000" font-family="sans-serif" font-size="13" lengthAdjust="spacing" textLength="208" x="827" y="679.3169">Fetch &amp; cache settlement config</text><text fill="#000000" font-family="sans-serif" font-size="13" font-weight="bold" lengthAdjust="spacing" textLength="239" x="827" y="694.4497">Platform Config BC / Admin API</text><polygon fill="#181818" points="808,739.7813,798,743.7813,808,747.7813,804,743.7813" style="stroke:#181818;stroke-width:1.0;"/><polygon fill="#181818" points="1195,739.7813,1205,743.7813,1195,747.7813,1199,743.7813" style="stroke:#181818;stroke-width:1.0;"/><line style="stroke:#181818;stroke-width:1.0;stroke-dasharray:2.0,2.0;" x1="802" x2="1201" y1="743.7813" y2="743.7813"/><text fill="#000000" font-family="sans-serif" font-size="13" font-weight="bold" lengthAdjust="spacing" textLength="9" x="814" y="731.1489">5</text><text fill="#000000" font-family="sans-serif" font-size="13" font-weight="bold" lengthAdjust="spacing" textLength="140" x="827" y="723.5825">Obtain open batch</text><text fill="#000000" font-family="sans-serif" font-size="13" lengthAdjust="spacing" textLength="229" x="971" y="723.5825">based on Settlement Transfer data.</text><text fill="#000000" font-family="sans-serif" font-size="13" font-style="italic" lengthAdjust="spacing" textLength="291" x="827" y="738.7153">Create new batch if no OPEN batch available</text><polygon fill="#181818" points="808,768.9141,798,772.9141,808,776.9141,804,772.9141" style="stroke:#181818;stroke-width:1.0;"/><polygon fill="#181818" points="1329.5,768.9141,1339.5,772.9141,1329.5,776.9141,1333.5,772.9141" style="stroke:#181818;stroke-width:1.0;"/><line style="stroke:#181818;stroke-width:1.0;" x1="802" x2="1335.5" y1="772.9141" y2="772.9141"/><text fill="#000000" font-family="sans-serif" font-size="13" font-weight="bold" lengthAdjust="spacing" textLength="9" x="814" y="767.8481">6</text><text fill="#000000" font-family="sans-serif" font-size="13" lengthAdjust="spacing" textLength="42" x="827" y="767.8481">Obtain</text><text fill="#000000" font-family="sans-serif" font-size="13" font-weight="bold" lengthAdjust="spacing" textLength="161" x="873" y="767.8481">Settlement accounts</text><text fill="#000000" font-family="sans-serif" font-size="13" lengthAdjust="spacing" textLength="161" x="1038" y="767.8481">using Participant account</text><polygon fill="#181818" points="1352.5,798.0469,1342.5,802.0469,1352.5,806.0469,1348.5,802.0469" style="stroke:#181818;stroke-width:1.0;"/><polygon fill="#181818" points="1632.5,798.0469,1642.5,802.0469,1632.5,806.0469,1636.5,802.0469" style="stroke:#181818;stroke-width:1.0;"/><line style="stroke:#181818;stroke-width:1.0;stroke-dasharray:2.0,2.0;" x1="1346.5" x2="1638.5" y1="802.0469" y2="802.0469"/><text fill="#000000" font-family="sans-serif" font-size="13" font-weight="bold" lengthAdjust="spacing" textLength="9" x="1358.5" y="796.981">7</text><text fill="#000000" font-family="sans-serif" font-size="13" lengthAdjust="spacing" textLength="192" x="1371.5" y="796.981">Create account, if none exists</text><polygon fill="#181818" points="808,827.1797,798,831.1797,808,835.1797,804,831.1797" style="stroke:#181818;stroke-width:1.0;"/><line style="stroke:#181818;stroke-width:1.0;" x1="802" x2="1340.5" y1="831.1797" y2="831.1797"/><text fill="#000000" font-family="sans-serif" font-size="13" font-weight="bold" lengthAdjust="spacing" textLength="9" x="814" y="826.1138">8</text><text fill="#000000" font-family="sans-serif" font-size="13" lengthAdjust="spacing" textLength="43" x="827" y="826.1138">Return</text><text fill="#000000" font-family="sans-serif" font-size="13" font-weight="bold" lengthAdjust="spacing" textLength="62" x="874" y="826.1138">Account</text><text fill="#000000" font-family="sans-serif" font-size="13" lengthAdjust="spacing" textLength="80" x="940" y="826.1138">creation info</text><polygon fill="#181818" points="1329.5,856.3125,1339.5,860.3125,1329.5,864.3125,1333.5,860.3125" style="stroke:#181818;stroke-width:1.0;"/><line style="stroke:#181818;stroke-width:1.0;" x1="797" x2="1335.5" y1="860.3125" y2="860.3125"/><text fill="#000000" font-family="sans-serif" font-size="13" font-weight="bold" lengthAdjust="spacing" textLength="9" x="804" y="855.2466">9</text><text fill="#000000" font-family="sans-serif" font-size="13" lengthAdjust="spacing" textLength="176" x="817" y="855.2466">Create Settlement Transfer</text><polygon fill="#181818" points="1352.5,900.5781,1342.5,904.5781,1352.5,908.5781,1348.5,904.5781" style="stroke:#181818;stroke-width:1.0;"/><polygon fill="#181818" points="1632.5,900.5781,1642.5,904.5781,1632.5,908.5781,1636.5,904.5781" style="stroke:#181818;stroke-width:1.0;"/><line style="stroke:#181818;stroke-width:1.0;" x1="1346.5" x2="1638.5" y1="904.5781" y2="904.5781"/><text fill="#000000" font-family="sans-serif" font-size="13" font-weight="bold" lengthAdjust="spacing" textLength="19" x="1358.5" y="891.9458">10</text><text fill="#000000" font-family="sans-serif" font-size="13" lengthAdjust="spacing" textLength="217" x="1381.5" y="884.3794">Create Transfer: update accounts</text><text fill="#000000" font-family="sans-serif" font-size="13" lengthAdjust="spacing" textLength="157" x="1381.5" y="899.5122">to DR payer &amp; CR payee</text><polygon fill="#181818" points="808,929.7109,798,933.7109,808,937.7109,804,933.7109" style="stroke:#181818;stroke-width:1.0;"/><line style="stroke:#181818;stroke-width:1.0;" x1="802" x2="1340.5" y1="933.7109" y2="933.7109"/><text fill="#000000" font-family="sans-serif" font-size="13" font-weight="bold" lengthAdjust="spacing" textLength="18" x="814" y="928.645">11</text><text fill="#000000" font-family="sans-serif" font-size="13" lengthAdjust="spacing" textLength="43" x="836" y="928.645">Return</text><text fill="#000000" font-family="sans-serif" font-size="13" font-weight="bold" lengthAdjust="spacing" textLength="67" x="883" y="928.645">Transfer</text><text fill="#000000" font-family="sans-serif" font-size="13" lengthAdjust="spacing" textLength="80" x="954" y="928.645">creation info</text><line style="stroke:#181818;stroke-width:1.0;" x1="797" x2="839" y1="962.8438" y2="962.8438"/><line style="stroke:#181818;stroke-width:1.0;" x1="839" x2="839" y1="962.8438" y2="975.8438"/><line style="stroke:#181818;stroke-width:1.0;" x1="798" x2="839" y1="975.8438" y2="975.8438"/><polygon fill="#181818" points="807,958.8438,797,962.8438,807,966.8438,803,962.8438" style="stroke:#181818;stroke-width:1.0;"/><polygon fill="#181818" points="808,971.8438,798,975.8438,808,979.8438,804,975.8438" style="stroke:#181818;stroke-width:1.0;"/><text fill="#000000" font-family="sans-serif" font-size="13" font-weight="bold" lengthAdjust="spacing" textLength="18" x="804" y="957.7778">12</text><text fill="#000000" font-family="sans-serif" font-size="13" lengthAdjust="spacing" textLength="50" x="826" y="957.7778">Prepare</text><text fill="#000000" font-family="sans-serif" font-size="13" font-weight="bold" lengthAdjust="spacing" textLength="134" x="880" y="957.7778">Transfer/Account</text><text fill="#000000" font-family="sans-serif" font-size="13" lengthAdjust="spacing" textLength="92" x="1018" y="957.7778">response data</text><polygon fill="#181818" points="522,1000.9766,512,1004.9766,522,1008.9766,518,1004.9766" style="stroke:#181818;stroke-width:1.0;"/><line style="stroke:#181818;stroke-width:1.0;" x1="516" x2="796" y1="1004.9766" y2="1004.9766"/><text fill="#000000" font-family="sans-serif" font-size="13" font-weight="bold" lengthAdjust="spacing" textLength="17" x="528" y="999.9106">13</text><text fill="#000000" font-family="sans-serif" font-size="13" lengthAdjust="spacing" textLength="45" x="549" y="999.9106">Publish</text><text fill="#000000" font-family="sans-serif" font-size="13" font-weight="bold" lengthAdjust="spacing" textLength="159" x="598" y="999.9106">Settlement Transfer</text><text fill="#000000" font-family="sans-serif" font-size="13" lengthAdjust="spacing" textLength="29" x="761" y="999.9106">data</text><path d="M25,1026.9766 L321,1026.9766 L321,1034.1094 L311,1044.1094 L25,1044.1094 L25,1026.9766 " fill="#EEEEEE" style="stroke:#000000;stroke-width:1.5;"/><rect fill="none" height="369.125" style="stroke:#000000;stroke-width:1.5;" width="1676" x="25" y="1026.9766"/><text fill="#000000" font-family="sans-serif" font-size="13" font-weight="bold" lengthAdjust="spacing" textLength="251" x="40" y="1040.0435">3. Settlement - Retrieve Batches</text><polygon fill="#181818" points="394.5,1167.1719,404.5,1171.1719,394.5,1175.1719,398.5,1171.1719" style="stroke:#181818;stroke-width:1.0;"/><line style="stroke:#181818;stroke-width:1.0;" x1="96.5" x2="400.5" y1="1171.1719" y2="1171.1719"/><text fill="#000000" font-family="sans-serif" font-size="13" font-weight="bold" lengthAdjust="spacing" textLength="9" x="103.5" y="1113.1411">1</text><text fill="#000000" font-family="sans-serif" font-size="13" lengthAdjust="spacing" textLength="100" x="116.5" y="1060.1763">At time of fulfil:</text><text fill="#000000" font-family="sans-serif" font-size="13" font-style="italic" lengthAdjust="spacing" textLength="175" x="116.5" y="1075.3091">retrieveSettlementBatches</text><text fill="#000000" font-family="sans-serif" font-size="13" lengthAdjust="spacing" textLength="4" x="291.5" y="1075.3091"> </text><text fill="#000000" font-family="sans-serif" font-size="13" lengthAdjust="spacing" textLength="42" x="116.5" y="1090.4419">INPUT:</text><text fill="#000000" font-family="sans-serif" font-size="13" lengthAdjust="spacing" textLength="15" x="116.5" y="1105.5747">-&gt;</text><text fill="#000000" font-family="sans-serif" font-size="13" font-weight="bold" lengthAdjust="spacing" textLength="82" x="135.5" y="1105.5747">From Date</text><text fill="#000000" font-family="sans-serif" font-size="13" lengthAdjust="spacing" textLength="42" x="221.5" y="1105.5747">- From</text><text fill="#000000" font-family="sans-serif" font-size="13" lengthAdjust="spacing" textLength="15" x="116.5" y="1120.7075">-&gt;</text><text fill="#000000" font-family="sans-serif" font-size="13" font-weight="bold" lengthAdjust="spacing" textLength="63" x="135.5" y="1120.7075">To Date</text><text fill="#000000" font-family="sans-serif" font-size="13" lengthAdjust="spacing" textLength="25" x="202.5" y="1120.7075">- To</text><text fill="#000000" font-family="sans-serif" font-size="13" lengthAdjust="spacing" textLength="15" x="116.5" y="1135.8403">-&gt;</text><text fill="#000000" font-family="sans-serif" font-size="13" font-weight="bold" lengthAdjust="spacing" textLength="137" x="135.5" y="1135.8403">Settlement Model</text><text fill="#000000" font-family="sans-serif" font-size="13" lengthAdjust="spacing" textLength="46" x="276.5" y="1135.8403">- Model</text><text fill="#000000" font-family="sans-serif" font-size="13" font-style="italic" lengthAdjust="spacing" textLength="63" x="326.5" y="1135.8403">(optional)</text><text fill="#000000" font-family="sans-serif" font-size="13" lengthAdjust="spacing" textLength="57" x="116.5" y="1150.9731">OUTPUT:</text><text fill="#000000" font-family="sans-serif" font-size="13" lengthAdjust="spacing" textLength="15" x="116.5" y="1166.106">-&gt;</text><text fill="#000000" font-family="sans-serif" font-size="13" font-weight="bold" lengthAdjust="spacing" textLength="153" x="135.5" y="1166.106">Settlement Batches</text><text fill="#000000" font-family="sans-serif" font-size="13" lengthAdjust="spacing" textLength="60" x="292.5" y="1166.106">- Batches</text><polygon fill="#181818" points="785,1196.3047,795,1200.3047,785,1204.3047,789,1200.3047" style="stroke:#181818;stroke-width:1.0;"/><line style="stroke:#181818;stroke-width:1.0;" x1="406.5" x2="791" y1="1200.3047" y2="1200.3047"/><text fill="#000000" font-family="sans-serif" font-size="13" font-weight="bold" lengthAdjust="spacing" textLength="9" x="413.5" y="1195.2388">2</text><text fill="#000000" font-family="sans-serif" font-size="13" lengthAdjust="spacing" textLength="182" x="426.5" y="1195.2388">Request settlement batches</text><polygon fill="#181818" points="1329.5,1225.4375,1339.5,1229.4375,1329.5,1233.4375,1333.5,1229.4375" style="stroke:#181818;stroke-width:1.0;"/><line style="stroke:#181818;stroke-width:1.0;" x1="797" x2="1335.5" y1="1229.4375" y2="1229.4375"/><text fill="#000000" font-family="sans-serif" font-size="13" font-weight="bold" lengthAdjust="spacing" textLength="8" x="804" y="1224.3716">3</text><text fill="#000000" font-family="sans-serif" font-size="13" lengthAdjust="spacing" textLength="231" x="816" y="1224.3716">Retrieve Settlement batch accounts</text><polygon fill="#181818" points="1352.5,1254.5703,1342.5,1258.5703,1352.5,1262.5703,1348.5,1258.5703" style="stroke:#181818;stroke-width:1.0;"/><polygon fill="#181818" points="1632.5,1254.5703,1642.5,1258.5703,1632.5,1262.5703,1636.5,1258.5703" style="stroke:#181818;stroke-width:1.0;"/><line style="stroke:#181818;stroke-width:1.0;" x1="1346.5" x2="1638.5" y1="1258.5703" y2="1258.5703"/><text fill="#000000" font-family="sans-serif" font-size="13" font-weight="bold" lengthAdjust="spacing" textLength="9" x="1358.5" y="1253.5044">4</text><text fill="#000000" font-family="sans-serif" font-size="13" lengthAdjust="spacing" textLength="266" x="1371.5" y="1253.5044">Retrieve Settlement accounts &amp; balances</text><polygon fill="#181818" points="808,1283.7031,798,1287.7031,808,1291.7031,804,1287.7031" style="stroke:#181818;stroke-width:1.0;"/><line style="stroke:#181818;stroke-width:1.0;" x1="802" x2="1340.5" y1="1287.7031" y2="1287.7031"/><text fill="#000000" font-family="sans-serif" font-size="13" font-weight="bold" lengthAdjust="spacing" textLength="9" x="814" y="1282.6372">5</text><text fill="#000000" font-family="sans-serif" font-size="13" lengthAdjust="spacing" textLength="43" x="827" y="1282.6372">Return</text><text fill="#000000" font-family="sans-serif" font-size="13" font-weight="bold" lengthAdjust="spacing" textLength="62" x="874" y="1282.6372">Account</text><text fill="#000000" font-family="sans-serif" font-size="13" lengthAdjust="spacing" textLength="29" x="940" y="1282.6372">data</text><line style="stroke:#181818;stroke-width:1.0;stroke-dasharray:2.0,2.0;" x1="797" x2="839" y1="1316.8359" y2="1316.8359"/><line style="stroke:#181818;stroke-width:1.0;stroke-dasharray:2.0,2.0;" x1="839" x2="839" y1="1316.8359" y2="1329.8359"/><line style="stroke:#181818;stroke-width:1.0;stroke-dasharray:2.0,2.0;" x1="798" x2="839" y1="1329.8359" y2="1329.8359"/><polygon fill="#181818" points="808,1325.8359,798,1329.8359,808,1333.8359,804,1329.8359" style="stroke:#181818;stroke-width:1.0;"/><text fill="#000000" font-family="sans-serif" font-size="13" font-weight="bold" lengthAdjust="spacing" textLength="9" x="804" y="1311.77">6</text><text fill="#000000" font-family="sans-serif" font-size="13" lengthAdjust="spacing" textLength="186" x="817" y="1311.77">Prepare batch response data</text><polygon fill="#181818" points="417.5,1354.9688,407.5,1358.9688,417.5,1362.9688,413.5,1358.9688" style="stroke:#181818;stroke-width:1.0;"/><line style="stroke:#181818;stroke-width:1.0;" x1="411.5" x2="796" y1="1358.9688" y2="1358.9688"/><text fill="#000000" font-family="sans-serif" font-size="13" font-weight="bold" lengthAdjust="spacing" textLength="9" x="423.5" y="1353.9028">7</text><text fill="#000000" font-family="sans-serif" font-size="13" lengthAdjust="spacing" textLength="43" x="436.5" y="1353.9028">Return</text><text fill="#000000" font-family="sans-serif" font-size="13" font-weight="bold" lengthAdjust="spacing" textLength="44" x="483.5" y="1353.9028">Batch</text><text fill="#000000" font-family="sans-serif" font-size="13" lengthAdjust="spacing" textLength="29" x="531.5" y="1353.9028">data</text><polygon fill="#181818" points="107.5,1384.1016,97.5,1388.1016,107.5,1392.1016,103.5,1388.1016" style="stroke:#181818;stroke-width:1.0;"/><line style="stroke:#181818;stroke-width:1.0;" x1="101.5" x2="405.5" y1="1388.1016" y2="1388.1016"/><text fill="#000000" font-family="sans-serif" font-size="13" font-weight="bold" lengthAdjust="spacing" textLength="9" x="113.5" y="1383.0356">8</text><text fill="#000000" font-family="sans-serif" font-size="13" lengthAdjust="spacing" textLength="43" x="126.5" y="1383.0356">Return</text><text fill="#000000" font-family="sans-serif" font-size="13" font-weight="bold" lengthAdjust="spacing" textLength="44" x="173.5" y="1383.0356">Batch</text><text fill="#000000" font-family="sans-serif" font-size="13" lengthAdjust="spacing" textLength="29" x="221.5" y="1383.0356">data</text><!--SRC=[bLPjRzis4FxkNt5eW60JvX3RMg0LYW9-nO9bZP6u_HGWe2JA8KQJAaMbxR_VaQ8eIfQxr40G-NXtVEwvvqust0W6zypWloEJ1agjZh329qt5_8OL1wPdiufgmtDUKNHuDJny1RG6ziqyvc8cbM6Wdfdk382VeJiSAPS6_sftAFYNXXVSV8UC2YfpLi-OBC0cciqozIr2LiDo1HVRTzljzfsB7O2wOxM1nUxQmQcp_55RmyNwpURj-lMf- -RPrleNbONm9TWOvgnnK5zHE7Ts-_cRblzIsAkAvtKmpY7NZ9e1fNjDPLqYZxqJeck40LLE-VaKpZsmSLB2a9a7kQWgk547deToQ5Kz2ck1YyrwzURrsYKfgA4PhTaWmtpjhI6uo928nURjTkKwWhre6xB8SzNOEozXwLlMDcOxtPZ5vHBkFwzSNffXueEkyW77FI3qZLNbt0t7hnbZLgOTe65dGjR0x-5kjmAK6TCbpHcKggT-0lufpwFS4OIGPszjonPMC399Cy4AKl3QFGmp1neFMZKL_7u5gxDIGOdukG4_WxGnIZR7pCke7J1uFvz_w9xJFhfiHCa5g3nljEvmT15Hm6rcHn7g7i1H5Kp4_kZUZqOA3vAGgia4hv_S317o89E4aEk-Y0x5sYX2acICVAZCKVeRNXicRSScMMa748diIFpZAlQRGnY2YQiSLmDJUluIC9eVa7TFtWZqE14Y_qm5ByvrqqhyHuXms5BOCfC_eIvpcZ-nk2UvaYK_M9vtWXha1XUqCzd18x0eZjX3t7t8zV_TaII-vQf2cZEADoO9sEahGCcpsAzisxrQ9VlQ1W8lKTXmkzjyz0RwJBcmoYTa4ic7Q0C4yIL9T2lruucWcfhB0-oYNU8FNUe-aIlmP5MatN3veDzQj9AXhb5ZzIZ9H4Flc6cqXUTN1a9oUvaZJroMQbhC8MNwW-a-gU2qW13UnQJGL4LKK8sZQ1Iixt3TViSsNSAgVMG_KLgN_0MrlJyTdfrckEfPb8VqNE4Rhb8Ij_ePxOy6VzVkbA4Q8dWkIpJuVuu67qlI79FXLaSbubAVtfV-LlVZ88K5ZZa_CliQRZTcQdMkVQe-lyz9279-_N7tQOz-c2b9jlR74huw6IASW_tc3_QgD- -LDqQ0_x5hrfsw9o3a5rLP-gdurQxKsq_xw9eeq4DneLsf7RckgibsVsdiKRHIib7ej8PRgRIyte-2WmvV8EOpUMZ_BixYT_7FZkKvXKr4Tv9jItYXHhrQmirBlpO7KHtvuTqwxHx9qihvFm00]--></g></svg>