<?xml version="1.0" encoding="us-ascii" standalone="no"?><svg xmlns="http://www.w3.org/2000/svg" xmlns:xlink="http://www.w3.org/1999/xlink" contentStyleType="text/css" height="1282px" preserveAspectRatio="none" style="width:1279px;height:1282px;background:#FFFFFF;" version="1.1" viewBox="0 0 1279 1282" width="1279px" zoomAndPan="magnify"><defs/><g><text fill="#000000" font-family="sans-serif" font-size="14" font-weight="bold" lengthAdjust="spacing" textLength="293" x="491.5" y="29.9659">Settlement Transfer from the Transfers BC</text><rect fill="#F9FFF9" height="1223.5524" style="stroke:#181818;stroke-width:0.5;" width="634.5" x="292.5" y="46.0679"/><text fill="#000000" font-family="sans-serif" font-size="13" font-weight="bold" lengthAdjust="spacing" textLength="101" x="557.75" y="59.9649">Settlements BC</text><rect fill="#FFFFF9" height="1223.5524" style="stroke:#181818;stroke-width:0.5;" width="328.5" x="929" y="46.0679"/><text fill="#000000" font-family="sans-serif" font-size="13" font-weight="bold" lengthAdjust="spacing" textLength="156" x="1013.75" y="59.9649">Accounts &amp; Balances BC</text><rect fill="none" height="207.9421" style="stroke:#000000;stroke-width:1.5;" width="543" x="33" y="371.49"/><rect fill="none" height="591.1203" style="stroke:#000000;stroke-width:1.5;" width="1230.5" x="33" y="593.4321"/><line style="stroke:#181818;stroke-width:0.5;stroke-dasharray:5.0,5.0;" x1="93" x2="93" y1="132.8419" y2="1201.5524"/><line style="stroke:#181818;stroke-width:0.5;stroke-dasharray:5.0,5.0;" x1="357.5" x2="357.5" y1="132.8419" y2="1201.5524"/><line style="stroke:#181818;stroke-width:0.5;stroke-dasharray:5.0,5.0;" x1="508" x2="508" y1="132.8419" y2="1201.5524"/><line style="stroke:#181818;stroke-width:0.5;stroke-dasharray:5.0,5.0;" x1="846" x2="846" y1="132.8419" y2="1201.5524"/><line style="stroke:#181818;stroke-width:0.5;stroke-dasharray:5.0,5.0;" x1="968" x2="968" y1="132.8419" y2="1201.5524"/><line style="stroke:#181818;stroke-width:0.5;stroke-dasharray:5.0,5.0;" x1="1210.5" x2="1210.5" y1="132.8419" y2="1201.5524"/><rect fill="#E2E2F0" height="33.0679" rx="2.5" ry="2.5" style="stroke:#181818;stroke-width:0.5;" width="100" x="43" y="98.7739"/><text fill="#000000" font-family="sans-serif" font-size="14" lengthAdjust="spacing" textLength="86" x="50" y="120.7399">Transfers BC</text><rect fill="#E2E2F0" height="33.0679" rx="2.5" ry="2.5" style="stroke:#181818;stroke-width:0.5;" width="100" x="43" y="1200.5524"/><text fill="#000000" font-family="sans-serif" font-size="14" lengthAdjust="spacing" textLength="86" x="50" y="1222.5184">Transfers BC</text><rect fill="#D5E8D4" height="33.0679" rx="2.5" ry="2.5" style="stroke:#181818;stroke-width:0.5;" width="123" x="296.5" y="98.7739"/><text fill="#000000" font-family="sans-serif" font-size="14" lengthAdjust="spacing" textLength="109" x="303.5" y="120.7399">Settlements SVC</text><rect fill="#D5E8D4" height="33.0679" rx="2.5" ry="2.5" style="stroke:#181818;stroke-width:0.5;" width="123" x="296.5" y="1200.5524"/><text fill="#000000" font-family="sans-serif" font-size="14" lengthAdjust="spacing" textLength="109" x="303.5" y="1222.5184">Settlements SVC</text><rect fill="#EDC54D" height="52.1358" rx="2.5" ry="2.5" style="stroke:#181818;stroke-width:0.5;" width="116" x="450" y="79.706"/><text fill="#000000" font-family="sans-serif" font-size="14" lengthAdjust="spacing" textLength="102" x="457" y="101.672">Settlements BC</text><text fill="#000000" font-family="sans-serif" font-size="14" lengthAdjust="spacing" textLength="66" x="475" y="120.7399">App Logic</text><rect fill="#EDC54D" height="52.1358" rx="2.5" ry="2.5" style="stroke:#181818;stroke-width:0.5;" width="116" x="450" y="1200.5524"/><text fill="#000000" font-family="sans-serif" font-size="14" lengthAdjust="spacing" textLength="102" x="457" y="1222.5184">Settlements BC</text><text fill="#000000" font-family="sans-serif" font-size="14" lengthAdjust="spacing" textLength="66" x="475" y="1241.5863">App Logic</text><text fill="#000000" font-family="sans-serif" font-size="14" lengthAdjust="spacing" textLength="148" x="769" y="128.7399">Settlements-Database</text><path d="M828,77.7739 C828,67.7739 846,67.7739 846,67.7739 C846,67.7739 864,67.7739 864,77.7739 L864,103.7739 C864,113.7739 846,113.7739 846,113.7739 C846,113.7739 828,113.7739 828,103.7739 L828,77.7739 " fill="#DAE8FC" style="stroke:#181818;stroke-width:1.5;"/><path d="M828,77.7739 C828,87.7739 846,87.7739 846,87.7739 C846,87.7739 864,87.7739 864,77.7739 " fill="none" style="stroke:#181818;stroke-width:1.5;"/><text fill="#000000" font-family="sans-serif" font-size="14" lengthAdjust="spacing" textLength="148" x="769" y="1215.5184">Settlements-Database</text><path d="M828,1229.6203 C828,1219.6203 846,1219.6203 846,1219.6203 C846,1219.6203 864,1219.6203 864,1229.6203 L864,1255.6203 C864,1265.6203 846,1265.6203 846,1265.6203 C846,1265.6203 828,1265.6203 828,1255.6203 L828,1229.6203 " fill="#DAE8FC" style="stroke:#181818;stroke-width:1.5;"/><path d="M828,1229.6203 C828,1239.6203 846,1239.6203 846,1239.6203 C846,1239.6203 864,1239.6203 864,1229.6203 " fill="none" style="stroke:#181818;stroke-width:1.5;"/><rect fill="#D5E8D4" height="33.0679" rx="2.5" ry="2.5" style="stroke:#181818;stroke-width:0.5;" width="71" x="933" y="98.7739"/><text fill="#000000" font-family="sans-serif" font-size="14" lengthAdjust="spacing" textLength="57" x="940" y="120.7399">A&amp;B SVC</text><rect fill="#D5E8D4" height="33.0679" rx="2.5" ry="2.5" style="stroke:#181818;stroke-width:0.5;" width="71" x="933" y="1200.5524"/><text fill="#000000" font-family="sans-serif" font-size="14" lengthAdjust="spacing" textLength="57" x="940" y="1222.5184">A&amp;B SVC</text><text fill="#000000" font-family="sans-serif" font-size="14" lengthAdjust="spacing" textLength="80" x="1167.5" y="128.7399">A&amp;B-Ledger</text><path d="M1192.5,77.7739 C1192.5,67.7739 1210.5,67.7739 1210.5,67.7739 C1210.5,67.7739 1228.5,67.7739 1228.5,77.7739 L1228.5,103.7739 C1228.5,113.7739 1210.5,113.7739 1210.5,113.7739 C1210.5,113.7739 1192.5,113.7739 1192.5,103.7739 L1192.5,77.7739 " fill="#DAE8FC" style="stroke:#181818;stroke-width:1.5;"/><path d="M1192.5,77.7739 C1192.5,87.7739 1210.5,87.7739 1210.5,87.7739 C1210.5,87.7739 1228.5,87.7739 1228.5,77.7739 " fill="none" style="stroke:#181818;stroke-width:1.5;"/><text fill="#000000" font-family="sans-serif" font-size="14" lengthAdjust="spacing" textLength="80" x="1167.5" y="1215.5184">A&amp;B-Ledger</text><path d="M1192.5,1229.6203 C1192.5,1219.6203 1210.5,1219.6203 1210.5,1219.6203 C1210.5,1219.6203 1228.5,1219.6203 1228.5,1229.6203 L1228.5,1255.6203 C1228.5,1265.6203 1210.5,1265.6203 1210.5,1265.6203 C1210.5,1265.6203 1192.5,1265.6203 1192.5,1255.6203 L1192.5,1229.6203 " fill="#DAE8FC" style="stroke:#181818;stroke-width:1.5;"/><path d="M1192.5,1229.6203 C1192.5,1239.6203 1210.5,1239.6203 1210.5,1239.6203 C1210.5,1239.6203 1228.5,1239.6203 1228.5,1229.6203 " fill="none" style="stroke:#181818;stroke-width:1.5;"/><path d="M5,147.8419 L5,192.8419 L182,192.8419 L182,157.8419 L172,147.8419 L5,147.8419 " fill="#FEFFDD" style="stroke:#181818;stroke-width:0.5;"/><path d="M172,147.8419 L172,157.8419 L182,157.8419 L172,147.8419 " fill="#FEFFDD" style="stroke:#181818;stroke-width:0.5;"/><text fill="#000000" font-family="sans-serif" font-size="13" font-style="italic" lengthAdjust="spacing" textLength="154" x="11" y="166.7389">TransferCommittedFulfilled</text><text fill="#000000" font-family="sans-serif" font-size="13" lengthAdjust="spacing" textLength="156" x="11" y="184.4449">gRPC client for Settlement</text><path d="M302,203.2539 L302,248.2539 L413,248.2539 L413,213.2539 L403,203.2539 L302,203.2539 " fill="#FEFFDD" style="stroke:#181818;stroke-width:0.5;"/><path d="M403,203.2539 L403,213.2539 L413,213.2539 L403,203.2539 " fill="#FEFFDD" style="stroke:#181818;stroke-width:0.5;"/><text fill="#000000" font-family="sans-serif" font-size="13" lengthAdjust="spacing" textLength="87" x="308" y="222.1509">gRPC interface</text><text fill="#000000" font-family="sans-serif" font-size="13" lengthAdjust="spacing" textLength="86" x="308" y="239.8569">for Settlement</text><path d="M896,258.6659 L896,303.6659 L1040,303.6659 L1040,268.6659 L1030,258.6659 L896,258.6659 " fill="#FEFFDD" style="stroke:#181818;stroke-width:0.5;"/><path d="M1030,258.6659 L1030,268.6659 L1040,268.6659 L1030,258.6659 " fill="#FEFFDD" style="stroke:#181818;stroke-width:0.5;"/><text fill="#000000" font-family="sans-serif" font-size="13" lengthAdjust="spacing" textLength="107" x="902" y="277.5629">gRPC interface for</text><text fill="#000000" font-family="sans-serif" font-size="13" lengthAdjust="spacing" textLength="123" x="902" y="295.2689">Accounts &amp; Balances</text><path d="M1148,314.0779 L1148,359.0779 L1272,359.0779 L1272,324.0779 L1262,314.0779 L1148,314.0779 " fill="#FEFFDD" style="stroke:#181818;stroke-width:0.5;"/><path d="M1262,314.0779 L1262,324.0779 L1272,324.0779 L1262,314.0779 " fill="#FEFFDD" style="stroke:#181818;stroke-width:0.5;"/><text fill="#000000" font-family="sans-serif" font-size="13" lengthAdjust="spacing" textLength="67" x="1154" y="332.975">TigerBeetle</text><text fill="#000000" font-family="sans-serif" font-size="13" lengthAdjust="spacing" textLength="103" x="1154" y="350.681">enabled/disabled</text><path d="M33,371.49 L365,371.49 L365,381.196 L355,391.196 L33,391.196 L33,371.49 " fill="#EEEEEE" style="stroke:#000000;stroke-width:1.5;"/><rect fill="none" height="207.9421" style="stroke:#000000;stroke-width:1.5;" width="543" x="33" y="371.49"/><text fill="#000000" font-family="sans-serif" font-size="13" font-weight="bold" lengthAdjust="spacing" textLength="287" x="48" y="386.387">1. Create Settlement Transfer - Transfers BC</text><line style="stroke:#181818;stroke-width:1.0;stroke-dasharray:2.0,2.0;" x1="93" x2="135" y1="414.902" y2="414.902"/><line style="stroke:#181818;stroke-width:1.0;stroke-dasharray:2.0,2.0;" x1="135" x2="135" y1="414.902" y2="427.902"/><line style="stroke:#181818;stroke-width:1.0;stroke-dasharray:2.0,2.0;" x1="94" x2="135" y1="427.902" y2="427.902"/><polygon fill="#181818" points="103,410.902,93,414.902,103,418.902,99,414.902" style="stroke:#181818;stroke-width:1.0;"/><polygon fill="#181818" points="104,423.902,94,427.902,104,431.902,100,427.902" style="stroke:#181818;stroke-width:1.0;"/><text fill="#000000" font-family="sans-serif" font-size="13" font-weight="bold" lengthAdjust="spacing" textLength="7" x="100" y="409.093">1</text><text fill="#000000" font-family="sans-serif" font-size="13" lengthAdjust="spacing" textLength="133" x="111" y="409.093">Transfer fulfil occurred</text><line style="stroke:#181818;stroke-width:1.0;stroke-dasharray:2.0,2.0;" x1="93" x2="135" y1="477.314" y2="477.314"/><line style="stroke:#181818;stroke-width:1.0;stroke-dasharray:2.0,2.0;" x1="135" x2="135" y1="477.314" y2="490.314"/><line style="stroke:#181818;stroke-width:1.0;stroke-dasharray:2.0,2.0;" x1="94" x2="135" y1="490.314" y2="490.314"/><polygon fill="#181818" points="103,473.314,93,477.314,103,481.314,99,477.314" style="stroke:#181818;stroke-width:1.0;"/><polygon fill="#181818" points="104,486.314,94,490.314,104,494.314,100,490.314" style="stroke:#181818;stroke-width:1.0;"/><text fill="#000000" font-family="sans-serif" font-size="13" font-weight="bold" lengthAdjust="spacing" textLength="7" x="100" y="462.652">2</text><text fill="#000000" font-family="sans-serif" font-size="13" lengthAdjust="spacing" textLength="151" x="111" y="453.799">Obtain Settlement model</text><text fill="#000000" font-family="sans-serif" font-size="13" lengthAdjust="spacing" textLength="17" x="111" y="471.505">via</text><text fill="#000000" font-family="sans-serif" font-size="13" font-style="italic" lengthAdjust="spacing" textLength="115" x="131" y="471.505">settlement-model-lib</text><polygon fill="#181818" points="346,535.7261,356,539.7261,346,543.7261,350,539.7261" style="stroke:#181818;stroke-width:1.0;"/><line style="stroke:#181818;stroke-width:1.0;" x1="93" x2="352" y1="539.7261" y2="539.7261"/><text fill="#000000" font-family="sans-serif" font-size="13" font-weight="bold" lengthAdjust="spacing" textLength="7" x="100" y="525.0641">3</text><text fill="#000000" font-family="sans-serif" font-size="13" lengthAdjust="spacing" textLength="89" x="111" y="516.2111">At time of fulfil:</text><text fill="#000000" font-family="sans-serif" font-size="13" font-style="italic" lengthAdjust="spacing" textLength="141" x="200" y="516.2111">createSettlementTransfer</text><text fill="#000000" font-family="sans-serif" font-size="13" font-style="italic" font-weight="bold" lengthAdjust="spacing" textLength="145" x="111" y="533.9171">ISettlementTransferDto</text><polygon fill="#181818" points="496,567.4321,506,571.4321,496,575.4321,500,571.4321" style="stroke:#181818;stroke-width:1.0;"/><line style="stroke:#181818;stroke-width:1.0;stroke-dasharray:2.0,2.0;" x1="358" x2="502" y1="571.4321" y2="571.4321"/><text fill="#000000" font-family="sans-serif" font-size="13" font-weight="bold" lengthAdjust="spacing" textLength="7" x="365" y="565.6231">4</text><text fill="#000000" font-family="sans-serif" font-size="13" lengthAdjust="spacing" textLength="100" x="376" y="565.6231">Invoke App layer</text><path d="M33,593.4321 L239,593.4321 L239,603.1381 L229,613.1381 L33,613.1381 L33,593.4321 " fill="#EEEEEE" style="stroke:#000000;stroke-width:1.5;"/><rect fill="none" height="591.1203" style="stroke:#000000;stroke-width:1.5;" width="1230.5" x="33" y="593.4321"/><text fill="#000000" font-family="sans-serif" font-size="13" font-weight="bold" lengthAdjust="spacing" textLength="161" x="48" y="608.3291">2. Settlement - App Logic</text><line style="stroke:#181818;stroke-width:1.0;stroke-dasharray:2.0,2.0;" x1="508" x2="550" y1="636.8441" y2="636.8441"/><line style="stroke:#181818;stroke-width:1.0;stroke-dasharray:2.0,2.0;" x1="550" x2="550" y1="636.8441" y2="649.8441"/><line style="stroke:#181818;stroke-width:1.0;stroke-dasharray:2.0,2.0;" x1="509" x2="550" y1="649.8441" y2="649.8441"/><polygon fill="#181818" points="518,632.8441,508,636.8441,518,640.8441,514,636.8441" style="stroke:#181818;stroke-width:1.0;"/><polygon fill="#181818" points="519,645.8441,509,649.8441,519,653.8441,515,649.8441" style="stroke:#181818;stroke-width:1.0;"/><text fill="#000000" font-family="sans-serif" font-size="13" font-weight="bold" lengthAdjust="spacing" textLength="7" x="515" y="631.0351">1</text><text fill="#000000" font-family="sans-serif" font-size="13" lengthAdjust="spacing" textLength="214" x="526" y="631.0351">Settlement Transfer event triggered</text><line style="stroke:#181818;stroke-width:1.0;stroke-dasharray:2.0,2.0;" x1="508" x2="550" y1="681.5501" y2="681.5501"/><line style="stroke:#181818;stroke-width:1.0;stroke-dasharray:2.0,2.0;" x1="550" x2="550" y1="681.5501" y2="694.5501"/><line style="stroke:#181818;stroke-width:1.0;stroke-dasharray:2.0,2.0;" x1="509" x2="550" y1="694.5501" y2="694.5501"/><polygon fill="#181818" points="519,690.5501,509,694.5501,519,698.5501,515,694.5501" style="stroke:#181818;stroke-width:1.0;"/><text fill="#000000" font-family="sans-serif" font-size="13" font-weight="bold" lengthAdjust="spacing" textLength="7" x="515" y="675.7411">2</text><text fill="#000000" font-family="sans-serif" font-size="13" lengthAdjust="spacing" textLength="198" x="526" y="675.7411">Validate settlement Transfer data</text><polygon fill="#181818" points="519,739.9622,509,743.9622,519,747.9622,515,743.9622" style="stroke:#181818;stroke-width:1.0;"/><polygon fill="#181818" points="834,739.9622,844,743.9622,834,747.9622,838,743.9622" style="stroke:#181818;stroke-width:1.0;"/><line style="stroke:#181818;stroke-width:1.0;stroke-dasharray:2.0,2.0;" x1="513" x2="840" y1="743.9622" y2="743.9622"/><text fill="#000000" font-family="sans-serif" font-size="13" font-weight="bold" lengthAdjust="spacing" textLength="7" x="525" y="729.3002">3</text><text fill="#000000" font-family="sans-serif" font-size="13" lengthAdjust="spacing" textLength="191" x="536" y="720.4472">Fetch &amp; cache settlement config</text><text fill="#000000" font-family="sans-serif" font-size="13" font-weight="bold" lengthAdjust="spacing" textLength="123" x="536" y="738.1532">Platform Config BC</text><polygon fill="#181818" points="519,789.3742,509,793.3742,519,797.3742,515,793.3742" style="stroke:#181818;stroke-width:1.0;"/><polygon fill="#181818" points="834,789.3742,844,793.3742,834,797.3742,838,793.3742" style="stroke:#181818;stroke-width:1.0;"/><line style="stroke:#181818;stroke-width:1.0;stroke-dasharray:2.0,2.0;" x1="513" x2="840" y1="793.3742" y2="793.3742"/><text fill="#000000" font-family="sans-serif" font-size="13" font-weight="bold" lengthAdjust="spacing" textLength="7" x="525" y="778.7122">4</text><text fill="#000000" font-family="sans-serif" font-size="13" font-weight="bold" lengthAdjust="spacing" textLength="113" x="536" y="769.8592">Determine batch</text><text fill="#000000" font-family="sans-serif" font-size="13" lengthAdjust="spacing" textLength="187" x="652" y="769.8592">using Settlement Transfer data.</text><text fill="#000000" font-family="sans-serif" font-size="13" font-style="italic" lengthAdjust="spacing" textLength="250" x="536" y="787.5652">Create new batch if no OPEN batch available</text><polygon fill="#181818" points="519,821.0802,509,825.0802,519,829.0802,515,825.0802" style="stroke:#181818;stroke-width:1.0;"/><polygon fill="#181818" points="956.5,821.0802,966.5,825.0802,956.5,829.0802,960.5,825.0802" style="stroke:#181818;stroke-width:1.0;"/><line style="stroke:#181818;stroke-width:1.0;" x1="513" x2="962.5" y1="825.0802" y2="825.0802"/><text fill="#000000" font-family="sans-serif" font-size="13" font-weight="bold" lengthAdjust="spacing" textLength="7" x="525" y="819.2712">5</text><text fill="#000000" font-family="sans-serif" font-size="13" lengthAdjust="spacing" textLength="41" x="536" y="819.2712">Obtain</text><text fill="#000000" font-family="sans-serif" font-size="13" font-weight="bold" lengthAdjust="spacing" textLength="138" x="580" y="819.2712">Settlement accounts</text><text fill="#000000" font-family="sans-serif" font-size="13" lengthAdjust="spacing" textLength="152" x="721" y="819.2712">using Participant account</text><polygon fill="#181818" points="979.5,852.7862,969.5,856.7862,979.5,860.7862,975.5,856.7862" style="stroke:#181818;stroke-width:1.0;"/><polygon fill="#181818" points="1198.5,852.7862,1208.5,856.7862,1198.5,860.7862,1202.5,856.7862" style="stroke:#181818;stroke-width:1.0;"/><line style="stroke:#181818;stroke-width:1.0;stroke-dasharray:2.0,2.0;" x1="973.5" x2="1204.5" y1="856.7862" y2="856.7862"/><text fill="#000000" font-family="sans-serif" font-size="13" font-weight="bold" lengthAdjust="spacing" textLength="7" x="985.5" y="850.9772">6</text><text fill="#000000" font-family="sans-serif" font-size="13" lengthAdjust="spacing" textLength="174" x="996.5" y="850.9772">Create account, if none exists</text><polygon fill="#181818" points="519,884.4923,509,888.4923,519,892.4923,515,888.4923" style="stroke:#181818;stroke-width:1.0;"/><polygon fill="#181818" points="834,884.4923,844,888.4923,834,892.4923,838,888.4923" style="stroke:#181818;stroke-width:1.0;"/><line style="stroke:#181818;stroke-width:1.0;stroke-dasharray:2.0,2.0;" x1="513" x2="840" y1="888.4923" y2="888.4923"/><text fill="#000000" font-family="sans-serif" font-size="13" font-weight="bold" lengthAdjust="spacing" textLength="7" x="525" y="882.6833">7</text><text fill="#000000" font-family="sans-serif" font-size="13" lengthAdjust="spacing" textLength="88" x="536" y="882.6833">Create or fetch</text><text fill="#000000" font-family="sans-serif" font-size="13" font-weight="bold" lengthAdjust="spacing" textLength="175" x="627" y="882.6833">Settlement Batch Account</text><polygon fill="#181818" points="519,916.1983,509,920.1983,519,924.1983,515,920.1983" style="stroke:#181818;stroke-width:1.0;"/><line style="stroke:#181818;stroke-width:1.0;" x1="513" x2="967.5" y1="920.1983" y2="920.1983"/><text fill="#000000" font-family="sans-serif" font-size="13" font-weight="bold" lengthAdjust="spacing" textLength="7" x="525" y="914.3893">8</text><text fill="#000000" font-family="sans-serif" font-size="13" lengthAdjust="spacing" textLength="41" x="536" y="914.3893">Return</text><text fill="#000000" font-family="sans-serif" font-size="13" font-weight="bold" lengthAdjust="spacing" textLength="55" x="580" y="914.3893">Account</text><text fill="#000000" font-family="sans-serif" font-size="13" lengthAdjust="spacing" textLength="23" x="638" y="914.3893">info</text><polygon fill="#181818" points="956.5,947.9043,966.5,951.9043,956.5,955.9043,960.5,951.9043" style="stroke:#181818;stroke-width:1.0;"/><line style="stroke:#181818;stroke-width:1.0;" x1="508" x2="962.5" y1="951.9043" y2="951.9043"/><text fill="#000000" font-family="sans-serif" font-size="13" font-weight="bold" lengthAdjust="spacing" textLength="7" x="515" y="946.0953">9</text><text fill="#000000" font-family="sans-serif" font-size="13" lengthAdjust="spacing" textLength="160" x="526" y="946.0953">Create Settlement Transfer</text><polygon fill="#181818" points="979.5,997.3163,969.5,1001.3163,979.5,1005.3163,975.5,1001.3163" style="stroke:#181818;stroke-width:1.0;"/><polygon fill="#181818" points="1198.5,997.3163,1208.5,1001.3163,1198.5,1005.3163,1202.5,1001.3163" style="stroke:#181818;stroke-width:1.0;"/><line style="stroke:#181818;stroke-width:1.0;" x1="973.5" x2="1204.5" y1="1001.3163" y2="1001.3163"/><text fill="#000000" font-family="sans-serif" font-size="13" font-weight="bold" lengthAdjust="spacing" textLength="14" x="985.5" y="986.6543">10</text><text fill="#000000" font-family="sans-serif" font-size="13" lengthAdjust="spacing" textLength="197" x="1003.5" y="977.8013">Create Transfer: update accounts</text><text fill="#000000" font-family="sans-serif" font-size="13" lengthAdjust="spacing" textLength="141" x="1003.5" y="995.5073">to DR payer &amp; CR payee</text><polygon fill="#181818" points="519,1029.0223,509,1033.0223,519,1037.0223,515,1033.0223" style="stroke:#181818;stroke-width:1.0;"/><line style="stroke:#181818;stroke-width:1.0;" x1="513" x2="967.5" y1="1033.0223" y2="1033.0223"/><text fill="#000000" font-family="sans-serif" font-size="13" font-weight="bold" lengthAdjust="spacing" textLength="14" x="525" y="1027.2133">11</text><text fill="#000000" font-family="sans-serif" font-size="13" lengthAdjust="spacing" textLength="41" x="543" y="1027.2133">Return</text><text fill="#000000" font-family="sans-serif" font-size="13" font-weight="bold" lengthAdjust="spacing" textLength="56" x="587" y="1027.2133">Transfer</text><text fill="#000000" font-family="sans-serif" font-size="13" lengthAdjust="spacing" textLength="75" x="646" y="1027.2133">creation info</text><line style="stroke:#181818;stroke-width:1.0;stroke-dasharray:2.0,2.0;" x1="508" x2="550" y1="1064.7284" y2="1064.7284"/><line style="stroke:#181818;stroke-width:1.0;stroke-dasharray:2.0,2.0;" x1="550" x2="550" y1="1064.7284" y2="1077.7284"/><line style="stroke:#181818;stroke-width:1.0;stroke-dasharray:2.0,2.0;" x1="509" x2="550" y1="1077.7284" y2="1077.7284"/><polygon fill="#181818" points="518,1060.7284,508,1064.7284,518,1068.7284,514,1064.7284" style="stroke:#181818;stroke-width:1.0;"/><polygon fill="#181818" points="519,1073.7284,509,1077.7284,519,1081.7284,515,1077.7284" style="stroke:#181818;stroke-width:1.0;"/><text fill="#000000" font-family="sans-serif" font-size="13" font-weight="bold" lengthAdjust="spacing" textLength="14" x="515" y="1058.9194">12</text><text fill="#000000" font-family="sans-serif" font-size="13" lengthAdjust="spacing" textLength="135" x="533" y="1058.9194">Prepare response data</text><polygon fill="#181818" points="369,1123.1404,359,1127.1404,369,1131.1404,365,1127.1404" style="stroke:#181818;stroke-width:1.0;"/><line style="stroke:#181818;stroke-width:1.0;stroke-dasharray:2.0,2.0;" x1="363" x2="507" y1="1127.1404" y2="1127.1404"/><text fill="#000000" font-family="sans-serif" font-size="13" font-weight="bold" lengthAdjust="spacing" textLength="14" x="375" y="1112.4784">13</text><text fill="#000000" font-family="sans-serif" font-size="13" lengthAdjust="spacing" textLength="41" x="393" y="1103.6254">Return</text><text fill="#000000" font-family="sans-serif" font-size="13" font-weight="bold" lengthAdjust="spacing" textLength="61" x="437" y="1103.6254">Transfer/</text><text fill="#000000" font-family="sans-serif" font-size="13" lengthAdjust="spacing" textLength="3" x="498" y="1103.6254">&#160;</text><text fill="#000000" font-family="sans-serif" font-size="13" font-weight="bold" lengthAdjust="spacing" textLength="55" x="393" y="1121.3314">Account</text><text fill="#000000" font-family="sans-serif" font-size="13" lengthAdjust="spacing" textLength="27" x="451" y="1121.3314">data</text><polygon fill="#181818" points="104,1172.5524,94,1176.5524,104,1180.5524,100,1176.5524" style="stroke:#181818;stroke-width:1.0;"/><line style="stroke:#181818;stroke-width:1.0;" x1="98" x2="357" y1="1176.5524" y2="1176.5524"/><text fill="#000000" font-family="sans-serif" font-size="13" font-weight="bold" lengthAdjust="spacing" textLength="14" x="110" y="1161.8904">14</text><text fill="#000000" font-family="sans-serif" font-size="13" lengthAdjust="spacing" textLength="41" x="128" y="1153.0374">Return</text><text fill="#000000" font-family="sans-serif" font-size="13" font-weight="bold" lengthAdjust="spacing" textLength="61" x="172" y="1153.0374">Transfer/</text><text fill="#000000" font-family="sans-serif" font-size="13" lengthAdjust="spacing" textLength="3" x="233" y="1153.0374">&#160;</text><text fill="#000000" font-family="sans-serif" font-size="13" font-weight="bold" lengthAdjust="spacing" textLength="55" x="128" y="1170.7434">Account</text><text fill="#000000" font-family="sans-serif" font-size="13" lengthAdjust="spacing" textLength="27" x="186" y="1170.7434">data</text><!--SRC=[bLLHQwGm47wkls9eeGzoLkveePLIsDKAXN9TsjAdXIN6qORJH6BSw_txIroDkklsUlkoEac- -URBVADYga1uGQN_IkGANYNXTOOICYbAKEze8pKiGyUfY5ICiehelQVZfLCWDU27sgW-k4cemuL245kDTx04-kVxFKGeof8fXMdS51ah2anzlzsIFwz2e0Kpv38XHrmTv2cO18wJY8_HWg43P_5D7CStpic4yNZJozkET9tGJIuh2cVHrVrrTDcc7OZtostOCc9SeSm8HR3nFNOcP1aUPx4CrtnHLV0eSaOj7r9Lcy94uEm-2gyk8-Sa9OeafCR9SI_gelPackWw5lVNSTZgevNPoREWL3GcuJaiIK4unKwck9N9i9rmN9mlhK8acPDe8AJtUe-OvYY7xOhfrmJHz5TFQ2giHJsch17Khitmdqey0pxYO75UJMovusM3o4bYMYvbTVimHROwvb8q5No_W50YKVE-yQQ68OqIl2aJb3lCFHV0hUVT7KQ3aGzRFu2Wj96oP_PLbAT44SR7F4kHOh7cMqQq-MeRzzguLx2aizq1c4vWZHB0Ge5YfTOwwmW6lazRKOPSVGc-l-Qkw_iFXqkH4hxlkcr6Y-vrgGOF1F30j-8NWZ5AGVveCVMTzFVnus9Se0VMJVlYJq5l3_84inUAM_Eg9CjrutGNC4MQ8_n62fQQ7gbd88rpFcEaFHn0Z8g-wswdXBvFOAZW6SkDfgk2A6sI4i8sfFjjfEKnNDUDK3kiP1mX8Jg7wq9JCvxFLc-eNgovxtSjp_7txXImJBi3dbRtFxi0sH9M6FjqBRHFucuqHsnhkkueA-ayRXcjHXEfMsoX1w2sjeE14_GExGvzsx7L5UC7grNzJv6wute0PUqrJ6WkstAxWQIvxb6QwOPdL8qqnGw76C_4N2-DL0e-cJC7CXogO8_tPm9egdIaIWrhhWH4pthoQq_fNWjtZ_WV5VNWkgHs0331ZzKsvxYLHFtPGP1OLuBhZyaHRtYZ-JEJNGyHC8uOz9tWz5NiJxMl8vbvynS0]--></g></svg>