<?xml version="1.0" encoding="UTF-8" standalone="no"?><svg xmlns="http://www.w3.org/2000/svg" xmlns:xlink="http://www.w3.org/1999/xlink" contentStyleType="text/css" height="1678px" preserveAspectRatio="none" style="width:1573px;height:1678px;background:#FFFFFF;" version="1.1" viewBox="0 0 1573 1678" width="1573px" zoomAndPan="magnify"><defs/><g><text fill="#000000" font-family="sans-serif" font-size="14" font-weight="bold" lengthAdjust="spacing" textLength="222" x="674" y="29.9659">Settlement from Central-Ledger</text><rect fill="#F9FFF9" height="1619.8487" style="stroke:#181818;stroke-width:0.5;" width="840.5" x="344" y="46.0679"/><text fill="#000000" font-family="sans-serif" font-size="13" font-weight="bold" lengthAdjust="spacing" textLength="101" x="712.25" y="59.9649">Settlements BC</text><rect fill="#FFFFF9" height="1619.8487" style="stroke:#181818;stroke-width:0.5;" width="364.5" x="1186.5" y="46.0679"/><text fill="#000000" font-family="sans-serif" font-size="13" font-weight="bold" lengthAdjust="spacing" textLength="156" x="1289.25" y="59.9649">Accounts &amp; Balances BC</text><rect fill="none" height="261.0602" style="stroke:#000000;stroke-width:1.5;" width="779.5" x="23" y="389.196"/><rect fill="none" height="492.2963" style="stroke:#000000;stroke-width:1.5;" width="1140" x="417" y="664.2562"/><rect fill="none" height="410.2963" style="stroke:#000000;stroke-width:1.5;" width="1534" x="23" y="1170.5524"/><line style="stroke:#181818;stroke-width:0.5;stroke-dasharray:5.0,5.0;" x1="90" x2="90" y1="132.8419" y2="1597.8487"/><line style="stroke:#181818;stroke-width:0.5;stroke-dasharray:5.0,5.0;" x1="382" x2="382" y1="132.8419" y2="1597.8487"/><line style="stroke:#181818;stroke-width:0.5;stroke-dasharray:5.0,5.0;" x1="481" x2="481" y1="132.8419" y2="1597.8487"/><line style="stroke:#181818;stroke-width:0.5;stroke-dasharray:5.0,5.0;" x1="734.5" x2="734.5" y1="132.8419" y2="1597.8487"/><line style="stroke:#181818;stroke-width:0.5;stroke-dasharray:5.0,5.0;" x1="1103.5" x2="1103.5" y1="132.8419" y2="1597.8487"/><line style="stroke:#181818;stroke-width:0.5;stroke-dasharray:5.0,5.0;" x1="1225.5" x2="1225.5" y1="132.8419" y2="1597.8487"/><line style="stroke:#181818;stroke-width:0.5;stroke-dasharray:5.0,5.0;" x1="1504" x2="1504" y1="132.8419" y2="1597.8487"/><rect fill="#E2E2F0" height="33.0679" rx="2.5" ry="2.5" style="stroke:#181818;stroke-width:0.5;" width="115" x="33" y="98.7739"/><text fill="#000000" font-family="sans-serif" font-size="14" lengthAdjust="spacing" textLength="101" x="40" y="120.7399">Central-Ledger</text><rect fill="#E2E2F0" height="33.0679" rx="2.5" ry="2.5" style="stroke:#181818;stroke-width:0.5;" width="115" x="33" y="1596.8487"/><text fill="#000000" font-family="sans-serif" font-size="14" lengthAdjust="spacing" textLength="101" x="40" y="1618.8146">Central-Ledger</text><rect fill="#D5E8D4" height="33.0679" rx="2.5" ry="2.5" style="stroke:#181818;stroke-width:0.5;" width="69" x="348" y="98.7739"/><text fill="#000000" font-family="sans-serif" font-size="14" lengthAdjust="spacing" textLength="55" x="355" y="120.7399">Rest API</text><rect fill="#D5E8D4" height="33.0679" rx="2.5" ry="2.5" style="stroke:#181818;stroke-width:0.5;" width="69" x="348" y="1596.8487"/><text fill="#000000" font-family="sans-serif" font-size="14" lengthAdjust="spacing" textLength="55" x="355" y="1618.8146">Rest API</text><rect fill="#D5E8D4" height="33.0679" rx="2.5" ry="2.5" style="stroke:#181818;stroke-width:0.5;" width="109" x="427" y="98.7739"/><text fill="#000000" font-family="sans-serif" font-size="14" lengthAdjust="spacing" textLength="95" x="434" y="120.7399">Event Handler</text><rect fill="#D5E8D4" height="33.0679" rx="2.5" ry="2.5" style="stroke:#181818;stroke-width:0.5;" width="109" x="427" y="1596.8487"/><text fill="#000000" font-family="sans-serif" font-size="14" lengthAdjust="spacing" textLength="95" x="434" y="1618.8146">Event Handler</text><rect fill="#EDC54D" height="52.1358" rx="2.5" ry="2.5" style="stroke:#181818;stroke-width:0.5;" width="116" x="676.5" y="79.706"/><text fill="#000000" font-family="sans-serif" font-size="14" lengthAdjust="spacing" textLength="102" x="683.5" y="101.672">Settlements BC</text><text fill="#000000" font-family="sans-serif" font-size="14" lengthAdjust="spacing" textLength="66" x="701.5" y="120.7399">App Logic</text><rect fill="#EDC54D" height="52.1358" rx="2.5" ry="2.5" style="stroke:#181818;stroke-width:0.5;" width="116" x="676.5" y="1596.8487"/><text fill="#000000" font-family="sans-serif" font-size="14" lengthAdjust="spacing" textLength="102" x="683.5" y="1618.8146">Settlements BC</text><text fill="#000000" font-family="sans-serif" font-size="14" lengthAdjust="spacing" textLength="66" x="701.5" y="1637.8825">App Logic</text><text fill="#000000" font-family="sans-serif" font-size="14" lengthAdjust="spacing" textLength="148" x="1026.5" y="128.7399">Settlements-Database</text><path d="M1085.5,77.7739 C1085.5,67.7739 1103.5,67.7739 1103.5,67.7739 C1103.5,67.7739 1121.5,67.7739 1121.5,77.7739 L1121.5,103.7739 C1121.5,113.7739 1103.5,113.7739 1103.5,113.7739 C1103.5,113.7739 1085.5,113.7739 1085.5,103.7739 L1085.5,77.7739 " fill="#DAE8FC" style="stroke:#181818;stroke-width:1.5;"/><path d="M1085.5,77.7739 C1085.5,87.7739 1103.5,87.7739 1103.5,87.7739 C1103.5,87.7739 1121.5,87.7739 1121.5,77.7739 " fill="none" style="stroke:#181818;stroke-width:1.5;"/><text fill="#000000" font-family="sans-serif" font-size="14" lengthAdjust="spacing" textLength="148" x="1026.5" y="1611.8146">Settlements-Database</text><path d="M1085.5,1625.9166 C1085.5,1615.9166 1103.5,1615.9166 1103.5,1615.9166 C1103.5,1615.9166 1121.5,1615.9166 1121.5,1625.9166 L1121.5,1651.9166 C1121.5,1661.9166 1103.5,1661.9166 1103.5,1661.9166 C1103.5,1661.9166 1085.5,1661.9166 1085.5,1651.9166 L1085.5,1625.9166 " fill="#DAE8FC" style="stroke:#181818;stroke-width:1.5;"/><path d="M1085.5,1625.9166 C1085.5,1635.9166 1103.5,1635.9166 1103.5,1635.9166 C1103.5,1635.9166 1121.5,1635.9166 1121.5,1625.9166 " fill="none" style="stroke:#181818;stroke-width:1.5;"/><rect fill="#D5E8D4" height="33.0679" rx="2.5" ry="2.5" style="stroke:#181818;stroke-width:0.5;" width="71" x="1190.5" y="98.7739"/><text fill="#000000" font-family="sans-serif" font-size="14" lengthAdjust="spacing" textLength="57" x="1197.5" y="120.7399">A&amp;B SVC</text><rect fill="#D5E8D4" height="33.0679" rx="2.5" ry="2.5" style="stroke:#181818;stroke-width:0.5;" width="71" x="1190.5" y="1596.8487"/><text fill="#000000" font-family="sans-serif" font-size="14" lengthAdjust="spacing" textLength="57" x="1197.5" y="1618.8146">A&amp;B SVC</text><text fill="#000000" font-family="sans-serif" font-size="14" lengthAdjust="spacing" textLength="80" x="1461" y="128.7399">A&amp;B-Ledger</text><path d="M1486,77.7739 C1486,67.7739 1504,67.7739 1504,67.7739 C1504,67.7739 1522,67.7739 1522,77.7739 L1522,103.7739 C1522,113.7739 1504,113.7739 1504,113.7739 C1504,113.7739 1486,113.7739 1486,103.7739 L1486,77.7739 " fill="#DAE8FC" style="stroke:#181818;stroke-width:1.5;"/><path d="M1486,77.7739 C1486,87.7739 1504,87.7739 1504,87.7739 C1504,87.7739 1522,87.7739 1522,77.7739 " fill="none" style="stroke:#181818;stroke-width:1.5;"/><text fill="#000000" font-family="sans-serif" font-size="14" lengthAdjust="spacing" textLength="80" x="1461" y="1611.8146">A&amp;B-Ledger</text><path d="M1486,1625.9166 C1486,1615.9166 1504,1615.9166 1504,1615.9166 C1504,1615.9166 1522,1615.9166 1522,1625.9166 L1522,1651.9166 C1522,1661.9166 1504,1661.9166 1504,1661.9166 C1504,1661.9166 1486,1661.9166 1486,1651.9166 L1486,1625.9166 " fill="#DAE8FC" style="stroke:#181818;stroke-width:1.5;"/><path d="M1486,1625.9166 C1486,1635.9166 1504,1635.9166 1504,1635.9166 C1504,1635.9166 1522,1635.9166 1522,1625.9166 " fill="none" style="stroke:#181818;stroke-width:1.5;"/><path d="M5,147.8419 L5,192.8419 L177,192.8419 L177,157.8419 L167,147.8419 L5,147.8419 " fill="#FEFFDD" style="stroke:#181818;stroke-width:0.5;"/><path d="M167,147.8419 L167,157.8419 L177,157.8419 L167,147.8419 " fill="#FEFFDD" style="stroke:#181818;stroke-width:0.5;"/><text fill="#000000" font-family="sans-serif" font-size="13" lengthAdjust="spacing" textLength="151" x="11" y="166.7389">Central-Ledger maintains</text><text fill="#000000" font-family="sans-serif" font-size="13" lengthAdjust="spacing" textLength="103" x="11" y="184.4449">liquidity balances</text><path d="M362,203.2539 L362,266.2539 L600,266.2539 L600,213.2539 L590,203.2539 L362,203.2539 " fill="#FEFFDD" style="stroke:#181818;stroke-width:0.5;"/><path d="M590,203.2539 L590,213.2539 L600,213.2539 L590,203.2539 " fill="#FEFFDD" style="stroke:#181818;stroke-width:0.5;"/><text fill="#000000" font-family="sans-serif" font-size="13" lengthAdjust="spacing" textLength="74" x="368" y="222.1509">Kafka Topics</text><text fill="#000000" font-family="sans-serif" font-size="13" lengthAdjust="spacing" textLength="165" x="368" y="239.8569">- create Settlement Transfer</text><text fill="#000000" font-family="sans-serif" font-size="13" lengthAdjust="spacing" textLength="217" x="368" y="257.5629">- result of Settlement Transfer create</text><path d="M1154,276.3719 L1154,321.3719 L1298,321.3719 L1298,286.3719 L1288,276.3719 L1154,276.3719 " fill="#FEFFDD" style="stroke:#181818;stroke-width:0.5;"/><path d="M1288,276.3719 L1288,286.3719 L1298,286.3719 L1288,276.3719 " fill="#FEFFDD" style="stroke:#181818;stroke-width:0.5;"/><text fill="#000000" font-family="sans-serif" font-size="13" lengthAdjust="spacing" textLength="107" x="1160" y="295.2689">gRPC interface for</text><text fill="#000000" font-family="sans-serif" font-size="13" lengthAdjust="spacing" textLength="123" x="1160" y="312.975">Accounts &amp; Balances</text><path d="M1442,331.784 L1442,376.784 L1566,376.784 L1566,341.784 L1556,331.784 L1442,331.784 " fill="#FEFFDD" style="stroke:#181818;stroke-width:0.5;"/><path d="M1556,331.784 L1556,341.784 L1566,341.784 L1556,331.784 " fill="#FEFFDD" style="stroke:#181818;stroke-width:0.5;"/><text fill="#000000" font-family="sans-serif" font-size="13" lengthAdjust="spacing" textLength="67" x="1448" y="350.681">TigerBeetle</text><text fill="#000000" font-family="sans-serif" font-size="13" lengthAdjust="spacing" textLength="103" x="1448" y="368.387">enabled/disabled</text><path d="M23,389.196 L370,389.196 L370,398.902 L360,408.902 L23,408.902 L23,389.196 " fill="#EEEEEE" style="stroke:#000000;stroke-width:1.5;"/><rect fill="none" height="261.0602" style="stroke:#000000;stroke-width:1.5;" width="779.5" x="23" y="389.196"/><text fill="#000000" font-family="sans-serif" font-size="13" font-weight="bold" lengthAdjust="spacing" textLength="302" x="38" y="404.093">1. Create Settlement Transfer - Central Ledger</text><line style="stroke:#181818;stroke-width:1.0;stroke-dasharray:2.0,2.0;" x1="90.5" x2="132.5" y1="468.0201" y2="468.0201"/><line style="stroke:#181818;stroke-width:1.0;stroke-dasharray:2.0,2.0;" x1="132.5" x2="132.5" y1="468.0201" y2="481.0201"/><line style="stroke:#181818;stroke-width:1.0;stroke-dasharray:2.0,2.0;" x1="91.5" x2="132.5" y1="481.0201" y2="481.0201"/><polygon fill="#181818" points="100.5,464.0201,90.5,468.0201,100.5,472.0201,96.5,468.0201" style="stroke:#181818;stroke-width:1.0;"/><polygon fill="#181818" points="101.5,477.0201,91.5,481.0201,101.5,485.0201,97.5,481.0201" style="stroke:#181818;stroke-width:1.0;"/><text fill="#000000" font-family="sans-serif" font-size="13" font-weight="bold" lengthAdjust="spacing" textLength="7" x="97.5" y="444.505">1</text><text fill="#000000" font-family="sans-serif" font-size="13" font-weight="bold" lengthAdjust="spacing" textLength="111" x="108.5" y="426.799">Transfer prepare</text><text fill="#000000" font-family="sans-serif" font-size="13" lengthAdjust="spacing" textLength="3" x="219.5" y="426.799">.</text><text fill="#000000" font-family="sans-serif" font-size="13" lengthAdjust="spacing" textLength="267" x="108.5" y="444.505">Obtain settlement model and allocation data</text><text fill="#000000" font-family="sans-serif" font-size="13" lengthAdjust="spacing" textLength="185" x="108.5" y="462.2111">via Central-Ledger rules engine</text><line style="stroke:#181818;stroke-width:1.0;stroke-dasharray:2.0,2.0;" x1="90.5" x2="132.5" y1="530.4321" y2="530.4321"/><line style="stroke:#181818;stroke-width:1.0;stroke-dasharray:2.0,2.0;" x1="132.5" x2="132.5" y1="530.4321" y2="543.4321"/><line style="stroke:#181818;stroke-width:1.0;stroke-dasharray:2.0,2.0;" x1="91.5" x2="132.5" y1="543.4321" y2="543.4321"/><polygon fill="#181818" points="100.5,526.4321,90.5,530.4321,100.5,534.4321,96.5,530.4321" style="stroke:#181818;stroke-width:1.0;"/><polygon fill="#181818" points="101.5,539.4321,91.5,543.4321,101.5,547.4321,97.5,543.4321" style="stroke:#181818;stroke-width:1.0;"/><text fill="#000000" font-family="sans-serif" font-size="13" font-weight="bold" lengthAdjust="spacing" textLength="7" x="97.5" y="515.7701">2</text><text fill="#000000" font-family="sans-serif" font-size="13" font-weight="bold" lengthAdjust="spacing" textLength="90" x="108.5" y="506.9171">Transfer fulfil</text><text fill="#000000" font-family="sans-serif" font-size="13" lengthAdjust="spacing" textLength="3" x="198.5" y="506.9171">.</text><text fill="#000000" font-family="sans-serif" font-size="13" lengthAdjust="spacing" textLength="219" x="108.5" y="524.6231">At this point, the transfer has cleared</text><polygon fill="#181818" points="469.5,606.5501,479.5,610.5501,469.5,614.5501,473.5,610.5501" style="stroke:#181818;stroke-width:1.0;"/><line style="stroke:#181818;stroke-width:1.0;" x1="90.5" x2="475.5" y1="610.5501" y2="610.5501"/><text fill="#000000" font-family="sans-serif" font-size="13" font-weight="bold" lengthAdjust="spacing" textLength="7" x="97.5" y="587.0351">3</text><text fill="#000000" font-family="sans-serif" font-size="13" lengthAdjust="spacing" textLength="3" x="108.5" y="569.3291"> </text><text fill="#000000" font-family="sans-serif" font-size="13" font-style="italic" lengthAdjust="spacing" textLength="75" x="108.5" y="587.0351">publishEvent</text><text fill="#000000" font-family="sans-serif" font-size="13" lengthAdjust="spacing" textLength="143" x="186.5" y="587.0351">will all necessary data as</text><text fill="#000000" font-family="sans-serif" font-size="13" font-style="italic" font-weight="bold" lengthAdjust="spacing" textLength="145" x="108.5" y="604.7411">ISettlementTransferDto</text><polygon fill="#181818" points="492.5,638.2562,482.5,642.2562,492.5,646.2562,488.5,642.2562" style="stroke:#181818;stroke-width:1.0;"/><line style="stroke:#181818;stroke-width:1.0;" x1="486.5" x2="733.5" y1="642.2562" y2="642.2562"/><text fill="#000000" font-family="sans-serif" font-size="13" font-weight="bold" lengthAdjust="spacing" textLength="7" x="498.5" y="636.4472">1</text><text fill="#000000" font-family="sans-serif" font-size="13" lengthAdjust="spacing" textLength="214" x="509.5" y="636.4472">Listen for Settlement Transfer event</text><path d="M417,664.2562 L623,664.2562 L623,673.9622 L613,683.9622 L417,683.9622 L417,664.2562 " fill="#EEEEEE" style="stroke:#000000;stroke-width:1.5;"/><rect fill="none" height="492.2963" style="stroke:#000000;stroke-width:1.5;" width="1140" x="417" y="664.2562"/><text fill="#000000" font-family="sans-serif" font-size="13" font-weight="bold" lengthAdjust="spacing" textLength="161" x="432" y="679.1532">2. Settlement - App Logic</text><line style="stroke:#181818;stroke-width:1.0;stroke-dasharray:2.0,2.0;" x1="734.5" x2="776.5" y1="707.6682" y2="707.6682"/><line style="stroke:#181818;stroke-width:1.0;stroke-dasharray:2.0,2.0;" x1="776.5" x2="776.5" y1="707.6682" y2="720.6682"/><line style="stroke:#181818;stroke-width:1.0;stroke-dasharray:2.0,2.0;" x1="735.5" x2="776.5" y1="720.6682" y2="720.6682"/><polygon fill="#181818" points="744.5,703.6682,734.5,707.6682,744.5,711.6682,740.5,707.6682" style="stroke:#181818;stroke-width:1.0;"/><polygon fill="#181818" points="745.5,716.6682,735.5,720.6682,745.5,724.6682,741.5,720.6682" style="stroke:#181818;stroke-width:1.0;"/><text fill="#000000" font-family="sans-serif" font-size="13" font-weight="bold" lengthAdjust="spacing" textLength="7" x="741.5" y="701.8592">2</text><text fill="#000000" font-family="sans-serif" font-size="13" lengthAdjust="spacing" textLength="214" x="752.5" y="701.8592">Settlement Transfer event triggered</text><line style="stroke:#181818;stroke-width:1.0;stroke-dasharray:2.0,2.0;" x1="734.5" x2="776.5" y1="752.3742" y2="752.3742"/><line style="stroke:#181818;stroke-width:1.0;stroke-dasharray:2.0,2.0;" x1="776.5" x2="776.5" y1="752.3742" y2="765.3742"/><line style="stroke:#181818;stroke-width:1.0;stroke-dasharray:2.0,2.0;" x1="735.5" x2="776.5" y1="765.3742" y2="765.3742"/><polygon fill="#181818" points="745.5,761.3742,735.5,765.3742,745.5,769.3742,741.5,765.3742" style="stroke:#181818;stroke-width:1.0;"/><text fill="#000000" font-family="sans-serif" font-size="13" font-weight="bold" lengthAdjust="spacing" textLength="7" x="741.5" y="746.5652">3</text><text fill="#000000" font-family="sans-serif" font-size="13" lengthAdjust="spacing" textLength="199" x="752.5" y="746.5652">Validate Settlement Transfer data</text><polygon fill="#181818" points="745.5,810.7862,735.5,814.7862,745.5,818.7862,741.5,814.7862" style="stroke:#181818;stroke-width:1.0;"/><polygon fill="#181818" points="1091.5,810.7862,1101.5,814.7862,1091.5,818.7862,1095.5,814.7862" style="stroke:#181818;stroke-width:1.0;"/><line style="stroke:#181818;stroke-width:1.0;stroke-dasharray:2.0,2.0;" x1="739.5" x2="1097.5" y1="814.7862" y2="814.7862"/><text fill="#000000" font-family="sans-serif" font-size="13" font-weight="bold" lengthAdjust="spacing" textLength="7" x="751.5" y="800.1242">4</text><text fill="#000000" font-family="sans-serif" font-size="13" lengthAdjust="spacing" textLength="191" x="762.5" y="791.2712">Fetch &amp; cache settlement config</text><text fill="#000000" font-family="sans-serif" font-size="13" font-weight="bold" lengthAdjust="spacing" textLength="202" x="762.5" y="808.9772">Platform Config BC / Admin API</text><polygon fill="#181818" points="745.5,860.1983,735.5,864.1983,745.5,868.1983,741.5,864.1983" style="stroke:#181818;stroke-width:1.0;"/><polygon fill="#181818" points="1091.5,860.1983,1101.5,864.1983,1091.5,868.1983,1095.5,864.1983" style="stroke:#181818;stroke-width:1.0;"/><line style="stroke:#181818;stroke-width:1.0;stroke-dasharray:2.0,2.0;" x1="739.5" x2="1097.5" y1="864.1983" y2="864.1983"/><text fill="#000000" font-family="sans-serif" font-size="13" font-weight="bold" lengthAdjust="spacing" textLength="7" x="751.5" y="849.5363">5</text><text fill="#000000" font-family="sans-serif" font-size="13" font-weight="bold" lengthAdjust="spacing" textLength="122" x="762.5" y="840.6833">Obtain open batch</text><text fill="#000000" font-family="sans-serif" font-size="13" lengthAdjust="spacing" textLength="209" x="887.5" y="840.6833">based on Settlement Transfer data.</text><text fill="#000000" font-family="sans-serif" font-size="13" font-style="italic" lengthAdjust="spacing" textLength="250" x="762.5" y="858.3893">Create new batch if no OPEN batch available</text><polygon fill="#181818" points="745.5,891.9043,735.5,895.9043,745.5,899.9043,741.5,895.9043" style="stroke:#181818;stroke-width:1.0;"/><polygon fill="#181818" points="1214,891.9043,1224,895.9043,1214,899.9043,1218,895.9043" style="stroke:#181818;stroke-width:1.0;"/><line style="stroke:#181818;stroke-width:1.0;" x1="739.5" x2="1220" y1="895.9043" y2="895.9043"/><text fill="#000000" font-family="sans-serif" font-size="13" font-weight="bold" lengthAdjust="spacing" textLength="7" x="751.5" y="890.0953">6</text><text fill="#000000" font-family="sans-serif" font-size="13" lengthAdjust="spacing" textLength="41" x="762.5" y="890.0953">Obtain</text><text fill="#000000" font-family="sans-serif" font-size="13" font-weight="bold" lengthAdjust="spacing" textLength="138" x="806.5" y="890.0953">Settlement accounts</text><text fill="#000000" font-family="sans-serif" font-size="13" lengthAdjust="spacing" textLength="152" x="947.5" y="890.0953">using Participant account</text><polygon fill="#181818" points="1237,923.6103,1227,927.6103,1237,931.6103,1233,927.6103" style="stroke:#181818;stroke-width:1.0;"/><polygon fill="#181818" points="1492,923.6103,1502,927.6103,1492,931.6103,1496,927.6103" style="stroke:#181818;stroke-width:1.0;"/><line style="stroke:#181818;stroke-width:1.0;stroke-dasharray:2.0,2.0;" x1="1231" x2="1498" y1="927.6103" y2="927.6103"/><text fill="#000000" font-family="sans-serif" font-size="13" font-weight="bold" lengthAdjust="spacing" textLength="7" x="1243" y="921.8013">7</text><text fill="#000000" font-family="sans-serif" font-size="13" lengthAdjust="spacing" textLength="174" x="1254" y="921.8013">Create account, if none exists</text><polygon fill="#181818" points="745.5,955.3163,735.5,959.3163,745.5,963.3163,741.5,959.3163" style="stroke:#181818;stroke-width:1.0;"/><line style="stroke:#181818;stroke-width:1.0;" x1="739.5" x2="1225" y1="959.3163" y2="959.3163"/><text fill="#000000" font-family="sans-serif" font-size="13" font-weight="bold" lengthAdjust="spacing" textLength="7" x="751.5" y="953.5073">8</text><text fill="#000000" font-family="sans-serif" font-size="13" lengthAdjust="spacing" textLength="41" x="762.5" y="953.5073">Return</text><text fill="#000000" font-family="sans-serif" font-size="13" font-weight="bold" lengthAdjust="spacing" textLength="55" x="806.5" y="953.5073">Account</text><text fill="#000000" font-family="sans-serif" font-size="13" lengthAdjust="spacing" textLength="75" x="864.5" y="953.5073">creation info</text><polygon fill="#181818" points="1214,987.0223,1224,991.0223,1214,995.0223,1218,991.0223" style="stroke:#181818;stroke-width:1.0;"/><line style="stroke:#181818;stroke-width:1.0;" x1="734.5" x2="1220" y1="991.0223" y2="991.0223"/><text fill="#000000" font-family="sans-serif" font-size="13" font-weight="bold" lengthAdjust="spacing" textLength="7" x="741.5" y="985.2133">9</text><text fill="#000000" font-family="sans-serif" font-size="13" lengthAdjust="spacing" textLength="160" x="752.5" y="985.2133">Create Settlement Transfer</text><polygon fill="#181818" points="1237,1036.4344,1227,1040.4344,1237,1044.4344,1233,1040.4344" style="stroke:#181818;stroke-width:1.0;"/><polygon fill="#181818" points="1492,1036.4344,1502,1040.4344,1492,1044.4344,1496,1040.4344" style="stroke:#181818;stroke-width:1.0;"/><line style="stroke:#181818;stroke-width:1.0;" x1="1231" x2="1498" y1="1040.4344" y2="1040.4344"/><text fill="#000000" font-family="sans-serif" font-size="13" font-weight="bold" lengthAdjust="spacing" textLength="14" x="1243" y="1025.7724">10</text><text fill="#000000" font-family="sans-serif" font-size="13" lengthAdjust="spacing" textLength="197" x="1261" y="1016.9194">Create Transfer: update accounts</text><text fill="#000000" font-family="sans-serif" font-size="13" lengthAdjust="spacing" textLength="141" x="1261" y="1034.6254">to DR payer &amp; CR payee</text><polygon fill="#181818" points="745.5,1068.1404,735.5,1072.1404,745.5,1076.1404,741.5,1072.1404" style="stroke:#181818;stroke-width:1.0;"/><line style="stroke:#181818;stroke-width:1.0;" x1="739.5" x2="1225" y1="1072.1404" y2="1072.1404"/><text fill="#000000" font-family="sans-serif" font-size="13" font-weight="bold" lengthAdjust="spacing" textLength="14" x="751.5" y="1066.3314">11</text><text fill="#000000" font-family="sans-serif" font-size="13" lengthAdjust="spacing" textLength="41" x="769.5" y="1066.3314">Return</text><text fill="#000000" font-family="sans-serif" font-size="13" font-weight="bold" lengthAdjust="spacing" textLength="56" x="813.5" y="1066.3314">Transfer</text><text fill="#000000" font-family="sans-serif" font-size="13" lengthAdjust="spacing" textLength="75" x="872.5" y="1066.3314">creation info</text><line style="stroke:#181818;stroke-width:1.0;" x1="734.5" x2="776.5" y1="1103.8464" y2="1103.8464"/><line style="stroke:#181818;stroke-width:1.0;" x1="776.5" x2="776.5" y1="1103.8464" y2="1116.8464"/><line style="stroke:#181818;stroke-width:1.0;" x1="735.5" x2="776.5" y1="1116.8464" y2="1116.8464"/><polygon fill="#181818" points="744.5,1099.8464,734.5,1103.8464,744.5,1107.8464,740.5,1103.8464" style="stroke:#181818;stroke-width:1.0;"/><polygon fill="#181818" points="745.5,1112.8464,735.5,1116.8464,745.5,1120.8464,741.5,1116.8464" style="stroke:#181818;stroke-width:1.0;"/><text fill="#000000" font-family="sans-serif" font-size="13" font-weight="bold" lengthAdjust="spacing" textLength="14" x="741.5" y="1098.0374">12</text><text fill="#000000" font-family="sans-serif" font-size="13" lengthAdjust="spacing" textLength="47" x="759.5" y="1098.0374">Prepare</text><text fill="#000000" font-family="sans-serif" font-size="13" font-weight="bold" lengthAdjust="spacing" textLength="116" x="809.5" y="1098.0374">Transfer/Account</text><text fill="#000000" font-family="sans-serif" font-size="13" lengthAdjust="spacing" textLength="85" x="928.5" y="1098.0374">response data</text><polygon fill="#181818" points="492.5,1144.5524,482.5,1148.5524,492.5,1152.5524,488.5,1148.5524" style="stroke:#181818;stroke-width:1.0;"/><line style="stroke:#181818;stroke-width:1.0;" x1="486.5" x2="733.5" y1="1148.5524" y2="1148.5524"/><text fill="#000000" font-family="sans-serif" font-size="13" font-weight="bold" lengthAdjust="spacing" textLength="14" x="498.5" y="1142.7434">13</text><text fill="#000000" font-family="sans-serif" font-size="13" lengthAdjust="spacing" textLength="44" x="516.5" y="1142.7434">Publish</text><text fill="#000000" font-family="sans-serif" font-size="13" font-weight="bold" lengthAdjust="spacing" textLength="134" x="563.5" y="1142.7434">Settlement Transfer</text><text fill="#000000" font-family="sans-serif" font-size="13" lengthAdjust="spacing" textLength="27" x="700.5" y="1142.7434">data</text><path d="M23,1170.5524 L279,1170.5524 L279,1180.2584 L269,1190.2584 L23,1190.2584 L23,1170.5524 " fill="#EEEEEE" style="stroke:#000000;stroke-width:1.5;"/><rect fill="none" height="410.2963" style="stroke:#000000;stroke-width:1.5;" width="1534" x="23" y="1170.5524"/><text fill="#000000" font-family="sans-serif" font-size="13" font-weight="bold" lengthAdjust="spacing" textLength="211" x="38" y="1185.4494">3. Settlement - Retrieve Batches</text><polygon fill="#181818" points="370.5,1333.9066,380.5,1337.9066,370.5,1341.9066,374.5,1337.9066" style="stroke:#181818;stroke-width:1.0;"/><line style="stroke:#181818;stroke-width:1.0;" x1="90.5" x2="376.5" y1="1337.9066" y2="1337.9066"/><text fill="#000000" font-family="sans-serif" font-size="13" font-weight="bold" lengthAdjust="spacing" textLength="7" x="97.5" y="1270.1265">1</text><text fill="#000000" font-family="sans-serif" font-size="13" lengthAdjust="spacing" textLength="89" x="108.5" y="1208.1555">At time of fulfil:</text><text fill="#000000" font-family="sans-serif" font-size="13" font-style="italic" lengthAdjust="spacing" textLength="145" x="108.5" y="1225.8615">retrieveSettlementBatches</text><text fill="#000000" font-family="sans-serif" font-size="13" lengthAdjust="spacing" textLength="3" x="253.5" y="1225.8615"> </text><text fill="#000000" font-family="sans-serif" font-size="13" lengthAdjust="spacing" textLength="42" x="108.5" y="1243.5675">INPUT:</text><text fill="#000000" font-family="sans-serif" font-size="13" lengthAdjust="spacing" textLength="11" x="108.5" y="1261.2735">-&gt;</text><text fill="#000000" font-family="sans-serif" font-size="13" font-weight="bold" lengthAdjust="spacing" textLength="69" x="122.5" y="1261.2735">From Date</text><text fill="#000000" font-family="sans-serif" font-size="13" lengthAdjust="spacing" textLength="39" x="194.5" y="1261.2735">- From</text><text fill="#000000" font-family="sans-serif" font-size="13" lengthAdjust="spacing" textLength="11" x="108.5" y="1278.9795">-&gt;</text><text fill="#000000" font-family="sans-serif" font-size="13" font-weight="bold" lengthAdjust="spacing" textLength="51" x="122.5" y="1278.9795">To Date</text><text fill="#000000" font-family="sans-serif" font-size="13" lengthAdjust="spacing" textLength="22" x="176.5" y="1278.9795">- To</text><text fill="#000000" font-family="sans-serif" font-size="13" lengthAdjust="spacing" textLength="11" x="108.5" y="1296.6855">-&gt;</text><text fill="#000000" font-family="sans-serif" font-size="13" font-weight="bold" lengthAdjust="spacing" textLength="118" x="122.5" y="1296.6855">Settlement Model</text><text fill="#000000" font-family="sans-serif" font-size="13" lengthAdjust="spacing" textLength="45" x="243.5" y="1296.6855">- Model</text><text fill="#000000" font-family="sans-serif" font-size="13" font-style="italic" lengthAdjust="spacing" textLength="55" x="291.5" y="1296.6855">(optional)</text><text fill="#000000" font-family="sans-serif" font-size="13" lengthAdjust="spacing" textLength="55" x="108.5" y="1314.3916">OUTPUT:</text><text fill="#000000" font-family="sans-serif" font-size="13" lengthAdjust="spacing" textLength="11" x="108.5" y="1332.0976">-&gt;</text><text fill="#000000" font-family="sans-serif" font-size="13" font-weight="bold" lengthAdjust="spacing" textLength="131" x="122.5" y="1332.0976">Settlement Batches</text><text fill="#000000" font-family="sans-serif" font-size="13" lengthAdjust="spacing" textLength="54" x="256.5" y="1332.0976">- Batches</text><polygon fill="#181818" points="722.5,1365.6126,732.5,1369.6126,722.5,1373.6126,726.5,1369.6126" style="stroke:#181818;stroke-width:1.0;"/><line style="stroke:#181818;stroke-width:1.0;" x1="382.5" x2="728.5" y1="1369.6126" y2="1369.6126"/><text fill="#000000" font-family="sans-serif" font-size="13" font-weight="bold" lengthAdjust="spacing" textLength="7" x="389.5" y="1363.8036">2</text><text fill="#000000" font-family="sans-serif" font-size="13" lengthAdjust="spacing" textLength="167" x="400.5" y="1363.8036">Request settlement batches</text><polygon fill="#181818" points="1214,1397.3186,1224,1401.3186,1214,1405.3186,1218,1401.3186" style="stroke:#181818;stroke-width:1.0;"/><line style="stroke:#181818;stroke-width:1.0;" x1="734.5" x2="1220" y1="1401.3186" y2="1401.3186"/><text fill="#000000" font-family="sans-serif" font-size="13" font-weight="bold" lengthAdjust="spacing" textLength="7" x="741.5" y="1395.5096">3</text><text fill="#000000" font-family="sans-serif" font-size="13" lengthAdjust="spacing" textLength="212" x="752.5" y="1395.5096">Retrieve Settlement batch accounts</text><polygon fill="#181818" points="1237,1429.0246,1227,1433.0246,1237,1437.0246,1233,1433.0246" style="stroke:#181818;stroke-width:1.0;"/><polygon fill="#181818" points="1492,1429.0246,1502,1433.0246,1492,1437.0246,1496,1433.0246" style="stroke:#181818;stroke-width:1.0;"/><line style="stroke:#181818;stroke-width:1.0;" x1="1231" x2="1498" y1="1433.0246" y2="1433.0246"/><text fill="#000000" font-family="sans-serif" font-size="13" font-weight="bold" lengthAdjust="spacing" textLength="7" x="1243" y="1427.2156">4</text><text fill="#000000" font-family="sans-serif" font-size="13" lengthAdjust="spacing" textLength="243" x="1254" y="1427.2156">Retrieve Settlement accounts &amp; balances</text><polygon fill="#181818" points="745.5,1460.7306,735.5,1464.7306,745.5,1468.7306,741.5,1464.7306" style="stroke:#181818;stroke-width:1.0;"/><line style="stroke:#181818;stroke-width:1.0;" x1="739.5" x2="1225" y1="1464.7306" y2="1464.7306"/><text fill="#000000" font-family="sans-serif" font-size="13" font-weight="bold" lengthAdjust="spacing" textLength="7" x="751.5" y="1458.9216">5</text><text fill="#000000" font-family="sans-serif" font-size="13" lengthAdjust="spacing" textLength="41" x="762.5" y="1458.9216">Return</text><text fill="#000000" font-family="sans-serif" font-size="13" font-weight="bold" lengthAdjust="spacing" textLength="55" x="806.5" y="1458.9216">Account</text><text fill="#000000" font-family="sans-serif" font-size="13" lengthAdjust="spacing" textLength="27" x="864.5" y="1458.9216">data</text><line style="stroke:#181818;stroke-width:1.0;stroke-dasharray:2.0,2.0;" x1="734.5" x2="776.5" y1="1496.4367" y2="1496.4367"/><line style="stroke:#181818;stroke-width:1.0;stroke-dasharray:2.0,2.0;" x1="776.5" x2="776.5" y1="1496.4367" y2="1509.4367"/><line style="stroke:#181818;stroke-width:1.0;stroke-dasharray:2.0,2.0;" x1="735.5" x2="776.5" y1="1509.4367" y2="1509.4367"/><polygon fill="#181818" points="745.5,1505.4367,735.5,1509.4367,745.5,1513.4367,741.5,1509.4367" style="stroke:#181818;stroke-width:1.0;"/><text fill="#000000" font-family="sans-serif" font-size="13" font-weight="bold" lengthAdjust="spacing" textLength="7" x="741.5" y="1490.6277">6</text><text fill="#000000" font-family="sans-serif" font-size="13" lengthAdjust="spacing" textLength="172" x="752.5" y="1490.6277">Prepare batch response data</text><polygon fill="#181818" points="393.5,1537.1427,383.5,1541.1427,393.5,1545.1427,389.5,1541.1427" style="stroke:#181818;stroke-width:1.0;"/><line style="stroke:#181818;stroke-width:1.0;" x1="387.5" x2="733.5" y1="1541.1427" y2="1541.1427"/><text fill="#000000" font-family="sans-serif" font-size="13" font-weight="bold" lengthAdjust="spacing" textLength="7" x="399.5" y="1535.3337">7</text><text fill="#000000" font-family="sans-serif" font-size="13" lengthAdjust="spacing" textLength="41" x="410.5" y="1535.3337">Return</text><text fill="#000000" font-family="sans-serif" font-size="13" font-weight="bold" lengthAdjust="spacing" textLength="39" x="454.5" y="1535.3337">Batch</text><text fill="#000000" font-family="sans-serif" font-size="13" lengthAdjust="spacing" textLength="27" x="496.5" y="1535.3337">data</text><polygon fill="#181818" points="101.5,1568.8487,91.5,1572.8487,101.5,1576.8487,97.5,1572.8487" style="stroke:#181818;stroke-width:1.0;"/><line style="stroke:#181818;stroke-width:1.0;" x1="95.5" x2="381.5" y1="1572.8487" y2="1572.8487"/><text fill="#000000" font-family="sans-serif" font-size="13" font-weight="bold" lengthAdjust="spacing" textLength="7" x="107.5" y="1567.0397">8</text><text fill="#000000" font-family="sans-serif" font-size="13" lengthAdjust="spacing" textLength="41" x="118.5" y="1567.0397">Return</text><text fill="#000000" font-family="sans-serif" font-size="13" font-weight="bold" lengthAdjust="spacing" textLength="39" x="162.5" y="1567.0397">Batch</text><text fill="#000000" font-family="sans-serif" font-size="13" lengthAdjust="spacing" textLength="27" x="204.5" y="1567.0397">data</text><!--SRC=[bLPjYziu4FwUNp5qORappPhUjT2QKiWhjzos3RjfFmKMsPQzeehaMlAs- -zl9Ckox3YzRI346MaUFJFppCYQQKxXZchyELAXeQZb4LRuL1C-lw5vIUlPh2ArPXch26vuCLny0KG1_QdlCpuJKbEGZxJk382VuNOu4YOqVfLTvEnxmtAcdo0bd8YCgXaLEHYWsIoLFmDc2fOhkDY-sswtxwplWDGjLHeMksjBHwNPVMqC5-itcxVhrwVRDuycrd-8oBaBmVXGQmsT-eZykhMRpx-a-4PWBokMAM-SGrPJeWSftTT4g0Bps6z2TWtN88kfVGx2RlVPE0bXc9c3M5GLtCYIPJuSKbNtt5ZWOhDUlNczjY0vqIGbYWuGvcjdzSvvYebORDvkLxOYM8ks88iiauqvynAMhcHjORRJXLbSBk7kwyhYaXI1oxhA1Zdk2U7UK5LsksRuDwNKoBGZDAoCH_NvBMztAq2PqReW6OL2zgcVe7-Qvn5sGC7Zx8rjsTBoHYf8ocaUvqpPXo6oJsDPowQ2LrUmEYiLb8Zh6t0zI1ejHNDCdOpQ1eFty_c7xZc1AFB-LKsn33IAhk0WFgUcuq3rvnnbJZcW_85mBZEYcHIs40VnoCYuP-k6OvMfA9cWppgzQ7Z1U7luGeD-O0egYHLvYSyKTBVl0QkSSOf4yn0NKVjsJ10ZZgicvKmzsBwDO_Z1E3VKGL2ie2BrasMFgZc8A8hZwpwd7Qcrbd4SHUD43XjbTF8DKveA8w398hNp0ElQrVIlgt3V77nFJXnbapSm9USFmPIn4alXyZGYFGP2vby9P_avSPbK_OeHzdu2Mwgp1soJZ6HOia0xcHG5AqsUTvnep0tU5zPava0CY_o8MiDHZBd-lpEYo4bJLfZcbE29KGHc6EI0WZp7_SeemZMFe3zQHs05zXbytcq-EGDv98oRHepZIIOVWe6KW6CIHS6fn4qB9DKe9ahO1QFDBLhe7iW6U3AvagxNdTFBbgsWA7dKc1g1J1JqbkgcDlJS14DAzfemZSj48QV5x26JNmoRamXE0_3kdKy2JPK70IdiKYrXVOlJ_mdBT0chzf7-HcWT-3DYUt_QFBjsv0KuSPyhl70hAV2IEQFzKUFlsd4pL4D0pw84ZV_tgF4nf9eX65uog4IyOwR7jplLlgiaO2ObErBpLj0EqCJel7PGFRx3n35u4DUVTb_sk0-HecXhtjtm9iUnZnpCFxUmbxrvBvqn8FpHN0TsrJv17FyXAvD-ml-COxn0lko3Om97HyMwTg5soRLHJPRxUsEMWf6IZbodDTnAfSthtSZPw_0POZw3G_fNWpHyDVZTjZodi0dlJh9j2C_Kg5EBFtdfnkR0gqk-lvsdjmUoj7B-3m00]--></g></svg>