<?xml version="1.0" encoding="UTF-8" standalone="no"?><svg xmlns="http://www.w3.org/2000/svg" xmlns:xlink="http://www.w3.org/1999/xlink" contentStyleType="text/css" height="1152px" preserveAspectRatio="none" style="width:1413px;height:1152px;background:#FFFFFF;" version="1.1" viewBox="0 0 1413 1152" width="1413px" zoomAndPan="magnify"><defs/><g><text fill="#000000" font-family="sans-serif" font-size="14" font-weight="bold" lengthAdjust="spacing" textLength="277" x="566.5" y="27.9951">Settlement from the Transfers BC</text><rect fill="#F9FFF9" height="1096.2422" style="stroke:#181818;stroke-width:0.5;" width="704.5" x="334.5" y="43.2969"/><text fill="#000000" font-family="sans-serif" font-size="13" font-weight="bold" lengthAdjust="spacing" textLength="120" x="624.25" y="55.3638">Settlements BC</text><rect fill="#FFFFF9" height="1096.2422" style="stroke:#181818;stroke-width:0.5;" width="351.5" x="1041" y="43.2969"/><text fill="#000000" font-family="sans-serif" font-size="13" font-weight="bold" lengthAdjust="spacing" textLength="182" x="1123.25" y="55.3638">Accounts &amp; Balances BC</text><rect fill="none" height="189.9297" style="stroke:#000000;stroke-width:1.5;" width="609" x="42" y="342.7891"/><rect fill="none" height="510.5234" style="stroke:#000000;stroke-width:1.5;" width="1356.5" x="42" y="546.7188"/><line style="stroke:#181818;stroke-width:0.5;stroke-dasharray:5.0,5.0;" x1="104" x2="104" y1="124.7266" y2="1074.2422"/><line style="stroke:#181818;stroke-width:0.5;stroke-dasharray:5.0,5.0;" x1="407.5" x2="407.5" y1="124.7266" y2="1074.2422"/><line style="stroke:#181818;stroke-width:0.5;stroke-dasharray:5.0,5.0;" x1="576" x2="576" y1="124.7266" y2="1074.2422"/><line style="stroke:#181818;stroke-width:0.5;stroke-dasharray:5.0,5.0;" x1="949" x2="949" y1="124.7266" y2="1074.2422"/><line style="stroke:#181818;stroke-width:0.5;stroke-dasharray:5.0,5.0;" x1="1084" x2="1084" y1="124.7266" y2="1074.2422"/><line style="stroke:#181818;stroke-width:0.5;stroke-dasharray:5.0,5.0;" x1="1341.5" x2="1341.5" y1="124.7266" y2="1074.2422"/><rect fill="#E2E2F0" height="30.2969" rx="2.5" ry="2.5" style="stroke:#181818;stroke-width:0.5;" width="105" x="52" y="93.4297"/><text fill="#000000" font-family="sans-serif" font-size="14" lengthAdjust="spacing" textLength="91" x="59" y="113.4248">Transfers BC</text><rect fill="#E2E2F0" height="30.2969" rx="2.5" ry="2.5" style="stroke:#181818;stroke-width:0.5;" width="105" x="52" y="1073.2422"/><text fill="#000000" font-family="sans-serif" font-size="14" lengthAdjust="spacing" textLength="91" x="59" y="1093.2373">Transfers BC</text><rect fill="#D5E8D4" height="30.2969" rx="2.5" ry="2.5" style="stroke:#181818;stroke-width:0.5;" width="138" x="338.5" y="93.4297"/><text fill="#000000" font-family="sans-serif" font-size="14" lengthAdjust="spacing" textLength="124" x="345.5" y="113.4248">Settlements SVC</text><rect fill="#D5E8D4" height="30.2969" rx="2.5" ry="2.5" style="stroke:#181818;stroke-width:0.5;" width="138" x="338.5" y="1073.2422"/><text fill="#000000" font-family="sans-serif" font-size="14" lengthAdjust="spacing" textLength="124" x="345.5" y="1093.2373">Settlements SVC</text><rect fill="#EDC54D" height="46.5938" rx="2.5" ry="2.5" style="stroke:#181818;stroke-width:0.5;" width="129" x="512" y="77.1328"/><text fill="#000000" font-family="sans-serif" font-size="14" lengthAdjust="spacing" textLength="115" x="519" y="97.1279">Settlements BC</text><text fill="#000000" font-family="sans-serif" font-size="14" lengthAdjust="spacing" textLength="72" x="540.5" y="113.4248">App Logic</text><rect fill="#EDC54D" height="46.5938" rx="2.5" ry="2.5" style="stroke:#181818;stroke-width:0.5;" width="129" x="512" y="1073.2422"/><text fill="#000000" font-family="sans-serif" font-size="14" lengthAdjust="spacing" textLength="115" x="519" y="1093.2373">Settlements BC</text><text fill="#000000" font-family="sans-serif" font-size="14" lengthAdjust="spacing" textLength="72" x="540.5" y="1109.5342">App Logic</text><text fill="#000000" font-family="sans-serif" font-size="14" lengthAdjust="spacing" textLength="165" x="864" y="121.4248">Settlements-Database</text><path d="M931.5,72.4297 C931.5,62.4297 949.5,62.4297 949.5,62.4297 C949.5,62.4297 967.5,62.4297 967.5,72.4297 L967.5,98.4297 C967.5,108.4297 949.5,108.4297 949.5,108.4297 C949.5,108.4297 931.5,108.4297 931.5,98.4297 L931.5,72.4297 " fill="#DAE8FC" style="stroke:#181818;stroke-width:1.5;"/><path d="M931.5,72.4297 C931.5,82.4297 949.5,82.4297 949.5,82.4297 C949.5,82.4297 967.5,82.4297 967.5,72.4297 " fill="none" style="stroke:#181818;stroke-width:1.5;"/><text fill="#000000" font-family="sans-serif" font-size="14" lengthAdjust="spacing" textLength="165" x="864" y="1086.2373">Settlements-Database</text><path d="M931.5,1099.5391 C931.5,1089.5391 949.5,1089.5391 949.5,1089.5391 C949.5,1089.5391 967.5,1089.5391 967.5,1099.5391 L967.5,1125.5391 C967.5,1135.5391 949.5,1135.5391 949.5,1135.5391 C949.5,1135.5391 931.5,1135.5391 931.5,1125.5391 L931.5,1099.5391 " fill="#DAE8FC" style="stroke:#181818;stroke-width:1.5;"/><path d="M931.5,1099.5391 C931.5,1109.5391 949.5,1109.5391 949.5,1109.5391 C949.5,1109.5391 967.5,1109.5391 967.5,1099.5391 " fill="none" style="stroke:#181818;stroke-width:1.5;"/><rect fill="#D5E8D4" height="30.2969" rx="2.5" ry="2.5" style="stroke:#181818;stroke-width:0.5;" width="78" x="1045" y="93.4297"/><text fill="#000000" font-family="sans-serif" font-size="14" lengthAdjust="spacing" textLength="64" x="1052" y="113.4248">A&amp;B SVC</text><rect fill="#D5E8D4" height="30.2969" rx="2.5" ry="2.5" style="stroke:#181818;stroke-width:0.5;" width="78" x="1045" y="1073.2422"/><text fill="#000000" font-family="sans-serif" font-size="14" lengthAdjust="spacing" textLength="64" x="1052" y="1093.2373">A&amp;B SVC</text><text fill="#000000" font-family="sans-serif" font-size="14" lengthAdjust="spacing" textLength="87" x="1295.5" y="121.4248">A&amp;B-Ledger</text><path d="M1324,72.4297 C1324,62.4297 1342,62.4297 1342,62.4297 C1342,62.4297 1360,62.4297 1360,72.4297 L1360,98.4297 C1360,108.4297 1342,108.4297 1342,108.4297 C1342,108.4297 1324,108.4297 1324,98.4297 L1324,72.4297 " fill="#DAE8FC" style="stroke:#181818;stroke-width:1.5;"/><path d="M1324,72.4297 C1324,82.4297 1342,82.4297 1342,82.4297 C1342,82.4297 1360,82.4297 1360,72.4297 " fill="none" style="stroke:#181818;stroke-width:1.5;"/><text fill="#000000" font-family="sans-serif" font-size="14" lengthAdjust="spacing" textLength="87" x="1295.5" y="1086.2373">A&amp;B-Ledger</text><path d="M1324,1099.5391 C1324,1089.5391 1342,1089.5391 1342,1089.5391 C1342,1089.5391 1360,1089.5391 1360,1099.5391 L1360,1125.5391 C1360,1135.5391 1342,1135.5391 1342,1135.5391 C1342,1135.5391 1324,1135.5391 1324,1125.5391 L1324,1099.5391 " fill="#DAE8FC" style="stroke:#181818;stroke-width:1.5;"/><path d="M1324,1099.5391 C1324,1109.5391 1342,1109.5391 1342,1109.5391 C1342,1109.5391 1360,1109.5391 1360,1099.5391 " fill="none" style="stroke:#181818;stroke-width:1.5;"/><path d="M5,139.7266 L5,179.7266 L205,179.7266 L205,149.7266 L195,139.7266 L5,139.7266 " fill="#FEFFDD" style="stroke:#181818;stroke-width:0.5;"/><path d="M195,139.7266 L195,149.7266 L205,149.7266 L195,139.7266 " fill="#FEFFDD" style="stroke:#181818;stroke-width:0.5;"/><text fill="#000000" font-family="sans-serif" font-size="13" font-style="italic" lengthAdjust="spacing" textLength="179" x="11" y="156.7935">TransferCommittedFulfilled</text><text fill="#000000" font-family="sans-serif" font-size="13" lengthAdjust="spacing" textLength="169" x="11" y="171.9263">gRPC client for Settlement</text><path d="M347,189.9922 L347,229.9922 L467,229.9922 L467,199.9922 L457,189.9922 L347,189.9922 " fill="#FEFFDD" style="stroke:#181818;stroke-width:0.5;"/><path d="M457,189.9922 L457,199.9922 L467,199.9922 L457,189.9922 " fill="#FEFFDD" style="stroke:#181818;stroke-width:0.5;"/><text fill="#000000" font-family="sans-serif" font-size="13" lengthAdjust="spacing" textLength="95" x="353" y="207.0591">gRPC interface</text><text fill="#000000" font-family="sans-serif" font-size="13" lengthAdjust="spacing" textLength="93" x="353" y="222.1919">for Settlement</text><path d="M1006,240.2578 L1006,280.2578 L1161,280.2578 L1161,250.2578 L1151,240.2578 L1006,240.2578 " fill="#FEFFDD" style="stroke:#181818;stroke-width:0.5;"/><path d="M1151,240.2578 L1151,250.2578 L1161,250.2578 L1151,240.2578 " fill="#FEFFDD" style="stroke:#181818;stroke-width:0.5;"/><text fill="#000000" font-family="sans-serif" font-size="13" lengthAdjust="spacing" textLength="117" x="1012" y="257.3247">gRPC interface for</text><text fill="#000000" font-family="sans-serif" font-size="13" lengthAdjust="spacing" textLength="134" x="1012" y="272.4575">Accounts &amp; Balances</text><path d="M1277,290.5234 L1277,330.5234 L1406,330.5234 L1406,300.5234 L1396,290.5234 L1277,290.5234 " fill="#FEFFDD" style="stroke:#181818;stroke-width:0.5;"/><path d="M1396,290.5234 L1396,300.5234 L1406,300.5234 L1396,290.5234 " fill="#FEFFDD" style="stroke:#181818;stroke-width:0.5;"/><text fill="#000000" font-family="sans-serif" font-size="13" lengthAdjust="spacing" textLength="72" x="1283" y="307.5903">TigerBeetle</text><text fill="#000000" font-family="sans-serif" font-size="13" lengthAdjust="spacing" textLength="108" x="1283" y="322.7231">enabled/disabled</text><path d="M42,342.7891 L438,342.7891 L438,349.9219 L428,359.9219 L42,359.9219 L42,342.7891 " fill="#EEEEEE" style="stroke:#000000;stroke-width:1.5;"/><rect fill="none" height="189.9297" style="stroke:#000000;stroke-width:1.5;" width="609" x="42" y="342.7891"/><text fill="#000000" font-family="sans-serif" font-size="13" font-weight="bold" lengthAdjust="spacing" textLength="351" x="57" y="355.856">1. Create Settlement Transfer - Transfers BC</text><line style="stroke:#181818;stroke-width:1.0;stroke-dasharray:2.0,2.0;" x1="104.5" x2="146.5" y1="381.0547" y2="381.0547"/><line style="stroke:#181818;stroke-width:1.0;stroke-dasharray:2.0,2.0;" x1="146.5" x2="146.5" y1="381.0547" y2="394.0547"/><line style="stroke:#181818;stroke-width:1.0;stroke-dasharray:2.0,2.0;" x1="105.5" x2="146.5" y1="394.0547" y2="394.0547"/><polygon fill="#181818" points="114.5,377.0547,104.5,381.0547,114.5,385.0547,110.5,381.0547" style="stroke:#181818;stroke-width:1.0;"/><polygon fill="#181818" points="115.5,390.0547,105.5,394.0547,115.5,398.0547,111.5,394.0547" style="stroke:#181818;stroke-width:1.0;"/><text fill="#000000" font-family="sans-serif" font-size="13" font-weight="bold" lengthAdjust="spacing" textLength="9" x="111.5" y="375.9888">1</text><text fill="#000000" font-family="sans-serif" font-size="13" lengthAdjust="spacing" textLength="145" x="124.5" y="375.9888">Transfer fulfil occurred</text><line style="stroke:#181818;stroke-width:1.0;stroke-dasharray:2.0,2.0;" x1="104.5" x2="146.5" y1="438.3203" y2="438.3203"/><line style="stroke:#181818;stroke-width:1.0;stroke-dasharray:2.0,2.0;" x1="146.5" x2="146.5" y1="438.3203" y2="451.3203"/><line style="stroke:#181818;stroke-width:1.0;stroke-dasharray:2.0,2.0;" x1="105.5" x2="146.5" y1="451.3203" y2="451.3203"/><polygon fill="#181818" points="114.5,434.3203,104.5,438.3203,114.5,442.3203,110.5,438.3203" style="stroke:#181818;stroke-width:1.0;"/><polygon fill="#181818" points="115.5,447.3203,105.5,451.3203,115.5,455.3203,111.5,451.3203" style="stroke:#181818;stroke-width:1.0;"/><text fill="#000000" font-family="sans-serif" font-size="13" font-weight="bold" lengthAdjust="spacing" textLength="9" x="111.5" y="425.688">2</text><text fill="#000000" font-family="sans-serif" font-size="13" lengthAdjust="spacing" textLength="161" x="124.5" y="418.1216">Obtain Settlement model</text><text fill="#000000" font-family="sans-serif" font-size="13" lengthAdjust="spacing" textLength="19" x="124.5" y="433.2544">via</text><text fill="#000000" font-family="sans-serif" font-size="13" font-style="italic" lengthAdjust="spacing" textLength="138" x="147.5" y="433.2544">settlement-model-lib</text><polygon fill="#181818" points="395.5,491.5859,405.5,495.5859,395.5,499.5859,399.5,495.5859" style="stroke:#181818;stroke-width:1.0;"/><line style="stroke:#181818;stroke-width:1.0;" x1="104.5" x2="401.5" y1="495.5859" y2="495.5859"/><text fill="#000000" font-family="sans-serif" font-size="13" font-weight="bold" lengthAdjust="spacing" textLength="8" x="111.5" y="482.9536">3</text><text fill="#000000" font-family="sans-serif" font-size="13" lengthAdjust="spacing" textLength="100" x="123.5" y="475.3872">At time of fulfil:</text><text fill="#000000" font-family="sans-serif" font-size="13" font-style="italic" lengthAdjust="spacing" textLength="167" x="223.5" y="475.3872">createSettlementTransfer</text><text fill="#000000" font-family="sans-serif" font-size="13" font-style="italic" font-weight="bold" lengthAdjust="spacing" textLength="174" x="123.5" y="490.52">ISettlementTransferDto</text><polygon fill="#181818" points="564.5,520.7188,574.5,524.7188,564.5,528.7188,568.5,524.7188" style="stroke:#181818;stroke-width:1.0;"/><line style="stroke:#181818;stroke-width:1.0;stroke-dasharray:2.0,2.0;" x1="407.5" x2="570.5" y1="524.7188" y2="524.7188"/><text fill="#000000" font-family="sans-serif" font-size="13" font-weight="bold" lengthAdjust="spacing" textLength="9" x="414.5" y="519.6528">4</text><text fill="#000000" font-family="sans-serif" font-size="13" lengthAdjust="spacing" textLength="107" x="427.5" y="519.6528">Invoke App layer</text><path d="M42,546.7188 L281,546.7188 L281,553.8516 L271,563.8516 L42,563.8516 L42,546.7188 " fill="#EEEEEE" style="stroke:#000000;stroke-width:1.5;"/><rect fill="none" height="510.5234" style="stroke:#000000;stroke-width:1.5;" width="1356.5" x="42" y="546.7188"/><text fill="#000000" font-family="sans-serif" font-size="13" font-weight="bold" lengthAdjust="spacing" textLength="194" x="57" y="559.7856">2. Settlement - App Logic</text><line style="stroke:#181818;stroke-width:1.0;stroke-dasharray:2.0,2.0;" x1="576.5" x2="618.5" y1="584.9844" y2="584.9844"/><line style="stroke:#181818;stroke-width:1.0;stroke-dasharray:2.0,2.0;" x1="618.5" x2="618.5" y1="584.9844" y2="597.9844"/><line style="stroke:#181818;stroke-width:1.0;stroke-dasharray:2.0,2.0;" x1="577.5" x2="618.5" y1="597.9844" y2="597.9844"/><polygon fill="#181818" points="586.5,580.9844,576.5,584.9844,586.5,588.9844,582.5,584.9844" style="stroke:#181818;stroke-width:1.0;"/><polygon fill="#181818" points="587.5,593.9844,577.5,597.9844,587.5,601.9844,583.5,597.9844" style="stroke:#181818;stroke-width:1.0;"/><text fill="#000000" font-family="sans-serif" font-size="13" font-weight="bold" lengthAdjust="spacing" textLength="9" x="583.5" y="579.9185">1</text><text fill="#000000" font-family="sans-serif" font-size="13" lengthAdjust="spacing" textLength="232" x="596.5" y="579.9185">Settlement Transfer event triggered</text><line style="stroke:#181818;stroke-width:1.0;stroke-dasharray:2.0,2.0;" x1="576.5" x2="618.5" y1="627.1172" y2="627.1172"/><line style="stroke:#181818;stroke-width:1.0;stroke-dasharray:2.0,2.0;" x1="618.5" x2="618.5" y1="627.1172" y2="640.1172"/><line style="stroke:#181818;stroke-width:1.0;stroke-dasharray:2.0,2.0;" x1="577.5" x2="618.5" y1="640.1172" y2="640.1172"/><polygon fill="#181818" points="587.5,636.1172,577.5,640.1172,587.5,644.1172,583.5,640.1172" style="stroke:#181818;stroke-width:1.0;"/><text fill="#000000" font-family="sans-serif" font-size="13" font-weight="bold" lengthAdjust="spacing" textLength="9" x="583.5" y="622.0513">2</text><text fill="#000000" font-family="sans-serif" font-size="13" lengthAdjust="spacing" textLength="217" x="596.5" y="622.0513">Validate settlement Transfer data</text><polygon fill="#181818" points="587.5,680.3828,577.5,684.3828,587.5,688.3828,583.5,684.3828" style="stroke:#181818;stroke-width:1.0;"/><polygon fill="#181818" points="937.5,680.3828,947.5,684.3828,937.5,688.3828,941.5,684.3828" style="stroke:#181818;stroke-width:1.0;"/><line style="stroke:#181818;stroke-width:1.0;stroke-dasharray:2.0,2.0;" x1="581.5" x2="943.5" y1="684.3828" y2="684.3828"/><text fill="#000000" font-family="sans-serif" font-size="13" font-weight="bold" lengthAdjust="spacing" textLength="8" x="593.5" y="671.7505">3</text><text fill="#000000" font-family="sans-serif" font-size="13" lengthAdjust="spacing" textLength="208" x="605.5" y="664.1841">Fetch &amp; cache settlement config</text><text fill="#000000" font-family="sans-serif" font-size="13" font-weight="bold" lengthAdjust="spacing" textLength="148" x="605.5" y="679.3169">Platform Config BC</text><polygon fill="#181818" points="587.5,724.6484,577.5,728.6484,587.5,732.6484,583.5,728.6484" style="stroke:#181818;stroke-width:1.0;"/><polygon fill="#181818" points="937.5,724.6484,947.5,728.6484,937.5,732.6484,941.5,728.6484" style="stroke:#181818;stroke-width:1.0;"/><line style="stroke:#181818;stroke-width:1.0;stroke-dasharray:2.0,2.0;" x1="581.5" x2="943.5" y1="728.6484" y2="728.6484"/><text fill="#000000" font-family="sans-serif" font-size="13" font-weight="bold" lengthAdjust="spacing" textLength="9" x="593.5" y="716.0161">4</text><text fill="#000000" font-family="sans-serif" font-size="13" font-weight="bold" lengthAdjust="spacing" textLength="128" x="606.5" y="708.4497">Determine batch</text><text fill="#000000" font-family="sans-serif" font-size="13" lengthAdjust="spacing" textLength="204" x="738.5" y="708.4497">using Settlement Transfer data.</text><text fill="#000000" font-family="sans-serif" font-size="13" font-style="italic" lengthAdjust="spacing" textLength="291" x="606.5" y="723.5825">Create new batch if no OPEN batch available</text><polygon fill="#181818" points="587.5,753.7813,577.5,757.7813,587.5,761.7813,583.5,757.7813" style="stroke:#181818;stroke-width:1.0;"/><polygon fill="#181818" points="1072,753.7813,1082,757.7813,1072,761.7813,1076,757.7813" style="stroke:#181818;stroke-width:1.0;"/><line style="stroke:#181818;stroke-width:1.0;" x1="581.5" x2="1078" y1="757.7813" y2="757.7813"/><text fill="#000000" font-family="sans-serif" font-size="13" font-weight="bold" lengthAdjust="spacing" textLength="9" x="593.5" y="752.7153">5</text><text fill="#000000" font-family="sans-serif" font-size="13" lengthAdjust="spacing" textLength="42" x="606.5" y="752.7153">Obtain</text><text fill="#000000" font-family="sans-serif" font-size="13" font-weight="bold" lengthAdjust="spacing" textLength="161" x="652.5" y="752.7153">Settlement accounts</text><text fill="#000000" font-family="sans-serif" font-size="13" lengthAdjust="spacing" textLength="161" x="817.5" y="752.7153">using Participant account</text><polygon fill="#181818" points="1095,782.9141,1085,786.9141,1095,790.9141,1091,786.9141" style="stroke:#181818;stroke-width:1.0;"/><polygon fill="#181818" points="1330,782.9141,1340,786.9141,1330,790.9141,1334,786.9141" style="stroke:#181818;stroke-width:1.0;"/><line style="stroke:#181818;stroke-width:1.0;stroke-dasharray:2.0,2.0;" x1="1089" x2="1336" y1="786.9141" y2="786.9141"/><text fill="#000000" font-family="sans-serif" font-size="13" font-weight="bold" lengthAdjust="spacing" textLength="9" x="1101" y="781.8481">6</text><text fill="#000000" font-family="sans-serif" font-size="13" lengthAdjust="spacing" textLength="192" x="1114" y="781.8481">Create account, if none exists</text><polygon fill="#181818" points="587.5,812.0469,577.5,816.0469,587.5,820.0469,583.5,816.0469" style="stroke:#181818;stroke-width:1.0;"/><line style="stroke:#181818;stroke-width:1.0;" x1="581.5" x2="1083" y1="816.0469" y2="816.0469"/><text fill="#000000" font-family="sans-serif" font-size="13" font-weight="bold" lengthAdjust="spacing" textLength="9" x="593.5" y="810.981">7</text><text fill="#000000" font-family="sans-serif" font-size="13" lengthAdjust="spacing" textLength="43" x="606.5" y="810.981">Return</text><text fill="#000000" font-family="sans-serif" font-size="13" font-weight="bold" lengthAdjust="spacing" textLength="62" x="653.5" y="810.981">Account</text><text fill="#000000" font-family="sans-serif" font-size="13" lengthAdjust="spacing" textLength="80" x="719.5" y="810.981">creation info</text><polygon fill="#181818" points="1072,841.1797,1082,845.1797,1072,849.1797,1076,845.1797" style="stroke:#181818;stroke-width:1.0;"/><line style="stroke:#181818;stroke-width:1.0;" x1="576.5" x2="1078" y1="845.1797" y2="845.1797"/><text fill="#000000" font-family="sans-serif" font-size="13" font-weight="bold" lengthAdjust="spacing" textLength="9" x="583.5" y="840.1138">8</text><text fill="#000000" font-family="sans-serif" font-size="13" lengthAdjust="spacing" textLength="176" x="596.5" y="840.1138">Create Settlement Transfer</text><polygon fill="#181818" points="1095,885.4453,1085,889.4453,1095,893.4453,1091,889.4453" style="stroke:#181818;stroke-width:1.0;"/><polygon fill="#181818" points="1330,885.4453,1340,889.4453,1330,893.4453,1334,889.4453" style="stroke:#181818;stroke-width:1.0;"/><line style="stroke:#181818;stroke-width:1.0;" x1="1089" x2="1336" y1="889.4453" y2="889.4453"/><text fill="#000000" font-family="sans-serif" font-size="13" font-weight="bold" lengthAdjust="spacing" textLength="9" x="1101" y="876.813">9</text><text fill="#000000" font-family="sans-serif" font-size="13" lengthAdjust="spacing" textLength="217" x="1114" y="869.2466">Create Transfer: update accounts</text><text fill="#000000" font-family="sans-serif" font-size="13" lengthAdjust="spacing" textLength="157" x="1114" y="884.3794">to DR payer &amp; CR payee</text><polygon fill="#181818" points="587.5,914.5781,577.5,918.5781,587.5,922.5781,583.5,918.5781" style="stroke:#181818;stroke-width:1.0;"/><line style="stroke:#181818;stroke-width:1.0;" x1="581.5" x2="1083" y1="918.5781" y2="918.5781"/><text fill="#000000" font-family="sans-serif" font-size="13" font-weight="bold" lengthAdjust="spacing" textLength="19" x="593.5" y="913.5122">10</text><text fill="#000000" font-family="sans-serif" font-size="13" lengthAdjust="spacing" textLength="43" x="616.5" y="913.5122">Return</text><text fill="#000000" font-family="sans-serif" font-size="13" font-weight="bold" lengthAdjust="spacing" textLength="67" x="663.5" y="913.5122">Transfer</text><text fill="#000000" font-family="sans-serif" font-size="13" lengthAdjust="spacing" textLength="80" x="734.5" y="913.5122">creation info</text><line style="stroke:#181818;stroke-width:1.0;stroke-dasharray:2.0,2.0;" x1="576.5" x2="618.5" y1="947.7109" y2="947.7109"/><line style="stroke:#181818;stroke-width:1.0;stroke-dasharray:2.0,2.0;" x1="618.5" x2="618.5" y1="947.7109" y2="960.7109"/><line style="stroke:#181818;stroke-width:1.0;stroke-dasharray:2.0,2.0;" x1="577.5" x2="618.5" y1="960.7109" y2="960.7109"/><polygon fill="#181818" points="586.5,943.7109,576.5,947.7109,586.5,951.7109,582.5,947.7109" style="stroke:#181818;stroke-width:1.0;"/><polygon fill="#181818" points="587.5,956.7109,577.5,960.7109,587.5,964.7109,583.5,960.7109" style="stroke:#181818;stroke-width:1.0;"/><text fill="#000000" font-family="sans-serif" font-size="13" font-weight="bold" lengthAdjust="spacing" textLength="18" x="583.5" y="942.645">11</text><text fill="#000000" font-family="sans-serif" font-size="13" lengthAdjust="spacing" textLength="146" x="605.5" y="942.645">Prepare response data</text><polygon fill="#181818" points="418.5,1000.9766,408.5,1004.9766,418.5,1008.9766,414.5,1004.9766" style="stroke:#181818;stroke-width:1.0;"/><line style="stroke:#181818;stroke-width:1.0;stroke-dasharray:2.0,2.0;" x1="412.5" x2="575.5" y1="1004.9766" y2="1004.9766"/><text fill="#000000" font-family="sans-serif" font-size="13" font-weight="bold" lengthAdjust="spacing" textLength="18" x="424.5" y="992.3442">12</text><text fill="#000000" font-family="sans-serif" font-size="13" lengthAdjust="spacing" textLength="43" x="446.5" y="984.7778">Return</text><text fill="#000000" font-family="sans-serif" font-size="13" font-weight="bold" lengthAdjust="spacing" textLength="72" x="493.5" y="984.7778">Transfer/</text><text fill="#000000" font-family="sans-serif" font-size="13" lengthAdjust="spacing" textLength="4" x="565.5" y="984.7778"> </text><text fill="#000000" font-family="sans-serif" font-size="13" font-weight="bold" lengthAdjust="spacing" textLength="62" x="446.5" y="999.9106">Account</text><text fill="#000000" font-family="sans-serif" font-size="13" lengthAdjust="spacing" textLength="29" x="512.5" y="999.9106">data</text><polygon fill="#181818" points="115.5,1045.2422,105.5,1049.2422,115.5,1053.2422,111.5,1049.2422" style="stroke:#181818;stroke-width:1.0;"/><line style="stroke:#181818;stroke-width:1.0;" x1="109.5" x2="406.5" y1="1049.2422" y2="1049.2422"/><text fill="#000000" font-family="sans-serif" font-size="13" font-weight="bold" lengthAdjust="spacing" textLength="17" x="121.5" y="1036.6099">13</text><text fill="#000000" font-family="sans-serif" font-size="13" lengthAdjust="spacing" textLength="43" x="142.5" y="1029.0435">Return</text><text fill="#000000" font-family="sans-serif" font-size="13" font-weight="bold" lengthAdjust="spacing" textLength="72" x="189.5" y="1029.0435">Transfer/</text><text fill="#000000" font-family="sans-serif" font-size="13" lengthAdjust="spacing" textLength="4" x="261.5" y="1029.0435"> </text><text fill="#000000" font-family="sans-serif" font-size="13" font-weight="bold" lengthAdjust="spacing" textLength="62" x="142.5" y="1044.1763">Account</text><text fill="#000000" font-family="sans-serif" font-size="13" lengthAdjust="spacing" textLength="29" x="208.5" y="1044.1763">data</text><!--SRC=[bLLHQwGm47wkls9eeGzoLkveePLIsDKL2kLkQKkV5fOOHnjE4ubnh_VlBt4rwgvRUlkoEac- -URBVADYga1uGQN_IkGACYbAKEy8hvBmEaDPmp9qd8f8nIYhYDvoFbuw1r83VgYjweFRX3fSA0InGtcy1Fhd-pr4ACgIAOLft1GPAmfCVR_TaZ-lGw05Qpa9EQBe84_1972SH7oC5WmTk8ZluZY-SyucZCURNjxsfEk4RdDPKRY8RbQtqNMRTY3UBxTXouXnXJ8Z5C763zYPa6LuciKotF15LS6Jo1crV4XLRGiJWOjL5DvSHyvPIXH9I8sJurxKHUt9DD5rB5QtSTZgevNPoxEWL3GcuIKiIK4unKwck9N9i9rmN5mkhK8acPDe8AJtUa-OvYY7xOhfrmJHj5LFQ2giHJsbh17Khitmdqey0pxYO75UJMovvsM3o4bYMYvbTVimHROwvb8q5No_Wb0YKHExz7qCtjGmf562DsM2Sezvu0Auzxo7usWmu6Mj7q1GsaZPC_igogz44SR7F4kHOh7XEqQq-MeRzzguLx2aizqHc4vWZHB0Ge5YfTOwwmW6lazRKOPSVGc-l-6kw_kFnqkH4hxlkcr6Y-vrgGOF1F38T-8tWZ5AGVvgCVMTzFVnusfSe0VMJOVYJq7lZ_84inUAE_Eg9CjrutGNC4MQ8_n62fQQ7gbd88rpFcEaFHn0Z8g-wswdXBvFOAZW6SkDfkk2A6sI4i8sfFjjfEKfNDUDK3kiP1mX8Jg7wq9JCvxFLc-eNcsuxtSjp_7F_XImJBi3VgrNFxi0sH5M6FjqBNH8uc4qHsnhkkueA-ayRXcjHnEfMsoX1w2sjgE14_GExGvzsxFL5UC7grLz039pVy-e6cdeTND7Kshxcmck9rGcvjfWL63moOWugk2u07kyFnD0KwMZWchOS2KWUjP3Mzj1jqcuVyJ_AAq7_q9jSsPPIzHV30I9TIMu_WwSQ6jlD3fcicl_WsdcGUW9Jb_5uK3wEf8U5Vy0]--></g></svg>