<?xml version="1.0" encoding="UTF-8" standalone="no"?><svg xmlns="http://www.w3.org/2000/svg" xmlns:xlink="http://www.w3.org/1999/xlink" contentStyleType="text/css" height="1002px" preserveAspectRatio="none" style="width:1609px;height:1002px;background:#FFFFFF;" version="1.1" viewBox="0 0 1609 1002" width="1609px" zoomAndPan="magnify"><defs/><g><text fill="#000000" font-family="sans-serif" font-size="14" font-weight="bold" lengthAdjust="spacing" textLength="302" x="649.5" y="27.9951">Settlement Matrix for Central-Ledger</text><rect fill="#F9FFF9" height="946.5781" style="stroke:#181818;stroke-width:0.5;" width="888" x="307.5" y="43.2969"/><text fill="#000000" font-family="sans-serif" font-size="13" font-weight="bold" lengthAdjust="spacing" textLength="120" x="689" y="55.3638">Settlements BC</text><rect fill="#FFFFF9" height="946.5781" style="stroke:#181818;stroke-width:0.5;" width="331.5" x="1197.5" y="43.2969"/><text fill="#000000" font-family="sans-serif" font-size="13" font-weight="bold" lengthAdjust="spacing" textLength="198" x="1261.75" y="55.3638">Accounts and Balances BC</text><rect fill="none" height="75.3984" style="stroke:#000000;stroke-width:1.5;" width="721.5" x="10" y="277.3906"/><rect fill="none" height="540.7891" style="stroke:#000000;stroke-width:1.5;" width="1525" x="10" y="366.7891"/><line style="stroke:#181818;stroke-width:0.5;stroke-dasharray:5.0,5.0;" x1="81" x2="81" y1="124.7266" y2="924.5781"/><line style="stroke:#181818;stroke-width:0.5;stroke-dasharray:5.0,5.0;" x1="348.5" x2="348.5" y1="124.7266" y2="924.5781"/><line style="stroke:#181818;stroke-width:0.5;stroke-dasharray:5.0,5.0;" x1="452.5" x2="452.5" y1="124.7266" y2="924.5781"/><line style="stroke:#181818;stroke-width:0.5;stroke-dasharray:5.0,5.0;" x1="656.5" x2="656.5" y1="124.7266" y2="924.5781"/><line style="stroke:#181818;stroke-width:0.5;stroke-dasharray:5.0,5.0;" x1="1105.5" x2="1105.5" y1="124.7266" y2="924.5781"/><line style="stroke:#181818;stroke-width:0.5;stroke-dasharray:5.0,5.0;" x1="1240.5" x2="1240.5" y1="124.7266" y2="924.5781"/><line style="stroke:#181818;stroke-width:0.5;stroke-dasharray:5.0,5.0;" x1="1478" x2="1478" y1="124.7266" y2="924.5781"/><rect fill="#E2E2F0" height="30.2969" rx="2.5" ry="2.5" style="stroke:#181818;stroke-width:0.5;" width="123" x="20" y="93.4297"/><text fill="#000000" font-family="sans-serif" font-size="14" lengthAdjust="spacing" textLength="109" x="27" y="113.4248">Central-Ledger</text><rect fill="#E2E2F0" height="30.2969" rx="2.5" ry="2.5" style="stroke:#181818;stroke-width:0.5;" width="123" x="20" y="923.5781"/><text fill="#000000" font-family="sans-serif" font-size="14" lengthAdjust="spacing" textLength="109" x="27" y="943.5732">Central-Ledger</text><rect fill="#D5E8D4" height="30.2969" rx="2.5" ry="2.5" style="stroke:#181818;stroke-width:0.5;" width="74" x="311.5" y="93.4297"/><text fill="#000000" font-family="sans-serif" font-size="14" lengthAdjust="spacing" textLength="60" x="318.5" y="113.4248">Rest API</text><rect fill="#D5E8D4" height="30.2969" rx="2.5" ry="2.5" style="stroke:#181818;stroke-width:0.5;" width="74" x="311.5" y="923.5781"/><text fill="#000000" font-family="sans-serif" font-size="14" lengthAdjust="spacing" textLength="60" x="318.5" y="943.5732">Rest API</text><rect fill="#D5E8D4" height="30.2969" rx="2.5" ry="2.5" style="stroke:#181818;stroke-width:0.5;" width="115" x="395.5" y="93.4297"/><text fill="#000000" font-family="sans-serif" font-size="14" lengthAdjust="spacing" textLength="101" x="402.5" y="113.4248">Event Handler</text><rect fill="#D5E8D4" height="30.2969" rx="2.5" ry="2.5" style="stroke:#181818;stroke-width:0.5;" width="115" x="395.5" y="923.5781"/><text fill="#000000" font-family="sans-serif" font-size="14" lengthAdjust="spacing" textLength="101" x="402.5" y="943.5732">Event Handler</text><rect fill="#EDC54D" height="46.5938" rx="2.5" ry="2.5" style="stroke:#181818;stroke-width:0.5;" width="129" x="592.5" y="77.1328"/><text fill="#000000" font-family="sans-serif" font-size="14" lengthAdjust="spacing" textLength="115" x="599.5" y="97.1279">Settlements BC</text><text fill="#000000" font-family="sans-serif" font-size="14" lengthAdjust="spacing" textLength="72" x="621" y="113.4248">App Logic</text><rect fill="#EDC54D" height="46.5938" rx="2.5" ry="2.5" style="stroke:#181818;stroke-width:0.5;" width="129" x="592.5" y="923.5781"/><text fill="#000000" font-family="sans-serif" font-size="14" lengthAdjust="spacing" textLength="115" x="599.5" y="943.5732">Settlements BC</text><text fill="#000000" font-family="sans-serif" font-size="14" lengthAdjust="spacing" textLength="72" x="621" y="959.8701">App Logic</text><text fill="#000000" font-family="sans-serif" font-size="14" lengthAdjust="spacing" textLength="165" x="1020.5" y="121.4248">Settlements-Database</text><path d="M1088,72.4297 C1088,62.4297 1106,62.4297 1106,62.4297 C1106,62.4297 1124,62.4297 1124,72.4297 L1124,98.4297 C1124,108.4297 1106,108.4297 1106,108.4297 C1106,108.4297 1088,108.4297 1088,98.4297 L1088,72.4297 " fill="#DAE8FC" style="stroke:#181818;stroke-width:1.5;"/><path d="M1088,72.4297 C1088,82.4297 1106,82.4297 1106,82.4297 C1106,82.4297 1124,82.4297 1124,72.4297 " fill="none" style="stroke:#181818;stroke-width:1.5;"/><text fill="#000000" font-family="sans-serif" font-size="14" lengthAdjust="spacing" textLength="165" x="1020.5" y="936.5732">Settlements-Database</text><path d="M1088,949.875 C1088,939.875 1106,939.875 1106,939.875 C1106,939.875 1124,939.875 1124,949.875 L1124,975.875 C1124,985.875 1106,985.875 1106,985.875 C1106,985.875 1088,985.875 1088,975.875 L1088,949.875 " fill="#DAE8FC" style="stroke:#181818;stroke-width:1.5;"/><path d="M1088,949.875 C1088,959.875 1106,959.875 1106,959.875 C1106,959.875 1124,959.875 1124,949.875 " fill="none" style="stroke:#181818;stroke-width:1.5;"/><rect fill="#D5E8D4" height="30.2969" rx="2.5" ry="2.5" style="stroke:#181818;stroke-width:0.5;" width="78" x="1201.5" y="93.4297"/><text fill="#000000" font-family="sans-serif" font-size="14" lengthAdjust="spacing" textLength="64" x="1208.5" y="113.4248">A&amp;B SVC</text><rect fill="#D5E8D4" height="30.2969" rx="2.5" ry="2.5" style="stroke:#181818;stroke-width:0.5;" width="78" x="1201.5" y="923.5781"/><text fill="#000000" font-family="sans-serif" font-size="14" lengthAdjust="spacing" textLength="64" x="1208.5" y="943.5732">A&amp;B SVC</text><text fill="#000000" font-family="sans-serif" font-size="14" lengthAdjust="spacing" textLength="87" x="1432" y="121.4248">A&amp;B-Ledger</text><path d="M1460.5,72.4297 C1460.5,62.4297 1478.5,62.4297 1478.5,62.4297 C1478.5,62.4297 1496.5,62.4297 1496.5,72.4297 L1496.5,98.4297 C1496.5,108.4297 1478.5,108.4297 1478.5,108.4297 C1478.5,108.4297 1460.5,108.4297 1460.5,98.4297 L1460.5,72.4297 " fill="#DAE8FC" style="stroke:#181818;stroke-width:1.5;"/><path d="M1460.5,72.4297 C1460.5,82.4297 1478.5,82.4297 1478.5,82.4297 C1478.5,82.4297 1496.5,82.4297 1496.5,72.4297 " fill="none" style="stroke:#181818;stroke-width:1.5;"/><text fill="#000000" font-family="sans-serif" font-size="14" lengthAdjust="spacing" textLength="87" x="1432" y="936.5732">A&amp;B-Ledger</text><path d="M1460.5,949.875 C1460.5,939.875 1478.5,939.875 1478.5,939.875 C1478.5,939.875 1496.5,939.875 1496.5,949.875 L1496.5,975.875 C1496.5,985.875 1478.5,985.875 1478.5,985.875 C1478.5,985.875 1460.5,985.875 1460.5,975.875 L1460.5,949.875 " fill="#DAE8FC" style="stroke:#181818;stroke-width:1.5;"/><path d="M1460.5,949.875 C1460.5,959.875 1478.5,959.875 1478.5,959.875 C1478.5,959.875 1496.5,959.875 1496.5,949.875 " fill="none" style="stroke:#181818;stroke-width:1.5;"/><path d="M319,139.7266 L319,179.7266 L586,179.7266 L586,149.7266 L576,139.7266 L319,139.7266 " fill="#FEFFDD" style="stroke:#181818;stroke-width:0.5;"/><path d="M576,139.7266 L576,149.7266 L586,149.7266 L576,139.7266 " fill="#FEFFDD" style="stroke:#181818;stroke-width:0.5;"/><text fill="#000000" font-family="sans-serif" font-size="13" lengthAdjust="spacing" textLength="81" x="325" y="156.7935">Kafka Topics</text><text fill="#000000" font-family="sans-serif" font-size="13" lengthAdjust="spacing" textLength="246" x="325" y="171.9263">- Topic for Settlement Matrix Accounts</text><path d="M1142,189.9922 L1142,229.9922 L1339,229.9922 L1339,199.9922 L1329,189.9922 L1142,189.9922 " fill="#FEFFDD" style="stroke:#181818;stroke-width:0.5;"/><path d="M1329,189.9922 L1329,199.9922 L1339,199.9922 L1329,189.9922 " fill="#FEFFDD" style="stroke:#181818;stroke-width:0.5;"/><text fill="#000000" font-family="sans-serif" font-size="13" lengthAdjust="spacing" textLength="176" x="1148" y="207.0591">Exposed gRPC interface for</text><text fill="#000000" font-family="sans-serif" font-size="13" lengthAdjust="spacing" textLength="138" x="1148" y="222.1919">Accounts &amp; Balances.</text><path d="M1359,240.2578 L1359,265.2578 L1597,265.2578 L1597,250.2578 L1587,240.2578 L1359,240.2578 " fill="#FEFFDD" style="stroke:#181818;stroke-width:0.5;"/><path d="M1587,240.2578 L1587,250.2578 L1597,250.2578 L1587,240.2578 " fill="#FEFFDD" style="stroke:#181818;stroke-width:0.5;"/><text fill="#000000" font-family="sans-serif" font-size="13" lengthAdjust="spacing" textLength="217" x="1365" y="257.3247">TigerBeetle may be turned off/on.</text><path d="M10,277.3906 L495,277.3906 L495,284.5234 L485,294.5234 L10,294.5234 L10,277.3906 " fill="#EEEEEE" style="stroke:#000000;stroke-width:1.5;"/><rect fill="none" height="75.3984" style="stroke:#000000;stroke-width:1.5;" width="721.5" x="10" y="277.3906"/><text fill="#000000" font-family="sans-serif" font-size="13" font-weight="bold" lengthAdjust="spacing" textLength="440" x="25" y="290.4575">1. Trigger Settlement Matrix - Central Ledger / Admin API</text><polygon fill="#181818" points="336.5,311.6563,346.5,315.6563,336.5,319.6563,340.5,315.6563" style="stroke:#181818;stroke-width:1.0;"/><line style="stroke:#181818;stroke-width:1.0;" x1="81.5" x2="342.5" y1="315.6563" y2="315.6563"/><text fill="#000000" font-family="sans-serif" font-size="13" font-weight="bold" lengthAdjust="spacing" textLength="9" x="88.5" y="310.5903">1</text><text fill="#000000" font-family="sans-serif" font-size="13" lengthAdjust="spacing" textLength="53" x="101.5" y="310.5903">Request</text><text fill="#000000" font-family="sans-serif" font-size="13" font-weight="bold" lengthAdjust="spacing" textLength="141" x="158.5" y="310.5903">Settlement Matrix</text><polygon fill="#181818" points="645,340.7891,655,344.7891,645,348.7891,649,344.7891" style="stroke:#181818;stroke-width:1.0;"/><line style="stroke:#181818;stroke-width:1.0;stroke-dasharray:2.0,2.0;" x1="348.5" x2="651" y1="344.7891" y2="344.7891"/><text fill="#000000" font-family="sans-serif" font-size="13" font-weight="bold" lengthAdjust="spacing" textLength="9" x="355.5" y="339.7231">2</text><text fill="#000000" font-family="sans-serif" font-size="13" lengthAdjust="spacing" textLength="132" x="368.5" y="339.7231">Invoke the App layer</text><path d="M10,366.7891 L249,366.7891 L249,373.9219 L239,383.9219 L10,383.9219 L10,366.7891 " fill="#EEEEEE" style="stroke:#000000;stroke-width:1.5;"/><rect fill="none" height="540.7891" style="stroke:#000000;stroke-width:1.5;" width="1525" x="10" y="366.7891"/><text fill="#000000" font-family="sans-serif" font-size="13" font-weight="bold" lengthAdjust="spacing" textLength="194" x="25" y="379.856">2. Settlement - App Logic</text><line style="stroke:#181818;stroke-width:1.0;stroke-dasharray:2.0,2.0;" x1="657" x2="699" y1="465.5859" y2="465.5859"/><line style="stroke:#181818;stroke-width:1.0;stroke-dasharray:2.0,2.0;" x1="699" x2="699" y1="465.5859" y2="478.5859"/><line style="stroke:#181818;stroke-width:1.0;stroke-dasharray:2.0,2.0;" x1="658" x2="699" y1="478.5859" y2="478.5859"/><polygon fill="#181818" points="667,461.5859,657,465.5859,667,469.5859,663,465.5859" style="stroke:#181818;stroke-width:1.0;"/><polygon fill="#181818" points="668,474.5859,658,478.5859,668,482.5859,664,478.5859" style="stroke:#181818;stroke-width:1.0;"/><text fill="#000000" font-family="sans-serif" font-size="13" font-weight="bold" lengthAdjust="spacing" textLength="8" x="664" y="430.2544">3</text><text fill="#000000" font-family="sans-serif" font-size="13" font-weight="bold" lengthAdjust="spacing" textLength="141" x="676" y="399.9888">Settlement Matrix</text><text fill="#000000" font-family="sans-serif" font-size="13" lengthAdjust="spacing" textLength="167" x="821" y="399.9888">generation triggered with:</text><text fill="#000000" font-family="sans-serif" font-size="13" lengthAdjust="spacing" textLength="15" x="676" y="415.1216">-&gt;</text><text fill="#000000" font-family="sans-serif" font-size="13" font-weight="bold" lengthAdjust="spacing" textLength="82" x="695" y="415.1216">From Date</text><text fill="#000000" font-family="sans-serif" font-size="13" lengthAdjust="spacing" textLength="42" x="781" y="415.1216">- From</text><text fill="#000000" font-family="sans-serif" font-size="13" lengthAdjust="spacing" textLength="15" x="676" y="430.2544">-&gt;</text><text fill="#000000" font-family="sans-serif" font-size="13" font-weight="bold" lengthAdjust="spacing" textLength="63" x="695" y="430.2544">To Date</text><text fill="#000000" font-family="sans-serif" font-size="13" lengthAdjust="spacing" textLength="25" x="762" y="430.2544">- To</text><text fill="#000000" font-family="sans-serif" font-size="13" lengthAdjust="spacing" textLength="15" x="676" y="445.3872">-&gt;</text><text fill="#000000" font-family="sans-serif" font-size="13" font-weight="bold" lengthAdjust="spacing" textLength="137" x="695" y="445.3872">Settlement Model</text><text fill="#000000" font-family="sans-serif" font-size="13" lengthAdjust="spacing" textLength="46" x="836" y="445.3872">- Model</text><text fill="#000000" font-family="sans-serif" font-size="13" lengthAdjust="spacing" textLength="15" x="676" y="460.52">-&gt;</text><text fill="#000000" font-family="sans-serif" font-size="13" font-weight="bold" lengthAdjust="spacing" textLength="44" x="695" y="460.52">TODO</text><text fill="#000000" font-family="sans-serif" font-size="13" lengthAdjust="spacing" textLength="72" x="743" y="460.52">- Add more</text><polygon fill="#181818" points="668,503.7188,658,507.7188,668,511.7188,664,507.7188" style="stroke:#181818;stroke-width:1.0;"/><polygon fill="#181818" points="1094,503.7188,1104,507.7188,1094,511.7188,1098,507.7188" style="stroke:#181818;stroke-width:1.0;"/><line style="stroke:#181818;stroke-width:1.0;stroke-dasharray:2.0,2.0;" x1="662" x2="1100" y1="507.7188" y2="507.7188"/><text fill="#000000" font-family="sans-serif" font-size="13" font-weight="bold" lengthAdjust="spacing" textLength="9" x="674" y="502.6528">4</text><text fill="#000000" font-family="sans-serif" font-size="13" lengthAdjust="spacing" textLength="367" x="687" y="502.6528">Fetch all batches that form part of the settlement criteria</text><polygon fill="#181818" points="668,547.9844,658,551.9844,668,555.9844,664,551.9844" style="stroke:#181818;stroke-width:1.0;"/><polygon fill="#181818" points="1094,547.9844,1104,551.9844,1094,555.9844,1098,551.9844" style="stroke:#181818;stroke-width:1.0;"/><line style="stroke:#181818;stroke-width:1.0;stroke-dasharray:2.0,2.0;" x1="662" x2="1100" y1="551.9844" y2="551.9844"/><text fill="#000000" font-family="sans-serif" font-size="13" font-weight="bold" lengthAdjust="spacing" textLength="9" x="674" y="539.3521">5</text><text fill="#000000" font-family="sans-serif" font-size="13" lengthAdjust="spacing" textLength="35" x="687" y="531.7856">Close</text><text fill="#000000" font-family="sans-serif" font-size="13" font-style="italic" lengthAdjust="spacing" textLength="36" x="726" y="531.7856">OPEN</text><text fill="#000000" font-family="sans-serif" font-size="13" lengthAdjust="spacing" textLength="238" x="766" y="531.7856">settlement batches which forms part</text><text fill="#000000" font-family="sans-serif" font-size="13" lengthAdjust="spacing" textLength="259" x="687" y="546.9185">of the settlement matrix request criteria</text><polygon fill="#181818" points="668,577.1172,658,581.1172,668,585.1172,664,581.1172" style="stroke:#181818;stroke-width:1.0;"/><polygon fill="#181818" points="1228.5,577.1172,1238.5,581.1172,1228.5,585.1172,1232.5,581.1172" style="stroke:#181818;stroke-width:1.0;"/><line style="stroke:#181818;stroke-width:1.0;" x1="662" x2="1234.5" y1="581.1172" y2="581.1172"/><text fill="#000000" font-family="sans-serif" font-size="13" font-weight="bold" lengthAdjust="spacing" textLength="9" x="674" y="576.0513">6</text><text fill="#000000" font-family="sans-serif" font-size="13" lengthAdjust="spacing" textLength="122" x="687" y="576.0513">Obtain Debit/Credit</text><text fill="#000000" font-family="sans-serif" font-size="13" font-weight="bold" lengthAdjust="spacing" textLength="162" x="813" y="576.0513">Settlement Accounts</text><text fill="#000000" font-family="sans-serif" font-size="13" lengthAdjust="spacing" textLength="114" x="979" y="576.0513">based on batches</text><polygon fill="#181818" points="1251.5,606.25,1241.5,610.25,1251.5,614.25,1247.5,610.25" style="stroke:#181818;stroke-width:1.0;"/><polygon fill="#181818" points="1466.5,606.25,1476.5,610.25,1466.5,614.25,1470.5,610.25" style="stroke:#181818;stroke-width:1.0;"/><line style="stroke:#181818;stroke-width:1.0;" x1="1245.5" x2="1472.5" y1="610.25" y2="610.25"/><text fill="#000000" font-family="sans-serif" font-size="13" font-weight="bold" lengthAdjust="spacing" textLength="9" x="1257.5" y="605.1841">7</text><text fill="#000000" font-family="sans-serif" font-size="13" lengthAdjust="spacing" textLength="35" x="1270.5" y="605.1841">Fetch</text><text fill="#000000" font-family="sans-serif" font-size="13" font-weight="bold" lengthAdjust="spacing" textLength="162" x="1309.5" y="605.1841">Settlement Accounts</text><polygon fill="#181818" points="668,635.3828,658,639.3828,668,643.3828,664,639.3828" style="stroke:#181818;stroke-width:1.0;"/><polygon fill="#181818" points="1228.5,635.3828,1238.5,639.3828,1228.5,643.3828,1232.5,639.3828" style="stroke:#181818;stroke-width:1.0;"/><line style="stroke:#181818;stroke-width:1.0;" x1="662" x2="1234.5" y1="639.3828" y2="639.3828"/><text fill="#000000" font-family="sans-serif" font-size="13" font-weight="bold" lengthAdjust="spacing" textLength="9" x="674" y="634.3169">8</text><text fill="#000000" font-family="sans-serif" font-size="13" lengthAdjust="spacing" textLength="43" x="687" y="634.3169">Return</text><text fill="#000000" font-family="sans-serif" font-size="13" font-weight="bold" lengthAdjust="spacing" textLength="162" x="734" y="634.3169">Settlement Accounts</text><text fill="#000000" font-family="sans-serif" font-size="13" lengthAdjust="spacing" textLength="114" x="900" y="634.3169">based on batches</text><line style="stroke:#181818;stroke-width:1.0;stroke-dasharray:2.0,2.0;" x1="657" x2="699" y1="668.5156" y2="668.5156"/><line style="stroke:#181818;stroke-width:1.0;stroke-dasharray:2.0,2.0;" x1="699" x2="699" y1="668.5156" y2="681.5156"/><line style="stroke:#181818;stroke-width:1.0;stroke-dasharray:2.0,2.0;" x1="658" x2="699" y1="681.5156" y2="681.5156"/><polygon fill="#181818" points="667,664.5156,657,668.5156,667,672.5156,663,668.5156" style="stroke:#181818;stroke-width:1.0;"/><polygon fill="#181818" points="668,677.5156,658,681.5156,668,685.5156,664,681.5156" style="stroke:#181818;stroke-width:1.0;"/><text fill="#000000" font-family="sans-serif" font-size="13" font-weight="bold" lengthAdjust="spacing" textLength="9" x="664" y="663.4497">9</text><text fill="#000000" font-family="sans-serif" font-size="13" lengthAdjust="spacing" textLength="193" x="677" y="663.4497">Prepare the Settlement Matrix</text><polygon fill="#181818" points="359.5,706.6484,349.5,710.6484,359.5,714.6484,355.5,710.6484" style="stroke:#181818;stroke-width:1.0;"/><line style="stroke:#181818;stroke-width:1.0;" x1="353.5" x2="656" y1="710.6484" y2="710.6484"/><text fill="#000000" font-family="sans-serif" font-size="13" font-weight="bold" lengthAdjust="spacing" textLength="19" x="365.5" y="705.5825">10</text><text fill="#000000" font-family="sans-serif" font-size="13" lengthAdjust="spacing" textLength="161" x="388.5" y="705.5825">Return Settlement Matrix</text><polygon fill="#181818" points="92.5,750.9141,82.5,754.9141,92.5,758.9141,88.5,754.9141" style="stroke:#181818;stroke-width:1.0;"/><line style="stroke:#181818;stroke-width:1.0;" x1="86.5" x2="347.5" y1="754.9141" y2="754.9141"/><text fill="#000000" font-family="sans-serif" font-size="13" font-weight="bold" lengthAdjust="spacing" textLength="18" x="98.5" y="742.2817">11</text><text fill="#000000" font-family="sans-serif" font-size="13" lengthAdjust="spacing" textLength="221" x="120.5" y="734.7153">Return Settlement Matrix for caller</text><text fill="#000000" font-family="sans-serif" font-size="13" font-style="italic" font-weight="bold" lengthAdjust="spacing" textLength="158" x="120.5" y="749.8481">ISettlementMatrixDto</text><rect fill="#EEEEEE" height="3" style="stroke:#EEEEEE;stroke-width:1.0;" width="1602" x="0" y="783.4805"/><line style="stroke:#000000;stroke-width:1.0;" x1="0" x2="1602" y1="783.4805" y2="783.4805"/><line style="stroke:#000000;stroke-width:1.0;" x1="0" x2="1602" y1="786.4805" y2="786.4805"/><rect fill="#EEEEEE" height="23.1328" style="stroke:#000000;stroke-width:2.0;" width="465" x="568.5" y="772.9141"/><text fill="#000000" font-family="sans-serif" font-size="13" font-weight="bold" lengthAdjust="spacing" textLength="446" x="574.5" y="788.981">Publish Settlement Matrix Result for Liquidity Restoration</text><line style="stroke:#181818;stroke-width:1.0;stroke-dasharray:2.0,2.0;" x1="657" x2="699" y1="827.1797" y2="827.1797"/><line style="stroke:#181818;stroke-width:1.0;stroke-dasharray:2.0,2.0;" x1="699" x2="699" y1="827.1797" y2="840.1797"/><line style="stroke:#181818;stroke-width:1.0;stroke-dasharray:2.0,2.0;" x1="658" x2="699" y1="840.1797" y2="840.1797"/><polygon fill="#181818" points="668,836.1797,658,840.1797,668,844.1797,664,840.1797" style="stroke:#181818;stroke-width:1.0;"/><text fill="#000000" font-family="sans-serif" font-size="13" font-weight="bold" lengthAdjust="spacing" textLength="9" x="664" y="822.1138">1</text><text fill="#000000" font-family="sans-serif" font-size="13" lengthAdjust="spacing" textLength="422" x="677" y="822.1138">Create events for each Settlement Batch Account Balance update</text><polygon fill="#181818" points="464,895.5781,454,899.5781,464,903.5781,460,899.5781" style="stroke:#181818;stroke-width:1.0;"/><line style="stroke:#181818;stroke-width:1.0;" x1="458" x2="656" y1="899.5781" y2="899.5781"/><text fill="#000000" font-family="sans-serif" font-size="13" font-weight="bold" lengthAdjust="spacing" textLength="9" x="470" y="879.3794">2</text><text fill="#000000" font-family="sans-serif" font-size="13" lengthAdjust="spacing" textLength="143" x="483" y="864.2466">Publish event for each</text><text fill="#000000" font-family="sans-serif" font-size="13" lengthAdjust="spacing" textLength="167" x="483" y="879.3794">Settlement Batch Account</text><text fill="#000000" font-family="sans-serif" font-size="13" lengthAdjust="spacing" textLength="99" x="483" y="894.5122">Balance update</text><!--SRC=[bLNRQkCm47tFLmmjz27WcbrQQCEcaDW9MxQx2MdOfq2HxKaYQakkBFVozpkIhucTbirBhD7CcPcZCvBcEaPuH4r_2GeDlvbM_1ssKe57QyLYvm6Z7Qh186LAyv2dZDpE3ZVFW6M0x_efZ0U3GBwt43EOUd0-lvtFvxS3eDy1p0ep3PFblGN8Wl196SEvVpsxyQ-wxhDNK-DF9gAuJ6fYq5hRGK9g1FcAgjctTlFxnRRF3DOovM5M6vt2OFlkiZ49GvbJAzOTHMJnkzKTDhqHapI51xdZOLqfIzEds5ZWVEPxrrU-1OcOPW7By031yKjh7Hm5rEDaTZFt1gO6ehdWkgeEY1QOifY944lMv_siJowcyFZNiyWi8EYTIiC30fkIoBTzoDPTSre6Y4OxLKc7jDUeDSEpzrHc6C5kjVI02urgoq8qXDSkTICNTHkNNSgFahHggO7MnZOjwalO1mG8EbU2iiljrfNY2BLcSwTadiAtIrWhlYE87YaurLX0GGguC8aIBeo81opNKkH9W4LFnK20SzSeUmGhVCdDrt3O0HyERLZjx9IHZMf6S2zUvJEriqSmyehP1oMZ1ghYlr-sYtQWrc0DtQ3zw2GOzPS5EnIecEPIW2we8IxVkDwFDe8mXiEvaWcGOf6S7J2hScCj6_DQbiPs2XbXR7VjLnMry1VME8aYIAJ2pwgdkHZ177Mu1nR7433weW7GUwQDl1AhVJfvIrhMf0uL9nLozYMs5vDomNKNozaVrsr3LBdUzfoocsHPaMqZklcIGa6g5C2dwUzQSpc2HQ0PISp7W6lN8-xvaNwgoI7EpDIIpaLLcuLlm6herjnKx9s0x44uLkKApNpzNqrVQP5Wbmg9pKBj7LdsW1nFcYtgT60nP7VLd9wEiCz2IE92jH73eUlUDow5Xw-bwn9LHpV0U0pBF8Xvjky1fRSlZwr4uO6_v9nEzSCOjIn7RJpkwx679v84pHZOTowpWCZ2WvHJGtnr9DNj2dbAzpoU9h9uM4Tr3yMwmj-8KmasuYW3NL3_0000]--></g></svg>