<?xml version="1.0" encoding="us-ascii" standalone="no"?><svg xmlns="http://www.w3.org/2000/svg" xmlns:xlink="http://www.w3.org/1999/xlink" contentStyleType="text/css" height="781px" preserveAspectRatio="none" style="width:1195px;height:781px;background:#FFFFFF;" version="1.1" viewBox="0 0 1195 781" width="1195px" zoomAndPan="magnify"><defs/><g><rect fill="#005B96" height="37.24" id="_title" rx="5" ry="5" style="stroke:#005B96;stroke-width:6.0;" width="266" x="463" y="10"/><text fill="#FFFFFF" font-family="sans-serif" font-size="20" font-style="italic" font-weight="bold" lengthAdjust="spacing" textLength="55" x="468" y="36.38">Static</text><text fill="#FFFFFF" font-family="sans-serif" font-size="20" font-weight="bold" lengthAdjust="spacing" textLength="196" x="528" y="36.38">- Settlement Matrix</text><rect fill="#F9FFF9" height="713.8441" style="stroke:#181818;stroke-width:0.5;" width="575.5" x="239.5" y="54.24"/><text fill="#000000" font-family="sans-serif" font-size="13" font-weight="bold" lengthAdjust="spacing" textLength="101" x="475.25" y="68.137">Settlements BC</text><rect fill="#FFFFF9" height="713.8441" style="stroke:#181818;stroke-width:0.5;" width="296.5" x="827.5" y="54.24"/><text fill="#000000" font-family="sans-serif" font-size="13" font-weight="bold" lengthAdjust="spacing" textLength="171" x="888.75" y="68.137">Accounts and Balances BC</text><rect fill="none" height="100.8241" style="stroke:#000000;stroke-width:1.5;" width="523" x="10" y="251.132"/><rect fill="none" height="317.0602" style="stroke:#000000;stroke-width:1.5;" width="1120" x="10" y="365.956"/><line style="stroke:#181818;stroke-width:0.5;stroke-dasharray:5.0,5.0;" x1="62" x2="62" y1="141.0139" y2="700.0162"/><line style="stroke:#181818;stroke-width:0.5;stroke-dasharray:5.0,5.0;" x1="277.5" x2="277.5" y1="141.0139" y2="700.0162"/><line style="stroke:#181818;stroke-width:0.5;stroke-dasharray:5.0,5.0;" x1="465" x2="465" y1="141.0139" y2="700.0162"/><line style="stroke:#181818;stroke-width:0.5;stroke-dasharray:5.0,5.0;" x1="734" x2="734" y1="141.0139" y2="700.0162"/><line style="stroke:#181818;stroke-width:0.5;stroke-dasharray:5.0,5.0;" x1="866.5" x2="866.5" y1="141.0139" y2="700.0162"/><line style="stroke:#181818;stroke-width:0.5;stroke-dasharray:5.0,5.0;" x1="1077" x2="1077" y1="141.0139" y2="700.0162"/><rect fill="#E2E2F0" height="33.0679" rx="2.5" ry="2.5" style="stroke:#181818;stroke-width:0.5;" width="84" x="20" y="106.946"/><text fill="#000000" font-family="sans-serif" font-size="14" lengthAdjust="spacing" textLength="70" x="27" y="128.9119">Admin API</text><rect fill="#E2E2F0" height="33.0679" rx="2.5" ry="2.5" style="stroke:#181818;stroke-width:0.5;" width="84" x="20" y="699.0162"/><text fill="#000000" font-family="sans-serif" font-size="14" lengthAdjust="spacing" textLength="70" x="27" y="720.9821">Admin API</text><rect fill="#D5E8D4" height="33.0679" rx="2.5" ry="2.5" style="stroke:#181818;stroke-width:0.5;" width="69" x="243.5" y="106.946"/><text fill="#000000" font-family="sans-serif" font-size="14" lengthAdjust="spacing" textLength="55" x="250.5" y="128.9119">Rest API</text><rect fill="#D5E8D4" height="33.0679" rx="2.5" ry="2.5" style="stroke:#181818;stroke-width:0.5;" width="69" x="243.5" y="699.0162"/><text fill="#000000" font-family="sans-serif" font-size="14" lengthAdjust="spacing" textLength="55" x="250.5" y="720.9821">Rest API</text><rect fill="#EDC54D" height="52.1358" rx="2.5" ry="2.5" style="stroke:#181818;stroke-width:0.5;" width="116" x="407" y="87.8781"/><text fill="#000000" font-family="sans-serif" font-size="14" lengthAdjust="spacing" textLength="102" x="414" y="109.844">Settlements BC</text><text fill="#000000" font-family="sans-serif" font-size="14" lengthAdjust="spacing" textLength="66" x="432" y="128.9119">App Logic</text><rect fill="#EDC54D" height="52.1358" rx="2.5" ry="2.5" style="stroke:#181818;stroke-width:0.5;" width="116" x="407" y="699.0162"/><text fill="#000000" font-family="sans-serif" font-size="14" lengthAdjust="spacing" textLength="102" x="414" y="720.9821">Settlements BC</text><text fill="#000000" font-family="sans-serif" font-size="14" lengthAdjust="spacing" textLength="66" x="432" y="740.05">App Logic</text><text fill="#000000" font-family="sans-serif" font-size="14" lengthAdjust="spacing" textLength="148" x="657" y="136.9119">Settlements-Database</text><path d="M716,85.946 C716,75.946 734,75.946 734,75.946 C734,75.946 752,75.946 752,85.946 L752,111.946 C752,121.946 734,121.946 734,121.946 C734,121.946 716,121.946 716,111.946 L716,85.946 " fill="#DAE8FC" style="stroke:#181818;stroke-width:1.5;"/><path d="M716,85.946 C716,95.946 734,95.946 734,95.946 C734,95.946 752,95.946 752,85.946 " fill="none" style="stroke:#181818;stroke-width:1.5;"/><text fill="#000000" font-family="sans-serif" font-size="14" lengthAdjust="spacing" textLength="148" x="657" y="713.9821">Settlements-Database</text><path d="M716,728.0841 C716,718.0841 734,718.0841 734,718.0841 C734,718.0841 752,718.0841 752,728.0841 L752,754.0841 C752,764.0841 734,764.0841 734,764.0841 C734,764.0841 716,764.0841 716,754.0841 L716,728.0841 " fill="#DAE8FC" style="stroke:#181818;stroke-width:1.5;"/><path d="M716,728.0841 C716,738.0841 734,738.0841 734,738.0841 C734,738.0841 752,738.0841 752,728.0841 " fill="none" style="stroke:#181818;stroke-width:1.5;"/><rect fill="#D5E8D4" height="33.0679" rx="2.5" ry="2.5" style="stroke:#181818;stroke-width:0.5;" width="71" x="831.5" y="106.946"/><text fill="#000000" font-family="sans-serif" font-size="14" lengthAdjust="spacing" textLength="57" x="838.5" y="128.9119">A&amp;B SVC</text><rect fill="#D5E8D4" height="33.0679" rx="2.5" ry="2.5" style="stroke:#181818;stroke-width:0.5;" width="71" x="831.5" y="699.0162"/><text fill="#000000" font-family="sans-serif" font-size="14" lengthAdjust="spacing" textLength="57" x="838.5" y="720.9821">A&amp;B SVC</text><text fill="#000000" font-family="sans-serif" font-size="14" lengthAdjust="spacing" textLength="80" x="1034" y="136.9119">A&amp;B-Ledger</text><path d="M1059,85.946 C1059,75.946 1077,75.946 1077,75.946 C1077,75.946 1095,75.946 1095,85.946 L1095,111.946 C1095,121.946 1077,121.946 1077,121.946 C1077,121.946 1059,121.946 1059,111.946 L1059,85.946 " fill="#DAE8FC" style="stroke:#181818;stroke-width:1.5;"/><path d="M1059,85.946 C1059,95.946 1077,95.946 1077,95.946 C1077,95.946 1095,95.946 1095,85.946 " fill="none" style="stroke:#181818;stroke-width:1.5;"/><text fill="#000000" font-family="sans-serif" font-size="14" lengthAdjust="spacing" textLength="80" x="1034" y="713.9821">A&amp;B-Ledger</text><path d="M1059,728.0841 C1059,718.0841 1077,718.0841 1077,718.0841 C1077,718.0841 1095,718.0841 1095,728.0841 L1095,754.0841 C1095,764.0841 1077,764.0841 1077,764.0841 C1077,764.0841 1059,764.0841 1059,754.0841 L1059,728.0841 " fill="#DAE8FC" style="stroke:#181818;stroke-width:1.5;"/><path d="M1059,728.0841 C1059,738.0841 1077,738.0841 1077,738.0841 C1077,738.0841 1095,738.0841 1095,728.0841 " fill="none" style="stroke:#181818;stroke-width:1.5;"/><path d="M776,156.0139 L776,201.0139 L958,201.0139 L958,166.0139 L948,156.0139 L776,156.0139 " fill="#FEFFDD" style="stroke:#181818;stroke-width:0.5;"/><path d="M948,156.0139 L948,166.0139 L958,166.0139 L948,156.0139 " fill="#FEFFDD" style="stroke:#181818;stroke-width:0.5;"/><text fill="#000000" font-family="sans-serif" font-size="13" lengthAdjust="spacing" textLength="161" x="782" y="174.9109">Exposed gRPC interface for</text><text fill="#000000" font-family="sans-serif" font-size="13" lengthAdjust="spacing" textLength="126" x="782" y="192.6169">Accounts &amp; Balances.</text><path d="M966,211.4259 L966,238.4259 L1188,238.4259 L1188,221.4259 L1178,211.4259 L966,211.4259 " fill="#FEFFDD" style="stroke:#181818;stroke-width:0.5;"/><path d="M1178,211.4259 L1178,221.4259 L1188,221.4259 L1178,211.4259 " fill="#FEFFDD" style="stroke:#181818;stroke-width:0.5;"/><text fill="#000000" font-family="sans-serif" font-size="13" lengthAdjust="spacing" textLength="201" x="972" y="230.323">TigerBeetle may be turned off/on.</text><path d="M10,251.132 L320,251.132 L320,260.838 L310,270.838 L10,270.838 L10,251.132 " fill="#EEEEEE" style="stroke:#000000;stroke-width:1.5;"/><rect fill="none" height="100.8241" style="stroke:#000000;stroke-width:1.5;" width="523" x="10" y="251.132"/><text fill="#000000" font-family="sans-serif" font-size="13" font-weight="bold" lengthAdjust="spacing" textLength="265" x="25" y="266.029">1. Trigger Settlement Matrix - Admin API</text><polygon fill="#181818" points="266,308.25,276,312.25,266,316.25,270,312.25" style="stroke:#181818;stroke-width:1.0;"/><line style="stroke:#181818;stroke-width:1.0;" x1="62" x2="272" y1="312.25" y2="312.25"/><text fill="#000000" font-family="sans-serif" font-size="13" font-weight="bold" lengthAdjust="spacing" textLength="7" x="69" y="297.588">1</text><text fill="#000000" font-family="sans-serif" font-size="13" font-weight="bold" lengthAdjust="spacing" textLength="122" x="80" y="288.735">Settlement Matrix</text><text fill="#000000" font-family="sans-serif" font-size="13" lengthAdjust="spacing" textLength="4" x="205" y="288.735">-</text><text fill="#000000" font-family="sans-serif" font-size="13" font-style="italic" lengthAdjust="spacing" textLength="40" x="212" y="288.735">STATIC</text><text fill="#000000" font-family="sans-serif" font-size="13" lengthAdjust="spacing" textLength="74" x="80" y="306.441">(batchId list)</text><polygon fill="#181818" points="453,339.956,463,343.956,453,347.956,457,343.956" style="stroke:#181818;stroke-width:1.0;"/><line style="stroke:#181818;stroke-width:1.0;" x1="278" x2="459" y1="343.956" y2="343.956"/><text fill="#000000" font-family="sans-serif" font-size="13" font-weight="bold" lengthAdjust="spacing" textLength="7" x="285" y="338.147">2</text><text fill="#000000" font-family="sans-serif" font-size="13" lengthAdjust="spacing" textLength="123" x="296" y="338.147">Invoke the App layer</text><path d="M10,365.956 L216,365.956 L216,375.662 L206,385.662 L10,385.662 L10,365.956 " fill="#EEEEEE" style="stroke:#000000;stroke-width:1.5;"/><rect fill="none" height="317.0602" style="stroke:#000000;stroke-width:1.5;" width="1120" x="10" y="365.956"/><text fill="#000000" font-family="sans-serif" font-size="13" font-weight="bold" lengthAdjust="spacing" textLength="161" x="25" y="380.853">2. Settlement - App Logic</text><line style="stroke:#181818;stroke-width:1.0;stroke-dasharray:2.0,2.0;" x1="465" x2="507" y1="427.0741" y2="427.0741"/><line style="stroke:#181818;stroke-width:1.0;stroke-dasharray:2.0,2.0;" x1="507" x2="507" y1="427.0741" y2="440.0741"/><line style="stroke:#181818;stroke-width:1.0;stroke-dasharray:2.0,2.0;" x1="466" x2="507" y1="440.0741" y2="440.0741"/><polygon fill="#181818" points="475,423.0741,465,427.0741,475,431.0741,471,427.0741" style="stroke:#181818;stroke-width:1.0;"/><polygon fill="#181818" points="476,436.0741,466,440.0741,476,444.0741,472,440.0741" style="stroke:#181818;stroke-width:1.0;"/><text fill="#000000" font-family="sans-serif" font-size="13" font-weight="bold" lengthAdjust="spacing" textLength="7" x="472" y="412.4121">1</text><text fill="#000000" font-family="sans-serif" font-size="13" lengthAdjust="spacing" textLength="199" x="483" y="403.5591">Settlement Matrix triggered with:</text><text fill="#000000" font-family="sans-serif" font-size="13" lengthAdjust="spacing" textLength="11" x="483" y="421.2651">-&gt;</text><text fill="#000000" font-family="sans-serif" font-size="13" font-weight="bold" lengthAdjust="spacing" textLength="57" x="497" y="421.2651">Batch ID</text><text fill="#000000" font-family="sans-serif" font-size="13" lengthAdjust="spacing" textLength="153" x="557" y="421.2651">- List of existing batch id's</text><polygon fill="#181818" points="476,467.7801,466,471.7801,476,475.7801,472,471.7801" style="stroke:#181818;stroke-width:1.0;"/><polygon fill="#181818" points="722,467.7801,732,471.7801,722,475.7801,726,471.7801" style="stroke:#181818;stroke-width:1.0;"/><line style="stroke:#181818;stroke-width:1.0;stroke-dasharray:2.0,2.0;" x1="470" x2="728" y1="471.7801" y2="471.7801"/><text fill="#000000" font-family="sans-serif" font-size="13" font-weight="bold" lengthAdjust="spacing" textLength="7" x="482" y="465.9711">2</text><text fill="#000000" font-family="sans-serif" font-size="13" lengthAdjust="spacing" textLength="234" x="493" y="465.9711">Fetch all batches via provided batchId's</text><polygon fill="#181818" points="476,499.4861,466,503.4861,476,507.4861,472,503.4861" style="stroke:#181818;stroke-width:1.0;"/><polygon fill="#181818" points="855,499.4861,865,503.4861,855,507.4861,859,503.4861" style="stroke:#181818;stroke-width:1.0;"/><line style="stroke:#181818;stroke-width:1.0;" x1="470" x2="861" y1="503.4861" y2="503.4861"/><text fill="#000000" font-family="sans-serif" font-size="13" font-weight="bold" lengthAdjust="spacing" textLength="7" x="482" y="497.6771">3</text><text fill="#000000" font-family="sans-serif" font-size="13" lengthAdjust="spacing" textLength="117" x="493" y="497.6771">Obtain Debit/Credit</text><text fill="#000000" font-family="sans-serif" font-size="13" font-weight="bold" lengthAdjust="spacing" textLength="139" x="613" y="497.6771">Settlement Accounts</text><text fill="#000000" font-family="sans-serif" font-size="13" lengthAdjust="spacing" textLength="105" x="755" y="497.6771">based on batches</text><polygon fill="#181818" points="878,531.1921,868,535.1921,878,539.1921,874,535.1921" style="stroke:#181818;stroke-width:1.0;"/><polygon fill="#181818" points="1065,531.1921,1075,535.1921,1065,539.1921,1069,535.1921" style="stroke:#181818;stroke-width:1.0;"/><line style="stroke:#181818;stroke-width:1.0;" x1="872" x2="1071" y1="535.1921" y2="535.1921"/><text fill="#000000" font-family="sans-serif" font-size="13" font-weight="bold" lengthAdjust="spacing" textLength="7" x="884" y="529.3831">4</text><text fill="#000000" font-family="sans-serif" font-size="13" lengthAdjust="spacing" textLength="33" x="895" y="529.3831">Fetch</text><text fill="#000000" font-family="sans-serif" font-size="13" font-weight="bold" lengthAdjust="spacing" textLength="139" x="931" y="529.3831">Settlement Accounts</text><polygon fill="#181818" points="476,562.8981,466,566.8981,476,570.8981,472,566.8981" style="stroke:#181818;stroke-width:1.0;"/><polygon fill="#181818" points="855,562.8981,865,566.8981,855,570.8981,859,566.8981" style="stroke:#181818;stroke-width:1.0;"/><line style="stroke:#181818;stroke-width:1.0;" x1="470" x2="861" y1="566.8981" y2="566.8981"/><text fill="#000000" font-family="sans-serif" font-size="13" font-weight="bold" lengthAdjust="spacing" textLength="7" x="482" y="561.0891">5</text><text fill="#000000" font-family="sans-serif" font-size="13" lengthAdjust="spacing" textLength="41" x="493" y="561.0891">Return</text><text fill="#000000" font-family="sans-serif" font-size="13" font-weight="bold" lengthAdjust="spacing" textLength="139" x="537" y="561.0891">Settlement Accounts</text><text fill="#000000" font-family="sans-serif" font-size="13" lengthAdjust="spacing" textLength="105" x="679" y="561.0891">based on batches</text><line style="stroke:#181818;stroke-width:1.0;stroke-dasharray:2.0,2.0;" x1="465" x2="507" y1="598.6042" y2="598.6042"/><line style="stroke:#181818;stroke-width:1.0;stroke-dasharray:2.0,2.0;" x1="507" x2="507" y1="598.6042" y2="611.6042"/><line style="stroke:#181818;stroke-width:1.0;stroke-dasharray:2.0,2.0;" x1="466" x2="507" y1="611.6042" y2="611.6042"/><polygon fill="#181818" points="475,594.6042,465,598.6042,475,602.6042,471,598.6042" style="stroke:#181818;stroke-width:1.0;"/><polygon fill="#181818" points="476,607.6042,466,611.6042,476,615.6042,472,611.6042" style="stroke:#181818;stroke-width:1.0;"/><text fill="#000000" font-family="sans-serif" font-size="13" font-weight="bold" lengthAdjust="spacing" textLength="7" x="472" y="592.7952">6</text><text fill="#000000" font-family="sans-serif" font-size="13" lengthAdjust="spacing" textLength="181" x="483" y="592.7952">Prepare the Settlement Matrix</text><polygon fill="#181818" points="289,639.3102,279,643.3102,289,647.3102,285,643.3102" style="stroke:#181818;stroke-width:1.0;"/><line style="stroke:#181818;stroke-width:1.0;" x1="283" x2="464" y1="643.3102" y2="643.3102"/><text fill="#000000" font-family="sans-serif" font-size="13" font-weight="bold" lengthAdjust="spacing" textLength="7" x="295" y="637.5012">7</text><text fill="#000000" font-family="sans-serif" font-size="13" lengthAdjust="spacing" textLength="152" x="306" y="637.5012">Return Settlement Matrix</text><polygon fill="#181818" points="73,671.0162,63,675.0162,73,679.0162,69,675.0162" style="stroke:#181818;stroke-width:1.0;"/><line style="stroke:#181818;stroke-width:1.0;" x1="67" x2="277" y1="675.0162" y2="675.0162"/><text fill="#000000" font-family="sans-serif" font-size="13" font-weight="bold" lengthAdjust="spacing" textLength="7" x="79" y="669.2072">8</text><text fill="#000000" font-family="sans-serif" font-size="13" lengthAdjust="spacing" textLength="181" x="90" y="669.2072">Matrix id returned in response</text><!--SRC=[bPHlRzem4CPVDv_Yr4hTXaH3gtPgewaIIK12whGAq5vLGavo18jWHxPXT9z-v_o34BffUGNdkz_TStuIlUOYPufjOCvDXcCfp8p_HhWREBfx5CXCAhWQ5yzHWh49lbG9ggdSYYIGIg22sy7vdFcAnsk1MiFNymbLdy7WmN_gfh1udQgopN5QSGYkEpFCyDXreGypD1JRe33mdHd5zuv383hbEQFOvJ3PS073ryabC0suDmkZcD1BL7eHnOuJoVqHGuCVaFWdqlxaNBH0KzIcuUWeNYWRk0eVHe_X_Kbk6_WcXdaEBpBbSLFCydoHsGXSZSBWuJvqBX9cMCGqjihxOHLjAfE8cWv7Z-F0GP40pL-A6COnBOmQCehwB6CYnahEk903zBHNS-t3x6TGa5b4w5JbSQF8fXz6ejp-2oOfgaEwuVGtGhHtKezaguGq2797xcYeHTm-etqkDIQGJby3uCAWMh8OOIbLaz88kMvat1I7LgvbdsjoD4i3cjkONywtOUyG8PWjkJO1kLowKfnGcsrQv-LmUmDpnLD2T3r6lcjyvR2jaMAxYR2KS6enw3yVxE91hzUXzNh48rFFX_D9uBfludF4JBoQ991nRRuKr8PGqGx-yM0YTd9DsbO8rcWPUwTHI4sjvExcM44V6ZUUZju6V-kVzlBERCAKEwAb_k9cvRq9AkhrV2i09c4XxOLKqCffC_I3YnGAUS2JJ_flRSde7epHfh8iAul8qJlE85TonnFgMIsAG6T9pqU-zk17P1ZTMOWHDsv08tFJlexQUJIrTJtvHDHj2_m1rg2FV5SF-m7o3E7q8gTe_Vb_C_thpWZxgf3U-z8WtSzb5z8sR3NKnuMrBJl6zsgFy0GKLgyUNG0Lv5Beuerp_W00]--></g></svg>