<?xml version="1.0" encoding="UTF-8" standalone="no"?><svg xmlns="http://www.w3.org/2000/svg" xmlns:xlink="http://www.w3.org/1999/xlink" contentStyleType="text/css" height="840px" preserveAspectRatio="none" style="width:1317px;height:840px;background:#FFFFFF;" version="1.1" viewBox="0 0 1317 840" width="1317px" zoomAndPan="magnify"><defs/><g><text fill="#000000" font-family="sans-serif" font-size="14" font-weight="bold" lengthAdjust="spacing" textLength="800" x="257" y="29.9659">Settlement Matrix in Participants BC - Refer to Reference Architecture: [https://miro.com/app/board/o9J_lJyA1TA=/]</text><rect fill="#F9FFF9" height="780.9622" style="stroke:#181818;stroke-width:0.5;" width="678.5" x="269.5" y="46.0679"/><text fill="#000000" font-family="sans-serif" font-size="13" font-weight="bold" lengthAdjust="spacing" textLength="101" x="556.75" y="59.9649">Settlements BC</text><rect fill="#FFFFF9" height="780.9622" style="stroke:#181818;stroke-width:0.5;" width="296.5" x="950" y="46.0679"/><text fill="#000000" font-family="sans-serif" font-size="13" font-weight="bold" lengthAdjust="spacing" textLength="171" x="1011.25" y="59.9649">Accounts and Balances BC</text><rect fill="none" height="83.118" style="stroke:#000000;stroke-width:1.5;" width="553" x="10" y="242.9599"/><rect fill="none" height="401.8842" style="stroke:#000000;stroke-width:1.5;" width="1242.5" x="10" y="340.0779"/><line style="stroke:#181818;stroke-width:0.5;stroke-dasharray:5.0,5.0;" x1="67" x2="67" y1="132.8419" y2="758.9622"/><line style="stroke:#181818;stroke-width:0.5;stroke-dasharray:5.0,5.0;" x1="307.5" x2="307.5" y1="132.8419" y2="758.9622"/><line style="stroke:#181818;stroke-width:0.5;stroke-dasharray:5.0,5.0;" x1="495" x2="495" y1="132.8419" y2="758.9622"/><line style="stroke:#181818;stroke-width:0.5;stroke-dasharray:5.0,5.0;" x1="867" x2="867" y1="132.8419" y2="758.9622"/><line style="stroke:#181818;stroke-width:0.5;stroke-dasharray:5.0,5.0;" x1="989" x2="989" y1="132.8419" y2="758.9622"/><line style="stroke:#181818;stroke-width:0.5;stroke-dasharray:5.0,5.0;" x1="1199.5" x2="1199.5" y1="132.8419" y2="758.9622"/><rect fill="#E2E2F0" height="33.0679" rx="2.5" ry="2.5" style="stroke:#181818;stroke-width:0.5;" width="94" x="20" y="98.7739"/><text fill="#000000" font-family="sans-serif" font-size="14" lengthAdjust="spacing" textLength="80" x="27" y="120.7399">Transfer-BC</text><rect fill="#E2E2F0" height="33.0679" rx="2.5" ry="2.5" style="stroke:#181818;stroke-width:0.5;" width="94" x="20" y="757.9622"/><text fill="#000000" font-family="sans-serif" font-size="14" lengthAdjust="spacing" textLength="80" x="27" y="779.9281">Transfer-BC</text><rect fill="#D5E8D4" height="33.0679" rx="2.5" ry="2.5" style="stroke:#181818;stroke-width:0.5;" width="69" x="273.5" y="98.7739"/><text fill="#000000" font-family="sans-serif" font-size="14" lengthAdjust="spacing" textLength="55" x="280.5" y="120.7399">Rest API</text><rect fill="#D5E8D4" height="33.0679" rx="2.5" ry="2.5" style="stroke:#181818;stroke-width:0.5;" width="69" x="273.5" y="757.9622"/><text fill="#000000" font-family="sans-serif" font-size="14" lengthAdjust="spacing" textLength="55" x="280.5" y="779.9281">Rest API</text><rect fill="#EDC54D" height="52.1358" rx="2.5" ry="2.5" style="stroke:#181818;stroke-width:0.5;" width="116" x="437" y="79.706"/><text fill="#000000" font-family="sans-serif" font-size="14" lengthAdjust="spacing" textLength="102" x="444" y="101.672">Settlements BC</text><text fill="#000000" font-family="sans-serif" font-size="14" lengthAdjust="spacing" textLength="66" x="462" y="120.7399">App Logic</text><rect fill="#EDC54D" height="52.1358" rx="2.5" ry="2.5" style="stroke:#181818;stroke-width:0.5;" width="116" x="437" y="757.9622"/><text fill="#000000" font-family="sans-serif" font-size="14" lengthAdjust="spacing" textLength="102" x="444" y="779.9281">Settlements BC</text><text fill="#000000" font-family="sans-serif" font-size="14" lengthAdjust="spacing" textLength="66" x="462" y="798.996">App Logic</text><text fill="#000000" font-family="sans-serif" font-size="14" lengthAdjust="spacing" textLength="148" x="790" y="128.7399">Settlements-Database</text><path d="M849,77.7739 C849,67.7739 867,67.7739 867,67.7739 C867,67.7739 885,67.7739 885,77.7739 L885,103.7739 C885,113.7739 867,113.7739 867,113.7739 C867,113.7739 849,113.7739 849,103.7739 L849,77.7739 " fill="#DAE8FC" style="stroke:#181818;stroke-width:1.5;"/><path d="M849,77.7739 C849,87.7739 867,87.7739 867,87.7739 C867,87.7739 885,87.7739 885,77.7739 " fill="none" style="stroke:#181818;stroke-width:1.5;"/><text fill="#000000" font-family="sans-serif" font-size="14" lengthAdjust="spacing" textLength="148" x="790" y="772.9281">Settlements-Database</text><path d="M849,787.0301 C849,777.0301 867,777.0301 867,777.0301 C867,777.0301 885,777.0301 885,787.0301 L885,813.0301 C885,823.0301 867,823.0301 867,823.0301 C867,823.0301 849,823.0301 849,813.0301 L849,787.0301 " fill="#DAE8FC" style="stroke:#181818;stroke-width:1.5;"/><path d="M849,787.0301 C849,797.0301 867,797.0301 867,797.0301 C867,797.0301 885,797.0301 885,787.0301 " fill="none" style="stroke:#181818;stroke-width:1.5;"/><rect fill="#D5E8D4" height="33.0679" rx="2.5" ry="2.5" style="stroke:#181818;stroke-width:0.5;" width="71" x="954" y="98.7739"/><text fill="#000000" font-family="sans-serif" font-size="14" lengthAdjust="spacing" textLength="57" x="961" y="120.7399">A&amp;B SVC</text><rect fill="#D5E8D4" height="33.0679" rx="2.5" ry="2.5" style="stroke:#181818;stroke-width:0.5;" width="71" x="954" y="757.9622"/><text fill="#000000" font-family="sans-serif" font-size="14" lengthAdjust="spacing" textLength="57" x="961" y="779.9281">A&amp;B SVC</text><text fill="#000000" font-family="sans-serif" font-size="14" lengthAdjust="spacing" textLength="80" x="1156.5" y="128.7399">A&amp;B-Ledger</text><path d="M1181.5,77.7739 C1181.5,67.7739 1199.5,67.7739 1199.5,67.7739 C1199.5,67.7739 1217.5,67.7739 1217.5,77.7739 L1217.5,103.7739 C1217.5,113.7739 1199.5,113.7739 1199.5,113.7739 C1199.5,113.7739 1181.5,113.7739 1181.5,103.7739 L1181.5,77.7739 " fill="#DAE8FC" style="stroke:#181818;stroke-width:1.5;"/><path d="M1181.5,77.7739 C1181.5,87.7739 1199.5,87.7739 1199.5,87.7739 C1199.5,87.7739 1217.5,87.7739 1217.5,77.7739 " fill="none" style="stroke:#181818;stroke-width:1.5;"/><text fill="#000000" font-family="sans-serif" font-size="14" lengthAdjust="spacing" textLength="80" x="1156.5" y="772.9281">A&amp;B-Ledger</text><path d="M1181.5,787.0301 C1181.5,777.0301 1199.5,777.0301 1199.5,777.0301 C1199.5,777.0301 1217.5,777.0301 1217.5,787.0301 L1217.5,813.0301 C1217.5,823.0301 1199.5,823.0301 1199.5,823.0301 C1199.5,823.0301 1181.5,823.0301 1181.5,813.0301 L1181.5,787.0301 " fill="#DAE8FC" style="stroke:#181818;stroke-width:1.5;"/><path d="M1181.5,787.0301 C1181.5,797.0301 1199.5,797.0301 1199.5,797.0301 C1199.5,797.0301 1217.5,797.0301 1217.5,787.0301 " fill="none" style="stroke:#181818;stroke-width:1.5;"/><path d="M898,147.8419 L898,192.8419 L1080,192.8419 L1080,157.8419 L1070,147.8419 L898,147.8419 " fill="#FEFFDD" style="stroke:#181818;stroke-width:0.5;"/><path d="M1070,147.8419 L1070,157.8419 L1080,157.8419 L1070,147.8419 " fill="#FEFFDD" style="stroke:#181818;stroke-width:0.5;"/><text fill="#000000" font-family="sans-serif" font-size="13" lengthAdjust="spacing" textLength="161" x="904" y="166.7389">Exposed gRPC interface for</text><text fill="#000000" font-family="sans-serif" font-size="13" lengthAdjust="spacing" textLength="126" x="904" y="184.4449">Accounts &amp; Balances.</text><path d="M1088,203.2539 L1088,230.2539 L1310,230.2539 L1310,213.2539 L1300,203.2539 L1088,203.2539 " fill="#FEFFDD" style="stroke:#181818;stroke-width:0.5;"/><path d="M1300,203.2539 L1300,213.2539 L1310,213.2539 L1300,203.2539 " fill="#FEFFDD" style="stroke:#181818;stroke-width:0.5;"/><text fill="#000000" font-family="sans-serif" font-size="13" lengthAdjust="spacing" textLength="201" x="1094" y="222.1509">TigerBeetle may be turned off/on.</text><path d="M10,242.9599 L428,242.9599 L428,252.6659 L418,262.6659 L10,262.6659 L10,242.9599 " fill="#EEEEEE" style="stroke:#000000;stroke-width:1.5;"/><rect fill="none" height="83.118" style="stroke:#000000;stroke-width:1.5;" width="553" x="10" y="242.9599"/><text fill="#000000" font-family="sans-serif" font-size="13" font-weight="bold" lengthAdjust="spacing" textLength="373" x="25" y="257.8569">1. Trigger Settlement Matrix - Central Ledger / Admin API</text><polygon fill="#181818" points="296,282.3719,306,286.3719,296,290.3719,300,286.3719" style="stroke:#181818;stroke-width:1.0;"/><line style="stroke:#181818;stroke-width:1.0;" x1="67" x2="302" y1="286.3719" y2="286.3719"/><text fill="#000000" font-family="sans-serif" font-size="13" font-weight="bold" lengthAdjust="spacing" textLength="7" x="74" y="280.5629">1</text><text fill="#000000" font-family="sans-serif" font-size="13" lengthAdjust="spacing" textLength="159" x="85" y="280.5629">Request settlement matrix</text><polygon fill="#181818" points="483,314.0779,493,318.0779,483,322.0779,487,318.0779" style="stroke:#181818;stroke-width:1.0;"/><line style="stroke:#181818;stroke-width:1.0;" x1="308" x2="489" y1="318.0779" y2="318.0779"/><text fill="#000000" font-family="sans-serif" font-size="13" font-weight="bold" lengthAdjust="spacing" textLength="7" x="315" y="312.2689">2</text><text fill="#000000" font-family="sans-serif" font-size="13" lengthAdjust="spacing" textLength="123" x="326" y="312.2689">Invoke the App layer</text><path d="M10,340.0779 L216,340.0779 L216,349.784 L206,359.784 L10,359.784 L10,340.0779 " fill="#EEEEEE" style="stroke:#000000;stroke-width:1.5;"/><rect fill="none" height="401.8842" style="stroke:#000000;stroke-width:1.5;" width="1242.5" x="10" y="340.0779"/><text fill="#000000" font-family="sans-serif" font-size="13" font-weight="bold" lengthAdjust="spacing" textLength="161" x="25" y="354.975">2. Settlement - App Logic</text><line style="stroke:#181818;stroke-width:1.0;stroke-dasharray:2.0,2.0;" x1="495" x2="537" y1="436.608" y2="436.608"/><line style="stroke:#181818;stroke-width:1.0;stroke-dasharray:2.0,2.0;" x1="537" x2="537" y1="436.608" y2="449.608"/><line style="stroke:#181818;stroke-width:1.0;stroke-dasharray:2.0,2.0;" x1="496" x2="537" y1="449.608" y2="449.608"/><polygon fill="#181818" points="505,432.608,495,436.608,505,440.608,501,436.608" style="stroke:#181818;stroke-width:1.0;"/><polygon fill="#181818" points="506,445.608,496,449.608,506,453.608,502,449.608" style="stroke:#181818;stroke-width:1.0;"/><text fill="#000000" font-family="sans-serif" font-size="13" font-weight="bold" lengthAdjust="spacing" textLength="7" x="502" y="404.24">1</text><text fill="#000000" font-family="sans-serif" font-size="13" lengthAdjust="spacing" textLength="199" x="513" y="377.681">Settlement Matrix triggered with:</text><text fill="#000000" font-family="sans-serif" font-size="13" lengthAdjust="spacing" textLength="11" x="513" y="395.387">-&gt;</text><text fill="#000000" font-family="sans-serif" font-size="13" font-weight="bold" lengthAdjust="spacing" textLength="69" x="527" y="395.387">From Date</text><text fill="#000000" font-family="sans-serif" font-size="13" lengthAdjust="spacing" textLength="39" x="599" y="395.387">- From</text><text fill="#000000" font-family="sans-serif" font-size="13" lengthAdjust="spacing" textLength="11" x="513" y="413.093">-&gt;</text><text fill="#000000" font-family="sans-serif" font-size="13" font-weight="bold" lengthAdjust="spacing" textLength="51" x="527" y="413.093">To Date</text><text fill="#000000" font-family="sans-serif" font-size="13" lengthAdjust="spacing" textLength="22" x="581" y="413.093">- To</text><text fill="#000000" font-family="sans-serif" font-size="13" lengthAdjust="spacing" textLength="11" x="513" y="430.799">-&gt;</text><text fill="#000000" font-family="sans-serif" font-size="13" font-weight="bold" lengthAdjust="spacing" textLength="118" x="527" y="430.799">Settlement Model</text><text fill="#000000" font-family="sans-serif" font-size="13" lengthAdjust="spacing" textLength="45" x="648" y="430.799">- Model</text><polygon fill="#181818" points="506,477.314,496,481.314,506,485.314,502,481.314" style="stroke:#181818;stroke-width:1.0;"/><polygon fill="#181818" points="855,477.314,865,481.314,855,485.314,859,481.314" style="stroke:#181818;stroke-width:1.0;"/><line style="stroke:#181818;stroke-width:1.0;stroke-dasharray:2.0,2.0;" x1="500" x2="861" y1="481.314" y2="481.314"/><text fill="#000000" font-family="sans-serif" font-size="13" font-weight="bold" lengthAdjust="spacing" textLength="7" x="512" y="475.505">2</text><text fill="#000000" font-family="sans-serif" font-size="13" lengthAdjust="spacing" textLength="337" x="523" y="475.505">Fetch all batches that form part of the settlement criteria</text><polygon fill="#181818" points="506,526.7261,496,530.7261,506,534.7261,502,530.7261" style="stroke:#181818;stroke-width:1.0;"/><polygon fill="#181818" points="855,526.7261,865,530.7261,855,534.7261,859,530.7261" style="stroke:#181818;stroke-width:1.0;"/><line style="stroke:#181818;stroke-width:1.0;stroke-dasharray:2.0,2.0;" x1="500" x2="861" y1="530.7261" y2="530.7261"/><text fill="#000000" font-family="sans-serif" font-size="13" font-weight="bold" lengthAdjust="spacing" textLength="7" x="512" y="516.0641">3</text><text fill="#000000" font-family="sans-serif" font-size="13" lengthAdjust="spacing" textLength="32" x="523" y="507.2111">Close</text><text fill="#000000" font-family="sans-serif" font-size="13" font-style="italic" lengthAdjust="spacing" textLength="32" x="558" y="507.2111">OPEN</text><text fill="#000000" font-family="sans-serif" font-size="13" lengthAdjust="spacing" textLength="219" x="593" y="507.2111">settlement batches which forms part</text><text fill="#000000" font-family="sans-serif" font-size="13" lengthAdjust="spacing" textLength="238" x="523" y="524.9171">of the settlement matrix request criteria</text><polygon fill="#181818" points="506,558.4321,496,562.4321,506,566.4321,502,562.4321" style="stroke:#181818;stroke-width:1.0;"/><polygon fill="#181818" points="977.5,558.4321,987.5,562.4321,977.5,566.4321,981.5,562.4321" style="stroke:#181818;stroke-width:1.0;"/><line style="stroke:#181818;stroke-width:1.0;" x1="500" x2="983.5" y1="562.4321" y2="562.4321"/><text fill="#000000" font-family="sans-serif" font-size="13" font-weight="bold" lengthAdjust="spacing" textLength="7" x="512" y="556.6231">4</text><text fill="#000000" font-family="sans-serif" font-size="13" lengthAdjust="spacing" textLength="117" x="523" y="556.6231">Obtain Debit/Credit</text><text fill="#000000" font-family="sans-serif" font-size="13" font-weight="bold" lengthAdjust="spacing" textLength="139" x="643" y="556.6231">Settlement Accounts</text><text fill="#000000" font-family="sans-serif" font-size="13" lengthAdjust="spacing" textLength="105" x="785" y="556.6231">based on batches</text><polygon fill="#181818" points="1000.5,590.1381,990.5,594.1381,1000.5,598.1381,996.5,594.1381" style="stroke:#181818;stroke-width:1.0;"/><polygon fill="#181818" points="1187.5,590.1381,1197.5,594.1381,1187.5,598.1381,1191.5,594.1381" style="stroke:#181818;stroke-width:1.0;"/><line style="stroke:#181818;stroke-width:1.0;" x1="994.5" x2="1193.5" y1="594.1381" y2="594.1381"/><text fill="#000000" font-family="sans-serif" font-size="13" font-weight="bold" lengthAdjust="spacing" textLength="7" x="1006.5" y="588.3291">5</text><text fill="#000000" font-family="sans-serif" font-size="13" lengthAdjust="spacing" textLength="33" x="1017.5" y="588.3291">Fetch</text><text fill="#000000" font-family="sans-serif" font-size="13" font-weight="bold" lengthAdjust="spacing" textLength="139" x="1053.5" y="588.3291">Settlement Accounts</text><polygon fill="#181818" points="506,621.8441,496,625.8441,506,629.8441,502,625.8441" style="stroke:#181818;stroke-width:1.0;"/><polygon fill="#181818" points="977.5,621.8441,987.5,625.8441,977.5,629.8441,981.5,625.8441" style="stroke:#181818;stroke-width:1.0;"/><line style="stroke:#181818;stroke-width:1.0;" x1="500" x2="983.5" y1="625.8441" y2="625.8441"/><text fill="#000000" font-family="sans-serif" font-size="13" font-weight="bold" lengthAdjust="spacing" textLength="7" x="512" y="620.0351">6</text><text fill="#000000" font-family="sans-serif" font-size="13" lengthAdjust="spacing" textLength="41" x="523" y="620.0351">Return</text><text fill="#000000" font-family="sans-serif" font-size="13" font-weight="bold" lengthAdjust="spacing" textLength="139" x="567" y="620.0351">Settlement Accounts</text><text fill="#000000" font-family="sans-serif" font-size="13" lengthAdjust="spacing" textLength="105" x="709" y="620.0351">based on batches</text><line style="stroke:#181818;stroke-width:1.0;stroke-dasharray:2.0,2.0;" x1="495" x2="537" y1="657.5501" y2="657.5501"/><line style="stroke:#181818;stroke-width:1.0;stroke-dasharray:2.0,2.0;" x1="537" x2="537" y1="657.5501" y2="670.5501"/><line style="stroke:#181818;stroke-width:1.0;stroke-dasharray:2.0,2.0;" x1="496" x2="537" y1="670.5501" y2="670.5501"/><polygon fill="#181818" points="505,653.5501,495,657.5501,505,661.5501,501,657.5501" style="stroke:#181818;stroke-width:1.0;"/><polygon fill="#181818" points="506,666.5501,496,670.5501,506,674.5501,502,670.5501" style="stroke:#181818;stroke-width:1.0;"/><text fill="#000000" font-family="sans-serif" font-size="13" font-weight="bold" lengthAdjust="spacing" textLength="7" x="502" y="651.7411">7</text><text fill="#000000" font-family="sans-serif" font-size="13" lengthAdjust="spacing" textLength="181" x="513" y="651.7411">Prepare the Settlement Matrix</text><polygon fill="#181818" points="319,698.2562,309,702.2562,319,706.2562,315,702.2562" style="stroke:#181818;stroke-width:1.0;"/><line style="stroke:#181818;stroke-width:1.0;" x1="313" x2="494" y1="702.2562" y2="702.2562"/><text fill="#000000" font-family="sans-serif" font-size="13" font-weight="bold" lengthAdjust="spacing" textLength="7" x="325" y="696.4472">8</text><text fill="#000000" font-family="sans-serif" font-size="13" lengthAdjust="spacing" textLength="152" x="336" y="696.4472">Return Settlement Matrix</text><polygon fill="#181818" points="78,729.9622,68,733.9622,78,737.9622,74,733.9622" style="stroke:#181818;stroke-width:1.0;"/><line style="stroke:#181818;stroke-width:1.0;" x1="72" x2="307" y1="733.9622" y2="733.9622"/><text fill="#000000" font-family="sans-serif" font-size="13" font-weight="bold" lengthAdjust="spacing" textLength="7" x="84" y="728.1532">9</text><text fill="#000000" font-family="sans-serif" font-size="13" lengthAdjust="spacing" textLength="206" x="95" y="728.1532">Return Settlement Matrix for caller</text><!--SRC=[bLHTJzj047p6ls854W-H78iA9B1Q9CU99H0jKOZwKgheR5_YK-qxzxo1vDztpzyn0LI_vBo-dPdTdGqAJ3aySQIVZ4k4xmors86GC6SQHIHo9h60YGysBFYQQq1L7RYCE7WwIWJo2BUQk_0hGSmBrt4oeTKuKfd3yjm95TEnesxkL-dzthjOUj-StvQLT_1mkjHC5eHfJ_nJO0Nm7QwmZXMhCBAiKErwCaj1Py5D40Gtria1r88N2DxyhiGfmcYbJU1iUZMxdbuExXu2Failp-51RKJK9fF-LMeYS3QR-bUNK-iaPiX2Ll23T7jQHzlCE2HIRtOT-1QNCP3-gWWlYjJM43AAJbZAg8rrEK5P3j1peD8xdy3JpwenB2JeZSwZjY9plPD4T-q77c-uxgwZeDUGSpFfHfB9aWevg1SQQOjQniqps-Mgu35i5dEVp81ShncDUwrqUwKjvBmjOrn-DEKQx6CaFIqjqDB49fM-ZEqXv41saiIkrcj7oG5gsysDLjiSBiQmr69344TiR8DFRvgbK3K57F3YZCnD1h7O5fNSPY6lQXfw3kpRpZykUVxlrfoAZYGhIShazcATrFd6XJlvelvGJGcj2naiPNjYf2gQ2hwC-yfjQ5quL7W8_DKUShb7Ee1LRwYPhm8JzrbIqcWKQ9K1MPQFHaHetkeFIzM5bweEzb5LpDFoQtdwI1OjW0i1noW1bgOGCZgHqp5XQ7oKbIQd4PUDwNKrqlI7eWNx5DjFoQBWE8_psG_7wKCqNA-987P3LbHip_8jNpL5qFLyFwI_xIsW2uyXClBIb8S27PzwBF2mMysAKCFCUfAXPQEjXE_0MkZUWZJTUmVo2CBGUGjk5kd_D7rcCeATQqxTh1pznd57G8QBL8fwFx7PepSB-NwkcJ54PBDwi_u1]--></g></svg>