<?xml version="1.0" encoding="UTF-8" standalone="no"?><svg xmlns="http://www.w3.org/2000/svg" xmlns:xlink="http://www.w3.org/1999/xlink" contentStyleType="text/css" height="1500px" preserveAspectRatio="none" style="width:1497px;height:1500px;background:#FFFFFF;" version="1.1" viewBox="0 0 1497 1500" width="1497px" zoomAndPan="magnify"><defs/><g><text fill="#000000" font-family="sans-serif" font-size="14" font-weight="bold" lengthAdjust="spacing" textLength="257" x="616" y="29.9659">Settlement Matrix for Central-Ledger</text><rect fill="#F9FFF9" height="1441.3584" style="stroke:#181818;stroke-width:0.5;" width="819.5" x="303" y="46.0679"/><text fill="#000000" font-family="sans-serif" font-size="13" font-weight="bold" lengthAdjust="spacing" textLength="101" x="660.75" y="59.9649">Settlements BC</text><rect fill="#FFFFF9" height="1441.3584" style="stroke:#181818;stroke-width:0.5;" width="296.5" x="1124.5" y="46.0679"/><text fill="#000000" font-family="sans-serif" font-size="13" font-weight="bold" lengthAdjust="spacing" textLength="171" x="1185.75" y="59.9649">Accounts and Balances BC</text><rect fill="none" height="100.8241" style="stroke:#000000;stroke-width:1.5;" width="688.5" x="10" y="298.3719"/><rect fill="none" height="279.7662" style="stroke:#000000;stroke-width:1.5;" width="1118.5" x="10" y="413.196"/><rect fill="none" height="100.8241" style="stroke:#000000;stroke-width:1.5;" width="688.5" x="10" y="839.9441"/><rect fill="none" height="447.5902" style="stroke:#000000;stroke-width:1.5;" width="1417" x="10" y="954.7681"/><line style="stroke:#181818;stroke-width:0.5;stroke-dasharray:5.0,5.0;" x1="77" x2="77" y1="132.8419" y2="744.9622"/><line style="stroke:#A80036;stroke-width:1.0;stroke-dasharray:1.0,4.0;" x1="77" x2="77" y1="744.9622" y2="787.9441"/><line style="stroke:#181818;stroke-width:0.5;stroke-dasharray:5.0,5.0;" x1="77" x2="77" y1="787.9441" y2="1419.3584"/><line style="stroke:#181818;stroke-width:0.5;stroke-dasharray:5.0,5.0;" x1="341" x2="341" y1="132.8419" y2="744.9622"/><line style="stroke:#A80036;stroke-width:1.0;stroke-dasharray:1.0,4.0;" x1="341" x2="341" y1="744.9622" y2="787.9441"/><line style="stroke:#181818;stroke-width:0.5;stroke-dasharray:5.0,5.0;" x1="341" x2="341" y1="787.9441" y2="1419.3584"/><line style="stroke:#181818;stroke-width:0.5;stroke-dasharray:5.0,5.0;" x1="440" x2="440" y1="132.8419" y2="744.9622"/><line style="stroke:#A80036;stroke-width:1.0;stroke-dasharray:1.0,4.0;" x1="440" x2="440" y1="744.9622" y2="787.9441"/><line style="stroke:#181818;stroke-width:0.5;stroke-dasharray:5.0,5.0;" x1="440" x2="440" y1="787.9441" y2="1419.3584"/><line style="stroke:#181818;stroke-width:0.5;stroke-dasharray:5.0,5.0;" x1="630.5" x2="630.5" y1="132.8419" y2="744.9622"/><line style="stroke:#A80036;stroke-width:1.0;stroke-dasharray:1.0,4.0;" x1="630.5" x2="630.5" y1="744.9622" y2="787.9441"/><line style="stroke:#181818;stroke-width:0.5;stroke-dasharray:5.0,5.0;" x1="630.5" x2="630.5" y1="787.9441" y2="1419.3584"/><line style="stroke:#181818;stroke-width:0.5;stroke-dasharray:5.0,5.0;" x1="1041.5" x2="1041.5" y1="132.8419" y2="744.9622"/><line style="stroke:#A80036;stroke-width:1.0;stroke-dasharray:1.0,4.0;" x1="1041.5" x2="1041.5" y1="744.9622" y2="787.9441"/><line style="stroke:#181818;stroke-width:0.5;stroke-dasharray:5.0,5.0;" x1="1041.5" x2="1041.5" y1="787.9441" y2="1419.3584"/><line style="stroke:#181818;stroke-width:0.5;stroke-dasharray:5.0,5.0;" x1="1163.5" x2="1163.5" y1="132.8419" y2="744.9622"/><line style="stroke:#A80036;stroke-width:1.0;stroke-dasharray:1.0,4.0;" x1="1163.5" x2="1163.5" y1="744.9622" y2="787.9441"/><line style="stroke:#181818;stroke-width:0.5;stroke-dasharray:5.0,5.0;" x1="1163.5" x2="1163.5" y1="787.9441" y2="1419.3584"/><line style="stroke:#181818;stroke-width:0.5;stroke-dasharray:5.0,5.0;" x1="1374" x2="1374" y1="132.8419" y2="744.9622"/><line style="stroke:#A80036;stroke-width:1.0;stroke-dasharray:1.0,4.0;" x1="1374" x2="1374" y1="744.9622" y2="787.9441"/><line style="stroke:#181818;stroke-width:0.5;stroke-dasharray:5.0,5.0;" x1="1374" x2="1374" y1="787.9441" y2="1419.3584"/><rect fill="#E2E2F0" height="33.0679" rx="2.5" ry="2.5" style="stroke:#181818;stroke-width:0.5;" width="115" x="20" y="98.7739"/><text fill="#000000" font-family="sans-serif" font-size="14" lengthAdjust="spacing" textLength="101" x="27" y="120.7399">Central-Ledger</text><rect fill="#E2E2F0" height="33.0679" rx="2.5" ry="2.5" style="stroke:#181818;stroke-width:0.5;" width="115" x="20" y="1418.3584"/><text fill="#000000" font-family="sans-serif" font-size="14" lengthAdjust="spacing" textLength="101" x="27" y="1440.3243">Central-Ledger</text><rect fill="#D5E8D4" height="33.0679" rx="2.5" ry="2.5" style="stroke:#181818;stroke-width:0.5;" width="69" x="307" y="98.7739"/><text fill="#000000" font-family="sans-serif" font-size="14" lengthAdjust="spacing" textLength="55" x="314" y="120.7399">Rest API</text><rect fill="#D5E8D4" height="33.0679" rx="2.5" ry="2.5" style="stroke:#181818;stroke-width:0.5;" width="69" x="307" y="1418.3584"/><text fill="#000000" font-family="sans-serif" font-size="14" lengthAdjust="spacing" textLength="55" x="314" y="1440.3243">Rest API</text><rect fill="#D5E8D4" height="33.0679" rx="2.5" ry="2.5" style="stroke:#181818;stroke-width:0.5;" width="109" x="386" y="98.7739"/><text fill="#000000" font-family="sans-serif" font-size="14" lengthAdjust="spacing" textLength="95" x="393" y="120.7399">Event Handler</text><rect fill="#D5E8D4" height="33.0679" rx="2.5" ry="2.5" style="stroke:#181818;stroke-width:0.5;" width="109" x="386" y="1418.3584"/><text fill="#000000" font-family="sans-serif" font-size="14" lengthAdjust="spacing" textLength="95" x="393" y="1440.3243">Event Handler</text><rect fill="#EDC54D" height="52.1358" rx="2.5" ry="2.5" style="stroke:#181818;stroke-width:0.5;" width="116" x="572.5" y="79.706"/><text fill="#000000" font-family="sans-serif" font-size="14" lengthAdjust="spacing" textLength="102" x="579.5" y="101.672">Settlements BC</text><text fill="#000000" font-family="sans-serif" font-size="14" lengthAdjust="spacing" textLength="66" x="597.5" y="120.7399">App Logic</text><rect fill="#EDC54D" height="52.1358" rx="2.5" ry="2.5" style="stroke:#181818;stroke-width:0.5;" width="116" x="572.5" y="1418.3584"/><text fill="#000000" font-family="sans-serif" font-size="14" lengthAdjust="spacing" textLength="102" x="579.5" y="1440.3243">Settlements BC</text><text fill="#000000" font-family="sans-serif" font-size="14" lengthAdjust="spacing" textLength="66" x="597.5" y="1459.3922">App Logic</text><text fill="#000000" font-family="sans-serif" font-size="14" lengthAdjust="spacing" textLength="148" x="964.5" y="128.7399">Settlements-Database</text><path d="M1023.5,77.7739 C1023.5,67.7739 1041.5,67.7739 1041.5,67.7739 C1041.5,67.7739 1059.5,67.7739 1059.5,77.7739 L1059.5,103.7739 C1059.5,113.7739 1041.5,113.7739 1041.5,113.7739 C1041.5,113.7739 1023.5,113.7739 1023.5,103.7739 L1023.5,77.7739 " fill="#DAE8FC" style="stroke:#181818;stroke-width:1.5;"/><path d="M1023.5,77.7739 C1023.5,87.7739 1041.5,87.7739 1041.5,87.7739 C1041.5,87.7739 1059.5,87.7739 1059.5,77.7739 " fill="none" style="stroke:#181818;stroke-width:1.5;"/><text fill="#000000" font-family="sans-serif" font-size="14" lengthAdjust="spacing" textLength="148" x="964.5" y="1433.3243">Settlements-Database</text><path d="M1023.5,1447.4263 C1023.5,1437.4263 1041.5,1437.4263 1041.5,1437.4263 C1041.5,1437.4263 1059.5,1437.4263 1059.5,1447.4263 L1059.5,1473.4263 C1059.5,1483.4263 1041.5,1483.4263 1041.5,1483.4263 C1041.5,1483.4263 1023.5,1483.4263 1023.5,1473.4263 L1023.5,1447.4263 " fill="#DAE8FC" style="stroke:#181818;stroke-width:1.5;"/><path d="M1023.5,1447.4263 C1023.5,1457.4263 1041.5,1457.4263 1041.5,1457.4263 C1041.5,1457.4263 1059.5,1457.4263 1059.5,1447.4263 " fill="none" style="stroke:#181818;stroke-width:1.5;"/><rect fill="#D5E8D4" height="33.0679" rx="2.5" ry="2.5" style="stroke:#181818;stroke-width:0.5;" width="71" x="1128.5" y="98.7739"/><text fill="#000000" font-family="sans-serif" font-size="14" lengthAdjust="spacing" textLength="57" x="1135.5" y="120.7399">A&amp;B SVC</text><rect fill="#D5E8D4" height="33.0679" rx="2.5" ry="2.5" style="stroke:#181818;stroke-width:0.5;" width="71" x="1128.5" y="1418.3584"/><text fill="#000000" font-family="sans-serif" font-size="14" lengthAdjust="spacing" textLength="57" x="1135.5" y="1440.3243">A&amp;B SVC</text><text fill="#000000" font-family="sans-serif" font-size="14" lengthAdjust="spacing" textLength="80" x="1331" y="128.7399">A&amp;B-Ledger</text><path d="M1356,77.7739 C1356,67.7739 1374,67.7739 1374,67.7739 C1374,67.7739 1392,67.7739 1392,77.7739 L1392,103.7739 C1392,113.7739 1374,113.7739 1374,113.7739 C1374,113.7739 1356,113.7739 1356,103.7739 L1356,77.7739 " fill="#DAE8FC" style="stroke:#181818;stroke-width:1.5;"/><path d="M1356,77.7739 C1356,87.7739 1374,87.7739 1374,87.7739 C1374,87.7739 1392,87.7739 1392,77.7739 " fill="none" style="stroke:#181818;stroke-width:1.5;"/><text fill="#000000" font-family="sans-serif" font-size="14" lengthAdjust="spacing" textLength="80" x="1331" y="1433.3243">A&amp;B-Ledger</text><path d="M1356,1447.4263 C1356,1437.4263 1374,1437.4263 1374,1437.4263 C1374,1437.4263 1392,1437.4263 1392,1447.4263 L1392,1473.4263 C1392,1483.4263 1374,1483.4263 1374,1483.4263 C1374,1483.4263 1356,1483.4263 1356,1473.4263 L1356,1447.4263 " fill="#DAE8FC" style="stroke:#181818;stroke-width:1.5;"/><path d="M1356,1447.4263 C1356,1457.4263 1374,1457.4263 1374,1457.4263 C1374,1457.4263 1392,1457.4263 1392,1447.4263 " fill="none" style="stroke:#181818;stroke-width:1.5;"/><path d="M316,147.8419 L316,192.8419 L565,192.8419 L565,157.8419 L555,147.8419 L316,147.8419 " fill="#FEFFDD" style="stroke:#181818;stroke-width:0.5;"/><path d="M555,147.8419 L555,157.8419 L565,157.8419 L555,147.8419 " fill="#FEFFDD" style="stroke:#181818;stroke-width:0.5;"/><text fill="#000000" font-family="sans-serif" font-size="13" lengthAdjust="spacing" textLength="74" x="322" y="166.7389">Kafka Topics</text><text fill="#000000" font-family="sans-serif" font-size="13" lengthAdjust="spacing" textLength="228" x="322" y="184.4449">- Topic for Settlement Matrix Accounts</text><path d="M1073,203.2539 L1073,248.2539 L1255,248.2539 L1255,213.2539 L1245,203.2539 L1073,203.2539 " fill="#FEFFDD" style="stroke:#181818;stroke-width:0.5;"/><path d="M1245,203.2539 L1245,213.2539 L1255,213.2539 L1245,203.2539 " fill="#FEFFDD" style="stroke:#181818;stroke-width:0.5;"/><text fill="#000000" font-family="sans-serif" font-size="13" lengthAdjust="spacing" textLength="161" x="1079" y="222.1509">Exposed gRPC interface for</text><text fill="#000000" font-family="sans-serif" font-size="13" lengthAdjust="spacing" textLength="126" x="1079" y="239.8569">Accounts &amp; Balances.</text><path d="M1263,258.6659 L1263,285.6659 L1485,285.6659 L1485,268.6659 L1475,258.6659 L1263,258.6659 " fill="#FEFFDD" style="stroke:#181818;stroke-width:0.5;"/><path d="M1475,258.6659 L1475,268.6659 L1485,268.6659 L1475,258.6659 " fill="#FEFFDD" style="stroke:#181818;stroke-width:0.5;"/><text fill="#000000" font-family="sans-serif" font-size="13" lengthAdjust="spacing" textLength="201" x="1269" y="277.5629">TigerBeetle may be turned off/on.</text><path d="M10,298.3719 L434,298.3719 L434,308.0779 L424,318.0779 L10,318.0779 L10,298.3719 " fill="#EEEEEE" style="stroke:#000000;stroke-width:1.5;"/><rect fill="none" height="100.8241" style="stroke:#000000;stroke-width:1.5;" width="688.5" x="10" y="298.3719"/><text fill="#000000" font-family="sans-serif" font-size="13" font-weight="bold" lengthAdjust="spacing" textLength="379" x="25" y="313.2689">1. Settlement Matrix Request - Central Ledger / Admin API</text><polygon fill="#181818" points="329.5,355.49,339.5,359.49,329.5,363.49,333.5,359.49" style="stroke:#181818;stroke-width:1.0;"/><line style="stroke:#181818;stroke-width:1.0;" x1="77.5" x2="335.5" y1="359.49" y2="359.49"/><text fill="#000000" font-family="sans-serif" font-size="13" font-weight="bold" lengthAdjust="spacing" textLength="7" x="84.5" y="344.828">1</text><text fill="#000000" font-family="sans-serif" font-size="13" font-weight="bold" lengthAdjust="spacing" textLength="179" x="95.5" y="335.975">Settlement Matrix Request</text><text fill="#000000" font-family="sans-serif" font-size="13" lengthAdjust="spacing" textLength="214" x="95.5" y="353.681">(model, fromDate, toDate, currency)</text><polygon fill="#181818" points="618.5,387.196,628.5,391.196,618.5,395.196,622.5,391.196" style="stroke:#181818;stroke-width:1.0;"/><line style="stroke:#181818;stroke-width:1.0;stroke-dasharray:2.0,2.0;" x1="341.5" x2="624.5" y1="391.196" y2="391.196"/><text fill="#000000" font-family="sans-serif" font-size="13" font-weight="bold" lengthAdjust="spacing" textLength="7" x="348.5" y="385.387">2</text><text fill="#000000" font-family="sans-serif" font-size="13" lengthAdjust="spacing" textLength="123" x="359.5" y="385.387">Invoke the App layer</text><path d="M10,413.196 L320,413.196 L320,422.902 L310,432.902 L10,432.902 L10,413.196 " fill="#EEEEEE" style="stroke:#000000;stroke-width:1.5;"/><rect fill="none" height="279.7662" style="stroke:#000000;stroke-width:1.5;" width="1118.5" x="10" y="413.196"/><text fill="#000000" font-family="sans-serif" font-size="13" font-weight="bold" lengthAdjust="spacing" textLength="265" x="25" y="428.093">2. Settlement Matrix Request - App Logic</text><line style="stroke:#181818;stroke-width:1.0;stroke-dasharray:2.0,2.0;" x1="630.5" x2="672.5" y1="527.4321" y2="527.4321"/><line style="stroke:#181818;stroke-width:1.0;stroke-dasharray:2.0,2.0;" x1="672.5" x2="672.5" y1="527.4321" y2="540.4321"/><line style="stroke:#181818;stroke-width:1.0;stroke-dasharray:2.0,2.0;" x1="631.5" x2="672.5" y1="540.4321" y2="540.4321"/><polygon fill="#181818" points="640.5,523.4321,630.5,527.4321,640.5,531.4321,636.5,527.4321" style="stroke:#181818;stroke-width:1.0;"/><polygon fill="#181818" points="641.5,536.4321,631.5,540.4321,641.5,544.4321,637.5,540.4321" style="stroke:#181818;stroke-width:1.0;"/><text fill="#000000" font-family="sans-serif" font-size="13" font-weight="bold" lengthAdjust="spacing" textLength="7" x="637.5" y="486.2111">3</text><text fill="#000000" font-family="sans-serif" font-size="13" font-weight="bold" lengthAdjust="spacing" textLength="179" x="648.5" y="450.799">Settlement Matrix Request</text><text fill="#000000" font-family="sans-serif" font-size="13" lengthAdjust="spacing" textLength="157" x="830.5" y="450.799">generation triggered with:</text><text fill="#000000" font-family="sans-serif" font-size="13" lengthAdjust="spacing" textLength="11" x="648.5" y="468.505">-&gt;</text><text fill="#000000" font-family="sans-serif" font-size="13" font-weight="bold" lengthAdjust="spacing" textLength="69" x="662.5" y="468.505">From Date</text><text fill="#000000" font-family="sans-serif" font-size="13" lengthAdjust="spacing" textLength="39" x="734.5" y="468.505">- From</text><text fill="#000000" font-family="sans-serif" font-size="13" lengthAdjust="spacing" textLength="11" x="648.5" y="486.2111">-&gt;</text><text fill="#000000" font-family="sans-serif" font-size="13" font-weight="bold" lengthAdjust="spacing" textLength="51" x="662.5" y="486.2111">To Date</text><text fill="#000000" font-family="sans-serif" font-size="13" lengthAdjust="spacing" textLength="22" x="716.5" y="486.2111">- To</text><text fill="#000000" font-family="sans-serif" font-size="13" lengthAdjust="spacing" textLength="11" x="648.5" y="503.9171">-&gt;</text><text fill="#000000" font-family="sans-serif" font-size="13" font-weight="bold" lengthAdjust="spacing" textLength="118" x="662.5" y="503.9171">Settlement Model</text><text fill="#000000" font-family="sans-serif" font-size="13" lengthAdjust="spacing" textLength="45" x="783.5" y="503.9171">- Model</text><text fill="#000000" font-family="sans-serif" font-size="13" lengthAdjust="spacing" textLength="11" x="648.5" y="521.6231">-&gt;</text><text fill="#000000" font-family="sans-serif" font-size="13" font-weight="bold" lengthAdjust="spacing" textLength="60" x="662.5" y="521.6231">Currency</text><text fill="#000000" font-family="sans-serif" font-size="13" lengthAdjust="spacing" textLength="111" x="725.5" y="521.6231">- Transfer currency</text><polygon fill="#181818" points="641.5,568.1381,631.5,572.1381,641.5,576.1381,637.5,572.1381" style="stroke:#181818;stroke-width:1.0;"/><polygon fill="#181818" points="1029.5,568.1381,1039.5,572.1381,1029.5,576.1381,1033.5,572.1381" style="stroke:#181818;stroke-width:1.0;"/><line style="stroke:#181818;stroke-width:1.0;stroke-dasharray:2.0,2.0;" x1="635.5" x2="1035.5" y1="572.1381" y2="572.1381"/><text fill="#000000" font-family="sans-serif" font-size="13" font-weight="bold" lengthAdjust="spacing" textLength="7" x="647.5" y="566.3291">4</text><text fill="#000000" font-family="sans-serif" font-size="13" lengthAdjust="spacing" textLength="337" x="658.5" y="566.3291">Fetch all batches that form part of the settlement criteria</text><polygon fill="#181818" points="641.5,617.5501,631.5,621.5501,641.5,625.5501,637.5,621.5501" style="stroke:#181818;stroke-width:1.0;"/><polygon fill="#181818" points="1029.5,617.5501,1039.5,621.5501,1029.5,625.5501,1033.5,621.5501" style="stroke:#181818;stroke-width:1.0;"/><line style="stroke:#181818;stroke-width:1.0;stroke-dasharray:2.0,2.0;" x1="635.5" x2="1035.5" y1="621.5501" y2="621.5501"/><text fill="#000000" font-family="sans-serif" font-size="13" font-weight="bold" lengthAdjust="spacing" textLength="7" x="647.5" y="606.8881">5</text><text fill="#000000" font-family="sans-serif" font-size="13" lengthAdjust="spacing" textLength="299" x="658.5" y="598.0351">Associate the batches that for part of the selection</text><text fill="#000000" font-family="sans-serif" font-size="13" lengthAdjust="spacing" textLength="93" x="658.5" y="615.7411">criteria with the</text><text fill="#000000" font-family="sans-serif" font-size="13" font-weight="bold" lengthAdjust="spacing" textLength="179" x="754.5" y="615.7411">Settlement Matrix Request</text><polygon fill="#181818" points="352.5,649.2562,342.5,653.2562,352.5,657.2562,348.5,653.2562" style="stroke:#181818;stroke-width:1.0;"/><line style="stroke:#181818;stroke-width:1.0;stroke-dasharray:2.0,2.0;" x1="346.5" x2="629.5" y1="653.2562" y2="653.2562"/><text fill="#000000" font-family="sans-serif" font-size="13" font-weight="bold" lengthAdjust="spacing" textLength="7" x="358.5" y="647.4472">6</text><text fill="#000000" font-family="sans-serif" font-size="13" font-weight="bold" lengthAdjust="spacing" textLength="179" x="369.5" y="647.4472">Settlement Matrix Request</text><text fill="#000000" font-family="sans-serif" font-size="13" lengthAdjust="spacing" textLength="67" x="551.5" y="647.4472">id returned</text><polygon fill="#181818" points="88.5,680.9622,78.5,684.9622,88.5,688.9622,84.5,684.9622" style="stroke:#181818;stroke-width:1.0;"/><line style="stroke:#181818;stroke-width:1.0;" x1="82.5" x2="340.5" y1="684.9622" y2="684.9622"/><text fill="#000000" font-family="sans-serif" font-size="13" font-weight="bold" lengthAdjust="spacing" textLength="7" x="94.5" y="679.1532">7</text><text fill="#000000" font-family="sans-serif" font-size="13" lengthAdjust="spacing" textLength="181" x="105.5" y="679.1532">Matrix id returned in response</text><text fill="#000000" font-family="sans-serif" font-size="11" lengthAdjust="spacing" textLength="294" x="577.25" y="770.7211">At the time of Settlement Matrix Generation (Settlement)</text><path d="M10,839.9441 L386,839.9441 L386,849.6501 L376,859.6501 L10,859.6501 L10,839.9441 " fill="#EEEEEE" style="stroke:#000000;stroke-width:1.5;"/><rect fill="none" height="100.8241" style="stroke:#000000;stroke-width:1.5;" width="688.5" x="10" y="839.9441"/><text fill="#000000" font-family="sans-serif" font-size="13" font-weight="bold" lengthAdjust="spacing" textLength="331" x="25" y="854.8411">3. Execute Settlement - Central Ledger / Admin API</text><polygon fill="#181818" points="329.5,897.0621,339.5,901.0621,329.5,905.0621,333.5,901.0621" style="stroke:#181818;stroke-width:1.0;"/><line style="stroke:#181818;stroke-width:1.0;" x1="77.5" x2="335.5" y1="901.0621" y2="901.0621"/><text fill="#000000" font-family="sans-serif" font-size="13" font-weight="bold" lengthAdjust="spacing" textLength="7" x="84.5" y="886.4001">1</text><text fill="#000000" font-family="sans-serif" font-size="13" lengthAdjust="spacing" textLength="47" x="95.5" y="877.5471">Execute</text><text fill="#000000" font-family="sans-serif" font-size="13" font-weight="bold" lengthAdjust="spacing" textLength="179" x="145.5" y="877.5471">Settlement Matrix Request</text><text fill="#000000" font-family="sans-serif" font-size="13" lengthAdjust="spacing" textLength="124" x="95.5" y="895.2531">(settlementMatrixId)</text><polygon fill="#181818" points="618.5,928.7681,628.5,932.7681,618.5,936.7681,622.5,932.7681" style="stroke:#181818;stroke-width:1.0;"/><line style="stroke:#181818;stroke-width:1.0;stroke-dasharray:2.0,2.0;" x1="341.5" x2="624.5" y1="932.7681" y2="932.7681"/><text fill="#000000" font-family="sans-serif" font-size="13" font-weight="bold" lengthAdjust="spacing" textLength="7" x="348.5" y="926.9591">2</text><text fill="#000000" font-family="sans-serif" font-size="13" lengthAdjust="spacing" textLength="123" x="359.5" y="926.9591">Invoke the App layer</text><path d="M10,954.7681 L283,954.7681 L283,964.4742 L273,974.4742 L10,974.4742 L10,954.7681 " fill="#EEEEEE" style="stroke:#000000;stroke-width:1.5;"/><rect fill="none" height="447.5902" style="stroke:#000000;stroke-width:1.5;" width="1417" x="10" y="954.7681"/><text fill="#000000" font-family="sans-serif" font-size="13" font-weight="bold" lengthAdjust="spacing" textLength="228" x="25" y="969.6651">4. Execute a Settlement - App Logic</text><polygon fill="#181818" points="641.5,1011.8862,631.5,1015.8862,641.5,1019.8862,637.5,1015.8862" style="stroke:#181818;stroke-width:1.0;"/><polygon fill="#181818" points="1029.5,1011.8862,1039.5,1015.8862,1029.5,1019.8862,1033.5,1015.8862" style="stroke:#181818;stroke-width:1.0;"/><line style="stroke:#181818;stroke-width:1.0;stroke-dasharray:2.0,2.0;" x1="635.5" x2="1035.5" y1="1015.8862" y2="1015.8862"/><text fill="#000000" font-family="sans-serif" font-size="13" font-weight="bold" lengthAdjust="spacing" textLength="7" x="647.5" y="1001.2242">3</text><text fill="#000000" font-family="sans-serif" font-size="13" lengthAdjust="spacing" textLength="32" x="658.5" y="992.3712">Close</text><text fill="#000000" font-family="sans-serif" font-size="13" font-style="italic" lengthAdjust="spacing" textLength="32" x="693.5" y="992.3712">OPEN</text><text fill="#000000" font-family="sans-serif" font-size="13" lengthAdjust="spacing" textLength="219" x="728.5" y="992.3712">settlement batches which forms part</text><text fill="#000000" font-family="sans-serif" font-size="13" lengthAdjust="spacing" textLength="238" x="658.5" y="1010.0772">of the settlement matrix request criteria</text><polygon fill="#181818" points="641.5,1043.5922,631.5,1047.5922,641.5,1051.5922,637.5,1047.5922" style="stroke:#181818;stroke-width:1.0;"/><polygon fill="#181818" points="1152,1043.5922,1162,1047.5922,1152,1051.5922,1156,1047.5922" style="stroke:#181818;stroke-width:1.0;"/><line style="stroke:#181818;stroke-width:1.0;" x1="635.5" x2="1158" y1="1047.5922" y2="1047.5922"/><text fill="#000000" font-family="sans-serif" font-size="13" font-weight="bold" lengthAdjust="spacing" textLength="7" x="647.5" y="1041.7832">4</text><text fill="#000000" font-family="sans-serif" font-size="13" lengthAdjust="spacing" textLength="117" x="658.5" y="1041.7832">Obtain Debit/Credit</text><text fill="#000000" font-family="sans-serif" font-size="13" font-weight="bold" lengthAdjust="spacing" textLength="139" x="778.5" y="1041.7832">Settlement Accounts</text><text fill="#000000" font-family="sans-serif" font-size="13" lengthAdjust="spacing" textLength="105" x="920.5" y="1041.7832">based on batches</text><polygon fill="#181818" points="1175,1075.2982,1165,1079.2982,1175,1083.2982,1171,1079.2982" style="stroke:#181818;stroke-width:1.0;"/><polygon fill="#181818" points="1362,1075.2982,1372,1079.2982,1362,1083.2982,1366,1079.2982" style="stroke:#181818;stroke-width:1.0;"/><line style="stroke:#181818;stroke-width:1.0;" x1="1169" x2="1368" y1="1079.2982" y2="1079.2982"/><text fill="#000000" font-family="sans-serif" font-size="13" font-weight="bold" lengthAdjust="spacing" textLength="7" x="1181" y="1073.4892">5</text><text fill="#000000" font-family="sans-serif" font-size="13" lengthAdjust="spacing" textLength="33" x="1192" y="1073.4892">Fetch</text><text fill="#000000" font-family="sans-serif" font-size="13" font-weight="bold" lengthAdjust="spacing" textLength="139" x="1228" y="1073.4892">Settlement Accounts</text><polygon fill="#181818" points="641.5,1107.0042,631.5,1111.0042,641.5,1115.0042,637.5,1111.0042" style="stroke:#181818;stroke-width:1.0;"/><polygon fill="#181818" points="1152,1107.0042,1162,1111.0042,1152,1115.0042,1156,1111.0042" style="stroke:#181818;stroke-width:1.0;"/><line style="stroke:#181818;stroke-width:1.0;" x1="635.5" x2="1158" y1="1111.0042" y2="1111.0042"/><text fill="#000000" font-family="sans-serif" font-size="13" font-weight="bold" lengthAdjust="spacing" textLength="7" x="647.5" y="1105.1952">6</text><text fill="#000000" font-family="sans-serif" font-size="13" lengthAdjust="spacing" textLength="41" x="658.5" y="1105.1952">Return</text><text fill="#000000" font-family="sans-serif" font-size="13" font-weight="bold" lengthAdjust="spacing" textLength="139" x="702.5" y="1105.1952">Settlement Accounts</text><text fill="#000000" font-family="sans-serif" font-size="13" lengthAdjust="spacing" textLength="105" x="844.5" y="1105.1952">based on batches</text><line style="stroke:#181818;stroke-width:1.0;stroke-dasharray:2.0,2.0;" x1="630.5" x2="672.5" y1="1142.7103" y2="1142.7103"/><line style="stroke:#181818;stroke-width:1.0;stroke-dasharray:2.0,2.0;" x1="672.5" x2="672.5" y1="1142.7103" y2="1155.7103"/><line style="stroke:#181818;stroke-width:1.0;stroke-dasharray:2.0,2.0;" x1="631.5" x2="672.5" y1="1155.7103" y2="1155.7103"/><polygon fill="#181818" points="640.5,1138.7103,630.5,1142.7103,640.5,1146.7103,636.5,1142.7103" style="stroke:#181818;stroke-width:1.0;"/><polygon fill="#181818" points="641.5,1151.7103,631.5,1155.7103,641.5,1159.7103,637.5,1155.7103" style="stroke:#181818;stroke-width:1.0;"/><text fill="#000000" font-family="sans-serif" font-size="13" font-weight="bold" lengthAdjust="spacing" textLength="7" x="637.5" y="1136.9012">7</text><text fill="#000000" font-family="sans-serif" font-size="13" lengthAdjust="spacing" textLength="181" x="648.5" y="1136.9012">Prepare the Settlement Matrix</text><polygon fill="#181818" points="352.5,1183.4163,342.5,1187.4163,352.5,1191.4163,348.5,1187.4163" style="stroke:#181818;stroke-width:1.0;"/><line style="stroke:#181818;stroke-width:1.0;" x1="346.5" x2="629.5" y1="1187.4163" y2="1187.4163"/><text fill="#000000" font-family="sans-serif" font-size="13" font-weight="bold" lengthAdjust="spacing" textLength="7" x="358.5" y="1181.6073">8</text><text fill="#000000" font-family="sans-serif" font-size="13" lengthAdjust="spacing" textLength="152" x="369.5" y="1181.6073">Return Settlement Matrix</text><polygon fill="#181818" points="88.5,1232.8283,78.5,1236.8283,88.5,1240.8283,84.5,1236.8283" style="stroke:#181818;stroke-width:1.0;"/><line style="stroke:#181818;stroke-width:1.0;" x1="82.5" x2="340.5" y1="1236.8283" y2="1236.8283"/><text fill="#000000" font-family="sans-serif" font-size="13" font-weight="bold" lengthAdjust="spacing" textLength="7" x="94.5" y="1222.1663">9</text><text fill="#000000" font-family="sans-serif" font-size="13" lengthAdjust="spacing" textLength="206" x="105.5" y="1213.3133">Return Settlement Matrix for caller</text><text fill="#000000" font-family="sans-serif" font-size="13" font-style="italic" font-weight="bold" lengthAdjust="spacing" textLength="134" x="105.5" y="1231.0193">ISettlementMatrixDto</text><rect fill="#EEEEEE" height="3" style="stroke:#EEEEEE;stroke-width:1.0;" width="1490" x="0" y="1266.6813"/><line style="stroke:#000000;stroke-width:1.0;" x1="0" x2="1490" y1="1266.6813" y2="1266.6813"/><line style="stroke:#000000;stroke-width:1.0;" x1="0" x2="1490" y1="1269.6813" y2="1269.6813"/><rect fill="#EEEEEE" height="25.706" style="stroke:#000000;stroke-width:2.0;" width="398" x="546" y="1254.8283"/><text fill="#000000" font-family="sans-serif" font-size="13" font-weight="bold" lengthAdjust="spacing" textLength="381" x="552" y="1272.7253">Publish Settlement Matrix Result for Liquidity Restoration</text><line style="stroke:#181818;stroke-width:1.0;stroke-dasharray:2.0,2.0;" x1="630.5" x2="672.5" y1="1314.2403" y2="1314.2403"/><line style="stroke:#181818;stroke-width:1.0;stroke-dasharray:2.0,2.0;" x1="672.5" x2="672.5" y1="1314.2403" y2="1327.2403"/><line style="stroke:#181818;stroke-width:1.0;stroke-dasharray:2.0,2.0;" x1="631.5" x2="672.5" y1="1327.2403" y2="1327.2403"/><polygon fill="#181818" points="641.5,1323.2403,631.5,1327.2403,641.5,1331.2403,637.5,1327.2403" style="stroke:#181818;stroke-width:1.0;"/><text fill="#000000" font-family="sans-serif" font-size="13" font-weight="bold" lengthAdjust="spacing" textLength="7" x="637.5" y="1308.4313">1</text><text fill="#000000" font-family="sans-serif" font-size="13" lengthAdjust="spacing" textLength="386" x="648.5" y="1308.4313">Create events for each Settlement Batch Account Balance update</text><polygon fill="#181818" points="451.5,1390.3584,441.5,1394.3584,451.5,1398.3584,447.5,1394.3584" style="stroke:#181818;stroke-width:1.0;"/><line style="stroke:#181818;stroke-width:1.0;" x1="445.5" x2="629.5" y1="1394.3584" y2="1394.3584"/><text fill="#000000" font-family="sans-serif" font-size="13" font-weight="bold" lengthAdjust="spacing" textLength="7" x="457.5" y="1370.8434">2</text><text fill="#000000" font-family="sans-serif" font-size="13" lengthAdjust="spacing" textLength="132" x="468.5" y="1353.1373">Publish event for each</text><text fill="#000000" font-family="sans-serif" font-size="13" lengthAdjust="spacing" textLength="155" x="468.5" y="1370.8434">Settlement Batch Account</text><text fill="#000000" font-family="sans-serif" font-size="13" lengthAdjust="spacing" textLength="92" x="468.5" y="1388.5494">Balance update</text><!--SRC=[hLPTRziu47pthrWqGD0QjONh9K1hN0BOijqBchiQIT0d0m55hMqY4gbIL9e0-V5TKj-IxRIuquka9JdS6SwkP8I946xHq2r6QU0VPhHuWetIuDExPj7e6iCjwi4WOTe8BX96qzwq1zy0Im6Vp3sF1eD0FJKGKvZvSBByj5mkFms0hXRC3QO6fgih1v06_5xRmCdyVF5nVjQVldYqEVxDP1WLczerwABDHL8P1FM8kXvtSNjzOPi71dSg4JojWgCyu7ZtrPXohZAYugQZ31r-FxiswRMS9WbSgwtWLQOiIUuZ6u6JnTm_Fvixa90P5h0KMmYZUH6j5eS1SPmkFYxzWSs1PCwrBhC3aWLcB6AIOw7wSh_gqzCPt7xp7J8B27gh4zuIi4w9vZOFsKqtWbu3HEkTCgMsx1LgfV3YAL4fXh2zMVaWf46zOHojuDMKYiXfHMFSbxopIIEN2kZEncPvVZ5xXW31P5hIxcgpyPJie5PgRhNA4lXZlCS2D_WzizOSbMK1kIZWmJICXRGc7h3CA9d50UQSyeA0qMNjx0aCXmV1XyErV1kh4AFtiD4g9WVWUp0gl_DCQvJy-Pt3hX171NnjhGbSoKVrG9nt2DQ34NkcZ8XboV33SOQLRwkTQl2_UlkzGWcsA54p8vG46jcIPdGEFuJPJTQIi8R39L45ov4cZy2-5GDtgWxVgIBOtCfAvKRTKp71BtJAbsacqmqTKwdUCKfKO1DOek4xO5440QCdgYIpOyRwD7P5H1PomgPr7bmBihDWhs9FqrHnGPGSGXU_0nyXTwAjPOdlL7EZHnNVayReDpm88WIDURrqh7PPMdfIhchCfQAcvpHHCiNSR2ylP-SlBuFnU3mrBcqZOhG4-xj_hatojXvz1xIsX2cy- -UOMWdopBG-M_-vB4lCrygpFlPyy2hy7-hnhER4sgn-gHITj_o8sYjutjVLub_FQzgpzDcFdI1dMoEdkTNMik_bEAUiYsPmrDgNZO_71Bu6Xf7WSmo4yNmgSc7QQfRjdIncFotKZ6MPcuElmIheHdClA_C0v1w4xYdSEAF-NawlDJ-2NMaaDVFJxNbdNossV5SaTNXXh_8EhN0jX5FZGhsMmw7dNTrsl3etolD8gauzN5p0AWiYaUxsVXNIBChRqxNudWawrMSRDAeerukB8_scgHDPmdO-zpEMEa1alBNbp0fV7adv2m1PGZyZU5Z8_EzlKd78tqlyjJoqmLfsTh05-HC0]--></g></svg>