<?xml version="1.0" encoding="UTF-8" standalone="no"?><svg xmlns="http://www.w3.org/2000/svg" xmlns:xlink="http://www.w3.org/1999/xlink" contentStyleType="text/css" height="911px" preserveAspectRatio="none" style="width:1404px;height:911px;background:#FFFFFF;" version="1.1" viewBox="0 0 1404 911" width="1404px" zoomAndPan="magnify"><defs/><g><text fill="#000000" font-family="sans-serif" font-size="24" font-weight="bold" lengthAdjust="spacing" textLength="769" x="319" y="37.2773">Creation of Settlement Matrix from vNext Participants BC</text><rect fill="#F9FFF9" height="843.6406" style="stroke:#181818;stroke-width:0.5;" width="725" x="280" y="54.9375"/><text fill="#000000" font-family="sans-serif" font-size="13" font-weight="bold" lengthAdjust="spacing" textLength="114" x="583" y="67.0044">Settlements BC</text><rect fill="#FFFFF9" height="843.6406" style="stroke:#181818;stroke-width:0.5;" width="385" x="1007" y="54.9375"/><text fill="#000000" font-family="sans-serif" font-size="13" font-weight="bold" lengthAdjust="spacing" textLength="195" x="1099.5" y="67.0044">Accounts and Balances BC</text><rect fill="none" height="90.5313" style="stroke:#000000;stroke-width:1.5;" width="608" x="10" y="270.1953"/><rect fill="none" height="425.2578" style="stroke:#000000;stroke-width:1.5;" width="1388" x="10" y="374.7266"/><line style="stroke:#181818;stroke-width:0.5;stroke-dasharray:5.0,5.0;" x1="73" x2="73" y1="152.6641" y2="816.9844"/><line style="stroke:#181818;stroke-width:0.5;stroke-dasharray:5.0,5.0;" x1="345" x2="345" y1="152.6641" y2="816.9844"/><line style="stroke:#181818;stroke-width:0.5;stroke-dasharray:5.0,5.0;" x1="546" x2="546" y1="152.6641" y2="816.9844"/><line style="stroke:#181818;stroke-width:0.5;stroke-dasharray:5.0,5.0;" x1="955" x2="955" y1="152.6641" y2="816.9844"/><line style="stroke:#181818;stroke-width:0.5;stroke-dasharray:5.0,5.0;" x1="1082" x2="1082" y1="152.6641" y2="816.9844"/><line style="stroke:#181818;stroke-width:0.5;stroke-dasharray:5.0,5.0;" x1="1311" x2="1311" y1="152.6641" y2="816.9844"/><rect fill="#E2E2F0" height="30.2969" rx="2.5" ry="2.5" style="stroke:#181818;stroke-width:0.5;" width="107" x="20" y="121.3672"/><text fill="#000000" font-family="sans-serif" font-size="14" lengthAdjust="spacing" textLength="93" x="27" y="141.3623">vNext UI / API</text><rect fill="#E2E2F0" height="30.2969" rx="2.5" ry="2.5" style="stroke:#181818;stroke-width:0.5;" width="107" x="20" y="815.9844"/><text fill="#000000" font-family="sans-serif" font-size="14" lengthAdjust="spacing" textLength="93" x="27" y="835.9795">vNext UI / API</text><rect fill="#D5E8D4" height="46.5938" rx="2.5" ry="2.5" style="stroke:#181818;stroke-width:0.5;" width="123" x="284" y="105.0703"/><text fill="#000000" font-family="sans-serif" font-size="14" lengthAdjust="spacing" textLength="109" x="291" y="125.0654">Settlements BC</text><text fill="#000000" font-family="sans-serif" font-size="14" font-weight="bold" lengthAdjust="spacing" textLength="67" x="312" y="141.3623">Rest API</text><rect fill="#D5E8D4" height="46.5938" rx="2.5" ry="2.5" style="stroke:#181818;stroke-width:0.5;" width="123" x="284" y="815.9844"/><text fill="#000000" font-family="sans-serif" font-size="14" lengthAdjust="spacing" textLength="109" x="291" y="835.9795">Settlements BC</text><text fill="#000000" font-family="sans-serif" font-size="14" font-weight="bold" lengthAdjust="spacing" textLength="67" x="312" y="852.2764">Rest API</text><rect fill="#EDC54D" height="46.5938" rx="2.5" ry="2.5" style="stroke:#181818;stroke-width:0.5;" width="123" x="485" y="105.0703"/><text fill="#000000" font-family="sans-serif" font-size="14" lengthAdjust="spacing" textLength="109" x="492" y="125.0654">Settlements BC</text><text fill="#000000" font-family="sans-serif" font-size="14" font-weight="bold" lengthAdjust="spacing" textLength="108" x="492.5" y="141.3623">Domain Logic</text><rect fill="#EDC54D" height="46.5938" rx="2.5" ry="2.5" style="stroke:#181818;stroke-width:0.5;" width="123" x="485" y="815.9844"/><text fill="#000000" font-family="sans-serif" font-size="14" lengthAdjust="spacing" textLength="109" x="492" y="835.9795">Settlements BC</text><text fill="#000000" font-family="sans-serif" font-size="14" font-weight="bold" lengthAdjust="spacing" textLength="108" x="492.5" y="852.2764">Domain Logic</text><text fill="#000000" font-family="sans-serif" font-size="14" lengthAdjust="spacing" textLength="85" x="910" y="133.0654">Settlements</text><text fill="#000000" font-family="sans-serif" font-size="14" font-weight="bold" lengthAdjust="spacing" textLength="74" x="915.5" y="149.3623">Database</text><path d="M937.5,84.0703 C937.5,74.0703 955.5,74.0703 955.5,74.0703 C955.5,74.0703 973.5,74.0703 973.5,84.0703 L973.5,110.0703 C973.5,120.0703 955.5,120.0703 955.5,120.0703 C955.5,120.0703 937.5,120.0703 937.5,110.0703 L937.5,84.0703 " fill="#DAE8FC" style="stroke:#181818;stroke-width:1.5;"/><path d="M937.5,84.0703 C937.5,94.0703 955.5,94.0703 955.5,94.0703 C955.5,94.0703 973.5,94.0703 973.5,84.0703 " fill="none" style="stroke:#181818;stroke-width:1.5;"/><text fill="#000000" font-family="sans-serif" font-size="14" lengthAdjust="spacing" textLength="85" x="910" y="828.9795">Settlements</text><text fill="#000000" font-family="sans-serif" font-size="14" font-weight="bold" lengthAdjust="spacing" textLength="74" x="915.5" y="845.2764">Database</text><path d="M937.5,858.5781 C937.5,848.5781 955.5,848.5781 955.5,848.5781 C955.5,848.5781 973.5,848.5781 973.5,858.5781 L973.5,884.5781 C973.5,894.5781 955.5,894.5781 955.5,894.5781 C955.5,894.5781 937.5,894.5781 937.5,884.5781 L937.5,858.5781 " fill="#DAE8FC" style="stroke:#181818;stroke-width:1.5;"/><path d="M937.5,858.5781 C937.5,868.5781 955.5,868.5781 955.5,868.5781 C955.5,868.5781 973.5,868.5781 973.5,858.5781 " fill="none" style="stroke:#181818;stroke-width:1.5;"/><rect fill="#D5E8D4" height="62.8906" rx="2.5" ry="2.5" style="stroke:#181818;stroke-width:0.5;" width="142" x="1011" y="88.7734"/><text fill="#000000" font-family="sans-serif" font-size="14" lengthAdjust="spacing" textLength="31" x="1066.5" y="108.7686">A&amp;B</text><text fill="#000000" font-family="sans-serif" font-size="14" lengthAdjust="spacing" textLength="128" x="1018" y="125.0654">Chart-of-Accounts</text><text fill="#000000" font-family="sans-serif" font-size="14" font-weight="bold" lengthAdjust="spacing" textLength="31" x="1066.5" y="141.3623">SVC</text><rect fill="#D5E8D4" height="62.8906" rx="2.5" ry="2.5" style="stroke:#181818;stroke-width:0.5;" width="142" x="1011" y="815.9844"/><text fill="#000000" font-family="sans-serif" font-size="14" lengthAdjust="spacing" textLength="31" x="1066.5" y="835.9795">A&amp;B</text><text fill="#000000" font-family="sans-serif" font-size="14" lengthAdjust="spacing" textLength="128" x="1018" y="852.2764">Chart-of-Accounts</text><text fill="#000000" font-family="sans-serif" font-size="14" font-weight="bold" lengthAdjust="spacing" textLength="31" x="1066.5" y="868.5732">SVC</text><rect fill="#DAE8FC" height="62.8906" rx="2.5" ry="2.5" style="stroke:#181818;stroke-width:0.5;" width="154" x="1234" y="88.7734"/><text fill="#000000" font-family="sans-serif" font-size="14" lengthAdjust="spacing" textLength="31" x="1295.5" y="108.7686">A&amp;B</text><text fill="#000000" font-family="sans-serif" font-size="14" lengthAdjust="spacing" textLength="50" x="1268.5" y="125.0654">Ledger</text><text fill="#000000" font-family="sans-serif" font-size="14" font-weight="bold" lengthAdjust="spacing" textLength="31" x="1322.5" y="125.0654">SVC</text><text fill="#000000" font-family="sans-serif" font-size="14" lengthAdjust="spacing" textLength="140" x="1241" y="141.3623">TigerBeetle / builtin</text><rect fill="#DAE8FC" height="62.8906" rx="2.5" ry="2.5" style="stroke:#181818;stroke-width:0.5;" width="154" x="1234" y="815.9844"/><text fill="#000000" font-family="sans-serif" font-size="14" lengthAdjust="spacing" textLength="31" x="1295.5" y="835.9795">A&amp;B</text><text fill="#000000" font-family="sans-serif" font-size="14" lengthAdjust="spacing" textLength="50" x="1268.5" y="852.2764">Ledger</text><text fill="#000000" font-family="sans-serif" font-size="14" font-weight="bold" lengthAdjust="spacing" textLength="31" x="1322.5" y="852.2764">SVC</text><text fill="#000000" font-family="sans-serif" font-size="14" lengthAdjust="spacing" textLength="140" x="1241" y="868.5732">TigerBeetle / builtin</text><path d="M978,167.6641 L978,207.6641 L1185,207.6641 L1185,177.6641 L1175,167.6641 L978,167.6641 " fill="#FEFFDD" style="stroke:#181818;stroke-width:0.5;"/><path d="M1175,167.6641 L1175,177.6641 L1185,177.6641 L1175,167.6641 " fill="#FEFFDD" style="stroke:#181818;stroke-width:0.5;"/><text fill="#000000" font-family="sans-serif" font-size="13" lengthAdjust="spacing" textLength="177" x="993" y="184.731">Exposed gRPC interface for</text><text fill="#000000" font-family="sans-serif" font-size="13" lengthAdjust="spacing" textLength="140" x="1011.5" y="199.8638">Accounts &amp; Balances.</text><path d="M1240,217.9297 L1240,257.9297 L1381,257.9297 L1381,227.9297 L1371,217.9297 L1240,217.9297 " fill="#FEFFDD" style="stroke:#181818;stroke-width:0.5;"/><path d="M1371,217.9297 L1371,227.9297 L1381,227.9297 L1371,217.9297 " fill="#FEFFDD" style="stroke:#181818;stroke-width:0.5;"/><text fill="#000000" font-family="sans-serif" font-size="13" lengthAdjust="spacing" textLength="75" x="1273" y="234.9966">TigerBeetle</text><text fill="#000000" font-family="sans-serif" font-size="13" lengthAdjust="spacing" textLength="111" x="1255" y="250.1294">enabled/disabled</text><path d="M10,270.1953 L477,270.1953 L477,277.3281 L467,287.3281 L10,287.3281 L10,270.1953 " fill="#EEEEEE" style="stroke:#000000;stroke-width:1.5;"/><rect fill="none" height="90.5313" style="stroke:#000000;stroke-width:1.5;" width="608" x="10" y="270.1953"/><text fill="#000000" font-family="sans-serif" font-size="13" font-weight="bold" lengthAdjust="spacing" textLength="422" x="25" y="283.2622">1. Trigger Settlement Matrix - Central Ledger / Admin API</text><polygon fill="#181818" points="333.5,304.4609,343.5,308.4609,333.5,312.4609,337.5,308.4609" style="stroke:#181818;stroke-width:1.0;"/><line style="stroke:#181818;stroke-width:1.0;" x1="73.5" x2="339.5" y1="308.4609" y2="308.4609"/><text fill="#000000" font-family="sans-serif" font-size="13" font-weight="bold" lengthAdjust="spacing" textLength="9" x="80.5" y="303.395">1</text><text fill="#000000" font-family="sans-serif" font-size="13" lengthAdjust="spacing" textLength="175" x="93.5" y="303.395">Request settlement matrix</text><polygon fill="#181818" points="534.5,348.7266,544.5,352.7266,534.5,356.7266,538.5,352.7266" style="stroke:#181818;stroke-width:1.0;"/><line style="stroke:#181818;stroke-width:1.0;" x1="345.5" x2="540.5" y1="352.7266" y2="352.7266"/><text fill="#000000" font-family="sans-serif" font-size="13" font-weight="bold" lengthAdjust="spacing" textLength="9" x="352.5" y="340.0942">2</text><text fill="#000000" font-family="sans-serif" font-size="13" lengthAdjust="spacing" textLength="44" x="365.5" y="332.5278">Invoke</text><text fill="#000000" font-family="sans-serif" font-size="13" lengthAdjust="spacing" textLength="84" x="365.5" y="347.6606">domain logic</text><path d="M10,374.7266 L320,374.7266 L320,381.8594 L310,391.8594 L10,391.8594 L10,374.7266 " fill="#EEEEEE" style="stroke:#000000;stroke-width:1.5;"/><rect fill="none" height="425.2578" style="stroke:#000000;stroke-width:1.5;" width="1388" x="10" y="374.7266"/><text fill="#000000" font-family="sans-serif" font-size="13" font-weight="bold" lengthAdjust="spacing" textLength="265" x="25" y="387.7935">2. Settlement Matrix - Domain Logic</text><line style="stroke:#181818;stroke-width:1.0;" x1="546.5" x2="588.5" y1="458.3906" y2="458.3906"/><line style="stroke:#181818;stroke-width:1.0;" x1="588.5" x2="588.5" y1="458.3906" y2="471.3906"/><line style="stroke:#181818;stroke-width:1.0;" x1="547.5" x2="588.5" y1="471.3906" y2="471.3906"/><polygon fill="#181818" points="557.5,467.3906,547.5,471.3906,557.5,475.3906,553.5,471.3906" style="stroke:#181818;stroke-width:1.0;"/><text fill="#000000" font-family="sans-serif" font-size="13" font-weight="bold" lengthAdjust="spacing" textLength="9" x="553.5" y="430.6255">1</text><text fill="#000000" font-family="sans-serif" font-size="13" lengthAdjust="spacing" textLength="216" x="566.5" y="407.9263">Settlement Matrix triggered with:</text><text fill="#000000" font-family="sans-serif" font-size="13" lengthAdjust="spacing" textLength="16" x="566.5" y="423.0591">-&gt;</text><text fill="#000000" font-family="sans-serif" font-size="13" font-weight="bold" lengthAdjust="spacing" textLength="78" x="586.5" y="423.0591">From Date</text><text fill="#000000" font-family="sans-serif" font-size="13" lengthAdjust="spacing" textLength="42" x="668.5" y="423.0591">- From</text><text fill="#000000" font-family="sans-serif" font-size="13" lengthAdjust="spacing" textLength="16" x="566.5" y="438.1919">-&gt;</text><text fill="#000000" font-family="sans-serif" font-size="13" font-weight="bold" lengthAdjust="spacing" textLength="58" x="586.5" y="438.1919">To Date</text><text fill="#000000" font-family="sans-serif" font-size="13" lengthAdjust="spacing" textLength="25" x="648.5" y="438.1919">- To</text><text fill="#000000" font-family="sans-serif" font-size="13" lengthAdjust="spacing" textLength="16" x="566.5" y="453.3247">-&gt;</text><text fill="#000000" font-family="sans-serif" font-size="13" font-weight="bold" lengthAdjust="spacing" textLength="130" x="586.5" y="453.3247">Settlement Model</text><text fill="#000000" font-family="sans-serif" font-size="13" lengthAdjust="spacing" textLength="48" x="720.5" y="453.3247">- Model</text><polygon fill="#181818" points="943.5,496.5234,953.5,500.5234,943.5,504.5234,947.5,500.5234" style="stroke:#181818;stroke-width:1.0;"/><line style="stroke:#181818;stroke-width:1.0;" x1="546.5" x2="949.5" y1="500.5234" y2="500.5234"/><text fill="#000000" font-family="sans-serif" font-size="13" font-weight="bold" lengthAdjust="spacing" textLength="9" x="553.5" y="495.4575">2</text><text fill="#000000" font-family="sans-serif" font-size="13" lengthAdjust="spacing" textLength="372" x="566.5" y="495.4575">Fetch all batches that form part of the settlement criteria</text><polygon fill="#181818" points="943.5,540.7891,953.5,544.7891,943.5,548.7891,947.5,544.7891" style="stroke:#181818;stroke-width:1.0;"/><line style="stroke:#181818;stroke-width:1.0;" x1="546.5" x2="949.5" y1="544.7891" y2="544.7891"/><text fill="#000000" font-family="sans-serif" font-size="13" font-weight="bold" lengthAdjust="spacing" textLength="9" x="553.5" y="532.1567">3</text><text fill="#000000" font-family="sans-serif" font-size="13" lengthAdjust="spacing" textLength="36" x="566.5" y="524.5903">Close</text><text fill="#000000" font-family="sans-serif" font-size="13" font-style="italic" lengthAdjust="spacing" textLength="36" x="606.5" y="524.5903">OPEN</text><text fill="#000000" font-family="sans-serif" font-size="13" lengthAdjust="spacing" textLength="240" x="646.5" y="524.5903">settlement batches which forms part</text><text fill="#000000" font-family="sans-serif" font-size="13" lengthAdjust="spacing" textLength="263" x="566.5" y="539.7231">of the settlement matrix request criteria</text><polygon fill="#181818" points="1070,585.0547,1080,589.0547,1070,593.0547,1074,589.0547" style="stroke:#181818;stroke-width:1.0;"/><line style="stroke:#181818;stroke-width:1.0;" x1="546.5" x2="1076" y1="589.0547" y2="589.0547"/><text fill="#000000" font-family="sans-serif" font-size="13" font-weight="bold" lengthAdjust="spacing" textLength="9" x="553.5" y="576.4224">4</text><text fill="#000000" font-family="sans-serif" font-size="13" lengthAdjust="spacing" textLength="125" x="566.5" y="568.856">Obtain Debit/Credit</text><text fill="#000000" font-family="sans-serif" font-size="13" font-weight="bold" lengthAdjust="spacing" textLength="153" x="695.5" y="568.856">Settlement Accounts</text><text fill="#000000" font-family="sans-serif" font-size="13" lengthAdjust="spacing" textLength="114" x="852.5" y="568.856">based on batches</text><text fill="#000000" font-family="sans-serif" font-size="13" lengthAdjust="spacing" textLength="137" x="566.5" y="583.9888">Single bulk/array call</text><polygon fill="#181818" points="1299,614.1875,1309,618.1875,1299,622.1875,1303,618.1875" style="stroke:#181818;stroke-width:1.0;"/><line style="stroke:#181818;stroke-width:1.0;" x1="1082" x2="1305" y1="618.1875" y2="618.1875"/><text fill="#000000" font-family="sans-serif" font-size="13" font-weight="bold" lengthAdjust="spacing" textLength="9" x="1089" y="613.1216">5</text><text fill="#000000" font-family="sans-serif" font-size="13" lengthAdjust="spacing" textLength="35" x="1102" y="613.1216">Fetch</text><text fill="#000000" font-family="sans-serif" font-size="13" font-weight="bold" lengthAdjust="spacing" textLength="153" x="1141" y="613.1216">Settlement Accounts</text><polygon fill="#181818" points="557.5,643.3203,547.5,647.3203,557.5,651.3203,553.5,647.3203" style="stroke:#181818;stroke-width:1.0;"/><line style="stroke:#181818;stroke-width:1.0;" x1="551.5" x2="1081" y1="647.3203" y2="647.3203"/><text fill="#000000" font-family="sans-serif" font-size="13" font-weight="bold" lengthAdjust="spacing" textLength="9" x="563.5" y="642.2544">6</text><text fill="#000000" font-family="sans-serif" font-size="13" lengthAdjust="spacing" textLength="43" x="576.5" y="642.2544">Return</text><text fill="#000000" font-family="sans-serif" font-size="13" font-weight="bold" lengthAdjust="spacing" textLength="153" x="623.5" y="642.2544">Settlement Accounts</text><text fill="#000000" font-family="sans-serif" font-size="13" lengthAdjust="spacing" textLength="114" x="780.5" y="642.2544">based on batches</text><line style="stroke:#181818;stroke-width:1.0;" x1="546.5" x2="588.5" y1="676.4531" y2="676.4531"/><line style="stroke:#181818;stroke-width:1.0;" x1="588.5" x2="588.5" y1="676.4531" y2="689.4531"/><line style="stroke:#181818;stroke-width:1.0;" x1="547.5" x2="588.5" y1="689.4531" y2="689.4531"/><polygon fill="#181818" points="557.5,685.4531,547.5,689.4531,557.5,693.4531,553.5,689.4531" style="stroke:#181818;stroke-width:1.0;"/><text fill="#000000" font-family="sans-serif" font-size="13" font-weight="bold" lengthAdjust="spacing" textLength="9" x="553.5" y="671.3872">7</text><text fill="#000000" font-family="sans-serif" font-size="13" lengthAdjust="spacing" textLength="196" x="566.5" y="671.3872">Prepare the Settlement Matrix</text><polygon fill="#181818" points="943.5,714.5859,953.5,718.5859,943.5,722.5859,947.5,718.5859" style="stroke:#181818;stroke-width:1.0;"/><line style="stroke:#181818;stroke-width:1.0;" x1="546.5" x2="949.5" y1="718.5859" y2="718.5859"/><text fill="#000000" font-family="sans-serif" font-size="13" font-weight="bold" lengthAdjust="spacing" textLength="9" x="553.5" y="713.52">8</text><text fill="#000000" font-family="sans-serif" font-size="13" lengthAdjust="spacing" textLength="190" x="566.5" y="713.52">Persist the Settlement Matrix</text><polygon fill="#181818" points="356.5,743.7188,346.5,747.7188,356.5,751.7188,352.5,747.7188" style="stroke:#181818;stroke-width:1.0;"/><line style="stroke:#181818;stroke-width:1.0;" x1="350.5" x2="545.5" y1="747.7188" y2="747.7188"/><text fill="#000000" font-family="sans-serif" font-size="13" font-weight="bold" lengthAdjust="spacing" textLength="9" x="362.5" y="742.6528">9</text><text fill="#000000" font-family="sans-serif" font-size="13" lengthAdjust="spacing" textLength="164" x="375.5" y="742.6528">Return Settlement Matrix</text><polygon fill="#181818" points="84.5,787.9844,74.5,791.9844,84.5,795.9844,80.5,791.9844" style="stroke:#181818;stroke-width:1.0;"/><line style="stroke:#181818;stroke-width:1.0;" x1="78.5" x2="344.5" y1="791.9844" y2="791.9844"/><text fill="#000000" font-family="sans-serif" font-size="13" font-weight="bold" lengthAdjust="spacing" textLength="18" x="90.5" y="779.3521">10</text><text fill="#000000" font-family="sans-serif" font-size="13" lengthAdjust="spacing" textLength="226" x="112.5" y="771.7856">Return Settlement Matrix for caller</text><text fill="#000000" font-family="sans-serif" font-size="13" font-style="italic" font-weight="bold" lengthAdjust="spacing" textLength="158" x="112.5" y="786.9185">ISettlementMatrixDto</text><!--SRC=[bLJRQkCm47sEls9eeG-1r6nfeGsba3Wn17e9INQV0a6s9uweBNbbkKrtsN_VaUp4pctRpKEmHZFdpEMCxdFzaU23exbE47ux0BuKUif_8LnTEt-SUxToSF9NBZAcM0eHBbcHw1ckTI_XiKXHQ0Zf3rN3AyUV1OeGdp3FMOpM4n9SQgSYynGopQK0kOGfQZ9Pe2Uc5L_3KiaKtfw90yPCQHxoZ0cTGzzp72UhBN1MEdqVWGkzyUWCM0vaM6Z5HBv4bI-2q742kMwG61Wuz-zytxzpMZjekqvpqMvFCDS6kTsss7aGBfGndGzkXhU3wq_Z1p9bNC2ZZ7dOm61PjaYC3Sw70-_cUk2q8gPPm7BSGR4GrKKZF0eeWTxmrlSS515GVMMHlJ2KXI5dPEspXD48gd9zMoxGRoVZtaL_BhmLcJfosTd46zhf3wzYP05HnYeBjrKVXtd4A4O5LUXSp3WT-uXctYu41Kyq5pMYDjT1URsfnW0BgH7a6o5jYQtT_8RhJEOOGJmPUy2Dw9OiH5XAjNNPzk1Ysu5BUsawPR2FaJHoSLgjHk9qGi6212Ctuhdzs0NRzZzMiiZWsoNC58zD7mvbtG6FJeebKBMAH1kb90yIcCCABKMH1bYMigzYw3pKwkl2n2mOVUKrIMf9RF3MiGggvTQ5aNYJhpWNKQbCQpPLR2gukZoQULF8-xdkKknpTe_WwR97DCbthbVTkQ2WTjitQqzo9waJepbL5pDPcsUoCZPHPOI9lRLVfvEYnUc2ZpfS0KiI21XzqORe5TD6HAbLjNcJz0gRlGqL9wrnzWcobv0wmNLVniDdrsq2R9ZULvou3LLUSit58LivIL3LZFzDNczd5ru2ROOqm81hbvxOYElTHcsMWtfbdfG8w0MkKfkBAHSnxM9G9AykKufzG4XDigmroOQniJ6RZfvWEWJOb-G4TQ74bpFzWkO8TAoG6eosjmS2_6IEOzevJft_pzZjRjfoJWTkLlDWnq_76idOSQ0oZxFhZcgNqcEWfUjIjyqg_mK0]--></g></svg>