<?xml version="1.0" encoding="UTF-8" standalone="no"?><svg xmlns="http://www.w3.org/2000/svg" xmlns:xlink="http://www.w3.org/1999/xlink" contentStyleType="text/css" height="1070px" preserveAspectRatio="none" style="width:1481px;height:1070px;background:#FFFFFF;" version="1.1" viewBox="0 0 1481 1070" width="1481px" zoomAndPan="magnify"><defs/><g><text fill="#000000" font-family="sans-serif" font-size="14" font-weight="bold" lengthAdjust="spacing" textLength="798" x="337.5" y="29.9659">Settlement Matrix in Central-Ledger - Refer to Reference Architecture: [https://miro.com/app/board/o9J_lJyA1TA=/]</text><rect fill="#F9FFF9" height="1011.6103" style="stroke:#181818;stroke-width:0.5;" width="819.5" x="287" y="46.0679"/><text fill="#000000" font-family="sans-serif" font-size="13" font-weight="bold" lengthAdjust="spacing" textLength="101" x="644.75" y="59.9649">Settlements BC</text><rect fill="#FFFFF9" height="1011.6103" style="stroke:#181818;stroke-width:0.5;" width="296.5" x="1108.5" y="46.0679"/><text fill="#000000" font-family="sans-serif" font-size="13" font-weight="bold" lengthAdjust="spacing" textLength="171" x="1169.75" y="59.9649">Accounts and Balances BC</text><rect fill="none" height="83.118" style="stroke:#000000;stroke-width:1.5;" width="672.5" x="10" y="298.3719"/><rect fill="none" height="577.1203" style="stroke:#000000;stroke-width:1.5;" width="1401" x="10" y="395.49"/><line style="stroke:#181818;stroke-width:0.5;stroke-dasharray:5.0,5.0;" x1="77" x2="77" y1="132.8419" y2="989.6103"/><line style="stroke:#181818;stroke-width:0.5;stroke-dasharray:5.0,5.0;" x1="325" x2="325" y1="132.8419" y2="989.6103"/><line style="stroke:#181818;stroke-width:0.5;stroke-dasharray:5.0,5.0;" x1="424" x2="424" y1="132.8419" y2="989.6103"/><line style="stroke:#181818;stroke-width:0.5;stroke-dasharray:5.0,5.0;" x1="614.5" x2="614.5" y1="132.8419" y2="989.6103"/><line style="stroke:#181818;stroke-width:0.5;stroke-dasharray:5.0,5.0;" x1="1025.5" x2="1025.5" y1="132.8419" y2="989.6103"/><line style="stroke:#181818;stroke-width:0.5;stroke-dasharray:5.0,5.0;" x1="1147.5" x2="1147.5" y1="132.8419" y2="989.6103"/><line style="stroke:#181818;stroke-width:0.5;stroke-dasharray:5.0,5.0;" x1="1358" x2="1358" y1="132.8419" y2="989.6103"/><rect fill="#E2E2F0" height="33.0679" rx="2.5" ry="2.5" style="stroke:#181818;stroke-width:0.5;" width="115" x="20" y="98.7739"/><text fill="#000000" font-family="sans-serif" font-size="14" lengthAdjust="spacing" textLength="101" x="27" y="120.7399">Central-Ledger</text><rect fill="#E2E2F0" height="33.0679" rx="2.5" ry="2.5" style="stroke:#181818;stroke-width:0.5;" width="115" x="20" y="988.6103"/><text fill="#000000" font-family="sans-serif" font-size="14" lengthAdjust="spacing" textLength="101" x="27" y="1010.5762">Central-Ledger</text><rect fill="#D5E8D4" height="33.0679" rx="2.5" ry="2.5" style="stroke:#181818;stroke-width:0.5;" width="69" x="291" y="98.7739"/><text fill="#000000" font-family="sans-serif" font-size="14" lengthAdjust="spacing" textLength="55" x="298" y="120.7399">Rest API</text><rect fill="#D5E8D4" height="33.0679" rx="2.5" ry="2.5" style="stroke:#181818;stroke-width:0.5;" width="69" x="291" y="988.6103"/><text fill="#000000" font-family="sans-serif" font-size="14" lengthAdjust="spacing" textLength="55" x="298" y="1010.5762">Rest API</text><rect fill="#D5E8D4" height="33.0679" rx="2.5" ry="2.5" style="stroke:#181818;stroke-width:0.5;" width="109" x="370" y="98.7739"/><text fill="#000000" font-family="sans-serif" font-size="14" lengthAdjust="spacing" textLength="95" x="377" y="120.7399">Event Handler</text><rect fill="#D5E8D4" height="33.0679" rx="2.5" ry="2.5" style="stroke:#181818;stroke-width:0.5;" width="109" x="370" y="988.6103"/><text fill="#000000" font-family="sans-serif" font-size="14" lengthAdjust="spacing" textLength="95" x="377" y="1010.5762">Event Handler</text><rect fill="#EDC54D" height="52.1358" rx="2.5" ry="2.5" style="stroke:#181818;stroke-width:0.5;" width="116" x="556.5" y="79.706"/><text fill="#000000" font-family="sans-serif" font-size="14" lengthAdjust="spacing" textLength="102" x="563.5" y="101.672">Settlements BC</text><text fill="#000000" font-family="sans-serif" font-size="14" lengthAdjust="spacing" textLength="66" x="581.5" y="120.7399">App Logic</text><rect fill="#EDC54D" height="52.1358" rx="2.5" ry="2.5" style="stroke:#181818;stroke-width:0.5;" width="116" x="556.5" y="988.6103"/><text fill="#000000" font-family="sans-serif" font-size="14" lengthAdjust="spacing" textLength="102" x="563.5" y="1010.5762">Settlements BC</text><text fill="#000000" font-family="sans-serif" font-size="14" lengthAdjust="spacing" textLength="66" x="581.5" y="1029.6442">App Logic</text><text fill="#000000" font-family="sans-serif" font-size="14" lengthAdjust="spacing" textLength="148" x="948.5" y="128.7399">Settlements-Database</text><path d="M1007.5,77.7739 C1007.5,67.7739 1025.5,67.7739 1025.5,67.7739 C1025.5,67.7739 1043.5,67.7739 1043.5,77.7739 L1043.5,103.7739 C1043.5,113.7739 1025.5,113.7739 1025.5,113.7739 C1025.5,113.7739 1007.5,113.7739 1007.5,103.7739 L1007.5,77.7739 " fill="#DAE8FC" style="stroke:#181818;stroke-width:1.5;"/><path d="M1007.5,77.7739 C1007.5,87.7739 1025.5,87.7739 1025.5,87.7739 C1025.5,87.7739 1043.5,87.7739 1043.5,77.7739 " fill="none" style="stroke:#181818;stroke-width:1.5;"/><text fill="#000000" font-family="sans-serif" font-size="14" lengthAdjust="spacing" textLength="148" x="948.5" y="1003.5762">Settlements-Database</text><path d="M1007.5,1017.6782 C1007.5,1007.6782 1025.5,1007.6782 1025.5,1007.6782 C1025.5,1007.6782 1043.5,1007.6782 1043.5,1017.6782 L1043.5,1043.6782 C1043.5,1053.6782 1025.5,1053.6782 1025.5,1053.6782 C1025.5,1053.6782 1007.5,1053.6782 1007.5,1043.6782 L1007.5,1017.6782 " fill="#DAE8FC" style="stroke:#181818;stroke-width:1.5;"/><path d="M1007.5,1017.6782 C1007.5,1027.6782 1025.5,1027.6782 1025.5,1027.6782 C1025.5,1027.6782 1043.5,1027.6782 1043.5,1017.6782 " fill="none" style="stroke:#181818;stroke-width:1.5;"/><rect fill="#D5E8D4" height="33.0679" rx="2.5" ry="2.5" style="stroke:#181818;stroke-width:0.5;" width="71" x="1112.5" y="98.7739"/><text fill="#000000" font-family="sans-serif" font-size="14" lengthAdjust="spacing" textLength="57" x="1119.5" y="120.7399">A&amp;B SVC</text><rect fill="#D5E8D4" height="33.0679" rx="2.5" ry="2.5" style="stroke:#181818;stroke-width:0.5;" width="71" x="1112.5" y="988.6103"/><text fill="#000000" font-family="sans-serif" font-size="14" lengthAdjust="spacing" textLength="57" x="1119.5" y="1010.5762">A&amp;B SVC</text><text fill="#000000" font-family="sans-serif" font-size="14" lengthAdjust="spacing" textLength="80" x="1315" y="128.7399">A&amp;B-Ledger</text><path d="M1340,77.7739 C1340,67.7739 1358,67.7739 1358,67.7739 C1358,67.7739 1376,67.7739 1376,77.7739 L1376,103.7739 C1376,113.7739 1358,113.7739 1358,113.7739 C1358,113.7739 1340,113.7739 1340,103.7739 L1340,77.7739 " fill="#DAE8FC" style="stroke:#181818;stroke-width:1.5;"/><path d="M1340,77.7739 C1340,87.7739 1358,87.7739 1358,87.7739 C1358,87.7739 1376,87.7739 1376,77.7739 " fill="none" style="stroke:#181818;stroke-width:1.5;"/><text fill="#000000" font-family="sans-serif" font-size="14" lengthAdjust="spacing" textLength="80" x="1315" y="1003.5762">A&amp;B-Ledger</text><path d="M1340,1017.6782 C1340,1007.6782 1358,1007.6782 1358,1007.6782 C1358,1007.6782 1376,1007.6782 1376,1017.6782 L1376,1043.6782 C1376,1053.6782 1358,1053.6782 1358,1053.6782 C1358,1053.6782 1340,1053.6782 1340,1043.6782 L1340,1017.6782 " fill="#DAE8FC" style="stroke:#181818;stroke-width:1.5;"/><path d="M1340,1017.6782 C1340,1027.6782 1358,1027.6782 1358,1027.6782 C1358,1027.6782 1376,1027.6782 1376,1017.6782 " fill="none" style="stroke:#181818;stroke-width:1.5;"/><path d="M300,147.8419 L300,192.8419 L549,192.8419 L549,157.8419 L539,147.8419 L300,147.8419 " fill="#FEFFDD" style="stroke:#181818;stroke-width:0.5;"/><path d="M539,147.8419 L539,157.8419 L549,157.8419 L539,147.8419 " fill="#FEFFDD" style="stroke:#181818;stroke-width:0.5;"/><text fill="#000000" font-family="sans-serif" font-size="13" lengthAdjust="spacing" textLength="74" x="306" y="166.7389">Kafka Topics</text><text fill="#000000" font-family="sans-serif" font-size="13" lengthAdjust="spacing" textLength="228" x="306" y="184.4449">- Topic for Settlement Matrix Accounts</text><path d="M1057,203.2539 L1057,248.2539 L1239,248.2539 L1239,213.2539 L1229,203.2539 L1057,203.2539 " fill="#FEFFDD" style="stroke:#181818;stroke-width:0.5;"/><path d="M1229,203.2539 L1229,213.2539 L1239,213.2539 L1229,203.2539 " fill="#FEFFDD" style="stroke:#181818;stroke-width:0.5;"/><text fill="#000000" font-family="sans-serif" font-size="13" lengthAdjust="spacing" textLength="161" x="1063" y="222.1509">Exposed gRPC interface for</text><text fill="#000000" font-family="sans-serif" font-size="13" lengthAdjust="spacing" textLength="126" x="1063" y="239.8569">Accounts &amp; Balances.</text><path d="M1247,258.6659 L1247,285.6659 L1469,285.6659 L1469,268.6659 L1459,258.6659 L1247,258.6659 " fill="#FEFFDD" style="stroke:#181818;stroke-width:0.5;"/><path d="M1459,258.6659 L1459,268.6659 L1469,268.6659 L1459,258.6659 " fill="#FEFFDD" style="stroke:#181818;stroke-width:0.5;"/><text fill="#000000" font-family="sans-serif" font-size="13" lengthAdjust="spacing" textLength="201" x="1253" y="277.5629">TigerBeetle may be turned off/on.</text><path d="M10,298.3719 L428,298.3719 L428,308.0779 L418,318.0779 L10,318.0779 L10,298.3719 " fill="#EEEEEE" style="stroke:#000000;stroke-width:1.5;"/><rect fill="none" height="83.118" style="stroke:#000000;stroke-width:1.5;" width="672.5" x="10" y="298.3719"/><text fill="#000000" font-family="sans-serif" font-size="13" font-weight="bold" lengthAdjust="spacing" textLength="373" x="25" y="313.2689">1. Trigger Settlement Matrix - Central Ledger / Admin API</text><polygon fill="#181818" points="313.5,337.784,323.5,341.784,313.5,345.784,317.5,341.784" style="stroke:#181818;stroke-width:1.0;"/><line style="stroke:#181818;stroke-width:1.0;" x1="77.5" x2="319.5" y1="341.784" y2="341.784"/><text fill="#000000" font-family="sans-serif" font-size="13" font-weight="bold" lengthAdjust="spacing" textLength="7" x="84.5" y="335.975">1</text><text fill="#000000" font-family="sans-serif" font-size="13" lengthAdjust="spacing" textLength="49" x="95.5" y="335.975">Request</text><text fill="#000000" font-family="sans-serif" font-size="13" font-weight="bold" lengthAdjust="spacing" textLength="122" x="147.5" y="335.975">Settlement Matrix</text><polygon fill="#181818" points="602.5,369.49,612.5,373.49,602.5,377.49,606.5,373.49" style="stroke:#181818;stroke-width:1.0;"/><line style="stroke:#181818;stroke-width:1.0;stroke-dasharray:2.0,2.0;" x1="325.5" x2="608.5" y1="373.49" y2="373.49"/><text fill="#000000" font-family="sans-serif" font-size="13" font-weight="bold" lengthAdjust="spacing" textLength="7" x="332.5" y="367.681">2</text><text fill="#000000" font-family="sans-serif" font-size="13" lengthAdjust="spacing" textLength="123" x="343.5" y="367.681">Invoke the App layer</text><path d="M10,395.49 L216,395.49 L216,405.196 L206,415.196 L10,415.196 L10,395.49 " fill="#EEEEEE" style="stroke:#000000;stroke-width:1.5;"/><rect fill="none" height="577.1203" style="stroke:#000000;stroke-width:1.5;" width="1401" x="10" y="395.49"/><text fill="#000000" font-family="sans-serif" font-size="13" font-weight="bold" lengthAdjust="spacing" textLength="161" x="25" y="410.387">2. Settlement - App Logic</text><line style="stroke:#181818;stroke-width:1.0;stroke-dasharray:2.0,2.0;" x1="614.5" x2="656.5" y1="509.7261" y2="509.7261"/><line style="stroke:#181818;stroke-width:1.0;stroke-dasharray:2.0,2.0;" x1="656.5" x2="656.5" y1="509.7261" y2="522.7261"/><line style="stroke:#181818;stroke-width:1.0;stroke-dasharray:2.0,2.0;" x1="615.5" x2="656.5" y1="522.7261" y2="522.7261"/><polygon fill="#181818" points="624.5,505.7261,614.5,509.7261,624.5,513.7261,620.5,509.7261" style="stroke:#181818;stroke-width:1.0;"/><polygon fill="#181818" points="625.5,518.7261,615.5,522.7261,625.5,526.7261,621.5,522.7261" style="stroke:#181818;stroke-width:1.0;"/><text fill="#000000" font-family="sans-serif" font-size="13" font-weight="bold" lengthAdjust="spacing" textLength="7" x="621.5" y="468.505">3</text><text fill="#000000" font-family="sans-serif" font-size="13" font-weight="bold" lengthAdjust="spacing" textLength="122" x="632.5" y="433.093">Settlement Matrix</text><text fill="#000000" font-family="sans-serif" font-size="13" lengthAdjust="spacing" textLength="157" x="757.5" y="433.093">generation triggered with:</text><text fill="#000000" font-family="sans-serif" font-size="13" lengthAdjust="spacing" textLength="11" x="632.5" y="450.799">-&gt;</text><text fill="#000000" font-family="sans-serif" font-size="13" font-weight="bold" lengthAdjust="spacing" textLength="69" x="646.5" y="450.799">From Date</text><text fill="#000000" font-family="sans-serif" font-size="13" lengthAdjust="spacing" textLength="39" x="718.5" y="450.799">- From</text><text fill="#000000" font-family="sans-serif" font-size="13" lengthAdjust="spacing" textLength="11" x="632.5" y="468.505">-&gt;</text><text fill="#000000" font-family="sans-serif" font-size="13" font-weight="bold" lengthAdjust="spacing" textLength="51" x="646.5" y="468.505">To Date</text><text fill="#000000" font-family="sans-serif" font-size="13" lengthAdjust="spacing" textLength="22" x="700.5" y="468.505">- To</text><text fill="#000000" font-family="sans-serif" font-size="13" lengthAdjust="spacing" textLength="11" x="632.5" y="486.2111">-&gt;</text><text fill="#000000" font-family="sans-serif" font-size="13" font-weight="bold" lengthAdjust="spacing" textLength="118" x="646.5" y="486.2111">Settlement Model</text><text fill="#000000" font-family="sans-serif" font-size="13" lengthAdjust="spacing" textLength="45" x="767.5" y="486.2111">- Model</text><text fill="#000000" font-family="sans-serif" font-size="13" lengthAdjust="spacing" textLength="11" x="632.5" y="503.9171">-&gt;</text><text fill="#000000" font-family="sans-serif" font-size="13" font-weight="bold" lengthAdjust="spacing" textLength="38" x="646.5" y="503.9171">TODO</text><text fill="#000000" font-family="sans-serif" font-size="13" lengthAdjust="spacing" textLength="66" x="687.5" y="503.9171">- Add more</text><polygon fill="#181818" points="625.5,550.4321,615.5,554.4321,625.5,558.4321,621.5,554.4321" style="stroke:#181818;stroke-width:1.0;"/><polygon fill="#181818" points="1013.5,550.4321,1023.5,554.4321,1013.5,558.4321,1017.5,554.4321" style="stroke:#181818;stroke-width:1.0;"/><line style="stroke:#181818;stroke-width:1.0;stroke-dasharray:2.0,2.0;" x1="619.5" x2="1019.5" y1="554.4321" y2="554.4321"/><text fill="#000000" font-family="sans-serif" font-size="13" font-weight="bold" lengthAdjust="spacing" textLength="7" x="631.5" y="548.6231">4</text><text fill="#000000" font-family="sans-serif" font-size="13" lengthAdjust="spacing" textLength="337" x="642.5" y="548.6231">Fetch all batches that form part of the settlement criteria</text><polygon fill="#181818" points="625.5,599.8441,615.5,603.8441,625.5,607.8441,621.5,603.8441" style="stroke:#181818;stroke-width:1.0;"/><polygon fill="#181818" points="1013.5,599.8441,1023.5,603.8441,1013.5,607.8441,1017.5,603.8441" style="stroke:#181818;stroke-width:1.0;"/><line style="stroke:#181818;stroke-width:1.0;stroke-dasharray:2.0,2.0;" x1="619.5" x2="1019.5" y1="603.8441" y2="603.8441"/><text fill="#000000" font-family="sans-serif" font-size="13" font-weight="bold" lengthAdjust="spacing" textLength="7" x="631.5" y="589.1821">5</text><text fill="#000000" font-family="sans-serif" font-size="13" lengthAdjust="spacing" textLength="32" x="642.5" y="580.3291">Close</text><text fill="#000000" font-family="sans-serif" font-size="13" font-style="italic" lengthAdjust="spacing" textLength="32" x="677.5" y="580.3291">OPEN</text><text fill="#000000" font-family="sans-serif" font-size="13" lengthAdjust="spacing" textLength="219" x="712.5" y="580.3291">settlement batches which forms part</text><text fill="#000000" font-family="sans-serif" font-size="13" lengthAdjust="spacing" textLength="238" x="642.5" y="598.0351">of the settlement matrix request criteria</text><polygon fill="#181818" points="625.5,631.5501,615.5,635.5501,625.5,639.5501,621.5,635.5501" style="stroke:#181818;stroke-width:1.0;"/><polygon fill="#181818" points="1136,631.5501,1146,635.5501,1136,639.5501,1140,635.5501" style="stroke:#181818;stroke-width:1.0;"/><line style="stroke:#181818;stroke-width:1.0;" x1="619.5" x2="1142" y1="635.5501" y2="635.5501"/><text fill="#000000" font-family="sans-serif" font-size="13" font-weight="bold" lengthAdjust="spacing" textLength="7" x="631.5" y="629.7411">6</text><text fill="#000000" font-family="sans-serif" font-size="13" lengthAdjust="spacing" textLength="117" x="642.5" y="629.7411">Obtain Debit/Credit</text><text fill="#000000" font-family="sans-serif" font-size="13" font-weight="bold" lengthAdjust="spacing" textLength="139" x="762.5" y="629.7411">Settlement Accounts</text><text fill="#000000" font-family="sans-serif" font-size="13" lengthAdjust="spacing" textLength="105" x="904.5" y="629.7411">based on batches</text><polygon fill="#181818" points="1159,663.2562,1149,667.2562,1159,671.2562,1155,667.2562" style="stroke:#181818;stroke-width:1.0;"/><polygon fill="#181818" points="1346,663.2562,1356,667.2562,1346,671.2562,1350,667.2562" style="stroke:#181818;stroke-width:1.0;"/><line style="stroke:#181818;stroke-width:1.0;" x1="1153" x2="1352" y1="667.2562" y2="667.2562"/><text fill="#000000" font-family="sans-serif" font-size="13" font-weight="bold" lengthAdjust="spacing" textLength="7" x="1165" y="661.4472">7</text><text fill="#000000" font-family="sans-serif" font-size="13" lengthAdjust="spacing" textLength="33" x="1176" y="661.4472">Fetch</text><text fill="#000000" font-family="sans-serif" font-size="13" font-weight="bold" lengthAdjust="spacing" textLength="139" x="1212" y="661.4472">Settlement Accounts</text><polygon fill="#181818" points="625.5,694.9622,615.5,698.9622,625.5,702.9622,621.5,698.9622" style="stroke:#181818;stroke-width:1.0;"/><polygon fill="#181818" points="1136,694.9622,1146,698.9622,1136,702.9622,1140,698.9622" style="stroke:#181818;stroke-width:1.0;"/><line style="stroke:#181818;stroke-width:1.0;" x1="619.5" x2="1142" y1="698.9622" y2="698.9622"/><text fill="#000000" font-family="sans-serif" font-size="13" font-weight="bold" lengthAdjust="spacing" textLength="7" x="631.5" y="693.1532">8</text><text fill="#000000" font-family="sans-serif" font-size="13" lengthAdjust="spacing" textLength="41" x="642.5" y="693.1532">Return</text><text fill="#000000" font-family="sans-serif" font-size="13" font-weight="bold" lengthAdjust="spacing" textLength="139" x="686.5" y="693.1532">Settlement Accounts</text><text fill="#000000" font-family="sans-serif" font-size="13" lengthAdjust="spacing" textLength="105" x="828.5" y="693.1532">based on batches</text><line style="stroke:#181818;stroke-width:1.0;stroke-dasharray:2.0,2.0;" x1="614.5" x2="656.5" y1="730.6682" y2="730.6682"/><line style="stroke:#181818;stroke-width:1.0;stroke-dasharray:2.0,2.0;" x1="656.5" x2="656.5" y1="730.6682" y2="743.6682"/><line style="stroke:#181818;stroke-width:1.0;stroke-dasharray:2.0,2.0;" x1="615.5" x2="656.5" y1="743.6682" y2="743.6682"/><polygon fill="#181818" points="624.5,726.6682,614.5,730.6682,624.5,734.6682,620.5,730.6682" style="stroke:#181818;stroke-width:1.0;"/><polygon fill="#181818" points="625.5,739.6682,615.5,743.6682,625.5,747.6682,621.5,743.6682" style="stroke:#181818;stroke-width:1.0;"/><text fill="#000000" font-family="sans-serif" font-size="13" font-weight="bold" lengthAdjust="spacing" textLength="7" x="621.5" y="724.8592">9</text><text fill="#000000" font-family="sans-serif" font-size="13" lengthAdjust="spacing" textLength="181" x="632.5" y="724.8592">Prepare the Settlement Matrix</text><polygon fill="#181818" points="336.5,771.3742,326.5,775.3742,336.5,779.3742,332.5,775.3742" style="stroke:#181818;stroke-width:1.0;"/><line style="stroke:#181818;stroke-width:1.0;" x1="330.5" x2="613.5" y1="775.3742" y2="775.3742"/><text fill="#000000" font-family="sans-serif" font-size="13" font-weight="bold" lengthAdjust="spacing" textLength="14" x="342.5" y="769.5652">10</text><text fill="#000000" font-family="sans-serif" font-size="13" lengthAdjust="spacing" textLength="152" x="360.5" y="769.5652">Return Settlement Matrix</text><polygon fill="#181818" points="88.5,803.0802,78.5,807.0802,88.5,811.0802,84.5,807.0802" style="stroke:#181818;stroke-width:1.0;"/><line style="stroke:#181818;stroke-width:1.0;" x1="82.5" x2="324.5" y1="807.0802" y2="807.0802"/><text fill="#000000" font-family="sans-serif" font-size="13" font-weight="bold" lengthAdjust="spacing" textLength="14" x="94.5" y="801.2712">11</text><text fill="#000000" font-family="sans-serif" font-size="13" lengthAdjust="spacing" textLength="206" x="112.5" y="801.2712">Return Settlement Matrix for caller</text><rect fill="#EEEEEE" height="3" style="stroke:#EEEEEE;stroke-width:1.0;" width="1474" x="0" y="836.9332"/><line style="stroke:#000000;stroke-width:1.0;" x1="0" x2="1474" y1="836.9332" y2="836.9332"/><line style="stroke:#000000;stroke-width:1.0;" x1="0" x2="1474" y1="839.9332" y2="839.9332"/><rect fill="#EEEEEE" height="25.706" style="stroke:#000000;stroke-width:2.0;" width="398" x="538" y="825.0802"/><text fill="#000000" font-family="sans-serif" font-size="13" font-weight="bold" lengthAdjust="spacing" textLength="381" x="544" y="842.9772">Publish Settlement Matrix Result for Liquidity Restoration</text><line style="stroke:#181818;stroke-width:1.0;stroke-dasharray:2.0,2.0;" x1="614.5" x2="656.5" y1="884.4923" y2="884.4923"/><line style="stroke:#181818;stroke-width:1.0;stroke-dasharray:2.0,2.0;" x1="656.5" x2="656.5" y1="884.4923" y2="897.4923"/><line style="stroke:#181818;stroke-width:1.0;stroke-dasharray:2.0,2.0;" x1="615.5" x2="656.5" y1="897.4923" y2="897.4923"/><polygon fill="#181818" points="625.5,893.4923,615.5,897.4923,625.5,901.4923,621.5,897.4923" style="stroke:#181818;stroke-width:1.0;"/><text fill="#000000" font-family="sans-serif" font-size="13" font-weight="bold" lengthAdjust="spacing" textLength="7" x="621.5" y="878.6833">1</text><text fill="#000000" font-family="sans-serif" font-size="13" lengthAdjust="spacing" textLength="386" x="632.5" y="878.6833">Create events for each Settlement Batch Account Balance update</text><polygon fill="#181818" points="435.5,960.6103,425.5,964.6103,435.5,968.6103,431.5,964.6103" style="stroke:#181818;stroke-width:1.0;"/><line style="stroke:#181818;stroke-width:1.0;" x1="429.5" x2="613.5" y1="964.6103" y2="964.6103"/><text fill="#000000" font-family="sans-serif" font-size="13" font-weight="bold" lengthAdjust="spacing" textLength="7" x="441.5" y="941.0953">2</text><text fill="#000000" font-family="sans-serif" font-size="13" lengthAdjust="spacing" textLength="132" x="452.5" y="923.3893">Publish event for each</text><text fill="#000000" font-family="sans-serif" font-size="13" lengthAdjust="spacing" textLength="155" x="452.5" y="941.0953">Settlement Batch Account</text><text fill="#000000" font-family="sans-serif" font-size="13" lengthAdjust="spacing" textLength="92" x="452.5" y="958.8013">Balance update</text><!--SRC=[bLNBRjim4BpxAnODa8C1MKYH08bG1v1VQDAqDXoZbxemA6bj4v58XQ8I- - -xf1wMNmdgYwKLERCxd94qrp72CshwIr1e-CcquXlW0lfqgrZiF66qGWKEJ759_reM5oX215-5QwunrBb23_wijKupptKJhcGdb8dBqjGD95EHA-yU5_7Zrh-Q-LttRwkLCgLvo5D6d5_sgRu0om0tUX76hLOWDutsCkZruM9qDngDxbf0lpsOAMOQ_Cc31SY2SA5CuM9mCxmTN1yl7xwPWRyp4SKbgTc3jjhS9AH6a6yqU_tSritl1rk-C9Z9b8TPNNIA0YobEY6j7uOofr7iSXIHnJ_kRd_ekV3J59xaYeTrfoJk8ZOLk1WE-ZVN0miICSq2bk4UWZCeg_NcAA0P_U7jgDyoFP3CXTPLTq2oG8_5Z8wvL7rqMdN_iWVFl_iMcGK4lL9fk2VWhYLQspnakrnpkWqGZH6hblPbhr5hXOURL6OOmMewwPDNDQeb8pkIuFMIUf3BUepEiUG798rUQg2PgVMA_XAsXG21x2w8NIwNhXG7gBMQAoNp5AuwC5DyPH9qR0Md2XcK8NF1ZnBA7fcunN8jHPu4MCnK10AS-vspFKhYQswkskqZy7RRRgiNE-NEdMiyU11lyeN6MLEIoLunsn8P3L0r_xNJRDg1seCrz0xjsn61TxejMA50nJIN0dGX3MdvplNQcml2QBT7IYP0ZaLQx82vAn_CvAuyasMnII4ZZErJUrNj6W_6jkX74IHIuKVTKouy6A4Ery3Y6096LnG0lMRQs2kntgUJjw9bE-fGqNjGSVOfTZycvuBhZYV3NwxRXAYutjUSs0rPLh3DnJ5VKZX8bGRuaFw-aKiFne5cPB411boxVTAU7_YdIWvfPb9BFXTLRnP-1rP3Dt9JgNS6yWJ2eIkdQFBrVprzvaM2dIWaDGkt7zdo1CXXqcnJvpSM8RklSdf-X_qiX6Gkojf1nhjTcEH1pBFrYMtqTSjZQq9uugyvftFRcgAMPPYwtLDJd5223frI1FPBbbb0PE4UPSz8MubUlJyXJ-bDZkUbAZwTNZr3SL_XpyKvWhauO32le7y0]--></g></svg>