<?xml version="1.0" encoding="us-ascii" standalone="no"?><svg xmlns="http://www.w3.org/2000/svg" xmlns:xlink="http://www.w3.org/1999/xlink" contentStyleType="text/css" height="791px" preserveAspectRatio="none" style="width:1243px;height:791px;background:#FFFFFF;" version="1.1" viewBox="0 0 1243 791" width="1243px" zoomAndPan="magnify"><defs/><g><text fill="#000000" font-family="sans-serif" font-size="14" font-weight="bold" lengthAdjust="spacing" textLength="190" x="525" y="29.9659">Dynamic Settlement Matrix</text><rect fill="#F9FFF9" height="731.9622" style="stroke:#181818;stroke-width:0.5;" width="720.5" x="272.5" y="46.0679"/><text fill="#000000" font-family="sans-serif" font-size="13" font-weight="bold" lengthAdjust="spacing" textLength="101" x="580.75" y="59.9649">Settlements BC</text><rect fill="#FFFFF9" height="731.9622" style="stroke:#181818;stroke-width:0.5;" width="180" x="995" y="46.0679"/><text fill="#000000" font-family="sans-serif" font-size="13" font-weight="bold" lengthAdjust="spacing" textLength="171" x="998" y="59.9649">Accounts and Balances BC</text><rect fill="none" height="100.8241" style="stroke:#000000;stroke-width:1.5;" width="598" x="10" y="298.3719"/><rect fill="none" height="279.7662" style="stroke:#000000;stroke-width:1.5;" width="989" x="10" y="413.196"/><line style="stroke:#181818;stroke-width:0.5;stroke-dasharray:5.0,5.0;" x1="62" x2="62" y1="132.8419" y2="709.9622"/><line style="stroke:#181818;stroke-width:0.5;stroke-dasharray:5.0,5.0;" x1="310.5" x2="310.5" y1="132.8419" y2="709.9622"/><line style="stroke:#181818;stroke-width:0.5;stroke-dasharray:5.0,5.0;" x1="409.5" x2="409.5" y1="132.8419" y2="709.9622"/><line style="stroke:#181818;stroke-width:0.5;stroke-dasharray:5.0,5.0;" x1="540" x2="540" y1="132.8419" y2="709.9622"/><line style="stroke:#181818;stroke-width:0.5;stroke-dasharray:5.0,5.0;" x1="912" x2="912" y1="132.8419" y2="709.9622"/><line style="stroke:#181818;stroke-width:0.5;stroke-dasharray:5.0,5.0;" x1="1036.5" x2="1036.5" y1="132.8419" y2="709.9622"/><line style="stroke:#181818;stroke-width:0.5;stroke-dasharray:5.0,5.0;" x1="1125.5" x2="1125.5" y1="132.8419" y2="709.9622"/><rect fill="#E2E2F0" height="33.0679" rx="2.5" ry="2.5" style="stroke:#181818;stroke-width:0.5;" width="84" x="20" y="98.7739"/><text fill="#000000" font-family="sans-serif" font-size="14" lengthAdjust="spacing" textLength="70" x="27" y="120.7399">Admin API</text><rect fill="#E2E2F0" height="33.0679" rx="2.5" ry="2.5" style="stroke:#181818;stroke-width:0.5;" width="84" x="20" y="708.9622"/><text fill="#000000" font-family="sans-serif" font-size="14" lengthAdjust="spacing" textLength="70" x="27" y="730.9281">Admin API</text><rect fill="#D5E8D4" height="33.0679" rx="2.5" ry="2.5" style="stroke:#181818;stroke-width:0.5;" width="69" x="276.5" y="98.7739"/><text fill="#000000" font-family="sans-serif" font-size="14" lengthAdjust="spacing" textLength="55" x="283.5" y="120.7399">Rest API</text><rect fill="#D5E8D4" height="33.0679" rx="2.5" ry="2.5" style="stroke:#181818;stroke-width:0.5;" width="69" x="276.5" y="708.9622"/><text fill="#000000" font-family="sans-serif" font-size="14" lengthAdjust="spacing" textLength="55" x="283.5" y="730.9281">Rest API</text><rect fill="#D5E8D4" height="33.0679" rx="2.5" ry="2.5" style="stroke:#181818;stroke-width:0.5;" width="109" x="355.5" y="98.7739"/><text fill="#000000" font-family="sans-serif" font-size="14" lengthAdjust="spacing" textLength="95" x="362.5" y="120.7399">Event Handler</text><rect fill="#D5E8D4" height="33.0679" rx="2.5" ry="2.5" style="stroke:#181818;stroke-width:0.5;" width="109" x="355.5" y="708.9622"/><text fill="#000000" font-family="sans-serif" font-size="14" lengthAdjust="spacing" textLength="95" x="362.5" y="730.9281">Event Handler</text><rect fill="#EDC54D" height="52.1358" rx="2.5" ry="2.5" style="stroke:#181818;stroke-width:0.5;" width="116" x="482" y="79.706"/><text fill="#000000" font-family="sans-serif" font-size="14" lengthAdjust="spacing" textLength="102" x="489" y="101.672">Settlements BC</text><text fill="#000000" font-family="sans-serif" font-size="14" lengthAdjust="spacing" textLength="66" x="507" y="120.7399">App Logic</text><rect fill="#EDC54D" height="52.1358" rx="2.5" ry="2.5" style="stroke:#181818;stroke-width:0.5;" width="116" x="482" y="708.9622"/><text fill="#000000" font-family="sans-serif" font-size="14" lengthAdjust="spacing" textLength="102" x="489" y="730.9281">Settlements BC</text><text fill="#000000" font-family="sans-serif" font-size="14" lengthAdjust="spacing" textLength="66" x="507" y="749.996">App Logic</text><text fill="#000000" font-family="sans-serif" font-size="14" lengthAdjust="spacing" textLength="148" x="835" y="128.7399">Settlements-Database</text><path d="M894,77.7739 C894,67.7739 912,67.7739 912,67.7739 C912,67.7739 930,67.7739 930,77.7739 L930,103.7739 C930,113.7739 912,113.7739 912,113.7739 C912,113.7739 894,113.7739 894,103.7739 L894,77.7739 " fill="#DAE8FC" style="stroke:#181818;stroke-width:1.5;"/><path d="M894,77.7739 C894,87.7739 912,87.7739 912,87.7739 C912,87.7739 930,87.7739 930,77.7739 " fill="none" style="stroke:#181818;stroke-width:1.5;"/><text fill="#000000" font-family="sans-serif" font-size="14" lengthAdjust="spacing" textLength="148" x="835" y="723.9281">Settlements-Database</text><path d="M894,738.0301 C894,728.0301 912,728.0301 912,728.0301 C912,728.0301 930,728.0301 930,738.0301 L930,764.0301 C930,774.0301 912,774.0301 912,774.0301 C912,774.0301 894,774.0301 894,764.0301 L894,738.0301 " fill="#DAE8FC" style="stroke:#181818;stroke-width:1.5;"/><path d="M894,738.0301 C894,748.0301 912,748.0301 912,748.0301 C912,748.0301 930,748.0301 930,738.0301 " fill="none" style="stroke:#181818;stroke-width:1.5;"/><rect fill="#D5E8D4" height="33.0679" rx="2.5" ry="2.5" style="stroke:#181818;stroke-width:0.5;" width="71" x="1001.5" y="98.7739"/><text fill="#000000" font-family="sans-serif" font-size="14" lengthAdjust="spacing" textLength="57" x="1008.5" y="120.7399">A&amp;B SVC</text><rect fill="#D5E8D4" height="33.0679" rx="2.5" ry="2.5" style="stroke:#181818;stroke-width:0.5;" width="71" x="1001.5" y="708.9622"/><text fill="#000000" font-family="sans-serif" font-size="14" lengthAdjust="spacing" textLength="57" x="1008.5" y="730.9281">A&amp;B SVC</text><text fill="#000000" font-family="sans-serif" font-size="14" lengthAdjust="spacing" textLength="80" x="1082.5" y="128.7399">A&amp;B-Ledger</text><path d="M1107.5,77.7739 C1107.5,67.7739 1125.5,67.7739 1125.5,67.7739 C1125.5,67.7739 1143.5,67.7739 1143.5,77.7739 L1143.5,103.7739 C1143.5,113.7739 1125.5,113.7739 1125.5,113.7739 C1125.5,113.7739 1107.5,113.7739 1107.5,103.7739 L1107.5,77.7739 " fill="#DAE8FC" style="stroke:#181818;stroke-width:1.5;"/><path d="M1107.5,77.7739 C1107.5,87.7739 1125.5,87.7739 1125.5,87.7739 C1125.5,87.7739 1143.5,87.7739 1143.5,77.7739 " fill="none" style="stroke:#181818;stroke-width:1.5;"/><text fill="#000000" font-family="sans-serif" font-size="14" lengthAdjust="spacing" textLength="80" x="1082.5" y="723.9281">A&amp;B-Ledger</text><path d="M1107.5,738.0301 C1107.5,728.0301 1125.5,728.0301 1125.5,728.0301 C1125.5,728.0301 1143.5,728.0301 1143.5,738.0301 L1143.5,764.0301 C1143.5,774.0301 1125.5,774.0301 1125.5,774.0301 C1125.5,774.0301 1107.5,774.0301 1107.5,764.0301 L1107.5,738.0301 " fill="#DAE8FC" style="stroke:#181818;stroke-width:1.5;"/><path d="M1107.5,738.0301 C1107.5,748.0301 1125.5,748.0301 1125.5,748.0301 C1125.5,748.0301 1143.5,748.0301 1143.5,738.0301 " fill="none" style="stroke:#181818;stroke-width:1.5;"/><path d="M285,147.8419 L285,192.8419 L534,192.8419 L534,157.8419 L524,147.8419 L285,147.8419 " fill="#FEFFDD" style="stroke:#181818;stroke-width:0.5;"/><path d="M524,147.8419 L524,157.8419 L534,157.8419 L524,147.8419 " fill="#FEFFDD" style="stroke:#181818;stroke-width:0.5;"/><text fill="#000000" font-family="sans-serif" font-size="13" lengthAdjust="spacing" textLength="74" x="291" y="166.7389">Kafka Topics</text><text fill="#000000" font-family="sans-serif" font-size="13" lengthAdjust="spacing" textLength="228" x="291" y="184.4449">- Topic for Settlement Matrix Accounts</text><path d="M946,203.2539 L946,248.2539 L1128,248.2539 L1128,213.2539 L1118,203.2539 L946,203.2539 " fill="#FEFFDD" style="stroke:#181818;stroke-width:0.5;"/><path d="M1118,203.2539 L1118,213.2539 L1128,213.2539 L1118,203.2539 " fill="#FEFFDD" style="stroke:#181818;stroke-width:0.5;"/><text fill="#000000" font-family="sans-serif" font-size="13" lengthAdjust="spacing" textLength="161" x="952" y="222.1509">Exposed gRPC interface for</text><text fill="#000000" font-family="sans-serif" font-size="13" lengthAdjust="spacing" textLength="126" x="952" y="239.8569">Accounts &amp; Balances.</text><path d="M1014,258.6659 L1014,285.6659 L1236,285.6659 L1236,268.6659 L1226,258.6659 L1014,258.6659 " fill="#FEFFDD" style="stroke:#181818;stroke-width:0.5;"/><path d="M1226,258.6659 L1226,268.6659 L1236,268.6659 L1226,258.6659 " fill="#FEFFDD" style="stroke:#181818;stroke-width:0.5;"/><text fill="#000000" font-family="sans-serif" font-size="13" lengthAdjust="spacing" textLength="201" x="1020" y="277.5629">TigerBeetle may be turned off/on.</text><path d="M10,298.3719 L269,298.3719 L269,308.0779 L259,318.0779 L10,318.0779 L10,298.3719 " fill="#EEEEEE" style="stroke:#000000;stroke-width:1.5;"/><rect fill="none" height="100.8241" style="stroke:#000000;stroke-width:1.5;" width="598" x="10" y="298.3719"/><text fill="#000000" font-family="sans-serif" font-size="13" font-weight="bold" lengthAdjust="spacing" textLength="214" x="25" y="313.2689">1. Settlement Matrix - Admin API</text><polygon fill="#181818" points="299,355.49,309,359.49,299,363.49,303,359.49" style="stroke:#181818;stroke-width:1.0;"/><line style="stroke:#181818;stroke-width:1.0;" x1="62" x2="305" y1="359.49" y2="359.49"/><text fill="#000000" font-family="sans-serif" font-size="13" font-weight="bold" lengthAdjust="spacing" textLength="7" x="69" y="344.828">1</text><text fill="#000000" font-family="sans-serif" font-size="13" font-weight="bold" lengthAdjust="spacing" textLength="122" x="80" y="335.975">Settlement Matrix</text><text fill="#000000" font-family="sans-serif" font-size="13" lengthAdjust="spacing" textLength="4" x="205" y="335.975">-</text><text fill="#000000" font-family="sans-serif" font-size="13" font-style="italic" lengthAdjust="spacing" textLength="55" x="212" y="335.975">DYNAMIC</text><text fill="#000000" font-family="sans-serif" font-size="13" lengthAdjust="spacing" textLength="214" x="80" y="353.681">(model, fromDate, toDate, currency)</text><polygon fill="#181818" points="528,387.196,538,391.196,528,395.196,532,391.196" style="stroke:#181818;stroke-width:1.0;"/><line style="stroke:#181818;stroke-width:1.0;stroke-dasharray:2.0,2.0;" x1="311" x2="534" y1="391.196" y2="391.196"/><text fill="#000000" font-family="sans-serif" font-size="13" font-weight="bold" lengthAdjust="spacing" textLength="7" x="318" y="385.387">2</text><text fill="#000000" font-family="sans-serif" font-size="13" lengthAdjust="spacing" textLength="123" x="329" y="385.387">Invoke the App layer</text><path d="M10,413.196 L263,413.196 L263,422.902 L253,432.902 L10,432.902 L10,413.196 " fill="#EEEEEE" style="stroke:#000000;stroke-width:1.5;"/><rect fill="none" height="279.7662" style="stroke:#000000;stroke-width:1.5;" width="989" x="10" y="413.196"/><text fill="#000000" font-family="sans-serif" font-size="13" font-weight="bold" lengthAdjust="spacing" textLength="208" x="25" y="428.093">2. Settlement Matrix - App Logic</text><line style="stroke:#181818;stroke-width:1.0;stroke-dasharray:2.0,2.0;" x1="540" x2="582" y1="527.4321" y2="527.4321"/><line style="stroke:#181818;stroke-width:1.0;stroke-dasharray:2.0,2.0;" x1="582" x2="582" y1="527.4321" y2="540.4321"/><line style="stroke:#181818;stroke-width:1.0;stroke-dasharray:2.0,2.0;" x1="541" x2="582" y1="540.4321" y2="540.4321"/><polygon fill="#181818" points="550,523.4321,540,527.4321,550,531.4321,546,527.4321" style="stroke:#181818;stroke-width:1.0;"/><polygon fill="#181818" points="551,536.4321,541,540.4321,551,544.4321,547,540.4321" style="stroke:#181818;stroke-width:1.0;"/><text fill="#000000" font-family="sans-serif" font-size="13" font-weight="bold" lengthAdjust="spacing" textLength="7" x="547" y="486.2111">3</text><text fill="#000000" font-family="sans-serif" font-size="13" font-weight="bold" lengthAdjust="spacing" textLength="122" x="558" y="450.799">Settlement Matrix</text><text fill="#000000" font-family="sans-serif" font-size="13" lengthAdjust="spacing" textLength="157" x="683" y="450.799">generation triggered with:</text><text fill="#000000" font-family="sans-serif" font-size="13" lengthAdjust="spacing" textLength="11" x="558" y="468.505">-&gt;</text><text fill="#000000" font-family="sans-serif" font-size="13" font-weight="bold" lengthAdjust="spacing" textLength="69" x="572" y="468.505">From Date</text><text fill="#000000" font-family="sans-serif" font-size="13" lengthAdjust="spacing" textLength="39" x="644" y="468.505">- From</text><text fill="#000000" font-family="sans-serif" font-size="13" lengthAdjust="spacing" textLength="11" x="558" y="486.2111">-&gt;</text><text fill="#000000" font-family="sans-serif" font-size="13" font-weight="bold" lengthAdjust="spacing" textLength="51" x="572" y="486.2111">To Date</text><text fill="#000000" font-family="sans-serif" font-size="13" lengthAdjust="spacing" textLength="22" x="626" y="486.2111">- To</text><text fill="#000000" font-family="sans-serif" font-size="13" lengthAdjust="spacing" textLength="11" x="558" y="503.9171">-&gt;</text><text fill="#000000" font-family="sans-serif" font-size="13" font-weight="bold" lengthAdjust="spacing" textLength="118" x="572" y="503.9171">Settlement Model</text><text fill="#000000" font-family="sans-serif" font-size="13" lengthAdjust="spacing" textLength="45" x="693" y="503.9171">- Model</text><text fill="#000000" font-family="sans-serif" font-size="13" lengthAdjust="spacing" textLength="11" x="558" y="521.6231">-&gt;</text><text fill="#000000" font-family="sans-serif" font-size="13" font-weight="bold" lengthAdjust="spacing" textLength="60" x="572" y="521.6231">Currency</text><text fill="#000000" font-family="sans-serif" font-size="13" lengthAdjust="spacing" textLength="111" x="635" y="521.6231">- Transfer currency</text><polygon fill="#181818" points="551,568.1381,541,572.1381,551,576.1381,547,572.1381" style="stroke:#181818;stroke-width:1.0;"/><polygon fill="#181818" points="900,568.1381,910,572.1381,900,576.1381,904,572.1381" style="stroke:#181818;stroke-width:1.0;"/><line style="stroke:#181818;stroke-width:1.0;stroke-dasharray:2.0,2.0;" x1="545" x2="906" y1="572.1381" y2="572.1381"/><text fill="#000000" font-family="sans-serif" font-size="13" font-weight="bold" lengthAdjust="spacing" textLength="7" x="557" y="566.3291">4</text><text fill="#000000" font-family="sans-serif" font-size="13" lengthAdjust="spacing" textLength="337" x="568" y="566.3291">Fetch all batches that form part of the settlement criteria</text><polygon fill="#181818" points="551,617.5501,541,621.5501,551,625.5501,547,621.5501" style="stroke:#181818;stroke-width:1.0;"/><polygon fill="#181818" points="900,617.5501,910,621.5501,900,625.5501,904,621.5501" style="stroke:#181818;stroke-width:1.0;"/><line style="stroke:#181818;stroke-width:1.0;stroke-dasharray:2.0,2.0;" x1="545" x2="906" y1="621.5501" y2="621.5501"/><text fill="#000000" font-family="sans-serif" font-size="13" font-weight="bold" lengthAdjust="spacing" textLength="7" x="557" y="606.8881">5</text><text fill="#000000" font-family="sans-serif" font-size="13" lengthAdjust="spacing" textLength="299" x="568" y="598.0351">Associate the batches that for part of the selection</text><text fill="#000000" font-family="sans-serif" font-size="13" lengthAdjust="spacing" textLength="93" x="568" y="615.7411">criteria with the</text><text fill="#000000" font-family="sans-serif" font-size="13" font-weight="bold" lengthAdjust="spacing" textLength="122" x="664" y="615.7411">Settlement Matrix</text><polygon fill="#181818" points="322,649.2562,312,653.2562,322,657.2562,318,653.2562" style="stroke:#181818;stroke-width:1.0;"/><line style="stroke:#181818;stroke-width:1.0;stroke-dasharray:2.0,2.0;" x1="316" x2="539" y1="653.2562" y2="653.2562"/><text fill="#000000" font-family="sans-serif" font-size="13" font-weight="bold" lengthAdjust="spacing" textLength="7" x="328" y="647.4472">6</text><text fill="#000000" font-family="sans-serif" font-size="13" font-weight="bold" lengthAdjust="spacing" textLength="138" x="339" y="647.4472">Settlement Matrix Id</text><text fill="#000000" font-family="sans-serif" font-size="13" lengthAdjust="spacing" textLength="53" x="480" y="647.4472">returned</text><polygon fill="#181818" points="73,680.9622,63,684.9622,73,688.9622,69,684.9622" style="stroke:#181818;stroke-width:1.0;"/><line style="stroke:#181818;stroke-width:1.0;" x1="67" x2="310" y1="684.9622" y2="684.9622"/><text fill="#000000" font-family="sans-serif" font-size="13" font-weight="bold" lengthAdjust="spacing" textLength="7" x="79" y="679.1532">7</text><text fill="#000000" font-family="sans-serif" font-size="13" lengthAdjust="spacing" textLength="181" x="90" y="679.1532">Matrix id returned in response</text><!--SRC=[XLFlQzim4Ftkl-9eeMoXRjXOeGsZuDWn2sj7QSDW42YoV7P4RSd8IfVyzplBjfnVNVqbqkdqxhsN9oDCWH1j9Ii5XsSqj2rH6dXWHekDvrLC6y55nQXs5gIba10ypi-0rO0Ryy8BpqlKPkTc3TCGpkFRE8vlFQ1l3-49Q-C0weI_wAPm7btFRg9ln-spjuRB3oRJ0hMxWxQwUqagWw3UK0_djjvyFrdsoc2XAi5hL_JR0cHA7wk6W7Er9Ycs7MLgyO_PxOjUog2gu5xbWZkchAfUYgO2vxCelFuMMP2K6PQm6lSG_AYhkijfGXg3sKqSUWq7ihdrkcS7P0jCMS4anyxr-BJhmSKKdd-75fab19thYkyPE52YNlyUqxppsxORGTi4iSbAJsdVTeVg79vjAbLZ2ldJOmX26jGPuzWOxbgSa0idu-hOyeCXErmSqAAfJLj-9Tj2Wc3MMj9qbMLZ9GzGdPkvLkiAlboTY80FBkmUMnibrsM2BVKsz-3V3G6Um6XqX34Q4Sfu7Ftv5JpCm_5uAJ-LAiNY4ZAjIlgxyHACQd_vMckKVFlPJd2uVZTaoD44vl9DlPB05K8Jk89jYHT9wkLyVKTE7qutOG3zVZJdFK4vIjJC22M1AZdPJYR_5MOrMKh268rYaWQD9gk-sNK72pMK5wehxevehB6dTjKrX9qlxJNDP9rH47gt_YU5Niy4OZHy1Qme866qecTYLimq8Ipj2w5yM2FhWGVNWh8gs8VOGLqhBaYIHJZ4Fu0la5lJbhB7jwxPqvDEdnZlVvWucATabCOs_0THkkk3E-cxHUfwwONIkgwKhEtxyFu1]--></g></svg>