<?xml version="1.0" encoding="UTF-8" standalone="no"?><svg xmlns="http://www.w3.org/2000/svg" xmlns:xlink="http://www.w3.org/1999/xlink" contentStyleType="text/css" height="792px" preserveAspectRatio="none" style="width:1428px;height:792px;background:#FFFFFF;" version="1.1" viewBox="0 0 1428 792" width="1428px" zoomAndPan="magnify"><defs/><g><text fill="#000000" font-family="sans-serif" font-size="14" font-weight="bold" lengthAdjust="spacing" textLength="310" x="557.5" y="27.9951">Settlement Matrix for Participants BC</text><rect fill="#F9FFF9" height="736.5156" style="stroke:#181818;stroke-width:0.5;" width="732.5" x="287" y="43.2969"/><text fill="#000000" font-family="sans-serif" font-size="13" font-weight="bold" lengthAdjust="spacing" textLength="120" x="590.75" y="55.3638">Settlements BC</text><rect fill="#FFFFF9" height="736.5156" style="stroke:#181818;stroke-width:0.5;" width="331.5" x="1021.5" y="43.2969"/><text fill="#000000" font-family="sans-serif" font-size="13" font-weight="bold" lengthAdjust="spacing" textLength="198" x="1085.75" y="55.3638">Accounts and Balances BC</text><rect fill="none" height="75.3984" style="stroke:#000000;stroke-width:1.5;" width="590.5" x="10" y="227.125"/><rect fill="none" height="380.9922" style="stroke:#000000;stroke-width:1.5;" width="1349" x="10" y="316.5234"/><line style="stroke:#181818;stroke-width:0.5;stroke-dasharray:5.0,5.0;" x1="70" x2="70" y1="124.7266" y2="714.5156"/><line style="stroke:#181818;stroke-width:0.5;stroke-dasharray:5.0,5.0;" x1="328" x2="328" y1="124.7266" y2="714.5156"/><line style="stroke:#181818;stroke-width:0.5;stroke-dasharray:5.0,5.0;" x1="525.5" x2="525.5" y1="124.7266" y2="714.5156"/><line style="stroke:#181818;stroke-width:0.5;stroke-dasharray:5.0,5.0;" x1="929.5" x2="929.5" y1="124.7266" y2="714.5156"/><line style="stroke:#181818;stroke-width:0.5;stroke-dasharray:5.0,5.0;" x1="1064.5" x2="1064.5" y1="124.7266" y2="714.5156"/><line style="stroke:#181818;stroke-width:0.5;stroke-dasharray:5.0,5.0;" x1="1302" x2="1302" y1="124.7266" y2="714.5156"/><rect fill="#E2E2F0" height="30.2969" rx="2.5" ry="2.5" style="stroke:#181818;stroke-width:0.5;" width="100" x="20" y="93.4297"/><text fill="#000000" font-family="sans-serif" font-size="14" lengthAdjust="spacing" textLength="86" x="27" y="113.4248">Transfer-BC</text><rect fill="#E2E2F0" height="30.2969" rx="2.5" ry="2.5" style="stroke:#181818;stroke-width:0.5;" width="100" x="20" y="713.5156"/><text fill="#000000" font-family="sans-serif" font-size="14" lengthAdjust="spacing" textLength="86" x="27" y="733.5107">Transfer-BC</text><rect fill="#D5E8D4" height="30.2969" rx="2.5" ry="2.5" style="stroke:#181818;stroke-width:0.5;" width="74" x="291" y="93.4297"/><text fill="#000000" font-family="sans-serif" font-size="14" lengthAdjust="spacing" textLength="60" x="298" y="113.4248">Rest API</text><rect fill="#D5E8D4" height="30.2969" rx="2.5" ry="2.5" style="stroke:#181818;stroke-width:0.5;" width="74" x="291" y="713.5156"/><text fill="#000000" font-family="sans-serif" font-size="14" lengthAdjust="spacing" textLength="60" x="298" y="733.5107">Rest API</text><rect fill="#EDC54D" height="46.5938" rx="2.5" ry="2.5" style="stroke:#181818;stroke-width:0.5;" width="129" x="461.5" y="77.1328"/><text fill="#000000" font-family="sans-serif" font-size="14" lengthAdjust="spacing" textLength="115" x="468.5" y="97.1279">Settlements BC</text><text fill="#000000" font-family="sans-serif" font-size="14" lengthAdjust="spacing" textLength="72" x="490" y="113.4248">App Logic</text><rect fill="#EDC54D" height="46.5938" rx="2.5" ry="2.5" style="stroke:#181818;stroke-width:0.5;" width="129" x="461.5" y="713.5156"/><text fill="#000000" font-family="sans-serif" font-size="14" lengthAdjust="spacing" textLength="115" x="468.5" y="733.5107">Settlements BC</text><text fill="#000000" font-family="sans-serif" font-size="14" lengthAdjust="spacing" textLength="72" x="490" y="749.8076">App Logic</text><text fill="#000000" font-family="sans-serif" font-size="14" lengthAdjust="spacing" textLength="165" x="844.5" y="121.4248">Settlements-Database</text><path d="M912,72.4297 C912,62.4297 930,62.4297 930,62.4297 C930,62.4297 948,62.4297 948,72.4297 L948,98.4297 C948,108.4297 930,108.4297 930,108.4297 C930,108.4297 912,108.4297 912,98.4297 L912,72.4297 " fill="#DAE8FC" style="stroke:#181818;stroke-width:1.5;"/><path d="M912,72.4297 C912,82.4297 930,82.4297 930,82.4297 C930,82.4297 948,82.4297 948,72.4297 " fill="none" style="stroke:#181818;stroke-width:1.5;"/><text fill="#000000" font-family="sans-serif" font-size="14" lengthAdjust="spacing" textLength="165" x="844.5" y="726.5107">Settlements-Database</text><path d="M912,739.8125 C912,729.8125 930,729.8125 930,729.8125 C930,729.8125 948,729.8125 948,739.8125 L948,765.8125 C948,775.8125 930,775.8125 930,775.8125 C930,775.8125 912,775.8125 912,765.8125 L912,739.8125 " fill="#DAE8FC" style="stroke:#181818;stroke-width:1.5;"/><path d="M912,739.8125 C912,749.8125 930,749.8125 930,749.8125 C930,749.8125 948,749.8125 948,739.8125 " fill="none" style="stroke:#181818;stroke-width:1.5;"/><rect fill="#D5E8D4" height="30.2969" rx="2.5" ry="2.5" style="stroke:#181818;stroke-width:0.5;" width="78" x="1025.5" y="93.4297"/><text fill="#000000" font-family="sans-serif" font-size="14" lengthAdjust="spacing" textLength="64" x="1032.5" y="113.4248">A&amp;B SVC</text><rect fill="#D5E8D4" height="30.2969" rx="2.5" ry="2.5" style="stroke:#181818;stroke-width:0.5;" width="78" x="1025.5" y="713.5156"/><text fill="#000000" font-family="sans-serif" font-size="14" lengthAdjust="spacing" textLength="64" x="1032.5" y="733.5107">A&amp;B SVC</text><text fill="#000000" font-family="sans-serif" font-size="14" lengthAdjust="spacing" textLength="87" x="1256" y="121.4248">A&amp;B-Ledger</text><path d="M1284.5,72.4297 C1284.5,62.4297 1302.5,62.4297 1302.5,62.4297 C1302.5,62.4297 1320.5,62.4297 1320.5,72.4297 L1320.5,98.4297 C1320.5,108.4297 1302.5,108.4297 1302.5,108.4297 C1302.5,108.4297 1284.5,108.4297 1284.5,98.4297 L1284.5,72.4297 " fill="#DAE8FC" style="stroke:#181818;stroke-width:1.5;"/><path d="M1284.5,72.4297 C1284.5,82.4297 1302.5,82.4297 1302.5,82.4297 C1302.5,82.4297 1320.5,82.4297 1320.5,72.4297 " fill="none" style="stroke:#181818;stroke-width:1.5;"/><text fill="#000000" font-family="sans-serif" font-size="14" lengthAdjust="spacing" textLength="87" x="1256" y="726.5107">A&amp;B-Ledger</text><path d="M1284.5,739.8125 C1284.5,729.8125 1302.5,729.8125 1302.5,729.8125 C1302.5,729.8125 1320.5,729.8125 1320.5,739.8125 L1320.5,765.8125 C1320.5,775.8125 1302.5,775.8125 1302.5,775.8125 C1302.5,775.8125 1284.5,775.8125 1284.5,765.8125 L1284.5,739.8125 " fill="#DAE8FC" style="stroke:#181818;stroke-width:1.5;"/><path d="M1284.5,739.8125 C1284.5,749.8125 1302.5,749.8125 1302.5,749.8125 C1302.5,749.8125 1320.5,749.8125 1320.5,739.8125 " fill="none" style="stroke:#181818;stroke-width:1.5;"/><path d="M966,139.7266 L966,179.7266 L1163,179.7266 L1163,149.7266 L1153,139.7266 L966,139.7266 " fill="#FEFFDD" style="stroke:#181818;stroke-width:0.5;"/><path d="M1153,139.7266 L1153,149.7266 L1163,149.7266 L1153,139.7266 " fill="#FEFFDD" style="stroke:#181818;stroke-width:0.5;"/><text fill="#000000" font-family="sans-serif" font-size="13" lengthAdjust="spacing" textLength="176" x="972" y="156.7935">Exposed gRPC interface for</text><text fill="#000000" font-family="sans-serif" font-size="13" lengthAdjust="spacing" textLength="138" x="972" y="171.9263">Accounts &amp; Balances.</text><path d="M1183,189.9922 L1183,214.9922 L1421,214.9922 L1421,199.9922 L1411,189.9922 L1183,189.9922 " fill="#FEFFDD" style="stroke:#181818;stroke-width:0.5;"/><path d="M1411,189.9922 L1411,199.9922 L1421,199.9922 L1411,189.9922 " fill="#FEFFDD" style="stroke:#181818;stroke-width:0.5;"/><text fill="#000000" font-family="sans-serif" font-size="13" lengthAdjust="spacing" textLength="217" x="1189" y="207.0591">TigerBeetle may be turned off/on.</text><path d="M10,227.125 L495,227.125 L495,234.2578 L485,244.2578 L10,244.2578 L10,227.125 " fill="#EEEEEE" style="stroke:#000000;stroke-width:1.5;"/><rect fill="none" height="75.3984" style="stroke:#000000;stroke-width:1.5;" width="590.5" x="10" y="227.125"/><text fill="#000000" font-family="sans-serif" font-size="13" font-weight="bold" lengthAdjust="spacing" textLength="440" x="25" y="240.1919">1. Trigger Settlement Matrix - Central Ledger / Admin API</text><polygon fill="#181818" points="316,261.3906,326,265.3906,316,269.3906,320,265.3906" style="stroke:#181818;stroke-width:1.0;"/><line style="stroke:#181818;stroke-width:1.0;" x1="70" x2="322" y1="265.3906" y2="265.3906"/><text fill="#000000" font-family="sans-serif" font-size="13" font-weight="bold" lengthAdjust="spacing" textLength="9" x="77" y="260.3247">1</text><text fill="#000000" font-family="sans-serif" font-size="13" lengthAdjust="spacing" textLength="173" x="90" y="260.3247">Request settlement matrix</text><polygon fill="#181818" points="514,290.5234,524,294.5234,514,298.5234,518,294.5234" style="stroke:#181818;stroke-width:1.0;"/><line style="stroke:#181818;stroke-width:1.0;" x1="328" x2="520" y1="294.5234" y2="294.5234"/><text fill="#000000" font-family="sans-serif" font-size="13" font-weight="bold" lengthAdjust="spacing" textLength="9" x="335" y="289.4575">2</text><text fill="#000000" font-family="sans-serif" font-size="13" lengthAdjust="spacing" textLength="132" x="348" y="289.4575">Invoke the App layer</text><path d="M10,316.5234 L249,316.5234 L249,323.6563 L239,333.6563 L10,333.6563 L10,316.5234 " fill="#EEEEEE" style="stroke:#000000;stroke-width:1.5;"/><rect fill="none" height="380.9922" style="stroke:#000000;stroke-width:1.5;" width="1349" x="10" y="316.5234"/><text fill="#000000" font-family="sans-serif" font-size="13" font-weight="bold" lengthAdjust="spacing" textLength="194" x="25" y="329.5903">2. Settlement - App Logic</text><line style="stroke:#181818;stroke-width:1.0;stroke-dasharray:2.0,2.0;" x1="526" x2="568" y1="400.1875" y2="400.1875"/><line style="stroke:#181818;stroke-width:1.0;stroke-dasharray:2.0,2.0;" x1="568" x2="568" y1="400.1875" y2="413.1875"/><line style="stroke:#181818;stroke-width:1.0;stroke-dasharray:2.0,2.0;" x1="527" x2="568" y1="413.1875" y2="413.1875"/><polygon fill="#181818" points="536,396.1875,526,400.1875,536,404.1875,532,400.1875" style="stroke:#181818;stroke-width:1.0;"/><polygon fill="#181818" points="537,409.1875,527,413.1875,537,417.1875,533,413.1875" style="stroke:#181818;stroke-width:1.0;"/><text fill="#000000" font-family="sans-serif" font-size="13" font-weight="bold" lengthAdjust="spacing" textLength="9" x="533" y="372.4224">1</text><text fill="#000000" font-family="sans-serif" font-size="13" lengthAdjust="spacing" textLength="212" x="546" y="349.7231">Settlement Matrix triggered with:</text><text fill="#000000" font-family="sans-serif" font-size="13" lengthAdjust="spacing" textLength="15" x="546" y="364.856">-&gt;</text><text fill="#000000" font-family="sans-serif" font-size="13" font-weight="bold" lengthAdjust="spacing" textLength="82" x="565" y="364.856">From Date</text><text fill="#000000" font-family="sans-serif" font-size="13" lengthAdjust="spacing" textLength="42" x="651" y="364.856">- From</text><text fill="#000000" font-family="sans-serif" font-size="13" lengthAdjust="spacing" textLength="15" x="546" y="379.9888">-&gt;</text><text fill="#000000" font-family="sans-serif" font-size="13" font-weight="bold" lengthAdjust="spacing" textLength="63" x="565" y="379.9888">To Date</text><text fill="#000000" font-family="sans-serif" font-size="13" lengthAdjust="spacing" textLength="25" x="632" y="379.9888">- To</text><text fill="#000000" font-family="sans-serif" font-size="13" lengthAdjust="spacing" textLength="15" x="546" y="395.1216">-&gt;</text><text fill="#000000" font-family="sans-serif" font-size="13" font-weight="bold" lengthAdjust="spacing" textLength="137" x="565" y="395.1216">Settlement Model</text><text fill="#000000" font-family="sans-serif" font-size="13" lengthAdjust="spacing" textLength="46" x="706" y="395.1216">- Model</text><polygon fill="#181818" points="537,438.3203,527,442.3203,537,446.3203,533,442.3203" style="stroke:#181818;stroke-width:1.0;"/><polygon fill="#181818" points="918,438.3203,928,442.3203,918,446.3203,922,442.3203" style="stroke:#181818;stroke-width:1.0;"/><line style="stroke:#181818;stroke-width:1.0;stroke-dasharray:2.0,2.0;" x1="531" x2="924" y1="442.3203" y2="442.3203"/><text fill="#000000" font-family="sans-serif" font-size="13" font-weight="bold" lengthAdjust="spacing" textLength="9" x="543" y="437.2544">2</text><text fill="#000000" font-family="sans-serif" font-size="13" lengthAdjust="spacing" textLength="367" x="556" y="437.2544">Fetch all batches that form part of the settlement criteria</text><polygon fill="#181818" points="537,482.5859,527,486.5859,537,490.5859,533,486.5859" style="stroke:#181818;stroke-width:1.0;"/><polygon fill="#181818" points="918,482.5859,928,486.5859,918,490.5859,922,486.5859" style="stroke:#181818;stroke-width:1.0;"/><line style="stroke:#181818;stroke-width:1.0;stroke-dasharray:2.0,2.0;" x1="531" x2="924" y1="486.5859" y2="486.5859"/><text fill="#000000" font-family="sans-serif" font-size="13" font-weight="bold" lengthAdjust="spacing" textLength="8" x="543" y="473.9536">3</text><text fill="#000000" font-family="sans-serif" font-size="13" lengthAdjust="spacing" textLength="35" x="555" y="466.3872">Close</text><text fill="#000000" font-family="sans-serif" font-size="13" font-style="italic" lengthAdjust="spacing" textLength="36" x="594" y="466.3872">OPEN</text><text fill="#000000" font-family="sans-serif" font-size="13" lengthAdjust="spacing" textLength="238" x="634" y="466.3872">settlement batches which forms part</text><text fill="#000000" font-family="sans-serif" font-size="13" lengthAdjust="spacing" textLength="259" x="555" y="481.52">of the settlement matrix request criteria</text><polygon fill="#181818" points="537,511.7188,527,515.7188,537,519.7188,533,515.7188" style="stroke:#181818;stroke-width:1.0;"/><polygon fill="#181818" points="1052.5,511.7188,1062.5,515.7188,1052.5,519.7188,1056.5,515.7188" style="stroke:#181818;stroke-width:1.0;"/><line style="stroke:#181818;stroke-width:1.0;" x1="531" x2="1058.5" y1="515.7188" y2="515.7188"/><text fill="#000000" font-family="sans-serif" font-size="13" font-weight="bold" lengthAdjust="spacing" textLength="9" x="543" y="510.6528">4</text><text fill="#000000" font-family="sans-serif" font-size="13" lengthAdjust="spacing" textLength="122" x="556" y="510.6528">Obtain Debit/Credit</text><text fill="#000000" font-family="sans-serif" font-size="13" font-weight="bold" lengthAdjust="spacing" textLength="162" x="682" y="510.6528">Settlement Accounts</text><text fill="#000000" font-family="sans-serif" font-size="13" lengthAdjust="spacing" textLength="114" x="848" y="510.6528">based on batches</text><polygon fill="#181818" points="1075.5,540.8516,1065.5,544.8516,1075.5,548.8516,1071.5,544.8516" style="stroke:#181818;stroke-width:1.0;"/><polygon fill="#181818" points="1290.5,540.8516,1300.5,544.8516,1290.5,548.8516,1294.5,544.8516" style="stroke:#181818;stroke-width:1.0;"/><line style="stroke:#181818;stroke-width:1.0;" x1="1069.5" x2="1296.5" y1="544.8516" y2="544.8516"/><text fill="#000000" font-family="sans-serif" font-size="13" font-weight="bold" lengthAdjust="spacing" textLength="9" x="1081.5" y="539.7856">5</text><text fill="#000000" font-family="sans-serif" font-size="13" lengthAdjust="spacing" textLength="35" x="1094.5" y="539.7856">Fetch</text><text fill="#000000" font-family="sans-serif" font-size="13" font-weight="bold" lengthAdjust="spacing" textLength="162" x="1133.5" y="539.7856">Settlement Accounts</text><polygon fill="#181818" points="537,569.9844,527,573.9844,537,577.9844,533,573.9844" style="stroke:#181818;stroke-width:1.0;"/><polygon fill="#181818" points="1052.5,569.9844,1062.5,573.9844,1052.5,577.9844,1056.5,573.9844" style="stroke:#181818;stroke-width:1.0;"/><line style="stroke:#181818;stroke-width:1.0;" x1="531" x2="1058.5" y1="573.9844" y2="573.9844"/><text fill="#000000" font-family="sans-serif" font-size="13" font-weight="bold" lengthAdjust="spacing" textLength="9" x="543" y="568.9185">6</text><text fill="#000000" font-family="sans-serif" font-size="13" lengthAdjust="spacing" textLength="43" x="556" y="568.9185">Return</text><text fill="#000000" font-family="sans-serif" font-size="13" font-weight="bold" lengthAdjust="spacing" textLength="162" x="603" y="568.9185">Settlement Accounts</text><text fill="#000000" font-family="sans-serif" font-size="13" lengthAdjust="spacing" textLength="114" x="769" y="568.9185">based on batches</text><line style="stroke:#181818;stroke-width:1.0;stroke-dasharray:2.0,2.0;" x1="526" x2="568" y1="603.1172" y2="603.1172"/><line style="stroke:#181818;stroke-width:1.0;stroke-dasharray:2.0,2.0;" x1="568" x2="568" y1="603.1172" y2="616.1172"/><line style="stroke:#181818;stroke-width:1.0;stroke-dasharray:2.0,2.0;" x1="527" x2="568" y1="616.1172" y2="616.1172"/><polygon fill="#181818" points="536,599.1172,526,603.1172,536,607.1172,532,603.1172" style="stroke:#181818;stroke-width:1.0;"/><polygon fill="#181818" points="537,612.1172,527,616.1172,537,620.1172,533,616.1172" style="stroke:#181818;stroke-width:1.0;"/><text fill="#000000" font-family="sans-serif" font-size="13" font-weight="bold" lengthAdjust="spacing" textLength="9" x="533" y="598.0513">7</text><text fill="#000000" font-family="sans-serif" font-size="13" lengthAdjust="spacing" textLength="193" x="546" y="598.0513">Prepare the Settlement Matrix</text><polygon fill="#181818" points="339,641.25,329,645.25,339,649.25,335,645.25" style="stroke:#181818;stroke-width:1.0;"/><line style="stroke:#181818;stroke-width:1.0;" x1="333" x2="525" y1="645.25" y2="645.25"/><text fill="#000000" font-family="sans-serif" font-size="13" font-weight="bold" lengthAdjust="spacing" textLength="9" x="345" y="640.1841">8</text><text fill="#000000" font-family="sans-serif" font-size="13" lengthAdjust="spacing" textLength="161" x="358" y="640.1841">Return Settlement Matrix</text><polygon fill="#181818" points="81,685.5156,71,689.5156,81,693.5156,77,689.5156" style="stroke:#181818;stroke-width:1.0;"/><line style="stroke:#181818;stroke-width:1.0;" x1="75" x2="327" y1="689.5156" y2="689.5156"/><text fill="#000000" font-family="sans-serif" font-size="13" font-weight="bold" lengthAdjust="spacing" textLength="9" x="87" y="676.8833">9</text><text fill="#000000" font-family="sans-serif" font-size="13" lengthAdjust="spacing" textLength="221" x="100" y="669.3169">Return Settlement Matrix for caller</text><text fill="#000000" font-family="sans-serif" font-size="13" font-style="italic" font-weight="bold" lengthAdjust="spacing" textLength="158" x="100" y="684.4497">ISettlementMatrixDto</text><!--SRC=[bLNlQ-904FtS_1L3XNuGqd172wqS1KqC2BshMBbFWcoIKPTBTdERjRN__SrkVXgrvVB5x6JclPctRr1pdIAyegQV38M6dqmhVe2DL31dIlEOvqpe0YQ-u-Hj0AwNYebYWygT-DV02i23NkigLgoZs74YUUWW6mWOX8zX63uwLqTG2omqZESpYrD4yLgPm22udpu4TxtSOy2L6ESvFCijZvjYbkVhr4HWC0ty-xl0kKgOPX4hyAZS3QfeKvb4H3gUFeI-Wo81whySOXp7Scy86KKdB6KYncgSq8u3z1nrERwPmEllKXWM4VHMvN4paKblMw9SzncJBQesNNCwHeZcSkgMJ9MG6a6-eMfHRTmyqqCk2qnWkvZxm8L6jM4ncfjiKff1RfenRkr7Cwx1FaVIwQK1MfhOfEmlOnyG8UYz4iGkDnjFYXvge-PMoNqEtsvXgVYM8CuupmMVJegbK8e27eoJZ0jZ48VjjHJxBC9ofhxdm7rg_JE21VxTcxUY9SaiYIrk4gkYrZSZc8at-OTcsY4OWwNiWnXfYdg2xxVTpbreNDZly1ZuXzld6frHG9VQa9ZlNEz6Aq55ms6eP0PaMHmEYT2SgWzBsOQNiWfsKMM2gVrgtpvhYnPW127gU0SiJI5Yz4PErpkcZOyoQtAwOYjCHzLOSR8RPrzY-obP53plPJxzvNbTY9hhVSU9tP0L9TjAdFALjmYgkjzFwPyw2pY2bqWpybA04TUUJnfpVQnMlI8ac5bFChIeUxFmBLW3tLcGMhqBa6SG-ivRe5ca_-lfAvCHx5mXgLaw-iHnPq3wYsIRkbnOxz79GbwkjNynCTaCrKeCXvutQrFAZ41BpoFHQE_-0G00]--></g></svg>