<?xml version="1.0" encoding="us-ascii" standalone="no"?><svg xmlns="http://www.w3.org/2000/svg" xmlns:xlink="http://www.w3.org/1999/xlink" contentStyleType="text/css" height="772px" preserveAspectRatio="none" style="width:1195px;height:772px;background:#FFFFFF;" version="1.1" viewBox="0 0 1195 772" width="1195px" zoomAndPan="magnify"><defs/><g><text fill="#000000" font-family="sans-serif" font-size="14" font-weight="bold" lengthAdjust="spacing" textLength="169" x="511.5" y="29.9659">Static Settlement Matrix</text><rect fill="#F9FFF9" height="713.8441" style="stroke:#181818;stroke-width:0.5;" width="575.5" x="239.5" y="46.0679"/><text fill="#000000" font-family="sans-serif" font-size="13" font-weight="bold" lengthAdjust="spacing" textLength="101" x="475.25" y="59.9649">Settlements BC</text><rect fill="#FFFFF9" height="713.8441" style="stroke:#181818;stroke-width:0.5;" width="296.5" x="827.5" y="46.0679"/><text fill="#000000" font-family="sans-serif" font-size="13" font-weight="bold" lengthAdjust="spacing" textLength="171" x="888.75" y="59.9649">Accounts and Balances BC</text><rect fill="none" height="100.8241" style="stroke:#000000;stroke-width:1.5;" width="523" x="10" y="242.9599"/><rect fill="none" height="317.0602" style="stroke:#000000;stroke-width:1.5;" width="1120" x="10" y="357.784"/><line style="stroke:#181818;stroke-width:0.5;stroke-dasharray:5.0,5.0;" x1="62" x2="62" y1="132.8419" y2="691.8441"/><line style="stroke:#181818;stroke-width:0.5;stroke-dasharray:5.0,5.0;" x1="277.5" x2="277.5" y1="132.8419" y2="691.8441"/><line style="stroke:#181818;stroke-width:0.5;stroke-dasharray:5.0,5.0;" x1="465" x2="465" y1="132.8419" y2="691.8441"/><line style="stroke:#181818;stroke-width:0.5;stroke-dasharray:5.0,5.0;" x1="734" x2="734" y1="132.8419" y2="691.8441"/><line style="stroke:#181818;stroke-width:0.5;stroke-dasharray:5.0,5.0;" x1="866.5" x2="866.5" y1="132.8419" y2="691.8441"/><line style="stroke:#181818;stroke-width:0.5;stroke-dasharray:5.0,5.0;" x1="1077" x2="1077" y1="132.8419" y2="691.8441"/><rect fill="#E2E2F0" height="33.0679" rx="2.5" ry="2.5" style="stroke:#181818;stroke-width:0.5;" width="84" x="20" y="98.7739"/><text fill="#000000" font-family="sans-serif" font-size="14" lengthAdjust="spacing" textLength="70" x="27" y="120.7399">Admin API</text><rect fill="#E2E2F0" height="33.0679" rx="2.5" ry="2.5" style="stroke:#181818;stroke-width:0.5;" width="84" x="20" y="690.8441"/><text fill="#000000" font-family="sans-serif" font-size="14" lengthAdjust="spacing" textLength="70" x="27" y="712.8101">Admin API</text><rect fill="#D5E8D4" height="33.0679" rx="2.5" ry="2.5" style="stroke:#181818;stroke-width:0.5;" width="69" x="243.5" y="98.7739"/><text fill="#000000" font-family="sans-serif" font-size="14" lengthAdjust="spacing" textLength="55" x="250.5" y="120.7399">Rest API</text><rect fill="#D5E8D4" height="33.0679" rx="2.5" ry="2.5" style="stroke:#181818;stroke-width:0.5;" width="69" x="243.5" y="690.8441"/><text fill="#000000" font-family="sans-serif" font-size="14" lengthAdjust="spacing" textLength="55" x="250.5" y="712.8101">Rest API</text><rect fill="#EDC54D" height="52.1358" rx="2.5" ry="2.5" style="stroke:#181818;stroke-width:0.5;" width="116" x="407" y="79.706"/><text fill="#000000" font-family="sans-serif" font-size="14" lengthAdjust="spacing" textLength="102" x="414" y="101.672">Settlements BC</text><text fill="#000000" font-family="sans-serif" font-size="14" lengthAdjust="spacing" textLength="66" x="432" y="120.7399">App Logic</text><rect fill="#EDC54D" height="52.1358" rx="2.5" ry="2.5" style="stroke:#181818;stroke-width:0.5;" width="116" x="407" y="690.8441"/><text fill="#000000" font-family="sans-serif" font-size="14" lengthAdjust="spacing" textLength="102" x="414" y="712.8101">Settlements BC</text><text fill="#000000" font-family="sans-serif" font-size="14" lengthAdjust="spacing" textLength="66" x="432" y="731.878">App Logic</text><text fill="#000000" font-family="sans-serif" font-size="14" lengthAdjust="spacing" textLength="148" x="657" y="128.7399">Settlements-Database</text><path d="M716,77.7739 C716,67.7739 734,67.7739 734,67.7739 C734,67.7739 752,67.7739 752,77.7739 L752,103.7739 C752,113.7739 734,113.7739 734,113.7739 C734,113.7739 716,113.7739 716,103.7739 L716,77.7739 " fill="#DAE8FC" style="stroke:#181818;stroke-width:1.5;"/><path d="M716,77.7739 C716,87.7739 734,87.7739 734,87.7739 C734,87.7739 752,87.7739 752,77.7739 " fill="none" style="stroke:#181818;stroke-width:1.5;"/><text fill="#000000" font-family="sans-serif" font-size="14" lengthAdjust="spacing" textLength="148" x="657" y="705.8101">Settlements-Database</text><path d="M716,719.912 C716,709.912 734,709.912 734,709.912 C734,709.912 752,709.912 752,719.912 L752,745.912 C752,755.912 734,755.912 734,755.912 C734,755.912 716,755.912 716,745.912 L716,719.912 " fill="#DAE8FC" style="stroke:#181818;stroke-width:1.5;"/><path d="M716,719.912 C716,729.912 734,729.912 734,729.912 C734,729.912 752,729.912 752,719.912 " fill="none" style="stroke:#181818;stroke-width:1.5;"/><rect fill="#D5E8D4" height="33.0679" rx="2.5" ry="2.5" style="stroke:#181818;stroke-width:0.5;" width="71" x="831.5" y="98.7739"/><text fill="#000000" font-family="sans-serif" font-size="14" lengthAdjust="spacing" textLength="57" x="838.5" y="120.7399">A&amp;B SVC</text><rect fill="#D5E8D4" height="33.0679" rx="2.5" ry="2.5" style="stroke:#181818;stroke-width:0.5;" width="71" x="831.5" y="690.8441"/><text fill="#000000" font-family="sans-serif" font-size="14" lengthAdjust="spacing" textLength="57" x="838.5" y="712.8101">A&amp;B SVC</text><text fill="#000000" font-family="sans-serif" font-size="14" lengthAdjust="spacing" textLength="80" x="1034" y="128.7399">A&amp;B-Ledger</text><path d="M1059,77.7739 C1059,67.7739 1077,67.7739 1077,67.7739 C1077,67.7739 1095,67.7739 1095,77.7739 L1095,103.7739 C1095,113.7739 1077,113.7739 1077,113.7739 C1077,113.7739 1059,113.7739 1059,103.7739 L1059,77.7739 " fill="#DAE8FC" style="stroke:#181818;stroke-width:1.5;"/><path d="M1059,77.7739 C1059,87.7739 1077,87.7739 1077,87.7739 C1077,87.7739 1095,87.7739 1095,77.7739 " fill="none" style="stroke:#181818;stroke-width:1.5;"/><text fill="#000000" font-family="sans-serif" font-size="14" lengthAdjust="spacing" textLength="80" x="1034" y="705.8101">A&amp;B-Ledger</text><path d="M1059,719.912 C1059,709.912 1077,709.912 1077,709.912 C1077,709.912 1095,709.912 1095,719.912 L1095,745.912 C1095,755.912 1077,755.912 1077,755.912 C1077,755.912 1059,755.912 1059,745.912 L1059,719.912 " fill="#DAE8FC" style="stroke:#181818;stroke-width:1.5;"/><path d="M1059,719.912 C1059,729.912 1077,729.912 1077,729.912 C1077,729.912 1095,729.912 1095,719.912 " fill="none" style="stroke:#181818;stroke-width:1.5;"/><path d="M776,147.8419 L776,192.8419 L958,192.8419 L958,157.8419 L948,147.8419 L776,147.8419 " fill="#FEFFDD" style="stroke:#181818;stroke-width:0.5;"/><path d="M948,147.8419 L948,157.8419 L958,157.8419 L948,147.8419 " fill="#FEFFDD" style="stroke:#181818;stroke-width:0.5;"/><text fill="#000000" font-family="sans-serif" font-size="13" lengthAdjust="spacing" textLength="161" x="782" y="166.7389">Exposed gRPC interface for</text><text fill="#000000" font-family="sans-serif" font-size="13" lengthAdjust="spacing" textLength="126" x="782" y="184.4449">Accounts &amp; Balances.</text><path d="M966,203.2539 L966,230.2539 L1188,230.2539 L1188,213.2539 L1178,203.2539 L966,203.2539 " fill="#FEFFDD" style="stroke:#181818;stroke-width:0.5;"/><path d="M1178,203.2539 L1178,213.2539 L1188,213.2539 L1178,203.2539 " fill="#FEFFDD" style="stroke:#181818;stroke-width:0.5;"/><text fill="#000000" font-family="sans-serif" font-size="13" lengthAdjust="spacing" textLength="201" x="972" y="222.1509">TigerBeetle may be turned off/on.</text><path d="M10,242.9599 L320,242.9599 L320,252.6659 L310,262.6659 L10,262.6659 L10,242.9599 " fill="#EEEEEE" style="stroke:#000000;stroke-width:1.5;"/><rect fill="none" height="100.8241" style="stroke:#000000;stroke-width:1.5;" width="523" x="10" y="242.9599"/><text fill="#000000" font-family="sans-serif" font-size="13" font-weight="bold" lengthAdjust="spacing" textLength="265" x="25" y="257.8569">1. Trigger Settlement Matrix - Admin API</text><polygon fill="#181818" points="266,300.0779,276,304.0779,266,308.0779,270,304.0779" style="stroke:#181818;stroke-width:1.0;"/><line style="stroke:#181818;stroke-width:1.0;" x1="62" x2="272" y1="304.0779" y2="304.0779"/><text fill="#000000" font-family="sans-serif" font-size="13" font-weight="bold" lengthAdjust="spacing" textLength="7" x="69" y="289.4159">1</text><text fill="#000000" font-family="sans-serif" font-size="13" font-weight="bold" lengthAdjust="spacing" textLength="122" x="80" y="280.5629">Settlement Matrix</text><text fill="#000000" font-family="sans-serif" font-size="13" lengthAdjust="spacing" textLength="4" x="205" y="280.5629">-</text><text fill="#000000" font-family="sans-serif" font-size="13" font-style="italic" lengthAdjust="spacing" textLength="40" x="212" y="280.5629">STATIC</text><text fill="#000000" font-family="sans-serif" font-size="13" lengthAdjust="spacing" textLength="74" x="80" y="298.2689">(batchId list)</text><polygon fill="#181818" points="453,331.784,463,335.784,453,339.784,457,335.784" style="stroke:#181818;stroke-width:1.0;"/><line style="stroke:#181818;stroke-width:1.0;" x1="278" x2="459" y1="335.784" y2="335.784"/><text fill="#000000" font-family="sans-serif" font-size="13" font-weight="bold" lengthAdjust="spacing" textLength="7" x="285" y="329.975">2</text><text fill="#000000" font-family="sans-serif" font-size="13" lengthAdjust="spacing" textLength="123" x="296" y="329.975">Invoke the App layer</text><path d="M10,357.784 L216,357.784 L216,367.49 L206,377.49 L10,377.49 L10,357.784 " fill="#EEEEEE" style="stroke:#000000;stroke-width:1.5;"/><rect fill="none" height="317.0602" style="stroke:#000000;stroke-width:1.5;" width="1120" x="10" y="357.784"/><text fill="#000000" font-family="sans-serif" font-size="13" font-weight="bold" lengthAdjust="spacing" textLength="161" x="25" y="372.681">2. Settlement - App Logic</text><line style="stroke:#181818;stroke-width:1.0;stroke-dasharray:2.0,2.0;" x1="465" x2="507" y1="418.902" y2="418.902"/><line style="stroke:#181818;stroke-width:1.0;stroke-dasharray:2.0,2.0;" x1="507" x2="507" y1="418.902" y2="431.902"/><line style="stroke:#181818;stroke-width:1.0;stroke-dasharray:2.0,2.0;" x1="466" x2="507" y1="431.902" y2="431.902"/><polygon fill="#181818" points="475,414.902,465,418.902,475,422.902,471,418.902" style="stroke:#181818;stroke-width:1.0;"/><polygon fill="#181818" points="476,427.902,466,431.902,476,435.902,472,431.902" style="stroke:#181818;stroke-width:1.0;"/><text fill="#000000" font-family="sans-serif" font-size="13" font-weight="bold" lengthAdjust="spacing" textLength="7" x="472" y="404.24">1</text><text fill="#000000" font-family="sans-serif" font-size="13" lengthAdjust="spacing" textLength="199" x="483" y="395.387">Settlement Matrix triggered with:</text><text fill="#000000" font-family="sans-serif" font-size="13" lengthAdjust="spacing" textLength="11" x="483" y="413.093">-&gt;</text><text fill="#000000" font-family="sans-serif" font-size="13" font-weight="bold" lengthAdjust="spacing" textLength="57" x="497" y="413.093">Batch ID</text><text fill="#000000" font-family="sans-serif" font-size="13" lengthAdjust="spacing" textLength="153" x="557" y="413.093">- List of existing batch id's</text><polygon fill="#181818" points="476,459.608,466,463.608,476,467.608,472,463.608" style="stroke:#181818;stroke-width:1.0;"/><polygon fill="#181818" points="722,459.608,732,463.608,722,467.608,726,463.608" style="stroke:#181818;stroke-width:1.0;"/><line style="stroke:#181818;stroke-width:1.0;stroke-dasharray:2.0,2.0;" x1="470" x2="728" y1="463.608" y2="463.608"/><text fill="#000000" font-family="sans-serif" font-size="13" font-weight="bold" lengthAdjust="spacing" textLength="7" x="482" y="457.799">2</text><text fill="#000000" font-family="sans-serif" font-size="13" lengthAdjust="spacing" textLength="234" x="493" y="457.799">Fetch all batches via provided batchId's</text><polygon fill="#181818" points="476,491.314,466,495.314,476,499.314,472,495.314" style="stroke:#181818;stroke-width:1.0;"/><polygon fill="#181818" points="855,491.314,865,495.314,855,499.314,859,495.314" style="stroke:#181818;stroke-width:1.0;"/><line style="stroke:#181818;stroke-width:1.0;" x1="470" x2="861" y1="495.314" y2="495.314"/><text fill="#000000" font-family="sans-serif" font-size="13" font-weight="bold" lengthAdjust="spacing" textLength="7" x="482" y="489.505">3</text><text fill="#000000" font-family="sans-serif" font-size="13" lengthAdjust="spacing" textLength="117" x="493" y="489.505">Obtain Debit/Credit</text><text fill="#000000" font-family="sans-serif" font-size="13" font-weight="bold" lengthAdjust="spacing" textLength="139" x="613" y="489.505">Settlement Accounts</text><text fill="#000000" font-family="sans-serif" font-size="13" lengthAdjust="spacing" textLength="105" x="755" y="489.505">based on batches</text><polygon fill="#181818" points="878,523.0201,868,527.0201,878,531.0201,874,527.0201" style="stroke:#181818;stroke-width:1.0;"/><polygon fill="#181818" points="1065,523.0201,1075,527.0201,1065,531.0201,1069,527.0201" style="stroke:#181818;stroke-width:1.0;"/><line style="stroke:#181818;stroke-width:1.0;" x1="872" x2="1071" y1="527.0201" y2="527.0201"/><text fill="#000000" font-family="sans-serif" font-size="13" font-weight="bold" lengthAdjust="spacing" textLength="7" x="884" y="521.2111">4</text><text fill="#000000" font-family="sans-serif" font-size="13" lengthAdjust="spacing" textLength="33" x="895" y="521.2111">Fetch</text><text fill="#000000" font-family="sans-serif" font-size="13" font-weight="bold" lengthAdjust="spacing" textLength="139" x="931" y="521.2111">Settlement Accounts</text><polygon fill="#181818" points="476,554.7261,466,558.7261,476,562.7261,472,558.7261" style="stroke:#181818;stroke-width:1.0;"/><polygon fill="#181818" points="855,554.7261,865,558.7261,855,562.7261,859,558.7261" style="stroke:#181818;stroke-width:1.0;"/><line style="stroke:#181818;stroke-width:1.0;" x1="470" x2="861" y1="558.7261" y2="558.7261"/><text fill="#000000" font-family="sans-serif" font-size="13" font-weight="bold" lengthAdjust="spacing" textLength="7" x="482" y="552.9171">5</text><text fill="#000000" font-family="sans-serif" font-size="13" lengthAdjust="spacing" textLength="41" x="493" y="552.9171">Return</text><text fill="#000000" font-family="sans-serif" font-size="13" font-weight="bold" lengthAdjust="spacing" textLength="139" x="537" y="552.9171">Settlement Accounts</text><text fill="#000000" font-family="sans-serif" font-size="13" lengthAdjust="spacing" textLength="105" x="679" y="552.9171">based on batches</text><line style="stroke:#181818;stroke-width:1.0;stroke-dasharray:2.0,2.0;" x1="465" x2="507" y1="590.4321" y2="590.4321"/><line style="stroke:#181818;stroke-width:1.0;stroke-dasharray:2.0,2.0;" x1="507" x2="507" y1="590.4321" y2="603.4321"/><line style="stroke:#181818;stroke-width:1.0;stroke-dasharray:2.0,2.0;" x1="466" x2="507" y1="603.4321" y2="603.4321"/><polygon fill="#181818" points="475,586.4321,465,590.4321,475,594.4321,471,590.4321" style="stroke:#181818;stroke-width:1.0;"/><polygon fill="#181818" points="476,599.4321,466,603.4321,476,607.4321,472,603.4321" style="stroke:#181818;stroke-width:1.0;"/><text fill="#000000" font-family="sans-serif" font-size="13" font-weight="bold" lengthAdjust="spacing" textLength="7" x="472" y="584.6231">6</text><text fill="#000000" font-family="sans-serif" font-size="13" lengthAdjust="spacing" textLength="181" x="483" y="584.6231">Prepare the Settlement Matrix</text><polygon fill="#181818" points="289,631.1381,279,635.1381,289,639.1381,285,635.1381" style="stroke:#181818;stroke-width:1.0;"/><line style="stroke:#181818;stroke-width:1.0;" x1="283" x2="464" y1="635.1381" y2="635.1381"/><text fill="#000000" font-family="sans-serif" font-size="13" font-weight="bold" lengthAdjust="spacing" textLength="7" x="295" y="629.3291">7</text><text fill="#000000" font-family="sans-serif" font-size="13" lengthAdjust="spacing" textLength="152" x="306" y="629.3291">Return Settlement Matrix</text><polygon fill="#181818" points="73,662.8441,63,666.8441,73,670.8441,69,666.8441" style="stroke:#181818;stroke-width:1.0;"/><line style="stroke:#181818;stroke-width:1.0;" x1="67" x2="277" y1="666.8441" y2="666.8441"/><text fill="#000000" font-family="sans-serif" font-size="13" font-weight="bold" lengthAdjust="spacing" textLength="7" x="79" y="661.0351">8</text><text fill="#000000" font-family="sans-serif" font-size="13" lengthAdjust="spacing" textLength="181" x="90" y="661.0351">Matrix id returned in response</text><!--SRC=[bPHXYzf048O_Ntx5SCAr3KHfkOExK0vYOa2mdAZqao2RP8nBusxOhDRxzvsDPZNHQsa-cSdEC_FElAlcka2OQwPv2dFKzBP5eU47queV7ATaYhxmab7iFiYsN40m7Ty3gm0FUgKL4zKQLRLAKiT9vE62KS4mX5xy4iVnYtFN0ismqfPJ9UbAcK0lUXezHu-TistWKWHb2HEPyzGcix9S5IO2lL4KFZr6pbt6D4jOXQrqBpf5RMQMKD5Wz1o73eeCgF-ZY21DvSuKP1GTieA954zoubeEqDCUpSCGvZ_3cimIGkUgJAqYS_pS4ftr9fZbgCx7DQVN1D5iesd9P0cf4UGUrPbQnyqpEfIomWposJG4BZIgDKiHrbBP8rR8WvNHhpyQkOPzgyX5BnQqCB7XiRyjUuS4GU-KeEfolHv8qQ7QQUPAxahuseU5uZaXhZq67bXVEModfTXj4pnAw5eClDUpNNnmtIkQwn9lC9WlWiKu70oMudF2TBePPr3mId-fgPPmeftzuyDOxEKlqhP1C4Ohs3krGceQ9T_wbmeyi6xijju6V_UwjVmRaz376T5GVtEzyPU2abntQ0J0EAgbJKW5ZPmcGp-uoA6M1ppxLFsjB1dTXnZDKLOKnoHoz9upA9NSyungdWP5e9karmjV-_2MQ4OxYp3XUX1Iorotrz4uZxeshYUVYAPiZJ_3BFh2Tqsp7o1l4BgBdA7nv__rzA-T4NQgaExzqI3NVvVNaBPXJqrzdDZOyihuVkCHde72qzMZ1L12AKLLtpZd3m00]--></g></svg>