<?xml version="1.0" encoding="us-ascii" standalone="no"?><svg xmlns="http://www.w3.org/2000/svg" xmlns:xlink="http://www.w3.org/1999/xlink" contentStyleType="text/css" height="799px" preserveAspectRatio="none" style="width:1243px;height:799px;background:#FFFFFF;" version="1.1" viewBox="0 0 1243 799" width="1243px" zoomAndPan="magnify"><defs/><g><rect fill="#005B96" height="37.24" id="_title" rx="5" ry="5" style="stroke:#005B96;stroke-width:6.0;" width="293" x="473.5" y="10"/><text fill="#FFFFFF" font-family="sans-serif" font-size="20" font-style="italic" font-weight="bold" lengthAdjust="spacing" textLength="82" x="478.5" y="36.38">Dynamic</text><text fill="#FFFFFF" font-family="sans-serif" font-size="20" font-weight="bold" lengthAdjust="spacing" textLength="196" x="565.5" y="36.38">- Settlement Matrix</text><rect fill="#F9FFF9" height="731.9622" style="stroke:#181818;stroke-width:0.5;" width="720.5" x="272.5" y="54.24"/><text fill="#000000" font-family="sans-serif" font-size="13" font-weight="bold" lengthAdjust="spacing" textLength="101" x="580.75" y="68.137">Settlements BC</text><rect fill="#FFFFF9" height="731.9622" style="stroke:#181818;stroke-width:0.5;" width="180" x="995" y="54.24"/><text fill="#000000" font-family="sans-serif" font-size="13" font-weight="bold" lengthAdjust="spacing" textLength="171" x="998" y="68.137">Accounts and Balances BC</text><rect fill="none" height="100.8241" style="stroke:#000000;stroke-width:1.5;" width="598" x="10" y="306.544"/><rect fill="none" height="279.7662" style="stroke:#000000;stroke-width:1.5;" width="989" x="10" y="421.3681"/><line style="stroke:#181818;stroke-width:0.5;stroke-dasharray:5.0,5.0;" x1="62" x2="62" y1="141.0139" y2="718.1342"/><line style="stroke:#181818;stroke-width:0.5;stroke-dasharray:5.0,5.0;" x1="310.5" x2="310.5" y1="141.0139" y2="718.1342"/><line style="stroke:#181818;stroke-width:0.5;stroke-dasharray:5.0,5.0;" x1="409.5" x2="409.5" y1="141.0139" y2="718.1342"/><line style="stroke:#181818;stroke-width:0.5;stroke-dasharray:5.0,5.0;" x1="540" x2="540" y1="141.0139" y2="718.1342"/><line style="stroke:#181818;stroke-width:0.5;stroke-dasharray:5.0,5.0;" x1="912" x2="912" y1="141.0139" y2="718.1342"/><line style="stroke:#181818;stroke-width:0.5;stroke-dasharray:5.0,5.0;" x1="1036.5" x2="1036.5" y1="141.0139" y2="718.1342"/><line style="stroke:#181818;stroke-width:0.5;stroke-dasharray:5.0,5.0;" x1="1125.5" x2="1125.5" y1="141.0139" y2="718.1342"/><rect fill="#E2E2F0" height="33.0679" rx="2.5" ry="2.5" style="stroke:#181818;stroke-width:0.5;" width="84" x="20" y="106.946"/><text fill="#000000" font-family="sans-serif" font-size="14" lengthAdjust="spacing" textLength="70" x="27" y="128.9119">Admin API</text><rect fill="#E2E2F0" height="33.0679" rx="2.5" ry="2.5" style="stroke:#181818;stroke-width:0.5;" width="84" x="20" y="717.1342"/><text fill="#000000" font-family="sans-serif" font-size="14" lengthAdjust="spacing" textLength="70" x="27" y="739.1002">Admin API</text><rect fill="#D5E8D4" height="33.0679" rx="2.5" ry="2.5" style="stroke:#181818;stroke-width:0.5;" width="69" x="276.5" y="106.946"/><text fill="#000000" font-family="sans-serif" font-size="14" lengthAdjust="spacing" textLength="55" x="283.5" y="128.9119">Rest API</text><rect fill="#D5E8D4" height="33.0679" rx="2.5" ry="2.5" style="stroke:#181818;stroke-width:0.5;" width="69" x="276.5" y="717.1342"/><text fill="#000000" font-family="sans-serif" font-size="14" lengthAdjust="spacing" textLength="55" x="283.5" y="739.1002">Rest API</text><rect fill="#D5E8D4" height="33.0679" rx="2.5" ry="2.5" style="stroke:#181818;stroke-width:0.5;" width="109" x="355.5" y="106.946"/><text fill="#000000" font-family="sans-serif" font-size="14" lengthAdjust="spacing" textLength="95" x="362.5" y="128.9119">Event Handler</text><rect fill="#D5E8D4" height="33.0679" rx="2.5" ry="2.5" style="stroke:#181818;stroke-width:0.5;" width="109" x="355.5" y="717.1342"/><text fill="#000000" font-family="sans-serif" font-size="14" lengthAdjust="spacing" textLength="95" x="362.5" y="739.1002">Event Handler</text><rect fill="#EDC54D" height="52.1358" rx="2.5" ry="2.5" style="stroke:#181818;stroke-width:0.5;" width="116" x="482" y="87.8781"/><text fill="#000000" font-family="sans-serif" font-size="14" lengthAdjust="spacing" textLength="102" x="489" y="109.844">Settlements BC</text><text fill="#000000" font-family="sans-serif" font-size="14" lengthAdjust="spacing" textLength="66" x="507" y="128.9119">App Logic</text><rect fill="#EDC54D" height="52.1358" rx="2.5" ry="2.5" style="stroke:#181818;stroke-width:0.5;" width="116" x="482" y="717.1342"/><text fill="#000000" font-family="sans-serif" font-size="14" lengthAdjust="spacing" textLength="102" x="489" y="739.1002">Settlements BC</text><text fill="#000000" font-family="sans-serif" font-size="14" lengthAdjust="spacing" textLength="66" x="507" y="758.1681">App Logic</text><text fill="#000000" font-family="sans-serif" font-size="14" lengthAdjust="spacing" textLength="148" x="835" y="136.9119">Settlements-Database</text><path d="M894,85.946 C894,75.946 912,75.946 912,75.946 C912,75.946 930,75.946 930,85.946 L930,111.946 C930,121.946 912,121.946 912,121.946 C912,121.946 894,121.946 894,111.946 L894,85.946 " fill="#DAE8FC" style="stroke:#181818;stroke-width:1.5;"/><path d="M894,85.946 C894,95.946 912,95.946 912,95.946 C912,95.946 930,95.946 930,85.946 " fill="none" style="stroke:#181818;stroke-width:1.5;"/><text fill="#000000" font-family="sans-serif" font-size="14" lengthAdjust="spacing" textLength="148" x="835" y="732.1002">Settlements-Database</text><path d="M894,746.2022 C894,736.2022 912,736.2022 912,736.2022 C912,736.2022 930,736.2022 930,746.2022 L930,772.2022 C930,782.2022 912,782.2022 912,782.2022 C912,782.2022 894,782.2022 894,772.2022 L894,746.2022 " fill="#DAE8FC" style="stroke:#181818;stroke-width:1.5;"/><path d="M894,746.2022 C894,756.2022 912,756.2022 912,756.2022 C912,756.2022 930,756.2022 930,746.2022 " fill="none" style="stroke:#181818;stroke-width:1.5;"/><rect fill="#D5E8D4" height="33.0679" rx="2.5" ry="2.5" style="stroke:#181818;stroke-width:0.5;" width="71" x="1001.5" y="106.946"/><text fill="#000000" font-family="sans-serif" font-size="14" lengthAdjust="spacing" textLength="57" x="1008.5" y="128.9119">A&amp;B SVC</text><rect fill="#D5E8D4" height="33.0679" rx="2.5" ry="2.5" style="stroke:#181818;stroke-width:0.5;" width="71" x="1001.5" y="717.1342"/><text fill="#000000" font-family="sans-serif" font-size="14" lengthAdjust="spacing" textLength="57" x="1008.5" y="739.1002">A&amp;B SVC</text><text fill="#000000" font-family="sans-serif" font-size="14" lengthAdjust="spacing" textLength="80" x="1082.5" y="136.9119">A&amp;B-Ledger</text><path d="M1107.5,85.946 C1107.5,75.946 1125.5,75.946 1125.5,75.946 C1125.5,75.946 1143.5,75.946 1143.5,85.946 L1143.5,111.946 C1143.5,121.946 1125.5,121.946 1125.5,121.946 C1125.5,121.946 1107.5,121.946 1107.5,111.946 L1107.5,85.946 " fill="#DAE8FC" style="stroke:#181818;stroke-width:1.5;"/><path d="M1107.5,85.946 C1107.5,95.946 1125.5,95.946 1125.5,95.946 C1125.5,95.946 1143.5,95.946 1143.5,85.946 " fill="none" style="stroke:#181818;stroke-width:1.5;"/><text fill="#000000" font-family="sans-serif" font-size="14" lengthAdjust="spacing" textLength="80" x="1082.5" y="732.1002">A&amp;B-Ledger</text><path d="M1107.5,746.2022 C1107.5,736.2022 1125.5,736.2022 1125.5,736.2022 C1125.5,736.2022 1143.5,736.2022 1143.5,746.2022 L1143.5,772.2022 C1143.5,782.2022 1125.5,782.2022 1125.5,782.2022 C1125.5,782.2022 1107.5,782.2022 1107.5,772.2022 L1107.5,746.2022 " fill="#DAE8FC" style="stroke:#181818;stroke-width:1.5;"/><path d="M1107.5,746.2022 C1107.5,756.2022 1125.5,756.2022 1125.5,756.2022 C1125.5,756.2022 1143.5,756.2022 1143.5,746.2022 " fill="none" style="stroke:#181818;stroke-width:1.5;"/><path d="M285,156.0139 L285,201.0139 L534,201.0139 L534,166.0139 L524,156.0139 L285,156.0139 " fill="#FEFFDD" style="stroke:#181818;stroke-width:0.5;"/><path d="M524,156.0139 L524,166.0139 L534,166.0139 L524,156.0139 " fill="#FEFFDD" style="stroke:#181818;stroke-width:0.5;"/><text fill="#000000" font-family="sans-serif" font-size="13" lengthAdjust="spacing" textLength="74" x="291" y="174.9109">Kafka Topics</text><text fill="#000000" font-family="sans-serif" font-size="13" lengthAdjust="spacing" textLength="228" x="291" y="192.6169">- Topic for Settlement Matrix Accounts</text><path d="M946,211.4259 L946,256.4259 L1128,256.4259 L1128,221.4259 L1118,211.4259 L946,211.4259 " fill="#FEFFDD" style="stroke:#181818;stroke-width:0.5;"/><path d="M1118,211.4259 L1118,221.4259 L1128,221.4259 L1118,211.4259 " fill="#FEFFDD" style="stroke:#181818;stroke-width:0.5;"/><text fill="#000000" font-family="sans-serif" font-size="13" lengthAdjust="spacing" textLength="161" x="952" y="230.323">Exposed gRPC interface for</text><text fill="#000000" font-family="sans-serif" font-size="13" lengthAdjust="spacing" textLength="126" x="952" y="248.029">Accounts &amp; Balances.</text><path d="M1014,266.838 L1014,293.838 L1236,293.838 L1236,276.838 L1226,266.838 L1014,266.838 " fill="#FEFFDD" style="stroke:#181818;stroke-width:0.5;"/><path d="M1226,266.838 L1226,276.838 L1236,276.838 L1226,266.838 " fill="#FEFFDD" style="stroke:#181818;stroke-width:0.5;"/><text fill="#000000" font-family="sans-serif" font-size="13" lengthAdjust="spacing" textLength="201" x="1020" y="285.735">TigerBeetle may be turned off/on.</text><path d="M10,306.544 L269,306.544 L269,316.25 L259,326.25 L10,326.25 L10,306.544 " fill="#EEEEEE" style="stroke:#000000;stroke-width:1.5;"/><rect fill="none" height="100.8241" style="stroke:#000000;stroke-width:1.5;" width="598" x="10" y="306.544"/><text fill="#000000" font-family="sans-serif" font-size="13" font-weight="bold" lengthAdjust="spacing" textLength="214" x="25" y="321.441">1. Settlement Matrix - Admin API</text><polygon fill="#181818" points="299,363.662,309,367.662,299,371.662,303,367.662" style="stroke:#181818;stroke-width:1.0;"/><line style="stroke:#181818;stroke-width:1.0;" x1="62" x2="305" y1="367.662" y2="367.662"/><text fill="#000000" font-family="sans-serif" font-size="13" font-weight="bold" lengthAdjust="spacing" textLength="7" x="69" y="353">1</text><text fill="#000000" font-family="sans-serif" font-size="13" font-weight="bold" lengthAdjust="spacing" textLength="122" x="80" y="344.147">Settlement Matrix</text><text fill="#000000" font-family="sans-serif" font-size="13" lengthAdjust="spacing" textLength="4" x="205" y="344.147">-</text><text fill="#000000" font-family="sans-serif" font-size="13" font-style="italic" lengthAdjust="spacing" textLength="55" x="212" y="344.147">DYNAMIC</text><text fill="#000000" font-family="sans-serif" font-size="13" lengthAdjust="spacing" textLength="214" x="80" y="361.853">(model, fromDate, toDate, currency)</text><polygon fill="#181818" points="528,395.3681,538,399.3681,528,403.3681,532,399.3681" style="stroke:#181818;stroke-width:1.0;"/><line style="stroke:#181818;stroke-width:1.0;stroke-dasharray:2.0,2.0;" x1="311" x2="534" y1="399.3681" y2="399.3681"/><text fill="#000000" font-family="sans-serif" font-size="13" font-weight="bold" lengthAdjust="spacing" textLength="7" x="318" y="393.5591">2</text><text fill="#000000" font-family="sans-serif" font-size="13" lengthAdjust="spacing" textLength="123" x="329" y="393.5591">Invoke the App layer</text><path d="M10,421.3681 L263,421.3681 L263,431.0741 L253,441.0741 L10,441.0741 L10,421.3681 " fill="#EEEEEE" style="stroke:#000000;stroke-width:1.5;"/><rect fill="none" height="279.7662" style="stroke:#000000;stroke-width:1.5;" width="989" x="10" y="421.3681"/><text fill="#000000" font-family="sans-serif" font-size="13" font-weight="bold" lengthAdjust="spacing" textLength="208" x="25" y="436.2651">2. Settlement Matrix - App Logic</text><line style="stroke:#181818;stroke-width:1.0;stroke-dasharray:2.0,2.0;" x1="540" x2="582" y1="535.6042" y2="535.6042"/><line style="stroke:#181818;stroke-width:1.0;stroke-dasharray:2.0,2.0;" x1="582" x2="582" y1="535.6042" y2="548.6042"/><line style="stroke:#181818;stroke-width:1.0;stroke-dasharray:2.0,2.0;" x1="541" x2="582" y1="548.6042" y2="548.6042"/><polygon fill="#181818" points="550,531.6042,540,535.6042,550,539.6042,546,535.6042" style="stroke:#181818;stroke-width:1.0;"/><polygon fill="#181818" points="551,544.6042,541,548.6042,551,552.6042,547,548.6042" style="stroke:#181818;stroke-width:1.0;"/><text fill="#000000" font-family="sans-serif" font-size="13" font-weight="bold" lengthAdjust="spacing" textLength="7" x="547" y="494.3831">3</text><text fill="#000000" font-family="sans-serif" font-size="13" font-weight="bold" lengthAdjust="spacing" textLength="122" x="558" y="458.9711">Settlement Matrix</text><text fill="#000000" font-family="sans-serif" font-size="13" lengthAdjust="spacing" textLength="157" x="683" y="458.9711">generation triggered with:</text><text fill="#000000" font-family="sans-serif" font-size="13" lengthAdjust="spacing" textLength="11" x="558" y="476.6771">-&gt;</text><text fill="#000000" font-family="sans-serif" font-size="13" font-weight="bold" lengthAdjust="spacing" textLength="69" x="572" y="476.6771">From Date</text><text fill="#000000" font-family="sans-serif" font-size="13" lengthAdjust="spacing" textLength="39" x="644" y="476.6771">- From</text><text fill="#000000" font-family="sans-serif" font-size="13" lengthAdjust="spacing" textLength="11" x="558" y="494.3831">-&gt;</text><text fill="#000000" font-family="sans-serif" font-size="13" font-weight="bold" lengthAdjust="spacing" textLength="51" x="572" y="494.3831">To Date</text><text fill="#000000" font-family="sans-serif" font-size="13" lengthAdjust="spacing" textLength="22" x="626" y="494.3831">- To</text><text fill="#000000" font-family="sans-serif" font-size="13" lengthAdjust="spacing" textLength="11" x="558" y="512.0891">-&gt;</text><text fill="#000000" font-family="sans-serif" font-size="13" font-weight="bold" lengthAdjust="spacing" textLength="118" x="572" y="512.0891">Settlement Model</text><text fill="#000000" font-family="sans-serif" font-size="13" lengthAdjust="spacing" textLength="45" x="693" y="512.0891">- Model</text><text fill="#000000" font-family="sans-serif" font-size="13" lengthAdjust="spacing" textLength="11" x="558" y="529.7952">-&gt;</text><text fill="#000000" font-family="sans-serif" font-size="13" font-weight="bold" lengthAdjust="spacing" textLength="60" x="572" y="529.7952">Currency</text><text fill="#000000" font-family="sans-serif" font-size="13" lengthAdjust="spacing" textLength="111" x="635" y="529.7952">- Transfer currency</text><polygon fill="#181818" points="551,576.3102,541,580.3102,551,584.3102,547,580.3102" style="stroke:#181818;stroke-width:1.0;"/><polygon fill="#181818" points="900,576.3102,910,580.3102,900,584.3102,904,580.3102" style="stroke:#181818;stroke-width:1.0;"/><line style="stroke:#181818;stroke-width:1.0;stroke-dasharray:2.0,2.0;" x1="545" x2="906" y1="580.3102" y2="580.3102"/><text fill="#000000" font-family="sans-serif" font-size="13" font-weight="bold" lengthAdjust="spacing" textLength="7" x="557" y="574.5012">4</text><text fill="#000000" font-family="sans-serif" font-size="13" lengthAdjust="spacing" textLength="337" x="568" y="574.5012">Fetch all batches that form part of the settlement criteria</text><polygon fill="#181818" points="551,625.7222,541,629.7222,551,633.7222,547,629.7222" style="stroke:#181818;stroke-width:1.0;"/><polygon fill="#181818" points="900,625.7222,910,629.7222,900,633.7222,904,629.7222" style="stroke:#181818;stroke-width:1.0;"/><line style="stroke:#181818;stroke-width:1.0;stroke-dasharray:2.0,2.0;" x1="545" x2="906" y1="629.7222" y2="629.7222"/><text fill="#000000" font-family="sans-serif" font-size="13" font-weight="bold" lengthAdjust="spacing" textLength="7" x="557" y="615.0602">5</text><text fill="#000000" font-family="sans-serif" font-size="13" lengthAdjust="spacing" textLength="299" x="568" y="606.2072">Associate the batches that for part of the selection</text><text fill="#000000" font-family="sans-serif" font-size="13" lengthAdjust="spacing" textLength="93" x="568" y="623.9132">criteria with the</text><text fill="#000000" font-family="sans-serif" font-size="13" font-weight="bold" lengthAdjust="spacing" textLength="122" x="664" y="623.9132">Settlement Matrix</text><polygon fill="#181818" points="322,657.4282,312,661.4282,322,665.4282,318,661.4282" style="stroke:#181818;stroke-width:1.0;"/><line style="stroke:#181818;stroke-width:1.0;stroke-dasharray:2.0,2.0;" x1="316" x2="539" y1="661.4282" y2="661.4282"/><text fill="#000000" font-family="sans-serif" font-size="13" font-weight="bold" lengthAdjust="spacing" textLength="7" x="328" y="655.6192">6</text><text fill="#000000" font-family="sans-serif" font-size="13" font-weight="bold" lengthAdjust="spacing" textLength="138" x="339" y="655.6192">Settlement Matrix Id</text><text fill="#000000" font-family="sans-serif" font-size="13" lengthAdjust="spacing" textLength="53" x="480" y="655.6192">returned</text><polygon fill="#181818" points="73,689.1342,63,693.1342,73,697.1342,69,693.1342" style="stroke:#181818;stroke-width:1.0;"/><line style="stroke:#181818;stroke-width:1.0;" x1="67" x2="310" y1="693.1342" y2="693.1342"/><text fill="#000000" font-family="sans-serif" font-size="13" font-weight="bold" lengthAdjust="spacing" textLength="7" x="79" y="687.3252">7</text><text fill="#000000" font-family="sans-serif" font-size="13" lengthAdjust="spacing" textLength="181" x="90" y="687.3252">Matrix id returned in response</text><!--SRC=[XLJlQzim4Ftkl-9OeMoXRjBIZZQCWkCahAmTfGs3GQ38yYKHiIKZALsoltvdsLP-E5tz9SxfwTszbtSnIo4BfbaE4s4p72jfNyHVXCjUODf7iSgKXfEnUtO0jWGCb4vHFwkLJ6Eb9Mguw1t7J1Q2BoKQ0r-F0-e-lTxruBODONmvrrMRNPWxX6vtk94i5xpRXH1Uq58nHsdXaLajra50J5PmKJ2gVOhIN4Y8dku_0JE0Q_lAio18r7hdfe51J9flIV9j0FJiCJoZiPx09FnLbuMJuVNePdZLXe_Uobc-CvbcgFqTTDNTIr9P1FL69lfpLo-V7sosP31HXU365yEg03DofAKQ8ix9C5l1KQQElptTlkYfZ8e27jHSS3yfAuhNhAp0oMWONryD7KdAB4kOmJs6S5XN_UKq8OtHw6OS1-KCP7FbTJCTa2qmO1cJ76lNnyTTZqu7yF8hTimi8UgvBlYUWTkH21i-O3gl_NPmA-XhWbWcfXbfttRFwXqUhGjbC8NvyrCCGbhKCyQnDDn3l91JB-EyRVb1avrPFD6ah0sg-NAsWGJ1hcYdKb2pMLV90rRlPhaN1LoS7ub023xi0LjP9LTvWjNeLUuXlDi6k0-TJekZqo4MMh3VFwF7-xZRdShFkKenEuEPLZdzt7W6LbMVVAKrIhxvuZfuth1kiirH7-xbcrgIm0L26RYCRMWkajJ8kNn7JXDEts5B-gtLvpr1SwH_AcQ5aa2LETbE9lyHTj6VIkBeTCOa3KfDJdtvhJwOg6rvekhYRelI6dVgtcf0NFjINTDCcXa5eN7hVr9eU_emHiiNmB8C4aPlj2PsmMmPmjnj2EN36McsSt0jAAk2VSWT6QEu84cEuP3_W3v3xaoRoeRVkUPEZpfzf7tuOUBWFYMZD5RXFuZINHFSVeCMgSVIXjAxAPGqRZ-2Vm00]--></g></svg>