<?xml version="1.0" encoding="us-ascii" standalone="no"?><svg xmlns="http://www.w3.org/2000/svg" xmlns:xlink="http://www.w3.org/1999/xlink" contentStyleType="text/css" height="967px" preserveAspectRatio="none" style="width:1550px;height:967px;background:#FFFFFF;" version="1.1" viewBox="0 0 1550 967" width="1550px" zoomAndPan="magnify"><defs/><g><rect fill="#005B96" height="37.24" id="_title" rx="5" ry="5" style="stroke:#005B96;stroke-width:6.0;" width="253" x="644.5" y="10"/><text fill="#FFFFFF" font-family="sans-serif" font-size="20" font-weight="bold" lengthAdjust="spacing" textLength="243" x="649.5" y="36.38">Close Settlement Matrix</text><rect fill="#F9FFF9" height="899.7862" style="stroke:#181818;stroke-width:0.5;" width="819.5" x="356.5" y="54.24"/><text fill="#000000" font-family="sans-serif" font-size="13" font-weight="bold" lengthAdjust="spacing" textLength="101" x="714.25" y="68.137">Settlements BC</text><rect fill="#FFFFF9" height="899.7862" style="stroke:#181818;stroke-width:0.5;" width="296.5" x="1178" y="54.24"/><text fill="#000000" font-family="sans-serif" font-size="13" font-weight="bold" lengthAdjust="spacing" textLength="171" x="1239.25" y="68.137">Accounts and Balances BC</text><rect fill="none" height="100.8241" style="stroke:#000000;stroke-width:1.5;" width="742" x="10" y="306.544"/><rect fill="none" height="447.5902" style="stroke:#000000;stroke-width:1.5;" width="1470.5" x="10" y="421.3681"/><line style="stroke:#181818;stroke-width:0.5;stroke-dasharray:5.0,5.0;" x1="62" x2="62" y1="141.0139" y2="885.9583"/><line style="stroke:#181818;stroke-width:0.5;stroke-dasharray:5.0,5.0;" x1="394.5" x2="394.5" y1="141.0139" y2="885.9583"/><line style="stroke:#181818;stroke-width:0.5;stroke-dasharray:5.0,5.0;" x1="493.5" x2="493.5" y1="141.0139" y2="885.9583"/><line style="stroke:#181818;stroke-width:0.5;stroke-dasharray:5.0,5.0;" x1="684" x2="684" y1="141.0139" y2="885.9583"/><line style="stroke:#181818;stroke-width:0.5;stroke-dasharray:5.0,5.0;" x1="1095" x2="1095" y1="141.0139" y2="885.9583"/><line style="stroke:#181818;stroke-width:0.5;stroke-dasharray:5.0,5.0;" x1="1217" x2="1217" y1="141.0139" y2="885.9583"/><line style="stroke:#181818;stroke-width:0.5;stroke-dasharray:5.0,5.0;" x1="1427.5" x2="1427.5" y1="141.0139" y2="885.9583"/><rect fill="#E2E2F0" height="33.0679" rx="2.5" ry="2.5" style="stroke:#181818;stroke-width:0.5;" width="84" x="20" y="106.946"/><text fill="#000000" font-family="sans-serif" font-size="14" lengthAdjust="spacing" textLength="70" x="27" y="128.9119">Admin API</text><rect fill="#E2E2F0" height="33.0679" rx="2.5" ry="2.5" style="stroke:#181818;stroke-width:0.5;" width="84" x="20" y="884.9583"/><text fill="#000000" font-family="sans-serif" font-size="14" lengthAdjust="spacing" textLength="70" x="27" y="906.9242">Admin API</text><rect fill="#D5E8D4" height="33.0679" rx="2.5" ry="2.5" style="stroke:#181818;stroke-width:0.5;" width="69" x="360.5" y="106.946"/><text fill="#000000" font-family="sans-serif" font-size="14" lengthAdjust="spacing" textLength="55" x="367.5" y="128.9119">Rest API</text><rect fill="#D5E8D4" height="33.0679" rx="2.5" ry="2.5" style="stroke:#181818;stroke-width:0.5;" width="69" x="360.5" y="884.9583"/><text fill="#000000" font-family="sans-serif" font-size="14" lengthAdjust="spacing" textLength="55" x="367.5" y="906.9242">Rest API</text><rect fill="#D5E8D4" height="33.0679" rx="2.5" ry="2.5" style="stroke:#181818;stroke-width:0.5;" width="109" x="439.5" y="106.946"/><text fill="#000000" font-family="sans-serif" font-size="14" lengthAdjust="spacing" textLength="95" x="446.5" y="128.9119">Event Handler</text><rect fill="#D5E8D4" height="33.0679" rx="2.5" ry="2.5" style="stroke:#181818;stroke-width:0.5;" width="109" x="439.5" y="884.9583"/><text fill="#000000" font-family="sans-serif" font-size="14" lengthAdjust="spacing" textLength="95" x="446.5" y="906.9242">Event Handler</text><rect fill="#EDC54D" height="52.1358" rx="2.5" ry="2.5" style="stroke:#181818;stroke-width:0.5;" width="116" x="626" y="87.8781"/><text fill="#000000" font-family="sans-serif" font-size="14" lengthAdjust="spacing" textLength="102" x="633" y="109.844">Settlements BC</text><text fill="#000000" font-family="sans-serif" font-size="14" lengthAdjust="spacing" textLength="66" x="651" y="128.9119">App Logic</text><rect fill="#EDC54D" height="52.1358" rx="2.5" ry="2.5" style="stroke:#181818;stroke-width:0.5;" width="116" x="626" y="884.9583"/><text fill="#000000" font-family="sans-serif" font-size="14" lengthAdjust="spacing" textLength="102" x="633" y="906.9242">Settlements BC</text><text fill="#000000" font-family="sans-serif" font-size="14" lengthAdjust="spacing" textLength="66" x="651" y="925.9922">App Logic</text><text fill="#000000" font-family="sans-serif" font-size="14" lengthAdjust="spacing" textLength="148" x="1018" y="136.9119">Settlements-Database</text><path d="M1077,85.946 C1077,75.946 1095,75.946 1095,75.946 C1095,75.946 1113,75.946 1113,85.946 L1113,111.946 C1113,121.946 1095,121.946 1095,121.946 C1095,121.946 1077,121.946 1077,111.946 L1077,85.946 " fill="#DAE8FC" style="stroke:#181818;stroke-width:1.5;"/><path d="M1077,85.946 C1077,95.946 1095,95.946 1095,95.946 C1095,95.946 1113,95.946 1113,85.946 " fill="none" style="stroke:#181818;stroke-width:1.5;"/><text fill="#000000" font-family="sans-serif" font-size="14" lengthAdjust="spacing" textLength="148" x="1018" y="899.9242">Settlements-Database</text><path d="M1077,914.0262 C1077,904.0262 1095,904.0262 1095,904.0262 C1095,904.0262 1113,904.0262 1113,914.0262 L1113,940.0262 C1113,950.0262 1095,950.0262 1095,950.0262 C1095,950.0262 1077,950.0262 1077,940.0262 L1077,914.0262 " fill="#DAE8FC" style="stroke:#181818;stroke-width:1.5;"/><path d="M1077,914.0262 C1077,924.0262 1095,924.0262 1095,924.0262 C1095,924.0262 1113,924.0262 1113,914.0262 " fill="none" style="stroke:#181818;stroke-width:1.5;"/><rect fill="#D5E8D4" height="33.0679" rx="2.5" ry="2.5" style="stroke:#181818;stroke-width:0.5;" width="71" x="1182" y="106.946"/><text fill="#000000" font-family="sans-serif" font-size="14" lengthAdjust="spacing" textLength="57" x="1189" y="128.9119">A&amp;B SVC</text><rect fill="#D5E8D4" height="33.0679" rx="2.5" ry="2.5" style="stroke:#181818;stroke-width:0.5;" width="71" x="1182" y="884.9583"/><text fill="#000000" font-family="sans-serif" font-size="14" lengthAdjust="spacing" textLength="57" x="1189" y="906.9242">A&amp;B SVC</text><text fill="#000000" font-family="sans-serif" font-size="14" lengthAdjust="spacing" textLength="80" x="1384.5" y="136.9119">A&amp;B-Ledger</text><path d="M1409.5,85.946 C1409.5,75.946 1427.5,75.946 1427.5,75.946 C1427.5,75.946 1445.5,75.946 1445.5,85.946 L1445.5,111.946 C1445.5,121.946 1427.5,121.946 1427.5,121.946 C1427.5,121.946 1409.5,121.946 1409.5,111.946 L1409.5,85.946 " fill="#DAE8FC" style="stroke:#181818;stroke-width:1.5;"/><path d="M1409.5,85.946 C1409.5,95.946 1427.5,95.946 1427.5,95.946 C1427.5,95.946 1445.5,95.946 1445.5,85.946 " fill="none" style="stroke:#181818;stroke-width:1.5;"/><text fill="#000000" font-family="sans-serif" font-size="14" lengthAdjust="spacing" textLength="80" x="1384.5" y="899.9242">A&amp;B-Ledger</text><path d="M1409.5,914.0262 C1409.5,904.0262 1427.5,904.0262 1427.5,904.0262 C1427.5,904.0262 1445.5,904.0262 1445.5,914.0262 L1445.5,940.0262 C1445.5,950.0262 1427.5,950.0262 1427.5,950.0262 C1427.5,950.0262 1409.5,950.0262 1409.5,940.0262 L1409.5,914.0262 " fill="#DAE8FC" style="stroke:#181818;stroke-width:1.5;"/><path d="M1409.5,914.0262 C1409.5,924.0262 1427.5,924.0262 1427.5,924.0262 C1427.5,924.0262 1445.5,924.0262 1445.5,914.0262 " fill="none" style="stroke:#181818;stroke-width:1.5;"/><path d="M369,156.0139 L369,201.0139 L618,201.0139 L618,166.0139 L608,156.0139 L369,156.0139 " fill="#FEFFDD" style="stroke:#181818;stroke-width:0.5;"/><path d="M608,156.0139 L608,166.0139 L618,166.0139 L608,156.0139 " fill="#FEFFDD" style="stroke:#181818;stroke-width:0.5;"/><text fill="#000000" font-family="sans-serif" font-size="13" lengthAdjust="spacing" textLength="74" x="375" y="174.9109">Kafka Topics</text><text fill="#000000" font-family="sans-serif" font-size="13" lengthAdjust="spacing" textLength="228" x="375" y="192.6169">- Topic for Settlement Matrix Accounts</text><path d="M1126,211.4259 L1126,256.4259 L1308,256.4259 L1308,221.4259 L1298,211.4259 L1126,211.4259 " fill="#FEFFDD" style="stroke:#181818;stroke-width:0.5;"/><path d="M1298,211.4259 L1298,221.4259 L1308,221.4259 L1298,211.4259 " fill="#FEFFDD" style="stroke:#181818;stroke-width:0.5;"/><text fill="#000000" font-family="sans-serif" font-size="13" lengthAdjust="spacing" textLength="161" x="1132" y="230.323">Exposed gRPC interface for</text><text fill="#000000" font-family="sans-serif" font-size="13" lengthAdjust="spacing" textLength="126" x="1132" y="248.029">Accounts &amp; Balances.</text><path d="M1316,266.838 L1316,293.838 L1538,293.838 L1538,276.838 L1528,266.838 L1316,266.838 " fill="#FEFFDD" style="stroke:#181818;stroke-width:0.5;"/><path d="M1528,266.838 L1528,276.838 L1538,276.838 L1528,266.838 " fill="#FEFFDD" style="stroke:#181818;stroke-width:0.5;"/><text fill="#000000" font-family="sans-serif" font-size="13" lengthAdjust="spacing" textLength="201" x="1322" y="285.735">TigerBeetle may be turned off/on.</text><path d="M10,306.544 L384,306.544 L384,316.25 L374,326.25 L10,326.25 L10,306.544 " fill="#EEEEEE" style="stroke:#000000;stroke-width:1.5;"/><rect fill="none" height="100.8241" style="stroke:#000000;stroke-width:1.5;" width="742" x="10" y="306.544"/><text fill="#000000" font-family="sans-serif" font-size="13" font-weight="bold" lengthAdjust="spacing" textLength="329" x="25" y="321.441">1. Close Settlement Batches via Matrix - Admin API</text><polygon fill="#181818" points="383,363.662,393,367.662,383,371.662,387,367.662" style="stroke:#181818;stroke-width:1.0;"/><line style="stroke:#181818;stroke-width:1.0;" x1="62" x2="389" y1="367.662" y2="367.662"/><text fill="#000000" font-family="sans-serif" font-size="13" font-weight="bold" lengthAdjust="spacing" textLength="7" x="69" y="353">1</text><text fill="#000000" font-family="sans-serif" font-size="13" lengthAdjust="spacing" textLength="49" x="80" y="344.147">Perofrm</text><text fill="#000000" font-family="sans-serif" font-size="13" font-style="italic" font-weight="bold" lengthAdjust="spacing" textLength="38" x="132" y="344.147">CLOSE</text><text fill="#000000" font-family="sans-serif" font-size="13" lengthAdjust="spacing" textLength="80" x="173" y="344.147">command on</text><text fill="#000000" font-family="sans-serif" font-size="13" font-weight="bold" lengthAdjust="spacing" textLength="122" x="256" y="344.147">Settlement Matrix</text><text fill="#000000" font-family="sans-serif" font-size="13" lengthAdjust="spacing" textLength="124" x="80" y="361.853">(settlementMatrixId)</text><polygon fill="#181818" points="672,395.3681,682,399.3681,672,403.3681,676,399.3681" style="stroke:#181818;stroke-width:1.0;"/><line style="stroke:#181818;stroke-width:1.0;stroke-dasharray:2.0,2.0;" x1="395" x2="678" y1="399.3681" y2="399.3681"/><text fill="#000000" font-family="sans-serif" font-size="13" font-weight="bold" lengthAdjust="spacing" textLength="7" x="402" y="393.5591">2</text><text fill="#000000" font-family="sans-serif" font-size="13" lengthAdjust="spacing" textLength="123" x="413" y="393.5591">Invoke the App layer</text><path d="M10,421.3681 L460,421.3681 L460,431.0741 L450,441.0741 L10,441.0741 L10,421.3681 " fill="#EEEEEE" style="stroke:#000000;stroke-width:1.5;"/><rect fill="none" height="447.5902" style="stroke:#000000;stroke-width:1.5;" width="1470.5" x="10" y="421.3681"/><text fill="#000000" font-family="sans-serif" font-size="13" font-weight="bold" lengthAdjust="spacing" textLength="67" x="25" y="436.2651">2. Execute</text><text fill="#000000" font-family="sans-serif" font-size="13" font-style="italic" font-weight="bold" lengthAdjust="spacing" textLength="38" x="95" y="436.2651">CLOSE</text><text fill="#000000" font-family="sans-serif" font-size="13" font-weight="bold" lengthAdjust="spacing" textLength="294" x="136" y="436.2651">command on a Settlement Matrix - App Logic</text><polygon fill="#181818" points="695,478.4861,685,482.4861,695,486.4861,691,482.4861" style="stroke:#181818;stroke-width:1.0;"/><polygon fill="#181818" points="1083,478.4861,1093,482.4861,1083,486.4861,1087,482.4861" style="stroke:#181818;stroke-width:1.0;"/><line style="stroke:#181818;stroke-width:1.0;stroke-dasharray:2.0,2.0;" x1="689" x2="1089" y1="482.4861" y2="482.4861"/><text fill="#000000" font-family="sans-serif" font-size="13" font-weight="bold" lengthAdjust="spacing" textLength="7" x="701" y="467.8241">3</text><text fill="#000000" font-family="sans-serif" font-size="13" lengthAdjust="spacing" textLength="32" x="712" y="458.9711">Close</text><text fill="#000000" font-family="sans-serif" font-size="13" font-style="italic" lengthAdjust="spacing" textLength="102" x="747" y="458.9711">OPEN / DISPUTED</text><text fill="#000000" font-family="sans-serif" font-size="13" lengthAdjust="spacing" textLength="219" x="852" y="458.9711">settlement batches which forms part</text><text fill="#000000" font-family="sans-serif" font-size="13" lengthAdjust="spacing" textLength="145" x="712" y="476.6771">of the settlement matrix</text><polygon fill="#181818" points="695,510.1921,685,514.1921,695,518.1921,691,514.1921" style="stroke:#181818;stroke-width:1.0;"/><polygon fill="#181818" points="1205.5,510.1921,1215.5,514.1921,1205.5,518.1921,1209.5,514.1921" style="stroke:#181818;stroke-width:1.0;"/><line style="stroke:#181818;stroke-width:1.0;" x1="689" x2="1211.5" y1="514.1921" y2="514.1921"/><text fill="#000000" font-family="sans-serif" font-size="13" font-weight="bold" lengthAdjust="spacing" textLength="7" x="701" y="508.3831">4</text><text fill="#000000" font-family="sans-serif" font-size="13" lengthAdjust="spacing" textLength="117" x="712" y="508.3831">Obtain Debit/Credit</text><text fill="#000000" font-family="sans-serif" font-size="13" font-weight="bold" lengthAdjust="spacing" textLength="139" x="832" y="508.3831">Settlement Accounts</text><text fill="#000000" font-family="sans-serif" font-size="13" lengthAdjust="spacing" textLength="105" x="974" y="508.3831">based on batches</text><polygon fill="#181818" points="1228.5,541.8981,1218.5,545.8981,1228.5,549.8981,1224.5,545.8981" style="stroke:#181818;stroke-width:1.0;"/><polygon fill="#181818" points="1415.5,541.8981,1425.5,545.8981,1415.5,549.8981,1419.5,545.8981" style="stroke:#181818;stroke-width:1.0;"/><line style="stroke:#181818;stroke-width:1.0;" x1="1222.5" x2="1421.5" y1="545.8981" y2="545.8981"/><text fill="#000000" font-family="sans-serif" font-size="13" font-weight="bold" lengthAdjust="spacing" textLength="7" x="1234.5" y="540.0891">5</text><text fill="#000000" font-family="sans-serif" font-size="13" lengthAdjust="spacing" textLength="33" x="1245.5" y="540.0891">Fetch</text><text fill="#000000" font-family="sans-serif" font-size="13" font-weight="bold" lengthAdjust="spacing" textLength="139" x="1281.5" y="540.0891">Settlement Accounts</text><polygon fill="#181818" points="695,573.6042,685,577.6042,695,581.6042,691,577.6042" style="stroke:#181818;stroke-width:1.0;"/><polygon fill="#181818" points="1205.5,573.6042,1215.5,577.6042,1205.5,581.6042,1209.5,577.6042" style="stroke:#181818;stroke-width:1.0;"/><line style="stroke:#181818;stroke-width:1.0;" x1="689" x2="1211.5" y1="577.6042" y2="577.6042"/><text fill="#000000" font-family="sans-serif" font-size="13" font-weight="bold" lengthAdjust="spacing" textLength="7" x="701" y="571.7952">6</text><text fill="#000000" font-family="sans-serif" font-size="13" lengthAdjust="spacing" textLength="41" x="712" y="571.7952">Return</text><text fill="#000000" font-family="sans-serif" font-size="13" font-weight="bold" lengthAdjust="spacing" textLength="139" x="756" y="571.7952">Settlement Accounts</text><text fill="#000000" font-family="sans-serif" font-size="13" lengthAdjust="spacing" textLength="105" x="898" y="571.7952">based on batches</text><line style="stroke:#181818;stroke-width:1.0;stroke-dasharray:2.0,2.0;" x1="684" x2="726" y1="609.3102" y2="609.3102"/><line style="stroke:#181818;stroke-width:1.0;stroke-dasharray:2.0,2.0;" x1="726" x2="726" y1="609.3102" y2="622.3102"/><line style="stroke:#181818;stroke-width:1.0;stroke-dasharray:2.0,2.0;" x1="685" x2="726" y1="622.3102" y2="622.3102"/><polygon fill="#181818" points="694,605.3102,684,609.3102,694,613.3102,690,609.3102" style="stroke:#181818;stroke-width:1.0;"/><polygon fill="#181818" points="695,618.3102,685,622.3102,695,626.3102,691,622.3102" style="stroke:#181818;stroke-width:1.0;"/><text fill="#000000" font-family="sans-serif" font-size="13" font-weight="bold" lengthAdjust="spacing" textLength="7" x="691" y="603.5012">7</text><text fill="#000000" font-family="sans-serif" font-size="13" lengthAdjust="spacing" textLength="181" x="702" y="603.5012">Prepare the Settlement Matrix</text><polygon fill="#181818" points="406,650.0162,396,654.0162,406,658.0162,402,654.0162" style="stroke:#181818;stroke-width:1.0;"/><line style="stroke:#181818;stroke-width:1.0;" x1="400" x2="683" y1="654.0162" y2="654.0162"/><text fill="#000000" font-family="sans-serif" font-size="13" font-weight="bold" lengthAdjust="spacing" textLength="7" x="412" y="648.2072">8</text><text fill="#000000" font-family="sans-serif" font-size="13" lengthAdjust="spacing" textLength="152" x="423" y="648.2072">Return Settlement Matrix</text><polygon fill="#181818" points="73,699.4282,63,703.4282,73,707.4282,69,703.4282" style="stroke:#181818;stroke-width:1.0;"/><line style="stroke:#181818;stroke-width:1.0;" x1="67" x2="394" y1="703.4282" y2="703.4282"/><text fill="#000000" font-family="sans-serif" font-size="13" font-weight="bold" lengthAdjust="spacing" textLength="7" x="79" y="688.7662">9</text><text fill="#000000" font-family="sans-serif" font-size="13" lengthAdjust="spacing" textLength="206" x="90" y="679.9132">Return Settlement Matrix for caller</text><text fill="#000000" font-family="sans-serif" font-size="13" font-style="italic" font-weight="bold" lengthAdjust="spacing" textLength="134" x="90" y="697.6192">ISettlementMatrixDto</text><rect fill="#EEEEEE" height="3" style="stroke:#EEEEEE;stroke-width:1.0;" width="1543" x="0" y="733.2812"/><line style="stroke:#000000;stroke-width:1.0;" x1="0" x2="1543" y1="733.2812" y2="733.2812"/><line style="stroke:#000000;stroke-width:1.0;" x1="0" x2="1543" y1="736.2812" y2="736.2812"/><rect fill="#EEEEEE" height="25.706" style="stroke:#000000;stroke-width:2.0;" width="398" x="572.5" y="721.4282"/><text fill="#000000" font-family="sans-serif" font-size="13" font-weight="bold" lengthAdjust="spacing" textLength="381" x="578.5" y="739.3252">Publish Settlement Matrix Result for Liquidity Restoration</text><line style="stroke:#181818;stroke-width:1.0;stroke-dasharray:2.0,2.0;" x1="684" x2="726" y1="780.8403" y2="780.8403"/><line style="stroke:#181818;stroke-width:1.0;stroke-dasharray:2.0,2.0;" x1="726" x2="726" y1="780.8403" y2="793.8403"/><line style="stroke:#181818;stroke-width:1.0;stroke-dasharray:2.0,2.0;" x1="685" x2="726" y1="793.8403" y2="793.8403"/><polygon fill="#181818" points="695,789.8403,685,793.8403,695,797.8403,691,793.8403" style="stroke:#181818;stroke-width:1.0;"/><text fill="#000000" font-family="sans-serif" font-size="13" font-weight="bold" lengthAdjust="spacing" textLength="7" x="691" y="775.0313">1</text><text fill="#000000" font-family="sans-serif" font-size="13" lengthAdjust="spacing" textLength="386" x="702" y="775.0313">Create events for each Settlement Batch Account Balance update</text><polygon fill="#181818" points="505,856.9583,495,860.9583,505,864.9583,501,860.9583" style="stroke:#181818;stroke-width:1.0;"/><line style="stroke:#181818;stroke-width:1.0;" x1="499" x2="683" y1="860.9583" y2="860.9583"/><text fill="#000000" font-family="sans-serif" font-size="13" font-weight="bold" lengthAdjust="spacing" textLength="7" x="511" y="837.4433">2</text><text fill="#000000" font-family="sans-serif" font-size="13" lengthAdjust="spacing" textLength="132" x="522" y="819.7373">Publish event for each</text><text fill="#000000" font-family="sans-serif" font-size="13" lengthAdjust="spacing" textLength="155" x="522" y="837.4433">Settlement Batch Account</text><text fill="#000000" font-family="sans-serif" font-size="13" lengthAdjust="spacing" textLength="92" x="522" y="855.1493">Balance update</text><!--SRC=[bLLHRvim47xFhpYjKhKXfRHLExNHMYc1H8lMhL6JxIbIPOoJM06R6PEr-_Kx6t1880_ZZUFytNVVVMVoBHSPKII51TS9cqYXv_mlW-lBNjx-5CX4AZYRsAUHe4t2IAgOgHTPY3YGIZ05LvVTEOiDfrl1yXm-ToTKTIulRqVtxHH2jsjLbcccsOyG939dC6SQNr8cD7mdMl6tNWyHDASy8nZxC8nJBc0uctu0aWDxqwyqwVKY-TOucSCem5xliTNx7k1pWF32Skq0yeY-AXCu2s_7T-5DEtsyCro-4X4dJBapp4QRXuJK3EGEnNFVRTmytyXgIs0XCqvp5-oN0LYX4gskOKWf2gNBT2PYYzzcTzZqKWop39xacbF7b6JPQs8YS3OEWzkRq8B4H9E8eDvDX7vOHTtXEC8UX-ExIT0p753cKkkQ7Q0iC2894PHLga-wLH-UZs3-Ax3894BejSheWO1xIfZRVsBnkjBRfckEhn5ZnYarfKFP7QfJUFoMeQLYMB_C0k12CxKYb1d1NOfhvDorST6M_AX8Wui3MfZOgEINadU86EW2Toa6kLhvKXoXEZNDFcHmTT6s_uXeka5LTvpKfkY3it-F55gA8erOsKov2T1_t5jw03Ecv4gbuFkU5pmzpyUUv_j0PPgQkKa1djTodkSjnSVSHSlWDFvagpZiVbLexwu1JCLERh7j3GDZmuIy8pTij6xo-W8dmcY1Mlg-fND8XdIiGH-Sens1VSqlDGtqwQ1IqFUVP-CVu4CudSz-BiOX5jct0r6bwX-yoJR62cbkZGfB8LUMUoCvBM-WhiAF3HSFu3dI1ESIieXhFr0ivlfGszfddWV6uxRVYeg5tuCvw8RB1Z1Xc7iAiWFXU3OlpBZn_pYTqBe9ErCCnIjdthwvso27zgn8dJvOMksnDlVf4_OIfIJ1AtefZCcdyoC7XrgQBJXUcuS7c1LHmlDD1oZ-AOf4M-md_hlWEDLt4zHI4SrHhOU7hXuxT49B4BIz_Ila5f0HkcbjUpsI-Yw28iDRaPqMilmD3LmFvNkDlnId2Yp5KGMpfly0]--></g></svg>