<?xml version="1.0" encoding="us-ascii" standalone="no"?><svg xmlns="http://www.w3.org/2000/svg" xmlns:xlink="http://www.w3.org/1999/xlink" contentStyleType="text/css" height="958px" preserveAspectRatio="none" style="width:1549px;height:958px;background:#FFFFFF;" version="1.1" viewBox="0 0 1549 958" width="1549px" zoomAndPan="magnify"><defs/><g><text fill="#000000" font-family="sans-serif" font-size="14" font-weight="bold" lengthAdjust="spacing" textLength="167" x="687" y="29.9659">Close Settlement Matrix</text><rect fill="#F9FFF9" height="899.7862" style="stroke:#181818;stroke-width:0.5;" width="819.5" x="355.5" y="46.0679"/><text fill="#000000" font-family="sans-serif" font-size="13" font-weight="bold" lengthAdjust="spacing" textLength="101" x="713.25" y="59.9649">Settlements BC</text><rect fill="#FFFFF9" height="899.7862" style="stroke:#181818;stroke-width:0.5;" width="296.5" x="1177" y="46.0679"/><text fill="#000000" font-family="sans-serif" font-size="13" font-weight="bold" lengthAdjust="spacing" textLength="171" x="1238.25" y="59.9649">Accounts and Balances BC</text><rect fill="none" height="100.8241" style="stroke:#000000;stroke-width:1.5;" width="741" x="10" y="298.3719"/><rect fill="none" height="447.5902" style="stroke:#000000;stroke-width:1.5;" width="1469.5" x="10" y="413.196"/><line style="stroke:#181818;stroke-width:0.5;stroke-dasharray:5.0,5.0;" x1="62" x2="62" y1="132.8419" y2="877.7862"/><line style="stroke:#181818;stroke-width:0.5;stroke-dasharray:5.0,5.0;" x1="393.5" x2="393.5" y1="132.8419" y2="877.7862"/><line style="stroke:#181818;stroke-width:0.5;stroke-dasharray:5.0,5.0;" x1="492.5" x2="492.5" y1="132.8419" y2="877.7862"/><line style="stroke:#181818;stroke-width:0.5;stroke-dasharray:5.0,5.0;" x1="683" x2="683" y1="132.8419" y2="877.7862"/><line style="stroke:#181818;stroke-width:0.5;stroke-dasharray:5.0,5.0;" x1="1094" x2="1094" y1="132.8419" y2="877.7862"/><line style="stroke:#181818;stroke-width:0.5;stroke-dasharray:5.0,5.0;" x1="1216" x2="1216" y1="132.8419" y2="877.7862"/><line style="stroke:#181818;stroke-width:0.5;stroke-dasharray:5.0,5.0;" x1="1426.5" x2="1426.5" y1="132.8419" y2="877.7862"/><rect fill="#E2E2F0" height="33.0679" rx="2.5" ry="2.5" style="stroke:#181818;stroke-width:0.5;" width="84" x="20" y="98.7739"/><text fill="#000000" font-family="sans-serif" font-size="14" lengthAdjust="spacing" textLength="70" x="27" y="120.7399">Admin API</text><rect fill="#E2E2F0" height="33.0679" rx="2.5" ry="2.5" style="stroke:#181818;stroke-width:0.5;" width="84" x="20" y="876.7862"/><text fill="#000000" font-family="sans-serif" font-size="14" lengthAdjust="spacing" textLength="70" x="27" y="898.7522">Admin API</text><rect fill="#D5E8D4" height="33.0679" rx="2.5" ry="2.5" style="stroke:#181818;stroke-width:0.5;" width="69" x="359.5" y="98.7739"/><text fill="#000000" font-family="sans-serif" font-size="14" lengthAdjust="spacing" textLength="55" x="366.5" y="120.7399">Rest API</text><rect fill="#D5E8D4" height="33.0679" rx="2.5" ry="2.5" style="stroke:#181818;stroke-width:0.5;" width="69" x="359.5" y="876.7862"/><text fill="#000000" font-family="sans-serif" font-size="14" lengthAdjust="spacing" textLength="55" x="366.5" y="898.7522">Rest API</text><rect fill="#D5E8D4" height="33.0679" rx="2.5" ry="2.5" style="stroke:#181818;stroke-width:0.5;" width="109" x="438.5" y="98.7739"/><text fill="#000000" font-family="sans-serif" font-size="14" lengthAdjust="spacing" textLength="95" x="445.5" y="120.7399">Event Handler</text><rect fill="#D5E8D4" height="33.0679" rx="2.5" ry="2.5" style="stroke:#181818;stroke-width:0.5;" width="109" x="438.5" y="876.7862"/><text fill="#000000" font-family="sans-serif" font-size="14" lengthAdjust="spacing" textLength="95" x="445.5" y="898.7522">Event Handler</text><rect fill="#EDC54D" height="52.1358" rx="2.5" ry="2.5" style="stroke:#181818;stroke-width:0.5;" width="116" x="625" y="79.706"/><text fill="#000000" font-family="sans-serif" font-size="14" lengthAdjust="spacing" textLength="102" x="632" y="101.672">Settlements BC</text><text fill="#000000" font-family="sans-serif" font-size="14" lengthAdjust="spacing" textLength="66" x="650" y="120.7399">App Logic</text><rect fill="#EDC54D" height="52.1358" rx="2.5" ry="2.5" style="stroke:#181818;stroke-width:0.5;" width="116" x="625" y="876.7862"/><text fill="#000000" font-family="sans-serif" font-size="14" lengthAdjust="spacing" textLength="102" x="632" y="898.7522">Settlements BC</text><text fill="#000000" font-family="sans-serif" font-size="14" lengthAdjust="spacing" textLength="66" x="650" y="917.8201">App Logic</text><text fill="#000000" font-family="sans-serif" font-size="14" lengthAdjust="spacing" textLength="148" x="1017" y="128.7399">Settlements-Database</text><path d="M1076,77.7739 C1076,67.7739 1094,67.7739 1094,67.7739 C1094,67.7739 1112,67.7739 1112,77.7739 L1112,103.7739 C1112,113.7739 1094,113.7739 1094,113.7739 C1094,113.7739 1076,113.7739 1076,103.7739 L1076,77.7739 " fill="#DAE8FC" style="stroke:#181818;stroke-width:1.5;"/><path d="M1076,77.7739 C1076,87.7739 1094,87.7739 1094,87.7739 C1094,87.7739 1112,87.7739 1112,77.7739 " fill="none" style="stroke:#181818;stroke-width:1.5;"/><text fill="#000000" font-family="sans-serif" font-size="14" lengthAdjust="spacing" textLength="148" x="1017" y="891.7522">Settlements-Database</text><path d="M1076,905.8542 C1076,895.8542 1094,895.8542 1094,895.8542 C1094,895.8542 1112,895.8542 1112,905.8542 L1112,931.8542 C1112,941.8542 1094,941.8542 1094,941.8542 C1094,941.8542 1076,941.8542 1076,931.8542 L1076,905.8542 " fill="#DAE8FC" style="stroke:#181818;stroke-width:1.5;"/><path d="M1076,905.8542 C1076,915.8542 1094,915.8542 1094,915.8542 C1094,915.8542 1112,915.8542 1112,905.8542 " fill="none" style="stroke:#181818;stroke-width:1.5;"/><rect fill="#D5E8D4" height="33.0679" rx="2.5" ry="2.5" style="stroke:#181818;stroke-width:0.5;" width="71" x="1181" y="98.7739"/><text fill="#000000" font-family="sans-serif" font-size="14" lengthAdjust="spacing" textLength="57" x="1188" y="120.7399">A&amp;B SVC</text><rect fill="#D5E8D4" height="33.0679" rx="2.5" ry="2.5" style="stroke:#181818;stroke-width:0.5;" width="71" x="1181" y="876.7862"/><text fill="#000000" font-family="sans-serif" font-size="14" lengthAdjust="spacing" textLength="57" x="1188" y="898.7522">A&amp;B SVC</text><text fill="#000000" font-family="sans-serif" font-size="14" lengthAdjust="spacing" textLength="80" x="1383.5" y="128.7399">A&amp;B-Ledger</text><path d="M1408.5,77.7739 C1408.5,67.7739 1426.5,67.7739 1426.5,67.7739 C1426.5,67.7739 1444.5,67.7739 1444.5,77.7739 L1444.5,103.7739 C1444.5,113.7739 1426.5,113.7739 1426.5,113.7739 C1426.5,113.7739 1408.5,113.7739 1408.5,103.7739 L1408.5,77.7739 " fill="#DAE8FC" style="stroke:#181818;stroke-width:1.5;"/><path d="M1408.5,77.7739 C1408.5,87.7739 1426.5,87.7739 1426.5,87.7739 C1426.5,87.7739 1444.5,87.7739 1444.5,77.7739 " fill="none" style="stroke:#181818;stroke-width:1.5;"/><text fill="#000000" font-family="sans-serif" font-size="14" lengthAdjust="spacing" textLength="80" x="1383.5" y="891.7522">A&amp;B-Ledger</text><path d="M1408.5,905.8542 C1408.5,895.8542 1426.5,895.8542 1426.5,895.8542 C1426.5,895.8542 1444.5,895.8542 1444.5,905.8542 L1444.5,931.8542 C1444.5,941.8542 1426.5,941.8542 1426.5,941.8542 C1426.5,941.8542 1408.5,941.8542 1408.5,931.8542 L1408.5,905.8542 " fill="#DAE8FC" style="stroke:#181818;stroke-width:1.5;"/><path d="M1408.5,905.8542 C1408.5,915.8542 1426.5,915.8542 1426.5,915.8542 C1426.5,915.8542 1444.5,915.8542 1444.5,905.8542 " fill="none" style="stroke:#181818;stroke-width:1.5;"/><path d="M368,147.8419 L368,192.8419 L617,192.8419 L617,157.8419 L607,147.8419 L368,147.8419 " fill="#FEFFDD" style="stroke:#181818;stroke-width:0.5;"/><path d="M607,147.8419 L607,157.8419 L617,157.8419 L607,147.8419 " fill="#FEFFDD" style="stroke:#181818;stroke-width:0.5;"/><text fill="#000000" font-family="sans-serif" font-size="13" lengthAdjust="spacing" textLength="74" x="374" y="166.7389">Kafka Topics</text><text fill="#000000" font-family="sans-serif" font-size="13" lengthAdjust="spacing" textLength="228" x="374" y="184.4449">- Topic for Settlement Matrix Accounts</text><path d="M1125,203.2539 L1125,248.2539 L1307,248.2539 L1307,213.2539 L1297,203.2539 L1125,203.2539 " fill="#FEFFDD" style="stroke:#181818;stroke-width:0.5;"/><path d="M1297,203.2539 L1297,213.2539 L1307,213.2539 L1297,203.2539 " fill="#FEFFDD" style="stroke:#181818;stroke-width:0.5;"/><text fill="#000000" font-family="sans-serif" font-size="13" lengthAdjust="spacing" textLength="161" x="1131" y="222.1509">Exposed gRPC interface for</text><text fill="#000000" font-family="sans-serif" font-size="13" lengthAdjust="spacing" textLength="126" x="1131" y="239.8569">Accounts &amp; Balances.</text><path d="M1315,258.6659 L1315,285.6659 L1537,285.6659 L1537,268.6659 L1527,258.6659 L1315,258.6659 " fill="#FEFFDD" style="stroke:#181818;stroke-width:0.5;"/><path d="M1527,258.6659 L1527,268.6659 L1537,268.6659 L1527,258.6659 " fill="#FEFFDD" style="stroke:#181818;stroke-width:0.5;"/><text fill="#000000" font-family="sans-serif" font-size="13" lengthAdjust="spacing" textLength="201" x="1321" y="277.5629">TigerBeetle may be turned off/on.</text><path d="M10,298.3719 L384,298.3719 L384,308.0779 L374,318.0779 L10,318.0779 L10,298.3719 " fill="#EEEEEE" style="stroke:#000000;stroke-width:1.5;"/><rect fill="none" height="100.8241" style="stroke:#000000;stroke-width:1.5;" width="741" x="10" y="298.3719"/><text fill="#000000" font-family="sans-serif" font-size="13" font-weight="bold" lengthAdjust="spacing" textLength="329" x="25" y="313.2689">1. Close Settlement Batches via Matrix - Admin API</text><polygon fill="#181818" points="382,355.49,392,359.49,382,363.49,386,359.49" style="stroke:#181818;stroke-width:1.0;"/><line style="stroke:#181818;stroke-width:1.0;" x1="62" x2="388" y1="359.49" y2="359.49"/><text fill="#000000" font-family="sans-serif" font-size="13" font-weight="bold" lengthAdjust="spacing" textLength="7" x="69" y="344.828">1</text><text fill="#000000" font-family="sans-serif" font-size="13" lengthAdjust="spacing" textLength="49" x="80" y="335.975">Perofrm</text><text fill="#000000" font-family="sans-serif" font-size="13" font-style="italic" lengthAdjust="spacing" textLength="37" x="132" y="335.975">CLOSE</text><text fill="#000000" font-family="sans-serif" font-size="13" lengthAdjust="spacing" textLength="80" x="172" y="335.975">command on</text><text fill="#000000" font-family="sans-serif" font-size="13" font-weight="bold" lengthAdjust="spacing" textLength="122" x="255" y="335.975">Settlement Matrix</text><text fill="#000000" font-family="sans-serif" font-size="13" lengthAdjust="spacing" textLength="124" x="80" y="353.681">(settlementMatrixId)</text><polygon fill="#181818" points="671,387.196,681,391.196,671,395.196,675,391.196" style="stroke:#181818;stroke-width:1.0;"/><line style="stroke:#181818;stroke-width:1.0;stroke-dasharray:2.0,2.0;" x1="394" x2="677" y1="391.196" y2="391.196"/><text fill="#000000" font-family="sans-serif" font-size="13" font-weight="bold" lengthAdjust="spacing" textLength="7" x="401" y="385.387">2</text><text fill="#000000" font-family="sans-serif" font-size="13" lengthAdjust="spacing" textLength="123" x="412" y="385.387">Invoke the App layer</text><path d="M10,413.196 L460,413.196 L460,422.902 L450,432.902 L10,432.902 L10,413.196 " fill="#EEEEEE" style="stroke:#000000;stroke-width:1.5;"/><rect fill="none" height="447.5902" style="stroke:#000000;stroke-width:1.5;" width="1469.5" x="10" y="413.196"/><text fill="#000000" font-family="sans-serif" font-size="13" font-weight="bold" lengthAdjust="spacing" textLength="67" x="25" y="428.093">2. Execute</text><text fill="#000000" font-family="sans-serif" font-size="13" font-style="italic" font-weight="bold" lengthAdjust="spacing" textLength="38" x="95" y="428.093">CLOSE</text><text fill="#000000" font-family="sans-serif" font-size="13" font-weight="bold" lengthAdjust="spacing" textLength="294" x="136" y="428.093">command on a Settlement Matrix - App Logic</text><polygon fill="#181818" points="694,470.314,684,474.314,694,478.314,690,474.314" style="stroke:#181818;stroke-width:1.0;"/><polygon fill="#181818" points="1082,470.314,1092,474.314,1082,478.314,1086,474.314" style="stroke:#181818;stroke-width:1.0;"/><line style="stroke:#181818;stroke-width:1.0;stroke-dasharray:2.0,2.0;" x1="688" x2="1088" y1="474.314" y2="474.314"/><text fill="#000000" font-family="sans-serif" font-size="13" font-weight="bold" lengthAdjust="spacing" textLength="7" x="700" y="459.652">3</text><text fill="#000000" font-family="sans-serif" font-size="13" lengthAdjust="spacing" textLength="32" x="711" y="450.799">Close</text><text fill="#000000" font-family="sans-serif" font-size="13" font-style="italic" lengthAdjust="spacing" textLength="102" x="746" y="450.799">OPEN / DISPUTED</text><text fill="#000000" font-family="sans-serif" font-size="13" lengthAdjust="spacing" textLength="219" x="851" y="450.799">settlement batches which forms part</text><text fill="#000000" font-family="sans-serif" font-size="13" lengthAdjust="spacing" textLength="145" x="711" y="468.505">of the settlement matrix</text><polygon fill="#181818" points="694,502.0201,684,506.0201,694,510.0201,690,506.0201" style="stroke:#181818;stroke-width:1.0;"/><polygon fill="#181818" points="1204.5,502.0201,1214.5,506.0201,1204.5,510.0201,1208.5,506.0201" style="stroke:#181818;stroke-width:1.0;"/><line style="stroke:#181818;stroke-width:1.0;" x1="688" x2="1210.5" y1="506.0201" y2="506.0201"/><text fill="#000000" font-family="sans-serif" font-size="13" font-weight="bold" lengthAdjust="spacing" textLength="7" x="700" y="500.2111">4</text><text fill="#000000" font-family="sans-serif" font-size="13" lengthAdjust="spacing" textLength="117" x="711" y="500.2111">Obtain Debit/Credit</text><text fill="#000000" font-family="sans-serif" font-size="13" font-weight="bold" lengthAdjust="spacing" textLength="139" x="831" y="500.2111">Settlement Accounts</text><text fill="#000000" font-family="sans-serif" font-size="13" lengthAdjust="spacing" textLength="105" x="973" y="500.2111">based on batches</text><polygon fill="#181818" points="1227.5,533.7261,1217.5,537.7261,1227.5,541.7261,1223.5,537.7261" style="stroke:#181818;stroke-width:1.0;"/><polygon fill="#181818" points="1414.5,533.7261,1424.5,537.7261,1414.5,541.7261,1418.5,537.7261" style="stroke:#181818;stroke-width:1.0;"/><line style="stroke:#181818;stroke-width:1.0;" x1="1221.5" x2="1420.5" y1="537.7261" y2="537.7261"/><text fill="#000000" font-family="sans-serif" font-size="13" font-weight="bold" lengthAdjust="spacing" textLength="7" x="1233.5" y="531.9171">5</text><text fill="#000000" font-family="sans-serif" font-size="13" lengthAdjust="spacing" textLength="33" x="1244.5" y="531.9171">Fetch</text><text fill="#000000" font-family="sans-serif" font-size="13" font-weight="bold" lengthAdjust="spacing" textLength="139" x="1280.5" y="531.9171">Settlement Accounts</text><polygon fill="#181818" points="694,565.4321,684,569.4321,694,573.4321,690,569.4321" style="stroke:#181818;stroke-width:1.0;"/><polygon fill="#181818" points="1204.5,565.4321,1214.5,569.4321,1204.5,573.4321,1208.5,569.4321" style="stroke:#181818;stroke-width:1.0;"/><line style="stroke:#181818;stroke-width:1.0;" x1="688" x2="1210.5" y1="569.4321" y2="569.4321"/><text fill="#000000" font-family="sans-serif" font-size="13" font-weight="bold" lengthAdjust="spacing" textLength="7" x="700" y="563.6231">6</text><text fill="#000000" font-family="sans-serif" font-size="13" lengthAdjust="spacing" textLength="41" x="711" y="563.6231">Return</text><text fill="#000000" font-family="sans-serif" font-size="13" font-weight="bold" lengthAdjust="spacing" textLength="139" x="755" y="563.6231">Settlement Accounts</text><text fill="#000000" font-family="sans-serif" font-size="13" lengthAdjust="spacing" textLength="105" x="897" y="563.6231">based on batches</text><line style="stroke:#181818;stroke-width:1.0;stroke-dasharray:2.0,2.0;" x1="683" x2="725" y1="601.1381" y2="601.1381"/><line style="stroke:#181818;stroke-width:1.0;stroke-dasharray:2.0,2.0;" x1="725" x2="725" y1="601.1381" y2="614.1381"/><line style="stroke:#181818;stroke-width:1.0;stroke-dasharray:2.0,2.0;" x1="684" x2="725" y1="614.1381" y2="614.1381"/><polygon fill="#181818" points="693,597.1381,683,601.1381,693,605.1381,689,601.1381" style="stroke:#181818;stroke-width:1.0;"/><polygon fill="#181818" points="694,610.1381,684,614.1381,694,618.1381,690,614.1381" style="stroke:#181818;stroke-width:1.0;"/><text fill="#000000" font-family="sans-serif" font-size="13" font-weight="bold" lengthAdjust="spacing" textLength="7" x="690" y="595.3291">7</text><text fill="#000000" font-family="sans-serif" font-size="13" lengthAdjust="spacing" textLength="181" x="701" y="595.3291">Prepare the Settlement Matrix</text><polygon fill="#181818" points="405,641.8441,395,645.8441,405,649.8441,401,645.8441" style="stroke:#181818;stroke-width:1.0;"/><line style="stroke:#181818;stroke-width:1.0;" x1="399" x2="682" y1="645.8441" y2="645.8441"/><text fill="#000000" font-family="sans-serif" font-size="13" font-weight="bold" lengthAdjust="spacing" textLength="7" x="411" y="640.0351">8</text><text fill="#000000" font-family="sans-serif" font-size="13" lengthAdjust="spacing" textLength="152" x="422" y="640.0351">Return Settlement Matrix</text><polygon fill="#181818" points="73,691.2562,63,695.2562,73,699.2562,69,695.2562" style="stroke:#181818;stroke-width:1.0;"/><line style="stroke:#181818;stroke-width:1.0;" x1="67" x2="393" y1="695.2562" y2="695.2562"/><text fill="#000000" font-family="sans-serif" font-size="13" font-weight="bold" lengthAdjust="spacing" textLength="7" x="79" y="680.5942">9</text><text fill="#000000" font-family="sans-serif" font-size="13" lengthAdjust="spacing" textLength="206" x="90" y="671.7411">Return Settlement Matrix for caller</text><text fill="#000000" font-family="sans-serif" font-size="13" font-style="italic" font-weight="bold" lengthAdjust="spacing" textLength="134" x="90" y="689.4472">ISettlementMatrixDto</text><rect fill="#EEEEEE" height="3" style="stroke:#EEEEEE;stroke-width:1.0;" width="1542" x="0" y="725.1092"/><line style="stroke:#000000;stroke-width:1.0;" x1="0" x2="1542" y1="725.1092" y2="725.1092"/><line style="stroke:#000000;stroke-width:1.0;" x1="0" x2="1542" y1="728.1092" y2="728.1092"/><rect fill="#EEEEEE" height="25.706" style="stroke:#000000;stroke-width:2.0;" width="398" x="572" y="713.2562"/><text fill="#000000" font-family="sans-serif" font-size="13" font-weight="bold" lengthAdjust="spacing" textLength="381" x="578" y="731.1532">Publish Settlement Matrix Result for Liquidity Restoration</text><line style="stroke:#181818;stroke-width:1.0;stroke-dasharray:2.0,2.0;" x1="683" x2="725" y1="772.6682" y2="772.6682"/><line style="stroke:#181818;stroke-width:1.0;stroke-dasharray:2.0,2.0;" x1="725" x2="725" y1="772.6682" y2="785.6682"/><line style="stroke:#181818;stroke-width:1.0;stroke-dasharray:2.0,2.0;" x1="684" x2="725" y1="785.6682" y2="785.6682"/><polygon fill="#181818" points="694,781.6682,684,785.6682,694,789.6682,690,785.6682" style="stroke:#181818;stroke-width:1.0;"/><text fill="#000000" font-family="sans-serif" font-size="13" font-weight="bold" lengthAdjust="spacing" textLength="7" x="690" y="766.8592">1</text><text fill="#000000" font-family="sans-serif" font-size="13" lengthAdjust="spacing" textLength="386" x="701" y="766.8592">Create events for each Settlement Batch Account Balance update</text><polygon fill="#181818" points="504,848.7862,494,852.7862,504,856.7862,500,852.7862" style="stroke:#181818;stroke-width:1.0;"/><line style="stroke:#181818;stroke-width:1.0;" x1="498" x2="682" y1="852.7862" y2="852.7862"/><text fill="#000000" font-family="sans-serif" font-size="13" font-weight="bold" lengthAdjust="spacing" textLength="7" x="510" y="829.2712">2</text><text fill="#000000" font-family="sans-serif" font-size="13" lengthAdjust="spacing" textLength="132" x="521" y="811.5652">Publish event for each</text><text fill="#000000" font-family="sans-serif" font-size="13" lengthAdjust="spacing" textLength="155" x="521" y="829.2712">Settlement Batch Account</text><text fill="#000000" font-family="sans-serif" font-size="13" lengthAdjust="spacing" textLength="92" x="521" y="846.9772">Balance update</text><!--SRC=[bLNHRfim57tFLrojKhKXfMXJAxNHKYa1eaNBrgZfzXIfCiP9h8BDZCdIlz-r0OS4yZ3Uk5oVUyxniT5Sfmo2L1OCLapZIyQ4XXz4AtuO37AYDASy9rZxC4aoBc2od7y0KW0xw5UQ3WQnFBHM5Z0Du6hsC9lD7WQ0pmd2Cokq0oXY-gfCuIgyY-x3ssvxj3TSlX6Hf4ovDSnMsuk4r0padgdZTritptUoUIFm8dDE2rSSLWNOIDLL3HDAPObIR3iJYSNliZiLlHQJF8U5t7Bgc98yVqrD1QwYCBYx3Ir8GZI92VhTHXY6TTKjJcBKE8dkPy70S42RAwyRTe2sm9IaH51MkpxhTtroFONLxy0YanYXjogd9mOUAM7lSC6IRUstRTSSNsF6J58QIgUsErJdS7J8CL89R9-N0N2XcTeGoepXhiK9kNOoRhgMdmrfSN50BwOshVXbv1rY1hfK0gVBpSQNuWpLkRbLiipXyqqt_bEYwGvTtNFIX688Blu3KcefoYncbPZg9C3myHZf4IoPaXkLWUy7YwTLvFj0PPQPFPC2FA-JEizRYu-5grR5UVB9Jd2umth8CLaZc8kzV4F9EmOcWYbvHrueiX7uvGPtWz4IVUmbGtgEm11ScXs1uyol3GtCwAXsp_UVbj5Fy26ShvQ_Ng8GXnpbG5mx-dV7wSx482jiI64jvCPoRpLdrUtJD_YnbU0HFCMQu9w4BERQ3nHBk3xrjicOvu79jzLRKx7mHp07tKhO26OCUoz1zY2SxyqpCqdyFquNl6x3BXL3ywezxzxQNP3JQDQaBY-ielRO1Flo2dk1KfBYzRmMdkVxyzLPWaCjVH-jEZioup4iopZbnQu75FyIPQejzeB_AJdkwhifQgc8vkZMUDodiSSdZ0J1sDi_Gc416Q6xpabljgIvXw3CyKPabusiVa4Zfw5wR_3NujA0jJYRO8xfFm00]--></g></svg>