<?xml version="1.0" encoding="us-ascii" standalone="no"?><svg xmlns="http://www.w3.org/2000/svg" xmlns:xlink="http://www.w3.org/1999/xlink" contentStyleType="text/css" height="801px" preserveAspectRatio="none" style="width:1464px;height:801px;background:#FFFFFF;" version="1.1" viewBox="0 0 1464 801" width="1464px" zoomAndPan="magnify"><defs/><g><text fill="#000000" font-family="sans-serif" font-size="14" font-weight="bold" lengthAdjust="spacing" textLength="183" x="639" y="29.9659">Dispute Settlement Matrix</text><rect fill="#F9FFF9" height="742.2562" style="stroke:#181818;stroke-width:0.5;" width="739" x="355.5" y="46.0679"/><text fill="#000000" font-family="sans-serif" font-size="13" font-weight="bold" lengthAdjust="spacing" textLength="101" x="673" y="59.9649">Settlements BC</text><rect fill="#FFFFF9" height="742.2562" style="stroke:#181818;stroke-width:0.5;" width="296.5" x="1096.5" y="46.0679"/><text fill="#000000" font-family="sans-serif" font-size="13" font-weight="bold" lengthAdjust="spacing" textLength="171" x="1157.75" y="59.9649">Accounts and Balances BC</text><rect fill="none" height="100.8241" style="stroke:#000000;stroke-width:1.5;" width="673.5" x="10" y="298.3719"/><rect fill="none" height="290.0602" style="stroke:#000000;stroke-width:1.5;" width="1389" x="10" y="413.196"/><line style="stroke:#181818;stroke-width:0.5;stroke-dasharray:5.0,5.0;" x1="62" x2="62" y1="132.8419" y2="720.2562"/><line style="stroke:#181818;stroke-width:0.5;stroke-dasharray:5.0,5.0;" x1="393.5" x2="393.5" y1="132.8419" y2="720.2562"/><line style="stroke:#181818;stroke-width:0.5;stroke-dasharray:5.0,5.0;" x1="492.5" x2="492.5" y1="132.8419" y2="720.2562"/><line style="stroke:#181818;stroke-width:0.5;stroke-dasharray:5.0,5.0;" x1="615.5" x2="615.5" y1="132.8419" y2="720.2562"/><line style="stroke:#181818;stroke-width:0.5;stroke-dasharray:5.0,5.0;" x1="1013.5" x2="1013.5" y1="132.8419" y2="720.2562"/><line style="stroke:#181818;stroke-width:0.5;stroke-dasharray:5.0,5.0;" x1="1135.5" x2="1135.5" y1="132.8419" y2="720.2562"/><line style="stroke:#181818;stroke-width:0.5;stroke-dasharray:5.0,5.0;" x1="1346" x2="1346" y1="132.8419" y2="720.2562"/><rect fill="#E2E2F0" height="33.0679" rx="2.5" ry="2.5" style="stroke:#181818;stroke-width:0.5;" width="84" x="20" y="98.7739"/><text fill="#000000" font-family="sans-serif" font-size="14" lengthAdjust="spacing" textLength="70" x="27" y="120.7399">Admin API</text><rect fill="#E2E2F0" height="33.0679" rx="2.5" ry="2.5" style="stroke:#181818;stroke-width:0.5;" width="84" x="20" y="719.2562"/><text fill="#000000" font-family="sans-serif" font-size="14" lengthAdjust="spacing" textLength="70" x="27" y="741.2221">Admin API</text><rect fill="#D5E8D4" height="33.0679" rx="2.5" ry="2.5" style="stroke:#181818;stroke-width:0.5;" width="69" x="359.5" y="98.7739"/><text fill="#000000" font-family="sans-serif" font-size="14" lengthAdjust="spacing" textLength="55" x="366.5" y="120.7399">Rest API</text><rect fill="#D5E8D4" height="33.0679" rx="2.5" ry="2.5" style="stroke:#181818;stroke-width:0.5;" width="69" x="359.5" y="719.2562"/><text fill="#000000" font-family="sans-serif" font-size="14" lengthAdjust="spacing" textLength="55" x="366.5" y="741.2221">Rest API</text><rect fill="#D5E8D4" height="33.0679" rx="2.5" ry="2.5" style="stroke:#181818;stroke-width:0.5;" width="109" x="438.5" y="98.7739"/><text fill="#000000" font-family="sans-serif" font-size="14" lengthAdjust="spacing" textLength="95" x="445.5" y="120.7399">Event Handler</text><rect fill="#D5E8D4" height="33.0679" rx="2.5" ry="2.5" style="stroke:#181818;stroke-width:0.5;" width="109" x="438.5" y="719.2562"/><text fill="#000000" font-family="sans-serif" font-size="14" lengthAdjust="spacing" textLength="95" x="445.5" y="741.2221">Event Handler</text><rect fill="#EDC54D" height="52.1358" rx="2.5" ry="2.5" style="stroke:#181818;stroke-width:0.5;" width="116" x="557.5" y="79.706"/><text fill="#000000" font-family="sans-serif" font-size="14" lengthAdjust="spacing" textLength="102" x="564.5" y="101.672">Settlements BC</text><text fill="#000000" font-family="sans-serif" font-size="14" lengthAdjust="spacing" textLength="66" x="582.5" y="120.7399">App Logic</text><rect fill="#EDC54D" height="52.1358" rx="2.5" ry="2.5" style="stroke:#181818;stroke-width:0.5;" width="116" x="557.5" y="719.2562"/><text fill="#000000" font-family="sans-serif" font-size="14" lengthAdjust="spacing" textLength="102" x="564.5" y="741.2221">Settlements BC</text><text fill="#000000" font-family="sans-serif" font-size="14" lengthAdjust="spacing" textLength="66" x="582.5" y="760.29">App Logic</text><text fill="#000000" font-family="sans-serif" font-size="14" lengthAdjust="spacing" textLength="148" x="936.5" y="128.7399">Settlements-Database</text><path d="M995.5,77.7739 C995.5,67.7739 1013.5,67.7739 1013.5,67.7739 C1013.5,67.7739 1031.5,67.7739 1031.5,77.7739 L1031.5,103.7739 C1031.5,113.7739 1013.5,113.7739 1013.5,113.7739 C1013.5,113.7739 995.5,113.7739 995.5,103.7739 L995.5,77.7739 " fill="#DAE8FC" style="stroke:#181818;stroke-width:1.5;"/><path d="M995.5,77.7739 C995.5,87.7739 1013.5,87.7739 1013.5,87.7739 C1013.5,87.7739 1031.5,87.7739 1031.5,77.7739 " fill="none" style="stroke:#181818;stroke-width:1.5;"/><text fill="#000000" font-family="sans-serif" font-size="14" lengthAdjust="spacing" textLength="148" x="936.5" y="734.2221">Settlements-Database</text><path d="M995.5,748.3241 C995.5,738.3241 1013.5,738.3241 1013.5,738.3241 C1013.5,738.3241 1031.5,738.3241 1031.5,748.3241 L1031.5,774.3241 C1031.5,784.3241 1013.5,784.3241 1013.5,784.3241 C1013.5,784.3241 995.5,784.3241 995.5,774.3241 L995.5,748.3241 " fill="#DAE8FC" style="stroke:#181818;stroke-width:1.5;"/><path d="M995.5,748.3241 C995.5,758.3241 1013.5,758.3241 1013.5,758.3241 C1013.5,758.3241 1031.5,758.3241 1031.5,748.3241 " fill="none" style="stroke:#181818;stroke-width:1.5;"/><rect fill="#D5E8D4" height="33.0679" rx="2.5" ry="2.5" style="stroke:#181818;stroke-width:0.5;" width="71" x="1100.5" y="98.7739"/><text fill="#000000" font-family="sans-serif" font-size="14" lengthAdjust="spacing" textLength="57" x="1107.5" y="120.7399">A&amp;B SVC</text><rect fill="#D5E8D4" height="33.0679" rx="2.5" ry="2.5" style="stroke:#181818;stroke-width:0.5;" width="71" x="1100.5" y="719.2562"/><text fill="#000000" font-family="sans-serif" font-size="14" lengthAdjust="spacing" textLength="57" x="1107.5" y="741.2221">A&amp;B SVC</text><text fill="#000000" font-family="sans-serif" font-size="14" lengthAdjust="spacing" textLength="80" x="1303" y="128.7399">A&amp;B-Ledger</text><path d="M1328,77.7739 C1328,67.7739 1346,67.7739 1346,67.7739 C1346,67.7739 1364,67.7739 1364,77.7739 L1364,103.7739 C1364,113.7739 1346,113.7739 1346,113.7739 C1346,113.7739 1328,113.7739 1328,103.7739 L1328,77.7739 " fill="#DAE8FC" style="stroke:#181818;stroke-width:1.5;"/><path d="M1328,77.7739 C1328,87.7739 1346,87.7739 1346,87.7739 C1346,87.7739 1364,87.7739 1364,77.7739 " fill="none" style="stroke:#181818;stroke-width:1.5;"/><text fill="#000000" font-family="sans-serif" font-size="14" lengthAdjust="spacing" textLength="80" x="1303" y="734.2221">A&amp;B-Ledger</text><path d="M1328,748.3241 C1328,738.3241 1346,738.3241 1346,738.3241 C1346,738.3241 1364,738.3241 1364,748.3241 L1364,774.3241 C1364,784.3241 1346,784.3241 1346,784.3241 C1346,784.3241 1328,784.3241 1328,774.3241 L1328,748.3241 " fill="#DAE8FC" style="stroke:#181818;stroke-width:1.5;"/><path d="M1328,748.3241 C1328,758.3241 1346,758.3241 1346,758.3241 C1346,758.3241 1364,758.3241 1364,748.3241 " fill="none" style="stroke:#181818;stroke-width:1.5;"/><path d="M368,147.8419 L368,192.8419 L617,192.8419 L617,157.8419 L607,147.8419 L368,147.8419 " fill="#FEFFDD" style="stroke:#181818;stroke-width:0.5;"/><path d="M607,147.8419 L607,157.8419 L617,157.8419 L607,147.8419 " fill="#FEFFDD" style="stroke:#181818;stroke-width:0.5;"/><text fill="#000000" font-family="sans-serif" font-size="13" lengthAdjust="spacing" textLength="74" x="374" y="166.7389">Kafka Topics</text><text fill="#000000" font-family="sans-serif" font-size="13" lengthAdjust="spacing" textLength="228" x="374" y="184.4449">- Topic for Settlement Matrix Accounts</text><path d="M1045,203.2539 L1045,248.2539 L1227,248.2539 L1227,213.2539 L1217,203.2539 L1045,203.2539 " fill="#FEFFDD" style="stroke:#181818;stroke-width:0.5;"/><path d="M1217,203.2539 L1217,213.2539 L1227,213.2539 L1217,203.2539 " fill="#FEFFDD" style="stroke:#181818;stroke-width:0.5;"/><text fill="#000000" font-family="sans-serif" font-size="13" lengthAdjust="spacing" textLength="161" x="1051" y="222.1509">Exposed gRPC interface for</text><text fill="#000000" font-family="sans-serif" font-size="13" lengthAdjust="spacing" textLength="126" x="1051" y="239.8569">Accounts &amp; Balances.</text><path d="M1235,258.6659 L1235,285.6659 L1457,285.6659 L1457,268.6659 L1447,258.6659 L1235,258.6659 " fill="#FEFFDD" style="stroke:#181818;stroke-width:0.5;"/><path d="M1447,258.6659 L1447,268.6659 L1457,268.6659 L1447,258.6659 " fill="#FEFFDD" style="stroke:#181818;stroke-width:0.5;"/><text fill="#000000" font-family="sans-serif" font-size="13" lengthAdjust="spacing" textLength="201" x="1241" y="277.5629">TigerBeetle may be turned off/on.</text><path d="M10,298.3719 L401,298.3719 L401,308.0779 L391,318.0779 L10,318.0779 L10,298.3719 " fill="#EEEEEE" style="stroke:#000000;stroke-width:1.5;"/><rect fill="none" height="100.8241" style="stroke:#000000;stroke-width:1.5;" width="673.5" x="10" y="298.3719"/><text fill="#000000" font-family="sans-serif" font-size="13" font-weight="bold" lengthAdjust="spacing" textLength="346" x="25" y="313.2689">1. Dispute Settlement Batches via Matrix - Admin API</text><polygon fill="#181818" points="382,355.49,392,359.49,382,363.49,386,359.49" style="stroke:#181818;stroke-width:1.0;"/><line style="stroke:#181818;stroke-width:1.0;" x1="62" x2="388" y1="359.49" y2="359.49"/><text fill="#000000" font-family="sans-serif" font-size="13" font-weight="bold" lengthAdjust="spacing" textLength="7" x="69" y="344.828">1</text><text fill="#000000" font-family="sans-serif" font-size="13" lengthAdjust="spacing" textLength="49" x="80" y="335.975">Perofrm</text><text fill="#000000" font-family="sans-serif" font-size="13" font-style="italic" lengthAdjust="spacing" textLength="37" x="132" y="335.975">CLOSE</text><text fill="#000000" font-family="sans-serif" font-size="13" lengthAdjust="spacing" textLength="80" x="172" y="335.975">command on</text><text fill="#000000" font-family="sans-serif" font-size="13" font-weight="bold" lengthAdjust="spacing" textLength="122" x="255" y="335.975">Settlement Matrix</text><text fill="#000000" font-family="sans-serif" font-size="13" lengthAdjust="spacing" textLength="124" x="80" y="353.681">(settlementMatrixId)</text><polygon fill="#181818" points="603.5,387.196,613.5,391.196,603.5,395.196,607.5,391.196" style="stroke:#181818;stroke-width:1.0;"/><line style="stroke:#181818;stroke-width:1.0;stroke-dasharray:2.0,2.0;" x1="394" x2="609.5" y1="391.196" y2="391.196"/><text fill="#000000" font-family="sans-serif" font-size="13" font-weight="bold" lengthAdjust="spacing" textLength="7" x="401" y="385.387">2</text><text fill="#000000" font-family="sans-serif" font-size="13" lengthAdjust="spacing" textLength="123" x="412" y="385.387">Invoke the App layer</text><path d="M10,413.196 L474,413.196 L474,422.902 L464,432.902 L10,432.902 L10,413.196 " fill="#EEEEEE" style="stroke:#000000;stroke-width:1.5;"/><rect fill="none" height="290.0602" style="stroke:#000000;stroke-width:1.5;" width="1389" x="10" y="413.196"/><text fill="#000000" font-family="sans-serif" font-size="13" font-weight="bold" lengthAdjust="spacing" textLength="67" x="25" y="428.093">2. Execute</text><text fill="#000000" font-family="sans-serif" font-size="13" font-style="italic" font-weight="bold" lengthAdjust="spacing" textLength="52" x="95" y="428.093">DISPUTE</text><text fill="#000000" font-family="sans-serif" font-size="13" font-weight="bold" lengthAdjust="spacing" textLength="294" x="150" y="428.093">command on a Settlement Matrix - App Logic</text><polygon fill="#181818" points="626.5,470.314,616.5,474.314,626.5,478.314,622.5,474.314" style="stroke:#181818;stroke-width:1.0;"/><polygon fill="#181818" points="1001.5,470.314,1011.5,474.314,1001.5,478.314,1005.5,474.314" style="stroke:#181818;stroke-width:1.0;"/><line style="stroke:#181818;stroke-width:1.0;stroke-dasharray:2.0,2.0;" x1="620.5" x2="1007.5" y1="474.314" y2="474.314"/><text fill="#000000" font-family="sans-serif" font-size="13" font-weight="bold" lengthAdjust="spacing" textLength="7" x="632.5" y="459.652">3</text><text fill="#000000" font-family="sans-serif" font-size="13" lengthAdjust="spacing" textLength="46" x="643.5" y="450.799">Dispute</text><text fill="#000000" font-family="sans-serif" font-size="13" font-style="italic" lengthAdjust="spacing" textLength="89" x="692.5" y="450.799">OPEN / CLOSED</text><text fill="#000000" font-family="sans-serif" font-size="13" lengthAdjust="spacing" textLength="219" x="784.5" y="450.799">settlement batches which forms part</text><text fill="#000000" font-family="sans-serif" font-size="13" lengthAdjust="spacing" textLength="145" x="643.5" y="468.505">of the settlement matrix</text><polygon fill="#181818" points="626.5,502.0201,616.5,506.0201,626.5,510.0201,622.5,506.0201" style="stroke:#181818;stroke-width:1.0;"/><polygon fill="#181818" points="1124,502.0201,1134,506.0201,1124,510.0201,1128,506.0201" style="stroke:#181818;stroke-width:1.0;"/><line style="stroke:#181818;stroke-width:1.0;" x1="620.5" x2="1130" y1="506.0201" y2="506.0201"/><text fill="#000000" font-family="sans-serif" font-size="13" font-weight="bold" lengthAdjust="spacing" textLength="7" x="632.5" y="500.2111">4</text><text fill="#000000" font-family="sans-serif" font-size="13" lengthAdjust="spacing" textLength="117" x="643.5" y="500.2111">Obtain Debit/Credit</text><text fill="#000000" font-family="sans-serif" font-size="13" font-weight="bold" lengthAdjust="spacing" textLength="139" x="763.5" y="500.2111">Settlement Accounts</text><text fill="#000000" font-family="sans-serif" font-size="13" lengthAdjust="spacing" textLength="105" x="905.5" y="500.2111">based on batches</text><polygon fill="#181818" points="1147,533.7261,1137,537.7261,1147,541.7261,1143,537.7261" style="stroke:#181818;stroke-width:1.0;"/><polygon fill="#181818" points="1334,533.7261,1344,537.7261,1334,541.7261,1338,537.7261" style="stroke:#181818;stroke-width:1.0;"/><line style="stroke:#181818;stroke-width:1.0;" x1="1141" x2="1340" y1="537.7261" y2="537.7261"/><text fill="#000000" font-family="sans-serif" font-size="13" font-weight="bold" lengthAdjust="spacing" textLength="7" x="1153" y="531.9171">5</text><text fill="#000000" font-family="sans-serif" font-size="13" lengthAdjust="spacing" textLength="33" x="1164" y="531.9171">Fetch</text><text fill="#000000" font-family="sans-serif" font-size="13" font-weight="bold" lengthAdjust="spacing" textLength="139" x="1200" y="531.9171">Settlement Accounts</text><polygon fill="#181818" points="626.5,565.4321,616.5,569.4321,626.5,573.4321,622.5,569.4321" style="stroke:#181818;stroke-width:1.0;"/><polygon fill="#181818" points="1124,565.4321,1134,569.4321,1124,573.4321,1128,569.4321" style="stroke:#181818;stroke-width:1.0;"/><line style="stroke:#181818;stroke-width:1.0;" x1="620.5" x2="1130" y1="569.4321" y2="569.4321"/><text fill="#000000" font-family="sans-serif" font-size="13" font-weight="bold" lengthAdjust="spacing" textLength="7" x="632.5" y="563.6231">6</text><text fill="#000000" font-family="sans-serif" font-size="13" lengthAdjust="spacing" textLength="41" x="643.5" y="563.6231">Return</text><text fill="#000000" font-family="sans-serif" font-size="13" font-weight="bold" lengthAdjust="spacing" textLength="139" x="687.5" y="563.6231">Settlement Accounts</text><text fill="#000000" font-family="sans-serif" font-size="13" lengthAdjust="spacing" textLength="105" x="829.5" y="563.6231">based on batches</text><line style="stroke:#181818;stroke-width:1.0;stroke-dasharray:2.0,2.0;" x1="615.5" x2="657.5" y1="601.1381" y2="601.1381"/><line style="stroke:#181818;stroke-width:1.0;stroke-dasharray:2.0,2.0;" x1="657.5" x2="657.5" y1="601.1381" y2="614.1381"/><line style="stroke:#181818;stroke-width:1.0;stroke-dasharray:2.0,2.0;" x1="616.5" x2="657.5" y1="614.1381" y2="614.1381"/><polygon fill="#181818" points="625.5,597.1381,615.5,601.1381,625.5,605.1381,621.5,601.1381" style="stroke:#181818;stroke-width:1.0;"/><polygon fill="#181818" points="626.5,610.1381,616.5,614.1381,626.5,618.1381,622.5,614.1381" style="stroke:#181818;stroke-width:1.0;"/><text fill="#000000" font-family="sans-serif" font-size="13" font-weight="bold" lengthAdjust="spacing" textLength="7" x="622.5" y="595.3291">7</text><text fill="#000000" font-family="sans-serif" font-size="13" lengthAdjust="spacing" textLength="181" x="633.5" y="595.3291">Prepare the Settlement Matrix</text><polygon fill="#181818" points="405,641.8441,395,645.8441,405,649.8441,401,645.8441" style="stroke:#181818;stroke-width:1.0;"/><line style="stroke:#181818;stroke-width:1.0;" x1="399" x2="614.5" y1="645.8441" y2="645.8441"/><text fill="#000000" font-family="sans-serif" font-size="13" font-weight="bold" lengthAdjust="spacing" textLength="7" x="411" y="640.0351">8</text><text fill="#000000" font-family="sans-serif" font-size="13" lengthAdjust="spacing" textLength="152" x="422" y="640.0351">Return Settlement Matrix</text><polygon fill="#181818" points="73,691.2562,63,695.2562,73,699.2562,69,695.2562" style="stroke:#181818;stroke-width:1.0;"/><line style="stroke:#181818;stroke-width:1.0;" x1="67" x2="393" y1="695.2562" y2="695.2562"/><text fill="#000000" font-family="sans-serif" font-size="13" font-weight="bold" lengthAdjust="spacing" textLength="7" x="79" y="680.5942">9</text><text fill="#000000" font-family="sans-serif" font-size="13" lengthAdjust="spacing" textLength="206" x="90" y="671.7411">Return Settlement Matrix for caller</text><text fill="#000000" font-family="sans-serif" font-size="13" font-style="italic" font-weight="bold" lengthAdjust="spacing" textLength="112" x="90" y="689.4472">ISettlementMatrix</text><!--SRC=[bLHTQzim57tthxYqK3Q3ApPQQCCe9FvWOTqIccvFWIBBSY9gIqPMilJVJv9jsSx7m_BcctlFFUVeI8gfWaB4wcgdAAoeqfybvGf-OYNPmVCgB1KZhCAwTZNDIiPXkfnV0Qw17jGRAJml5OV1P0sp4AwJnoH97ZtGln722wsL0wXJyYPDuJgwZn-YkzFsU6-uVCSyAwXqCzHMXqDSQFPYJsN_lwsRtm-SlsDu5HKZjIi6JG5o8KzLmvGGiTDIR3lbcSK_PJSMlURJge9diM74CSLLzLQO2bp7KNX_5rcG32kSufgE48AehRhXBDKQf_534dg6WxQvyRfZ1zeMcE42Sq9RrvFphazlPh3w4rfad6heZQp8oC2UakuDdccsQVssxOhfpvHIavMEqjXsX-eSZW-Lg6a6cvTb28mhAdDCg37SjJWXDqx6xQdbHqi6N1pGgwdD6dub_e2KWjf9hhUBF4U27w4wDpTIx2huSdlk0iom8bljwvxXBXO1k0lWuPqIV5Ucj97Jt0K8dlfGJs19fSXb2GY5pujLZ10GKPRcr0G7tp_9dU-l-QVQLPlYFFjiDpZSe5tIPsi2SxuNxrhqbe89OO4_D2yjivFuzLQV1oL68aBHVBNy_Nf41v-v1W6uH3iA_TPl7H6Tqubp4A75Clu52ApaI2_f1K7QUlftoyZMHA6iRL1XpKLksG-Qo-O5EhVuQP3Y2InIXVMfH3Hb2eMIPaoDtUrovljWCcxrjbGiV0_ce0Sfcq12TUybo3C8nwVpGaqQ_u_J1Q-7i4j9jNdDgP- -tASWut2sf2uFDc5xwg9zUS8-eWGN-ebUSzz7QBuwoZ12sYSJnty0]--></g></svg>