<?xml version="1.0" encoding="us-ascii" standalone="no"?><svg xmlns="http://www.w3.org/2000/svg" xmlns:xlink="http://www.w3.org/1999/xlink" contentStyleType="text/css" height="809px" preserveAspectRatio="none" style="width:1464px;height:809px;background:#FFFFFF;" version="1.1" viewBox="0 0 1464 809" width="1464px" zoomAndPan="magnify"><defs/><g><rect fill="#005B96" height="37.24" id="_title" rx="5" ry="5" style="stroke:#005B96;stroke-width:6.0;" width="278" x="591.5" y="10"/><text fill="#FFFFFF" font-family="sans-serif" font-size="20" font-weight="bold" lengthAdjust="spacing" textLength="268" x="596.5" y="36.38">Dispute Settlement Matrix</text><rect fill="#F9FFF9" height="742.2562" style="stroke:#181818;stroke-width:0.5;" width="739" x="355.5" y="54.24"/><text fill="#000000" font-family="sans-serif" font-size="13" font-weight="bold" lengthAdjust="spacing" textLength="101" x="673" y="68.137">Settlements BC</text><rect fill="#FFFFF9" height="742.2562" style="stroke:#181818;stroke-width:0.5;" width="296.5" x="1096.5" y="54.24"/><text fill="#000000" font-family="sans-serif" font-size="13" font-weight="bold" lengthAdjust="spacing" textLength="171" x="1157.75" y="68.137">Accounts and Balances BC</text><rect fill="none" height="100.8241" style="stroke:#000000;stroke-width:1.5;" width="673.5" x="10" y="306.544"/><rect fill="none" height="290.0602" style="stroke:#000000;stroke-width:1.5;" width="1389" x="10" y="421.3681"/><line style="stroke:#181818;stroke-width:0.5;stroke-dasharray:5.0,5.0;" x1="62" x2="62" y1="141.0139" y2="728.4282"/><line style="stroke:#181818;stroke-width:0.5;stroke-dasharray:5.0,5.0;" x1="393.5" x2="393.5" y1="141.0139" y2="728.4282"/><line style="stroke:#181818;stroke-width:0.5;stroke-dasharray:5.0,5.0;" x1="492.5" x2="492.5" y1="141.0139" y2="728.4282"/><line style="stroke:#181818;stroke-width:0.5;stroke-dasharray:5.0,5.0;" x1="615.5" x2="615.5" y1="141.0139" y2="728.4282"/><line style="stroke:#181818;stroke-width:0.5;stroke-dasharray:5.0,5.0;" x1="1013.5" x2="1013.5" y1="141.0139" y2="728.4282"/><line style="stroke:#181818;stroke-width:0.5;stroke-dasharray:5.0,5.0;" x1="1135.5" x2="1135.5" y1="141.0139" y2="728.4282"/><line style="stroke:#181818;stroke-width:0.5;stroke-dasharray:5.0,5.0;" x1="1346" x2="1346" y1="141.0139" y2="728.4282"/><rect fill="#E2E2F0" height="33.0679" rx="2.5" ry="2.5" style="stroke:#181818;stroke-width:0.5;" width="84" x="20" y="106.946"/><text fill="#000000" font-family="sans-serif" font-size="14" lengthAdjust="spacing" textLength="70" x="27" y="128.9119">Admin API</text><rect fill="#E2E2F0" height="33.0679" rx="2.5" ry="2.5" style="stroke:#181818;stroke-width:0.5;" width="84" x="20" y="727.4282"/><text fill="#000000" font-family="sans-serif" font-size="14" lengthAdjust="spacing" textLength="70" x="27" y="749.3942">Admin API</text><rect fill="#D5E8D4" height="33.0679" rx="2.5" ry="2.5" style="stroke:#181818;stroke-width:0.5;" width="69" x="359.5" y="106.946"/><text fill="#000000" font-family="sans-serif" font-size="14" lengthAdjust="spacing" textLength="55" x="366.5" y="128.9119">Rest API</text><rect fill="#D5E8D4" height="33.0679" rx="2.5" ry="2.5" style="stroke:#181818;stroke-width:0.5;" width="69" x="359.5" y="727.4282"/><text fill="#000000" font-family="sans-serif" font-size="14" lengthAdjust="spacing" textLength="55" x="366.5" y="749.3942">Rest API</text><rect fill="#D5E8D4" height="33.0679" rx="2.5" ry="2.5" style="stroke:#181818;stroke-width:0.5;" width="109" x="438.5" y="106.946"/><text fill="#000000" font-family="sans-serif" font-size="14" lengthAdjust="spacing" textLength="95" x="445.5" y="128.9119">Event Handler</text><rect fill="#D5E8D4" height="33.0679" rx="2.5" ry="2.5" style="stroke:#181818;stroke-width:0.5;" width="109" x="438.5" y="727.4282"/><text fill="#000000" font-family="sans-serif" font-size="14" lengthAdjust="spacing" textLength="95" x="445.5" y="749.3942">Event Handler</text><rect fill="#EDC54D" height="52.1358" rx="2.5" ry="2.5" style="stroke:#181818;stroke-width:0.5;" width="116" x="557.5" y="87.8781"/><text fill="#000000" font-family="sans-serif" font-size="14" lengthAdjust="spacing" textLength="102" x="564.5" y="109.844">Settlements BC</text><text fill="#000000" font-family="sans-serif" font-size="14" lengthAdjust="spacing" textLength="66" x="582.5" y="128.9119">App Logic</text><rect fill="#EDC54D" height="52.1358" rx="2.5" ry="2.5" style="stroke:#181818;stroke-width:0.5;" width="116" x="557.5" y="727.4282"/><text fill="#000000" font-family="sans-serif" font-size="14" lengthAdjust="spacing" textLength="102" x="564.5" y="749.3942">Settlements BC</text><text fill="#000000" font-family="sans-serif" font-size="14" lengthAdjust="spacing" textLength="66" x="582.5" y="768.4621">App Logic</text><text fill="#000000" font-family="sans-serif" font-size="14" lengthAdjust="spacing" textLength="148" x="936.5" y="136.9119">Settlements-Database</text><path d="M995.5,85.946 C995.5,75.946 1013.5,75.946 1013.5,75.946 C1013.5,75.946 1031.5,75.946 1031.5,85.946 L1031.5,111.946 C1031.5,121.946 1013.5,121.946 1013.5,121.946 C1013.5,121.946 995.5,121.946 995.5,111.946 L995.5,85.946 " fill="#DAE8FC" style="stroke:#181818;stroke-width:1.5;"/><path d="M995.5,85.946 C995.5,95.946 1013.5,95.946 1013.5,95.946 C1013.5,95.946 1031.5,95.946 1031.5,85.946 " fill="none" style="stroke:#181818;stroke-width:1.5;"/><text fill="#000000" font-family="sans-serif" font-size="14" lengthAdjust="spacing" textLength="148" x="936.5" y="742.3942">Settlements-Database</text><path d="M995.5,756.4961 C995.5,746.4961 1013.5,746.4961 1013.5,746.4961 C1013.5,746.4961 1031.5,746.4961 1031.5,756.4961 L1031.5,782.4961 C1031.5,792.4961 1013.5,792.4961 1013.5,792.4961 C1013.5,792.4961 995.5,792.4961 995.5,782.4961 L995.5,756.4961 " fill="#DAE8FC" style="stroke:#181818;stroke-width:1.5;"/><path d="M995.5,756.4961 C995.5,766.4961 1013.5,766.4961 1013.5,766.4961 C1013.5,766.4961 1031.5,766.4961 1031.5,756.4961 " fill="none" style="stroke:#181818;stroke-width:1.5;"/><rect fill="#D5E8D4" height="33.0679" rx="2.5" ry="2.5" style="stroke:#181818;stroke-width:0.5;" width="71" x="1100.5" y="106.946"/><text fill="#000000" font-family="sans-serif" font-size="14" lengthAdjust="spacing" textLength="57" x="1107.5" y="128.9119">A&amp;B SVC</text><rect fill="#D5E8D4" height="33.0679" rx="2.5" ry="2.5" style="stroke:#181818;stroke-width:0.5;" width="71" x="1100.5" y="727.4282"/><text fill="#000000" font-family="sans-serif" font-size="14" lengthAdjust="spacing" textLength="57" x="1107.5" y="749.3942">A&amp;B SVC</text><text fill="#000000" font-family="sans-serif" font-size="14" lengthAdjust="spacing" textLength="80" x="1303" y="136.9119">A&amp;B-Ledger</text><path d="M1328,85.946 C1328,75.946 1346,75.946 1346,75.946 C1346,75.946 1364,75.946 1364,85.946 L1364,111.946 C1364,121.946 1346,121.946 1346,121.946 C1346,121.946 1328,121.946 1328,111.946 L1328,85.946 " fill="#DAE8FC" style="stroke:#181818;stroke-width:1.5;"/><path d="M1328,85.946 C1328,95.946 1346,95.946 1346,95.946 C1346,95.946 1364,95.946 1364,85.946 " fill="none" style="stroke:#181818;stroke-width:1.5;"/><text fill="#000000" font-family="sans-serif" font-size="14" lengthAdjust="spacing" textLength="80" x="1303" y="742.3942">A&amp;B-Ledger</text><path d="M1328,756.4961 C1328,746.4961 1346,746.4961 1346,746.4961 C1346,746.4961 1364,746.4961 1364,756.4961 L1364,782.4961 C1364,792.4961 1346,792.4961 1346,792.4961 C1346,792.4961 1328,792.4961 1328,782.4961 L1328,756.4961 " fill="#DAE8FC" style="stroke:#181818;stroke-width:1.5;"/><path d="M1328,756.4961 C1328,766.4961 1346,766.4961 1346,766.4961 C1346,766.4961 1364,766.4961 1364,756.4961 " fill="none" style="stroke:#181818;stroke-width:1.5;"/><path d="M368,156.0139 L368,201.0139 L617,201.0139 L617,166.0139 L607,156.0139 L368,156.0139 " fill="#FEFFDD" style="stroke:#181818;stroke-width:0.5;"/><path d="M607,156.0139 L607,166.0139 L617,166.0139 L607,156.0139 " fill="#FEFFDD" style="stroke:#181818;stroke-width:0.5;"/><text fill="#000000" font-family="sans-serif" font-size="13" lengthAdjust="spacing" textLength="74" x="374" y="174.9109">Kafka Topics</text><text fill="#000000" font-family="sans-serif" font-size="13" lengthAdjust="spacing" textLength="228" x="374" y="192.6169">- Topic for Settlement Matrix Accounts</text><path d="M1045,211.4259 L1045,256.4259 L1227,256.4259 L1227,221.4259 L1217,211.4259 L1045,211.4259 " fill="#FEFFDD" style="stroke:#181818;stroke-width:0.5;"/><path d="M1217,211.4259 L1217,221.4259 L1227,221.4259 L1217,211.4259 " fill="#FEFFDD" style="stroke:#181818;stroke-width:0.5;"/><text fill="#000000" font-family="sans-serif" font-size="13" lengthAdjust="spacing" textLength="161" x="1051" y="230.323">Exposed gRPC interface for</text><text fill="#000000" font-family="sans-serif" font-size="13" lengthAdjust="spacing" textLength="126" x="1051" y="248.029">Accounts &amp; Balances.</text><path d="M1235,266.838 L1235,293.838 L1457,293.838 L1457,276.838 L1447,266.838 L1235,266.838 " fill="#FEFFDD" style="stroke:#181818;stroke-width:0.5;"/><path d="M1447,266.838 L1447,276.838 L1457,276.838 L1447,266.838 " fill="#FEFFDD" style="stroke:#181818;stroke-width:0.5;"/><text fill="#000000" font-family="sans-serif" font-size="13" lengthAdjust="spacing" textLength="201" x="1241" y="285.735">TigerBeetle may be turned off/on.</text><path d="M10,306.544 L401,306.544 L401,316.25 L391,326.25 L10,326.25 L10,306.544 " fill="#EEEEEE" style="stroke:#000000;stroke-width:1.5;"/><rect fill="none" height="100.8241" style="stroke:#000000;stroke-width:1.5;" width="673.5" x="10" y="306.544"/><text fill="#000000" font-family="sans-serif" font-size="13" font-weight="bold" lengthAdjust="spacing" textLength="346" x="25" y="321.441">1. Dispute Settlement Batches via Matrix - Admin API</text><polygon fill="#181818" points="382,363.662,392,367.662,382,371.662,386,367.662" style="stroke:#181818;stroke-width:1.0;"/><line style="stroke:#181818;stroke-width:1.0;" x1="62" x2="388" y1="367.662" y2="367.662"/><text fill="#000000" font-family="sans-serif" font-size="13" font-weight="bold" lengthAdjust="spacing" textLength="7" x="69" y="353">1</text><text fill="#000000" font-family="sans-serif" font-size="13" lengthAdjust="spacing" textLength="49" x="80" y="344.147">Perofrm</text><text fill="#000000" font-family="sans-serif" font-size="13" font-style="italic" lengthAdjust="spacing" textLength="37" x="132" y="344.147">CLOSE</text><text fill="#000000" font-family="sans-serif" font-size="13" lengthAdjust="spacing" textLength="80" x="172" y="344.147">command on</text><text fill="#000000" font-family="sans-serif" font-size="13" font-weight="bold" lengthAdjust="spacing" textLength="122" x="255" y="344.147">Settlement Matrix</text><text fill="#000000" font-family="sans-serif" font-size="13" lengthAdjust="spacing" textLength="124" x="80" y="361.853">(settlementMatrixId)</text><polygon fill="#181818" points="603.5,395.3681,613.5,399.3681,603.5,403.3681,607.5,399.3681" style="stroke:#181818;stroke-width:1.0;"/><line style="stroke:#181818;stroke-width:1.0;stroke-dasharray:2.0,2.0;" x1="394" x2="609.5" y1="399.3681" y2="399.3681"/><text fill="#000000" font-family="sans-serif" font-size="13" font-weight="bold" lengthAdjust="spacing" textLength="7" x="401" y="393.5591">2</text><text fill="#000000" font-family="sans-serif" font-size="13" lengthAdjust="spacing" textLength="123" x="412" y="393.5591">Invoke the App layer</text><path d="M10,421.3681 L474,421.3681 L474,431.0741 L464,441.0741 L10,441.0741 L10,421.3681 " fill="#EEEEEE" style="stroke:#000000;stroke-width:1.5;"/><rect fill="none" height="290.0602" style="stroke:#000000;stroke-width:1.5;" width="1389" x="10" y="421.3681"/><text fill="#000000" font-family="sans-serif" font-size="13" font-weight="bold" lengthAdjust="spacing" textLength="67" x="25" y="436.2651">2. Execute</text><text fill="#000000" font-family="sans-serif" font-size="13" font-style="italic" font-weight="bold" lengthAdjust="spacing" textLength="52" x="95" y="436.2651">DISPUTE</text><text fill="#000000" font-family="sans-serif" font-size="13" font-weight="bold" lengthAdjust="spacing" textLength="294" x="150" y="436.2651">command on a Settlement Matrix - App Logic</text><polygon fill="#181818" points="626.5,478.4861,616.5,482.4861,626.5,486.4861,622.5,482.4861" style="stroke:#181818;stroke-width:1.0;"/><polygon fill="#181818" points="1001.5,478.4861,1011.5,482.4861,1001.5,486.4861,1005.5,482.4861" style="stroke:#181818;stroke-width:1.0;"/><line style="stroke:#181818;stroke-width:1.0;stroke-dasharray:2.0,2.0;" x1="620.5" x2="1007.5" y1="482.4861" y2="482.4861"/><text fill="#000000" font-family="sans-serif" font-size="13" font-weight="bold" lengthAdjust="spacing" textLength="7" x="632.5" y="467.8241">3</text><text fill="#000000" font-family="sans-serif" font-size="13" lengthAdjust="spacing" textLength="46" x="643.5" y="458.9711">Dispute</text><text fill="#000000" font-family="sans-serif" font-size="13" font-style="italic" lengthAdjust="spacing" textLength="89" x="692.5" y="458.9711">OPEN / CLOSED</text><text fill="#000000" font-family="sans-serif" font-size="13" lengthAdjust="spacing" textLength="219" x="784.5" y="458.9711">settlement batches which forms part</text><text fill="#000000" font-family="sans-serif" font-size="13" lengthAdjust="spacing" textLength="145" x="643.5" y="476.6771">of the settlement matrix</text><polygon fill="#181818" points="626.5,510.1921,616.5,514.1921,626.5,518.1921,622.5,514.1921" style="stroke:#181818;stroke-width:1.0;"/><polygon fill="#181818" points="1124,510.1921,1134,514.1921,1124,518.1921,1128,514.1921" style="stroke:#181818;stroke-width:1.0;"/><line style="stroke:#181818;stroke-width:1.0;" x1="620.5" x2="1130" y1="514.1921" y2="514.1921"/><text fill="#000000" font-family="sans-serif" font-size="13" font-weight="bold" lengthAdjust="spacing" textLength="7" x="632.5" y="508.3831">4</text><text fill="#000000" font-family="sans-serif" font-size="13" lengthAdjust="spacing" textLength="117" x="643.5" y="508.3831">Obtain Debit/Credit</text><text fill="#000000" font-family="sans-serif" font-size="13" font-weight="bold" lengthAdjust="spacing" textLength="139" x="763.5" y="508.3831">Settlement Accounts</text><text fill="#000000" font-family="sans-serif" font-size="13" lengthAdjust="spacing" textLength="105" x="905.5" y="508.3831">based on batches</text><polygon fill="#181818" points="1147,541.8981,1137,545.8981,1147,549.8981,1143,545.8981" style="stroke:#181818;stroke-width:1.0;"/><polygon fill="#181818" points="1334,541.8981,1344,545.8981,1334,549.8981,1338,545.8981" style="stroke:#181818;stroke-width:1.0;"/><line style="stroke:#181818;stroke-width:1.0;" x1="1141" x2="1340" y1="545.8981" y2="545.8981"/><text fill="#000000" font-family="sans-serif" font-size="13" font-weight="bold" lengthAdjust="spacing" textLength="7" x="1153" y="540.0891">5</text><text fill="#000000" font-family="sans-serif" font-size="13" lengthAdjust="spacing" textLength="33" x="1164" y="540.0891">Fetch</text><text fill="#000000" font-family="sans-serif" font-size="13" font-weight="bold" lengthAdjust="spacing" textLength="139" x="1200" y="540.0891">Settlement Accounts</text><polygon fill="#181818" points="626.5,573.6042,616.5,577.6042,626.5,581.6042,622.5,577.6042" style="stroke:#181818;stroke-width:1.0;"/><polygon fill="#181818" points="1124,573.6042,1134,577.6042,1124,581.6042,1128,577.6042" style="stroke:#181818;stroke-width:1.0;"/><line style="stroke:#181818;stroke-width:1.0;" x1="620.5" x2="1130" y1="577.6042" y2="577.6042"/><text fill="#000000" font-family="sans-serif" font-size="13" font-weight="bold" lengthAdjust="spacing" textLength="7" x="632.5" y="571.7952">6</text><text fill="#000000" font-family="sans-serif" font-size="13" lengthAdjust="spacing" textLength="41" x="643.5" y="571.7952">Return</text><text fill="#000000" font-family="sans-serif" font-size="13" font-weight="bold" lengthAdjust="spacing" textLength="139" x="687.5" y="571.7952">Settlement Accounts</text><text fill="#000000" font-family="sans-serif" font-size="13" lengthAdjust="spacing" textLength="105" x="829.5" y="571.7952">based on batches</text><line style="stroke:#181818;stroke-width:1.0;stroke-dasharray:2.0,2.0;" x1="615.5" x2="657.5" y1="609.3102" y2="609.3102"/><line style="stroke:#181818;stroke-width:1.0;stroke-dasharray:2.0,2.0;" x1="657.5" x2="657.5" y1="609.3102" y2="622.3102"/><line style="stroke:#181818;stroke-width:1.0;stroke-dasharray:2.0,2.0;" x1="616.5" x2="657.5" y1="622.3102" y2="622.3102"/><polygon fill="#181818" points="625.5,605.3102,615.5,609.3102,625.5,613.3102,621.5,609.3102" style="stroke:#181818;stroke-width:1.0;"/><polygon fill="#181818" points="626.5,618.3102,616.5,622.3102,626.5,626.3102,622.5,622.3102" style="stroke:#181818;stroke-width:1.0;"/><text fill="#000000" font-family="sans-serif" font-size="13" font-weight="bold" lengthAdjust="spacing" textLength="7" x="622.5" y="603.5012">7</text><text fill="#000000" font-family="sans-serif" font-size="13" lengthAdjust="spacing" textLength="181" x="633.5" y="603.5012">Prepare the Settlement Matrix</text><polygon fill="#181818" points="405,650.0162,395,654.0162,405,658.0162,401,654.0162" style="stroke:#181818;stroke-width:1.0;"/><line style="stroke:#181818;stroke-width:1.0;" x1="399" x2="614.5" y1="654.0162" y2="654.0162"/><text fill="#000000" font-family="sans-serif" font-size="13" font-weight="bold" lengthAdjust="spacing" textLength="7" x="411" y="648.2072">8</text><text fill="#000000" font-family="sans-serif" font-size="13" lengthAdjust="spacing" textLength="152" x="422" y="648.2072">Return Settlement Matrix</text><polygon fill="#181818" points="73,699.4282,63,703.4282,73,707.4282,69,703.4282" style="stroke:#181818;stroke-width:1.0;"/><line style="stroke:#181818;stroke-width:1.0;" x1="67" x2="393" y1="703.4282" y2="703.4282"/><text fill="#000000" font-family="sans-serif" font-size="13" font-weight="bold" lengthAdjust="spacing" textLength="7" x="79" y="688.7662">9</text><text fill="#000000" font-family="sans-serif" font-size="13" lengthAdjust="spacing" textLength="206" x="90" y="679.9132">Return Settlement Matrix for caller</text><text fill="#000000" font-family="sans-serif" font-size="13" font-style="italic" font-weight="bold" lengthAdjust="spacing" textLength="112" x="90" y="697.6192">ISettlementMatrix</text><!--SRC=[bLJHRjem57tFLrorKhL5IaEhTchHL0aIqD2w5G7R4rBbE1UmIEp8COpkwsSxmGG23yjRhg_FFUVusEMQyO98aiECgGo7Wgif-ujmt_7Azb8aCY7XUcY_HeCo3NqXKvGJiU5f92H72NUTypsp5QDhZcK9Nyutr7CwdSV-Sxk5qFLILcEQRNOHObOM6uKmHQL_S-GAVX0bsSxpD8PYb1L4rwvwQSuuzCQZAo0bu4wzqypp4h5hx2oX7scrprhiimVwEqAOOAaSG9dGTsaAr_7Zu2b-QBSFjeRBDyBJ3ANRWxRQtCI5PY-ssZwtRklc-quMQm8pKJ1Qkc9G5M2XlMYfXXwbsYfLjIDFBNwRtR7eEUyL1RoA9QEEAIcAzynKu7eGHuyFiGL9YI89AV488OZhgjkS9bfZR_0qZ3p3GTjSURrd1zeMw9ECS8grwyFphlTk-Z3z7LbaacZefIpeaO47IhetUCLqMVjjsnNJlmcYoSgUqh7j3jKvFDWLeiGKbfDn18mhb0j2qHZkMfoG6oVZjctvoP065mSqCxL-nIyd7v0Wg8s-JIc8nI8K_0JLkMbkH05tj-SkG9yekjA-RXdPno80Tm4yib62R_84ApdLNO3WvH3gBenHYeNC8GoZrxVf80o1YZmtfoOu-7uhTxu_vvzALwsAe_IpdU1mWth88LjT6F6jM6lHAmGJmenyQ5vQvbxY_Qq-3wH6OXZ6e-dur-o43Zbp3G9mYNOK3bE_xeded7QTWs7uDXxyX12iv5WFEGY2fFRqZtxBLYOAUMc32dCk5fPzepclNg1pWryQAUx2MwA8FfKO4wR2I6BArB6x-vpvFfYCMxqr5Gj_07FGZPHrOOYwznBa6OJJqvcWIUF_SRhWTHDsB56RLvrw- -LkWno7ioPrUMCLjfTzj2_li8ye9Pb-ekVSzyDmD3t9S1XgdqmS_m40]--></g></svg>