<?xml version="1.0" encoding="us-ascii" standalone="no"?><svg xmlns="http://www.w3.org/2000/svg" xmlns:xlink="http://www.w3.org/1999/xlink" contentStyleType="text/css" height="967px" preserveAspectRatio="none" style="width:1589px;height:967px;background:#FFFFFF;" version="1.1" viewBox="0 0 1589 967" width="1589px" zoomAndPan="magnify"><defs/><g><rect fill="#005B96" height="37.24" id="_title" rx="5" ry="5" style="stroke:#005B96;stroke-width:6.0;" width="259" x="661" y="10"/><text fill="#FFFFFF" font-family="sans-serif" font-size="20" font-weight="bold" lengthAdjust="spacing" textLength="249" x="666" y="36.38">Settle Settlement Matrix</text><rect fill="#F9FFF9" height="899.7862" style="stroke:#181818;stroke-width:0.5;" width="855.5" x="359.5" y="54.24"/><text fill="#000000" font-family="sans-serif" font-size="13" font-weight="bold" lengthAdjust="spacing" textLength="101" x="735.25" y="68.137">Settlements BC</text><rect fill="#FFFFF9" height="899.7862" style="stroke:#181818;stroke-width:0.5;" width="296.5" x="1217" y="54.24"/><text fill="#000000" font-family="sans-serif" font-size="13" font-weight="bold" lengthAdjust="spacing" textLength="171" x="1278.25" y="68.137">Accounts and Balances BC</text><rect fill="none" height="100.8241" style="stroke:#000000;stroke-width:1.5;" width="745" x="10" y="306.544"/><rect fill="none" height="447.5902" style="stroke:#000000;stroke-width:1.5;" width="1509.5" x="10" y="421.3681"/><line style="stroke:#181818;stroke-width:0.5;stroke-dasharray:5.0,5.0;" x1="62" x2="62" y1="141.0139" y2="885.9583"/><line style="stroke:#181818;stroke-width:0.5;stroke-dasharray:5.0,5.0;" x1="397.5" x2="397.5" y1="141.0139" y2="885.9583"/><line style="stroke:#181818;stroke-width:0.5;stroke-dasharray:5.0,5.0;" x1="496.5" x2="496.5" y1="141.0139" y2="885.9583"/><line style="stroke:#181818;stroke-width:0.5;stroke-dasharray:5.0,5.0;" x1="687" x2="687" y1="141.0139" y2="885.9583"/><line style="stroke:#181818;stroke-width:0.5;stroke-dasharray:5.0,5.0;" x1="1134" x2="1134" y1="141.0139" y2="885.9583"/><line style="stroke:#181818;stroke-width:0.5;stroke-dasharray:5.0,5.0;" x1="1256" x2="1256" y1="141.0139" y2="885.9583"/><line style="stroke:#181818;stroke-width:0.5;stroke-dasharray:5.0,5.0;" x1="1466.5" x2="1466.5" y1="141.0139" y2="885.9583"/><rect fill="#E2E2F0" height="33.0679" rx="2.5" ry="2.5" style="stroke:#181818;stroke-width:0.5;" width="84" x="20" y="106.946"/><text fill="#000000" font-family="sans-serif" font-size="14" lengthAdjust="spacing" textLength="70" x="27" y="128.9119">Admin API</text><rect fill="#E2E2F0" height="33.0679" rx="2.5" ry="2.5" style="stroke:#181818;stroke-width:0.5;" width="84" x="20" y="884.9583"/><text fill="#000000" font-family="sans-serif" font-size="14" lengthAdjust="spacing" textLength="70" x="27" y="906.9242">Admin API</text><rect fill="#D5E8D4" height="33.0679" rx="2.5" ry="2.5" style="stroke:#181818;stroke-width:0.5;" width="69" x="363.5" y="106.946"/><text fill="#000000" font-family="sans-serif" font-size="14" lengthAdjust="spacing" textLength="55" x="370.5" y="128.9119">Rest API</text><rect fill="#D5E8D4" height="33.0679" rx="2.5" ry="2.5" style="stroke:#181818;stroke-width:0.5;" width="69" x="363.5" y="884.9583"/><text fill="#000000" font-family="sans-serif" font-size="14" lengthAdjust="spacing" textLength="55" x="370.5" y="906.9242">Rest API</text><rect fill="#D5E8D4" height="33.0679" rx="2.5" ry="2.5" style="stroke:#181818;stroke-width:0.5;" width="109" x="442.5" y="106.946"/><text fill="#000000" font-family="sans-serif" font-size="14" lengthAdjust="spacing" textLength="95" x="449.5" y="128.9119">Event Handler</text><rect fill="#D5E8D4" height="33.0679" rx="2.5" ry="2.5" style="stroke:#181818;stroke-width:0.5;" width="109" x="442.5" y="884.9583"/><text fill="#000000" font-family="sans-serif" font-size="14" lengthAdjust="spacing" textLength="95" x="449.5" y="906.9242">Event Handler</text><rect fill="#EDC54D" height="52.1358" rx="2.5" ry="2.5" style="stroke:#181818;stroke-width:0.5;" width="116" x="629" y="87.8781"/><text fill="#000000" font-family="sans-serif" font-size="14" lengthAdjust="spacing" textLength="102" x="636" y="109.844">Settlements BC</text><text fill="#000000" font-family="sans-serif" font-size="14" lengthAdjust="spacing" textLength="66" x="654" y="128.9119">App Logic</text><rect fill="#EDC54D" height="52.1358" rx="2.5" ry="2.5" style="stroke:#181818;stroke-width:0.5;" width="116" x="629" y="884.9583"/><text fill="#000000" font-family="sans-serif" font-size="14" lengthAdjust="spacing" textLength="102" x="636" y="906.9242">Settlements BC</text><text fill="#000000" font-family="sans-serif" font-size="14" lengthAdjust="spacing" textLength="66" x="654" y="925.9922">App Logic</text><text fill="#000000" font-family="sans-serif" font-size="14" lengthAdjust="spacing" textLength="148" x="1057" y="136.9119">Settlements-Database</text><path d="M1116,85.946 C1116,75.946 1134,75.946 1134,75.946 C1134,75.946 1152,75.946 1152,85.946 L1152,111.946 C1152,121.946 1134,121.946 1134,121.946 C1134,121.946 1116,121.946 1116,111.946 L1116,85.946 " fill="#DAE8FC" style="stroke:#181818;stroke-width:1.5;"/><path d="M1116,85.946 C1116,95.946 1134,95.946 1134,95.946 C1134,95.946 1152,95.946 1152,85.946 " fill="none" style="stroke:#181818;stroke-width:1.5;"/><text fill="#000000" font-family="sans-serif" font-size="14" lengthAdjust="spacing" textLength="148" x="1057" y="899.9242">Settlements-Database</text><path d="M1116,914.0262 C1116,904.0262 1134,904.0262 1134,904.0262 C1134,904.0262 1152,904.0262 1152,914.0262 L1152,940.0262 C1152,950.0262 1134,950.0262 1134,950.0262 C1134,950.0262 1116,950.0262 1116,940.0262 L1116,914.0262 " fill="#DAE8FC" style="stroke:#181818;stroke-width:1.5;"/><path d="M1116,914.0262 C1116,924.0262 1134,924.0262 1134,924.0262 C1134,924.0262 1152,924.0262 1152,914.0262 " fill="none" style="stroke:#181818;stroke-width:1.5;"/><rect fill="#D5E8D4" height="33.0679" rx="2.5" ry="2.5" style="stroke:#181818;stroke-width:0.5;" width="71" x="1221" y="106.946"/><text fill="#000000" font-family="sans-serif" font-size="14" lengthAdjust="spacing" textLength="57" x="1228" y="128.9119">A&amp;B SVC</text><rect fill="#D5E8D4" height="33.0679" rx="2.5" ry="2.5" style="stroke:#181818;stroke-width:0.5;" width="71" x="1221" y="884.9583"/><text fill="#000000" font-family="sans-serif" font-size="14" lengthAdjust="spacing" textLength="57" x="1228" y="906.9242">A&amp;B SVC</text><text fill="#000000" font-family="sans-serif" font-size="14" lengthAdjust="spacing" textLength="80" x="1423.5" y="136.9119">A&amp;B-Ledger</text><path d="M1448.5,85.946 C1448.5,75.946 1466.5,75.946 1466.5,75.946 C1466.5,75.946 1484.5,75.946 1484.5,85.946 L1484.5,111.946 C1484.5,121.946 1466.5,121.946 1466.5,121.946 C1466.5,121.946 1448.5,121.946 1448.5,111.946 L1448.5,85.946 " fill="#DAE8FC" style="stroke:#181818;stroke-width:1.5;"/><path d="M1448.5,85.946 C1448.5,95.946 1466.5,95.946 1466.5,95.946 C1466.5,95.946 1484.5,95.946 1484.5,85.946 " fill="none" style="stroke:#181818;stroke-width:1.5;"/><text fill="#000000" font-family="sans-serif" font-size="14" lengthAdjust="spacing" textLength="80" x="1423.5" y="899.9242">A&amp;B-Ledger</text><path d="M1448.5,914.0262 C1448.5,904.0262 1466.5,904.0262 1466.5,904.0262 C1466.5,904.0262 1484.5,904.0262 1484.5,914.0262 L1484.5,940.0262 C1484.5,950.0262 1466.5,950.0262 1466.5,950.0262 C1466.5,950.0262 1448.5,950.0262 1448.5,940.0262 L1448.5,914.0262 " fill="#DAE8FC" style="stroke:#181818;stroke-width:1.5;"/><path d="M1448.5,914.0262 C1448.5,924.0262 1466.5,924.0262 1466.5,924.0262 C1466.5,924.0262 1484.5,924.0262 1484.5,914.0262 " fill="none" style="stroke:#181818;stroke-width:1.5;"/><path d="M372,156.0139 L372,201.0139 L621,201.0139 L621,166.0139 L611,156.0139 L372,156.0139 " fill="#FEFFDD" style="stroke:#181818;stroke-width:0.5;"/><path d="M611,156.0139 L611,166.0139 L621,166.0139 L611,156.0139 " fill="#FEFFDD" style="stroke:#181818;stroke-width:0.5;"/><text fill="#000000" font-family="sans-serif" font-size="13" lengthAdjust="spacing" textLength="74" x="378" y="174.9109">Kafka Topics</text><text fill="#000000" font-family="sans-serif" font-size="13" lengthAdjust="spacing" textLength="228" x="378" y="192.6169">- Topic for Settlement Matrix Accounts</text><path d="M1165,211.4259 L1165,256.4259 L1347,256.4259 L1347,221.4259 L1337,211.4259 L1165,211.4259 " fill="#FEFFDD" style="stroke:#181818;stroke-width:0.5;"/><path d="M1337,211.4259 L1337,221.4259 L1347,221.4259 L1337,211.4259 " fill="#FEFFDD" style="stroke:#181818;stroke-width:0.5;"/><text fill="#000000" font-family="sans-serif" font-size="13" lengthAdjust="spacing" textLength="161" x="1171" y="230.323">Exposed gRPC interface for</text><text fill="#000000" font-family="sans-serif" font-size="13" lengthAdjust="spacing" textLength="126" x="1171" y="248.029">Accounts &amp; Balances.</text><path d="M1355,266.838 L1355,293.838 L1577,293.838 L1577,276.838 L1567,266.838 L1355,266.838 " fill="#FEFFDD" style="stroke:#181818;stroke-width:0.5;"/><path d="M1567,266.838 L1567,276.838 L1577,276.838 L1567,266.838 " fill="#FEFFDD" style="stroke:#181818;stroke-width:0.5;"/><text fill="#000000" font-family="sans-serif" font-size="13" lengthAdjust="spacing" textLength="201" x="1361" y="285.735">TigerBeetle may be turned off/on.</text><path d="M10,306.544 L389,306.544 L389,316.25 L379,326.25 L10,326.25 L10,306.544 " fill="#EEEEEE" style="stroke:#000000;stroke-width:1.5;"/><rect fill="none" height="100.8241" style="stroke:#000000;stroke-width:1.5;" width="745" x="10" y="306.544"/><text fill="#000000" font-family="sans-serif" font-size="13" font-weight="bold" lengthAdjust="spacing" textLength="334" x="25" y="321.441">1. Settle Settlement Batches via Matrix - Admin API</text><polygon fill="#181818" points="386,363.662,396,367.662,386,371.662,390,367.662" style="stroke:#181818;stroke-width:1.0;"/><line style="stroke:#181818;stroke-width:1.0;" x1="62" x2="392" y1="367.662" y2="367.662"/><text fill="#000000" font-family="sans-serif" font-size="13" font-weight="bold" lengthAdjust="spacing" textLength="7" x="69" y="353">1</text><text fill="#000000" font-family="sans-serif" font-size="13" lengthAdjust="spacing" textLength="49" x="80" y="344.147">Perofrm</text><text fill="#000000" font-family="sans-serif" font-size="13" font-style="italic" lengthAdjust="spacing" textLength="41" x="132" y="344.147">SETTLE</text><text fill="#000000" font-family="sans-serif" font-size="13" lengthAdjust="spacing" textLength="80" x="176" y="344.147">command on</text><text fill="#000000" font-family="sans-serif" font-size="13" font-weight="bold" lengthAdjust="spacing" textLength="122" x="259" y="344.147">Settlement Matrix</text><text fill="#000000" font-family="sans-serif" font-size="13" lengthAdjust="spacing" textLength="124" x="80" y="361.853">(settlementMatrixId)</text><polygon fill="#181818" points="675,395.3681,685,399.3681,675,403.3681,679,399.3681" style="stroke:#181818;stroke-width:1.0;"/><line style="stroke:#181818;stroke-width:1.0;stroke-dasharray:2.0,2.0;" x1="398" x2="681" y1="399.3681" y2="399.3681"/><text fill="#000000" font-family="sans-serif" font-size="13" font-weight="bold" lengthAdjust="spacing" textLength="7" x="405" y="393.5591">2</text><text fill="#000000" font-family="sans-serif" font-size="13" lengthAdjust="spacing" textLength="123" x="416" y="393.5591">Invoke the App layer</text><path d="M10,421.3681 L499,421.3681 L499,431.0741 L489,441.0741 L10,441.0741 L10,421.3681 " fill="#EEEEEE" style="stroke:#000000;stroke-width:1.5;"/><rect fill="none" height="447.5902" style="stroke:#000000;stroke-width:1.5;" width="1509.5" x="10" y="421.3681"/><text fill="#000000" font-family="sans-serif" font-size="13" font-weight="bold" lengthAdjust="spacing" textLength="67" x="25" y="436.2651">2. Execute</text><text fill="#000000" font-family="sans-serif" font-size="13" font-style="italic" font-weight="bold" lengthAdjust="spacing" textLength="77" x="95" y="436.2651">SETTLEMENT</text><text fill="#000000" font-family="sans-serif" font-size="13" font-weight="bold" lengthAdjust="spacing" textLength="294" x="175" y="436.2651">command on a Settlement Matrix - App Logic</text><polygon fill="#181818" points="698,478.4861,688,482.4861,698,486.4861,694,482.4861" style="stroke:#181818;stroke-width:1.0;"/><polygon fill="#181818" points="1122,478.4861,1132,482.4861,1122,486.4861,1126,482.4861" style="stroke:#181818;stroke-width:1.0;"/><line style="stroke:#181818;stroke-width:1.0;stroke-dasharray:2.0,2.0;" x1="692" x2="1128" y1="482.4861" y2="482.4861"/><text fill="#000000" font-family="sans-serif" font-size="13" font-weight="bold" lengthAdjust="spacing" textLength="7" x="704" y="467.8241">3</text><text fill="#000000" font-family="sans-serif" font-size="13" lengthAdjust="spacing" textLength="95" x="715" y="458.9711">Close and Settle</text><text fill="#000000" font-family="sans-serif" font-size="13" font-style="italic" lengthAdjust="spacing" textLength="89" x="813" y="458.9711">OPEN / CLOSED</text><text fill="#000000" font-family="sans-serif" font-size="13" lengthAdjust="spacing" textLength="219" x="905" y="458.9711">settlement batches which forms part</text><text fill="#000000" font-family="sans-serif" font-size="13" lengthAdjust="spacing" textLength="145" x="715" y="476.6771">of the settlement matrix</text><polygon fill="#181818" points="698,510.1921,688,514.1921,698,518.1921,694,514.1921" style="stroke:#181818;stroke-width:1.0;"/><polygon fill="#181818" points="1244.5,510.1921,1254.5,514.1921,1244.5,518.1921,1248.5,514.1921" style="stroke:#181818;stroke-width:1.0;"/><line style="stroke:#181818;stroke-width:1.0;" x1="692" x2="1250.5" y1="514.1921" y2="514.1921"/><text fill="#000000" font-family="sans-serif" font-size="13" font-weight="bold" lengthAdjust="spacing" textLength="7" x="704" y="508.3831">4</text><text fill="#000000" font-family="sans-serif" font-size="13" lengthAdjust="spacing" textLength="117" x="715" y="508.3831">Obtain Debit/Credit</text><text fill="#000000" font-family="sans-serif" font-size="13" font-weight="bold" lengthAdjust="spacing" textLength="139" x="835" y="508.3831">Settlement Accounts</text><text fill="#000000" font-family="sans-serif" font-size="13" lengthAdjust="spacing" textLength="105" x="977" y="508.3831">based on batches</text><polygon fill="#181818" points="1267.5,541.8981,1257.5,545.8981,1267.5,549.8981,1263.5,545.8981" style="stroke:#181818;stroke-width:1.0;"/><polygon fill="#181818" points="1454.5,541.8981,1464.5,545.8981,1454.5,549.8981,1458.5,545.8981" style="stroke:#181818;stroke-width:1.0;"/><line style="stroke:#181818;stroke-width:1.0;" x1="1261.5" x2="1460.5" y1="545.8981" y2="545.8981"/><text fill="#000000" font-family="sans-serif" font-size="13" font-weight="bold" lengthAdjust="spacing" textLength="7" x="1273.5" y="540.0891">5</text><text fill="#000000" font-family="sans-serif" font-size="13" lengthAdjust="spacing" textLength="33" x="1284.5" y="540.0891">Fetch</text><text fill="#000000" font-family="sans-serif" font-size="13" font-weight="bold" lengthAdjust="spacing" textLength="139" x="1320.5" y="540.0891">Settlement Accounts</text><polygon fill="#181818" points="698,573.6042,688,577.6042,698,581.6042,694,577.6042" style="stroke:#181818;stroke-width:1.0;"/><polygon fill="#181818" points="1244.5,573.6042,1254.5,577.6042,1244.5,581.6042,1248.5,577.6042" style="stroke:#181818;stroke-width:1.0;"/><line style="stroke:#181818;stroke-width:1.0;" x1="692" x2="1250.5" y1="577.6042" y2="577.6042"/><text fill="#000000" font-family="sans-serif" font-size="13" font-weight="bold" lengthAdjust="spacing" textLength="7" x="704" y="571.7952">6</text><text fill="#000000" font-family="sans-serif" font-size="13" lengthAdjust="spacing" textLength="41" x="715" y="571.7952">Return</text><text fill="#000000" font-family="sans-serif" font-size="13" font-weight="bold" lengthAdjust="spacing" textLength="139" x="759" y="571.7952">Settlement Accounts</text><text fill="#000000" font-family="sans-serif" font-size="13" lengthAdjust="spacing" textLength="105" x="901" y="571.7952">based on batches</text><line style="stroke:#181818;stroke-width:1.0;stroke-dasharray:2.0,2.0;" x1="687" x2="729" y1="609.3102" y2="609.3102"/><line style="stroke:#181818;stroke-width:1.0;stroke-dasharray:2.0,2.0;" x1="729" x2="729" y1="609.3102" y2="622.3102"/><line style="stroke:#181818;stroke-width:1.0;stroke-dasharray:2.0,2.0;" x1="688" x2="729" y1="622.3102" y2="622.3102"/><polygon fill="#181818" points="697,605.3102,687,609.3102,697,613.3102,693,609.3102" style="stroke:#181818;stroke-width:1.0;"/><polygon fill="#181818" points="698,618.3102,688,622.3102,698,626.3102,694,622.3102" style="stroke:#181818;stroke-width:1.0;"/><text fill="#000000" font-family="sans-serif" font-size="13" font-weight="bold" lengthAdjust="spacing" textLength="7" x="694" y="603.5012">7</text><text fill="#000000" font-family="sans-serif" font-size="13" lengthAdjust="spacing" textLength="181" x="705" y="603.5012">Prepare the Settlement Matrix</text><polygon fill="#181818" points="409,650.0162,399,654.0162,409,658.0162,405,654.0162" style="stroke:#181818;stroke-width:1.0;"/><line style="stroke:#181818;stroke-width:1.0;" x1="403" x2="686" y1="654.0162" y2="654.0162"/><text fill="#000000" font-family="sans-serif" font-size="13" font-weight="bold" lengthAdjust="spacing" textLength="7" x="415" y="648.2072">8</text><text fill="#000000" font-family="sans-serif" font-size="13" lengthAdjust="spacing" textLength="152" x="426" y="648.2072">Return Settlement Matrix</text><polygon fill="#181818" points="73,699.4282,63,703.4282,73,707.4282,69,703.4282" style="stroke:#181818;stroke-width:1.0;"/><line style="stroke:#181818;stroke-width:1.0;" x1="67" x2="397" y1="703.4282" y2="703.4282"/><text fill="#000000" font-family="sans-serif" font-size="13" font-weight="bold" lengthAdjust="spacing" textLength="7" x="79" y="688.7662">9</text><text fill="#000000" font-family="sans-serif" font-size="13" lengthAdjust="spacing" textLength="206" x="90" y="679.9132">Return Settlement Matrix for caller</text><text fill="#000000" font-family="sans-serif" font-size="13" font-style="italic" font-weight="bold" lengthAdjust="spacing" textLength="112" x="90" y="697.6192">ISettlementMatrix</text><rect fill="#EEEEEE" height="3" style="stroke:#EEEEEE;stroke-width:1.0;" width="1582" x="0" y="733.2812"/><line style="stroke:#000000;stroke-width:1.0;" x1="0" x2="1582" y1="733.2812" y2="733.2812"/><line style="stroke:#000000;stroke-width:1.0;" x1="0" x2="1582" y1="736.2812" y2="736.2812"/><rect fill="#EEEEEE" height="25.706" style="stroke:#000000;stroke-width:2.0;" width="398" x="592" y="721.4282"/><text fill="#000000" font-family="sans-serif" font-size="13" font-weight="bold" lengthAdjust="spacing" textLength="381" x="598" y="739.3252">Publish Settlement Matrix Result for Liquidity Restoration</text><line style="stroke:#181818;stroke-width:1.0;stroke-dasharray:2.0,2.0;" x1="687" x2="729" y1="780.8403" y2="780.8403"/><line style="stroke:#181818;stroke-width:1.0;stroke-dasharray:2.0,2.0;" x1="729" x2="729" y1="780.8403" y2="793.8403"/><line style="stroke:#181818;stroke-width:1.0;stroke-dasharray:2.0,2.0;" x1="688" x2="729" y1="793.8403" y2="793.8403"/><polygon fill="#181818" points="698,789.8403,688,793.8403,698,797.8403,694,793.8403" style="stroke:#181818;stroke-width:1.0;"/><text fill="#000000" font-family="sans-serif" font-size="13" font-weight="bold" lengthAdjust="spacing" textLength="7" x="694" y="775.0313">1</text><text fill="#000000" font-family="sans-serif" font-size="13" lengthAdjust="spacing" textLength="386" x="705" y="775.0313">Create events for each Settlement Batch Account Balance update</text><polygon fill="#181818" points="508,856.9583,498,860.9583,508,864.9583,504,860.9583" style="stroke:#181818;stroke-width:1.0;"/><line style="stroke:#181818;stroke-width:1.0;" x1="502" x2="686" y1="860.9583" y2="860.9583"/><text fill="#000000" font-family="sans-serif" font-size="13" font-weight="bold" lengthAdjust="spacing" textLength="7" x="514" y="837.4433">2</text><text fill="#000000" font-family="sans-serif" font-size="13" lengthAdjust="spacing" textLength="132" x="525" y="819.7373">Publish event for each</text><text fill="#000000" font-family="sans-serif" font-size="13" lengthAdjust="spacing" textLength="155" x="525" y="837.4433">Settlement Batch Account</text><text fill="#000000" font-family="sans-serif" font-size="13" lengthAdjust="spacing" textLength="92" x="525" y="855.1493">Balance update</text><!--SRC=[bLNHRjiu47ptLomQeBWQS9GMpQ4nBW5iMKQ3keqH6_Ta8A2ejKrO8dKKbIRtzRUa95gsv8VJY-7LSdPcEAIAWv0vqoo3jJ0fpfKqA_4lmfURGT5z5QfKQRYQkwVLO6p3LEa4zRCgPH8gBL73vvl-dlLUy8F4ee0_-nlgEJStjzExRWlZXvsknhJRt4jOeJd-P2WD_6H6YxV1W22Cu29dLFimIJ8XOR9y_02i07mpBpmT36BrrbfPm3GaiNUazMu0z9mWF6DXF40HynTj2rUps-ZRx6ktFNgrNBupcQIe_HfqrVOYgGo2UYNt_7jNjyyFjZqmMAjSyC8NHrK1jcH5HpLCE2UdJDMECd7uNNQdeZToakUmK3l1FLEMvo-fhS1LD0jllyuSIC8CYrc19mYZMLtrYvEOD4wYR_DmO3cGpPNN3JiWMs3AKYOvrgxF-rsVV9p2wk_G8REOe7SwvoS67YbHxsY1oQxssxKRGNzZH9kHXjAfxHxLEnozvQh017RFon24DAYtZACrtBTu8H-zZEkkvMT3MbmyqDhMfXM_ZBr3Z61AEam9gEqsKF8CrRjf3qGEdwzxyZzbXk_9rbV1cbICmET_m4gZP9d5MAcfZWAC7ewP7iCIjThg389W5QtNYoW8WAiiixkc90o7dTmDXnlvH-6hLV4n-UH6UE1HFUMOhJ4yobTr8D5x11l2bBqJCPBPIFnoJVk1l2Gd6pO_er_hKqQivoICm8VQipWE_glXGb4TGvZIXhjGrdO6mTCo-WK1X8kdLJIZQKTn4DS6_wPhRMzZaHKkjB2HQkkKj9gpwZRgO_3GIlGOdcB3Q8jc60iJX1eJOKwTRZ8t78BDknDUKt7mHp0FtKhS6EP8lPSWUn3ET-ePRJB_7wSBfhTXbnh9l2e1tLky2tAQr9hKvOLLy1wQd5zUuIvKpbAwhZToE0o2nzLPdeE0V3exFlVti2pZL1Jx7aJwP9IfSS0ByKyfQ4lVRT4epOmWg-xl-mJsc4HvO7G2tEUXS838-BvpwflzQ2ubA7Ew7l6oYzNtQEmrLFyR_8syD60ZpoRO4_iV]--></g></svg>