<?xml version="1.0" encoding="us-ascii" standalone="no"?><svg xmlns="http://www.w3.org/2000/svg" xmlns:xlink="http://www.w3.org/1999/xlink" contentStyleType="text/css" height="958px" preserveAspectRatio="none" style="width:1589px;height:958px;background:#FFFFFF;" version="1.1" viewBox="0 0 1589 958" width="1589px" zoomAndPan="magnify"><defs/><g><text fill="#000000" font-family="sans-serif" font-size="14" font-weight="bold" lengthAdjust="spacing" textLength="170" x="705.5" y="29.9659">Settle Settlement Matrix</text><rect fill="#F9FFF9" height="899.7862" style="stroke:#181818;stroke-width:0.5;" width="855.5" x="359.5" y="46.0679"/><text fill="#000000" font-family="sans-serif" font-size="13" font-weight="bold" lengthAdjust="spacing" textLength="101" x="735.25" y="59.9649">Settlements BC</text><rect fill="#FFFFF9" height="899.7862" style="stroke:#181818;stroke-width:0.5;" width="296.5" x="1217" y="46.0679"/><text fill="#000000" font-family="sans-serif" font-size="13" font-weight="bold" lengthAdjust="spacing" textLength="171" x="1278.25" y="59.9649">Accounts and Balances BC</text><rect fill="none" height="100.8241" style="stroke:#000000;stroke-width:1.5;" width="745" x="10" y="298.3719"/><rect fill="none" height="447.5902" style="stroke:#000000;stroke-width:1.5;" width="1509.5" x="10" y="413.196"/><line style="stroke:#181818;stroke-width:0.5;stroke-dasharray:5.0,5.0;" x1="62" x2="62" y1="132.8419" y2="877.7862"/><line style="stroke:#181818;stroke-width:0.5;stroke-dasharray:5.0,5.0;" x1="397.5" x2="397.5" y1="132.8419" y2="877.7862"/><line style="stroke:#181818;stroke-width:0.5;stroke-dasharray:5.0,5.0;" x1="496.5" x2="496.5" y1="132.8419" y2="877.7862"/><line style="stroke:#181818;stroke-width:0.5;stroke-dasharray:5.0,5.0;" x1="687" x2="687" y1="132.8419" y2="877.7862"/><line style="stroke:#181818;stroke-width:0.5;stroke-dasharray:5.0,5.0;" x1="1134" x2="1134" y1="132.8419" y2="877.7862"/><line style="stroke:#181818;stroke-width:0.5;stroke-dasharray:5.0,5.0;" x1="1256" x2="1256" y1="132.8419" y2="877.7862"/><line style="stroke:#181818;stroke-width:0.5;stroke-dasharray:5.0,5.0;" x1="1466.5" x2="1466.5" y1="132.8419" y2="877.7862"/><rect fill="#E2E2F0" height="33.0679" rx="2.5" ry="2.5" style="stroke:#181818;stroke-width:0.5;" width="84" x="20" y="98.7739"/><text fill="#000000" font-family="sans-serif" font-size="14" lengthAdjust="spacing" textLength="70" x="27" y="120.7399">Admin API</text><rect fill="#E2E2F0" height="33.0679" rx="2.5" ry="2.5" style="stroke:#181818;stroke-width:0.5;" width="84" x="20" y="876.7862"/><text fill="#000000" font-family="sans-serif" font-size="14" lengthAdjust="spacing" textLength="70" x="27" y="898.7522">Admin API</text><rect fill="#D5E8D4" height="33.0679" rx="2.5" ry="2.5" style="stroke:#181818;stroke-width:0.5;" width="69" x="363.5" y="98.7739"/><text fill="#000000" font-family="sans-serif" font-size="14" lengthAdjust="spacing" textLength="55" x="370.5" y="120.7399">Rest API</text><rect fill="#D5E8D4" height="33.0679" rx="2.5" ry="2.5" style="stroke:#181818;stroke-width:0.5;" width="69" x="363.5" y="876.7862"/><text fill="#000000" font-family="sans-serif" font-size="14" lengthAdjust="spacing" textLength="55" x="370.5" y="898.7522">Rest API</text><rect fill="#D5E8D4" height="33.0679" rx="2.5" ry="2.5" style="stroke:#181818;stroke-width:0.5;" width="109" x="442.5" y="98.7739"/><text fill="#000000" font-family="sans-serif" font-size="14" lengthAdjust="spacing" textLength="95" x="449.5" y="120.7399">Event Handler</text><rect fill="#D5E8D4" height="33.0679" rx="2.5" ry="2.5" style="stroke:#181818;stroke-width:0.5;" width="109" x="442.5" y="876.7862"/><text fill="#000000" font-family="sans-serif" font-size="14" lengthAdjust="spacing" textLength="95" x="449.5" y="898.7522">Event Handler</text><rect fill="#EDC54D" height="52.1358" rx="2.5" ry="2.5" style="stroke:#181818;stroke-width:0.5;" width="116" x="629" y="79.706"/><text fill="#000000" font-family="sans-serif" font-size="14" lengthAdjust="spacing" textLength="102" x="636" y="101.672">Settlements BC</text><text fill="#000000" font-family="sans-serif" font-size="14" lengthAdjust="spacing" textLength="66" x="654" y="120.7399">App Logic</text><rect fill="#EDC54D" height="52.1358" rx="2.5" ry="2.5" style="stroke:#181818;stroke-width:0.5;" width="116" x="629" y="876.7862"/><text fill="#000000" font-family="sans-serif" font-size="14" lengthAdjust="spacing" textLength="102" x="636" y="898.7522">Settlements BC</text><text fill="#000000" font-family="sans-serif" font-size="14" lengthAdjust="spacing" textLength="66" x="654" y="917.8201">App Logic</text><text fill="#000000" font-family="sans-serif" font-size="14" lengthAdjust="spacing" textLength="148" x="1057" y="128.7399">Settlements-Database</text><path d="M1116,77.7739 C1116,67.7739 1134,67.7739 1134,67.7739 C1134,67.7739 1152,67.7739 1152,77.7739 L1152,103.7739 C1152,113.7739 1134,113.7739 1134,113.7739 C1134,113.7739 1116,113.7739 1116,103.7739 L1116,77.7739 " fill="#DAE8FC" style="stroke:#181818;stroke-width:1.5;"/><path d="M1116,77.7739 C1116,87.7739 1134,87.7739 1134,87.7739 C1134,87.7739 1152,87.7739 1152,77.7739 " fill="none" style="stroke:#181818;stroke-width:1.5;"/><text fill="#000000" font-family="sans-serif" font-size="14" lengthAdjust="spacing" textLength="148" x="1057" y="891.7522">Settlements-Database</text><path d="M1116,905.8542 C1116,895.8542 1134,895.8542 1134,895.8542 C1134,895.8542 1152,895.8542 1152,905.8542 L1152,931.8542 C1152,941.8542 1134,941.8542 1134,941.8542 C1134,941.8542 1116,941.8542 1116,931.8542 L1116,905.8542 " fill="#DAE8FC" style="stroke:#181818;stroke-width:1.5;"/><path d="M1116,905.8542 C1116,915.8542 1134,915.8542 1134,915.8542 C1134,915.8542 1152,915.8542 1152,905.8542 " fill="none" style="stroke:#181818;stroke-width:1.5;"/><rect fill="#D5E8D4" height="33.0679" rx="2.5" ry="2.5" style="stroke:#181818;stroke-width:0.5;" width="71" x="1221" y="98.7739"/><text fill="#000000" font-family="sans-serif" font-size="14" lengthAdjust="spacing" textLength="57" x="1228" y="120.7399">A&amp;B SVC</text><rect fill="#D5E8D4" height="33.0679" rx="2.5" ry="2.5" style="stroke:#181818;stroke-width:0.5;" width="71" x="1221" y="876.7862"/><text fill="#000000" font-family="sans-serif" font-size="14" lengthAdjust="spacing" textLength="57" x="1228" y="898.7522">A&amp;B SVC</text><text fill="#000000" font-family="sans-serif" font-size="14" lengthAdjust="spacing" textLength="80" x="1423.5" y="128.7399">A&amp;B-Ledger</text><path d="M1448.5,77.7739 C1448.5,67.7739 1466.5,67.7739 1466.5,67.7739 C1466.5,67.7739 1484.5,67.7739 1484.5,77.7739 L1484.5,103.7739 C1484.5,113.7739 1466.5,113.7739 1466.5,113.7739 C1466.5,113.7739 1448.5,113.7739 1448.5,103.7739 L1448.5,77.7739 " fill="#DAE8FC" style="stroke:#181818;stroke-width:1.5;"/><path d="M1448.5,77.7739 C1448.5,87.7739 1466.5,87.7739 1466.5,87.7739 C1466.5,87.7739 1484.5,87.7739 1484.5,77.7739 " fill="none" style="stroke:#181818;stroke-width:1.5;"/><text fill="#000000" font-family="sans-serif" font-size="14" lengthAdjust="spacing" textLength="80" x="1423.5" y="891.7522">A&amp;B-Ledger</text><path d="M1448.5,905.8542 C1448.5,895.8542 1466.5,895.8542 1466.5,895.8542 C1466.5,895.8542 1484.5,895.8542 1484.5,905.8542 L1484.5,931.8542 C1484.5,941.8542 1466.5,941.8542 1466.5,941.8542 C1466.5,941.8542 1448.5,941.8542 1448.5,931.8542 L1448.5,905.8542 " fill="#DAE8FC" style="stroke:#181818;stroke-width:1.5;"/><path d="M1448.5,905.8542 C1448.5,915.8542 1466.5,915.8542 1466.5,915.8542 C1466.5,915.8542 1484.5,915.8542 1484.5,905.8542 " fill="none" style="stroke:#181818;stroke-width:1.5;"/><path d="M372,147.8419 L372,192.8419 L621,192.8419 L621,157.8419 L611,147.8419 L372,147.8419 " fill="#FEFFDD" style="stroke:#181818;stroke-width:0.5;"/><path d="M611,147.8419 L611,157.8419 L621,157.8419 L611,147.8419 " fill="#FEFFDD" style="stroke:#181818;stroke-width:0.5;"/><text fill="#000000" font-family="sans-serif" font-size="13" lengthAdjust="spacing" textLength="74" x="378" y="166.7389">Kafka Topics</text><text fill="#000000" font-family="sans-serif" font-size="13" lengthAdjust="spacing" textLength="228" x="378" y="184.4449">- Topic for Settlement Matrix Accounts</text><path d="M1165,203.2539 L1165,248.2539 L1347,248.2539 L1347,213.2539 L1337,203.2539 L1165,203.2539 " fill="#FEFFDD" style="stroke:#181818;stroke-width:0.5;"/><path d="M1337,203.2539 L1337,213.2539 L1347,213.2539 L1337,203.2539 " fill="#FEFFDD" style="stroke:#181818;stroke-width:0.5;"/><text fill="#000000" font-family="sans-serif" font-size="13" lengthAdjust="spacing" textLength="161" x="1171" y="222.1509">Exposed gRPC interface for</text><text fill="#000000" font-family="sans-serif" font-size="13" lengthAdjust="spacing" textLength="126" x="1171" y="239.8569">Accounts &amp; Balances.</text><path d="M1355,258.6659 L1355,285.6659 L1577,285.6659 L1577,268.6659 L1567,258.6659 L1355,258.6659 " fill="#FEFFDD" style="stroke:#181818;stroke-width:0.5;"/><path d="M1567,258.6659 L1567,268.6659 L1577,268.6659 L1567,258.6659 " fill="#FEFFDD" style="stroke:#181818;stroke-width:0.5;"/><text fill="#000000" font-family="sans-serif" font-size="13" lengthAdjust="spacing" textLength="201" x="1361" y="277.5629">TigerBeetle may be turned off/on.</text><path d="M10,298.3719 L389,298.3719 L389,308.0779 L379,318.0779 L10,318.0779 L10,298.3719 " fill="#EEEEEE" style="stroke:#000000;stroke-width:1.5;"/><rect fill="none" height="100.8241" style="stroke:#000000;stroke-width:1.5;" width="745" x="10" y="298.3719"/><text fill="#000000" font-family="sans-serif" font-size="13" font-weight="bold" lengthAdjust="spacing" textLength="334" x="25" y="313.2689">1. Settle Settlement Batches via Matrix - Admin API</text><polygon fill="#181818" points="386,355.49,396,359.49,386,363.49,390,359.49" style="stroke:#181818;stroke-width:1.0;"/><line style="stroke:#181818;stroke-width:1.0;" x1="62" x2="392" y1="359.49" y2="359.49"/><text fill="#000000" font-family="sans-serif" font-size="13" font-weight="bold" lengthAdjust="spacing" textLength="7" x="69" y="344.828">1</text><text fill="#000000" font-family="sans-serif" font-size="13" lengthAdjust="spacing" textLength="49" x="80" y="335.975">Perofrm</text><text fill="#000000" font-family="sans-serif" font-size="13" font-style="italic" lengthAdjust="spacing" textLength="41" x="132" y="335.975">SETTLE</text><text fill="#000000" font-family="sans-serif" font-size="13" lengthAdjust="spacing" textLength="80" x="176" y="335.975">command on</text><text fill="#000000" font-family="sans-serif" font-size="13" font-weight="bold" lengthAdjust="spacing" textLength="122" x="259" y="335.975">Settlement Matrix</text><text fill="#000000" font-family="sans-serif" font-size="13" lengthAdjust="spacing" textLength="124" x="80" y="353.681">(settlementMatrixId)</text><polygon fill="#181818" points="675,387.196,685,391.196,675,395.196,679,391.196" style="stroke:#181818;stroke-width:1.0;"/><line style="stroke:#181818;stroke-width:1.0;stroke-dasharray:2.0,2.0;" x1="398" x2="681" y1="391.196" y2="391.196"/><text fill="#000000" font-family="sans-serif" font-size="13" font-weight="bold" lengthAdjust="spacing" textLength="7" x="405" y="385.387">2</text><text fill="#000000" font-family="sans-serif" font-size="13" lengthAdjust="spacing" textLength="123" x="416" y="385.387">Invoke the App layer</text><path d="M10,413.196 L499,413.196 L499,422.902 L489,432.902 L10,432.902 L10,413.196 " fill="#EEEEEE" style="stroke:#000000;stroke-width:1.5;"/><rect fill="none" height="447.5902" style="stroke:#000000;stroke-width:1.5;" width="1509.5" x="10" y="413.196"/><text fill="#000000" font-family="sans-serif" font-size="13" font-weight="bold" lengthAdjust="spacing" textLength="67" x="25" y="428.093">2. Execute</text><text fill="#000000" font-family="sans-serif" font-size="13" font-style="italic" font-weight="bold" lengthAdjust="spacing" textLength="77" x="95" y="428.093">SETTLEMENT</text><text fill="#000000" font-family="sans-serif" font-size="13" font-weight="bold" lengthAdjust="spacing" textLength="294" x="175" y="428.093">command on a Settlement Matrix - App Logic</text><polygon fill="#181818" points="698,470.314,688,474.314,698,478.314,694,474.314" style="stroke:#181818;stroke-width:1.0;"/><polygon fill="#181818" points="1122,470.314,1132,474.314,1122,478.314,1126,474.314" style="stroke:#181818;stroke-width:1.0;"/><line style="stroke:#181818;stroke-width:1.0;stroke-dasharray:2.0,2.0;" x1="692" x2="1128" y1="474.314" y2="474.314"/><text fill="#000000" font-family="sans-serif" font-size="13" font-weight="bold" lengthAdjust="spacing" textLength="7" x="704" y="459.652">3</text><text fill="#000000" font-family="sans-serif" font-size="13" lengthAdjust="spacing" textLength="95" x="715" y="450.799">Close and Settle</text><text fill="#000000" font-family="sans-serif" font-size="13" font-style="italic" lengthAdjust="spacing" textLength="89" x="813" y="450.799">OPEN / CLOSED</text><text fill="#000000" font-family="sans-serif" font-size="13" lengthAdjust="spacing" textLength="219" x="905" y="450.799">settlement batches which forms part</text><text fill="#000000" font-family="sans-serif" font-size="13" lengthAdjust="spacing" textLength="145" x="715" y="468.505">of the settlement matrix</text><polygon fill="#181818" points="698,502.0201,688,506.0201,698,510.0201,694,506.0201" style="stroke:#181818;stroke-width:1.0;"/><polygon fill="#181818" points="1244.5,502.0201,1254.5,506.0201,1244.5,510.0201,1248.5,506.0201" style="stroke:#181818;stroke-width:1.0;"/><line style="stroke:#181818;stroke-width:1.0;" x1="692" x2="1250.5" y1="506.0201" y2="506.0201"/><text fill="#000000" font-family="sans-serif" font-size="13" font-weight="bold" lengthAdjust="spacing" textLength="7" x="704" y="500.2111">4</text><text fill="#000000" font-family="sans-serif" font-size="13" lengthAdjust="spacing" textLength="117" x="715" y="500.2111">Obtain Debit/Credit</text><text fill="#000000" font-family="sans-serif" font-size="13" font-weight="bold" lengthAdjust="spacing" textLength="139" x="835" y="500.2111">Settlement Accounts</text><text fill="#000000" font-family="sans-serif" font-size="13" lengthAdjust="spacing" textLength="105" x="977" y="500.2111">based on batches</text><polygon fill="#181818" points="1267.5,533.7261,1257.5,537.7261,1267.5,541.7261,1263.5,537.7261" style="stroke:#181818;stroke-width:1.0;"/><polygon fill="#181818" points="1454.5,533.7261,1464.5,537.7261,1454.5,541.7261,1458.5,537.7261" style="stroke:#181818;stroke-width:1.0;"/><line style="stroke:#181818;stroke-width:1.0;" x1="1261.5" x2="1460.5" y1="537.7261" y2="537.7261"/><text fill="#000000" font-family="sans-serif" font-size="13" font-weight="bold" lengthAdjust="spacing" textLength="7" x="1273.5" y="531.9171">5</text><text fill="#000000" font-family="sans-serif" font-size="13" lengthAdjust="spacing" textLength="33" x="1284.5" y="531.9171">Fetch</text><text fill="#000000" font-family="sans-serif" font-size="13" font-weight="bold" lengthAdjust="spacing" textLength="139" x="1320.5" y="531.9171">Settlement Accounts</text><polygon fill="#181818" points="698,565.4321,688,569.4321,698,573.4321,694,569.4321" style="stroke:#181818;stroke-width:1.0;"/><polygon fill="#181818" points="1244.5,565.4321,1254.5,569.4321,1244.5,573.4321,1248.5,569.4321" style="stroke:#181818;stroke-width:1.0;"/><line style="stroke:#181818;stroke-width:1.0;" x1="692" x2="1250.5" y1="569.4321" y2="569.4321"/><text fill="#000000" font-family="sans-serif" font-size="13" font-weight="bold" lengthAdjust="spacing" textLength="7" x="704" y="563.6231">6</text><text fill="#000000" font-family="sans-serif" font-size="13" lengthAdjust="spacing" textLength="41" x="715" y="563.6231">Return</text><text fill="#000000" font-family="sans-serif" font-size="13" font-weight="bold" lengthAdjust="spacing" textLength="139" x="759" y="563.6231">Settlement Accounts</text><text fill="#000000" font-family="sans-serif" font-size="13" lengthAdjust="spacing" textLength="105" x="901" y="563.6231">based on batches</text><line style="stroke:#181818;stroke-width:1.0;stroke-dasharray:2.0,2.0;" x1="687" x2="729" y1="601.1381" y2="601.1381"/><line style="stroke:#181818;stroke-width:1.0;stroke-dasharray:2.0,2.0;" x1="729" x2="729" y1="601.1381" y2="614.1381"/><line style="stroke:#181818;stroke-width:1.0;stroke-dasharray:2.0,2.0;" x1="688" x2="729" y1="614.1381" y2="614.1381"/><polygon fill="#181818" points="697,597.1381,687,601.1381,697,605.1381,693,601.1381" style="stroke:#181818;stroke-width:1.0;"/><polygon fill="#181818" points="698,610.1381,688,614.1381,698,618.1381,694,614.1381" style="stroke:#181818;stroke-width:1.0;"/><text fill="#000000" font-family="sans-serif" font-size="13" font-weight="bold" lengthAdjust="spacing" textLength="7" x="694" y="595.3291">7</text><text fill="#000000" font-family="sans-serif" font-size="13" lengthAdjust="spacing" textLength="181" x="705" y="595.3291">Prepare the Settlement Matrix</text><polygon fill="#181818" points="409,641.8441,399,645.8441,409,649.8441,405,645.8441" style="stroke:#181818;stroke-width:1.0;"/><line style="stroke:#181818;stroke-width:1.0;" x1="403" x2="686" y1="645.8441" y2="645.8441"/><text fill="#000000" font-family="sans-serif" font-size="13" font-weight="bold" lengthAdjust="spacing" textLength="7" x="415" y="640.0351">8</text><text fill="#000000" font-family="sans-serif" font-size="13" lengthAdjust="spacing" textLength="152" x="426" y="640.0351">Return Settlement Matrix</text><polygon fill="#181818" points="73,691.2562,63,695.2562,73,699.2562,69,695.2562" style="stroke:#181818;stroke-width:1.0;"/><line style="stroke:#181818;stroke-width:1.0;" x1="67" x2="397" y1="695.2562" y2="695.2562"/><text fill="#000000" font-family="sans-serif" font-size="13" font-weight="bold" lengthAdjust="spacing" textLength="7" x="79" y="680.5942">9</text><text fill="#000000" font-family="sans-serif" font-size="13" lengthAdjust="spacing" textLength="206" x="90" y="671.7411">Return Settlement Matrix for caller</text><text fill="#000000" font-family="sans-serif" font-size="13" font-style="italic" font-weight="bold" lengthAdjust="spacing" textLength="112" x="90" y="689.4472">ISettlementMatrix</text><rect fill="#EEEEEE" height="3" style="stroke:#EEEEEE;stroke-width:1.0;" width="1582" x="0" y="725.1092"/><line style="stroke:#000000;stroke-width:1.0;" x1="0" x2="1582" y1="725.1092" y2="725.1092"/><line style="stroke:#000000;stroke-width:1.0;" x1="0" x2="1582" y1="728.1092" y2="728.1092"/><rect fill="#EEEEEE" height="25.706" style="stroke:#000000;stroke-width:2.0;" width="398" x="592" y="713.2562"/><text fill="#000000" font-family="sans-serif" font-size="13" font-weight="bold" lengthAdjust="spacing" textLength="381" x="598" y="731.1532">Publish Settlement Matrix Result for Liquidity Restoration</text><line style="stroke:#181818;stroke-width:1.0;stroke-dasharray:2.0,2.0;" x1="687" x2="729" y1="772.6682" y2="772.6682"/><line style="stroke:#181818;stroke-width:1.0;stroke-dasharray:2.0,2.0;" x1="729" x2="729" y1="772.6682" y2="785.6682"/><line style="stroke:#181818;stroke-width:1.0;stroke-dasharray:2.0,2.0;" x1="688" x2="729" y1="785.6682" y2="785.6682"/><polygon fill="#181818" points="698,781.6682,688,785.6682,698,789.6682,694,785.6682" style="stroke:#181818;stroke-width:1.0;"/><text fill="#000000" font-family="sans-serif" font-size="13" font-weight="bold" lengthAdjust="spacing" textLength="7" x="694" y="766.8592">1</text><text fill="#000000" font-family="sans-serif" font-size="13" lengthAdjust="spacing" textLength="386" x="705" y="766.8592">Create events for each Settlement Batch Account Balance update</text><polygon fill="#181818" points="508,848.7862,498,852.7862,508,856.7862,504,852.7862" style="stroke:#181818;stroke-width:1.0;"/><line style="stroke:#181818;stroke-width:1.0;" x1="502" x2="686" y1="852.7862" y2="852.7862"/><text fill="#000000" font-family="sans-serif" font-size="13" font-weight="bold" lengthAdjust="spacing" textLength="7" x="514" y="829.2712">2</text><text fill="#000000" font-family="sans-serif" font-size="13" lengthAdjust="spacing" textLength="132" x="525" y="811.5652">Publish event for each</text><text fill="#000000" font-family="sans-serif" font-size="13" lengthAdjust="spacing" textLength="155" x="525" y="829.2712">Settlement Batch Account</text><text fill="#000000" font-family="sans-serif" font-size="13" lengthAdjust="spacing" textLength="92" x="525" y="846.9772">Balance update</text><!--SRC=[bLNHRfim57tFLrorKhKXKRIfbTfegPGGeaLBswY9zXIfCkOciGesCoPB_tx6W0c1F8oNY1lxt7FEFJQAgHXXXQhvIP0hU2PAikDWa1Af66KfqRMhSPGm3kFb_0f81dXKxpGU349nFDcPmSI7wzdZR3Px781-MWXlc2aBa8NqNHQ5w-bzy32zwouF3WMNduH7CKgx1qtrT1CN2a4SK3R_cthn_2BR3m9haJAQsQ9R5c0hP5SrZ2aLkPPYbYEF37wNNLlqXe_J51PYnwXbIjBqFIugS1rC_VkxgG69Y28XoR25u4whgjqSXLhZE7YO-OE2WxQvzBfc1zeMc92OS8gLwxD-rySt4rZzzWqo2JNqJgQqPM13IQzr5nZjAh_DSiNqQuXOPAIcrBRTebg7WsCgCenWzxRqWN65Saie5eRR9LR8ZPLnsxNyhCa95mkqBcgJabz2FY54KBdakhlORZt1pr2jcpifyXI-tVRaVq8KtMjR3upKgN31vdz0SYLudeHOgYcF0hXFJQQ7i4GfjZ81pri5w_KYy3oW8acAgGaEZjF9dUDi-9VCLilYFFfgMbXWj-hIP6i8StuG7rhq7g48OKm-DJ4jivRu_LRF0sckdQpPF0SlwpOZqdCINB2XjYoQnZzgBZggG_1ZFN0JoifEptjT1Y_WWRzuNGLJtQqH1s5byDyze_iY5abcGWiRBhP6oSdYfBoD-XWydIHw2A-X8df4KmoPydo94LDjf-lCEGuKUJV2Aoe6lW6pq2U96y8CzTfBa3q8vvDwmoAP_yVfWkcdi4k9shmo0TrRl0lIJcf5wlB6CdXFTSulxp0NAYMnlgutt74yRxuwoxFdQP_EZize1CiyZ5csxq7KdumyLWPumVxaJ8_qioWg8ObYsghHg4zWZqaw3qIV0FDvo0mW4hhldFfw7lMb17cghqUyx6BvFHfQ3ULxZR_Xbnfi-5c7uiJ-0m00]--></g></svg>