<?xml version="1.0" encoding="us-ascii" standalone="no"?><svg xmlns="http://www.w3.org/2000/svg" xmlns:xlink="http://www.w3.org/1999/xlink" contentStyleType="text/css" height="391px" preserveAspectRatio="none" style="width:1847px;height:391px;background:#FFFFFF;" version="1.1" viewBox="0 0 1847 391" width="1847px" zoomAndPan="magnify"><defs/><g><!--cluster ReceivingTransfers--><g id="cluster_ReceivingTransfers"><path d="M19.5,7 L292.5,7 A12.5,12.5 0 0 1 305,19.5 L305,31.0679 L7,31.0679 L7,19.5 A12.5,12.5 0 0 1 19.5,7 " fill="#F1F1F1" style="stroke:#F1F1F1;stroke-width:1.0;"/><rect fill="none" height="284.5" rx="12.5" ry="12.5" style="stroke:#181818;stroke-width:0.5;" width="298" x="7" y="7"/><line style="stroke:#181818;stroke-width:0.5;" x1="7" x2="305" y1="31.0679" y2="31.0679"/><text fill="#000000" font-family="sans-serif" font-size="14" lengthAdjust="spacing" textLength="129" x="91.5" y="25.9659">ReceivingTransfers</text></g><!--cluster CreateSettlementMatrix--><g id="cluster_CreateSettlementMatrix"><path d="M462.5,160.5 L920.5,160.5 A12.5,12.5 0 0 1 933,173 L933,184.5679 L450,184.5679 L450,173 A12.5,12.5 0 0 1 462.5,160.5 " fill="#F1F1F1" style="stroke:#F1F1F1;stroke-width:1.0;"/><rect fill="none" height="131" rx="12.5" ry="12.5" style="stroke:#181818;stroke-width:0.5;" width="483" x="450" y="160.5"/><line style="stroke:#181818;stroke-width:0.5;" x1="450" x2="933" y1="184.5679" y2="184.5679"/><text fill="#000000" font-family="sans-serif" font-size="14" lengthAdjust="spacing" textLength="160" x="611.5" y="179.4659">CreateSettlementMatrix</text></g><!--cluster VerifyAndExecuteSettlementMatrix--><g id="cluster_VerifyAndExecuteSettlementMatrix"><path d="M1055.5,152 L1821.5,152 A12.5,12.5 0 0 1 1834,164.5 L1834,176.0679 L1043,176.0679 L1043,164.5 A12.5,12.5 0 0 1 1055.5,152 " fill="#F1F1F1" style="stroke:#F1F1F1;stroke-width:1.0;"/><rect fill="none" height="148" rx="12.5" ry="12.5" style="stroke:#181818;stroke-width:0.5;" width="791" x="1043" y="152"/><line style="stroke:#181818;stroke-width:0.5;" x1="1043" x2="1834" y1="176.0679" y2="176.0679"/><text fill="#000000" font-family="sans-serif" font-size="14" lengthAdjust="spacing" textLength="233" x="1322" y="170.9659">VerifyAndExecuteSettlementMatrix</text></g><ellipse cx="156" cy="77" fill="#181818" rx="10" ry="10" style="stroke:none;stroke-width:1.0;"/><g id="ReceivingTransfers.OPEN"><rect fill="#F1F1F1" height="55.412" rx="12.5" ry="12.5" style="stroke:#181818;stroke-width:0.5;" width="266" x="23" y="220.5"/><line style="stroke:#181818;stroke-width:0.5;" x1="23" x2="289" y1="249.5679" y2="249.5679"/><text fill="#000000" font-family="sans-serif" font-size="14" lengthAdjust="spacing" textLength="38" x="137" y="240.4659">OPEN</text><text fill="#000000" font-family="sans-serif" font-size="12" lengthAdjust="spacing" textLength="246" x="28" y="267.396">Batch is ready to consume/receive transfers</text></g><g id="CreateSettlementMatrix.CLOSED"><rect fill="#F1F1F1" height="55.412" rx="12.5" ry="12.5" style="stroke:#181818;stroke-width:0.5;" width="204" x="713" y="220.5"/><line style="stroke:#181818;stroke-width:0.5;" x1="713" x2="917" y1="249.5679" y2="249.5679"/><text fill="#000000" font-family="sans-serif" font-size="14" lengthAdjust="spacing" textLength="53" x="788.5" y="240.4659">CLOSED</text><text fill="#000000" font-family="sans-serif" font-size="12" lengthAdjust="spacing" textLength="184" x="718" y="267.396">Not receiving any more transfers</text></g><g id="CreateSettlementMatrix.DISPUTED"><rect fill="#F1F1F1" height="55.412" rx="12.5" ry="12.5" style="stroke:#181818;stroke-width:0.5;" width="115" x="466.5" y="220.5"/><line style="stroke:#181818;stroke-width:0.5;" x1="466.5" x2="581.5" y1="249.5679" y2="249.5679"/><text fill="#000000" font-family="sans-serif" font-size="14" lengthAdjust="spacing" textLength="67" x="490.5" y="240.4659">DISPUTED</text><text fill="#000000" font-family="sans-serif" font-size="12" lengthAdjust="spacing" textLength="95" x="471.5" y="267.396">Not able to settle</text></g><g id="VerifyAndExecuteSettlementMatrix.SETTLED"><rect fill="#F1F1F1" height="71.7561" rx="12.5" ry="12.5" style="stroke:#181818;stroke-width:0.5;" width="280" x="1538" y="212"/><line style="stroke:#181818;stroke-width:0.5;" x1="1538" x2="1818" y1="241.0679" y2="241.0679"/><text fill="#000000" font-family="sans-serif" font-size="14" lengthAdjust="spacing" textLength="57" x="1649.5" y="231.9659">SETTLED</text><text fill="#000000" font-family="sans-serif" font-size="12" lengthAdjust="spacing" textLength="54" x="1543" y="258.896">Final Step</text><text fill="#000000" font-family="sans-serif" font-size="12" lengthAdjust="spacing" textLength="260" x="1543" y="275.2401">Settlement matrix with D/C balances published</text></g><g id="VerifyAndExecuteSettlementMatrix.AWAITING_SETTLEMENT"><rect fill="#F1F1F1" height="55.412" rx="12.5" ry="12.5" style="stroke:#181818;stroke-width:0.5;" width="444" x="1059" y="220.5"/><line style="stroke:#181818;stroke-width:0.5;" x1="1059" x2="1503" y1="249.5679" y2="249.5679"/><text fill="#000000" font-family="sans-serif" font-size="14" lengthAdjust="spacing" textLength="163" x="1199.5" y="240.4659">AWAITING_SETTLEMENT</text><text fill="#000000" font-family="sans-serif" font-size="12" lengthAdjust="spacing" textLength="369" x="1064" y="267.396">Only owner matrix may release batch from awaiting settlement (to</text><text fill="#000000" font-family="sans-serif" font-size="12" font-weight="bold" lengthAdjust="spacing" textLength="48" x="1436" y="267.396">CLOSED</text><text fill="#000000" font-family="sans-serif" font-size="12" lengthAdjust="spacing" textLength="4" x="1484" y="267.396">)</text></g><ellipse cx="1678" cy="375" fill="none" rx="10" ry="10" style="stroke:#181818;stroke-width:1.0;"/><ellipse cx="1678.5" cy="375.5" fill="#181818" rx="6" ry="6" style="stroke:none;stroke-width:1.0;"/><!--link *start*ReceivingTransfers to OPEN--><g id="link_*start*ReceivingTransfers_OPEN"><path d="M156,87.09 C156,110.84 156,175.66 156,215.1 " fill="none" id="*start*ReceivingTransfers-to-OPEN" style="stroke:#181818;stroke-width:1.0;"/><polygon fill="#181818" points="156,220.26,160,211.26,156,215.26,152,211.26,156,220.26" style="stroke:#181818;stroke-width:1.0;"/><text fill="#000000" font-family="sans-serif" font-size="13" lengthAdjust="spacing" textLength="80" x="157" y="131.897">TransferFulfill</text></g><!--link OPEN to CLOSED--><g id="link_OPEN_CLOSED"><path d="M207.45,220.44 C289.98,179.72 457.09,111.62 599,144 C660.86,158.12 725.64,192.3 767.93,217.64 " fill="none" id="OPEN-to-CLOSED" style="stroke:#181818;stroke-width:1.0;"/><polygon fill="#181818" points="772.46,220.38,766.8322,212.2974,768.1827,217.7907,762.6894,219.1411,772.46,220.38" style="stroke:#181818;stroke-width:1.0;"/><text fill="#000000" font-family="sans-serif" font-size="13" lengthAdjust="spacing" textLength="174" x="414" y="131.897">Manual or via Batch schedule</text></g><!--link CLOSED to DISPUTED--><g id="link_CLOSED_DISPUTED"><path d="M712.79,248 C670.96,248 623.86,248 587.18,248 " fill="none" id="CLOSED-to-DISPUTED" style="stroke:#181818;stroke-width:1.0;"/><polygon fill="#181818" points="581.84,248,590.84,252,586.84,248,590.84,244,581.84,248" style="stroke:#181818;stroke-width:1.0;"/><text fill="#000000" font-family="sans-serif" font-size="13" lengthAdjust="spacing" textLength="95" x="599.75" y="240.897">Operator action</text></g><!--link DISPUTED to CLOSED--><g id="link_DISPUTED_CLOSED"><path d="M581.59,266.72 C587.34,268.05 593.13,269.19 598.75,270 C634.08,275.09 672.83,273.42 707.65,269.28 " fill="none" id="DISPUTED-to-CLOSED" style="stroke:#181818;stroke-width:1.0;"/><polygon fill="#181818" points="712.75,268.65,703.3264,265.7872,707.788,269.2649,704.3102,273.7264,712.75,268.65" style="stroke:#181818;stroke-width:1.0;"/><text fill="#000000" font-family="sans-serif" font-size="13" lengthAdjust="spacing" textLength="95" x="599.75" y="265.897">Operator action</text></g><!--link OPEN to DISPUTED--><g id="link_OPEN_DISPUTED"><path d="M289.12,248 C347.89,248 414.18,248 461.31,248 " fill="none" id="OPEN-to-DISPUTED" style="stroke:#181818;stroke-width:1.0;"/><polygon fill="#181818" points="466.38,248,457.38,244,461.38,248,457.38,252,466.38,248" style="stroke:#181818;stroke-width:1.0;"/><text fill="#000000" font-family="sans-serif" font-size="13" lengthAdjust="spacing" textLength="141" x="307.25" y="240.897">Manual operator action</text></g><!--link AWAITING_SETTLEMENT to CLOSED--><g id="link_AWAITING_SETTLEMENT_CLOSED"><path d="M1058.58,223.71 C1017.3,222.09 974.57,222.34 934.5,226 C930.51,226.36 926.46,226.8 922.37,227.28 " fill="none" id="AWAITING_SETTLEMENT-to-CLOSED" style="stroke:#181818;stroke-width:1.0;"/><polygon fill="#181818" points="917.18,227.93,926.6026,230.7961,922.1423,227.3168,925.6215,222.8565,917.18,227.93" style="stroke:#181818;stroke-width:1.0;"/><text fill="#000000" font-family="sans-serif" font-size="13" lengthAdjust="spacing" textLength="81" x="947.5" y="215.897">Lock released</text></g><!--link CLOSED to AWAITING_SETTLEMENT--><g id="link_CLOSED_AWAITING_SETTLEMENT"><path d="M917.27,248 C957.59,248 1005.64,248 1053.39,248 " fill="none" id="CLOSED-to-AWAITING_SETTLEMENT" style="stroke:#181818;stroke-width:1.0;"/><polygon fill="#181818" points="1058.61,248,1049.61,244,1053.61,248,1049.61,252,1058.61,248" style="stroke:#181818;stroke-width:1.0;"/><text fill="#000000" font-family="sans-serif" font-size="13" lengthAdjust="spacing" textLength="105" x="935.5" y="265.897">Locked via matrix</text></g><!--link AWAITING_SETTLEMENT to SETTLED--><g id="link_AWAITING_SETTLEMENT_SETTLED"><path d="M1503.15,248 C1513.04,248 1522.92,248 1532.81,248 " fill="none" id="AWAITING_SETTLEMENT-to-SETTLED" style="stroke:#181818;stroke-width:1.0;"/><polygon fill="#181818" points="1537.98,248,1528.98,244,1532.98,248,1528.98,252,1537.98,248" style="stroke:#181818;stroke-width:1.0;"/></g><!--link SETTLED to *end*--><g id="link_SETTLED_*end*"><path d="M1678,284.15 C1678,309.15 1678,341.42 1678,359.7 " fill="none" id="SETTLED-to-*end*" style="stroke:#181818;stroke-width:1.0;"/><polygon fill="#181818" points="1678,364.9,1682,355.9,1678,359.9,1674,355.9,1678,364.9" style="stroke:#181818;stroke-width:1.0;"/><text fill="#000000" font-family="sans-serif" font-size="13" lengthAdjust="spacing" textLength="109" x="1679" y="330.897">Obligation fulfilled</text></g><!--SRC=[VL9FJy8m5B_pATvHbn3k7amGXY61GTpKWp7cqRr1OzUIjWCMutUtwpOOHEZrlT_VFcFH4hmG8xxZSfreb2OZRU2d1-vz19_Gxp_2OXb6y03jU5A8Z0lXLvhH4rgs0Mv04wObM0LCILFaDD2UdC2stBtVNizutP5RjXIJjO9oadQELlD3e-s9dVPejeZ3iPEOeonGWDAmuzW86hQXj13a4SVDI5dGRIP0MKAkTDT1PzifZAVnyZNnoCMMD5edWSno9VtYSTmrStEnTe0hGLKHnkSxozJPR5DTy1qxUYFDit8eq_10hBZQLXmcoSmJJhXqVB6bxSNWX8IyXkwvtS1uC88L2fIC36oBbU36TUgnm_VXD9b6pryroJoCahCIPefzkw85eMaGfrB_mzO8Ilq7rXuywfgMgrcA4jHUacuzvrYsaivsTGEPLZdW7hcjVjkSKjwvyeEWjXG4zxSYDIrLjRU5LNTVtRypuJfPO_KjaDMNxzB-0G00]--></g></svg>