<?xml version="1.0" encoding="us-ascii" standalone="no"?><svg xmlns="http://www.w3.org/2000/svg" xmlns:xlink="http://www.w3.org/1999/xlink" contentStyleType="text/css" height="388px" preserveAspectRatio="none" style="width:1652px;height:388px;background:#FFFFFF;" version="1.1" viewBox="0 0 1652 388" width="1652px" zoomAndPan="magnify"><defs/><g><!--cluster ReceivingTransfers--><g id="cluster_ReceivingTransfers"><path d="M19.5,7 L238.5,7 A12.5,12.5 0 0 1 251,19.5 L251,31.0679 L7,31.0679 L7,19.5 A12.5,12.5 0 0 1 19.5,7 " fill="#F1F1F1" style="stroke:#F1F1F1;stroke-width:1.0;"/><rect fill="none" height="292" rx="12.5" ry="12.5" style="stroke:#181818;stroke-width:0.5;" width="244" x="7" y="7"/><line style="stroke:#181818;stroke-width:0.5;" x1="7" x2="251" y1="31.0679" y2="31.0679"/><text fill="#000000" font-family="sans-serif" font-size="14" lengthAdjust="spacing" textLength="129" x="64.5" y="25.9659">ReceivingTransfers</text></g><!--cluster CreateSettlementMatrix--><g id="cluster_CreateSettlementMatrix"><path d="M408.5,168 L866.5,168 A12.5,12.5 0 0 1 879,180.5 L879,192.0679 L396,192.0679 L396,180.5 A12.5,12.5 0 0 1 408.5,168 " fill="#F1F1F1" style="stroke:#F1F1F1;stroke-width:1.0;"/><rect fill="none" height="131" rx="12.5" ry="12.5" style="stroke:#181818;stroke-width:0.5;" width="483" x="396" y="168"/><line style="stroke:#181818;stroke-width:0.5;" x1="396" x2="879" y1="192.0679" y2="192.0679"/><text fill="#000000" font-family="sans-serif" font-size="14" lengthAdjust="spacing" textLength="160" x="557.5" y="186.9659">CreateSettlementMatrix</text></g><!--cluster VerifyAndExecuteSettlementMatrix--><g id="cluster_VerifyAndExecuteSettlementMatrix"><path d="M1027.5,160 L1626.5,160 A12.5,12.5 0 0 1 1639,172.5 L1639,184.0679 L1015,184.0679 L1015,172.5 A12.5,12.5 0 0 1 1027.5,160 " fill="#F1F1F1" style="stroke:#F1F1F1;stroke-width:1.0;"/><rect fill="none" height="147" rx="12.5" ry="12.5" style="stroke:#181818;stroke-width:0.5;" width="624" x="1015" y="160"/><line style="stroke:#181818;stroke-width:0.5;" x1="1015" x2="1639" y1="184.0679" y2="184.0679"/><text fill="#000000" font-family="sans-serif" font-size="14" lengthAdjust="spacing" textLength="233" x="1210.5" y="178.9659">VerifyAndExecuteSettlementMatrix</text></g><ellipse cx="129" cy="77" fill="#181818" rx="10" ry="10" style="stroke:none;stroke-width:1.0;"/><g id="ReceivingTransfers.OPEN"><rect fill="#F1F1F1" height="55.412" rx="12.5" ry="12.5" style="stroke:#181818;stroke-width:0.5;" width="211" x="23.5" y="228"/><line style="stroke:#181818;stroke-width:0.5;" x1="23.5" x2="234.5" y1="257.0679" y2="257.0679"/><text fill="#000000" font-family="sans-serif" font-size="14" lengthAdjust="spacing" textLength="38" x="110" y="247.9659">OPEN</text><text fill="#000000" font-family="sans-serif" font-size="12" lengthAdjust="spacing" textLength="191" x="28.5" y="274.896">Batch is ready to receive transfers</text></g><g id="CreateSettlementMatrix.CLOSED"><rect fill="#F1F1F1" height="55.412" rx="12.5" ry="12.5" style="stroke:#181818;stroke-width:0.5;" width="204" x="659" y="228"/><line style="stroke:#181818;stroke-width:0.5;" x1="659" x2="863" y1="257.0679" y2="257.0679"/><text fill="#000000" font-family="sans-serif" font-size="14" lengthAdjust="spacing" textLength="53" x="734.5" y="247.9659">CLOSED</text><text fill="#000000" font-family="sans-serif" font-size="12" lengthAdjust="spacing" textLength="184" x="664" y="274.896">Not receiving any more transfers</text></g><g id="CreateSettlementMatrix.DISPUTED"><rect fill="#F1F1F1" height="55.412" rx="12.5" ry="12.5" style="stroke:#181818;stroke-width:0.5;" width="115" x="412.5" y="228"/><line style="stroke:#181818;stroke-width:0.5;" x1="412.5" x2="527.5" y1="257.0679" y2="257.0679"/><text fill="#000000" font-family="sans-serif" font-size="14" lengthAdjust="spacing" textLength="67" x="436.5" y="247.9659">DISPUTED</text><text fill="#000000" font-family="sans-serif" font-size="12" lengthAdjust="spacing" textLength="95" x="417.5" y="274.896">Not able to settle</text></g><g id="VerifyAndExecuteSettlementMatrix.SETTLED"><rect fill="#F1F1F1" height="55.412" rx="12.5" ry="12.5" style="stroke:#181818;stroke-width:0.5;" width="77" x="1537.5" y="228"/><line style="stroke:#181818;stroke-width:0.5;" x1="1537.5" x2="1614.5" y1="257.0679" y2="257.0679"/><text fill="#000000" font-family="sans-serif" font-size="14" lengthAdjust="spacing" textLength="57" x="1547.5" y="247.9659">SETTLED</text><text fill="#000000" font-family="sans-serif" font-size="12" lengthAdjust="spacing" textLength="54" x="1542.5" y="274.896">Final Step</text></g><g id="VerifyAndExecuteSettlementMatrix.AWAITING_SETTLEMENT"><rect fill="#F1F1F1" height="55.412" rx="12.5" ry="12.5" style="stroke:#181818;stroke-width:0.5;" width="444" x="1058" y="228"/><line style="stroke:#181818;stroke-width:0.5;" x1="1058" x2="1502" y1="257.0679" y2="257.0679"/><text fill="#000000" font-family="sans-serif" font-size="14" lengthAdjust="spacing" textLength="163" x="1198.5" y="247.9659">AWAITING_SETTLEMENT</text><text fill="#000000" font-family="sans-serif" font-size="12" lengthAdjust="spacing" textLength="369" x="1063" y="274.896">Only owner matrix may release batch from awaiting settlement (to</text><text fill="#000000" font-family="sans-serif" font-size="12" font-weight="bold" lengthAdjust="spacing" textLength="48" x="1435" y="274.896">CLOSED</text><text fill="#000000" font-family="sans-serif" font-size="12" lengthAdjust="spacing" textLength="4" x="1483" y="274.896">)</text></g><ellipse cx="1576" cy="372" fill="none" rx="10" ry="10" style="stroke:#181818;stroke-width:1.0;"/><ellipse cx="1576.5" cy="372.5" fill="#181818" rx="6" ry="6" style="stroke:none;stroke-width:1.0;"/><!--link *start*ReceivingTransfers to OPEN--><g id="link_*start*ReceivingTransfers_OPEN"><path d="M129,87.49 C129,112.62 129,181.78 129,222.79 " fill="none" id="*start*ReceivingTransfers-to-OPEN" style="stroke:#181818;stroke-width:1.0;"/><polygon fill="#181818" points="129,227.9,133,218.9,129,222.9,125,218.9,129,227.9" style="stroke:#181818;stroke-width:1.0;"/></g><!--link OPEN to CLOSED--><g id="link_OPEN_CLOSED"><path d="M174.99,227.93 C251.5,185.53 409.88,112.44 545,145 C608.94,160.41 675.23,198.12 717.23,225.21 " fill="none" id="OPEN-to-CLOSED" style="stroke:#181818;stroke-width:1.0;"/><polygon fill="#181818" points="721.47,227.96,716.095,219.7071,717.2748,225.2396,711.7424,226.4194,721.47,227.96" style="stroke:#181818;stroke-width:1.0;"/><text fill="#000000" font-family="sans-serif" font-size="13" lengthAdjust="spacing" textLength="174" x="359" y="131.897">Manual or via Batch schedule</text></g><!--link CLOSED to DISPUTED--><g id="link_CLOSED_DISPUTED"><path d="M658.79,255.5 C616.96,255.5 569.86,255.5 533.18,255.5 " fill="none" id="CLOSED-to-DISPUTED" style="stroke:#181818;stroke-width:1.0;"/><polygon fill="#181818" points="527.84,255.5,536.84,259.5,532.84,255.5,536.84,251.5,527.84,255.5" style="stroke:#181818;stroke-width:1.0;"/><text fill="#000000" font-family="sans-serif" font-size="13" lengthAdjust="spacing" textLength="95" x="545.75" y="248.397">Operator action</text></g><!--link DISPUTED to CLOSED--><g id="link_DISPUTED_CLOSED"><path d="M527.59,274.22 C533.34,275.55 539.13,276.69 544.75,277.5 C580.08,282.59 618.83,280.92 653.65,276.78 " fill="none" id="DISPUTED-to-CLOSED" style="stroke:#181818;stroke-width:1.0;"/><polygon fill="#181818" points="658.75,276.15,649.3264,273.2872,653.788,276.7649,650.3102,281.2264,658.75,276.15" style="stroke:#181818;stroke-width:1.0;"/><text fill="#000000" font-family="sans-serif" font-size="13" lengthAdjust="spacing" textLength="95" x="545.75" y="273.397">Operator action</text></g><!--link OPEN to DISPUTED--><g id="link_OPEN_DISPUTED"><path d="M234.56,255.5 C290.99,255.5 358.57,255.5 406.83,255.5 " fill="none" id="OPEN-to-DISPUTED" style="stroke:#181818;stroke-width:1.0;"/><polygon fill="#181818" points="412.03,255.5,403.03,251.5,407.03,255.5,403.03,259.5,412.03,255.5" style="stroke:#181818;stroke-width:1.0;"/><text fill="#000000" font-family="sans-serif" font-size="13" lengthAdjust="spacing" textLength="141" x="253" y="248.397">Manual operator action</text></g><!--link CLOSED to VerifyAndExecuteSettlementMatrix--><g id="link_CLOSED_VerifyAndExecuteSettlementMatrix"><path d="M863.05,255.5 C898.105,255.5 936.075,255.5 966.22,255.5 C981.2925,255.5 994.4088,255.5 1004.2263,255.5 C1006.6806,255.5 1008.9288,255.5 1010.9499,255.5 C1011.9604,255.5 1012.9142,255.5 1013.8085,255.5 C1014.0321,255.5 1014.2519,255.5 1014.468,255.5 C1014.5761,255.5 1014.6832,255.5 1014.7894,255.5 " fill="none" id="CLOSED-to-VerifyAndExecuteSettlementMatrix" style="stroke:#181818;stroke-width:1.0;"/><polygon fill="#181818" points="1014.7894,255.5,1005.7894,251.5,1009.7894,255.5,1005.7894,259.5,1014.7894,255.5" style="stroke:#181818;stroke-width:1.0;"/><text fill="#000000" font-family="sans-serif" font-size="13" lengthAdjust="spacing" textLength="123" x="881.32" y="273.397">Lock Matrix vs Batch</text></g><!--link CLOSED to AWAITING_SETTLEMENT--><g id="link_CLOSED_AWAITING_SETTLEMENT"><path d="M790.49,227.67 C840.82,183.61 947.38,105.19 1045.25,129.75 C1118.23,148.07 1193.3,193.92 1238.3,224.89 " fill="none" id="CLOSED-to-AWAITING_SETTLEMENT" style="stroke:#181818;stroke-width:1.0;"/><polygon fill="#181818" points="1242.56,227.84,1237.463,219.4126,1238.4578,224.9813,1232.8891,225.9761,1242.56,227.84" style="stroke:#181818;stroke-width:1.0;"/></g><!--link AWAITING_SETTLEMENT to CLOSED--><g id="link_AWAITING_SETTLEMENT_CLOSED"><path d="M1057.77,255.5 C992.18,255.5 923.34,255.5 868.49,255.5 " fill="none" id="AWAITING_SETTLEMENT-to-CLOSED" style="stroke:#181818;stroke-width:1.0;"/><polygon fill="#181818" points="863.23,255.5,872.23,259.5,868.23,255.5,872.23,251.5,863.23,255.5" style="stroke:#181818;stroke-width:1.0;"/></g><!--link AWAITING_SETTLEMENT to SETTLED--><g id="link_AWAITING_SETTLEMENT_SETTLED"><path d="M1502.29,255.5 C1512.26,255.5 1522.23,255.5 1532.2,255.5 " fill="none" id="AWAITING_SETTLEMENT-to-SETTLED" style="stroke:#181818;stroke-width:1.0;"/><polygon fill="#181818" points="1537.42,255.5,1528.42,251.5,1532.42,255.5,1528.42,259.5,1537.42,255.5" style="stroke:#181818;stroke-width:1.0;"/></g><!--link SETTLED to *end*--><g id="link_SETTLED_*end*"><path d="M1576,283.06 C1576,305.93 1576,338.08 1576,356.5 " fill="none" id="SETTLED-to-*end*" style="stroke:#181818;stroke-width:1.0;"/><polygon fill="#181818" points="1576,361.75,1580,352.75,1576,356.75,1572,352.75,1576,361.75" style="stroke:#181818;stroke-width:1.0;"/></g><!--SRC=[XLBTJeCm5BxdASwbakm5Tc4oDpHB1bi4zS8OSyOEhX7QfJtx8SPtjoqCSN6pLuL-_VvE3ICJF51EOYVaUwPHceAqWSy0x7e9Ns4mk87v8ahy3xU18TmYvsiG1ZJXgWPMTkCe2FZ847m5WV7iOmjYIecvf8eanyXQ75e5JsWLnhDv6aqiTOnoYoKe3Jk1hP39rxJQbkHlTCX4SIjhdGFA6Ygb-mvwQAimcQQBnypVd6z88ri9p5aewO7TST_CHM3Z09SbkGACp_ShKmzvJ7N2rtNqH5eKzKYkeWFbsxDj_QJvzy8GPYh_WFPhPvegFKiQPTdCsxeJqhfAcJOdzAFdqJIR9lTl3JQEaimZtFhZp5KbonhKNfA6gj6iiBRpAGaDmTBFiT2g0joZO3Snqrc6ArjW63RoONWTd9FfPdC9qSPpvHwJkZTittBm3G00]--></g></svg>