<?xml version="1.0" encoding="us-ascii" standalone="no"?><svg xmlns="http://www.w3.org/2000/svg" xmlns:xlink="http://www.w3.org/1999/xlink" contentStyleType="text/css" height="508px" preserveAspectRatio="none" style="width:1118px;height:508px;background:#FFFFFF;" version="1.1" viewBox="0 0 1118 508" width="1118px" zoomAndPan="magnify"><defs/><g><rect fill="#FFA500" height="39.0679" rx="12.5" ry="12.5" style="stroke:#181818;stroke-width:1.5;" width="127" x="465" y="178.2038"/><text fill="#000000" font-family="sans-serif" font-size="14" font-weight="bold" lengthAdjust="spacing" textLength="107" x="475" y="203.1697">Settlements-BC</text><rect fill="#ADD8E6" height="39.0679" rx="12.5" ry="12.5" style="stroke:#181818;stroke-width:1.5;" width="83" x="642" y="20"/><text fill="#000000" font-family="sans-serif" font-size="14" lengthAdjust="spacing" textLength="63" x="652" y="44.9659">Database</text><text fill="#000000" font-family="sans-serif" font-size="14" lengthAdjust="spacing" textLength="66" x="778" y="34.432">MongoDB</text><path d="M725,39.534 L735,39.534 C750,39.534 750,29 765,29 L775,29 " fill="none" style="stroke:#181818;stroke-width:1.0;"/><text fill="#000000" font-family="sans-serif" font-size="14" lengthAdjust="spacing" textLength="43" x="778" y="55.4999">Mock (</text><text fill="#000000" font-family="sans-serif" font-size="14" font-style="italic" lengthAdjust="spacing" textLength="106" x="821" y="55.4999">Testing Purposes</text><text fill="#000000" font-family="sans-serif" font-size="14" lengthAdjust="spacing" textLength="4" x="927" y="55.4999">)</text><path d="M725,39.534 L735,39.534 C750,39.534 750,50.0679 765,50.0679 L775,50.0679 " fill="none" style="stroke:#181818;stroke-width:1.0;"/><path d="M592,197.7377 L602,197.7377 C617,197.7377 617,39.534 632,39.534 L642,39.534 " fill="none" style="stroke:#181818;stroke-width:1.0;"/><rect fill="#ADD8E6" height="39.0679" rx="12.5" ry="12.5" style="stroke:#181818;stroke-width:1.5;" width="57" x="642" y="79.0679"/><text fill="#000000" font-family="sans-serif" font-size="14" lengthAdjust="spacing" textLength="37" x="652" y="104.0339">Kafka</text><text fill="#000000" font-family="sans-serif" font-size="14" font-style="italic" lengthAdjust="spacing" textLength="122" x="752" y="104.0339">public-messages-lib</text><path d="M699,98.6019 L709,98.6019 C724,98.6019 724,98.6019 739,98.6019 L749,98.6019 " fill="none" style="stroke:#181818;stroke-width:1.0;"/><path d="M592,197.7377 L602,197.7377 C617,197.7377 617,98.6019 632,98.6019 L642,98.6019 " fill="none" style="stroke:#181818;stroke-width:1.0;"/><rect fill="#FFA500" height="39.0679" rx="12.5" ry="12.5" style="stroke:#181818;stroke-width:1.5;" width="101" x="642" y="138.1358"/><text fill="#000000" font-family="sans-serif" font-size="14" lengthAdjust="spacing" textLength="81" x="652" y="163.1018">Auditing-BC</text><rect fill="#ADD8E6" height="39.0679" rx="12.5" ry="12.5" style="stroke:#181818;stroke-width:1.5;" width="57" x="793" y="138.1358"/><text fill="#000000" font-family="sans-serif" font-size="14" lengthAdjust="spacing" textLength="37" x="803" y="163.1018">Kafka</text><text fill="#000000" font-family="sans-serif" font-size="14" font-style="italic" lengthAdjust="spacing" textLength="122" x="903" y="163.1018">public-messages-lib</text><path d="M850,157.6698 L860,157.6698 C875,157.6698 875,157.6698 890,157.6698 L900,157.6698 " fill="none" style="stroke:#181818;stroke-width:1.0;"/><path d="M743,157.6698 L753,157.6698 C768,157.6698 768,157.6698 783,157.6698 L793,157.6698 " fill="none" style="stroke:#181818;stroke-width:1.0;"/><path d="M592,197.7377 L602,197.7377 C617,197.7377 617,157.6698 632,157.6698 L642,157.6698 " fill="none" style="stroke:#181818;stroke-width:1.0;"/><rect fill="#FFA500" height="39.0679" rx="12.5" ry="12.5" style="stroke:#181818;stroke-width:1.5;" width="98" x="642" y="197.2038"/><text fill="#000000" font-family="sans-serif" font-size="14" lengthAdjust="spacing" textLength="78" x="652" y="222.1697">Logging-BC</text><rect fill="#ADD8E6" height="39.0679" rx="12.5" ry="12.5" style="stroke:#181818;stroke-width:1.5;" width="57" x="790" y="197.2038"/><text fill="#000000" font-family="sans-serif" font-size="14" lengthAdjust="spacing" textLength="37" x="800" y="222.1697">Kafka</text><text fill="#000000" font-family="sans-serif" font-size="14" font-style="italic" lengthAdjust="spacing" textLength="122" x="900" y="222.1697">public-messages-lib</text><path d="M847,216.7377 L857,216.7377 C872,216.7377 872,216.7377 887,216.7377 L897,216.7377 " fill="none" style="stroke:#181818;stroke-width:1.0;"/><path d="M740,216.7377 L750,216.7377 C765,216.7377 765,216.7377 780,216.7377 L790,216.7377 " fill="none" style="stroke:#181818;stroke-width:1.0;"/><path d="M592,197.7377 L602,197.7377 C617,197.7377 617,216.7377 632,216.7377 L642,216.7377 " fill="none" style="stroke:#181818;stroke-width:1.0;"/><rect fill="#FFA500" height="39.0679" rx="12.5" ry="12.5" style="stroke:#181818;stroke-width:1.5;" width="97" x="642" y="256.2717"/><text fill="#000000" font-family="sans-serif" font-size="14" lengthAdjust="spacing" textLength="77" x="652" y="281.2376">Security-BC</text><rect fill="#ADD8E6" height="39.0679" rx="12.5" ry="12.5" style="stroke:#181818;stroke-width:1.5;" width="57" x="789" y="256.2717"/><text fill="#000000" font-family="sans-serif" font-size="14" lengthAdjust="spacing" textLength="37" x="799" y="281.2376">Kafka</text><text fill="#000000" font-family="sans-serif" font-size="14" font-style="italic" lengthAdjust="spacing" textLength="122" x="899" y="281.2376">public-messages-lib</text><path d="M846,275.8056 L856,275.8056 C871,275.8056 871,275.8056 886,275.8056 L896,275.8056 " fill="none" style="stroke:#181818;stroke-width:1.0;"/><path d="M739,275.8056 L749,275.8056 C764,275.8056 764,275.8056 779,275.8056 L789,275.8056 " fill="none" style="stroke:#181818;stroke-width:1.0;"/><path d="M592,197.7377 L602,197.7377 C617,197.7377 617,275.8056 632,275.8056 L642,275.8056 " fill="none" style="stroke:#181818;stroke-width:1.0;"/><rect fill="#90EE90" height="39.0679" rx="12.5" ry="12.5" style="stroke:#181818;stroke-width:1.5;" width="125" x="642" y="325.8735"/><text fill="#000000" font-family="sans-serif" font-size="14" lengthAdjust="spacing" textLength="105" x="652" y="350.8395">Ledger Adapter</text><rect fill="#FFA500" height="39.0679" rx="12.5" ry="12.5" style="stroke:#181818;stroke-width:1.5;" width="159" x="817" y="315.3396"/><text fill="#000000" font-family="sans-serif" font-size="14" lengthAdjust="spacing" textLength="139" x="827" y="340.3055">Accounts &amp; Balances</text><text fill="#000000" font-family="sans-serif" font-size="14" lengthAdjust="spacing" textLength="77" x="1029" y="340.3055">TigerBeetle</text><path d="M976,334.8735 L986,334.8735 C1001,334.8735 1001,334.8735 1016,334.8735 L1026,334.8735 " fill="none" style="stroke:#181818;stroke-width:1.0;"/><path d="M767,345.4075 L777,345.4075 C792,345.4075 792,334.8735 807,334.8735 L817,334.8735 " fill="none" style="stroke:#181818;stroke-width:1.0;"/><text fill="#000000" font-family="sans-serif" font-size="14" lengthAdjust="spacing" textLength="43" x="820" y="380.3734">Mock (</text><text fill="#000000" font-family="sans-serif" font-size="14" font-style="italic" lengthAdjust="spacing" textLength="106" x="863" y="380.3734">Testing Purposes</text><text fill="#000000" font-family="sans-serif" font-size="14" lengthAdjust="spacing" textLength="4" x="969" y="380.3734">)</text><path d="M767,345.4075 L777,345.4075 C792,345.4075 792,374.9415 807,374.9415 L817,374.9415 " fill="none" style="stroke:#181818;stroke-width:1.0;"/><path d="M592,197.7377 L602,197.7377 C617,197.7377 617,345.4075 632,345.4075 L642,345.4075 " fill="none" style="stroke:#181818;stroke-width:1.0;"/><rect fill="#FFA500" height="39.0679" rx="12.5" ry="12.5" style="stroke:#181818;stroke-width:1.5;" width="107" x="308" y="148.6698"/><text fill="#000000" font-family="sans-serif" font-size="14" lengthAdjust="spacing" textLength="87" x="318" y="173.6357">Transfers-BC</text><rect fill="#ADD8E6" height="39.0679" rx="12.5" ry="12.5" style="stroke:#181818;stroke-width:1.5;" width="57" x="201" y="148.6698"/><text fill="#000000" font-family="sans-serif" font-size="14" lengthAdjust="spacing" textLength="37" x="211" y="173.6357">Kafka</text><text fill="#000000" font-family="sans-serif" font-size="14" font-style="italic" lengthAdjust="spacing" textLength="122" x="26" y="173.6357">public-messages-lib</text><path d="M201,168.2038 L191,168.2038 C176,168.2038 176,168.2038 161,168.2038 L151,168.2038 " fill="none" style="stroke:#181818;stroke-width:1.0;"/><path d="M308,168.2038 L298,168.2038 C283,168.2038 283,168.2038 268,168.2038 L258,168.2038 " fill="none" style="stroke:#181818;stroke-width:1.0;"/><path d="M465,197.7377 L455,197.7377 C440,197.7377 440,168.2038 425,168.2038 L415,168.2038 " fill="none" style="stroke:#181818;stroke-width:1.0;"/><rect fill="#FFA500" height="39.0679" rx="12.5" ry="12.5" style="stroke:#181818;stroke-width:1.5;" width="123" x="292" y="207.7377"/><text fill="#000000" font-family="sans-serif" font-size="14" lengthAdjust="spacing" textLength="103" x="302" y="232.7036">Participants-BC</text><rect fill="#ADD8E6" height="39.0679" rx="12.5" ry="12.5" style="stroke:#181818;stroke-width:1.5;" width="57" x="185" y="207.7377"/><text fill="#000000" font-family="sans-serif" font-size="14" lengthAdjust="spacing" textLength="37" x="195" y="232.7036">Kafka</text><text fill="#000000" font-family="sans-serif" font-size="14" font-style="italic" lengthAdjust="spacing" textLength="122" x="10" y="232.7036">public-messages-lib</text><path d="M185,227.2717 L175,227.2717 C160,227.2717 160,227.2717 145,227.2717 L135,227.2717 " fill="none" style="stroke:#181818;stroke-width:1.0;"/><path d="M292,227.2717 L282,227.2717 C267,227.2717 267,227.2717 252,227.2717 L242,227.2717 " fill="none" style="stroke:#181818;stroke-width:1.0;"/><path d="M465,197.7377 L455,197.7377 C440,197.7377 440,227.2717 425,227.2717 L415,227.2717 " fill="none" style="stroke:#181818;stroke-width:1.0;"/><rect fill="#DDDDDD" height="86.2717" id="_legend" rx="7.5" ry="7.5" style="stroke:#000000;stroke-width:1.0;" width="299" x="22" y="397.4754"/><text fill="#000000" font-family="sans-serif" font-size="14" font-weight="bold" lengthAdjust="spacing" textLength="51" x="27" y="417.4414">Orange</text><text fill="#000000" font-family="sans-serif" font-size="14" lengthAdjust="spacing" textLength="50" x="82" y="417.4414">= vNext</text><text fill="#000000" font-family="sans-serif" font-size="14" font-weight="bold" lengthAdjust="spacing" textLength="30" x="27" y="436.5093">Blue</text><text fill="#000000" font-family="sans-serif" font-size="14" lengthAdjust="spacing" textLength="162" x="61" y="436.5093">= 3rd Party Components</text><text fill="#000000" font-family="sans-serif" font-size="14" font-weight="bold" lengthAdjust="spacing" textLength="41" x="27" y="455.5772">Green</text><text fill="#000000" font-family="sans-serif" font-size="14" lengthAdjust="spacing" textLength="244" x="72" y="455.5772">= Settlement Components (Features)</text><text fill="#000000" font-family="sans-serif" font-size="14" font-style="italic" font-weight="bold" lengthAdjust="spacing" textLength="131" x="27" y="474.6451">public-messages-lib</text><text fill="#000000" font-family="sans-serif" font-size="14" lengthAdjust="spacing" textLength="119" x="162" y="474.6451">= Core MJL library</text><!--SRC=[hLDTQvn057sVNt6XK7PTZ8aRIYiK4jqaOBHPkYOlfOHHxzeXEYFpiNJ_VQ_ATaD9IcdhmuZdtdFct0ylZENQTaBM7U_PuikREyrbWr_1ypPeROiTIclyEF4yjg1m9ffljcmTPQouvIKtIFZY4N8b6xMA3n_L4yo2e41ZXMnWxNIl39eWcF-gSiktJtnY1K7lobPKVeV6y0QDtueo24R6mTQbgyKWIOu6qijIVwYLgQRvJr8Rh9mMTlylMYFbHYDAiePrWnekQzvRr9FapnPKbN8q57WBCM-vhD0mZvv7A0IHOaGQ6nk1tyt1zu-I1RtD5lKmQ0huB_Wdr7_T_tEnDIsKg4JFfyNvAptMOeEoXXQtbagPf3qFFiBk4tuVe9YqHc2fw_7AFIIgwvKSzfNYOoF7XECUFyk0sJLowpIQEIM_OcEa9qeZv6a616ckzunyJUuOkw3pyE-mDSt2tkSPxAYHGaauEmbFm-N9XrdX4597m1B2qoWyYy9pIAus1GpnEPlTh3CmokaAeHR6Qb4wIm9pbl8TXyyqRD5X17SzodHrUm3WIkw4LdAeZAKF-J7XtRaV2qk5Qx823pbRuPQxrXAZKZKjGWJtnRN_dcNKLaVrHe2I9SDMwJt5DZy0]--></g></svg>