<?xml version="1.0" encoding="us-ascii" standalone="no"?><svg xmlns="http://www.w3.org/2000/svg" xmlns:xlink="http://www.w3.org/1999/xlink" contentStyleType="text/css" height="331px" preserveAspectRatio="none" style="width:1040px;height:331px;background:#FFFFFF;" version="1.1" viewBox="0 0 1040 331" width="1040px" zoomAndPan="magnify"><defs/><g><rect fill="#FFA500" height="39.0679" rx="12.5" ry="12.5" style="stroke:#181818;stroke-width:1.5;" width="127" x="463" y="89.6019"/><text fill="#000000" font-family="sans-serif" font-size="14" font-weight="bold" lengthAdjust="spacing" textLength="107" x="473" y="114.5678">Settlements-BC</text><rect fill="#ADD8E6" height="39.0679" rx="12.5" ry="12.5" style="stroke:#181818;stroke-width:1.5;" width="83" x="640" y="65.3349"/><text fill="#000000" font-family="sans-serif" font-size="14" lengthAdjust="spacing" textLength="63" x="650" y="90.3008">Database</text><rect fill="#90EE90" height="39.0679" rx="12.5" ry="12.5" style="stroke:#181818;stroke-width:1.5;" width="125" x="773" y="54.8009"/><text fill="#000000" font-family="sans-serif" font-size="14" lengthAdjust="spacing" textLength="105" x="783" y="79.7669">Ledger Adapter</text><text fill="#000000" font-family="sans-serif" font-size="14" lengthAdjust="spacing" textLength="77" x="951" y="79.7669">TigerBeetle</text><path d="M898,74.3349 L908,74.3349 C923,74.3349 923,74.3349 938,74.3349 L948,74.3349 " fill="none" style="stroke:#181818;stroke-width:1.0;"/><path d="M723,84.8689 L733,84.8689 C748,84.8689 748,74.3349 763,74.3349 L773,74.3349 " fill="none" style="stroke:#181818;stroke-width:1.0;"/><text fill="#000000" font-family="sans-serif" font-size="14" lengthAdjust="spacing" textLength="66" x="776" y="119.8348">MongoDB</text><path d="M723,84.8689 L733,84.8689 C748,84.8689 748,114.4028 763,114.4028 L773,114.4028 " fill="none" style="stroke:#181818;stroke-width:1.0;"/><path d="M590,109.1358 L600,109.1358 C615,109.1358 615,84.8689 630,84.8689 L640,84.8689 " fill="none" style="stroke:#181818;stroke-width:1.0;"/><rect fill="#ADD8E6" height="39.0679" rx="12.5" ry="12.5" style="stroke:#181818;stroke-width:1.5;" width="57" x="640" y="124.4028"/><text fill="#000000" font-family="sans-serif" font-size="14" lengthAdjust="spacing" textLength="37" x="650" y="149.3687">Kafka</text><text fill="#000000" font-family="sans-serif" font-size="14" font-style="italic" lengthAdjust="spacing" textLength="122" x="750" y="149.3687">public-messages-lib</text><path d="M697,143.9368 L707,143.9368 C722,143.9368 722,143.9368 737,143.9368 L747,143.9368 " fill="none" style="stroke:#181818;stroke-width:1.0;"/><path d="M590,109.1358 L600,109.1358 C615,109.1358 615,143.9368 630,143.9368 L640,143.9368 " fill="none" style="stroke:#181818;stroke-width:1.0;"/><rect fill="#FFBBCC" height="39.0679" rx="12.5" ry="12.5" style="stroke:#181818;stroke-width:1.5;" width="121" x="292" y="89.6019"/><text fill="#000000" font-family="sans-serif" font-size="14" lengthAdjust="spacing" textLength="101" x="302" y="114.5678">Central-Ledger</text><text fill="#000000" font-family="sans-serif" font-size="14" font-style="italic" lengthAdjust="spacing" textLength="190" x="49" y="25.9659">settlement-model-rules-engine</text><path d="M292,109.1358 L282,109.1358 C267,109.1358 267,20.534 252,20.534 L242,20.534 " fill="none" style="stroke:#181818;stroke-width:1.0;"/><rect fill="#ADD8E6" height="39.0679" rx="12.5" ry="12.5" style="stroke:#181818;stroke-width:1.5;" width="83" x="159" y="41.0679"/><text fill="#000000" font-family="sans-serif" font-size="14" lengthAdjust="spacing" textLength="63" x="169" y="66.0339">Database</text><text fill="#000000" font-family="sans-serif" font-size="14" lengthAdjust="spacing" textLength="46" x="60" y="66.0339">MySQL</text><path d="M159,60.6019 L149,60.6019 C134,60.6019 134,60.6019 119,60.6019 L109,60.6019 " fill="none" style="stroke:#181818;stroke-width:1.0;"/><path d="M292,109.1358 L282,109.1358 C267,109.1358 267,60.6019 252,60.6019 L242,60.6019 " fill="none" style="stroke:#181818;stroke-width:1.0;"/><rect fill="#ADD8E6" height="39.0679" rx="12.5" ry="12.5" style="stroke:#181818;stroke-width:1.5;" width="57" x="185" y="100.1358"/><text fill="#000000" font-family="sans-serif" font-size="14" lengthAdjust="spacing" textLength="37" x="195" y="125.1018">Kafka</text><text fill="#000000" font-family="sans-serif" font-size="14" font-style="italic" lengthAdjust="spacing" textLength="122" x="10" y="125.1018">public-messages-lib</text><path d="M185,119.6698 L175,119.6698 C160,119.6698 160,119.6698 145,119.6698 L135,119.6698 " fill="none" style="stroke:#181818;stroke-width:1.0;"/><path d="M292,109.1358 L282,109.1358 C267,109.1358 267,119.6698 252,119.6698 L242,119.6698 " fill="none" style="stroke:#181818;stroke-width:1.0;"/><rect fill="#ADD8E6" height="39.0679" rx="12.5" ry="12.5" style="stroke:#181818;stroke-width:1.5;" width="57" x="185" y="159.2038"/><text fill="#000000" font-family="sans-serif" font-size="14" lengthAdjust="spacing" textLength="37" x="195" y="184.1697">Redis</text><path d="M292,109.1358 L282,109.1358 C267,109.1358 267,178.7377 252,178.7377 L242,178.7377 " fill="none" style="stroke:#181818;stroke-width:1.0;"/><path d="M463,109.1358 L453,109.1358 C438,109.1358 438,109.1358 423,109.1358 L413,109.1358 " fill="none" style="stroke:#181818;stroke-width:1.0;"/><rect fill="#DDDDDD" height="86.2717" id="_legend" rx="7.5" ry="7.5" style="stroke:#000000;stroke-width:1.0;" width="325" x="22" y="220.2717"/><text fill="#000000" font-family="sans-serif" font-size="14" font-weight="bold" lengthAdjust="spacing" textLength="30" x="27" y="240.2376">Blue</text><text fill="#000000" font-family="sans-serif" font-size="14" lengthAdjust="spacing" textLength="162" x="61" y="240.2376">= 3rd Party Components</text><text fill="#000000" font-family="sans-serif" font-size="14" font-weight="bold" lengthAdjust="spacing" textLength="26" x="27" y="259.3055">Red</text><text fill="#000000" font-family="sans-serif" font-size="14" lengthAdjust="spacing" textLength="121" x="57" y="259.3055">= Central-Services</text><text fill="#000000" font-family="sans-serif" font-size="14" font-style="italic" lengthAdjust="spacing" textLength="160" x="182" y="259.3055">(Current implementation)</text><text fill="#000000" font-family="sans-serif" font-size="14" font-weight="bold" lengthAdjust="spacing" textLength="41" x="27" y="278.3734">Green</text><text fill="#000000" font-family="sans-serif" font-size="14" lengthAdjust="spacing" textLength="244" x="72" y="278.3734">= Settlement Components (Features)</text><text fill="#000000" font-family="sans-serif" font-size="14" font-style="italic" font-weight="bold" lengthAdjust="spacing" textLength="131" x="27" y="297.4414">public-messages-lib</text><text fill="#000000" font-family="sans-serif" font-size="14" lengthAdjust="spacing" textLength="119" x="162" y="297.4414">= Core MJL library</text><!--SRC=[TL9DQzj04BtlhnZ8nLROE953QGs5L78SK2JYHaukmOILDLQNhdR5VXZyxpkIwgPVqM4Fy-RDlFSqDyuBwrkfwrPqxFpbxC4AtU0MegX4xnMsgBtZIHf5x9pWN3RVVAK2TIo55vLmIFKJS6SHzHPoh1kqyAKMdKVB8lfUOIEfbY3Ip9xn2eNHZLacVu-z5_llOkoOpRfGARdZBJed6dHSoMesOvo_dArMIPAcMqX9dnMAZpi9uZtF_TBEMrEZuZOeegDkfCPX0l-_5puCA8xbr_oVfb4P_xdYFMb_SXwnbeunXGtg6XJkFSMH41H5y1dcjeOrvN-4rBITqNtMX1DfW4_UIhG7kKD7MoTfi9RA8DjkD2YyD7fAgwDeY7zWllsxtoR3P8N21ujkIitlE1WN6ujGP3bGoGfxP2H-jC3O3RsdUs5h9RH_Ad8ue7Ma0wukuijuVl5fiWa8MQ327EBBHNorYAyXlIqtqEDJDhbRv-1Ci3i4IiXRMON12Cl4GS1Zq5wsk8273dMsl3yLu5OVf3MwTyQov-AjuSCrJwI7FYewlUU2BN4lWlB4s9bQwcO1JviL_yXokkz0VXU0cgM6vjeZOUKF]--></g></svg>