<?xml version="1.0" encoding="us-ascii" standalone="no"?><svg xmlns="http://www.w3.org/2000/svg" xmlns:xlink="http://www.w3.org/1999/xlink" contentStyleType="text/css" height="493px" preserveAspectRatio="none" style="width:1037px;height:493px;background:#FFFFFF;" version="1.1" viewBox="0 0 1037 493" width="1037px" zoomAndPan="magnify"><defs/><g><rect fill="#FFA500" height="39.0679" rx="12.5" ry="12.5" style="stroke:#181818;stroke-width:1.5;" width="127" x="465" y="170.7717"/><text fill="#000000" font-family="sans-serif" font-size="14" font-weight="bold" lengthAdjust="spacing" textLength="107" x="475" y="195.7376">Settlements-BC</text><rect fill="#ADD8E6" height="39.0679" rx="12.5" ry="12.5" style="stroke:#181818;stroke-width:1.5;" width="83" x="642" y="22.0679"/><text fill="#000000" font-family="sans-serif" font-size="14" lengthAdjust="spacing" textLength="63" x="652" y="47.0339">Database</text><text fill="#000000" font-family="sans-serif" font-size="14" lengthAdjust="spacing" textLength="66" x="778" y="25.9659">MongoDB</text><path d="M725,41.6019 L735,41.6019 C750,41.6019 750,20.534 765,20.534 L775,20.534 " fill="none" style="stroke:#181818;stroke-width:1.0;"/><text fill="#000000" font-family="sans-serif" font-size="14" lengthAdjust="spacing" textLength="77" x="778" y="47.0339">TigerBeetle</text><path d="M725,41.6019 L735,41.6019 C750,41.6019 750,41.6019 765,41.6019 L775,41.6019 " fill="none" style="stroke:#181818;stroke-width:1.0;"/><text fill="#000000" font-family="sans-serif" font-size="14" lengthAdjust="spacing" textLength="43" x="778" y="68.1018">Mock (</text><text fill="#000000" font-family="sans-serif" font-size="14" font-style="italic" lengthAdjust="spacing" textLength="106" x="821" y="68.1018">Testing Purposes</text><text fill="#000000" font-family="sans-serif" font-size="14" lengthAdjust="spacing" textLength="4" x="927" y="68.1018">)</text><path d="M725,41.6019 L735,41.6019 C750,41.6019 750,62.6698 765,62.6698 L775,62.6698 " fill="none" style="stroke:#181818;stroke-width:1.0;"/><path d="M592,190.3056 L602,190.3056 C617,190.3056 617,41.6019 632,41.6019 L642,41.6019 " fill="none" style="stroke:#181818;stroke-width:1.0;"/><rect fill="#ADD8E6" height="39.0679" rx="12.5" ry="12.5" style="stroke:#181818;stroke-width:1.5;" width="57" x="642" y="81.1358"/><text fill="#000000" font-family="sans-serif" font-size="14" lengthAdjust="spacing" textLength="37" x="652" y="106.1018">Kafka</text><text fill="#000000" font-family="sans-serif" font-size="14" font-style="italic" lengthAdjust="spacing" textLength="122" x="752" y="106.1018">public-messages-lib</text><path d="M699,100.6698 L709,100.6698 C724,100.6698 724,100.6698 739,100.6698 L749,100.6698 " fill="none" style="stroke:#181818;stroke-width:1.0;"/><path d="M592,190.3056 L602,190.3056 C617,190.3056 617,100.6698 632,100.6698 L642,100.6698 " fill="none" style="stroke:#181818;stroke-width:1.0;"/><rect fill="#FFA500" height="39.0679" rx="12.5" ry="12.5" style="stroke:#181818;stroke-width:1.5;" width="101" x="642" y="140.2038"/><text fill="#000000" font-family="sans-serif" font-size="14" lengthAdjust="spacing" textLength="81" x="652" y="165.1697">Auditing-BC</text><rect fill="#ADD8E6" height="39.0679" rx="12.5" ry="12.5" style="stroke:#181818;stroke-width:1.5;" width="57" x="793" y="140.2038"/><text fill="#000000" font-family="sans-serif" font-size="14" lengthAdjust="spacing" textLength="37" x="803" y="165.1697">Kafka</text><text fill="#000000" font-family="sans-serif" font-size="14" font-style="italic" lengthAdjust="spacing" textLength="122" x="903" y="165.1697">public-messages-lib</text><path d="M850,159.7377 L860,159.7377 C875,159.7377 875,159.7377 890,159.7377 L900,159.7377 " fill="none" style="stroke:#181818;stroke-width:1.0;"/><path d="M743,159.7377 L753,159.7377 C768,159.7377 768,159.7377 783,159.7377 L793,159.7377 " fill="none" style="stroke:#181818;stroke-width:1.0;"/><path d="M592,190.3056 L602,190.3056 C617,190.3056 617,159.7377 632,159.7377 L642,159.7377 " fill="none" style="stroke:#181818;stroke-width:1.0;"/><rect fill="#FFA500" height="39.0679" rx="12.5" ry="12.5" style="stroke:#181818;stroke-width:1.5;" width="98" x="642" y="199.2717"/><text fill="#000000" font-family="sans-serif" font-size="14" lengthAdjust="spacing" textLength="78" x="652" y="224.2376">Logging-BC</text><rect fill="#ADD8E6" height="39.0679" rx="12.5" ry="12.5" style="stroke:#181818;stroke-width:1.5;" width="57" x="790" y="199.2717"/><text fill="#000000" font-family="sans-serif" font-size="14" lengthAdjust="spacing" textLength="37" x="800" y="224.2376">Kafka</text><text fill="#000000" font-family="sans-serif" font-size="14" font-style="italic" lengthAdjust="spacing" textLength="122" x="900" y="224.2376">public-messages-lib</text><path d="M847,218.8056 L857,218.8056 C872,218.8056 872,218.8056 887,218.8056 L897,218.8056 " fill="none" style="stroke:#181818;stroke-width:1.0;"/><path d="M740,218.8056 L750,218.8056 C765,218.8056 765,218.8056 780,218.8056 L790,218.8056 " fill="none" style="stroke:#181818;stroke-width:1.0;"/><path d="M592,190.3056 L602,190.3056 C617,190.3056 617,218.8056 632,218.8056 L642,218.8056 " fill="none" style="stroke:#181818;stroke-width:1.0;"/><rect fill="#FFA500" height="39.0679" rx="12.5" ry="12.5" style="stroke:#181818;stroke-width:1.5;" width="97" x="642" y="258.3396"/><text fill="#000000" font-family="sans-serif" font-size="14" lengthAdjust="spacing" textLength="77" x="652" y="283.3055">Security-BC</text><rect fill="#ADD8E6" height="39.0679" rx="12.5" ry="12.5" style="stroke:#181818;stroke-width:1.5;" width="57" x="789" y="258.3396"/><text fill="#000000" font-family="sans-serif" font-size="14" lengthAdjust="spacing" textLength="37" x="799" y="283.3055">Kafka</text><text fill="#000000" font-family="sans-serif" font-size="14" font-style="italic" lengthAdjust="spacing" textLength="122" x="899" y="283.3055">public-messages-lib</text><path d="M846,277.8735 L856,277.8735 C871,277.8735 871,277.8735 886,277.8735 L896,277.8735 " fill="none" style="stroke:#181818;stroke-width:1.0;"/><path d="M739,277.8735 L749,277.8735 C764,277.8735 764,277.8735 779,277.8735 L789,277.8735 " fill="none" style="stroke:#181818;stroke-width:1.0;"/><path d="M592,190.3056 L602,190.3056 C617,190.3056 617,277.8735 632,277.8735 L642,277.8735 " fill="none" style="stroke:#181818;stroke-width:1.0;"/><rect fill="#90EE90" height="39.0679" rx="12.5" ry="12.5" style="stroke:#181818;stroke-width:1.5;" width="125" x="642" y="319.4754"/><text fill="#000000" font-family="sans-serif" font-size="14" lengthAdjust="spacing" textLength="105" x="652" y="344.4414">Ledger Adapter</text><text fill="#000000" font-family="sans-serif" font-size="14" lengthAdjust="spacing" textLength="77" x="820" y="323.3734">TigerBeetle</text><path d="M767,339.0094 L777,339.0094 C792,339.0094 792,317.9415 807,317.9415 L817,317.9415 " fill="none" style="stroke:#181818;stroke-width:1.0;"/><text fill="#000000" font-family="sans-serif" font-size="14" lengthAdjust="spacing" textLength="139" x="820" y="344.4414">Accounts &amp; Balances</text><path d="M767,339.0094 L777,339.0094 C792,339.0094 792,339.0094 807,339.0094 L817,339.0094 " fill="none" style="stroke:#181818;stroke-width:1.0;"/><text fill="#000000" font-family="sans-serif" font-size="14" lengthAdjust="spacing" textLength="43" x="820" y="365.5093">Mock (</text><text fill="#000000" font-family="sans-serif" font-size="14" font-style="italic" lengthAdjust="spacing" textLength="106" x="863" y="365.5093">Testing Purposes</text><text fill="#000000" font-family="sans-serif" font-size="14" lengthAdjust="spacing" textLength="4" x="969" y="365.5093">)</text><path d="M767,339.0094 L777,339.0094 C792,339.0094 792,360.0773 807,360.0773 L817,360.0773 " fill="none" style="stroke:#181818;stroke-width:1.0;"/><path d="M592,190.3056 L602,190.3056 C617,190.3056 617,339.0094 632,339.0094 L642,339.0094 " fill="none" style="stroke:#181818;stroke-width:1.0;"/><rect fill="#FFA500" height="39.0679" rx="12.5" ry="12.5" style="stroke:#181818;stroke-width:1.5;" width="107" x="308" y="141.2377"/><text fill="#000000" font-family="sans-serif" font-size="14" lengthAdjust="spacing" textLength="87" x="318" y="166.2036">Transfers-BC</text><rect fill="#ADD8E6" height="39.0679" rx="12.5" ry="12.5" style="stroke:#181818;stroke-width:1.5;" width="57" x="201" y="141.2377"/><text fill="#000000" font-family="sans-serif" font-size="14" lengthAdjust="spacing" textLength="37" x="211" y="166.2036">Kafka</text><text fill="#000000" font-family="sans-serif" font-size="14" font-style="italic" lengthAdjust="spacing" textLength="122" x="26" y="166.2036">public-messages-lib</text><path d="M201,160.7717 L191,160.7717 C176,160.7717 176,160.7717 161,160.7717 L151,160.7717 " fill="none" style="stroke:#181818;stroke-width:1.0;"/><path d="M308,160.7717 L298,160.7717 C283,160.7717 283,160.7717 268,160.7717 L258,160.7717 " fill="none" style="stroke:#181818;stroke-width:1.0;"/><path d="M465,190.3056 L455,190.3056 C440,190.3056 440,160.7717 425,160.7717 L415,160.7717 " fill="none" style="stroke:#181818;stroke-width:1.0;"/><rect fill="#FFA500" height="39.0679" rx="12.5" ry="12.5" style="stroke:#181818;stroke-width:1.5;" width="123" x="292" y="200.3056"/><text fill="#000000" font-family="sans-serif" font-size="14" lengthAdjust="spacing" textLength="103" x="302" y="225.2716">Participants-BC</text><rect fill="#ADD8E6" height="39.0679" rx="12.5" ry="12.5" style="stroke:#181818;stroke-width:1.5;" width="57" x="185" y="200.3056"/><text fill="#000000" font-family="sans-serif" font-size="14" lengthAdjust="spacing" textLength="37" x="195" y="225.2716">Kafka</text><text fill="#000000" font-family="sans-serif" font-size="14" font-style="italic" lengthAdjust="spacing" textLength="122" x="10" y="225.2716">public-messages-lib</text><path d="M185,219.8396 L175,219.8396 C160,219.8396 160,219.8396 145,219.8396 L135,219.8396 " fill="none" style="stroke:#181818;stroke-width:1.0;"/><path d="M292,219.8396 L282,219.8396 C267,219.8396 267,219.8396 252,219.8396 L242,219.8396 " fill="none" style="stroke:#181818;stroke-width:1.0;"/><path d="M465,190.3056 L455,190.3056 C440,190.3056 440,219.8396 425,219.8396 L415,219.8396 " fill="none" style="stroke:#181818;stroke-width:1.0;"/><rect fill="#DDDDDD" height="86.2717" id="_legend" rx="7.5" ry="7.5" style="stroke:#000000;stroke-width:1.0;" width="299" x="22" y="382.6113"/><text fill="#000000" font-family="sans-serif" font-size="14" font-weight="bold" lengthAdjust="spacing" textLength="51" x="27" y="402.5772">Orange</text><text fill="#000000" font-family="sans-serif" font-size="14" lengthAdjust="spacing" textLength="50" x="82" y="402.5772">= vNext</text><text fill="#000000" font-family="sans-serif" font-size="14" font-weight="bold" lengthAdjust="spacing" textLength="30" x="27" y="421.6451">Blue</text><text fill="#000000" font-family="sans-serif" font-size="14" lengthAdjust="spacing" textLength="162" x="61" y="421.6451">= 3rd Party Components</text><text fill="#000000" font-family="sans-serif" font-size="14" font-weight="bold" lengthAdjust="spacing" textLength="41" x="27" y="440.713">Green</text><text fill="#000000" font-family="sans-serif" font-size="14" lengthAdjust="spacing" textLength="244" x="72" y="440.713">= Settlement Components (Features)</text><text fill="#000000" font-family="sans-serif" font-size="14" font-style="italic" font-weight="bold" lengthAdjust="spacing" textLength="131" x="27" y="459.7809">public-messages-lib</text><text fill="#000000" font-family="sans-serif" font-size="14" lengthAdjust="spacing" textLength="119" x="162" y="459.7809">= Core MJL library</text><!--SRC=[hLDTQzj047o_Nx5GABQCeaGE9HKKOib9m94Q4ojvAQMSfBLwHBeJzs7YVz-LX75QabBQlaXePcTkTczrQIpNjXMoQdd7Pb_UtMakQ_mAdhT1QnjiKLhZnuddiHdHgQY_sw9nLB7abXVS8E6pRv0fMQjbF7xaeaOT8vB-m9PFC0c278qLieQrqvqoQ89W-gljBTy-yL4L19qh6b7wBHh3QpH-8ueW61I7d0jNYTwI8lQYrwt-q2jLTVsVh3POEYti_b-y1icDHfGK3IiQAImgtbdKpFEydwSy08koL8wk2zv3p1ikIpGZyRln-_unTKvliqNTNpWH_Ykn2VNVZltIR4sB9KhHyN61_igFDLYZhA31hQLMHclFWq-m-upFFHIJrm3CTJKSkOT4jPsI_TuIFynlA3ZkyuiAc5mZjqwZcLBn6p46UQ8qGhPAWI3DzPvHhZ4TOvVqFFn3R4sJjmzP2ZiQf50Ipax2qt1-yd6IEuIL8s0EuMaKdaNXEIHNcnnwViecD-iKZ7AwHAY4iLeKpfB1bAtuZiCzNQreCOAx3kLgUNi0u4hkX5Qoxuoj7hDZmOTpFnQM6jSK1HupjiGjTuqbHQagMeG87l9h_uAbD5P7_KQ0aYNz3kazSPiV]--></g></svg>