<?xml version="1.0" encoding="us-ascii" standalone="no"?><svg xmlns="http://www.w3.org/2000/svg" xmlns:xlink="http://www.w3.org/1999/xlink" contentStyleType="text/css" height="439px" preserveAspectRatio="none" style="width:1273px;height:439px;background:#FFFFFF;" version="1.1" viewBox="0 0 1273 439" width="1273px" zoomAndPan="magnify"><defs/><g><rect fill="#FFA500" height="39.0679" rx="12.5" ry="12.5" style="stroke:#181818;stroke-width:1.5;" width="127" x="465" y="143.4028"/><text fill="#000000" font-family="sans-serif" font-size="14" font-weight="bold" lengthAdjust="spacing" textLength="107" x="475" y="168.3687">Settlements-BC</text><rect fill="#ADD8E6" height="39.0679" rx="12.5" ry="12.5" style="stroke:#181818;stroke-width:1.5;" width="83" x="642" y="30.534"/><text fill="#000000" font-family="sans-serif" font-size="14" lengthAdjust="spacing" textLength="63" x="652" y="55.4999">Database</text><rect fill="#90EE90" height="39.0679" rx="12.5" ry="12.5" style="stroke:#181818;stroke-width:1.5;" width="125" x="775" y="20"/><text fill="#000000" font-family="sans-serif" font-size="14" lengthAdjust="spacing" textLength="105" x="785" y="44.9659">Ledger Adapter</text><rect fill="#FFA500" height="39.0679" rx="12.5" ry="12.5" style="stroke:#181818;stroke-width:1.5;" width="181" x="950" y="20"/><text fill="#000000" font-family="sans-serif" font-size="14" lengthAdjust="spacing" textLength="161" x="960" y="44.9659">Accounts &amp; Balances BC</text><text fill="#000000" font-family="sans-serif" font-size="14" lengthAdjust="spacing" textLength="77" x="1184" y="44.9659">TigerBeetle</text><path d="M1131,39.534 L1141,39.534 C1156,39.534 1156,39.534 1171,39.534 L1181,39.534 " fill="none" style="stroke:#181818;stroke-width:1.0;"/><path d="M900,39.534 L910,39.534 C925,39.534 925,39.534 940,39.534 L950,39.534 " fill="none" style="stroke:#181818;stroke-width:1.0;"/><path d="M725,50.0679 L735,50.0679 C750,50.0679 750,39.534 765,39.534 L775,39.534 " fill="none" style="stroke:#181818;stroke-width:1.0;"/><text fill="#000000" font-family="sans-serif" font-size="14" lengthAdjust="spacing" textLength="66" x="778" y="85.0339">MongoDB</text><path d="M725,50.0679 L735,50.0679 C750,50.0679 750,79.6019 765,79.6019 L775,79.6019 " fill="none" style="stroke:#181818;stroke-width:1.0;"/><path d="M592,162.9368 L602,162.9368 C617,162.9368 617,50.0679 632,50.0679 L642,50.0679 " fill="none" style="stroke:#181818;stroke-width:1.0;"/><rect fill="#ADD8E6" height="39.0679" rx="12.5" ry="12.5" style="stroke:#181818;stroke-width:1.5;" width="57" x="642" y="89.6019"/><text fill="#000000" font-family="sans-serif" font-size="14" lengthAdjust="spacing" textLength="37" x="652" y="114.5678">Kafka</text><text fill="#000000" font-family="sans-serif" font-size="14" font-style="italic" lengthAdjust="spacing" textLength="122" x="752" y="114.5678">public-messages-lib</text><path d="M699,109.1358 L709,109.1358 C724,109.1358 724,109.1358 739,109.1358 L749,109.1358 " fill="none" style="stroke:#181818;stroke-width:1.0;"/><path d="M592,162.9368 L602,162.9368 C617,162.9368 617,109.1358 632,109.1358 L642,109.1358 " fill="none" style="stroke:#181818;stroke-width:1.0;"/><rect fill="#FFA500" height="39.0679" rx="12.5" ry="12.5" style="stroke:#181818;stroke-width:1.5;" width="101" x="642" y="148.6698"/><text fill="#000000" font-family="sans-serif" font-size="14" lengthAdjust="spacing" textLength="81" x="652" y="173.6357">Auditing-BC</text><rect fill="#ADD8E6" height="39.0679" rx="12.5" ry="12.5" style="stroke:#181818;stroke-width:1.5;" width="57" x="793" y="148.6698"/><text fill="#000000" font-family="sans-serif" font-size="14" lengthAdjust="spacing" textLength="37" x="803" y="173.6357">Kafka</text><text fill="#000000" font-family="sans-serif" font-size="14" font-style="italic" lengthAdjust="spacing" textLength="122" x="903" y="173.6357">public-messages-lib</text><path d="M850,168.2038 L860,168.2038 C875,168.2038 875,168.2038 890,168.2038 L900,168.2038 " fill="none" style="stroke:#181818;stroke-width:1.0;"/><path d="M743,168.2038 L753,168.2038 C768,168.2038 768,168.2038 783,168.2038 L793,168.2038 " fill="none" style="stroke:#181818;stroke-width:1.0;"/><path d="M592,162.9368 L602,162.9368 C617,162.9368 617,168.2038 632,168.2038 L642,168.2038 " fill="none" style="stroke:#181818;stroke-width:1.0;"/><rect fill="#FFA500" height="39.0679" rx="12.5" ry="12.5" style="stroke:#181818;stroke-width:1.5;" width="98" x="642" y="207.7377"/><text fill="#000000" font-family="sans-serif" font-size="14" lengthAdjust="spacing" textLength="78" x="652" y="232.7036">Logging-BC</text><rect fill="#ADD8E6" height="39.0679" rx="12.5" ry="12.5" style="stroke:#181818;stroke-width:1.5;" width="57" x="790" y="207.7377"/><text fill="#000000" font-family="sans-serif" font-size="14" lengthAdjust="spacing" textLength="37" x="800" y="232.7036">Kafka</text><text fill="#000000" font-family="sans-serif" font-size="14" font-style="italic" lengthAdjust="spacing" textLength="122" x="900" y="232.7036">public-messages-lib</text><path d="M847,227.2717 L857,227.2717 C872,227.2717 872,227.2717 887,227.2717 L897,227.2717 " fill="none" style="stroke:#181818;stroke-width:1.0;"/><path d="M740,227.2717 L750,227.2717 C765,227.2717 765,227.2717 780,227.2717 L790,227.2717 " fill="none" style="stroke:#181818;stroke-width:1.0;"/><path d="M592,162.9368 L602,162.9368 C617,162.9368 617,227.2717 632,227.2717 L642,227.2717 " fill="none" style="stroke:#181818;stroke-width:1.0;"/><rect fill="#FFA500" height="39.0679" rx="12.5" ry="12.5" style="stroke:#181818;stroke-width:1.5;" width="97" x="642" y="266.8056"/><text fill="#000000" font-family="sans-serif" font-size="14" lengthAdjust="spacing" textLength="77" x="652" y="291.7716">Security-BC</text><rect fill="#ADD8E6" height="39.0679" rx="12.5" ry="12.5" style="stroke:#181818;stroke-width:1.5;" width="57" x="789" y="266.8056"/><text fill="#000000" font-family="sans-serif" font-size="14" lengthAdjust="spacing" textLength="37" x="799" y="291.7716">Kafka</text><text fill="#000000" font-family="sans-serif" font-size="14" font-style="italic" lengthAdjust="spacing" textLength="122" x="899" y="291.7716">public-messages-lib</text><path d="M846,286.3396 L856,286.3396 C871,286.3396 871,286.3396 886,286.3396 L896,286.3396 " fill="none" style="stroke:#181818;stroke-width:1.0;"/><path d="M739,286.3396 L749,286.3396 C764,286.3396 764,286.3396 779,286.3396 L789,286.3396 " fill="none" style="stroke:#181818;stroke-width:1.0;"/><path d="M592,162.9368 L602,162.9368 C617,162.9368 617,286.3396 632,286.3396 L642,286.3396 " fill="none" style="stroke:#181818;stroke-width:1.0;"/><rect fill="#FFA500" height="39.0679" rx="12.5" ry="12.5" style="stroke:#181818;stroke-width:1.5;" width="107" x="308" y="113.8689"/><text fill="#000000" font-family="sans-serif" font-size="14" lengthAdjust="spacing" textLength="87" x="318" y="138.8348">Transfers-BC</text><rect fill="#ADD8E6" height="39.0679" rx="12.5" ry="12.5" style="stroke:#181818;stroke-width:1.5;" width="57" x="201" y="113.8689"/><text fill="#000000" font-family="sans-serif" font-size="14" lengthAdjust="spacing" textLength="37" x="211" y="138.8348">Kafka</text><text fill="#000000" font-family="sans-serif" font-size="14" font-style="italic" lengthAdjust="spacing" textLength="122" x="26" y="138.8348">public-messages-lib</text><path d="M201,133.4028 L191,133.4028 C176,133.4028 176,133.4028 161,133.4028 L151,133.4028 " fill="none" style="stroke:#181818;stroke-width:1.0;"/><path d="M308,133.4028 L298,133.4028 C283,133.4028 283,133.4028 268,133.4028 L258,133.4028 " fill="none" style="stroke:#181818;stroke-width:1.0;"/><path d="M465,162.9368 L455,162.9368 C440,162.9368 440,133.4028 425,133.4028 L415,133.4028 " fill="none" style="stroke:#181818;stroke-width:1.0;"/><rect fill="#FFA500" height="39.0679" rx="12.5" ry="12.5" style="stroke:#181818;stroke-width:1.5;" width="123" x="292" y="172.9368"/><text fill="#000000" font-family="sans-serif" font-size="14" lengthAdjust="spacing" textLength="103" x="302" y="197.9027">Participants-BC</text><rect fill="#ADD8E6" height="39.0679" rx="12.5" ry="12.5" style="stroke:#181818;stroke-width:1.5;" width="57" x="185" y="172.9368"/><text fill="#000000" font-family="sans-serif" font-size="14" lengthAdjust="spacing" textLength="37" x="195" y="197.9027">Kafka</text><text fill="#000000" font-family="sans-serif" font-size="14" font-style="italic" lengthAdjust="spacing" textLength="122" x="10" y="197.9027">public-messages-lib</text><path d="M185,192.4707 L175,192.4707 C160,192.4707 160,192.4707 145,192.4707 L135,192.4707 " fill="none" style="stroke:#181818;stroke-width:1.0;"/><path d="M292,192.4707 L282,192.4707 C267,192.4707 267,192.4707 252,192.4707 L242,192.4707 " fill="none" style="stroke:#181818;stroke-width:1.0;"/><path d="M465,162.9368 L455,162.9368 C440,162.9368 440,192.4707 425,192.4707 L415,192.4707 " fill="none" style="stroke:#181818;stroke-width:1.0;"/><rect fill="#DDDDDD" height="86.2717" id="_legend" rx="7.5" ry="7.5" style="stroke:#000000;stroke-width:1.0;" width="299" x="22" y="327.8735"/><text fill="#000000" font-family="sans-serif" font-size="14" font-weight="bold" lengthAdjust="spacing" textLength="51" x="27" y="347.8395">Orange</text><text fill="#000000" font-family="sans-serif" font-size="14" lengthAdjust="spacing" textLength="128" x="82" y="347.8395">= Bounded Context</text><text fill="#000000" font-family="sans-serif" font-size="14" font-weight="bold" lengthAdjust="spacing" textLength="30" x="27" y="366.9074">Blue</text><text fill="#000000" font-family="sans-serif" font-size="14" lengthAdjust="spacing" textLength="162" x="61" y="366.9074">= 3rd Party Components</text><text fill="#000000" font-family="sans-serif" font-size="14" font-weight="bold" lengthAdjust="spacing" textLength="41" x="27" y="385.9753">Green</text><text fill="#000000" font-family="sans-serif" font-size="14" lengthAdjust="spacing" textLength="244" x="72" y="385.9753">= Settlement Components (Features)</text><text fill="#000000" font-family="sans-serif" font-size="14" font-style="italic" font-weight="bold" lengthAdjust="spacing" textLength="131" x="27" y="405.0432">public-messages-lib</text><text fill="#000000" font-family="sans-serif" font-size="14" lengthAdjust="spacing" textLength="119" x="162" y="405.0432">= Core MJL library</text><!--SRC=[hPFTQjj048Nlzoa62iLMK9p8eQI2GY8v2IWICRMIcnB2IZjMbqgxOdzC_VOToHWxeOKGgWi9vinyCxDxT6KTDwwJIdIyPoS_FZqOhXfyXY1OeNCjTgYS3PCq2DW9oRbiVhggzPInu8vNt2B5zyATGLJFaADeqC2ruBr3C-X7uEkwrfwOy1aItd9LeuKaPS7ml40fgJ91fCv3tGiKMZLwaRnjVi_Nl_WkOpRhVTNAEkpGMjwW3LjPpMRiLLClf9EgeKMEnds3UYShrqtpdr0hhBsHRljHLXWUM2LzxHhDS5aaX7-1KJHy7sn9ff2rxFdkyZ_4Ooqsg0Iqk7PqlJjq4C0tICW00WMaMZdyFOW9KKTfRiJOV4jYrsirk8_qqLXZmi6LHnamkKNkl44xfUH_33IMfzeW55aE53BSR1bDk9kJiIjwx_y4jYHhkiSYXmqTgTGApa-ZisX- -dLIUeJCKs0EqLaSdSVH1QGtgn86VSecTyiShFQcHX3IEYChxmWmPHdVSFXEtfSTnl3GeyeMz_i0tAYDD5eDcx7igJWaVBa84-beSKEZm5F15hZcldLKKMj1JepXiRmDBrbE1-nftnXGiNJuoSoMjDKV]--></g></svg>