<?xml version="1.0" encoding="us-ascii" standalone="no"?><svg xmlns="http://www.w3.org/2000/svg" xmlns:xlink="http://www.w3.org/1999/xlink" contentStyleType="text/css" height="310px" preserveAspectRatio="none" style="width:1040px;height:310px;background:#FFFFFF;" version="1.1" viewBox="0 0 1040 310" width="1040px" zoomAndPan="magnify"><defs/><g><rect fill="#FFA500" height="39.0679" rx="12.5" ry="12.5" style="stroke:#181818;stroke-width:1.5;" width="127" x="463" y="79.0679"/><text fill="#000000" font-family="sans-serif" font-size="14" font-weight="bold" lengthAdjust="spacing" textLength="107" x="473" y="104.0339">Settlements-BC</text><rect fill="#ADD8E6" height="39.0679" rx="12.5" ry="12.5" style="stroke:#181818;stroke-width:1.5;" width="83" x="640" y="54.8009"/><text fill="#000000" font-family="sans-serif" font-size="14" lengthAdjust="spacing" textLength="63" x="650" y="79.7669">Database</text><rect fill="#90EE90" height="39.0679" rx="12.5" ry="12.5" style="stroke:#181818;stroke-width:1.5;" width="125" x="773" y="44.267"/><text fill="#000000" font-family="sans-serif" font-size="14" lengthAdjust="spacing" textLength="105" x="783" y="69.2329">Ledger Adapter</text><text fill="#000000" font-family="sans-serif" font-size="14" lengthAdjust="spacing" textLength="77" x="951" y="69.2329">TigerBeetle</text><path d="M898,63.8009 L908,63.8009 C923,63.8009 923,63.8009 938,63.8009 L948,63.8009 " fill="none" style="stroke:#181818;stroke-width:1.0;"/><path d="M723,74.3349 L733,74.3349 C748,74.3349 748,63.8009 763,63.8009 L773,63.8009 " fill="none" style="stroke:#181818;stroke-width:1.0;"/><text fill="#000000" font-family="sans-serif" font-size="14" lengthAdjust="spacing" textLength="66" x="776" y="109.3008">MongoDB</text><path d="M723,74.3349 L733,74.3349 C748,74.3349 748,103.8689 763,103.8689 L773,103.8689 " fill="none" style="stroke:#181818;stroke-width:1.0;"/><path d="M590,98.6019 L600,98.6019 C615,98.6019 615,74.3349 630,74.3349 L640,74.3349 " fill="none" style="stroke:#181818;stroke-width:1.0;"/><rect fill="#ADD8E6" height="39.0679" rx="12.5" ry="12.5" style="stroke:#181818;stroke-width:1.5;" width="57" x="640" y="113.8689"/><text fill="#000000" font-family="sans-serif" font-size="14" lengthAdjust="spacing" textLength="37" x="650" y="138.8348">Kafka</text><text fill="#000000" font-family="sans-serif" font-size="14" font-style="italic" lengthAdjust="spacing" textLength="122" x="750" y="138.8348">public-messages-lib</text><path d="M697,133.4028 L707,133.4028 C722,133.4028 722,133.4028 737,133.4028 L747,133.4028 " fill="none" style="stroke:#181818;stroke-width:1.0;"/><path d="M590,98.6019 L600,98.6019 C615,98.6019 615,133.4028 630,133.4028 L640,133.4028 " fill="none" style="stroke:#181818;stroke-width:1.0;"/><rect fill="#FFBBCC" height="39.0679" rx="12.5" ry="12.5" style="stroke:#181818;stroke-width:1.5;" width="121" x="292" y="79.0679"/><text fill="#000000" font-family="sans-serif" font-size="14" lengthAdjust="spacing" textLength="101" x="302" y="104.0339">Central-Ledger</text><rect fill="#ADD8E6" height="39.0679" rx="12.5" ry="12.5" style="stroke:#181818;stroke-width:1.5;" width="83" x="159" y="20"/><text fill="#000000" font-family="sans-serif" font-size="14" lengthAdjust="spacing" textLength="63" x="169" y="44.9659">Database</text><text fill="#000000" font-family="sans-serif" font-size="14" lengthAdjust="spacing" textLength="46" x="60" y="44.9659">MySQL</text><path d="M159,39.534 L149,39.534 C134,39.534 134,39.534 119,39.534 L109,39.534 " fill="none" style="stroke:#181818;stroke-width:1.0;"/><path d="M292,98.6019 L282,98.6019 C267,98.6019 267,39.534 252,39.534 L242,39.534 " fill="none" style="stroke:#181818;stroke-width:1.0;"/><rect fill="#ADD8E6" height="39.0679" rx="12.5" ry="12.5" style="stroke:#181818;stroke-width:1.5;" width="57" x="185" y="79.0679"/><text fill="#000000" font-family="sans-serif" font-size="14" lengthAdjust="spacing" textLength="37" x="195" y="104.0339">Kafka</text><text fill="#000000" font-family="sans-serif" font-size="14" font-style="italic" lengthAdjust="spacing" textLength="122" x="10" y="104.0339">public-messages-lib</text><path d="M185,98.6019 L175,98.6019 C160,98.6019 160,98.6019 145,98.6019 L135,98.6019 " fill="none" style="stroke:#181818;stroke-width:1.0;"/><path d="M292,98.6019 L282,98.6019 C267,98.6019 267,98.6019 252,98.6019 L242,98.6019 " fill="none" style="stroke:#181818;stroke-width:1.0;"/><rect fill="#ADD8E6" height="39.0679" rx="12.5" ry="12.5" style="stroke:#181818;stroke-width:1.5;" width="57" x="185" y="138.1358"/><text fill="#000000" font-family="sans-serif" font-size="14" lengthAdjust="spacing" textLength="37" x="195" y="163.1018">Redis</text><path d="M292,98.6019 L282,98.6019 C267,98.6019 267,157.6698 252,157.6698 L242,157.6698 " fill="none" style="stroke:#181818;stroke-width:1.0;"/><path d="M463,98.6019 L453,98.6019 C438,98.6019 438,98.6019 423,98.6019 L413,98.6019 " fill="none" style="stroke:#181818;stroke-width:1.0;"/><rect fill="#DDDDDD" height="86.2717" id="_legend" rx="7.5" ry="7.5" style="stroke:#000000;stroke-width:1.0;" width="325" x="22" y="199.2038"/><text fill="#000000" font-family="sans-serif" font-size="14" font-weight="bold" lengthAdjust="spacing" textLength="30" x="27" y="219.1697">Blue</text><text fill="#000000" font-family="sans-serif" font-size="14" lengthAdjust="spacing" textLength="162" x="61" y="219.1697">= 3rd Party Components</text><text fill="#000000" font-family="sans-serif" font-size="14" font-weight="bold" lengthAdjust="spacing" textLength="26" x="27" y="238.2376">Red</text><text fill="#000000" font-family="sans-serif" font-size="14" lengthAdjust="spacing" textLength="121" x="57" y="238.2376">= Central-Services</text><text fill="#000000" font-family="sans-serif" font-size="14" font-style="italic" lengthAdjust="spacing" textLength="160" x="182" y="238.2376">(Current implementation)</text><text fill="#000000" font-family="sans-serif" font-size="14" font-weight="bold" lengthAdjust="spacing" textLength="41" x="27" y="257.3055">Green</text><text fill="#000000" font-family="sans-serif" font-size="14" lengthAdjust="spacing" textLength="244" x="72" y="257.3055">= Settlement Components (Features)</text><text fill="#000000" font-family="sans-serif" font-size="14" font-style="italic" font-weight="bold" lengthAdjust="spacing" textLength="131" x="27" y="276.3734">public-messages-lib</text><text fill="#000000" font-family="sans-serif" font-size="14" lengthAdjust="spacing" textLength="119" x="162" y="276.3734">= Core MJL library</text><!--SRC=[TL9TQzj047o_Nx6G5_l2nOaSIYief9BZW28HDtBo4amuMMlrg7GdxiFWVz-LXKdIDdguXvdPdTtHtZWlhU-KhZlPi_ENimShTOCRuBn4xrliK7idafHpTavqhffVlce3AHRIoqew9Fn4t5b4lO4SwmOj_AXbxz4oJjyhh1LX2IBr72fUeJ2wCOlaxxRtSlTRZehPh0zLgxQYG-TaWqwqgfhDc10lPyjbagJf1bAQpyfMZ9v4YVyFIOGWpqFvC_z7D5gEYiyzFzOyOgqSOoqsg6jeSUTfpuGepk4xp6qDAmhs0AdfUgE748cdeYDz6hf4krTRTEGwIOEr18Fg-Z5rwPNHKxBc_9ZhiVBjfxph39CbIXyikYc9FzbWD3OMeSXo8CXAUs0q_BW2OpVqdWw1hLgf_LEHmnwjepdWwYAwZEONtoRhW9050kOGNSRHLHnTGtfRhc7Wfsnojyh1cM2t29IGjweAnqLO9lSI7eFsgiCO7dhKsUB-1C2jtYjhzB0PovwBDy6NQv4e3qDKT5FF1LlWJeRMKyNMr4etCJojb-8ho-bm0-qR0sgM6kfh3yILVm00]--></g></svg>