<?xml version="1.0" encoding="us-ascii" standalone="no"?><svg xmlns="http://www.w3.org/2000/svg" xmlns:xlink="http://www.w3.org/1999/xlink" contentStyleType="text/css" height="439px" preserveAspectRatio="none" style="width:1273px;height:439px;background:#FFFFFF;" version="1.1" viewBox="0 0 1273 439" width="1273px" zoomAndPan="magnify"><defs/><g><rect fill="#FFA500" height="39.0679" rx="12.5" ry="12.5" style="stroke:#181818;stroke-width:1.5;" width="127" x="465" y="143.4028"/><text fill="#000000" font-family="sans-serif" font-size="14" font-weight="bold" lengthAdjust="spacing" textLength="107" x="475" y="168.3687">Settlements-BC</text><rect fill="#ADD8E6" height="39.0679" rx="12.5" ry="12.5" style="stroke:#181818;stroke-width:1.5;" width="83" x="642" y="30.534"/><text fill="#000000" font-family="sans-serif" font-size="14" lengthAdjust="spacing" textLength="63" x="652" y="55.4999">Database</text><rect fill="#90EE90" height="39.0679" rx="12.5" ry="12.5" style="stroke:#181818;stroke-width:1.5;" width="125" x="775" y="20"/><text fill="#000000" font-family="sans-serif" font-size="14" lengthAdjust="spacing" textLength="105" x="785" y="44.9659">Ledger Adapter</text><rect fill="#FFA500" height="39.0679" rx="12.5" ry="12.5" style="stroke:#181818;stroke-width:1.5;" width="181" x="950" y="20"/><text fill="#000000" font-family="sans-serif" font-size="14" lengthAdjust="spacing" textLength="161" x="960" y="44.9659">Accounts &amp; Balances BC</text><text fill="#000000" font-family="sans-serif" font-size="14" lengthAdjust="spacing" textLength="77" x="1184" y="44.9659">TigerBeetle</text><path d="M1131,39.534 L1141,39.534 C1156,39.534 1156,39.534 1171,39.534 L1181,39.534 " fill="none" style="stroke:#181818;stroke-width:1.0;"/><path d="M900,39.534 L910,39.534 C925,39.534 925,39.534 940,39.534 L950,39.534 " fill="none" style="stroke:#181818;stroke-width:1.0;"/><path d="M725,50.0679 L735,50.0679 C750,50.0679 750,39.534 765,39.534 L775,39.534 " fill="none" style="stroke:#181818;stroke-width:1.0;"/><text fill="#000000" font-family="sans-serif" font-size="14" lengthAdjust="spacing" textLength="66" x="778" y="85.0339">MongoDB</text><path d="M725,50.0679 L735,50.0679 C750,50.0679 750,79.6019 765,79.6019 L775,79.6019 " fill="none" style="stroke:#181818;stroke-width:1.0;"/><path d="M592,162.9368 L602,162.9368 C617,162.9368 617,50.0679 632,50.0679 L642,50.0679 " fill="none" style="stroke:#181818;stroke-width:1.0;"/><rect fill="#ADD8E6" height="39.0679" rx="12.5" ry="12.5" style="stroke:#181818;stroke-width:1.5;" width="57" x="642" y="89.6019"/><text fill="#000000" font-family="sans-serif" font-size="14" lengthAdjust="spacing" textLength="37" x="652" y="114.5678">Kafka</text><text fill="#000000" font-family="sans-serif" font-size="14" font-style="italic" lengthAdjust="spacing" textLength="122" x="752" y="114.5678">public-messages-lib</text><path d="M699,109.1358 L709,109.1358 C724,109.1358 724,109.1358 739,109.1358 L749,109.1358 " fill="none" style="stroke:#181818;stroke-width:1.0;"/><path d="M592,162.9368 L602,162.9368 C617,162.9368 617,109.1358 632,109.1358 L642,109.1358 " fill="none" style="stroke:#181818;stroke-width:1.0;"/><rect fill="#FFA500" height="39.0679" rx="12.5" ry="12.5" style="stroke:#181818;stroke-width:1.5;" width="101" x="642" y="148.6698"/><text fill="#000000" font-family="sans-serif" font-size="14" lengthAdjust="spacing" textLength="81" x="652" y="173.6357">Auditing-BC</text><rect fill="#ADD8E6" height="39.0679" rx="12.5" ry="12.5" style="stroke:#181818;stroke-width:1.5;" width="57" x="793" y="148.6698"/><text fill="#000000" font-family="sans-serif" font-size="14" lengthAdjust="spacing" textLength="37" x="803" y="173.6357">Kafka</text><text fill="#000000" font-family="sans-serif" font-size="14" font-style="italic" lengthAdjust="spacing" textLength="122" x="903" y="173.6357">public-messages-lib</text><path d="M850,168.2038 L860,168.2038 C875,168.2038 875,168.2038 890,168.2038 L900,168.2038 " fill="none" style="stroke:#181818;stroke-width:1.0;"/><path d="M743,168.2038 L753,168.2038 C768,168.2038 768,168.2038 783,168.2038 L793,168.2038 " fill="none" style="stroke:#181818;stroke-width:1.0;"/><path d="M592,162.9368 L602,162.9368 C617,162.9368 617,168.2038 632,168.2038 L642,168.2038 " fill="none" style="stroke:#181818;stroke-width:1.0;"/><rect fill="#FFA500" height="39.0679" rx="12.5" ry="12.5" style="stroke:#181818;stroke-width:1.5;" width="98" x="642" y="207.7377"/><text fill="#000000" font-family="sans-serif" font-size="14" lengthAdjust="spacing" textLength="78" x="652" y="232.7036">Logging-BC</text><rect fill="#ADD8E6" height="39.0679" rx="12.5" ry="12.5" style="stroke:#181818;stroke-width:1.5;" width="57" x="790" y="207.7377"/><text fill="#000000" font-family="sans-serif" font-size="14" lengthAdjust="spacing" textLength="37" x="800" y="232.7036">Kafka</text><text fill="#000000" font-family="sans-serif" font-size="14" font-style="italic" lengthAdjust="spacing" textLength="122" x="900" y="232.7036">public-messages-lib</text><path d="M847,227.2717 L857,227.2717 C872,227.2717 872,227.2717 887,227.2717 L897,227.2717 " fill="none" style="stroke:#181818;stroke-width:1.0;"/><path d="M740,227.2717 L750,227.2717 C765,227.2717 765,227.2717 780,227.2717 L790,227.2717 " fill="none" style="stroke:#181818;stroke-width:1.0;"/><path d="M592,162.9368 L602,162.9368 C617,162.9368 617,227.2717 632,227.2717 L642,227.2717 " fill="none" style="stroke:#181818;stroke-width:1.0;"/><rect fill="#FFA500" height="39.0679" rx="12.5" ry="12.5" style="stroke:#181818;stroke-width:1.5;" width="97" x="642" y="266.8056"/><text fill="#000000" font-family="sans-serif" font-size="14" lengthAdjust="spacing" textLength="77" x="652" y="291.7716">Security-BC</text><rect fill="#ADD8E6" height="39.0679" rx="12.5" ry="12.5" style="stroke:#181818;stroke-width:1.5;" width="57" x="789" y="266.8056"/><text fill="#000000" font-family="sans-serif" font-size="14" lengthAdjust="spacing" textLength="37" x="799" y="291.7716">Kafka</text><text fill="#000000" font-family="sans-serif" font-size="14" font-style="italic" lengthAdjust="spacing" textLength="122" x="899" y="291.7716">public-messages-lib</text><path d="M846,286.3396 L856,286.3396 C871,286.3396 871,286.3396 886,286.3396 L896,286.3396 " fill="none" style="stroke:#181818;stroke-width:1.0;"/><path d="M739,286.3396 L749,286.3396 C764,286.3396 764,286.3396 779,286.3396 L789,286.3396 " fill="none" style="stroke:#181818;stroke-width:1.0;"/><path d="M592,162.9368 L602,162.9368 C617,162.9368 617,286.3396 632,286.3396 L642,286.3396 " fill="none" style="stroke:#181818;stroke-width:1.0;"/><rect fill="#FFA500" height="39.0679" rx="12.5" ry="12.5" style="stroke:#181818;stroke-width:1.5;" width="107" x="308" y="113.8689"/><text fill="#000000" font-family="sans-serif" font-size="14" lengthAdjust="spacing" textLength="87" x="318" y="138.8348">Transfers-BC</text><text fill="#000000" font-family="sans-serif" font-size="14" font-style="italic" lengthAdjust="spacing" textLength="129" x="126" y="109.3008">settlement-model-lib</text><path d="M308,133.4028 L298,133.4028 C283,133.4028 283,103.8689 268,103.8689 L258,103.8689 " fill="none" style="stroke:#181818;stroke-width:1.0;"/><rect fill="#ADD8E6" height="39.0679" rx="12.5" ry="12.5" style="stroke:#181818;stroke-width:1.5;" width="57" x="201" y="124.4028"/><text fill="#000000" font-family="sans-serif" font-size="14" lengthAdjust="spacing" textLength="37" x="211" y="149.3687">Kafka</text><text fill="#000000" font-family="sans-serif" font-size="14" font-style="italic" lengthAdjust="spacing" textLength="122" x="26" y="149.3687">public-messages-lib</text><path d="M201,143.9368 L191,143.9368 C176,143.9368 176,143.9368 161,143.9368 L151,143.9368 " fill="none" style="stroke:#181818;stroke-width:1.0;"/><path d="M308,133.4028 L298,133.4028 C283,133.4028 283,143.9368 268,143.9368 L258,143.9368 " fill="none" style="stroke:#181818;stroke-width:1.0;"/><path d="M465,162.9368 L455,162.9368 C440,162.9368 440,133.4028 425,133.4028 L415,133.4028 " fill="none" style="stroke:#181818;stroke-width:1.0;"/><rect fill="#FFA500" height="39.0679" rx="12.5" ry="12.5" style="stroke:#181818;stroke-width:1.5;" width="123" x="292" y="183.4707"/><text fill="#000000" font-family="sans-serif" font-size="14" lengthAdjust="spacing" textLength="103" x="302" y="208.4367">Participants-BC</text><rect fill="#ADD8E6" height="39.0679" rx="12.5" ry="12.5" style="stroke:#181818;stroke-width:1.5;" width="57" x="185" y="183.4707"/><text fill="#000000" font-family="sans-serif" font-size="14" lengthAdjust="spacing" textLength="37" x="195" y="208.4367">Kafka</text><text fill="#000000" font-family="sans-serif" font-size="14" font-style="italic" lengthAdjust="spacing" textLength="122" x="10" y="208.4367">public-messages-lib</text><path d="M185,203.0047 L175,203.0047 C160,203.0047 160,203.0047 145,203.0047 L135,203.0047 " fill="none" style="stroke:#181818;stroke-width:1.0;"/><path d="M292,203.0047 L282,203.0047 C267,203.0047 267,203.0047 252,203.0047 L242,203.0047 " fill="none" style="stroke:#181818;stroke-width:1.0;"/><path d="M465,162.9368 L455,162.9368 C440,162.9368 440,203.0047 425,203.0047 L415,203.0047 " fill="none" style="stroke:#181818;stroke-width:1.0;"/><rect fill="#DDDDDD" height="86.2717" id="_legend" rx="7.5" ry="7.5" style="stroke:#000000;stroke-width:1.0;" width="299" x="22" y="327.8735"/><text fill="#000000" font-family="sans-serif" font-size="14" font-weight="bold" lengthAdjust="spacing" textLength="51" x="27" y="347.8395">Orange</text><text fill="#000000" font-family="sans-serif" font-size="14" lengthAdjust="spacing" textLength="128" x="82" y="347.8395">= Bounded Context</text><text fill="#000000" font-family="sans-serif" font-size="14" font-weight="bold" lengthAdjust="spacing" textLength="30" x="27" y="366.9074">Blue</text><text fill="#000000" font-family="sans-serif" font-size="14" lengthAdjust="spacing" textLength="162" x="61" y="366.9074">= 3rd Party Components</text><text fill="#000000" font-family="sans-serif" font-size="14" font-weight="bold" lengthAdjust="spacing" textLength="41" x="27" y="385.9753">Green</text><text fill="#000000" font-family="sans-serif" font-size="14" lengthAdjust="spacing" textLength="244" x="72" y="385.9753">= Settlement Components (Features)</text><text fill="#000000" font-family="sans-serif" font-size="14" font-style="italic" font-weight="bold" lengthAdjust="spacing" textLength="131" x="27" y="405.0432">public-messages-lib</text><text fill="#000000" font-family="sans-serif" font-size="14" lengthAdjust="spacing" textLength="119" x="162" y="405.0432">= Core MJL library</text><!--SRC=[hLFlQzim4Fskl-9WC18NDQrJHcSOj7RQGkhGiAJzCagHhOidPaj6FqBpt-_iB4rQDZRA_466U_VUtUcUBfmNrZTAoqQqxEZRXpihT8MF44KBzBx61hLtFCsYY1qHdAlgko_gG1aJuKKX759y1znOHFq8ESeABLnAqNgq7NuWV5cM9f0cV8HKr4ANw23DMDHzJx1Kn4mHgNB7UuAPqPMPf6-BtuhL3x7D68tQKDIgv0qw9ofql5R5QCHU5GrIUQKh6kIWtJTI_wYLcwhwJr8BB8DLVlDUBSxtMalwknNQRba4y8xbNbR86oEnVg7ntvJYlqX_BpKdowXIjM9hZNVfiHehr19gN7bQ_bOwYk0Bf6GFYH8oepq-Ts1AgZqqjh8llY6mQOtkl4buRxi-OU_PWmmONAFmmQ8RKl8V6khfcR48isaE5BB2RXXrkEsJiGiwT- -4pScu_dwMmvekN1aDfyVnIJm-_ZnO1eHfeC0OufCaFatYCyYk5aley24RtCnpS2RO4a4gvwqgWYU18PkAjO2lz39KWmdSjQYdazjT0AxqMbcZkydOz66sJ_XqnbFbQN1BhS33Z4rm9KBjYL4QIJvDu7vvpSzPJXSSQDu4KBEiUu9sGzZY9m00]--></g></svg>