<?xml version="1.0" encoding="us-ascii" standalone="no"?><svg xmlns="http://www.w3.org/2000/svg" xmlns:xlink="http://www.w3.org/1999/xlink" contentStyleType="text/css" height="331px" preserveAspectRatio="none" style="width:983px;height:331px;background:#FFFFFF;" version="1.1" viewBox="0 0 983 331" width="983px" zoomAndPan="magnify"><defs/><g><rect fill="#FFA500" height="39.0679" rx="12.5" ry="12.5" style="stroke:#181818;stroke-width:1.5;" width="127" x="463" y="80.1019"/><text fill="#000000" font-family="sans-serif" font-size="14" font-weight="bold" lengthAdjust="spacing" textLength="107" x="473" y="105.0678">Settlements-BC</text><rect fill="#ADD8E6" height="39.0679" rx="12.5" ry="12.5" style="stroke:#181818;stroke-width:1.5;" width="83" x="640" y="22.0679"/><text fill="#000000" font-family="sans-serif" font-size="14" lengthAdjust="spacing" textLength="63" x="650" y="47.0339">Database</text><text fill="#000000" font-family="sans-serif" font-size="14" lengthAdjust="spacing" textLength="66" x="776" y="25.9659">MongoDB</text><path d="M723,41.6019 L733,41.6019 C748,41.6019 748,20.534 763,20.534 L773,20.534 " fill="none" style="stroke:#181818;stroke-width:1.0;"/><text fill="#000000" font-family="sans-serif" font-size="14" lengthAdjust="spacing" textLength="77" x="776" y="47.0339">TigerBeetle</text><path d="M723,41.6019 L733,41.6019 C748,41.6019 748,41.6019 763,41.6019 L773,41.6019 " fill="none" style="stroke:#181818;stroke-width:1.0;"/><text fill="#000000" font-family="sans-serif" font-size="14" lengthAdjust="spacing" textLength="43" x="776" y="68.1018">Mock (</text><text fill="#000000" font-family="sans-serif" font-size="14" font-style="italic" lengthAdjust="spacing" textLength="106" x="819" y="68.1018">Testing Purposes</text><text fill="#000000" font-family="sans-serif" font-size="14" lengthAdjust="spacing" textLength="4" x="925" y="68.1018">)</text><path d="M723,41.6019 L733,41.6019 C748,41.6019 748,62.6698 763,62.6698 L773,62.6698 " fill="none" style="stroke:#181818;stroke-width:1.0;"/><path d="M590,99.6358 L600,99.6358 C615,99.6358 615,41.6019 630,41.6019 L640,41.6019 " fill="none" style="stroke:#181818;stroke-width:1.0;"/><rect fill="#ADD8E6" height="39.0679" rx="12.5" ry="12.5" style="stroke:#181818;stroke-width:1.5;" width="57" x="640" y="81.1358"/><text fill="#000000" font-family="sans-serif" font-size="14" lengthAdjust="spacing" textLength="37" x="650" y="106.1018">Kafka</text><text fill="#000000" font-family="sans-serif" font-size="14" font-style="italic" lengthAdjust="spacing" textLength="122" x="750" y="106.1018">public-messages-lib</text><path d="M697,100.6698 L707,100.6698 C722,100.6698 722,100.6698 737,100.6698 L747,100.6698 " fill="none" style="stroke:#181818;stroke-width:1.0;"/><path d="M590,99.6358 L600,99.6358 C615,99.6358 615,100.6698 630,100.6698 L640,100.6698 " fill="none" style="stroke:#181818;stroke-width:1.0;"/><rect fill="#90EE90" height="39.0679" rx="12.5" ry="12.5" style="stroke:#181818;stroke-width:1.5;" width="125" x="640" y="140.2038"/><text fill="#000000" font-family="sans-serif" font-size="14" lengthAdjust="spacing" textLength="105" x="650" y="165.1697">Ledger Adapter</text><text fill="#000000" font-family="sans-serif" font-size="14" lengthAdjust="spacing" textLength="77" x="818" y="154.6357">TigerBeetle</text><path d="M765,159.7377 L775,159.7377 C790,159.7377 790,149.2038 805,149.2038 L815,149.2038 " fill="none" style="stroke:#181818;stroke-width:1.0;"/><text fill="#000000" font-family="sans-serif" font-size="14" lengthAdjust="spacing" textLength="43" x="818" y="175.7036">Mock (</text><text fill="#000000" font-family="sans-serif" font-size="14" font-style="italic" lengthAdjust="spacing" textLength="106" x="861" y="175.7036">Testing Purposes</text><text fill="#000000" font-family="sans-serif" font-size="14" lengthAdjust="spacing" textLength="4" x="967" y="175.7036">)</text><path d="M765,159.7377 L775,159.7377 C790,159.7377 790,170.2717 805,170.2717 L815,170.2717 " fill="none" style="stroke:#181818;stroke-width:1.0;"/><path d="M590,99.6358 L600,99.6358 C615,99.6358 615,159.7377 630,159.7377 L640,159.7377 " fill="none" style="stroke:#181818;stroke-width:1.0;"/><rect fill="#FFBBCC" height="39.0679" rx="12.5" ry="12.5" style="stroke:#181818;stroke-width:1.5;" width="121" x="292" y="80.1019"/><text fill="#000000" font-family="sans-serif" font-size="14" lengthAdjust="spacing" textLength="101" x="302" y="105.0678">Central-Ledger</text><rect fill="#ADD8E6" height="39.0679" rx="12.5" ry="12.5" style="stroke:#181818;stroke-width:1.5;" width="83" x="159" y="21.034"/><text fill="#000000" font-family="sans-serif" font-size="14" lengthAdjust="spacing" textLength="63" x="169" y="45.9999">Database</text><text fill="#000000" font-family="sans-serif" font-size="14" lengthAdjust="spacing" textLength="46" x="60" y="35.4659">MySQL</text><path d="M159,40.5679 L149,40.5679 C134,40.5679 134,30.034 119,30.034 L109,30.034 " fill="none" style="stroke:#181818;stroke-width:1.0;"/><text fill="#000000" font-family="sans-serif" font-size="14" lengthAdjust="spacing" textLength="77" x="29" y="56.5339">TigerBeetle</text><path d="M159,40.5679 L149,40.5679 C134,40.5679 134,51.1019 119,51.1019 L109,51.1019 " fill="none" style="stroke:#181818;stroke-width:1.0;"/><path d="M292,99.6358 L282,99.6358 C267,99.6358 267,40.5679 252,40.5679 L242,40.5679 " fill="none" style="stroke:#181818;stroke-width:1.0;"/><rect fill="#ADD8E6" height="39.0679" rx="12.5" ry="12.5" style="stroke:#181818;stroke-width:1.5;" width="57" x="185" y="80.1019"/><text fill="#000000" font-family="sans-serif" font-size="14" lengthAdjust="spacing" textLength="37" x="195" y="105.0678">Kafka</text><text fill="#000000" font-family="sans-serif" font-size="14" font-style="italic" lengthAdjust="spacing" textLength="122" x="10" y="105.0678">public-messages-lib</text><path d="M185,99.6358 L175,99.6358 C160,99.6358 160,99.6358 145,99.6358 L135,99.6358 " fill="none" style="stroke:#181818;stroke-width:1.0;"/><path d="M292,99.6358 L282,99.6358 C267,99.6358 267,99.6358 252,99.6358 L242,99.6358 " fill="none" style="stroke:#181818;stroke-width:1.0;"/><rect fill="#ADD8E6" height="39.0679" rx="12.5" ry="12.5" style="stroke:#181818;stroke-width:1.5;" width="57" x="185" y="139.1698"/><text fill="#000000" font-family="sans-serif" font-size="14" lengthAdjust="spacing" textLength="37" x="195" y="164.1357">Redis</text><path d="M292,99.6358 L282,99.6358 C267,99.6358 267,158.7038 252,158.7038 L242,158.7038 " fill="none" style="stroke:#181818;stroke-width:1.0;"/><path d="M463,99.6358 L453,99.6358 C438,99.6358 438,99.6358 423,99.6358 L413,99.6358 " fill="none" style="stroke:#181818;stroke-width:1.0;"/><rect fill="#DDDDDD" height="105.3396" id="_legend" rx="7.5" ry="7.5" style="stroke:#000000;stroke-width:1.0;" width="325" x="22" y="201.2717"/><text fill="#000000" font-family="sans-serif" font-size="14" font-weight="bold" lengthAdjust="spacing" textLength="51" x="27" y="221.2376">Orange</text><text fill="#000000" font-family="sans-serif" font-size="14" lengthAdjust="spacing" textLength="50" x="82" y="221.2376">= vNext</text><text fill="#000000" font-family="sans-serif" font-size="14" font-weight="bold" lengthAdjust="spacing" textLength="30" x="27" y="240.3055">Blue</text><text fill="#000000" font-family="sans-serif" font-size="14" lengthAdjust="spacing" textLength="162" x="61" y="240.3055">= 3rd Party Components</text><text fill="#000000" font-family="sans-serif" font-size="14" font-weight="bold" lengthAdjust="spacing" textLength="26" x="27" y="259.3734">Red</text><text fill="#000000" font-family="sans-serif" font-size="14" lengthAdjust="spacing" textLength="121" x="57" y="259.3734">= Central-Services</text><text fill="#000000" font-family="sans-serif" font-size="14" font-style="italic" lengthAdjust="spacing" textLength="160" x="182" y="259.3734">(Current implementation)</text><text fill="#000000" font-family="sans-serif" font-size="14" font-weight="bold" lengthAdjust="spacing" textLength="41" x="27" y="278.4414">Green</text><text fill="#000000" font-family="sans-serif" font-size="14" lengthAdjust="spacing" textLength="244" x="72" y="278.4414">= Settlement Components (Features)</text><text fill="#000000" font-family="sans-serif" font-size="14" font-style="italic" font-weight="bold" lengthAdjust="spacing" textLength="131" x="27" y="297.5093">public-messages-lib</text><text fill="#000000" font-family="sans-serif" font-size="14" lengthAdjust="spacing" textLength="119" x="162" y="297.5093">= Core MJL library</text><!--SRC=[VL9TQzj047o_Nx6G5_kCeaGEfJKKKibnm94R9rRo4amvIMlrY7GdxiF4_xvhASQfQVeYJZCxkpkxUssTCAwHgcn4oqOlP_T6g0hNmFaAdQknGULi42USin7HgQn-kxps534LJkJ28k6ZNx3GgjBJkF_9P8KcHYJzWIrUOH266LedLGLBRrfjqORXy3JjdTYyYbuLXgtFQra43LehAhH1BVCmF2fk3Q9QGuebrOCVfMWT6iOv_xk53lXV2q7mSZQRnN6Ih24XmqRKGP-KgE3Vhea8AEjkzP2-lp-MF9NrhlgupsoTQXwnb9Qn6YjK9TIuSUIatm_dy1ssF_5j3yKKtG5ZKyAIrhc3H3UjLllL4KzvElhWR8LcAmkqrCWWySOG3B9f-rqB9xKQKZUSTzFjbCTJ-90P1ZCKpXkqGmh-n5HVM1k4nJm5WemmEqP-UbUCNTFtS7viMGlbdXOfRD5OwWCkpwEBQ7p-RP1vXBadO0pHnIIwd4HNaDoiCjZpGpQuNQPWjJS50WtD6PdxpWYRYws0Hw-SR702zosg-VJk0C2DsagZrTuPcpylZW5Vhe9OEjYFYYxhUS6ck16-TgGeT4dtCu6dR1PyPIcjmvFV2Q1YYQQyPaVSwWy0]--></g></svg>