<?xml version="1.0" encoding="us-ascii" standalone="no"?><svg xmlns="http://www.w3.org/2000/svg" xmlns:xlink="http://www.w3.org/1999/xlink" contentStyleType="text/css" height="512px" preserveAspectRatio="none" style="width:1037px;height:512px;background:#FFFFFF;" version="1.1" viewBox="0 0 1037 512" width="1037px" zoomAndPan="magnify"><defs/><g><rect fill="#FFA500" height="39.0679" rx="12.5" ry="12.5" style="stroke:#181818;stroke-width:1.5;" width="127" x="465" y="170.7717"/><text fill="#000000" font-family="sans-serif" font-size="14" font-weight="bold" lengthAdjust="spacing" textLength="107" x="475" y="195.7376">Settlements-BC</text><rect fill="#ADD8E6" height="39.0679" rx="12.5" ry="12.5" style="stroke:#181818;stroke-width:1.5;" width="83" x="642" y="22.0679"/><text fill="#000000" font-family="sans-serif" font-size="14" lengthAdjust="spacing" textLength="63" x="652" y="47.0339">Database</text><text fill="#000000" font-family="sans-serif" font-size="14" lengthAdjust="spacing" textLength="66" x="778" y="25.9659">MongoDB</text><path d="M725,41.6019 L735,41.6019 C750,41.6019 750,20.534 765,20.534 L775,20.534 " fill="none" style="stroke:#181818;stroke-width:1.0;"/><text fill="#000000" font-family="sans-serif" font-size="14" lengthAdjust="spacing" textLength="77" x="778" y="47.0339">TigerBeetle</text><path d="M725,41.6019 L735,41.6019 C750,41.6019 750,41.6019 765,41.6019 L775,41.6019 " fill="none" style="stroke:#181818;stroke-width:1.0;"/><text fill="#000000" font-family="sans-serif" font-size="14" lengthAdjust="spacing" textLength="43" x="778" y="68.1018">Mock (</text><text fill="#000000" font-family="sans-serif" font-size="14" font-style="italic" lengthAdjust="spacing" textLength="106" x="821" y="68.1018">Testing Purposes</text><text fill="#000000" font-family="sans-serif" font-size="14" lengthAdjust="spacing" textLength="4" x="927" y="68.1018">)</text><path d="M725,41.6019 L735,41.6019 C750,41.6019 750,62.6698 765,62.6698 L775,62.6698 " fill="none" style="stroke:#181818;stroke-width:1.0;"/><path d="M592,190.3056 L602,190.3056 C617,190.3056 617,41.6019 632,41.6019 L642,41.6019 " fill="none" style="stroke:#181818;stroke-width:1.0;"/><rect fill="#ADD8E6" height="39.0679" rx="12.5" ry="12.5" style="stroke:#181818;stroke-width:1.5;" width="57" x="642" y="81.1358"/><text fill="#000000" font-family="sans-serif" font-size="14" lengthAdjust="spacing" textLength="37" x="652" y="106.1018">Kafka</text><text fill="#000000" font-family="sans-serif" font-size="14" font-style="italic" lengthAdjust="spacing" textLength="122" x="752" y="106.1018">public-messages-lib</text><path d="M699,100.6698 L709,100.6698 C724,100.6698 724,100.6698 739,100.6698 L749,100.6698 " fill="none" style="stroke:#181818;stroke-width:1.0;"/><path d="M592,190.3056 L602,190.3056 C617,190.3056 617,100.6698 632,100.6698 L642,100.6698 " fill="none" style="stroke:#181818;stroke-width:1.0;"/><rect fill="#FFA500" height="39.0679" rx="12.5" ry="12.5" style="stroke:#181818;stroke-width:1.5;" width="101" x="642" y="140.2038"/><text fill="#000000" font-family="sans-serif" font-size="14" lengthAdjust="spacing" textLength="81" x="652" y="165.1697">Auditing-BC</text><rect fill="#ADD8E6" height="39.0679" rx="12.5" ry="12.5" style="stroke:#181818;stroke-width:1.5;" width="57" x="793" y="140.2038"/><text fill="#000000" font-family="sans-serif" font-size="14" lengthAdjust="spacing" textLength="37" x="803" y="165.1697">Kafka</text><text fill="#000000" font-family="sans-serif" font-size="14" font-style="italic" lengthAdjust="spacing" textLength="122" x="903" y="165.1697">public-messages-lib</text><path d="M850,159.7377 L860,159.7377 C875,159.7377 875,159.7377 890,159.7377 L900,159.7377 " fill="none" style="stroke:#181818;stroke-width:1.0;"/><path d="M743,159.7377 L753,159.7377 C768,159.7377 768,159.7377 783,159.7377 L793,159.7377 " fill="none" style="stroke:#181818;stroke-width:1.0;"/><path d="M592,190.3056 L602,190.3056 C617,190.3056 617,159.7377 632,159.7377 L642,159.7377 " fill="none" style="stroke:#181818;stroke-width:1.0;"/><rect fill="#FFA500" height="39.0679" rx="12.5" ry="12.5" style="stroke:#181818;stroke-width:1.5;" width="98" x="642" y="199.2717"/><text fill="#000000" font-family="sans-serif" font-size="14" lengthAdjust="spacing" textLength="78" x="652" y="224.2376">Logging-BC</text><rect fill="#ADD8E6" height="39.0679" rx="12.5" ry="12.5" style="stroke:#181818;stroke-width:1.5;" width="57" x="790" y="199.2717"/><text fill="#000000" font-family="sans-serif" font-size="14" lengthAdjust="spacing" textLength="37" x="800" y="224.2376">Kafka</text><text fill="#000000" font-family="sans-serif" font-size="14" font-style="italic" lengthAdjust="spacing" textLength="122" x="900" y="224.2376">public-messages-lib</text><path d="M847,218.8056 L857,218.8056 C872,218.8056 872,218.8056 887,218.8056 L897,218.8056 " fill="none" style="stroke:#181818;stroke-width:1.0;"/><path d="M740,218.8056 L750,218.8056 C765,218.8056 765,218.8056 780,218.8056 L790,218.8056 " fill="none" style="stroke:#181818;stroke-width:1.0;"/><path d="M592,190.3056 L602,190.3056 C617,190.3056 617,218.8056 632,218.8056 L642,218.8056 " fill="none" style="stroke:#181818;stroke-width:1.0;"/><rect fill="#FFA500" height="39.0679" rx="12.5" ry="12.5" style="stroke:#181818;stroke-width:1.5;" width="97" x="642" y="258.3396"/><text fill="#000000" font-family="sans-serif" font-size="14" lengthAdjust="spacing" textLength="77" x="652" y="283.3055">Security-BC</text><rect fill="#ADD8E6" height="39.0679" rx="12.5" ry="12.5" style="stroke:#181818;stroke-width:1.5;" width="57" x="789" y="258.3396"/><text fill="#000000" font-family="sans-serif" font-size="14" lengthAdjust="spacing" textLength="37" x="799" y="283.3055">Kafka</text><text fill="#000000" font-family="sans-serif" font-size="14" font-style="italic" lengthAdjust="spacing" textLength="122" x="899" y="283.3055">public-messages-lib</text><path d="M846,277.8735 L856,277.8735 C871,277.8735 871,277.8735 886,277.8735 L896,277.8735 " fill="none" style="stroke:#181818;stroke-width:1.0;"/><path d="M739,277.8735 L749,277.8735 C764,277.8735 764,277.8735 779,277.8735 L789,277.8735 " fill="none" style="stroke:#181818;stroke-width:1.0;"/><path d="M592,190.3056 L602,190.3056 C617,190.3056 617,277.8735 632,277.8735 L642,277.8735 " fill="none" style="stroke:#181818;stroke-width:1.0;"/><rect fill="#90EE90" height="39.0679" rx="12.5" ry="12.5" style="stroke:#181818;stroke-width:1.5;" width="125" x="642" y="319.4754"/><text fill="#000000" font-family="sans-serif" font-size="14" lengthAdjust="spacing" textLength="105" x="652" y="344.4414">Ledger Adapter</text><text fill="#000000" font-family="sans-serif" font-size="14" lengthAdjust="spacing" textLength="77" x="820" y="323.3734">TigerBeetle</text><path d="M767,339.0094 L777,339.0094 C792,339.0094 792,317.9415 807,317.9415 L817,317.9415 " fill="none" style="stroke:#181818;stroke-width:1.0;"/><text fill="#000000" font-family="sans-serif" font-size="14" lengthAdjust="spacing" textLength="139" x="820" y="344.4414">Accounts &amp; Balances</text><path d="M767,339.0094 L777,339.0094 C792,339.0094 792,339.0094 807,339.0094 L817,339.0094 " fill="none" style="stroke:#181818;stroke-width:1.0;"/><text fill="#000000" font-family="sans-serif" font-size="14" lengthAdjust="spacing" textLength="43" x="820" y="365.5093">Mock (</text><text fill="#000000" font-family="sans-serif" font-size="14" font-style="italic" lengthAdjust="spacing" textLength="106" x="863" y="365.5093">Testing Purposes</text><text fill="#000000" font-family="sans-serif" font-size="14" lengthAdjust="spacing" textLength="4" x="969" y="365.5093">)</text><path d="M767,339.0094 L777,339.0094 C792,339.0094 792,360.0773 807,360.0773 L817,360.0773 " fill="none" style="stroke:#181818;stroke-width:1.0;"/><path d="M592,190.3056 L602,190.3056 C617,190.3056 617,339.0094 632,339.0094 L642,339.0094 " fill="none" style="stroke:#181818;stroke-width:1.0;"/><rect fill="#FFBBCC" height="39.0679" rx="12.5" ry="12.5" style="stroke:#181818;stroke-width:1.5;" width="121" x="294" y="111.7038"/><text fill="#000000" font-family="sans-serif" font-size="14" lengthAdjust="spacing" textLength="101" x="304" y="136.6697">Central-Ledger</text><rect fill="#ADD8E6" height="39.0679" rx="12.5" ry="12.5" style="stroke:#181818;stroke-width:1.5;" width="83" x="161" y="52.6358"/><text fill="#000000" font-family="sans-serif" font-size="14" lengthAdjust="spacing" textLength="63" x="171" y="77.6018">Database</text><text fill="#000000" font-family="sans-serif" font-size="14" lengthAdjust="spacing" textLength="46" x="62" y="67.0678">MySQL</text><path d="M161,72.1698 L151,72.1698 C136,72.1698 136,61.6358 121,61.6358 L111,61.6358 " fill="none" style="stroke:#181818;stroke-width:1.0;"/><text fill="#000000" font-family="sans-serif" font-size="14" lengthAdjust="spacing" textLength="77" x="31" y="88.1357">TigerBeetle</text><path d="M161,72.1698 L151,72.1698 C136,72.1698 136,82.7038 121,82.7038 L111,82.7038 " fill="none" style="stroke:#181818;stroke-width:1.0;"/><path d="M294,131.2377 L284,131.2377 C269,131.2377 269,72.1698 254,72.1698 L244,72.1698 " fill="none" style="stroke:#181818;stroke-width:1.0;"/><rect fill="#ADD8E6" height="39.0679" rx="12.5" ry="12.5" style="stroke:#181818;stroke-width:1.5;" width="57" x="187" y="111.7038"/><text fill="#000000" font-family="sans-serif" font-size="14" lengthAdjust="spacing" textLength="37" x="197" y="136.6697">Kafka</text><text fill="#000000" font-family="sans-serif" font-size="14" font-style="italic" lengthAdjust="spacing" textLength="122" x="12" y="136.6697">public-messages-lib</text><path d="M187,131.2377 L177,131.2377 C162,131.2377 162,131.2377 147,131.2377 L137,131.2377 " fill="none" style="stroke:#181818;stroke-width:1.0;"/><path d="M294,131.2377 L284,131.2377 C269,131.2377 269,131.2377 254,131.2377 L244,131.2377 " fill="none" style="stroke:#181818;stroke-width:1.0;"/><rect fill="#ADD8E6" height="39.0679" rx="12.5" ry="12.5" style="stroke:#181818;stroke-width:1.5;" width="57" x="187" y="170.7717"/><text fill="#000000" font-family="sans-serif" font-size="14" lengthAdjust="spacing" textLength="37" x="197" y="195.7376">Redis</text><path d="M294,131.2377 L284,131.2377 C269,131.2377 269,190.3056 254,190.3056 L244,190.3056 " fill="none" style="stroke:#181818;stroke-width:1.0;"/><path d="M465,190.3056 L455,190.3056 C440,190.3056 440,131.2377 425,131.2377 L415,131.2377 " fill="none" style="stroke:#181818;stroke-width:1.0;"/><rect fill="#FFA500" height="39.0679" rx="12.5" ry="12.5" style="stroke:#181818;stroke-width:1.5;" width="107" x="308" y="229.8396"/><text fill="#000000" font-family="sans-serif" font-size="14" lengthAdjust="spacing" textLength="87" x="318" y="254.8055">Transfers-BC</text><rect fill="#ADD8E6" height="39.0679" rx="12.5" ry="12.5" style="stroke:#181818;stroke-width:1.5;" width="57" x="201" y="229.8396"/><text fill="#000000" font-family="sans-serif" font-size="14" lengthAdjust="spacing" textLength="37" x="211" y="254.8055">Kafka</text><text fill="#000000" font-family="sans-serif" font-size="14" font-style="italic" lengthAdjust="spacing" textLength="122" x="26" y="254.8055">public-messages-lib</text><path d="M201,249.3735 L191,249.3735 C176,249.3735 176,249.3735 161,249.3735 L151,249.3735 " fill="none" style="stroke:#181818;stroke-width:1.0;"/><path d="M308,249.3735 L298,249.3735 C283,249.3735 283,249.3735 268,249.3735 L258,249.3735 " fill="none" style="stroke:#181818;stroke-width:1.0;"/><path d="M465,190.3056 L455,190.3056 C440,190.3056 440,249.3735 425,249.3735 L415,249.3735 " fill="none" style="stroke:#181818;stroke-width:1.0;"/><rect fill="#FFA500" height="39.0679" rx="12.5" ry="12.5" style="stroke:#181818;stroke-width:1.5;" width="123" x="292" y="288.9075"/><text fill="#000000" font-family="sans-serif" font-size="14" lengthAdjust="spacing" textLength="103" x="302" y="313.8734">Participants-BC</text><rect fill="#ADD8E6" height="39.0679" rx="12.5" ry="12.5" style="stroke:#181818;stroke-width:1.5;" width="57" x="185" y="288.9075"/><text fill="#000000" font-family="sans-serif" font-size="14" lengthAdjust="spacing" textLength="37" x="195" y="313.8734">Kafka</text><text fill="#000000" font-family="sans-serif" font-size="14" font-style="italic" lengthAdjust="spacing" textLength="122" x="10" y="313.8734">public-messages-lib</text><path d="M185,308.4415 L175,308.4415 C160,308.4415 160,308.4415 145,308.4415 L135,308.4415 " fill="none" style="stroke:#181818;stroke-width:1.0;"/><path d="M292,308.4415 L282,308.4415 C267,308.4415 267,308.4415 252,308.4415 L242,308.4415 " fill="none" style="stroke:#181818;stroke-width:1.0;"/><path d="M465,190.3056 L455,190.3056 C440,190.3056 440,308.4415 425,308.4415 L415,308.4415 " fill="none" style="stroke:#181818;stroke-width:1.0;"/><rect fill="#DDDDDD" height="105.3396" id="_legend" rx="7.5" ry="7.5" style="stroke:#000000;stroke-width:1.0;" width="325" x="22" y="382.6113"/><text fill="#000000" font-family="sans-serif" font-size="14" font-weight="bold" lengthAdjust="spacing" textLength="51" x="27" y="402.5772">Orange</text><text fill="#000000" font-family="sans-serif" font-size="14" lengthAdjust="spacing" textLength="50" x="82" y="402.5772">= vNext</text><text fill="#000000" font-family="sans-serif" font-size="14" font-weight="bold" lengthAdjust="spacing" textLength="30" x="27" y="421.6451">Blue</text><text fill="#000000" font-family="sans-serif" font-size="14" lengthAdjust="spacing" textLength="162" x="61" y="421.6451">= 3rd Party Components</text><text fill="#000000" font-family="sans-serif" font-size="14" font-weight="bold" lengthAdjust="spacing" textLength="26" x="27" y="440.713">Red</text><text fill="#000000" font-family="sans-serif" font-size="14" lengthAdjust="spacing" textLength="121" x="57" y="440.713">= Central-Services</text><text fill="#000000" font-family="sans-serif" font-size="14" font-style="italic" lengthAdjust="spacing" textLength="160" x="182" y="440.713">(Current implementation)</text><text fill="#000000" font-family="sans-serif" font-size="14" font-weight="bold" lengthAdjust="spacing" textLength="41" x="27" y="459.7809">Green</text><text fill="#000000" font-family="sans-serif" font-size="14" lengthAdjust="spacing" textLength="244" x="72" y="459.7809">= Settlement Components (Features)</text><text fill="#000000" font-family="sans-serif" font-size="14" font-style="italic" font-weight="bold" lengthAdjust="spacing" textLength="131" x="27" y="478.8489">public-messages-lib</text><text fill="#000000" font-family="sans-serif" font-size="14" lengthAdjust="spacing" textLength="119" x="162" y="478.8489">= Core MJL library</text><!--SRC=[hLJRQjj047tVhnW855j6KUA4qXeAiUGuuCYD6obv2Q6ifR6wHDeLUp7nttSaLJWrIIbfNsHvpfmpTrqOoxMjXCmhNhFHmz6DvhB0H_2y1AqjiK9fZHz6diT61CUY-67NfIEF6RTypGsIVVGTbaeMQXPsVr9He0uHYT-ZsHCCWY15OuKiOELqhGoQ81WUobxppHFlM45GktKfChz2OtY1nY_5EWXQHf_drEMYaQGK6zBhKd-f5QkY-4zI2MPE2xlx5wsMSgKH9QM6ERKKfZclBMhcUTxlNMuDqonJZiO57o3a9PSPcWxuK_jz_-5eFW_3A7g4Y8QjUUbtqGZoNvyu0Jwfxf9lyQ_tbxaSqhfwEx-twZtat68kJ9jRtz6KViq6TRECxmon5rlHqejCrBnRxdVfiH8Bb3cKkB7KvaxQy-0BRB_YSsCAIQirdEcy3Rc3I5MrairD4Kv5jd3VzWJrLj3GAEGWSbgJ6KHLTqV8hL1oI74zhzs9bhc_qHVAC9WZjqwZ6PBp6-btWPL6M2vY89FcUiUedgugnYxesNyNs8gsoTujOzZI02WFE3qUdupFZZyFKeUmS6GuW_79P7mw6Pz3T9caqE13DhXQnM2Kqna2JTHgiNPj8Mp1jnnkQLr5XHEugL4kPjUz0IxbLcWbcyhOudwvT_XuxeV2GjCgkeVx9PlXXhlI4YDJEItt1ExIkV-9nJGEH_LE02MBchlGEyAIdm00]--></g></svg>