<?xml version="1.0" encoding="us-ascii" standalone="no"?><svg xmlns="http://www.w3.org/2000/svg" xmlns:xlink="http://www.w3.org/1999/xlink" contentStyleType="text/css" height="508px" preserveAspectRatio="none" style="width:1035px;height:508px;background:#FFFFFF;" version="1.1" viewBox="0 0 1035 508" width="1035px" zoomAndPan="magnify"><defs/><g><rect fill="#FFA500" height="39.0679" rx="12.5" ry="12.5" style="stroke:#181818;stroke-width:1.5;" width="127" x="463" y="168.7038"/><text fill="#000000" font-family="sans-serif" font-size="14" font-weight="bold" lengthAdjust="spacing" textLength="107" x="473" y="193.6697">Settlements-BC</text><rect fill="#ADD8E6" height="39.0679" rx="12.5" ry="12.5" style="stroke:#181818;stroke-width:1.5;" width="83" x="640" y="22.0679"/><text fill="#000000" font-family="sans-serif" font-size="14" lengthAdjust="spacing" textLength="63" x="650" y="47.0339">Database</text><text fill="#000000" font-family="sans-serif" font-size="14" lengthAdjust="spacing" textLength="66" x="776" y="25.9659">MongoDB</text><path d="M723,41.6019 L733,41.6019 C748,41.6019 748,20.534 763,20.534 L773,20.534 " fill="none" style="stroke:#181818;stroke-width:1.0;"/><text fill="#000000" font-family="sans-serif" font-size="14" lengthAdjust="spacing" textLength="77" x="776" y="47.0339">TigerBeetle</text><path d="M723,41.6019 L733,41.6019 C748,41.6019 748,41.6019 763,41.6019 L773,41.6019 " fill="none" style="stroke:#181818;stroke-width:1.0;"/><text fill="#000000" font-family="sans-serif" font-size="14" lengthAdjust="spacing" textLength="43" x="776" y="68.1018">Mock (</text><text fill="#000000" font-family="sans-serif" font-size="14" font-style="italic" lengthAdjust="spacing" textLength="106" x="819" y="68.1018">Testing Purposes</text><text fill="#000000" font-family="sans-serif" font-size="14" lengthAdjust="spacing" textLength="4" x="925" y="68.1018">)</text><path d="M723,41.6019 L733,41.6019 C748,41.6019 748,62.6698 763,62.6698 L773,62.6698 " fill="none" style="stroke:#181818;stroke-width:1.0;"/><path d="M590,188.2377 L600,188.2377 C615,188.2377 615,41.6019 630,41.6019 L640,41.6019 " fill="none" style="stroke:#181818;stroke-width:1.0;"/><rect fill="#ADD8E6" height="39.0679" rx="12.5" ry="12.5" style="stroke:#181818;stroke-width:1.5;" width="57" x="640" y="81.1358"/><text fill="#000000" font-family="sans-serif" font-size="14" lengthAdjust="spacing" textLength="37" x="650" y="106.1018">Kafka</text><text fill="#000000" font-family="sans-serif" font-size="14" font-style="italic" lengthAdjust="spacing" textLength="122" x="750" y="106.1018">public-messages-lib</text><path d="M697,100.6698 L707,100.6698 C722,100.6698 722,100.6698 737,100.6698 L747,100.6698 " fill="none" style="stroke:#181818;stroke-width:1.0;"/><path d="M590,188.2377 L600,188.2377 C615,188.2377 615,100.6698 630,100.6698 L640,100.6698 " fill="none" style="stroke:#181818;stroke-width:1.0;"/><rect fill="#FFA500" height="39.0679" rx="12.5" ry="12.5" style="stroke:#181818;stroke-width:1.5;" width="101" x="640" y="140.2038"/><text fill="#000000" font-family="sans-serif" font-size="14" lengthAdjust="spacing" textLength="81" x="650" y="165.1697">Auditing-BC</text><rect fill="#ADD8E6" height="39.0679" rx="12.5" ry="12.5" style="stroke:#181818;stroke-width:1.5;" width="57" x="791" y="140.2038"/><text fill="#000000" font-family="sans-serif" font-size="14" lengthAdjust="spacing" textLength="37" x="801" y="165.1697">Kafka</text><text fill="#000000" font-family="sans-serif" font-size="14" font-style="italic" lengthAdjust="spacing" textLength="122" x="901" y="165.1697">public-messages-lib</text><path d="M848,159.7377 L858,159.7377 C873,159.7377 873,159.7377 888,159.7377 L898,159.7377 " fill="none" style="stroke:#181818;stroke-width:1.0;"/><path d="M741,159.7377 L751,159.7377 C766,159.7377 766,159.7377 781,159.7377 L791,159.7377 " fill="none" style="stroke:#181818;stroke-width:1.0;"/><path d="M590,188.2377 L600,188.2377 C615,188.2377 615,159.7377 630,159.7377 L640,159.7377 " fill="none" style="stroke:#181818;stroke-width:1.0;"/><rect fill="#FFA500" height="39.0679" rx="12.5" ry="12.5" style="stroke:#181818;stroke-width:1.5;" width="98" x="640" y="199.2717"/><text fill="#000000" font-family="sans-serif" font-size="14" lengthAdjust="spacing" textLength="78" x="650" y="224.2376">Logging-BC</text><rect fill="#ADD8E6" height="39.0679" rx="12.5" ry="12.5" style="stroke:#181818;stroke-width:1.5;" width="57" x="788" y="199.2717"/><text fill="#000000" font-family="sans-serif" font-size="14" lengthAdjust="spacing" textLength="37" x="798" y="224.2376">Kafka</text><text fill="#000000" font-family="sans-serif" font-size="14" font-style="italic" lengthAdjust="spacing" textLength="122" x="898" y="224.2376">public-messages-lib</text><path d="M845,218.8056 L855,218.8056 C870,218.8056 870,218.8056 885,218.8056 L895,218.8056 " fill="none" style="stroke:#181818;stroke-width:1.0;"/><path d="M738,218.8056 L748,218.8056 C763,218.8056 763,218.8056 778,218.8056 L788,218.8056 " fill="none" style="stroke:#181818;stroke-width:1.0;"/><path d="M590,188.2377 L600,188.2377 C615,188.2377 615,218.8056 630,218.8056 L640,218.8056 " fill="none" style="stroke:#181818;stroke-width:1.0;"/><rect fill="#FFA500" height="39.0679" rx="12.5" ry="12.5" style="stroke:#181818;stroke-width:1.5;" width="97" x="640" y="258.3396"/><text fill="#000000" font-family="sans-serif" font-size="14" lengthAdjust="spacing" textLength="77" x="650" y="283.3055">Security-BC</text><rect fill="#ADD8E6" height="39.0679" rx="12.5" ry="12.5" style="stroke:#181818;stroke-width:1.5;" width="57" x="787" y="258.3396"/><text fill="#000000" font-family="sans-serif" font-size="14" lengthAdjust="spacing" textLength="37" x="797" y="283.3055">Kafka</text><text fill="#000000" font-family="sans-serif" font-size="14" font-style="italic" lengthAdjust="spacing" textLength="122" x="897" y="283.3055">public-messages-lib</text><path d="M844,277.8735 L854,277.8735 C869,277.8735 869,277.8735 884,277.8735 L894,277.8735 " fill="none" style="stroke:#181818;stroke-width:1.0;"/><path d="M737,277.8735 L747,277.8735 C762,277.8735 762,277.8735 777,277.8735 L787,277.8735 " fill="none" style="stroke:#181818;stroke-width:1.0;"/><path d="M590,188.2377 L600,188.2377 C615,188.2377 615,277.8735 630,277.8735 L640,277.8735 " fill="none" style="stroke:#181818;stroke-width:1.0;"/><rect fill="#90EE90" height="39.0679" rx="12.5" ry="12.5" style="stroke:#181818;stroke-width:1.5;" width="125" x="640" y="317.4075"/><text fill="#000000" font-family="sans-serif" font-size="14" lengthAdjust="spacing" textLength="105" x="650" y="342.3734">Ledger Adapter</text><text fill="#000000" font-family="sans-serif" font-size="14" lengthAdjust="spacing" textLength="77" x="818" y="331.8395">TigerBeetle</text><path d="M765,336.9415 L775,336.9415 C790,336.9415 790,326.4075 805,326.4075 L815,326.4075 " fill="none" style="stroke:#181818;stroke-width:1.0;"/><text fill="#000000" font-family="sans-serif" font-size="14" lengthAdjust="spacing" textLength="43" x="818" y="352.9074">Mock (</text><text fill="#000000" font-family="sans-serif" font-size="14" font-style="italic" lengthAdjust="spacing" textLength="106" x="861" y="352.9074">Testing Purposes</text><text fill="#000000" font-family="sans-serif" font-size="14" lengthAdjust="spacing" textLength="4" x="967" y="352.9074">)</text><path d="M765,336.9415 L775,336.9415 C790,336.9415 790,347.4754 805,347.4754 L815,347.4754 " fill="none" style="stroke:#181818;stroke-width:1.0;"/><path d="M590,188.2377 L600,188.2377 C615,188.2377 615,336.9415 630,336.9415 L640,336.9415 " fill="none" style="stroke:#181818;stroke-width:1.0;"/><rect fill="#FFBBCC" height="39.0679" rx="12.5" ry="12.5" style="stroke:#181818;stroke-width:1.5;" width="121" x="292" y="168.7038"/><text fill="#000000" font-family="sans-serif" font-size="14" lengthAdjust="spacing" textLength="101" x="302" y="193.6697">Central-Ledger</text><rect fill="#ADD8E6" height="39.0679" rx="12.5" ry="12.5" style="stroke:#181818;stroke-width:1.5;" width="83" x="159" y="109.6358"/><text fill="#000000" font-family="sans-serif" font-size="14" lengthAdjust="spacing" textLength="63" x="169" y="134.6018">Database</text><text fill="#000000" font-family="sans-serif" font-size="14" lengthAdjust="spacing" textLength="46" x="60" y="124.0678">MySQL</text><path d="M159,129.1698 L149,129.1698 C134,129.1698 134,118.6358 119,118.6358 L109,118.6358 " fill="none" style="stroke:#181818;stroke-width:1.0;"/><text fill="#000000" font-family="sans-serif" font-size="14" lengthAdjust="spacing" textLength="77" x="29" y="145.1357">TigerBeetle</text><path d="M159,129.1698 L149,129.1698 C134,129.1698 134,139.7038 119,139.7038 L109,139.7038 " fill="none" style="stroke:#181818;stroke-width:1.0;"/><path d="M292,188.2377 L282,188.2377 C267,188.2377 267,129.1698 252,129.1698 L242,129.1698 " fill="none" style="stroke:#181818;stroke-width:1.0;"/><rect fill="#ADD8E6" height="39.0679" rx="12.5" ry="12.5" style="stroke:#181818;stroke-width:1.5;" width="57" x="185" y="168.7038"/><text fill="#000000" font-family="sans-serif" font-size="14" lengthAdjust="spacing" textLength="37" x="195" y="193.6697">Kafka</text><text fill="#000000" font-family="sans-serif" font-size="14" font-style="italic" lengthAdjust="spacing" textLength="122" x="10" y="193.6697">public-messages-lib</text><path d="M185,188.2377 L175,188.2377 C160,188.2377 160,188.2377 145,188.2377 L135,188.2377 " fill="none" style="stroke:#181818;stroke-width:1.0;"/><path d="M292,188.2377 L282,188.2377 C267,188.2377 267,188.2377 252,188.2377 L242,188.2377 " fill="none" style="stroke:#181818;stroke-width:1.0;"/><rect fill="#ADD8E6" height="39.0679" rx="12.5" ry="12.5" style="stroke:#181818;stroke-width:1.5;" width="57" x="185" y="227.7717"/><text fill="#000000" font-family="sans-serif" font-size="14" lengthAdjust="spacing" textLength="37" x="195" y="252.7376">Redis</text><path d="M292,188.2377 L282,188.2377 C267,188.2377 267,247.3056 252,247.3056 L242,247.3056 " fill="none" style="stroke:#181818;stroke-width:1.0;"/><path d="M463,188.2377 L453,188.2377 C438,188.2377 438,188.2377 423,188.2377 L413,188.2377 " fill="none" style="stroke:#181818;stroke-width:1.0;"/><rect fill="#DDDDDD" height="105.3396" id="_legend" rx="7.5" ry="7.5" style="stroke:#000000;stroke-width:1.0;" width="325" x="22" y="378.4754"/><text fill="#000000" font-family="sans-serif" font-size="14" font-weight="bold" lengthAdjust="spacing" textLength="51" x="27" y="398.4414">Orange</text><text fill="#000000" font-family="sans-serif" font-size="14" lengthAdjust="spacing" textLength="50" x="82" y="398.4414">= vNext</text><text fill="#000000" font-family="sans-serif" font-size="14" font-weight="bold" lengthAdjust="spacing" textLength="30" x="27" y="417.5093">Blue</text><text fill="#000000" font-family="sans-serif" font-size="14" lengthAdjust="spacing" textLength="162" x="61" y="417.5093">= 3rd Party Components</text><text fill="#000000" font-family="sans-serif" font-size="14" font-weight="bold" lengthAdjust="spacing" textLength="26" x="27" y="436.5772">Red</text><text fill="#000000" font-family="sans-serif" font-size="14" lengthAdjust="spacing" textLength="121" x="57" y="436.5772">= Central-Services</text><text fill="#000000" font-family="sans-serif" font-size="14" font-style="italic" lengthAdjust="spacing" textLength="160" x="182" y="436.5772">(Current implementation)</text><text fill="#000000" font-family="sans-serif" font-size="14" font-weight="bold" lengthAdjust="spacing" textLength="41" x="27" y="455.6451">Green</text><text fill="#000000" font-family="sans-serif" font-size="14" lengthAdjust="spacing" textLength="244" x="72" y="455.6451">= Settlement Components (Features)</text><text fill="#000000" font-family="sans-serif" font-size="14" font-style="italic" font-weight="bold" lengthAdjust="spacing" textLength="131" x="27" y="474.713">public-messages-lib</text><text fill="#000000" font-family="sans-serif" font-size="14" lengthAdjust="spacing" textLength="119" x="162" y="474.713">= Core MJL library</text><!--SRC=[hLDTJzj047o_Nx4IByb5nf2WghLK2UmGfE2K50TU4AekziOzOTzPzn4r_xvhkn4G0QhKlbZspCxSpjxwt3fXN2rLKOk6ZHwERenG9Ju2vnawLs6DojaWJZXd8w9JMVvqwyfJnLGuiHOM2H_zW8LMfPx6_STAbcXYHDBlsVm91c6uGkkaAc7fJQCjsZ0S7jfUYysJw5LXsFXr9VEWHcj5YJQev3eCEyM-pmjVoDQIMcn5RrlzfLUgo_8_MMMOUoFTxb-yEicLGLJK6XOqKhWeHEFGCCxvwobtm4TJ3eA7ezaiZfFa4HAwKoEge3SbAdZxOea8o7MNVK__lByyyb3Mn-hhtejrgBd5Gbh6AYnH5L3Xnb6IVeQSmrVOViDVBHHJTGTCJ05BsjWT9Bfkj6gtatZowUXziWpDLkPegP51ueqX66JTzEiidDHgIDrmtastKpvl-mjd6CnGE6_G3gdudL3zmTeWBEOf46I4sJ7AqwTYx9oU-p-CBIkXtDqYXIqQItt0wV7uP3mv_Z9OUOIv9s02uvDeV1gDpo2vp5RGyaCsk5gcOBKtEG8DpHcvzbqGDXTR0RTUELbZ13SDgldqUW_0fTfAerMRZCtl5yy5dyw2M3feHqMRTRzWKzm8NpbIvBgW_OdWRZKBFhEKhiDJtWXGiKIJhzaHb_q6]--></g></svg>